G04 #@! TF.GenerationSoftware,KiCad,Pcbnew,5.1.5+dfsg1-2build2*
G04 #@! TF.CreationDate,2020-05-08T13:19:40+02:00*
G04 #@! TF.ProjectId,powered multisensor,706f7765-7265-4642-906d-756c74697365,rev?*
G04 #@! TF.SameCoordinates,Original*
G04 #@! TF.FileFunction,Copper,L2,Bot*
G04 #@! TF.FilePolarity,Positive*
%FSLAX46Y46*%
G04 Gerber Fmt 4.6, Leading zero omitted, Abs format (unit mm)*
G04 Created by KiCad (PCBNEW 5.1.5+dfsg1-2build2) date 2020-05-08 13:19:40*
%MOMM*%
%LPD*%
G04 APERTURE LIST*
%ADD10R,2.000000X2.000000*%
%ADD11C,2.000000*%
%ADD12R,1.700000X1.700000*%
%ADD13O,1.700000X1.700000*%
%ADD14R,2.800000X2.800000*%
%ADD15C,2.800000*%
%ADD16O,1.700000X1.950000*%
%ADD17C,0.100000*%
%ADD18O,1.700000X2.000000*%
%ADD19C,2.300000*%
%ADD20R,2.300000X2.000000*%
%ADD21C,1.600000*%
%ADD22O,1.600000X1.600000*%
%ADD23C,2.400000*%
%ADD24O,2.400000X2.400000*%
%ADD25O,2.000000X1.600000*%
%ADD26O,2.200000X1.524000*%
%ADD27C,0.800000*%
%ADD28C,1.500000*%
%ADD29C,0.500000*%
%ADD30C,2.500000*%
%ADD31C,0.254000*%
G04 APERTURE END LIST*
D10*
X56134000Y-60579000D03*
D11*
X61134000Y-60579000D03*
D12*
X60706000Y-34163000D03*
D13*
X60706000Y-36703000D03*
X60706000Y-39243000D03*
X60706000Y-41783000D03*
X60706000Y-44323000D03*
X60706000Y-46863000D03*
X60706000Y-49403000D03*
D14*
X96520000Y-78740000D03*
D15*
X96520000Y-73740000D03*
D13*
X55626000Y-49403000D03*
X55626000Y-46863000D03*
X55626000Y-44323000D03*
X55626000Y-41783000D03*
X55626000Y-39243000D03*
X55626000Y-36703000D03*
D12*
X55626000Y-34163000D03*
X55626000Y-53340000D03*
D13*
X58166000Y-53340000D03*
X60706000Y-53340000D03*
D12*
X58166000Y-34163000D03*
D13*
X58166000Y-36703000D03*
X58166000Y-39243000D03*
X58166000Y-41783000D03*
X58166000Y-44323000D03*
X58166000Y-46863000D03*
X58166000Y-49403000D03*
D16*
X92790000Y-27940000D03*
X95290000Y-27940000D03*
G04 #@! TA.AperFunction,ComponentPad*
D17*
G36*
X98414504Y-26966204D02*
G01*
X98438773Y-26969804D01*
X98462571Y-26975765D01*
X98485671Y-26984030D01*
X98507849Y-26994520D01*
X98528893Y-27007133D01*
X98548598Y-27021747D01*
X98566777Y-27038223D01*
X98583253Y-27056402D01*
X98597867Y-27076107D01*
X98610480Y-27097151D01*
X98620970Y-27119329D01*
X98629235Y-27142429D01*
X98635196Y-27166227D01*
X98638796Y-27190496D01*
X98640000Y-27215000D01*
X98640000Y-28665000D01*
X98638796Y-28689504D01*
X98635196Y-28713773D01*
X98629235Y-28737571D01*
X98620970Y-28760671D01*
X98610480Y-28782849D01*
X98597867Y-28803893D01*
X98583253Y-28823598D01*
X98566777Y-28841777D01*
X98548598Y-28858253D01*
X98528893Y-28872867D01*
X98507849Y-28885480D01*
X98485671Y-28895970D01*
X98462571Y-28904235D01*
X98438773Y-28910196D01*
X98414504Y-28913796D01*
X98390000Y-28915000D01*
X97190000Y-28915000D01*
X97165496Y-28913796D01*
X97141227Y-28910196D01*
X97117429Y-28904235D01*
X97094329Y-28895970D01*
X97072151Y-28885480D01*
X97051107Y-28872867D01*
X97031402Y-28858253D01*
X97013223Y-28841777D01*
X96996747Y-28823598D01*
X96982133Y-28803893D01*
X96969520Y-28782849D01*
X96959030Y-28760671D01*
X96950765Y-28737571D01*
X96944804Y-28713773D01*
X96941204Y-28689504D01*
X96940000Y-28665000D01*
X96940000Y-27215000D01*
X96941204Y-27190496D01*
X96944804Y-27166227D01*
X96950765Y-27142429D01*
X96959030Y-27119329D01*
X96969520Y-27097151D01*
X96982133Y-27076107D01*
X96996747Y-27056402D01*
X97013223Y-27038223D01*
X97031402Y-27021747D01*
X97051107Y-27007133D01*
X97072151Y-26994520D01*
X97094329Y-26984030D01*
X97117429Y-26975765D01*
X97141227Y-26969804D01*
X97165496Y-26966204D01*
X97190000Y-26965000D01*
X98390000Y-26965000D01*
X98414504Y-26966204D01*
G37*
G04 #@! TD.AperFunction*
G04 #@! TA.AperFunction,ComponentPad*
G36*
X98414504Y-33316204D02*
G01*
X98438773Y-33319804D01*
X98462571Y-33325765D01*
X98485671Y-33334030D01*
X98507849Y-33344520D01*
X98528893Y-33357133D01*
X98548598Y-33371747D01*
X98566777Y-33388223D01*
X98583253Y-33406402D01*
X98597867Y-33426107D01*
X98610480Y-33447151D01*
X98620970Y-33469329D01*
X98629235Y-33492429D01*
X98635196Y-33516227D01*
X98638796Y-33540496D01*
X98640000Y-33565000D01*
X98640000Y-35015000D01*
X98638796Y-35039504D01*
X98635196Y-35063773D01*
X98629235Y-35087571D01*
X98620970Y-35110671D01*
X98610480Y-35132849D01*
X98597867Y-35153893D01*
X98583253Y-35173598D01*
X98566777Y-35191777D01*
X98548598Y-35208253D01*
X98528893Y-35222867D01*
X98507849Y-35235480D01*
X98485671Y-35245970D01*
X98462571Y-35254235D01*
X98438773Y-35260196D01*
X98414504Y-35263796D01*
X98390000Y-35265000D01*
X97190000Y-35265000D01*
X97165496Y-35263796D01*
X97141227Y-35260196D01*
X97117429Y-35254235D01*
X97094329Y-35245970D01*
X97072151Y-35235480D01*
X97051107Y-35222867D01*
X97031402Y-35208253D01*
X97013223Y-35191777D01*
X96996747Y-35173598D01*
X96982133Y-35153893D01*
X96969520Y-35132849D01*
X96959030Y-35110671D01*
X96950765Y-35087571D01*
X96944804Y-35063773D01*
X96941204Y-35039504D01*
X96940000Y-35015000D01*
X96940000Y-33565000D01*
X96941204Y-33540496D01*
X96944804Y-33516227D01*
X96950765Y-33492429D01*
X96959030Y-33469329D01*
X96969520Y-33447151D01*
X96982133Y-33426107D01*
X96996747Y-33406402D01*
X97013223Y-33388223D01*
X97031402Y-33371747D01*
X97051107Y-33357133D01*
X97072151Y-33344520D01*
X97094329Y-33334030D01*
X97117429Y-33325765D01*
X97141227Y-33319804D01*
X97165496Y-33316204D01*
X97190000Y-33315000D01*
X98390000Y-33315000D01*
X98414504Y-33316204D01*
G37*
G04 #@! TD.AperFunction*
D16*
X95290000Y-34290000D03*
X92790000Y-34290000D03*
X92790000Y-40640000D03*
X95290000Y-40640000D03*
G04 #@! TA.AperFunction,ComponentPad*
D17*
G36*
X98414504Y-39666204D02*
G01*
X98438773Y-39669804D01*
X98462571Y-39675765D01*
X98485671Y-39684030D01*
X98507849Y-39694520D01*
X98528893Y-39707133D01*
X98548598Y-39721747D01*
X98566777Y-39738223D01*
X98583253Y-39756402D01*
X98597867Y-39776107D01*
X98610480Y-39797151D01*
X98620970Y-39819329D01*
X98629235Y-39842429D01*
X98635196Y-39866227D01*
X98638796Y-39890496D01*
X98640000Y-39915000D01*
X98640000Y-41365000D01*
X98638796Y-41389504D01*
X98635196Y-41413773D01*
X98629235Y-41437571D01*
X98620970Y-41460671D01*
X98610480Y-41482849D01*
X98597867Y-41503893D01*
X98583253Y-41523598D01*
X98566777Y-41541777D01*
X98548598Y-41558253D01*
X98528893Y-41572867D01*
X98507849Y-41585480D01*
X98485671Y-41595970D01*
X98462571Y-41604235D01*
X98438773Y-41610196D01*
X98414504Y-41613796D01*
X98390000Y-41615000D01*
X97190000Y-41615000D01*
X97165496Y-41613796D01*
X97141227Y-41610196D01*
X97117429Y-41604235D01*
X97094329Y-41595970D01*
X97072151Y-41585480D01*
X97051107Y-41572867D01*
X97031402Y-41558253D01*
X97013223Y-41541777D01*
X96996747Y-41523598D01*
X96982133Y-41503893D01*
X96969520Y-41482849D01*
X96959030Y-41460671D01*
X96950765Y-41437571D01*
X96944804Y-41413773D01*
X96941204Y-41389504D01*
X96940000Y-41365000D01*
X96940000Y-39915000D01*
X96941204Y-39890496D01*
X96944804Y-39866227D01*
X96950765Y-39842429D01*
X96959030Y-39819329D01*
X96969520Y-39797151D01*
X96982133Y-39776107D01*
X96996747Y-39756402D01*
X97013223Y-39738223D01*
X97031402Y-39721747D01*
X97051107Y-39707133D01*
X97072151Y-39694520D01*
X97094329Y-39684030D01*
X97117429Y-39675765D01*
X97141227Y-39669804D01*
X97165496Y-39666204D01*
X97190000Y-39665000D01*
X98390000Y-39665000D01*
X98414504Y-39666204D01*
G37*
G04 #@! TD.AperFunction*
G04 #@! TA.AperFunction,ComponentPad*
G36*
X57520504Y-25544204D02*
G01*
X57544773Y-25547804D01*
X57568571Y-25553765D01*
X57591671Y-25562030D01*
X57613849Y-25572520D01*
X57634893Y-25585133D01*
X57654598Y-25599747D01*
X57672777Y-25616223D01*
X57689253Y-25634402D01*
X57703867Y-25654107D01*
X57716480Y-25675151D01*
X57726970Y-25697329D01*
X57735235Y-25720429D01*
X57741196Y-25744227D01*
X57744796Y-25768496D01*
X57746000Y-25793000D01*
X57746000Y-27293000D01*
X57744796Y-27317504D01*
X57741196Y-27341773D01*
X57735235Y-27365571D01*
X57726970Y-27388671D01*
X57716480Y-27410849D01*
X57703867Y-27431893D01*
X57689253Y-27451598D01*
X57672777Y-27469777D01*
X57654598Y-27486253D01*
X57634893Y-27500867D01*
X57613849Y-27513480D01*
X57591671Y-27523970D01*
X57568571Y-27532235D01*
X57544773Y-27538196D01*
X57520504Y-27541796D01*
X57496000Y-27543000D01*
X56296000Y-27543000D01*
X56271496Y-27541796D01*
X56247227Y-27538196D01*
X56223429Y-27532235D01*
X56200329Y-27523970D01*
X56178151Y-27513480D01*
X56157107Y-27500867D01*
X56137402Y-27486253D01*
X56119223Y-27469777D01*
X56102747Y-27451598D01*
X56088133Y-27431893D01*
X56075520Y-27410849D01*
X56065030Y-27388671D01*
X56056765Y-27365571D01*
X56050804Y-27341773D01*
X56047204Y-27317504D01*
X56046000Y-27293000D01*
X56046000Y-25793000D01*
X56047204Y-25768496D01*
X56050804Y-25744227D01*
X56056765Y-25720429D01*
X56065030Y-25697329D01*
X56075520Y-25675151D01*
X56088133Y-25654107D01*
X56102747Y-25634402D01*
X56119223Y-25616223D01*
X56137402Y-25599747D01*
X56157107Y-25585133D01*
X56178151Y-25572520D01*
X56200329Y-25562030D01*
X56223429Y-25553765D01*
X56247227Y-25547804D01*
X56271496Y-25544204D01*
X56296000Y-25543000D01*
X57496000Y-25543000D01*
X57520504Y-25544204D01*
G37*
G04 #@! TD.AperFunction*
D18*
X59396000Y-26543000D03*
G04 #@! TA.AperFunction,ComponentPad*
D17*
G36*
X98414504Y-46016204D02*
G01*
X98438773Y-46019804D01*
X98462571Y-46025765D01*
X98485671Y-46034030D01*
X98507849Y-46044520D01*
X98528893Y-46057133D01*
X98548598Y-46071747D01*
X98566777Y-46088223D01*
X98583253Y-46106402D01*
X98597867Y-46126107D01*
X98610480Y-46147151D01*
X98620970Y-46169329D01*
X98629235Y-46192429D01*
X98635196Y-46216227D01*
X98638796Y-46240496D01*
X98640000Y-46265000D01*
X98640000Y-47715000D01*
X98638796Y-47739504D01*
X98635196Y-47763773D01*
X98629235Y-47787571D01*
X98620970Y-47810671D01*
X98610480Y-47832849D01*
X98597867Y-47853893D01*
X98583253Y-47873598D01*
X98566777Y-47891777D01*
X98548598Y-47908253D01*
X98528893Y-47922867D01*
X98507849Y-47935480D01*
X98485671Y-47945970D01*
X98462571Y-47954235D01*
X98438773Y-47960196D01*
X98414504Y-47963796D01*
X98390000Y-47965000D01*
X97190000Y-47965000D01*
X97165496Y-47963796D01*
X97141227Y-47960196D01*
X97117429Y-47954235D01*
X97094329Y-47945970D01*
X97072151Y-47935480D01*
X97051107Y-47922867D01*
X97031402Y-47908253D01*
X97013223Y-47891777D01*
X96996747Y-47873598D01*
X96982133Y-47853893D01*
X96969520Y-47832849D01*
X96959030Y-47810671D01*
X96950765Y-47787571D01*
X96944804Y-47763773D01*
X96941204Y-47739504D01*
X96940000Y-47715000D01*
X96940000Y-46265000D01*
X96941204Y-46240496D01*
X96944804Y-46216227D01*
X96950765Y-46192429D01*
X96959030Y-46169329D01*
X96969520Y-46147151D01*
X96982133Y-46126107D01*
X96996747Y-46106402D01*
X97013223Y-46088223D01*
X97031402Y-46071747D01*
X97051107Y-46057133D01*
X97072151Y-46044520D01*
X97094329Y-46034030D01*
X97117429Y-46025765D01*
X97141227Y-46019804D01*
X97165496Y-46016204D01*
X97190000Y-46015000D01*
X98390000Y-46015000D01*
X98414504Y-46016204D01*
G37*
G04 #@! TD.AperFunction*
D16*
X95290000Y-46990000D03*
X92790000Y-46990000D03*
D19*
X56960000Y-83940000D03*
D20*
X86360000Y-78740000D03*
D19*
X86360000Y-73740000D03*
X56960000Y-68540000D03*
D21*
X80518000Y-41783000D03*
D22*
X80518000Y-49403000D03*
X83566000Y-41783000D03*
D21*
X83566000Y-49403000D03*
D23*
X78740000Y-88900000D03*
D24*
X63500000Y-88900000D03*
D25*
X64516000Y-34163000D03*
D10*
X64516000Y-31623000D03*
D25*
X64516000Y-36703000D03*
X64516000Y-39243000D03*
X64516000Y-41783000D03*
X64516000Y-44323000D03*
X64516000Y-46863000D03*
X64516000Y-49403000D03*
X87376000Y-49403000D03*
X87376000Y-46863000D03*
X87376000Y-44323000D03*
X87376000Y-41783000D03*
X87376000Y-39243000D03*
X87376000Y-36703000D03*
X87376000Y-34163000D03*
X87376000Y-31623000D03*
D26*
X91080000Y-85090000D03*
X96900000Y-85090000D03*
G04 #@! TA.AperFunction,ComponentPad*
D17*
G36*
X98950214Y-66802000D02*
G01*
X97536000Y-68216214D01*
X96121786Y-66802000D01*
X97536000Y-65387786D01*
X98950214Y-66802000D01*
G37*
G04 #@! TD.AperFunction*
D11*
X94000466Y-63266466D03*
D27*
X95250000Y-59690000D03*
D28*
X97790000Y-46990000D02*
X97790000Y-40640000D01*
X97790000Y-40640000D02*
X97790000Y-34290000D01*
X97790000Y-34290000D02*
X97790000Y-27940000D01*
X92790000Y-46990000D02*
X92790000Y-40640000D01*
X92790000Y-40640000D02*
X92790000Y-34290000D01*
X92790000Y-34290000D02*
X92790000Y-27940000D01*
X83058000Y-46863000D02*
X80518000Y-49403000D01*
X87376000Y-46863000D02*
X83058000Y-46863000D01*
X80518000Y-49403000D02*
X80518000Y-50534370D01*
X80518000Y-50534370D02*
X80518000Y-58674000D01*
D29*
X88876000Y-41783000D02*
X87376000Y-41783000D01*
X91489990Y-44396990D02*
X88876000Y-41783000D01*
X91489990Y-55929990D02*
X91489990Y-44396990D01*
X95250000Y-59690000D02*
X91489990Y-55929990D01*
X65086781Y-50800000D02*
X62103000Y-50800000D01*
X71436781Y-44450000D02*
X65086781Y-50800000D01*
X62103000Y-50800000D02*
X60706000Y-49403000D01*
X84509000Y-44450000D02*
X71436781Y-44450000D01*
X87176000Y-41783000D02*
X84509000Y-44450000D01*
X87376000Y-41783000D02*
X87176000Y-41783000D01*
X80518000Y-38608000D02*
X80518000Y-41783000D01*
X76073000Y-34163000D02*
X80518000Y-38608000D01*
X64516000Y-34163000D02*
X76073000Y-34163000D01*
X61976000Y-41783000D02*
X64516000Y-44323000D01*
X60706000Y-41783000D02*
X61976000Y-41783000D01*
X66016000Y-43083000D02*
X64716000Y-41783000D01*
X66016000Y-44790781D02*
X66016000Y-43083000D01*
X64716000Y-41783000D02*
X64516000Y-41783000D01*
X65233771Y-45573010D02*
X66016000Y-44790781D01*
X61956010Y-45573010D02*
X65233771Y-45573010D01*
X60706000Y-44323000D02*
X61956010Y-45573010D01*
D30*
X96520000Y-73740000D02*
X86360000Y-73740000D01*
D29*
X64716000Y-49403000D02*
X64516000Y-49403000D01*
X68580000Y-38799219D02*
X68580000Y-45539000D01*
X65193791Y-35413010D02*
X68580000Y-38799219D01*
X63798229Y-35413010D02*
X65193791Y-35413010D01*
X63065990Y-34680771D02*
X63798229Y-35413010D01*
X63065990Y-33712990D02*
X63065990Y-34680771D01*
X56896000Y-27543000D02*
X63065990Y-33712990D01*
X68580000Y-45539000D02*
X64716000Y-49403000D01*
X56896000Y-26543000D02*
X56896000Y-27543000D01*
X83566000Y-39013000D02*
X83566000Y-40651630D01*
X85876000Y-36703000D02*
X83566000Y-39013000D01*
X83566000Y-40651630D02*
X83566000Y-41783000D01*
X87376000Y-36703000D02*
X85876000Y-36703000D01*
D31*
G36*
X56769000Y-32749593D02*
G01*
X56720180Y-32723498D01*
X56600482Y-32687188D01*
X56476000Y-32674928D01*
X55911750Y-32678000D01*
X55753000Y-32836750D01*
X55753000Y-34036000D01*
X55773000Y-34036000D01*
X55773000Y-34290000D01*
X55753000Y-34290000D01*
X55753000Y-36576000D01*
X55773000Y-36576000D01*
X55773000Y-36830000D01*
X55753000Y-36830000D01*
X55753000Y-39116000D01*
X55773000Y-39116000D01*
X55773000Y-39370000D01*
X55753000Y-39370000D01*
X55753000Y-41656000D01*
X55773000Y-41656000D01*
X55773000Y-41910000D01*
X55753000Y-41910000D01*
X55753000Y-44196000D01*
X55773000Y-44196000D01*
X55773000Y-44450000D01*
X55753000Y-44450000D01*
X55753000Y-46736000D01*
X55773000Y-46736000D01*
X55773000Y-46990000D01*
X55753000Y-46990000D01*
X55753000Y-49276000D01*
X55773000Y-49276000D01*
X55773000Y-49530000D01*
X55753000Y-49530000D01*
X55753000Y-50723814D01*
X55982891Y-50844481D01*
X56257252Y-50747157D01*
X56507355Y-50598178D01*
X56723588Y-50403269D01*
X56776257Y-50332656D01*
X56778667Y-50340601D01*
X56790403Y-50362557D01*
X56806197Y-50381803D01*
X56825443Y-50397597D01*
X56847399Y-50409333D01*
X56871224Y-50416560D01*
X56896000Y-50419000D01*
X57081893Y-50419000D01*
X57219368Y-50556475D01*
X57462589Y-50718990D01*
X57732842Y-50830932D01*
X58019740Y-50888000D01*
X58312260Y-50888000D01*
X58599158Y-50830932D01*
X58869411Y-50718990D01*
X59112632Y-50556475D01*
X59250107Y-50419000D01*
X59621893Y-50419000D01*
X59759368Y-50556475D01*
X60002589Y-50718990D01*
X60272842Y-50830932D01*
X60559740Y-50888000D01*
X60852260Y-50888000D01*
X60924960Y-50873539D01*
X61446470Y-51395049D01*
X61474183Y-51428817D01*
X61507951Y-51456530D01*
X61507953Y-51456532D01*
X61579452Y-51515210D01*
X61608941Y-51539411D01*
X61762687Y-51621589D01*
X61929510Y-51672195D01*
X62059523Y-51685000D01*
X62059533Y-51685000D01*
X62102999Y-51689281D01*
X62146465Y-51685000D01*
X64389000Y-51685000D01*
X64389000Y-58166000D01*
X64391440Y-58190776D01*
X64398667Y-58214601D01*
X64410403Y-58236557D01*
X64426197Y-58255803D01*
X64445443Y-58271597D01*
X64467399Y-58283333D01*
X64491224Y-58290560D01*
X64516000Y-58293000D01*
X92601421Y-58293000D01*
X94243465Y-59935044D01*
X94254774Y-59991898D01*
X94332795Y-60180256D01*
X94446063Y-60349774D01*
X94590226Y-60493937D01*
X94759744Y-60607205D01*
X94948102Y-60685226D01*
X95148061Y-60725000D01*
X95351939Y-60725000D01*
X95551898Y-60685226D01*
X95740256Y-60607205D01*
X95909774Y-60493937D01*
X96053937Y-60349774D01*
X96167205Y-60180256D01*
X96245226Y-59991898D01*
X96285000Y-59791939D01*
X96285000Y-59588061D01*
X96245226Y-59388102D01*
X96167205Y-59199744D01*
X96053937Y-59030226D01*
X95909774Y-58886063D01*
X95740256Y-58772795D01*
X95551898Y-58694774D01*
X95495044Y-58683465D01*
X95104579Y-58293000D01*
X100940000Y-58293000D01*
X100940000Y-67183000D01*
X99458998Y-67183000D01*
X99480751Y-67156494D01*
X99539716Y-67046180D01*
X99576026Y-66926482D01*
X99588286Y-66802000D01*
X99576026Y-66677518D01*
X99539716Y-66557820D01*
X99480751Y-66447506D01*
X99401399Y-66350815D01*
X97987185Y-64936601D01*
X97890494Y-64857249D01*
X97780180Y-64798284D01*
X97660482Y-64761974D01*
X97536000Y-64749714D01*
X97411518Y-64761974D01*
X97291820Y-64798284D01*
X97181506Y-64857249D01*
X97084815Y-64936601D01*
X95670601Y-66350815D01*
X95591249Y-66447506D01*
X95532284Y-66557820D01*
X95495974Y-66677518D01*
X95483714Y-66802000D01*
X95495974Y-66926482D01*
X95532284Y-67046180D01*
X95591249Y-67156494D01*
X95613002Y-67183000D01*
X68580000Y-67183000D01*
X68555224Y-67185440D01*
X68531399Y-67192667D01*
X68509443Y-67204403D01*
X68490197Y-67220197D01*
X60870197Y-74840197D01*
X60854403Y-74859443D01*
X60842667Y-74881399D01*
X60835440Y-74905224D01*
X60833000Y-74930000D01*
X60833000Y-81655759D01*
X60664980Y-81745852D01*
X60615266Y-81779133D01*
X60565105Y-81811707D01*
X60557945Y-81817505D01*
X60557941Y-81817508D01*
X60557937Y-81817512D01*
X60289220Y-82038239D01*
X60262233Y-82060386D01*
X58716556Y-83606064D01*
X58707240Y-83534681D01*
X58594594Y-83201600D01*
X58482090Y-82991118D01*
X58202349Y-82877256D01*
X57139605Y-83940000D01*
X57153748Y-83954143D01*
X56974143Y-84133748D01*
X56960000Y-84119605D01*
X55897256Y-85182349D01*
X56011118Y-85462090D01*
X56326296Y-85617961D01*
X56624418Y-85698204D01*
X56533387Y-85789235D01*
X56511762Y-85815585D01*
X56493628Y-85833719D01*
X56487829Y-85840881D01*
X56247273Y-86142220D01*
X56214712Y-86192360D01*
X56187505Y-86233000D01*
X54000000Y-86233000D01*
X54000000Y-83996661D01*
X55167259Y-83996661D01*
X55212760Y-84345319D01*
X55325406Y-84678400D01*
X55437910Y-84888882D01*
X55717651Y-85002744D01*
X56780395Y-83940000D01*
X55717651Y-82877256D01*
X55437910Y-82991118D01*
X55282039Y-83306296D01*
X55190651Y-83645826D01*
X55167259Y-83996661D01*
X54000000Y-83996661D01*
X54000000Y-82697651D01*
X55897256Y-82697651D01*
X56960000Y-83760395D01*
X58022744Y-82697651D01*
X57908882Y-82417910D01*
X57593704Y-82262039D01*
X57254174Y-82170651D01*
X56903339Y-82147259D01*
X56554681Y-82192760D01*
X56221600Y-82305406D01*
X56011118Y-82417910D01*
X55897256Y-82697651D01*
X54000000Y-82697651D01*
X54000000Y-68364193D01*
X55175000Y-68364193D01*
X55175000Y-68715807D01*
X55243596Y-69060665D01*
X55378153Y-69385515D01*
X55573500Y-69677871D01*
X55822129Y-69926500D01*
X56114485Y-70121847D01*
X56439335Y-70256404D01*
X56784193Y-70325000D01*
X57135807Y-70325000D01*
X57480665Y-70256404D01*
X57805515Y-70121847D01*
X58097871Y-69926500D01*
X58346500Y-69677871D01*
X58541847Y-69385515D01*
X58676404Y-69060665D01*
X58745000Y-68715807D01*
X58745000Y-68364193D01*
X58676404Y-68019335D01*
X58541847Y-67694485D01*
X58346500Y-67402129D01*
X58097871Y-67153500D01*
X57805515Y-66958153D01*
X57480665Y-66823596D01*
X57135807Y-66755000D01*
X56784193Y-66755000D01*
X56439335Y-66823596D01*
X56114485Y-66958153D01*
X55822129Y-67153500D01*
X55573500Y-67402129D01*
X55378153Y-67694485D01*
X55243596Y-68019335D01*
X55175000Y-68364193D01*
X54000000Y-68364193D01*
X54000000Y-63648141D01*
X92402505Y-63648141D01*
X92507670Y-63952554D01*
X92670203Y-64230601D01*
X92883857Y-64471597D01*
X93140422Y-64666280D01*
X93430038Y-64807169D01*
X93618791Y-64864427D01*
X93873466Y-64745183D01*
X93873466Y-63393466D01*
X94127466Y-63393466D01*
X94127466Y-64745183D01*
X94382141Y-64864427D01*
X94686554Y-64759262D01*
X94964601Y-64596729D01*
X95205597Y-64383075D01*
X95400280Y-64126510D01*
X95541169Y-63836894D01*
X95598427Y-63648141D01*
X95479183Y-63393466D01*
X94127466Y-63393466D01*
X93873466Y-63393466D01*
X92521749Y-63393466D01*
X92402505Y-63648141D01*
X54000000Y-63648141D01*
X54000000Y-62884791D01*
X92402505Y-62884791D01*
X92521749Y-63139466D01*
X93873466Y-63139466D01*
X93873466Y-61787749D01*
X94127466Y-61787749D01*
X94127466Y-63139466D01*
X95479183Y-63139466D01*
X95598427Y-62884791D01*
X95493262Y-62580378D01*
X95330729Y-62302331D01*
X95117075Y-62061335D01*
X94860510Y-61866652D01*
X94570894Y-61725763D01*
X94382141Y-61668505D01*
X94127466Y-61787749D01*
X93873466Y-61787749D01*
X93618791Y-61668505D01*
X93314378Y-61773670D01*
X93036331Y-61936203D01*
X92795335Y-62149857D01*
X92600652Y-62406422D01*
X92459763Y-62696038D01*
X92402505Y-62884791D01*
X54000000Y-62884791D01*
X54000000Y-59579000D01*
X54495928Y-59579000D01*
X54495928Y-61579000D01*
X54508188Y-61703482D01*
X54544498Y-61823180D01*
X54603463Y-61933494D01*
X54682815Y-62030185D01*
X54779506Y-62109537D01*
X54889820Y-62168502D01*
X55009518Y-62204812D01*
X55134000Y-62217072D01*
X57134000Y-62217072D01*
X57258482Y-62204812D01*
X57378180Y-62168502D01*
X57488494Y-62109537D01*
X57585185Y-62030185D01*
X57664537Y-61933494D01*
X57723502Y-61823180D01*
X57756496Y-61714413D01*
X60178192Y-61714413D01*
X60273956Y-61978814D01*
X60563571Y-62119704D01*
X60875108Y-62201384D01*
X61196595Y-62220718D01*
X61515675Y-62176961D01*
X61820088Y-62071795D01*
X61994044Y-61978814D01*
X62089808Y-61714413D01*
X61134000Y-60758605D01*
X60178192Y-61714413D01*
X57756496Y-61714413D01*
X57759812Y-61703482D01*
X57772072Y-61579000D01*
X57772072Y-60641595D01*
X59492282Y-60641595D01*
X59536039Y-60960675D01*
X59641205Y-61265088D01*
X59734186Y-61439044D01*
X59998587Y-61534808D01*
X60954395Y-60579000D01*
X61313605Y-60579000D01*
X62269413Y-61534808D01*
X62533814Y-61439044D01*
X62674704Y-61149429D01*
X62756384Y-60837892D01*
X62775718Y-60516405D01*
X62731961Y-60197325D01*
X62626795Y-59892912D01*
X62533814Y-59718956D01*
X62269413Y-59623192D01*
X61313605Y-60579000D01*
X60954395Y-60579000D01*
X59998587Y-59623192D01*
X59734186Y-59718956D01*
X59593296Y-60008571D01*
X59511616Y-60320108D01*
X59492282Y-60641595D01*
X57772072Y-60641595D01*
X57772072Y-59579000D01*
X57759812Y-59454518D01*
X57756497Y-59443587D01*
X60178192Y-59443587D01*
X61134000Y-60399395D01*
X62089808Y-59443587D01*
X61994044Y-59179186D01*
X61704429Y-59038296D01*
X61392892Y-58956616D01*
X61071405Y-58937282D01*
X60752325Y-58981039D01*
X60447912Y-59086205D01*
X60273956Y-59179186D01*
X60178192Y-59443587D01*
X57756497Y-59443587D01*
X57723502Y-59334820D01*
X57664537Y-59224506D01*
X57585185Y-59127815D01*
X57488494Y-59048463D01*
X57378180Y-58989498D01*
X57258482Y-58953188D01*
X57134000Y-58940928D01*
X55134000Y-58940928D01*
X55009518Y-58953188D01*
X54889820Y-58989498D01*
X54779506Y-59048463D01*
X54682815Y-59127815D01*
X54603463Y-59224506D01*
X54544498Y-59334820D01*
X54508188Y-59454518D01*
X54495928Y-59579000D01*
X54000000Y-59579000D01*
X54000000Y-52490000D01*
X54137928Y-52490000D01*
X54137928Y-54190000D01*
X54150188Y-54314482D01*
X54186498Y-54434180D01*
X54245463Y-54544494D01*
X54324815Y-54641185D01*
X54421506Y-54720537D01*
X54531820Y-54779502D01*
X54651518Y-54815812D01*
X54776000Y-54828072D01*
X56476000Y-54828072D01*
X56600482Y-54815812D01*
X56720180Y-54779502D01*
X56830494Y-54720537D01*
X56927185Y-54641185D01*
X57006537Y-54544494D01*
X57065502Y-54434180D01*
X57087513Y-54361620D01*
X57219368Y-54493475D01*
X57462589Y-54655990D01*
X57732842Y-54767932D01*
X58019740Y-54825000D01*
X58312260Y-54825000D01*
X58599158Y-54767932D01*
X58869411Y-54655990D01*
X59112632Y-54493475D01*
X59319475Y-54286632D01*
X59436000Y-54112240D01*
X59552525Y-54286632D01*
X59759368Y-54493475D01*
X60002589Y-54655990D01*
X60272842Y-54767932D01*
X60559740Y-54825000D01*
X60852260Y-54825000D01*
X61139158Y-54767932D01*
X61409411Y-54655990D01*
X61652632Y-54493475D01*
X61859475Y-54286632D01*
X62021990Y-54043411D01*
X62133932Y-53773158D01*
X62191000Y-53486260D01*
X62191000Y-53193740D01*
X62133932Y-52906842D01*
X62021990Y-52636589D01*
X61859475Y-52393368D01*
X61652632Y-52186525D01*
X61409411Y-52024010D01*
X61139158Y-51912068D01*
X60852260Y-51855000D01*
X60559740Y-51855000D01*
X60272842Y-51912068D01*
X60002589Y-52024010D01*
X59759368Y-52186525D01*
X59552525Y-52393368D01*
X59436000Y-52567760D01*
X59319475Y-52393368D01*
X59112632Y-52186525D01*
X58869411Y-52024010D01*
X58599158Y-51912068D01*
X58312260Y-51855000D01*
X58019740Y-51855000D01*
X57732842Y-51912068D01*
X57462589Y-52024010D01*
X57219368Y-52186525D01*
X57087513Y-52318380D01*
X57065502Y-52245820D01*
X57006537Y-52135506D01*
X56927185Y-52038815D01*
X56830494Y-51959463D01*
X56720180Y-51900498D01*
X56600482Y-51864188D01*
X56476000Y-51851928D01*
X54776000Y-51851928D01*
X54651518Y-51864188D01*
X54531820Y-51900498D01*
X54421506Y-51959463D01*
X54324815Y-52038815D01*
X54245463Y-52135506D01*
X54186498Y-52245820D01*
X54150188Y-52365518D01*
X54137928Y-52490000D01*
X54000000Y-52490000D01*
X54000000Y-49759890D01*
X54184524Y-49759890D01*
X54229175Y-49907099D01*
X54354359Y-50169920D01*
X54528412Y-50403269D01*
X54744645Y-50598178D01*
X54994748Y-50747157D01*
X55269109Y-50844481D01*
X55499000Y-50723814D01*
X55499000Y-49530000D01*
X54305845Y-49530000D01*
X54184524Y-49759890D01*
X54000000Y-49759890D01*
X54000000Y-47219890D01*
X54184524Y-47219890D01*
X54229175Y-47367099D01*
X54354359Y-47629920D01*
X54528412Y-47863269D01*
X54744645Y-48058178D01*
X54870255Y-48133000D01*
X54744645Y-48207822D01*
X54528412Y-48402731D01*
X54354359Y-48636080D01*
X54229175Y-48898901D01*
X54184524Y-49046110D01*
X54305845Y-49276000D01*
X55499000Y-49276000D01*
X55499000Y-46990000D01*
X54305845Y-46990000D01*
X54184524Y-47219890D01*
X54000000Y-47219890D01*
X54000000Y-44679890D01*
X54184524Y-44679890D01*
X54229175Y-44827099D01*
X54354359Y-45089920D01*
X54528412Y-45323269D01*
X54744645Y-45518178D01*
X54870255Y-45593000D01*
X54744645Y-45667822D01*
X54528412Y-45862731D01*
X54354359Y-46096080D01*
X54229175Y-46358901D01*
X54184524Y-46506110D01*
X54305845Y-46736000D01*
X55499000Y-46736000D01*
X55499000Y-44450000D01*
X54305845Y-44450000D01*
X54184524Y-44679890D01*
X54000000Y-44679890D01*
X54000000Y-42139890D01*
X54184524Y-42139890D01*
X54229175Y-42287099D01*
X54354359Y-42549920D01*
X54528412Y-42783269D01*
X54744645Y-42978178D01*
X54870255Y-43053000D01*
X54744645Y-43127822D01*
X54528412Y-43322731D01*
X54354359Y-43556080D01*
X54229175Y-43818901D01*
X54184524Y-43966110D01*
X54305845Y-44196000D01*
X55499000Y-44196000D01*
X55499000Y-41910000D01*
X54305845Y-41910000D01*
X54184524Y-42139890D01*
X54000000Y-42139890D01*
X54000000Y-39599890D01*
X54184524Y-39599890D01*
X54229175Y-39747099D01*
X54354359Y-40009920D01*
X54528412Y-40243269D01*
X54744645Y-40438178D01*
X54870255Y-40513000D01*
X54744645Y-40587822D01*
X54528412Y-40782731D01*
X54354359Y-41016080D01*
X54229175Y-41278901D01*
X54184524Y-41426110D01*
X54305845Y-41656000D01*
X55499000Y-41656000D01*
X55499000Y-39370000D01*
X54305845Y-39370000D01*
X54184524Y-39599890D01*
X54000000Y-39599890D01*
X54000000Y-37059890D01*
X54184524Y-37059890D01*
X54229175Y-37207099D01*
X54354359Y-37469920D01*
X54528412Y-37703269D01*
X54744645Y-37898178D01*
X54870255Y-37973000D01*
X54744645Y-38047822D01*
X54528412Y-38242731D01*
X54354359Y-38476080D01*
X54229175Y-38738901D01*
X54184524Y-38886110D01*
X54305845Y-39116000D01*
X55499000Y-39116000D01*
X55499000Y-36830000D01*
X54305845Y-36830000D01*
X54184524Y-37059890D01*
X54000000Y-37059890D01*
X54000000Y-35013000D01*
X54137928Y-35013000D01*
X54150188Y-35137482D01*
X54186498Y-35257180D01*
X54245463Y-35367494D01*
X54324815Y-35464185D01*
X54421506Y-35543537D01*
X54531820Y-35602502D01*
X54612466Y-35626966D01*
X54528412Y-35702731D01*
X54354359Y-35936080D01*
X54229175Y-36198901D01*
X54184524Y-36346110D01*
X54305845Y-36576000D01*
X55499000Y-36576000D01*
X55499000Y-34290000D01*
X54299750Y-34290000D01*
X54141000Y-34448750D01*
X54137928Y-35013000D01*
X54000000Y-35013000D01*
X54000000Y-33313000D01*
X54137928Y-33313000D01*
X54141000Y-33877250D01*
X54299750Y-34036000D01*
X55499000Y-34036000D01*
X55499000Y-32836750D01*
X55340250Y-32678000D01*
X54776000Y-32674928D01*
X54651518Y-32687188D01*
X54531820Y-32723498D01*
X54421506Y-32782463D01*
X54324815Y-32861815D01*
X54245463Y-32958506D01*
X54186498Y-33068820D01*
X54150188Y-33188518D01*
X54137928Y-33313000D01*
X54000000Y-33313000D01*
X54000000Y-32639000D01*
X56769000Y-32639000D01*
X56769000Y-32749593D01*
G37*
X56769000Y-32749593D02*
X56720180Y-32723498D01*
X56600482Y-32687188D01*
X56476000Y-32674928D01*
X55911750Y-32678000D01*
X55753000Y-32836750D01*
X55753000Y-34036000D01*
X55773000Y-34036000D01*
X55773000Y-34290000D01*
X55753000Y-34290000D01*
X55753000Y-36576000D01*
X55773000Y-36576000D01*
X55773000Y-36830000D01*
X55753000Y-36830000D01*
X55753000Y-39116000D01*
X55773000Y-39116000D01*
X55773000Y-39370000D01*
X55753000Y-39370000D01*
X55753000Y-41656000D01*
X55773000Y-41656000D01*
X55773000Y-41910000D01*
X55753000Y-41910000D01*
X55753000Y-44196000D01*
X55773000Y-44196000D01*
X55773000Y-44450000D01*
X55753000Y-44450000D01*
X55753000Y-46736000D01*
X55773000Y-46736000D01*
X55773000Y-46990000D01*
X55753000Y-46990000D01*
X55753000Y-49276000D01*
X55773000Y-49276000D01*
X55773000Y-49530000D01*
X55753000Y-49530000D01*
X55753000Y-50723814D01*
X55982891Y-50844481D01*
X56257252Y-50747157D01*
X56507355Y-50598178D01*
X56723588Y-50403269D01*
X56776257Y-50332656D01*
X56778667Y-50340601D01*
X56790403Y-50362557D01*
X56806197Y-50381803D01*
X56825443Y-50397597D01*
X56847399Y-50409333D01*
X56871224Y-50416560D01*
X56896000Y-50419000D01*
X57081893Y-50419000D01*
X57219368Y-50556475D01*
X57462589Y-50718990D01*
X57732842Y-50830932D01*
X58019740Y-50888000D01*
X58312260Y-50888000D01*
X58599158Y-50830932D01*
X58869411Y-50718990D01*
X59112632Y-50556475D01*
X59250107Y-50419000D01*
X59621893Y-50419000D01*
X59759368Y-50556475D01*
X60002589Y-50718990D01*
X60272842Y-50830932D01*
X60559740Y-50888000D01*
X60852260Y-50888000D01*
X60924960Y-50873539D01*
X61446470Y-51395049D01*
X61474183Y-51428817D01*
X61507951Y-51456530D01*
X61507953Y-51456532D01*
X61579452Y-51515210D01*
X61608941Y-51539411D01*
X61762687Y-51621589D01*
X61929510Y-51672195D01*
X62059523Y-51685000D01*
X62059533Y-51685000D01*
X62102999Y-51689281D01*
X62146465Y-51685000D01*
X64389000Y-51685000D01*
X64389000Y-58166000D01*
X64391440Y-58190776D01*
X64398667Y-58214601D01*
X64410403Y-58236557D01*
X64426197Y-58255803D01*
X64445443Y-58271597D01*
X64467399Y-58283333D01*
X64491224Y-58290560D01*
X64516000Y-58293000D01*
X92601421Y-58293000D01*
X94243465Y-59935044D01*
X94254774Y-59991898D01*
X94332795Y-60180256D01*
X94446063Y-60349774D01*
X94590226Y-60493937D01*
X94759744Y-60607205D01*
X94948102Y-60685226D01*
X95148061Y-60725000D01*
X95351939Y-60725000D01*
X95551898Y-60685226D01*
X95740256Y-60607205D01*
X95909774Y-60493937D01*
X96053937Y-60349774D01*
X96167205Y-60180256D01*
X96245226Y-59991898D01*
X96285000Y-59791939D01*
X96285000Y-59588061D01*
X96245226Y-59388102D01*
X96167205Y-59199744D01*
X96053937Y-59030226D01*
X95909774Y-58886063D01*
X95740256Y-58772795D01*
X95551898Y-58694774D01*
X95495044Y-58683465D01*
X95104579Y-58293000D01*
X100940000Y-58293000D01*
X100940000Y-67183000D01*
X99458998Y-67183000D01*
X99480751Y-67156494D01*
X99539716Y-67046180D01*
X99576026Y-66926482D01*
X99588286Y-66802000D01*
X99576026Y-66677518D01*
X99539716Y-66557820D01*
X99480751Y-66447506D01*
X99401399Y-66350815D01*
X97987185Y-64936601D01*
X97890494Y-64857249D01*
X97780180Y-64798284D01*
X97660482Y-64761974D01*
X97536000Y-64749714D01*
X97411518Y-64761974D01*
X97291820Y-64798284D01*
X97181506Y-64857249D01*
X97084815Y-64936601D01*
X95670601Y-66350815D01*
X95591249Y-66447506D01*
X95532284Y-66557820D01*
X95495974Y-66677518D01*
X95483714Y-66802000D01*
X95495974Y-66926482D01*
X95532284Y-67046180D01*
X95591249Y-67156494D01*
X95613002Y-67183000D01*
X68580000Y-67183000D01*
X68555224Y-67185440D01*
X68531399Y-67192667D01*
X68509443Y-67204403D01*
X68490197Y-67220197D01*
X60870197Y-74840197D01*
X60854403Y-74859443D01*
X60842667Y-74881399D01*
X60835440Y-74905224D01*
X60833000Y-74930000D01*
X60833000Y-81655759D01*
X60664980Y-81745852D01*
X60615266Y-81779133D01*
X60565105Y-81811707D01*
X60557945Y-81817505D01*
X60557941Y-81817508D01*
X60557937Y-81817512D01*
X60289220Y-82038239D01*
X60262233Y-82060386D01*
X58716556Y-83606064D01*
X58707240Y-83534681D01*
X58594594Y-83201600D01*
X58482090Y-82991118D01*
X58202349Y-82877256D01*
X57139605Y-83940000D01*
X57153748Y-83954143D01*
X56974143Y-84133748D01*
X56960000Y-84119605D01*
X55897256Y-85182349D01*
X56011118Y-85462090D01*
X56326296Y-85617961D01*
X56624418Y-85698204D01*
X56533387Y-85789235D01*
X56511762Y-85815585D01*
X56493628Y-85833719D01*
X56487829Y-85840881D01*
X56247273Y-86142220D01*
X56214712Y-86192360D01*
X56187505Y-86233000D01*
X54000000Y-86233000D01*
X54000000Y-83996661D01*
X55167259Y-83996661D01*
X55212760Y-84345319D01*
X55325406Y-84678400D01*
X55437910Y-84888882D01*
X55717651Y-85002744D01*
X56780395Y-83940000D01*
X55717651Y-82877256D01*
X55437910Y-82991118D01*
X55282039Y-83306296D01*
X55190651Y-83645826D01*
X55167259Y-83996661D01*
X54000000Y-83996661D01*
X54000000Y-82697651D01*
X55897256Y-82697651D01*
X56960000Y-83760395D01*
X58022744Y-82697651D01*
X57908882Y-82417910D01*
X57593704Y-82262039D01*
X57254174Y-82170651D01*
X56903339Y-82147259D01*
X56554681Y-82192760D01*
X56221600Y-82305406D01*
X56011118Y-82417910D01*
X55897256Y-82697651D01*
X54000000Y-82697651D01*
X54000000Y-68364193D01*
X55175000Y-68364193D01*
X55175000Y-68715807D01*
X55243596Y-69060665D01*
X55378153Y-69385515D01*
X55573500Y-69677871D01*
X55822129Y-69926500D01*
X56114485Y-70121847D01*
X56439335Y-70256404D01*
X56784193Y-70325000D01*
X57135807Y-70325000D01*
X57480665Y-70256404D01*
X57805515Y-70121847D01*
X58097871Y-69926500D01*
X58346500Y-69677871D01*
X58541847Y-69385515D01*
X58676404Y-69060665D01*
X58745000Y-68715807D01*
X58745000Y-68364193D01*
X58676404Y-68019335D01*
X58541847Y-67694485D01*
X58346500Y-67402129D01*
X58097871Y-67153500D01*
X57805515Y-66958153D01*
X57480665Y-66823596D01*
X57135807Y-66755000D01*
X56784193Y-66755000D01*
X56439335Y-66823596D01*
X56114485Y-66958153D01*
X55822129Y-67153500D01*
X55573500Y-67402129D01*
X55378153Y-67694485D01*
X55243596Y-68019335D01*
X55175000Y-68364193D01*
X54000000Y-68364193D01*
X54000000Y-63648141D01*
X92402505Y-63648141D01*
X92507670Y-63952554D01*
X92670203Y-64230601D01*
X92883857Y-64471597D01*
X93140422Y-64666280D01*
X93430038Y-64807169D01*
X93618791Y-64864427D01*
X93873466Y-64745183D01*
X93873466Y-63393466D01*
X94127466Y-63393466D01*
X94127466Y-64745183D01*
X94382141Y-64864427D01*
X94686554Y-64759262D01*
X94964601Y-64596729D01*
X95205597Y-64383075D01*
X95400280Y-64126510D01*
X95541169Y-63836894D01*
X95598427Y-63648141D01*
X95479183Y-63393466D01*
X94127466Y-63393466D01*
X93873466Y-63393466D01*
X92521749Y-63393466D01*
X92402505Y-63648141D01*
X54000000Y-63648141D01*
X54000000Y-62884791D01*
X92402505Y-62884791D01*
X92521749Y-63139466D01*
X93873466Y-63139466D01*
X93873466Y-61787749D01*
X94127466Y-61787749D01*
X94127466Y-63139466D01*
X95479183Y-63139466D01*
X95598427Y-62884791D01*
X95493262Y-62580378D01*
X95330729Y-62302331D01*
X95117075Y-62061335D01*
X94860510Y-61866652D01*
X94570894Y-61725763D01*
X94382141Y-61668505D01*
X94127466Y-61787749D01*
X93873466Y-61787749D01*
X93618791Y-61668505D01*
X93314378Y-61773670D01*
X93036331Y-61936203D01*
X92795335Y-62149857D01*
X92600652Y-62406422D01*
X92459763Y-62696038D01*
X92402505Y-62884791D01*
X54000000Y-62884791D01*
X54000000Y-59579000D01*
X54495928Y-59579000D01*
X54495928Y-61579000D01*
X54508188Y-61703482D01*
X54544498Y-61823180D01*
X54603463Y-61933494D01*
X54682815Y-62030185D01*
X54779506Y-62109537D01*
X54889820Y-62168502D01*
X55009518Y-62204812D01*
X55134000Y-62217072D01*
X57134000Y-62217072D01*
X57258482Y-62204812D01*
X57378180Y-62168502D01*
X57488494Y-62109537D01*
X57585185Y-62030185D01*
X57664537Y-61933494D01*
X57723502Y-61823180D01*
X57756496Y-61714413D01*
X60178192Y-61714413D01*
X60273956Y-61978814D01*
X60563571Y-62119704D01*
X60875108Y-62201384D01*
X61196595Y-62220718D01*
X61515675Y-62176961D01*
X61820088Y-62071795D01*
X61994044Y-61978814D01*
X62089808Y-61714413D01*
X61134000Y-60758605D01*
X60178192Y-61714413D01*
X57756496Y-61714413D01*
X57759812Y-61703482D01*
X57772072Y-61579000D01*
X57772072Y-60641595D01*
X59492282Y-60641595D01*
X59536039Y-60960675D01*
X59641205Y-61265088D01*
X59734186Y-61439044D01*
X59998587Y-61534808D01*
X60954395Y-60579000D01*
X61313605Y-60579000D01*
X62269413Y-61534808D01*
X62533814Y-61439044D01*
X62674704Y-61149429D01*
X62756384Y-60837892D01*
X62775718Y-60516405D01*
X62731961Y-60197325D01*
X62626795Y-59892912D01*
X62533814Y-59718956D01*
X62269413Y-59623192D01*
X61313605Y-60579000D01*
X60954395Y-60579000D01*
X59998587Y-59623192D01*
X59734186Y-59718956D01*
X59593296Y-60008571D01*
X59511616Y-60320108D01*
X59492282Y-60641595D01*
X57772072Y-60641595D01*
X57772072Y-59579000D01*
X57759812Y-59454518D01*
X57756497Y-59443587D01*
X60178192Y-59443587D01*
X61134000Y-60399395D01*
X62089808Y-59443587D01*
X61994044Y-59179186D01*
X61704429Y-59038296D01*
X61392892Y-58956616D01*
X61071405Y-58937282D01*
X60752325Y-58981039D01*
X60447912Y-59086205D01*
X60273956Y-59179186D01*
X60178192Y-59443587D01*
X57756497Y-59443587D01*
X57723502Y-59334820D01*
X57664537Y-59224506D01*
X57585185Y-59127815D01*
X57488494Y-59048463D01*
X57378180Y-58989498D01*
X57258482Y-58953188D01*
X57134000Y-58940928D01*
X55134000Y-58940928D01*
X55009518Y-58953188D01*
X54889820Y-58989498D01*
X54779506Y-59048463D01*
X54682815Y-59127815D01*
X54603463Y-59224506D01*
X54544498Y-59334820D01*
X54508188Y-59454518D01*
X54495928Y-59579000D01*
X54000000Y-59579000D01*
X54000000Y-52490000D01*
X54137928Y-52490000D01*
X54137928Y-54190000D01*
X54150188Y-54314482D01*
X54186498Y-54434180D01*
X54245463Y-54544494D01*
X54324815Y-54641185D01*
X54421506Y-54720537D01*
X54531820Y-54779502D01*
X54651518Y-54815812D01*
X54776000Y-54828072D01*
X56476000Y-54828072D01*
X56600482Y-54815812D01*
X56720180Y-54779502D01*
X56830494Y-54720537D01*
X56927185Y-54641185D01*
X57006537Y-54544494D01*
X57065502Y-54434180D01*
X57087513Y-54361620D01*
X57219368Y-54493475D01*
X57462589Y-54655990D01*
X57732842Y-54767932D01*
X58019740Y-54825000D01*
X58312260Y-54825000D01*
X58599158Y-54767932D01*
X58869411Y-54655990D01*
X59112632Y-54493475D01*
X59319475Y-54286632D01*
X59436000Y-54112240D01*
X59552525Y-54286632D01*
X59759368Y-54493475D01*
X60002589Y-54655990D01*
X60272842Y-54767932D01*
X60559740Y-54825000D01*
X60852260Y-54825000D01*
X61139158Y-54767932D01*
X61409411Y-54655990D01*
X61652632Y-54493475D01*
X61859475Y-54286632D01*
X62021990Y-54043411D01*
X62133932Y-53773158D01*
X62191000Y-53486260D01*
X62191000Y-53193740D01*
X62133932Y-52906842D01*
X62021990Y-52636589D01*
X61859475Y-52393368D01*
X61652632Y-52186525D01*
X61409411Y-52024010D01*
X61139158Y-51912068D01*
X60852260Y-51855000D01*
X60559740Y-51855000D01*
X60272842Y-51912068D01*
X60002589Y-52024010D01*
X59759368Y-52186525D01*
X59552525Y-52393368D01*
X59436000Y-52567760D01*
X59319475Y-52393368D01*
X59112632Y-52186525D01*
X58869411Y-52024010D01*
X58599158Y-51912068D01*
X58312260Y-51855000D01*
X58019740Y-51855000D01*
X57732842Y-51912068D01*
X57462589Y-52024010D01*
X57219368Y-52186525D01*
X57087513Y-52318380D01*
X57065502Y-52245820D01*
X57006537Y-52135506D01*
X56927185Y-52038815D01*
X56830494Y-51959463D01*
X56720180Y-51900498D01*
X56600482Y-51864188D01*
X56476000Y-51851928D01*
X54776000Y-51851928D01*
X54651518Y-51864188D01*
X54531820Y-51900498D01*
X54421506Y-51959463D01*
X54324815Y-52038815D01*
X54245463Y-52135506D01*
X54186498Y-52245820D01*
X54150188Y-52365518D01*
X54137928Y-52490000D01*
X54000000Y-52490000D01*
X54000000Y-49759890D01*
X54184524Y-49759890D01*
X54229175Y-49907099D01*
X54354359Y-50169920D01*
X54528412Y-50403269D01*
X54744645Y-50598178D01*
X54994748Y-50747157D01*
X55269109Y-50844481D01*
X55499000Y-50723814D01*
X55499000Y-49530000D01*
X54305845Y-49530000D01*
X54184524Y-49759890D01*
X54000000Y-49759890D01*
X54000000Y-47219890D01*
X54184524Y-47219890D01*
X54229175Y-47367099D01*
X54354359Y-47629920D01*
X54528412Y-47863269D01*
X54744645Y-48058178D01*
X54870255Y-48133000D01*
X54744645Y-48207822D01*
X54528412Y-48402731D01*
X54354359Y-48636080D01*
X54229175Y-48898901D01*
X54184524Y-49046110D01*
X54305845Y-49276000D01*
X55499000Y-49276000D01*
X55499000Y-46990000D01*
X54305845Y-46990000D01*
X54184524Y-47219890D01*
X54000000Y-47219890D01*
X54000000Y-44679890D01*
X54184524Y-44679890D01*
X54229175Y-44827099D01*
X54354359Y-45089920D01*
X54528412Y-45323269D01*
X54744645Y-45518178D01*
X54870255Y-45593000D01*
X54744645Y-45667822D01*
X54528412Y-45862731D01*
X54354359Y-46096080D01*
X54229175Y-46358901D01*
X54184524Y-46506110D01*
X54305845Y-46736000D01*
X55499000Y-46736000D01*
X55499000Y-44450000D01*
X54305845Y-44450000D01*
X54184524Y-44679890D01*
X54000000Y-44679890D01*
X54000000Y-42139890D01*
X54184524Y-42139890D01*
X54229175Y-42287099D01*
X54354359Y-42549920D01*
X54528412Y-42783269D01*
X54744645Y-42978178D01*
X54870255Y-43053000D01*
X54744645Y-43127822D01*
X54528412Y-43322731D01*
X54354359Y-43556080D01*
X54229175Y-43818901D01*
X54184524Y-43966110D01*
X54305845Y-44196000D01*
X55499000Y-44196000D01*
X55499000Y-41910000D01*
X54305845Y-41910000D01*
X54184524Y-42139890D01*
X54000000Y-42139890D01*
X54000000Y-39599890D01*
X54184524Y-39599890D01*
X54229175Y-39747099D01*
X54354359Y-40009920D01*
X54528412Y-40243269D01*
X54744645Y-40438178D01*
X54870255Y-40513000D01*
X54744645Y-40587822D01*
X54528412Y-40782731D01*
X54354359Y-41016080D01*
X54229175Y-41278901D01*
X54184524Y-41426110D01*
X54305845Y-41656000D01*
X55499000Y-41656000D01*
X55499000Y-39370000D01*
X54305845Y-39370000D01*
X54184524Y-39599890D01*
X54000000Y-39599890D01*
X54000000Y-37059890D01*
X54184524Y-37059890D01*
X54229175Y-37207099D01*
X54354359Y-37469920D01*
X54528412Y-37703269D01*
X54744645Y-37898178D01*
X54870255Y-37973000D01*
X54744645Y-38047822D01*
X54528412Y-38242731D01*
X54354359Y-38476080D01*
X54229175Y-38738901D01*
X54184524Y-38886110D01*
X54305845Y-39116000D01*
X55499000Y-39116000D01*
X55499000Y-36830000D01*
X54305845Y-36830000D01*
X54184524Y-37059890D01*
X54000000Y-37059890D01*
X54000000Y-35013000D01*
X54137928Y-35013000D01*
X54150188Y-35137482D01*
X54186498Y-35257180D01*
X54245463Y-35367494D01*
X54324815Y-35464185D01*
X54421506Y-35543537D01*
X54531820Y-35602502D01*
X54612466Y-35626966D01*
X54528412Y-35702731D01*
X54354359Y-35936080D01*
X54229175Y-36198901D01*
X54184524Y-36346110D01*
X54305845Y-36576000D01*
X55499000Y-36576000D01*
X55499000Y-34290000D01*
X54299750Y-34290000D01*
X54141000Y-34448750D01*
X54137928Y-35013000D01*
X54000000Y-35013000D01*
X54000000Y-33313000D01*
X54137928Y-33313000D01*
X54141000Y-33877250D01*
X54299750Y-34036000D01*
X55499000Y-34036000D01*
X55499000Y-32836750D01*
X55340250Y-32678000D01*
X54776000Y-32674928D01*
X54651518Y-32687188D01*
X54531820Y-32723498D01*
X54421506Y-32782463D01*
X54324815Y-32861815D01*
X54245463Y-32958506D01*
X54186498Y-33068820D01*
X54150188Y-33188518D01*
X54137928Y-33313000D01*
X54000000Y-33313000D01*
X54000000Y-32639000D01*
X56769000Y-32639000D01*
X56769000Y-32749593D01*
M02*
