G04 #@! TF.GenerationSoftware,KiCad,Pcbnew,5.1.5+dfsg1-2build2*
G04 #@! TF.CreationDate,2020-05-08T13:19:40+02:00*
G04 #@! TF.ProjectId,powered multisensor,706f7765-7265-4642-906d-756c74697365,rev?*
G04 #@! TF.SameCoordinates,Original*
G04 #@! TF.FileFunction,Profile,NP*
%FSLAX46Y46*%
G04 Gerber Fmt 4.6, Leading zero omitted, Abs format (unit mm)*
G04 Created by KiCad (PCBNEW 5.1.5+dfsg1-2build2) date 2020-05-08 13:19:40*
%MOMM*%
%LPD*%
G04 APERTURE LIST*
%ADD10C,0.050000*%
G04 APERTURE END LIST*
D10*
X60706001Y-82550001D02*
G75*
G02X63245999Y-85089999I1269999J-1269999D01*
G01*
X63246000Y-85090000D02*
X59817000Y-89027000D01*
X57023001Y-86233001D02*
X60706000Y-82550000D01*
X59816999Y-89026999D02*
G75*
G02X57023001Y-86233001I-1396999J1396999D01*
G01*
X101600000Y-75184000D02*
X101600000Y-25400000D01*
X101600000Y-77470000D02*
X101600000Y-88900000D01*
X84328000Y-77216000D02*
G75*
G02X84328000Y-75438000I0J889000D01*
G01*
X84328000Y-77216000D02*
X93980000Y-77216000D01*
X85090000Y-75438000D02*
X84328000Y-75438000D01*
X93980000Y-75438000D02*
X85090000Y-75438000D01*
X93980000Y-77216000D02*
X94996000Y-77216000D01*
X94996000Y-75438000D02*
X93980000Y-75438000D01*
X101600000Y-75184000D02*
G75*
G02X101346000Y-75438000I-254000J0D01*
G01*
X101346000Y-77216000D02*
G75*
G02X101600000Y-77470000I0J-254000D01*
G01*
X94996000Y-77216000D02*
X101346000Y-77216000D01*
X101346000Y-75438000D02*
X94996000Y-75438000D01*
X55880000Y-91440000D02*
G75*
G02X53340000Y-88900000I0J2540000D01*
G01*
X101600000Y-88900000D02*
G75*
G02X99060000Y-91440000I-2540000J0D01*
G01*
X99060000Y-22860000D02*
G75*
G02X101600000Y-25400000I0J-2540000D01*
G01*
X53340000Y-25400000D02*
G75*
G02X55880000Y-22860000I2540000J0D01*
G01*
X53340000Y-88900000D02*
X53340000Y-25400000D01*
X99060000Y-91440000D02*
X55880000Y-91440000D01*
X55880000Y-22860000D02*
X99060000Y-22860000D01*
M02*
