G04 #@! TF.GenerationSoftware,KiCad,Pcbnew,5.1.5+dfsg1-2build2*
G04 #@! TF.CreationDate,2020-05-08T13:19:40+02:00*
G04 #@! TF.ProjectId,powered multisensor,706f7765-7265-4642-906d-756c74697365,rev?*
G04 #@! TF.SameCoordinates,Original*
G04 #@! TF.FileFunction,Soldermask,Bot*
G04 #@! TF.FilePolarity,Negative*
%FSLAX46Y46*%
G04 Gerber Fmt 4.6, Leading zero omitted, Abs format (unit mm)*
G04 Created by KiCad (PCBNEW 5.1.5+dfsg1-2build2) date 2020-05-08 13:19:40*
%MOMM*%
%LPD*%
G04 APERTURE LIST*
%ADD10C,0.100000*%
G04 APERTURE END LIST*
D10*
G36*
X79104903Y-87697075D02*
G01*
X79332571Y-87791378D01*
X79537466Y-87928285D01*
X79711715Y-88102534D01*
X79848622Y-88307429D01*
X79942925Y-88535097D01*
X79991000Y-88776787D01*
X79991000Y-89023213D01*
X79942925Y-89264903D01*
X79848622Y-89492571D01*
X79711715Y-89697466D01*
X79537466Y-89871715D01*
X79332571Y-90008622D01*
X79332570Y-90008623D01*
X79332569Y-90008623D01*
X79104903Y-90102925D01*
X78863214Y-90151000D01*
X78616786Y-90151000D01*
X78375097Y-90102925D01*
X78147431Y-90008623D01*
X78147430Y-90008623D01*
X78147429Y-90008622D01*
X77942534Y-89871715D01*
X77768285Y-89697466D01*
X77631378Y-89492571D01*
X77537075Y-89264903D01*
X77489000Y-89023213D01*
X77489000Y-88776787D01*
X77537075Y-88535097D01*
X77631378Y-88307429D01*
X77768285Y-88102534D01*
X77942534Y-87928285D01*
X78147429Y-87791378D01*
X78375097Y-87697075D01*
X78616786Y-87649000D01*
X78863214Y-87649000D01*
X79104903Y-87697075D01*
G37*
G36*
X63864903Y-87697075D02*
G01*
X64092571Y-87791378D01*
X64297466Y-87928285D01*
X64471715Y-88102534D01*
X64608622Y-88307429D01*
X64702925Y-88535097D01*
X64751000Y-88776787D01*
X64751000Y-89023213D01*
X64702925Y-89264903D01*
X64608622Y-89492571D01*
X64471715Y-89697466D01*
X64297466Y-89871715D01*
X64092571Y-90008622D01*
X64092570Y-90008623D01*
X64092569Y-90008623D01*
X63864903Y-90102925D01*
X63623214Y-90151000D01*
X63376786Y-90151000D01*
X63135097Y-90102925D01*
X62907431Y-90008623D01*
X62907430Y-90008623D01*
X62907429Y-90008622D01*
X62702534Y-89871715D01*
X62528285Y-89697466D01*
X62391378Y-89492571D01*
X62297075Y-89264903D01*
X62249000Y-89023213D01*
X62249000Y-88776787D01*
X62297075Y-88535097D01*
X62391378Y-88307429D01*
X62528285Y-88102534D01*
X62702534Y-87928285D01*
X62907429Y-87791378D01*
X63135097Y-87697075D01*
X63376786Y-87649000D01*
X63623214Y-87649000D01*
X63864903Y-87697075D01*
G37*
G36*
X91497747Y-84280921D02*
G01*
X91577376Y-84288764D01*
X91730627Y-84335252D01*
X91730630Y-84335253D01*
X91871863Y-84410744D01*
X91995659Y-84512341D01*
X92097256Y-84636137D01*
X92172747Y-84777370D01*
X92172748Y-84777373D01*
X92219236Y-84930624D01*
X92234933Y-85090000D01*
X92219236Y-85249376D01*
X92172748Y-85402627D01*
X92172747Y-85402630D01*
X92097256Y-85543863D01*
X91995659Y-85667659D01*
X91871863Y-85769256D01*
X91730630Y-85844747D01*
X91730627Y-85844748D01*
X91577376Y-85891236D01*
X91497747Y-85899079D01*
X91457934Y-85903000D01*
X90702066Y-85903000D01*
X90662253Y-85899079D01*
X90582624Y-85891236D01*
X90429373Y-85844748D01*
X90429370Y-85844747D01*
X90288137Y-85769256D01*
X90164341Y-85667659D01*
X90062744Y-85543863D01*
X89987253Y-85402630D01*
X89987252Y-85402627D01*
X89940764Y-85249376D01*
X89925067Y-85090000D01*
X89940764Y-84930624D01*
X89987252Y-84777373D01*
X89987253Y-84777370D01*
X90062744Y-84636137D01*
X90164341Y-84512341D01*
X90288137Y-84410744D01*
X90429370Y-84335253D01*
X90429373Y-84335252D01*
X90582624Y-84288764D01*
X90662253Y-84280921D01*
X90702066Y-84277000D01*
X91457934Y-84277000D01*
X91497747Y-84280921D01*
G37*
G36*
X97317747Y-84280921D02*
G01*
X97397376Y-84288764D01*
X97550627Y-84335252D01*
X97550630Y-84335253D01*
X97691863Y-84410744D01*
X97815659Y-84512341D01*
X97917256Y-84636137D01*
X97992747Y-84777370D01*
X97992748Y-84777373D01*
X98039236Y-84930624D01*
X98054933Y-85090000D01*
X98039236Y-85249376D01*
X97992748Y-85402627D01*
X97992747Y-85402630D01*
X97917256Y-85543863D01*
X97815659Y-85667659D01*
X97691863Y-85769256D01*
X97550630Y-85844747D01*
X97550627Y-85844748D01*
X97397376Y-85891236D01*
X97317747Y-85899079D01*
X97277934Y-85903000D01*
X96522066Y-85903000D01*
X96482253Y-85899079D01*
X96402624Y-85891236D01*
X96249373Y-85844748D01*
X96249370Y-85844747D01*
X96108137Y-85769256D01*
X95984341Y-85667659D01*
X95882744Y-85543863D01*
X95807253Y-85402630D01*
X95807252Y-85402627D01*
X95760764Y-85249376D01*
X95745067Y-85090000D01*
X95760764Y-84930624D01*
X95807252Y-84777373D01*
X95807253Y-84777370D01*
X95882744Y-84636137D01*
X95984341Y-84512341D01*
X96108137Y-84410744D01*
X96249370Y-84335253D01*
X96249373Y-84335252D01*
X96402624Y-84288764D01*
X96482253Y-84280921D01*
X96522066Y-84277000D01*
X97277934Y-84277000D01*
X97317747Y-84280921D01*
G37*
G36*
X57310318Y-82785153D02*
G01*
X57528885Y-82875687D01*
X57528887Y-82875688D01*
X57725593Y-83007122D01*
X57892878Y-83174407D01*
X58024312Y-83371113D01*
X58024313Y-83371115D01*
X58114847Y-83589682D01*
X58161000Y-83821710D01*
X58161000Y-84058290D01*
X58114847Y-84290318D01*
X58064964Y-84410745D01*
X58024312Y-84508887D01*
X57892878Y-84705593D01*
X57725593Y-84872878D01*
X57528887Y-85004312D01*
X57528886Y-85004313D01*
X57528885Y-85004313D01*
X57310318Y-85094847D01*
X57078290Y-85141000D01*
X56841710Y-85141000D01*
X56609682Y-85094847D01*
X56391115Y-85004313D01*
X56391114Y-85004313D01*
X56391113Y-85004312D01*
X56194407Y-84872878D01*
X56027122Y-84705593D01*
X55895688Y-84508887D01*
X55855036Y-84410745D01*
X55805153Y-84290318D01*
X55759000Y-84058290D01*
X55759000Y-83821710D01*
X55805153Y-83589682D01*
X55895687Y-83371115D01*
X55895688Y-83371113D01*
X56027122Y-83174407D01*
X56194407Y-83007122D01*
X56391113Y-82875688D01*
X56391115Y-82875687D01*
X56609682Y-82785153D01*
X56841710Y-82739000D01*
X57078290Y-82739000D01*
X57310318Y-82785153D01*
G37*
G36*
X97971000Y-80191000D02*
G01*
X95069000Y-80191000D01*
X95069000Y-77289000D01*
X97971000Y-77289000D01*
X97971000Y-80191000D01*
G37*
G36*
X87561000Y-79791000D02*
G01*
X85159000Y-79791000D01*
X85159000Y-77689000D01*
X87561000Y-77689000D01*
X87561000Y-79791000D01*
G37*
G36*
X96943241Y-72344760D02*
G01*
X97207305Y-72454139D01*
X97444958Y-72612934D01*
X97647066Y-72815042D01*
X97805861Y-73052695D01*
X97915240Y-73316759D01*
X97971000Y-73597088D01*
X97971000Y-73882912D01*
X97915240Y-74163241D01*
X97805861Y-74427305D01*
X97647066Y-74664958D01*
X97444958Y-74867066D01*
X97207305Y-75025861D01*
X96943241Y-75135240D01*
X96662912Y-75191000D01*
X96377088Y-75191000D01*
X96096759Y-75135240D01*
X95832695Y-75025861D01*
X95595042Y-74867066D01*
X95392934Y-74664958D01*
X95234139Y-74427305D01*
X95124760Y-74163241D01*
X95069000Y-73882912D01*
X95069000Y-73597088D01*
X95124760Y-73316759D01*
X95234139Y-73052695D01*
X95392934Y-72815042D01*
X95595042Y-72612934D01*
X95832695Y-72454139D01*
X96096759Y-72344760D01*
X96377088Y-72289000D01*
X96662912Y-72289000D01*
X96943241Y-72344760D01*
G37*
G36*
X86710318Y-72585153D02*
G01*
X86928885Y-72675687D01*
X86928887Y-72675688D01*
X87125593Y-72807122D01*
X87292878Y-72974407D01*
X87345187Y-73052694D01*
X87424313Y-73171115D01*
X87514847Y-73389682D01*
X87561000Y-73621710D01*
X87561000Y-73858290D01*
X87514847Y-74090318D01*
X87484641Y-74163241D01*
X87424312Y-74308887D01*
X87292878Y-74505593D01*
X87125593Y-74672878D01*
X86928887Y-74804312D01*
X86928886Y-74804313D01*
X86928885Y-74804313D01*
X86710318Y-74894847D01*
X86478290Y-74941000D01*
X86241710Y-74941000D01*
X86009682Y-74894847D01*
X85791115Y-74804313D01*
X85791114Y-74804313D01*
X85791113Y-74804312D01*
X85594407Y-74672878D01*
X85427122Y-74505593D01*
X85295688Y-74308887D01*
X85235359Y-74163241D01*
X85205153Y-74090318D01*
X85159000Y-73858290D01*
X85159000Y-73621710D01*
X85205153Y-73389682D01*
X85295687Y-73171115D01*
X85374813Y-73052694D01*
X85427122Y-72974407D01*
X85594407Y-72807122D01*
X85791113Y-72675688D01*
X85791115Y-72675687D01*
X86009682Y-72585153D01*
X86241710Y-72539000D01*
X86478290Y-72539000D01*
X86710318Y-72585153D01*
G37*
G36*
X57310318Y-67385153D02*
G01*
X57528885Y-67475687D01*
X57528887Y-67475688D01*
X57725593Y-67607122D01*
X57892878Y-67774407D01*
X58024312Y-67971113D01*
X58024313Y-67971115D01*
X58114847Y-68189682D01*
X58161000Y-68421710D01*
X58161000Y-68658290D01*
X58114847Y-68890318D01*
X58024313Y-69108885D01*
X58024312Y-69108887D01*
X57892878Y-69305593D01*
X57725593Y-69472878D01*
X57528887Y-69604312D01*
X57528886Y-69604313D01*
X57528885Y-69604313D01*
X57310318Y-69694847D01*
X57078290Y-69741000D01*
X56841710Y-69741000D01*
X56609682Y-69694847D01*
X56391115Y-69604313D01*
X56391114Y-69604313D01*
X56391113Y-69604312D01*
X56194407Y-69472878D01*
X56027122Y-69305593D01*
X55895688Y-69108887D01*
X55895687Y-69108885D01*
X55805153Y-68890318D01*
X55759000Y-68658290D01*
X55759000Y-68421710D01*
X55805153Y-68189682D01*
X55895687Y-67971115D01*
X55895688Y-67971113D01*
X56027122Y-67774407D01*
X56194407Y-67607122D01*
X56391113Y-67475688D01*
X56391115Y-67475687D01*
X56609682Y-67385153D01*
X56841710Y-67339000D01*
X57078290Y-67339000D01*
X57310318Y-67385153D01*
G37*
G36*
X99022338Y-66802000D02*
G01*
X97536000Y-68288338D01*
X96049662Y-66802000D01*
X97536000Y-65315662D01*
X99022338Y-66802000D01*
G37*
G36*
X94307030Y-62255855D02*
G01*
X94498299Y-62335081D01*
X94498301Y-62335082D01*
X94670439Y-62450101D01*
X94816831Y-62596493D01*
X94931851Y-62768633D01*
X95011077Y-62959902D01*
X95051466Y-63162950D01*
X95051466Y-63369982D01*
X95011077Y-63573030D01*
X94931851Y-63764299D01*
X94931850Y-63764301D01*
X94816831Y-63936439D01*
X94670439Y-64082831D01*
X94498301Y-64197850D01*
X94498300Y-64197851D01*
X94498299Y-64197851D01*
X94307030Y-64277077D01*
X94103982Y-64317466D01*
X93896950Y-64317466D01*
X93693902Y-64277077D01*
X93502633Y-64197851D01*
X93502632Y-64197851D01*
X93502631Y-64197850D01*
X93330493Y-64082831D01*
X93184101Y-63936439D01*
X93069082Y-63764301D01*
X93069081Y-63764299D01*
X92989855Y-63573030D01*
X92949466Y-63369982D01*
X92949466Y-63162950D01*
X92989855Y-62959902D01*
X93069081Y-62768633D01*
X93184101Y-62596493D01*
X93330493Y-62450101D01*
X93502631Y-62335082D01*
X93502633Y-62335081D01*
X93693902Y-62255855D01*
X93896950Y-62215466D01*
X94103982Y-62215466D01*
X94307030Y-62255855D01*
G37*
G36*
X57185000Y-61630000D02*
G01*
X55083000Y-61630000D01*
X55083000Y-59528000D01*
X57185000Y-59528000D01*
X57185000Y-61630000D01*
G37*
G36*
X61440564Y-59568389D02*
G01*
X61631833Y-59647615D01*
X61631835Y-59647616D01*
X61803973Y-59762635D01*
X61950365Y-59909027D01*
X62065385Y-60081167D01*
X62144611Y-60272436D01*
X62185000Y-60475484D01*
X62185000Y-60682516D01*
X62144611Y-60885564D01*
X62065385Y-61076833D01*
X62065384Y-61076835D01*
X61950365Y-61248973D01*
X61803973Y-61395365D01*
X61631835Y-61510384D01*
X61631834Y-61510385D01*
X61631833Y-61510385D01*
X61440564Y-61589611D01*
X61237516Y-61630000D01*
X61030484Y-61630000D01*
X60827436Y-61589611D01*
X60636167Y-61510385D01*
X60636166Y-61510385D01*
X60636165Y-61510384D01*
X60464027Y-61395365D01*
X60317635Y-61248973D01*
X60202616Y-61076835D01*
X60202615Y-61076833D01*
X60123389Y-60885564D01*
X60083000Y-60682516D01*
X60083000Y-60475484D01*
X60123389Y-60272436D01*
X60202615Y-60081167D01*
X60317635Y-59909027D01*
X60464027Y-59762635D01*
X60636165Y-59647616D01*
X60636167Y-59647615D01*
X60827436Y-59568389D01*
X61030484Y-59528000D01*
X61237516Y-59528000D01*
X61440564Y-59568389D01*
G37*
G36*
X60819512Y-52443927D02*
G01*
X60968812Y-52473624D01*
X61132784Y-52541544D01*
X61280354Y-52640147D01*
X61405853Y-52765646D01*
X61504456Y-52913216D01*
X61572376Y-53077188D01*
X61607000Y-53251259D01*
X61607000Y-53428741D01*
X61572376Y-53602812D01*
X61504456Y-53766784D01*
X61405853Y-53914354D01*
X61280354Y-54039853D01*
X61132784Y-54138456D01*
X60968812Y-54206376D01*
X60819512Y-54236073D01*
X60794742Y-54241000D01*
X60617258Y-54241000D01*
X60592488Y-54236073D01*
X60443188Y-54206376D01*
X60279216Y-54138456D01*
X60131646Y-54039853D01*
X60006147Y-53914354D01*
X59907544Y-53766784D01*
X59839624Y-53602812D01*
X59805000Y-53428741D01*
X59805000Y-53251259D01*
X59839624Y-53077188D01*
X59907544Y-52913216D01*
X60006147Y-52765646D01*
X60131646Y-52640147D01*
X60279216Y-52541544D01*
X60443188Y-52473624D01*
X60592488Y-52443927D01*
X60617258Y-52439000D01*
X60794742Y-52439000D01*
X60819512Y-52443927D01*
G37*
G36*
X58279512Y-52443927D02*
G01*
X58428812Y-52473624D01*
X58592784Y-52541544D01*
X58740354Y-52640147D01*
X58865853Y-52765646D01*
X58964456Y-52913216D01*
X59032376Y-53077188D01*
X59067000Y-53251259D01*
X59067000Y-53428741D01*
X59032376Y-53602812D01*
X58964456Y-53766784D01*
X58865853Y-53914354D01*
X58740354Y-54039853D01*
X58592784Y-54138456D01*
X58428812Y-54206376D01*
X58279512Y-54236073D01*
X58254742Y-54241000D01*
X58077258Y-54241000D01*
X58052488Y-54236073D01*
X57903188Y-54206376D01*
X57739216Y-54138456D01*
X57591646Y-54039853D01*
X57466147Y-53914354D01*
X57367544Y-53766784D01*
X57299624Y-53602812D01*
X57265000Y-53428741D01*
X57265000Y-53251259D01*
X57299624Y-53077188D01*
X57367544Y-52913216D01*
X57466147Y-52765646D01*
X57591646Y-52640147D01*
X57739216Y-52541544D01*
X57903188Y-52473624D01*
X58052488Y-52443927D01*
X58077258Y-52439000D01*
X58254742Y-52439000D01*
X58279512Y-52443927D01*
G37*
G36*
X56527000Y-54241000D02*
G01*
X54725000Y-54241000D01*
X54725000Y-52439000D01*
X56527000Y-52439000D01*
X56527000Y-54241000D01*
G37*
G36*
X55739512Y-48506927D02*
G01*
X55888812Y-48536624D01*
X56052784Y-48604544D01*
X56200354Y-48703147D01*
X56325853Y-48828646D01*
X56424456Y-48976216D01*
X56492376Y-49140188D01*
X56527000Y-49314259D01*
X56527000Y-49491741D01*
X56492376Y-49665812D01*
X56424456Y-49829784D01*
X56325853Y-49977354D01*
X56200354Y-50102853D01*
X56052784Y-50201456D01*
X55888812Y-50269376D01*
X55739512Y-50299073D01*
X55714742Y-50304000D01*
X55537258Y-50304000D01*
X55512488Y-50299073D01*
X55363188Y-50269376D01*
X55199216Y-50201456D01*
X55051646Y-50102853D01*
X54926147Y-49977354D01*
X54827544Y-49829784D01*
X54759624Y-49665812D01*
X54725000Y-49491741D01*
X54725000Y-49314259D01*
X54759624Y-49140188D01*
X54827544Y-48976216D01*
X54926147Y-48828646D01*
X55051646Y-48703147D01*
X55199216Y-48604544D01*
X55363188Y-48536624D01*
X55512488Y-48506927D01*
X55537258Y-48502000D01*
X55714742Y-48502000D01*
X55739512Y-48506927D01*
G37*
G36*
X60819512Y-48506927D02*
G01*
X60968812Y-48536624D01*
X61132784Y-48604544D01*
X61280354Y-48703147D01*
X61405853Y-48828646D01*
X61504456Y-48976216D01*
X61572376Y-49140188D01*
X61607000Y-49314259D01*
X61607000Y-49491741D01*
X61572376Y-49665812D01*
X61504456Y-49829784D01*
X61405853Y-49977354D01*
X61280354Y-50102853D01*
X61132784Y-50201456D01*
X60968812Y-50269376D01*
X60819512Y-50299073D01*
X60794742Y-50304000D01*
X60617258Y-50304000D01*
X60592488Y-50299073D01*
X60443188Y-50269376D01*
X60279216Y-50201456D01*
X60131646Y-50102853D01*
X60006147Y-49977354D01*
X59907544Y-49829784D01*
X59839624Y-49665812D01*
X59805000Y-49491741D01*
X59805000Y-49314259D01*
X59839624Y-49140188D01*
X59907544Y-48976216D01*
X60006147Y-48828646D01*
X60131646Y-48703147D01*
X60279216Y-48604544D01*
X60443188Y-48536624D01*
X60592488Y-48506927D01*
X60617258Y-48502000D01*
X60794742Y-48502000D01*
X60819512Y-48506927D01*
G37*
G36*
X58279512Y-48506927D02*
G01*
X58428812Y-48536624D01*
X58592784Y-48604544D01*
X58740354Y-48703147D01*
X58865853Y-48828646D01*
X58964456Y-48976216D01*
X59032376Y-49140188D01*
X59067000Y-49314259D01*
X59067000Y-49491741D01*
X59032376Y-49665812D01*
X58964456Y-49829784D01*
X58865853Y-49977354D01*
X58740354Y-50102853D01*
X58592784Y-50201456D01*
X58428812Y-50269376D01*
X58279512Y-50299073D01*
X58254742Y-50304000D01*
X58077258Y-50304000D01*
X58052488Y-50299073D01*
X57903188Y-50269376D01*
X57739216Y-50201456D01*
X57591646Y-50102853D01*
X57466147Y-49977354D01*
X57367544Y-49829784D01*
X57299624Y-49665812D01*
X57265000Y-49491741D01*
X57265000Y-49314259D01*
X57299624Y-49140188D01*
X57367544Y-48976216D01*
X57466147Y-48828646D01*
X57591646Y-48703147D01*
X57739216Y-48604544D01*
X57903188Y-48536624D01*
X58052488Y-48506927D01*
X58077258Y-48502000D01*
X58254742Y-48502000D01*
X58279512Y-48506927D01*
G37*
G36*
X64882823Y-48564313D02*
G01*
X65043242Y-48612976D01*
X65110361Y-48648852D01*
X65191078Y-48691996D01*
X65320659Y-48798341D01*
X65427004Y-48927922D01*
X65427005Y-48927924D01*
X65506024Y-49075758D01*
X65554687Y-49236177D01*
X65571117Y-49403000D01*
X65554687Y-49569823D01*
X65506024Y-49730242D01*
X65435114Y-49862906D01*
X65427004Y-49878078D01*
X65320659Y-50007659D01*
X65191078Y-50114004D01*
X65191076Y-50114005D01*
X65043242Y-50193024D01*
X64882823Y-50241687D01*
X64757804Y-50254000D01*
X64274196Y-50254000D01*
X64149177Y-50241687D01*
X63988758Y-50193024D01*
X63840924Y-50114005D01*
X63840922Y-50114004D01*
X63711341Y-50007659D01*
X63604996Y-49878078D01*
X63596886Y-49862906D01*
X63525976Y-49730242D01*
X63477313Y-49569823D01*
X63460883Y-49403000D01*
X63477313Y-49236177D01*
X63525976Y-49075758D01*
X63604995Y-48927924D01*
X63604996Y-48927922D01*
X63711341Y-48798341D01*
X63840922Y-48691996D01*
X63921639Y-48648852D01*
X63988758Y-48612976D01*
X64149177Y-48564313D01*
X64274196Y-48552000D01*
X64757804Y-48552000D01*
X64882823Y-48564313D01*
G37*
G36*
X83814228Y-48584703D02*
G01*
X83969100Y-48648853D01*
X84108481Y-48741985D01*
X84227015Y-48860519D01*
X84320147Y-48999900D01*
X84384297Y-49154772D01*
X84417000Y-49319184D01*
X84417000Y-49486816D01*
X84384297Y-49651228D01*
X84320147Y-49806100D01*
X84227015Y-49945481D01*
X84108481Y-50064015D01*
X83969100Y-50157147D01*
X83814228Y-50221297D01*
X83649816Y-50254000D01*
X83482184Y-50254000D01*
X83317772Y-50221297D01*
X83162900Y-50157147D01*
X83023519Y-50064015D01*
X82904985Y-49945481D01*
X82811853Y-49806100D01*
X82747703Y-49651228D01*
X82715000Y-49486816D01*
X82715000Y-49319184D01*
X82747703Y-49154772D01*
X82811853Y-48999900D01*
X82904985Y-48860519D01*
X83023519Y-48741985D01*
X83162900Y-48648853D01*
X83317772Y-48584703D01*
X83482184Y-48552000D01*
X83649816Y-48552000D01*
X83814228Y-48584703D01*
G37*
G36*
X80766228Y-48584703D02*
G01*
X80921100Y-48648853D01*
X81060481Y-48741985D01*
X81179015Y-48860519D01*
X81272147Y-48999900D01*
X81336297Y-49154772D01*
X81369000Y-49319184D01*
X81369000Y-49486816D01*
X81336297Y-49651228D01*
X81272147Y-49806100D01*
X81179015Y-49945481D01*
X81060481Y-50064015D01*
X80921100Y-50157147D01*
X80766228Y-50221297D01*
X80601816Y-50254000D01*
X80434184Y-50254000D01*
X80269772Y-50221297D01*
X80114900Y-50157147D01*
X79975519Y-50064015D01*
X79856985Y-49945481D01*
X79763853Y-49806100D01*
X79699703Y-49651228D01*
X79667000Y-49486816D01*
X79667000Y-49319184D01*
X79699703Y-49154772D01*
X79763853Y-48999900D01*
X79856985Y-48860519D01*
X79975519Y-48741985D01*
X80114900Y-48648853D01*
X80269772Y-48584703D01*
X80434184Y-48552000D01*
X80601816Y-48552000D01*
X80766228Y-48584703D01*
G37*
G36*
X87742823Y-48564313D02*
G01*
X87903242Y-48612976D01*
X87970361Y-48648852D01*
X88051078Y-48691996D01*
X88180659Y-48798341D01*
X88287004Y-48927922D01*
X88287005Y-48927924D01*
X88366024Y-49075758D01*
X88414687Y-49236177D01*
X88431117Y-49403000D01*
X88414687Y-49569823D01*
X88366024Y-49730242D01*
X88295114Y-49862906D01*
X88287004Y-49878078D01*
X88180659Y-50007659D01*
X88051078Y-50114004D01*
X88051076Y-50114005D01*
X87903242Y-50193024D01*
X87742823Y-50241687D01*
X87617804Y-50254000D01*
X87134196Y-50254000D01*
X87009177Y-50241687D01*
X86848758Y-50193024D01*
X86700924Y-50114005D01*
X86700922Y-50114004D01*
X86571341Y-50007659D01*
X86464996Y-49878078D01*
X86456886Y-49862906D01*
X86385976Y-49730242D01*
X86337313Y-49569823D01*
X86320883Y-49403000D01*
X86337313Y-49236177D01*
X86385976Y-49075758D01*
X86464995Y-48927924D01*
X86464996Y-48927922D01*
X86571341Y-48798341D01*
X86700922Y-48691996D01*
X86781639Y-48648852D01*
X86848758Y-48612976D01*
X87009177Y-48564313D01*
X87134196Y-48552000D01*
X87617804Y-48552000D01*
X87742823Y-48564313D01*
G37*
G36*
X92966627Y-45977037D02*
G01*
X93136466Y-46028557D01*
X93292991Y-46112222D01*
X93328729Y-46141552D01*
X93430186Y-46224814D01*
X93513448Y-46326271D01*
X93542778Y-46362009D01*
X93626443Y-46518534D01*
X93677963Y-46688374D01*
X93691000Y-46820743D01*
X93691000Y-47159258D01*
X93677963Y-47291627D01*
X93626443Y-47461466D01*
X93542778Y-47617991D01*
X93514027Y-47653024D01*
X93430186Y-47755186D01*
X93292989Y-47867779D01*
X93136467Y-47951442D01*
X93136465Y-47951443D01*
X92966626Y-48002963D01*
X92790000Y-48020359D01*
X92613373Y-48002963D01*
X92443534Y-47951443D01*
X92287009Y-47867778D01*
X92244750Y-47833097D01*
X92149814Y-47755186D01*
X92037221Y-47617989D01*
X91953558Y-47461467D01*
X91946243Y-47437353D01*
X91902037Y-47291626D01*
X91889000Y-47159257D01*
X91889000Y-46820742D01*
X91902037Y-46688373D01*
X91953557Y-46518534D01*
X92037222Y-46362009D01*
X92149815Y-46224815D01*
X92287010Y-46112222D01*
X92443535Y-46028557D01*
X92613374Y-45977037D01*
X92790000Y-45959641D01*
X92966627Y-45977037D01*
G37*
G36*
X95466627Y-45977037D02*
G01*
X95636466Y-46028557D01*
X95792991Y-46112222D01*
X95828729Y-46141552D01*
X95930186Y-46224814D01*
X96013448Y-46326271D01*
X96042778Y-46362009D01*
X96126443Y-46518534D01*
X96177963Y-46688374D01*
X96191000Y-46820743D01*
X96191000Y-47159258D01*
X96177963Y-47291627D01*
X96126443Y-47461466D01*
X96042778Y-47617991D01*
X96014027Y-47653024D01*
X95930186Y-47755186D01*
X95792989Y-47867779D01*
X95636467Y-47951442D01*
X95636465Y-47951443D01*
X95466626Y-48002963D01*
X95290000Y-48020359D01*
X95113373Y-48002963D01*
X94943534Y-47951443D01*
X94787009Y-47867778D01*
X94744750Y-47833097D01*
X94649814Y-47755186D01*
X94537221Y-47617989D01*
X94453558Y-47461467D01*
X94446243Y-47437353D01*
X94402037Y-47291626D01*
X94389000Y-47159257D01*
X94389000Y-46820742D01*
X94402037Y-46688373D01*
X94453557Y-46518534D01*
X94537222Y-46362009D01*
X94649815Y-46224815D01*
X94787010Y-46112222D01*
X94943535Y-46028557D01*
X95113374Y-45977037D01*
X95290000Y-45959641D01*
X95466627Y-45977037D01*
G37*
G36*
X98548600Y-45967989D02*
G01*
X98581652Y-45978015D01*
X98612103Y-45994292D01*
X98638799Y-46016201D01*
X98660708Y-46042897D01*
X98676985Y-46073348D01*
X98687011Y-46106400D01*
X98691000Y-46146903D01*
X98691000Y-47833097D01*
X98687011Y-47873600D01*
X98676985Y-47906652D01*
X98660708Y-47937103D01*
X98638799Y-47963799D01*
X98612103Y-47985708D01*
X98581652Y-48001985D01*
X98548600Y-48012011D01*
X98508097Y-48016000D01*
X97071903Y-48016000D01*
X97031400Y-48012011D01*
X96998348Y-48001985D01*
X96967897Y-47985708D01*
X96941201Y-47963799D01*
X96919292Y-47937103D01*
X96903015Y-47906652D01*
X96892989Y-47873600D01*
X96889000Y-47833097D01*
X96889000Y-46146903D01*
X96892989Y-46106400D01*
X96903015Y-46073348D01*
X96919292Y-46042897D01*
X96941201Y-46016201D01*
X96967897Y-45994292D01*
X96998348Y-45978015D01*
X97031400Y-45967989D01*
X97071903Y-45964000D01*
X98508097Y-45964000D01*
X98548600Y-45967989D01*
G37*
G36*
X55739512Y-45966927D02*
G01*
X55888812Y-45996624D01*
X56052784Y-46064544D01*
X56200354Y-46163147D01*
X56325853Y-46288646D01*
X56424456Y-46436216D01*
X56492376Y-46600188D01*
X56527000Y-46774259D01*
X56527000Y-46951741D01*
X56492376Y-47125812D01*
X56424456Y-47289784D01*
X56325853Y-47437354D01*
X56200354Y-47562853D01*
X56052784Y-47661456D01*
X55888812Y-47729376D01*
X55739512Y-47759073D01*
X55714742Y-47764000D01*
X55537258Y-47764000D01*
X55512488Y-47759073D01*
X55363188Y-47729376D01*
X55199216Y-47661456D01*
X55051646Y-47562853D01*
X54926147Y-47437354D01*
X54827544Y-47289784D01*
X54759624Y-47125812D01*
X54725000Y-46951741D01*
X54725000Y-46774259D01*
X54759624Y-46600188D01*
X54827544Y-46436216D01*
X54926147Y-46288646D01*
X55051646Y-46163147D01*
X55199216Y-46064544D01*
X55363188Y-45996624D01*
X55512488Y-45966927D01*
X55537258Y-45962000D01*
X55714742Y-45962000D01*
X55739512Y-45966927D01*
G37*
G36*
X60819512Y-45966927D02*
G01*
X60968812Y-45996624D01*
X61132784Y-46064544D01*
X61280354Y-46163147D01*
X61405853Y-46288646D01*
X61504456Y-46436216D01*
X61572376Y-46600188D01*
X61607000Y-46774259D01*
X61607000Y-46951741D01*
X61572376Y-47125812D01*
X61504456Y-47289784D01*
X61405853Y-47437354D01*
X61280354Y-47562853D01*
X61132784Y-47661456D01*
X60968812Y-47729376D01*
X60819512Y-47759073D01*
X60794742Y-47764000D01*
X60617258Y-47764000D01*
X60592488Y-47759073D01*
X60443188Y-47729376D01*
X60279216Y-47661456D01*
X60131646Y-47562853D01*
X60006147Y-47437354D01*
X59907544Y-47289784D01*
X59839624Y-47125812D01*
X59805000Y-46951741D01*
X59805000Y-46774259D01*
X59839624Y-46600188D01*
X59907544Y-46436216D01*
X60006147Y-46288646D01*
X60131646Y-46163147D01*
X60279216Y-46064544D01*
X60443188Y-45996624D01*
X60592488Y-45966927D01*
X60617258Y-45962000D01*
X60794742Y-45962000D01*
X60819512Y-45966927D01*
G37*
G36*
X58279512Y-45966927D02*
G01*
X58428812Y-45996624D01*
X58592784Y-46064544D01*
X58740354Y-46163147D01*
X58865853Y-46288646D01*
X58964456Y-46436216D01*
X59032376Y-46600188D01*
X59067000Y-46774259D01*
X59067000Y-46951741D01*
X59032376Y-47125812D01*
X58964456Y-47289784D01*
X58865853Y-47437354D01*
X58740354Y-47562853D01*
X58592784Y-47661456D01*
X58428812Y-47729376D01*
X58279512Y-47759073D01*
X58254742Y-47764000D01*
X58077258Y-47764000D01*
X58052488Y-47759073D01*
X57903188Y-47729376D01*
X57739216Y-47661456D01*
X57591646Y-47562853D01*
X57466147Y-47437354D01*
X57367544Y-47289784D01*
X57299624Y-47125812D01*
X57265000Y-46951741D01*
X57265000Y-46774259D01*
X57299624Y-46600188D01*
X57367544Y-46436216D01*
X57466147Y-46288646D01*
X57591646Y-46163147D01*
X57739216Y-46064544D01*
X57903188Y-45996624D01*
X58052488Y-45966927D01*
X58077258Y-45962000D01*
X58254742Y-45962000D01*
X58279512Y-45966927D01*
G37*
G36*
X87742823Y-46024313D02*
G01*
X87903242Y-46072976D01*
X88035906Y-46143886D01*
X88051078Y-46151996D01*
X88180659Y-46258341D01*
X88287004Y-46387922D01*
X88287005Y-46387924D01*
X88366024Y-46535758D01*
X88414687Y-46696177D01*
X88431117Y-46863000D01*
X88414687Y-47029823D01*
X88366024Y-47190242D01*
X88295114Y-47322906D01*
X88287004Y-47338078D01*
X88180659Y-47467659D01*
X88051078Y-47574004D01*
X88051076Y-47574005D01*
X87903242Y-47653024D01*
X87742823Y-47701687D01*
X87617804Y-47714000D01*
X87134196Y-47714000D01*
X87009177Y-47701687D01*
X86848758Y-47653024D01*
X86700924Y-47574005D01*
X86700922Y-47574004D01*
X86571341Y-47467659D01*
X86464996Y-47338078D01*
X86456886Y-47322906D01*
X86385976Y-47190242D01*
X86337313Y-47029823D01*
X86320883Y-46863000D01*
X86337313Y-46696177D01*
X86385976Y-46535758D01*
X86464995Y-46387924D01*
X86464996Y-46387922D01*
X86571341Y-46258341D01*
X86700922Y-46151996D01*
X86716094Y-46143886D01*
X86848758Y-46072976D01*
X87009177Y-46024313D01*
X87134196Y-46012000D01*
X87617804Y-46012000D01*
X87742823Y-46024313D01*
G37*
G36*
X64882823Y-46024313D02*
G01*
X65043242Y-46072976D01*
X65175906Y-46143886D01*
X65191078Y-46151996D01*
X65320659Y-46258341D01*
X65427004Y-46387922D01*
X65427005Y-46387924D01*
X65506024Y-46535758D01*
X65554687Y-46696177D01*
X65571117Y-46863000D01*
X65554687Y-47029823D01*
X65506024Y-47190242D01*
X65435114Y-47322906D01*
X65427004Y-47338078D01*
X65320659Y-47467659D01*
X65191078Y-47574004D01*
X65191076Y-47574005D01*
X65043242Y-47653024D01*
X64882823Y-47701687D01*
X64757804Y-47714000D01*
X64274196Y-47714000D01*
X64149177Y-47701687D01*
X63988758Y-47653024D01*
X63840924Y-47574005D01*
X63840922Y-47574004D01*
X63711341Y-47467659D01*
X63604996Y-47338078D01*
X63596886Y-47322906D01*
X63525976Y-47190242D01*
X63477313Y-47029823D01*
X63460883Y-46863000D01*
X63477313Y-46696177D01*
X63525976Y-46535758D01*
X63604995Y-46387924D01*
X63604996Y-46387922D01*
X63711341Y-46258341D01*
X63840922Y-46151996D01*
X63856094Y-46143886D01*
X63988758Y-46072976D01*
X64149177Y-46024313D01*
X64274196Y-46012000D01*
X64757804Y-46012000D01*
X64882823Y-46024313D01*
G37*
G36*
X55739512Y-43426927D02*
G01*
X55888812Y-43456624D01*
X56052784Y-43524544D01*
X56200354Y-43623147D01*
X56325853Y-43748646D01*
X56424456Y-43896216D01*
X56492376Y-44060188D01*
X56527000Y-44234259D01*
X56527000Y-44411741D01*
X56492376Y-44585812D01*
X56424456Y-44749784D01*
X56325853Y-44897354D01*
X56200354Y-45022853D01*
X56052784Y-45121456D01*
X55888812Y-45189376D01*
X55739512Y-45219073D01*
X55714742Y-45224000D01*
X55537258Y-45224000D01*
X55512488Y-45219073D01*
X55363188Y-45189376D01*
X55199216Y-45121456D01*
X55051646Y-45022853D01*
X54926147Y-44897354D01*
X54827544Y-44749784D01*
X54759624Y-44585812D01*
X54725000Y-44411741D01*
X54725000Y-44234259D01*
X54759624Y-44060188D01*
X54827544Y-43896216D01*
X54926147Y-43748646D01*
X55051646Y-43623147D01*
X55199216Y-43524544D01*
X55363188Y-43456624D01*
X55512488Y-43426927D01*
X55537258Y-43422000D01*
X55714742Y-43422000D01*
X55739512Y-43426927D01*
G37*
G36*
X60819512Y-43426927D02*
G01*
X60968812Y-43456624D01*
X61132784Y-43524544D01*
X61280354Y-43623147D01*
X61405853Y-43748646D01*
X61504456Y-43896216D01*
X61572376Y-44060188D01*
X61607000Y-44234259D01*
X61607000Y-44411741D01*
X61572376Y-44585812D01*
X61504456Y-44749784D01*
X61405853Y-44897354D01*
X61280354Y-45022853D01*
X61132784Y-45121456D01*
X60968812Y-45189376D01*
X60819512Y-45219073D01*
X60794742Y-45224000D01*
X60617258Y-45224000D01*
X60592488Y-45219073D01*
X60443188Y-45189376D01*
X60279216Y-45121456D01*
X60131646Y-45022853D01*
X60006147Y-44897354D01*
X59907544Y-44749784D01*
X59839624Y-44585812D01*
X59805000Y-44411741D01*
X59805000Y-44234259D01*
X59839624Y-44060188D01*
X59907544Y-43896216D01*
X60006147Y-43748646D01*
X60131646Y-43623147D01*
X60279216Y-43524544D01*
X60443188Y-43456624D01*
X60592488Y-43426927D01*
X60617258Y-43422000D01*
X60794742Y-43422000D01*
X60819512Y-43426927D01*
G37*
G36*
X58279512Y-43426927D02*
G01*
X58428812Y-43456624D01*
X58592784Y-43524544D01*
X58740354Y-43623147D01*
X58865853Y-43748646D01*
X58964456Y-43896216D01*
X59032376Y-44060188D01*
X59067000Y-44234259D01*
X59067000Y-44411741D01*
X59032376Y-44585812D01*
X58964456Y-44749784D01*
X58865853Y-44897354D01*
X58740354Y-45022853D01*
X58592784Y-45121456D01*
X58428812Y-45189376D01*
X58279512Y-45219073D01*
X58254742Y-45224000D01*
X58077258Y-45224000D01*
X58052488Y-45219073D01*
X57903188Y-45189376D01*
X57739216Y-45121456D01*
X57591646Y-45022853D01*
X57466147Y-44897354D01*
X57367544Y-44749784D01*
X57299624Y-44585812D01*
X57265000Y-44411741D01*
X57265000Y-44234259D01*
X57299624Y-44060188D01*
X57367544Y-43896216D01*
X57466147Y-43748646D01*
X57591646Y-43623147D01*
X57739216Y-43524544D01*
X57903188Y-43456624D01*
X58052488Y-43426927D01*
X58077258Y-43422000D01*
X58254742Y-43422000D01*
X58279512Y-43426927D01*
G37*
G36*
X64882823Y-43484313D02*
G01*
X65043242Y-43532976D01*
X65175906Y-43603886D01*
X65191078Y-43611996D01*
X65320659Y-43718341D01*
X65427004Y-43847922D01*
X65427005Y-43847924D01*
X65506024Y-43995758D01*
X65554687Y-44156177D01*
X65571117Y-44323000D01*
X65554687Y-44489823D01*
X65506024Y-44650242D01*
X65435114Y-44782906D01*
X65427004Y-44798078D01*
X65320659Y-44927659D01*
X65191078Y-45034004D01*
X65191076Y-45034005D01*
X65043242Y-45113024D01*
X64882823Y-45161687D01*
X64757804Y-45174000D01*
X64274196Y-45174000D01*
X64149177Y-45161687D01*
X63988758Y-45113024D01*
X63840924Y-45034005D01*
X63840922Y-45034004D01*
X63711341Y-44927659D01*
X63604996Y-44798078D01*
X63596886Y-44782906D01*
X63525976Y-44650242D01*
X63477313Y-44489823D01*
X63460883Y-44323000D01*
X63477313Y-44156177D01*
X63525976Y-43995758D01*
X63604995Y-43847924D01*
X63604996Y-43847922D01*
X63711341Y-43718341D01*
X63840922Y-43611996D01*
X63856094Y-43603886D01*
X63988758Y-43532976D01*
X64149177Y-43484313D01*
X64274196Y-43472000D01*
X64757804Y-43472000D01*
X64882823Y-43484313D01*
G37*
G36*
X87742823Y-43484313D02*
G01*
X87903242Y-43532976D01*
X88035906Y-43603886D01*
X88051078Y-43611996D01*
X88180659Y-43718341D01*
X88287004Y-43847922D01*
X88287005Y-43847924D01*
X88366024Y-43995758D01*
X88414687Y-44156177D01*
X88431117Y-44323000D01*
X88414687Y-44489823D01*
X88366024Y-44650242D01*
X88295114Y-44782906D01*
X88287004Y-44798078D01*
X88180659Y-44927659D01*
X88051078Y-45034004D01*
X88051076Y-45034005D01*
X87903242Y-45113024D01*
X87742823Y-45161687D01*
X87617804Y-45174000D01*
X87134196Y-45174000D01*
X87009177Y-45161687D01*
X86848758Y-45113024D01*
X86700924Y-45034005D01*
X86700922Y-45034004D01*
X86571341Y-44927659D01*
X86464996Y-44798078D01*
X86456886Y-44782906D01*
X86385976Y-44650242D01*
X86337313Y-44489823D01*
X86320883Y-44323000D01*
X86337313Y-44156177D01*
X86385976Y-43995758D01*
X86464995Y-43847924D01*
X86464996Y-43847922D01*
X86571341Y-43718341D01*
X86700922Y-43611996D01*
X86716094Y-43603886D01*
X86848758Y-43532976D01*
X87009177Y-43484313D01*
X87134196Y-43472000D01*
X87617804Y-43472000D01*
X87742823Y-43484313D01*
G37*
G36*
X55739512Y-40886927D02*
G01*
X55888812Y-40916624D01*
X56052784Y-40984544D01*
X56200354Y-41083147D01*
X56325853Y-41208646D01*
X56424456Y-41356216D01*
X56492376Y-41520188D01*
X56527000Y-41694259D01*
X56527000Y-41871741D01*
X56492376Y-42045812D01*
X56424456Y-42209784D01*
X56325853Y-42357354D01*
X56200354Y-42482853D01*
X56052784Y-42581456D01*
X55888812Y-42649376D01*
X55739512Y-42679073D01*
X55714742Y-42684000D01*
X55537258Y-42684000D01*
X55512488Y-42679073D01*
X55363188Y-42649376D01*
X55199216Y-42581456D01*
X55051646Y-42482853D01*
X54926147Y-42357354D01*
X54827544Y-42209784D01*
X54759624Y-42045812D01*
X54725000Y-41871741D01*
X54725000Y-41694259D01*
X54759624Y-41520188D01*
X54827544Y-41356216D01*
X54926147Y-41208646D01*
X55051646Y-41083147D01*
X55199216Y-40984544D01*
X55363188Y-40916624D01*
X55512488Y-40886927D01*
X55537258Y-40882000D01*
X55714742Y-40882000D01*
X55739512Y-40886927D01*
G37*
G36*
X60819512Y-40886927D02*
G01*
X60968812Y-40916624D01*
X61132784Y-40984544D01*
X61280354Y-41083147D01*
X61405853Y-41208646D01*
X61504456Y-41356216D01*
X61572376Y-41520188D01*
X61607000Y-41694259D01*
X61607000Y-41871741D01*
X61572376Y-42045812D01*
X61504456Y-42209784D01*
X61405853Y-42357354D01*
X61280354Y-42482853D01*
X61132784Y-42581456D01*
X60968812Y-42649376D01*
X60819512Y-42679073D01*
X60794742Y-42684000D01*
X60617258Y-42684000D01*
X60592488Y-42679073D01*
X60443188Y-42649376D01*
X60279216Y-42581456D01*
X60131646Y-42482853D01*
X60006147Y-42357354D01*
X59907544Y-42209784D01*
X59839624Y-42045812D01*
X59805000Y-41871741D01*
X59805000Y-41694259D01*
X59839624Y-41520188D01*
X59907544Y-41356216D01*
X60006147Y-41208646D01*
X60131646Y-41083147D01*
X60279216Y-40984544D01*
X60443188Y-40916624D01*
X60592488Y-40886927D01*
X60617258Y-40882000D01*
X60794742Y-40882000D01*
X60819512Y-40886927D01*
G37*
G36*
X58279512Y-40886927D02*
G01*
X58428812Y-40916624D01*
X58592784Y-40984544D01*
X58740354Y-41083147D01*
X58865853Y-41208646D01*
X58964456Y-41356216D01*
X59032376Y-41520188D01*
X59067000Y-41694259D01*
X59067000Y-41871741D01*
X59032376Y-42045812D01*
X58964456Y-42209784D01*
X58865853Y-42357354D01*
X58740354Y-42482853D01*
X58592784Y-42581456D01*
X58428812Y-42649376D01*
X58279512Y-42679073D01*
X58254742Y-42684000D01*
X58077258Y-42684000D01*
X58052488Y-42679073D01*
X57903188Y-42649376D01*
X57739216Y-42581456D01*
X57591646Y-42482853D01*
X57466147Y-42357354D01*
X57367544Y-42209784D01*
X57299624Y-42045812D01*
X57265000Y-41871741D01*
X57265000Y-41694259D01*
X57299624Y-41520188D01*
X57367544Y-41356216D01*
X57466147Y-41208646D01*
X57591646Y-41083147D01*
X57739216Y-40984544D01*
X57903188Y-40916624D01*
X58052488Y-40886927D01*
X58077258Y-40882000D01*
X58254742Y-40882000D01*
X58279512Y-40886927D01*
G37*
G36*
X83814228Y-40964703D02*
G01*
X83969100Y-41028853D01*
X84108481Y-41121985D01*
X84227015Y-41240519D01*
X84320147Y-41379900D01*
X84384297Y-41534772D01*
X84417000Y-41699184D01*
X84417000Y-41866816D01*
X84384297Y-42031228D01*
X84320147Y-42186100D01*
X84227015Y-42325481D01*
X84108481Y-42444015D01*
X83969100Y-42537147D01*
X83814228Y-42601297D01*
X83649816Y-42634000D01*
X83482184Y-42634000D01*
X83317772Y-42601297D01*
X83162900Y-42537147D01*
X83023519Y-42444015D01*
X82904985Y-42325481D01*
X82811853Y-42186100D01*
X82747703Y-42031228D01*
X82715000Y-41866816D01*
X82715000Y-41699184D01*
X82747703Y-41534772D01*
X82811853Y-41379900D01*
X82904985Y-41240519D01*
X83023519Y-41121985D01*
X83162900Y-41028853D01*
X83317772Y-40964703D01*
X83482184Y-40932000D01*
X83649816Y-40932000D01*
X83814228Y-40964703D01*
G37*
G36*
X87742823Y-40944313D02*
G01*
X87903242Y-40992976D01*
X87970361Y-41028852D01*
X88051078Y-41071996D01*
X88180659Y-41178341D01*
X88287004Y-41307922D01*
X88287005Y-41307924D01*
X88366024Y-41455758D01*
X88414687Y-41616177D01*
X88431117Y-41783000D01*
X88414687Y-41949823D01*
X88366024Y-42110242D01*
X88295114Y-42242906D01*
X88287004Y-42258078D01*
X88180659Y-42387659D01*
X88051078Y-42494004D01*
X88051076Y-42494005D01*
X87903242Y-42573024D01*
X87742823Y-42621687D01*
X87617804Y-42634000D01*
X87134196Y-42634000D01*
X87009177Y-42621687D01*
X86848758Y-42573024D01*
X86700924Y-42494005D01*
X86700922Y-42494004D01*
X86571341Y-42387659D01*
X86464996Y-42258078D01*
X86456886Y-42242906D01*
X86385976Y-42110242D01*
X86337313Y-41949823D01*
X86320883Y-41783000D01*
X86337313Y-41616177D01*
X86385976Y-41455758D01*
X86464995Y-41307924D01*
X86464996Y-41307922D01*
X86571341Y-41178341D01*
X86700922Y-41071996D01*
X86781639Y-41028852D01*
X86848758Y-40992976D01*
X87009177Y-40944313D01*
X87134196Y-40932000D01*
X87617804Y-40932000D01*
X87742823Y-40944313D01*
G37*
G36*
X80766228Y-40964703D02*
G01*
X80921100Y-41028853D01*
X81060481Y-41121985D01*
X81179015Y-41240519D01*
X81272147Y-41379900D01*
X81336297Y-41534772D01*
X81369000Y-41699184D01*
X81369000Y-41866816D01*
X81336297Y-42031228D01*
X81272147Y-42186100D01*
X81179015Y-42325481D01*
X81060481Y-42444015D01*
X80921100Y-42537147D01*
X80766228Y-42601297D01*
X80601816Y-42634000D01*
X80434184Y-42634000D01*
X80269772Y-42601297D01*
X80114900Y-42537147D01*
X79975519Y-42444015D01*
X79856985Y-42325481D01*
X79763853Y-42186100D01*
X79699703Y-42031228D01*
X79667000Y-41866816D01*
X79667000Y-41699184D01*
X79699703Y-41534772D01*
X79763853Y-41379900D01*
X79856985Y-41240519D01*
X79975519Y-41121985D01*
X80114900Y-41028853D01*
X80269772Y-40964703D01*
X80434184Y-40932000D01*
X80601816Y-40932000D01*
X80766228Y-40964703D01*
G37*
G36*
X64882823Y-40944313D02*
G01*
X65043242Y-40992976D01*
X65110361Y-41028852D01*
X65191078Y-41071996D01*
X65320659Y-41178341D01*
X65427004Y-41307922D01*
X65427005Y-41307924D01*
X65506024Y-41455758D01*
X65554687Y-41616177D01*
X65571117Y-41783000D01*
X65554687Y-41949823D01*
X65506024Y-42110242D01*
X65435114Y-42242906D01*
X65427004Y-42258078D01*
X65320659Y-42387659D01*
X65191078Y-42494004D01*
X65191076Y-42494005D01*
X65043242Y-42573024D01*
X64882823Y-42621687D01*
X64757804Y-42634000D01*
X64274196Y-42634000D01*
X64149177Y-42621687D01*
X63988758Y-42573024D01*
X63840924Y-42494005D01*
X63840922Y-42494004D01*
X63711341Y-42387659D01*
X63604996Y-42258078D01*
X63596886Y-42242906D01*
X63525976Y-42110242D01*
X63477313Y-41949823D01*
X63460883Y-41783000D01*
X63477313Y-41616177D01*
X63525976Y-41455758D01*
X63604995Y-41307924D01*
X63604996Y-41307922D01*
X63711341Y-41178341D01*
X63840922Y-41071996D01*
X63921639Y-41028852D01*
X63988758Y-40992976D01*
X64149177Y-40944313D01*
X64274196Y-40932000D01*
X64757804Y-40932000D01*
X64882823Y-40944313D01*
G37*
G36*
X95466627Y-39627037D02*
G01*
X95636466Y-39678557D01*
X95792991Y-39762222D01*
X95828729Y-39791552D01*
X95930186Y-39874814D01*
X95995175Y-39954005D01*
X96042778Y-40012009D01*
X96126443Y-40168534D01*
X96177963Y-40338374D01*
X96191000Y-40470743D01*
X96191000Y-40809258D01*
X96177963Y-40941627D01*
X96126443Y-41111466D01*
X96042778Y-41267991D01*
X96013448Y-41303729D01*
X95930186Y-41405186D01*
X95792989Y-41517779D01*
X95636467Y-41601442D01*
X95636465Y-41601443D01*
X95466626Y-41652963D01*
X95290000Y-41670359D01*
X95113373Y-41652963D01*
X94943534Y-41601443D01*
X94787009Y-41517778D01*
X94744750Y-41483097D01*
X94649814Y-41405186D01*
X94537221Y-41267989D01*
X94453558Y-41111467D01*
X94453557Y-41111465D01*
X94402037Y-40941626D01*
X94389000Y-40809257D01*
X94389000Y-40470742D01*
X94402037Y-40338373D01*
X94453557Y-40168534D01*
X94537222Y-40012009D01*
X94649815Y-39874815D01*
X94787010Y-39762222D01*
X94943535Y-39678557D01*
X95113374Y-39627037D01*
X95290000Y-39609641D01*
X95466627Y-39627037D01*
G37*
G36*
X92966627Y-39627037D02*
G01*
X93136466Y-39678557D01*
X93292991Y-39762222D01*
X93328729Y-39791552D01*
X93430186Y-39874814D01*
X93495175Y-39954005D01*
X93542778Y-40012009D01*
X93626443Y-40168534D01*
X93677963Y-40338374D01*
X93691000Y-40470743D01*
X93691000Y-40809258D01*
X93677963Y-40941627D01*
X93626443Y-41111466D01*
X93542778Y-41267991D01*
X93513448Y-41303729D01*
X93430186Y-41405186D01*
X93292989Y-41517779D01*
X93136467Y-41601442D01*
X93136465Y-41601443D01*
X92966626Y-41652963D01*
X92790000Y-41670359D01*
X92613373Y-41652963D01*
X92443534Y-41601443D01*
X92287009Y-41517778D01*
X92244750Y-41483097D01*
X92149814Y-41405186D01*
X92037221Y-41267989D01*
X91953558Y-41111467D01*
X91953557Y-41111465D01*
X91902037Y-40941626D01*
X91889000Y-40809257D01*
X91889000Y-40470742D01*
X91902037Y-40338373D01*
X91953557Y-40168534D01*
X92037222Y-40012009D01*
X92149815Y-39874815D01*
X92287010Y-39762222D01*
X92443535Y-39678557D01*
X92613374Y-39627037D01*
X92790000Y-39609641D01*
X92966627Y-39627037D01*
G37*
G36*
X98548600Y-39617989D02*
G01*
X98581652Y-39628015D01*
X98612103Y-39644292D01*
X98638799Y-39666201D01*
X98660708Y-39692897D01*
X98676985Y-39723348D01*
X98687011Y-39756400D01*
X98691000Y-39796903D01*
X98691000Y-41483097D01*
X98687011Y-41523600D01*
X98676985Y-41556652D01*
X98660708Y-41587103D01*
X98638799Y-41613799D01*
X98612103Y-41635708D01*
X98581652Y-41651985D01*
X98548600Y-41662011D01*
X98508097Y-41666000D01*
X97071903Y-41666000D01*
X97031400Y-41662011D01*
X96998348Y-41651985D01*
X96967897Y-41635708D01*
X96941201Y-41613799D01*
X96919292Y-41587103D01*
X96903015Y-41556652D01*
X96892989Y-41523600D01*
X96889000Y-41483097D01*
X96889000Y-39796903D01*
X96892989Y-39756400D01*
X96903015Y-39723348D01*
X96919292Y-39692897D01*
X96941201Y-39666201D01*
X96967897Y-39644292D01*
X96998348Y-39628015D01*
X97031400Y-39617989D01*
X97071903Y-39614000D01*
X98508097Y-39614000D01*
X98548600Y-39617989D01*
G37*
G36*
X58279512Y-38346927D02*
G01*
X58428812Y-38376624D01*
X58592784Y-38444544D01*
X58740354Y-38543147D01*
X58865853Y-38668646D01*
X58964456Y-38816216D01*
X59032376Y-38980188D01*
X59067000Y-39154259D01*
X59067000Y-39331741D01*
X59032376Y-39505812D01*
X58964456Y-39669784D01*
X58865853Y-39817354D01*
X58740354Y-39942853D01*
X58592784Y-40041456D01*
X58428812Y-40109376D01*
X58279512Y-40139073D01*
X58254742Y-40144000D01*
X58077258Y-40144000D01*
X58052488Y-40139073D01*
X57903188Y-40109376D01*
X57739216Y-40041456D01*
X57591646Y-39942853D01*
X57466147Y-39817354D01*
X57367544Y-39669784D01*
X57299624Y-39505812D01*
X57265000Y-39331741D01*
X57265000Y-39154259D01*
X57299624Y-38980188D01*
X57367544Y-38816216D01*
X57466147Y-38668646D01*
X57591646Y-38543147D01*
X57739216Y-38444544D01*
X57903188Y-38376624D01*
X58052488Y-38346927D01*
X58077258Y-38342000D01*
X58254742Y-38342000D01*
X58279512Y-38346927D01*
G37*
G36*
X60819512Y-38346927D02*
G01*
X60968812Y-38376624D01*
X61132784Y-38444544D01*
X61280354Y-38543147D01*
X61405853Y-38668646D01*
X61504456Y-38816216D01*
X61572376Y-38980188D01*
X61607000Y-39154259D01*
X61607000Y-39331741D01*
X61572376Y-39505812D01*
X61504456Y-39669784D01*
X61405853Y-39817354D01*
X61280354Y-39942853D01*
X61132784Y-40041456D01*
X60968812Y-40109376D01*
X60819512Y-40139073D01*
X60794742Y-40144000D01*
X60617258Y-40144000D01*
X60592488Y-40139073D01*
X60443188Y-40109376D01*
X60279216Y-40041456D01*
X60131646Y-39942853D01*
X60006147Y-39817354D01*
X59907544Y-39669784D01*
X59839624Y-39505812D01*
X59805000Y-39331741D01*
X59805000Y-39154259D01*
X59839624Y-38980188D01*
X59907544Y-38816216D01*
X60006147Y-38668646D01*
X60131646Y-38543147D01*
X60279216Y-38444544D01*
X60443188Y-38376624D01*
X60592488Y-38346927D01*
X60617258Y-38342000D01*
X60794742Y-38342000D01*
X60819512Y-38346927D01*
G37*
G36*
X55739512Y-38346927D02*
G01*
X55888812Y-38376624D01*
X56052784Y-38444544D01*
X56200354Y-38543147D01*
X56325853Y-38668646D01*
X56424456Y-38816216D01*
X56492376Y-38980188D01*
X56527000Y-39154259D01*
X56527000Y-39331741D01*
X56492376Y-39505812D01*
X56424456Y-39669784D01*
X56325853Y-39817354D01*
X56200354Y-39942853D01*
X56052784Y-40041456D01*
X55888812Y-40109376D01*
X55739512Y-40139073D01*
X55714742Y-40144000D01*
X55537258Y-40144000D01*
X55512488Y-40139073D01*
X55363188Y-40109376D01*
X55199216Y-40041456D01*
X55051646Y-39942853D01*
X54926147Y-39817354D01*
X54827544Y-39669784D01*
X54759624Y-39505812D01*
X54725000Y-39331741D01*
X54725000Y-39154259D01*
X54759624Y-38980188D01*
X54827544Y-38816216D01*
X54926147Y-38668646D01*
X55051646Y-38543147D01*
X55199216Y-38444544D01*
X55363188Y-38376624D01*
X55512488Y-38346927D01*
X55537258Y-38342000D01*
X55714742Y-38342000D01*
X55739512Y-38346927D01*
G37*
G36*
X87742823Y-38404313D02*
G01*
X87903242Y-38452976D01*
X88035906Y-38523886D01*
X88051078Y-38531996D01*
X88180659Y-38638341D01*
X88287004Y-38767922D01*
X88287005Y-38767924D01*
X88366024Y-38915758D01*
X88414687Y-39076177D01*
X88431117Y-39243000D01*
X88414687Y-39409823D01*
X88366024Y-39570242D01*
X88308128Y-39678557D01*
X88287004Y-39718078D01*
X88180659Y-39847659D01*
X88051078Y-39954004D01*
X88051076Y-39954005D01*
X87903242Y-40033024D01*
X87742823Y-40081687D01*
X87617804Y-40094000D01*
X87134196Y-40094000D01*
X87009177Y-40081687D01*
X86848758Y-40033024D01*
X86700924Y-39954005D01*
X86700922Y-39954004D01*
X86571341Y-39847659D01*
X86464996Y-39718078D01*
X86443872Y-39678557D01*
X86385976Y-39570242D01*
X86337313Y-39409823D01*
X86320883Y-39243000D01*
X86337313Y-39076177D01*
X86385976Y-38915758D01*
X86464995Y-38767924D01*
X86464996Y-38767922D01*
X86571341Y-38638341D01*
X86700922Y-38531996D01*
X86716094Y-38523886D01*
X86848758Y-38452976D01*
X87009177Y-38404313D01*
X87134196Y-38392000D01*
X87617804Y-38392000D01*
X87742823Y-38404313D01*
G37*
G36*
X64882823Y-38404313D02*
G01*
X65043242Y-38452976D01*
X65175906Y-38523886D01*
X65191078Y-38531996D01*
X65320659Y-38638341D01*
X65427004Y-38767922D01*
X65427005Y-38767924D01*
X65506024Y-38915758D01*
X65554687Y-39076177D01*
X65571117Y-39243000D01*
X65554687Y-39409823D01*
X65506024Y-39570242D01*
X65448128Y-39678557D01*
X65427004Y-39718078D01*
X65320659Y-39847659D01*
X65191078Y-39954004D01*
X65191076Y-39954005D01*
X65043242Y-40033024D01*
X64882823Y-40081687D01*
X64757804Y-40094000D01*
X64274196Y-40094000D01*
X64149177Y-40081687D01*
X63988758Y-40033024D01*
X63840924Y-39954005D01*
X63840922Y-39954004D01*
X63711341Y-39847659D01*
X63604996Y-39718078D01*
X63583872Y-39678557D01*
X63525976Y-39570242D01*
X63477313Y-39409823D01*
X63460883Y-39243000D01*
X63477313Y-39076177D01*
X63525976Y-38915758D01*
X63604995Y-38767924D01*
X63604996Y-38767922D01*
X63711341Y-38638341D01*
X63840922Y-38531996D01*
X63856094Y-38523886D01*
X63988758Y-38452976D01*
X64149177Y-38404313D01*
X64274196Y-38392000D01*
X64757804Y-38392000D01*
X64882823Y-38404313D01*
G37*
G36*
X60819512Y-35806927D02*
G01*
X60968812Y-35836624D01*
X61132784Y-35904544D01*
X61280354Y-36003147D01*
X61405853Y-36128646D01*
X61504456Y-36276216D01*
X61572376Y-36440188D01*
X61607000Y-36614259D01*
X61607000Y-36791741D01*
X61572376Y-36965812D01*
X61504456Y-37129784D01*
X61405853Y-37277354D01*
X61280354Y-37402853D01*
X61132784Y-37501456D01*
X60968812Y-37569376D01*
X60819512Y-37599073D01*
X60794742Y-37604000D01*
X60617258Y-37604000D01*
X60592488Y-37599073D01*
X60443188Y-37569376D01*
X60279216Y-37501456D01*
X60131646Y-37402853D01*
X60006147Y-37277354D01*
X59907544Y-37129784D01*
X59839624Y-36965812D01*
X59805000Y-36791741D01*
X59805000Y-36614259D01*
X59839624Y-36440188D01*
X59907544Y-36276216D01*
X60006147Y-36128646D01*
X60131646Y-36003147D01*
X60279216Y-35904544D01*
X60443188Y-35836624D01*
X60592488Y-35806927D01*
X60617258Y-35802000D01*
X60794742Y-35802000D01*
X60819512Y-35806927D01*
G37*
G36*
X58279512Y-35806927D02*
G01*
X58428812Y-35836624D01*
X58592784Y-35904544D01*
X58740354Y-36003147D01*
X58865853Y-36128646D01*
X58964456Y-36276216D01*
X59032376Y-36440188D01*
X59067000Y-36614259D01*
X59067000Y-36791741D01*
X59032376Y-36965812D01*
X58964456Y-37129784D01*
X58865853Y-37277354D01*
X58740354Y-37402853D01*
X58592784Y-37501456D01*
X58428812Y-37569376D01*
X58279512Y-37599073D01*
X58254742Y-37604000D01*
X58077258Y-37604000D01*
X58052488Y-37599073D01*
X57903188Y-37569376D01*
X57739216Y-37501456D01*
X57591646Y-37402853D01*
X57466147Y-37277354D01*
X57367544Y-37129784D01*
X57299624Y-36965812D01*
X57265000Y-36791741D01*
X57265000Y-36614259D01*
X57299624Y-36440188D01*
X57367544Y-36276216D01*
X57466147Y-36128646D01*
X57591646Y-36003147D01*
X57739216Y-35904544D01*
X57903188Y-35836624D01*
X58052488Y-35806927D01*
X58077258Y-35802000D01*
X58254742Y-35802000D01*
X58279512Y-35806927D01*
G37*
G36*
X55739512Y-35806927D02*
G01*
X55888812Y-35836624D01*
X56052784Y-35904544D01*
X56200354Y-36003147D01*
X56325853Y-36128646D01*
X56424456Y-36276216D01*
X56492376Y-36440188D01*
X56527000Y-36614259D01*
X56527000Y-36791741D01*
X56492376Y-36965812D01*
X56424456Y-37129784D01*
X56325853Y-37277354D01*
X56200354Y-37402853D01*
X56052784Y-37501456D01*
X55888812Y-37569376D01*
X55739512Y-37599073D01*
X55714742Y-37604000D01*
X55537258Y-37604000D01*
X55512488Y-37599073D01*
X55363188Y-37569376D01*
X55199216Y-37501456D01*
X55051646Y-37402853D01*
X54926147Y-37277354D01*
X54827544Y-37129784D01*
X54759624Y-36965812D01*
X54725000Y-36791741D01*
X54725000Y-36614259D01*
X54759624Y-36440188D01*
X54827544Y-36276216D01*
X54926147Y-36128646D01*
X55051646Y-36003147D01*
X55199216Y-35904544D01*
X55363188Y-35836624D01*
X55512488Y-35806927D01*
X55537258Y-35802000D01*
X55714742Y-35802000D01*
X55739512Y-35806927D01*
G37*
G36*
X64882823Y-35864313D02*
G01*
X65043242Y-35912976D01*
X65175906Y-35983886D01*
X65191078Y-35991996D01*
X65320659Y-36098341D01*
X65427004Y-36227922D01*
X65427005Y-36227924D01*
X65506024Y-36375758D01*
X65554687Y-36536177D01*
X65571117Y-36703000D01*
X65554687Y-36869823D01*
X65506024Y-37030242D01*
X65435114Y-37162906D01*
X65427004Y-37178078D01*
X65320659Y-37307659D01*
X65191078Y-37414004D01*
X65191076Y-37414005D01*
X65043242Y-37493024D01*
X64882823Y-37541687D01*
X64757804Y-37554000D01*
X64274196Y-37554000D01*
X64149177Y-37541687D01*
X63988758Y-37493024D01*
X63840924Y-37414005D01*
X63840922Y-37414004D01*
X63711341Y-37307659D01*
X63604996Y-37178078D01*
X63596886Y-37162906D01*
X63525976Y-37030242D01*
X63477313Y-36869823D01*
X63460883Y-36703000D01*
X63477313Y-36536177D01*
X63525976Y-36375758D01*
X63604995Y-36227924D01*
X63604996Y-36227922D01*
X63711341Y-36098341D01*
X63840922Y-35991996D01*
X63856094Y-35983886D01*
X63988758Y-35912976D01*
X64149177Y-35864313D01*
X64274196Y-35852000D01*
X64757804Y-35852000D01*
X64882823Y-35864313D01*
G37*
G36*
X87742823Y-35864313D02*
G01*
X87903242Y-35912976D01*
X88035906Y-35983886D01*
X88051078Y-35991996D01*
X88180659Y-36098341D01*
X88287004Y-36227922D01*
X88287005Y-36227924D01*
X88366024Y-36375758D01*
X88414687Y-36536177D01*
X88431117Y-36703000D01*
X88414687Y-36869823D01*
X88366024Y-37030242D01*
X88295114Y-37162906D01*
X88287004Y-37178078D01*
X88180659Y-37307659D01*
X88051078Y-37414004D01*
X88051076Y-37414005D01*
X87903242Y-37493024D01*
X87742823Y-37541687D01*
X87617804Y-37554000D01*
X87134196Y-37554000D01*
X87009177Y-37541687D01*
X86848758Y-37493024D01*
X86700924Y-37414005D01*
X86700922Y-37414004D01*
X86571341Y-37307659D01*
X86464996Y-37178078D01*
X86456886Y-37162906D01*
X86385976Y-37030242D01*
X86337313Y-36869823D01*
X86320883Y-36703000D01*
X86337313Y-36536177D01*
X86385976Y-36375758D01*
X86464995Y-36227924D01*
X86464996Y-36227922D01*
X86571341Y-36098341D01*
X86700922Y-35991996D01*
X86716094Y-35983886D01*
X86848758Y-35912976D01*
X87009177Y-35864313D01*
X87134196Y-35852000D01*
X87617804Y-35852000D01*
X87742823Y-35864313D01*
G37*
G36*
X92966627Y-33277037D02*
G01*
X93136466Y-33328557D01*
X93292991Y-33412222D01*
X93328729Y-33441552D01*
X93430186Y-33524814D01*
X93513448Y-33626271D01*
X93542778Y-33662009D01*
X93626443Y-33818534D01*
X93677963Y-33988374D01*
X93691000Y-34120743D01*
X93691000Y-34459258D01*
X93677963Y-34591627D01*
X93626443Y-34761466D01*
X93542778Y-34917991D01*
X93514027Y-34953024D01*
X93430186Y-35055186D01*
X93292989Y-35167779D01*
X93136467Y-35251442D01*
X93136465Y-35251443D01*
X92966626Y-35302963D01*
X92790000Y-35320359D01*
X92613373Y-35302963D01*
X92443534Y-35251443D01*
X92287009Y-35167778D01*
X92244750Y-35133097D01*
X92149814Y-35055186D01*
X92037221Y-34917989D01*
X91953558Y-34761467D01*
X91953557Y-34761465D01*
X91902037Y-34591626D01*
X91889000Y-34459257D01*
X91889000Y-34120742D01*
X91902037Y-33988373D01*
X91953557Y-33818534D01*
X92037222Y-33662009D01*
X92149815Y-33524815D01*
X92287010Y-33412222D01*
X92443535Y-33328557D01*
X92613374Y-33277037D01*
X92790000Y-33259641D01*
X92966627Y-33277037D01*
G37*
G36*
X95466627Y-33277037D02*
G01*
X95636466Y-33328557D01*
X95792991Y-33412222D01*
X95828729Y-33441552D01*
X95930186Y-33524814D01*
X96013448Y-33626271D01*
X96042778Y-33662009D01*
X96126443Y-33818534D01*
X96177963Y-33988374D01*
X96191000Y-34120743D01*
X96191000Y-34459258D01*
X96177963Y-34591627D01*
X96126443Y-34761466D01*
X96042778Y-34917991D01*
X96014027Y-34953024D01*
X95930186Y-35055186D01*
X95792989Y-35167779D01*
X95636467Y-35251442D01*
X95636465Y-35251443D01*
X95466626Y-35302963D01*
X95290000Y-35320359D01*
X95113373Y-35302963D01*
X94943534Y-35251443D01*
X94787009Y-35167778D01*
X94744750Y-35133097D01*
X94649814Y-35055186D01*
X94537221Y-34917989D01*
X94453558Y-34761467D01*
X94453557Y-34761465D01*
X94402037Y-34591626D01*
X94389000Y-34459257D01*
X94389000Y-34120742D01*
X94402037Y-33988373D01*
X94453557Y-33818534D01*
X94537222Y-33662009D01*
X94649815Y-33524815D01*
X94787010Y-33412222D01*
X94943535Y-33328557D01*
X95113374Y-33277037D01*
X95290000Y-33259641D01*
X95466627Y-33277037D01*
G37*
G36*
X98548600Y-33267989D02*
G01*
X98581652Y-33278015D01*
X98612103Y-33294292D01*
X98638799Y-33316201D01*
X98660708Y-33342897D01*
X98676985Y-33373348D01*
X98687011Y-33406400D01*
X98691000Y-33446903D01*
X98691000Y-35133097D01*
X98687011Y-35173600D01*
X98676985Y-35206652D01*
X98660708Y-35237103D01*
X98638799Y-35263799D01*
X98612103Y-35285708D01*
X98581652Y-35301985D01*
X98548600Y-35312011D01*
X98508097Y-35316000D01*
X97071903Y-35316000D01*
X97031400Y-35312011D01*
X96998348Y-35301985D01*
X96967897Y-35285708D01*
X96941201Y-35263799D01*
X96919292Y-35237103D01*
X96903015Y-35206652D01*
X96892989Y-35173600D01*
X96889000Y-35133097D01*
X96889000Y-33446903D01*
X96892989Y-33406400D01*
X96903015Y-33373348D01*
X96919292Y-33342897D01*
X96941201Y-33316201D01*
X96967897Y-33294292D01*
X96998348Y-33278015D01*
X97031400Y-33267989D01*
X97071903Y-33264000D01*
X98508097Y-33264000D01*
X98548600Y-33267989D01*
G37*
G36*
X59067000Y-35064000D02*
G01*
X57265000Y-35064000D01*
X57265000Y-33262000D01*
X59067000Y-33262000D01*
X59067000Y-35064000D01*
G37*
G36*
X61607000Y-35064000D02*
G01*
X59805000Y-35064000D01*
X59805000Y-33262000D01*
X61607000Y-33262000D01*
X61607000Y-35064000D01*
G37*
G36*
X56527000Y-35064000D02*
G01*
X54725000Y-35064000D01*
X54725000Y-33262000D01*
X56527000Y-33262000D01*
X56527000Y-35064000D01*
G37*
G36*
X87742823Y-33324313D02*
G01*
X87903242Y-33372976D01*
X88035906Y-33443886D01*
X88051078Y-33451996D01*
X88180659Y-33558341D01*
X88287004Y-33687922D01*
X88287005Y-33687924D01*
X88366024Y-33835758D01*
X88414687Y-33996177D01*
X88431117Y-34163000D01*
X88414687Y-34329823D01*
X88366024Y-34490242D01*
X88295114Y-34622906D01*
X88287004Y-34638078D01*
X88180659Y-34767659D01*
X88051078Y-34874004D01*
X88051076Y-34874005D01*
X87903242Y-34953024D01*
X87742823Y-35001687D01*
X87617804Y-35014000D01*
X87134196Y-35014000D01*
X87009177Y-35001687D01*
X86848758Y-34953024D01*
X86700924Y-34874005D01*
X86700922Y-34874004D01*
X86571341Y-34767659D01*
X86464996Y-34638078D01*
X86456886Y-34622906D01*
X86385976Y-34490242D01*
X86337313Y-34329823D01*
X86320883Y-34163000D01*
X86337313Y-33996177D01*
X86385976Y-33835758D01*
X86464995Y-33687924D01*
X86464996Y-33687922D01*
X86571341Y-33558341D01*
X86700922Y-33451996D01*
X86716094Y-33443886D01*
X86848758Y-33372976D01*
X87009177Y-33324313D01*
X87134196Y-33312000D01*
X87617804Y-33312000D01*
X87742823Y-33324313D01*
G37*
G36*
X64882823Y-33324313D02*
G01*
X65043242Y-33372976D01*
X65175906Y-33443886D01*
X65191078Y-33451996D01*
X65320659Y-33558341D01*
X65427004Y-33687922D01*
X65427005Y-33687924D01*
X65506024Y-33835758D01*
X65554687Y-33996177D01*
X65571117Y-34163000D01*
X65554687Y-34329823D01*
X65506024Y-34490242D01*
X65435114Y-34622906D01*
X65427004Y-34638078D01*
X65320659Y-34767659D01*
X65191078Y-34874004D01*
X65191076Y-34874005D01*
X65043242Y-34953024D01*
X64882823Y-35001687D01*
X64757804Y-35014000D01*
X64274196Y-35014000D01*
X64149177Y-35001687D01*
X63988758Y-34953024D01*
X63840924Y-34874005D01*
X63840922Y-34874004D01*
X63711341Y-34767659D01*
X63604996Y-34638078D01*
X63596886Y-34622906D01*
X63525976Y-34490242D01*
X63477313Y-34329823D01*
X63460883Y-34163000D01*
X63477313Y-33996177D01*
X63525976Y-33835758D01*
X63604995Y-33687924D01*
X63604996Y-33687922D01*
X63711341Y-33558341D01*
X63840922Y-33451996D01*
X63856094Y-33443886D01*
X63988758Y-33372976D01*
X64149177Y-33324313D01*
X64274196Y-33312000D01*
X64757804Y-33312000D01*
X64882823Y-33324313D01*
G37*
G36*
X65567000Y-32674000D02*
G01*
X63465000Y-32674000D01*
X63465000Y-30572000D01*
X65567000Y-30572000D01*
X65567000Y-32674000D01*
G37*
G36*
X87742823Y-30784313D02*
G01*
X87903242Y-30832976D01*
X88035906Y-30903886D01*
X88051078Y-30911996D01*
X88180659Y-31018341D01*
X88287004Y-31147922D01*
X88287005Y-31147924D01*
X88366024Y-31295758D01*
X88414687Y-31456177D01*
X88431117Y-31623000D01*
X88414687Y-31789823D01*
X88366024Y-31950242D01*
X88295114Y-32082906D01*
X88287004Y-32098078D01*
X88180659Y-32227659D01*
X88051078Y-32334004D01*
X88051076Y-32334005D01*
X87903242Y-32413024D01*
X87742823Y-32461687D01*
X87617804Y-32474000D01*
X87134196Y-32474000D01*
X87009177Y-32461687D01*
X86848758Y-32413024D01*
X86700924Y-32334005D01*
X86700922Y-32334004D01*
X86571341Y-32227659D01*
X86464996Y-32098078D01*
X86456886Y-32082906D01*
X86385976Y-31950242D01*
X86337313Y-31789823D01*
X86320883Y-31623000D01*
X86337313Y-31456177D01*
X86385976Y-31295758D01*
X86464995Y-31147924D01*
X86464996Y-31147922D01*
X86571341Y-31018341D01*
X86700922Y-30911996D01*
X86716094Y-30903886D01*
X86848758Y-30832976D01*
X87009177Y-30784313D01*
X87134196Y-30772000D01*
X87617804Y-30772000D01*
X87742823Y-30784313D01*
G37*
G36*
X92966627Y-26927037D02*
G01*
X93136466Y-26978557D01*
X93292991Y-27062222D01*
X93328729Y-27091552D01*
X93430186Y-27174814D01*
X93513448Y-27276271D01*
X93542778Y-27312009D01*
X93626443Y-27468534D01*
X93677963Y-27638374D01*
X93691000Y-27770743D01*
X93691000Y-28109258D01*
X93677963Y-28241627D01*
X93626443Y-28411466D01*
X93542778Y-28567991D01*
X93513448Y-28603729D01*
X93430186Y-28705186D01*
X93292989Y-28817779D01*
X93136467Y-28901442D01*
X93136465Y-28901443D01*
X92966626Y-28952963D01*
X92790000Y-28970359D01*
X92613373Y-28952963D01*
X92443534Y-28901443D01*
X92287009Y-28817778D01*
X92244750Y-28783097D01*
X92149814Y-28705186D01*
X92037221Y-28567989D01*
X91953558Y-28411467D01*
X91953557Y-28411465D01*
X91902037Y-28241626D01*
X91889000Y-28109257D01*
X91889000Y-27770742D01*
X91902037Y-27638373D01*
X91953557Y-27468534D01*
X92037222Y-27312009D01*
X92149815Y-27174815D01*
X92287010Y-27062222D01*
X92443535Y-26978557D01*
X92613374Y-26927037D01*
X92790000Y-26909641D01*
X92966627Y-26927037D01*
G37*
G36*
X95466627Y-26927037D02*
G01*
X95636466Y-26978557D01*
X95792991Y-27062222D01*
X95828729Y-27091552D01*
X95930186Y-27174814D01*
X96013448Y-27276271D01*
X96042778Y-27312009D01*
X96126443Y-27468534D01*
X96177963Y-27638374D01*
X96191000Y-27770743D01*
X96191000Y-28109258D01*
X96177963Y-28241627D01*
X96126443Y-28411466D01*
X96042778Y-28567991D01*
X96013448Y-28603729D01*
X95930186Y-28705186D01*
X95792989Y-28817779D01*
X95636467Y-28901442D01*
X95636465Y-28901443D01*
X95466626Y-28952963D01*
X95290000Y-28970359D01*
X95113373Y-28952963D01*
X94943534Y-28901443D01*
X94787009Y-28817778D01*
X94744750Y-28783097D01*
X94649814Y-28705186D01*
X94537221Y-28567989D01*
X94453558Y-28411467D01*
X94453557Y-28411465D01*
X94402037Y-28241626D01*
X94389000Y-28109257D01*
X94389000Y-27770742D01*
X94402037Y-27638373D01*
X94453557Y-27468534D01*
X94537222Y-27312009D01*
X94649815Y-27174815D01*
X94787010Y-27062222D01*
X94943535Y-26978557D01*
X95113374Y-26927037D01*
X95290000Y-26909641D01*
X95466627Y-26927037D01*
G37*
G36*
X98548600Y-26917989D02*
G01*
X98581652Y-26928015D01*
X98612103Y-26944292D01*
X98638799Y-26966201D01*
X98660708Y-26992897D01*
X98676985Y-27023348D01*
X98687011Y-27056400D01*
X98691000Y-27096903D01*
X98691000Y-28783097D01*
X98687011Y-28823600D01*
X98676985Y-28856652D01*
X98660708Y-28887103D01*
X98638799Y-28913799D01*
X98612103Y-28935708D01*
X98581652Y-28951985D01*
X98548600Y-28962011D01*
X98508097Y-28966000D01*
X97071903Y-28966000D01*
X97031400Y-28962011D01*
X96998348Y-28951985D01*
X96967897Y-28935708D01*
X96941201Y-28913799D01*
X96919292Y-28887103D01*
X96903015Y-28856652D01*
X96892989Y-28823600D01*
X96889000Y-28783097D01*
X96889000Y-27096903D01*
X96892989Y-27056400D01*
X96903015Y-27023348D01*
X96919292Y-26992897D01*
X96941201Y-26966201D01*
X96967897Y-26944292D01*
X96998348Y-26928015D01*
X97031400Y-26917989D01*
X97071903Y-26914000D01*
X98508097Y-26914000D01*
X98548600Y-26917989D01*
G37*
G36*
X59572626Y-25505037D02*
G01*
X59742465Y-25556557D01*
X59742467Y-25556558D01*
X59898989Y-25640221D01*
X60036186Y-25752814D01*
X60119448Y-25854271D01*
X60148778Y-25890009D01*
X60232443Y-26046534D01*
X60283963Y-26216373D01*
X60297000Y-26348742D01*
X60297000Y-26737257D01*
X60283963Y-26869626D01*
X60232443Y-27039466D01*
X60148778Y-27195991D01*
X60119448Y-27231729D01*
X60036186Y-27333186D01*
X59941250Y-27411097D01*
X59898991Y-27445778D01*
X59742466Y-27529443D01*
X59572627Y-27580963D01*
X59396000Y-27598359D01*
X59219374Y-27580963D01*
X59049535Y-27529443D01*
X58893010Y-27445778D01*
X58755815Y-27333185D01*
X58643222Y-27195991D01*
X58559557Y-27039466D01*
X58508037Y-26869627D01*
X58495000Y-26737258D01*
X58495000Y-26348743D01*
X58508037Y-26216374D01*
X58559557Y-26046535D01*
X58643222Y-25890010D01*
X58643223Y-25890009D01*
X58755814Y-25752814D01*
X58857271Y-25669552D01*
X58893009Y-25640222D01*
X59049534Y-25556557D01*
X59219373Y-25505037D01*
X59396000Y-25487641D01*
X59572626Y-25505037D01*
G37*
G36*
X57654600Y-25495989D02*
G01*
X57687652Y-25506015D01*
X57718103Y-25522292D01*
X57744799Y-25544201D01*
X57766708Y-25570897D01*
X57782985Y-25601348D01*
X57793011Y-25634400D01*
X57797000Y-25674903D01*
X57797000Y-27411097D01*
X57793011Y-27451600D01*
X57782985Y-27484652D01*
X57766708Y-27515103D01*
X57744799Y-27541799D01*
X57718103Y-27563708D01*
X57687652Y-27579985D01*
X57654600Y-27590011D01*
X57614097Y-27594000D01*
X56177903Y-27594000D01*
X56137400Y-27590011D01*
X56104348Y-27579985D01*
X56073897Y-27563708D01*
X56047201Y-27541799D01*
X56025292Y-27515103D01*
X56009015Y-27484652D01*
X55998989Y-27451600D01*
X55995000Y-27411097D01*
X55995000Y-25674903D01*
X55998989Y-25634400D01*
X56009015Y-25601348D01*
X56025292Y-25570897D01*
X56047201Y-25544201D01*
X56073897Y-25522292D01*
X56104348Y-25506015D01*
X56137400Y-25495989D01*
X56177903Y-25492000D01*
X57614097Y-25492000D01*
X57654600Y-25495989D01*
G37*
M02*
