M48
; DRILL file {KiCad 5.1.5+dfsg1-2build2} date vr 08 mei 2020 13:19:47 CEST
; FORMAT={2:4/ absolute / inch / suppress leading zeros}
; #@! TF.CreationDate,2020-05-08T13:19:47+02:00
; #@! TF.GenerationSoftware,Kicad,Pcbnew,5.1.5+dfsg1-2build2
; #@! TF.FileFunction,Plated,1,2,PTH
FMAT,2
INCH,TZ
T1C0.0157
T2C0.0300
T3C0.0315
T4C0.0374
T5C0.0394
T6C0.0472
T7C0.0551
%
G90
G05
T1
X37500Y-23500
T2
X35858Y-33500
X38150Y-33500
T3
X31700Y-16450
X31700Y-19450
X32900Y-16450
X32900Y-19450
T4
X36531Y-11000
X37516Y-11000
X38500Y-11000
X36531Y-13500
X37516Y-13500
X38500Y-13500
X36531Y-16000
X37516Y-16000
X38500Y-16000
X36531Y-18500
X37516Y-18500
X38500Y-18500
T5
X23900Y-13450
X23900Y-14450
X23900Y-15450
X23900Y-16450
X23900Y-17450
X23900Y-18450
X23900Y-19450
X25400Y-12450
X25400Y-13450
X25400Y-14450
X25400Y-15450
X25400Y-16450
X25400Y-17450
X25400Y-18450
X25400Y-19450
X34400Y-12450
X34400Y-13450
X34400Y-14450
X34400Y-15450
X34400Y-16450
X34400Y-17450
X34400Y-18450
X34400Y-19450
X21900Y-21000
X22900Y-21000
X23900Y-21000
X22425Y-26984
X22425Y-33047
X34000Y-29031
X34000Y-31000
X22900Y-13450
X22900Y-14450
X22900Y-15450
X22900Y-16450
X22900Y-17450
X22900Y-18450
X22900Y-19450
X22100Y-23850
X24069Y-23850
X37008Y-24908
X38400Y-26300
X22400Y-10450
X23384Y-10450
X21900Y-13450
X21900Y-14450
X21900Y-15450
X21900Y-16450
X21900Y-17450
X21900Y-18450
X21900Y-19450
T6
X25000Y-35000
X31000Y-35000
T7
X38000Y-29031
X38000Y-31000
T0
M30
