G04 #@! TF.GenerationSoftware,KiCad,Pcbnew,5.1.5+dfsg1-2build2*
G04 #@! TF.CreationDate,2020-06-26T22:11:02+02:00*
G04 #@! TF.ProjectId,robo-car-front-shield,726f626f-2d63-4617-922d-66726f6e742d,rev?*
G04 #@! TF.SameCoordinates,Original*
G04 #@! TF.FileFunction,Copper,L2,Bot*
G04 #@! TF.FilePolarity,Positive*
%FSLAX46Y46*%
G04 Gerber Fmt 4.6, Leading zero omitted, Abs format (unit mm)*
G04 Created by KiCad (PCBNEW 5.1.5+dfsg1-2build2) date 2020-06-26 22:11:02*
%MOMM*%
%LPD*%
G04 APERTURE LIST*
%ADD10O,1.700000X1.700000*%
%ADD11R,1.700000X1.700000*%
%ADD12C,2.000000*%
%ADD13C,2.900000*%
%ADD14C,1.600000*%
%ADD15O,1.600000X1.600000*%
%ADD16C,1.500000*%
%ADD17C,0.500000*%
%ADD18C,0.254000*%
G04 APERTURE END LIST*
D10*
X35513000Y-14680000D03*
X38053000Y-14680000D03*
X40593000Y-14680000D03*
X43133000Y-14680000D03*
X45673000Y-14680000D03*
X48213000Y-14680000D03*
D11*
X50753000Y-14680000D03*
D12*
X68279000Y-21443000D03*
X70819000Y-21443000D03*
X73359000Y-21443000D03*
D13*
X70819000Y-6679000D03*
D12*
X40556000Y-21443000D03*
X43096000Y-21443000D03*
X45636000Y-21443000D03*
D13*
X43096000Y-6679000D03*
X13288000Y-6679000D03*
D12*
X15828000Y-21443000D03*
X13288000Y-21443000D03*
X10748000Y-21443000D03*
D11*
X39450000Y-10489000D03*
D10*
X41990000Y-10489000D03*
X44530000Y-10489000D03*
X47070000Y-10489000D03*
D14*
X66882000Y-16966000D03*
D15*
X74502000Y-16966000D03*
X39069000Y-18363000D03*
D14*
X46689000Y-18363000D03*
X16971000Y-17347000D03*
D15*
X9351000Y-17347000D03*
D16*
X35513000Y-13477919D02*
X35513000Y-14680000D01*
X36110920Y-12879999D02*
X35513000Y-13477919D01*
X45881082Y-12879999D02*
X36110920Y-12879999D01*
X47070000Y-11691081D02*
X45881082Y-12879999D01*
X47070000Y-11691081D02*
X47070000Y-10489000D01*
D17*
X41832999Y-15980001D02*
X18337999Y-15980001D01*
X17770999Y-16547001D02*
X16971000Y-17347000D01*
X18337999Y-15980001D02*
X17770999Y-16547001D01*
X43133000Y-14680000D02*
X41832999Y-15980001D01*
D18*
G36*
X82182001Y-6009258D02*
G01*
X82182000Y-23508721D01*
X82153375Y-23800660D01*
X82077965Y-24050429D01*
X81955477Y-24280794D01*
X81790579Y-24482979D01*
X81589546Y-24649288D01*
X81360046Y-24773378D01*
X81110805Y-24850531D01*
X80820911Y-24881000D01*
X2874279Y-24881000D01*
X2582340Y-24852375D01*
X2332571Y-24776965D01*
X2102206Y-24654477D01*
X1900021Y-24489579D01*
X1733712Y-24288546D01*
X1609622Y-24059046D01*
X1532469Y-23809805D01*
X1502000Y-23519911D01*
X1502000Y-21281967D01*
X9113000Y-21281967D01*
X9113000Y-21604033D01*
X9175832Y-21919912D01*
X9299082Y-22217463D01*
X9478013Y-22485252D01*
X9705748Y-22712987D01*
X9973537Y-22891918D01*
X10271088Y-23015168D01*
X10586967Y-23078000D01*
X10909033Y-23078000D01*
X11224912Y-23015168D01*
X11522463Y-22891918D01*
X11790252Y-22712987D01*
X12017987Y-22485252D01*
X12018000Y-22485233D01*
X12018013Y-22485252D01*
X12245748Y-22712987D01*
X12513537Y-22891918D01*
X12811088Y-23015168D01*
X13126967Y-23078000D01*
X13449033Y-23078000D01*
X13764912Y-23015168D01*
X14062463Y-22891918D01*
X14330252Y-22712987D01*
X14557987Y-22485252D01*
X14736918Y-22217463D01*
X14860168Y-21919912D01*
X14923000Y-21604033D01*
X14923000Y-21281967D01*
X38921000Y-21281967D01*
X38921000Y-21604033D01*
X38983832Y-21919912D01*
X39107082Y-22217463D01*
X39286013Y-22485252D01*
X39513748Y-22712987D01*
X39781537Y-22891918D01*
X40079088Y-23015168D01*
X40394967Y-23078000D01*
X40717033Y-23078000D01*
X41032912Y-23015168D01*
X41330463Y-22891918D01*
X41598252Y-22712987D01*
X41825987Y-22485252D01*
X41826000Y-22485233D01*
X41826013Y-22485252D01*
X42053748Y-22712987D01*
X42321537Y-22891918D01*
X42619088Y-23015168D01*
X42934967Y-23078000D01*
X43257033Y-23078000D01*
X43572912Y-23015168D01*
X43870463Y-22891918D01*
X44138252Y-22712987D01*
X44365987Y-22485252D01*
X44544918Y-22217463D01*
X44668168Y-21919912D01*
X44731000Y-21604033D01*
X44731000Y-21281967D01*
X66644000Y-21281967D01*
X66644000Y-21604033D01*
X66706832Y-21919912D01*
X66830082Y-22217463D01*
X67009013Y-22485252D01*
X67236748Y-22712987D01*
X67504537Y-22891918D01*
X67802088Y-23015168D01*
X68117967Y-23078000D01*
X68440033Y-23078000D01*
X68755912Y-23015168D01*
X69053463Y-22891918D01*
X69321252Y-22712987D01*
X69548987Y-22485252D01*
X69549000Y-22485233D01*
X69549013Y-22485252D01*
X69776748Y-22712987D01*
X70044537Y-22891918D01*
X70342088Y-23015168D01*
X70657967Y-23078000D01*
X70980033Y-23078000D01*
X71295912Y-23015168D01*
X71593463Y-22891918D01*
X71861252Y-22712987D01*
X72088987Y-22485252D01*
X72267918Y-22217463D01*
X72391168Y-21919912D01*
X72454000Y-21604033D01*
X72454000Y-21281967D01*
X72391168Y-20966088D01*
X72267918Y-20668537D01*
X72088987Y-20400748D01*
X71861252Y-20173013D01*
X71593463Y-19994082D01*
X71295912Y-19870832D01*
X70980033Y-19808000D01*
X70657967Y-19808000D01*
X70342088Y-19870832D01*
X70044537Y-19994082D01*
X69776748Y-20173013D01*
X69549013Y-20400748D01*
X69549000Y-20400767D01*
X69548987Y-20400748D01*
X69321252Y-20173013D01*
X69053463Y-19994082D01*
X68755912Y-19870832D01*
X68440033Y-19808000D01*
X68117967Y-19808000D01*
X67802088Y-19870832D01*
X67504537Y-19994082D01*
X67236748Y-20173013D01*
X67009013Y-20400748D01*
X66830082Y-20668537D01*
X66706832Y-20966088D01*
X66644000Y-21281967D01*
X44731000Y-21281967D01*
X44668168Y-20966088D01*
X44544918Y-20668537D01*
X44365987Y-20400748D01*
X44138252Y-20173013D01*
X43870463Y-19994082D01*
X43572912Y-19870832D01*
X43257033Y-19808000D01*
X42934967Y-19808000D01*
X42619088Y-19870832D01*
X42321537Y-19994082D01*
X42053748Y-20173013D01*
X41826013Y-20400748D01*
X41826000Y-20400767D01*
X41825987Y-20400748D01*
X41598252Y-20173013D01*
X41330463Y-19994082D01*
X41032912Y-19870832D01*
X40717033Y-19808000D01*
X40394967Y-19808000D01*
X40079088Y-19870832D01*
X39781537Y-19994082D01*
X39513748Y-20173013D01*
X39286013Y-20400748D01*
X39107082Y-20668537D01*
X38983832Y-20966088D01*
X38921000Y-21281967D01*
X14923000Y-21281967D01*
X14860168Y-20966088D01*
X14736918Y-20668537D01*
X14557987Y-20400748D01*
X14330252Y-20173013D01*
X14062463Y-19994082D01*
X13764912Y-19870832D01*
X13449033Y-19808000D01*
X13126967Y-19808000D01*
X12811088Y-19870832D01*
X12513537Y-19994082D01*
X12245748Y-20173013D01*
X12018013Y-20400748D01*
X12018000Y-20400767D01*
X12017987Y-20400748D01*
X11790252Y-20173013D01*
X11522463Y-19994082D01*
X11224912Y-19870832D01*
X10909033Y-19808000D01*
X10586967Y-19808000D01*
X10271088Y-19870832D01*
X9973537Y-19994082D01*
X9705748Y-20173013D01*
X9478013Y-20400748D01*
X9299082Y-20668537D01*
X9175832Y-20966088D01*
X9113000Y-21281967D01*
X1502000Y-21281967D01*
X1502000Y-17205665D01*
X7916000Y-17205665D01*
X7916000Y-17488335D01*
X7971147Y-17765574D01*
X8079320Y-18026727D01*
X8236363Y-18261759D01*
X8436241Y-18461637D01*
X8671273Y-18618680D01*
X8932426Y-18726853D01*
X9209665Y-18782000D01*
X9492335Y-18782000D01*
X9769574Y-18726853D01*
X10030727Y-18618680D01*
X10265759Y-18461637D01*
X10465637Y-18261759D01*
X10622680Y-18026727D01*
X10730853Y-17765574D01*
X10786000Y-17488335D01*
X10786000Y-17205665D01*
X15536000Y-17205665D01*
X15536000Y-17488335D01*
X15591147Y-17765574D01*
X15699320Y-18026727D01*
X15856363Y-18261759D01*
X16056241Y-18461637D01*
X16291273Y-18618680D01*
X16552426Y-18726853D01*
X16829665Y-18782000D01*
X17112335Y-18782000D01*
X17389574Y-18726853D01*
X17650727Y-18618680D01*
X17885759Y-18461637D01*
X18085637Y-18261759D01*
X18112426Y-18221665D01*
X37634000Y-18221665D01*
X37634000Y-18504335D01*
X37689147Y-18781574D01*
X37797320Y-19042727D01*
X37954363Y-19277759D01*
X38154241Y-19477637D01*
X38389273Y-19634680D01*
X38650426Y-19742853D01*
X38927665Y-19798000D01*
X39210335Y-19798000D01*
X39487574Y-19742853D01*
X39748727Y-19634680D01*
X39983759Y-19477637D01*
X40183637Y-19277759D01*
X40340680Y-19042727D01*
X40448853Y-18781574D01*
X40504000Y-18504335D01*
X40504000Y-18221665D01*
X45254000Y-18221665D01*
X45254000Y-18504335D01*
X45309147Y-18781574D01*
X45417320Y-19042727D01*
X45574363Y-19277759D01*
X45774241Y-19477637D01*
X46009273Y-19634680D01*
X46270426Y-19742853D01*
X46547665Y-19798000D01*
X46830335Y-19798000D01*
X47107574Y-19742853D01*
X47368727Y-19634680D01*
X47603759Y-19477637D01*
X47803637Y-19277759D01*
X47960680Y-19042727D01*
X48068853Y-18781574D01*
X48124000Y-18504335D01*
X48124000Y-18221665D01*
X48068853Y-17944426D01*
X47960680Y-17683273D01*
X47803637Y-17448241D01*
X47603759Y-17248363D01*
X47368727Y-17091320D01*
X47107574Y-16983147D01*
X46830335Y-16928000D01*
X46547665Y-16928000D01*
X46270426Y-16983147D01*
X46009273Y-17091320D01*
X45774241Y-17248363D01*
X45574363Y-17448241D01*
X45417320Y-17683273D01*
X45309147Y-17944426D01*
X45254000Y-18221665D01*
X40504000Y-18221665D01*
X40448853Y-17944426D01*
X40340680Y-17683273D01*
X40183637Y-17448241D01*
X39983759Y-17248363D01*
X39748727Y-17091320D01*
X39487574Y-16983147D01*
X39210335Y-16928000D01*
X38927665Y-16928000D01*
X38650426Y-16983147D01*
X38389273Y-17091320D01*
X38154241Y-17248363D01*
X37954363Y-17448241D01*
X37797320Y-17683273D01*
X37689147Y-17944426D01*
X37634000Y-18221665D01*
X18112426Y-18221665D01*
X18242680Y-18026727D01*
X18350853Y-17765574D01*
X18406000Y-17488335D01*
X18406000Y-17205665D01*
X18399017Y-17170562D01*
X18427531Y-17142048D01*
X18427536Y-17142042D01*
X18704577Y-16865001D01*
X41789530Y-16865001D01*
X41832999Y-16869282D01*
X41876468Y-16865001D01*
X41876476Y-16865001D01*
X42006489Y-16852196D01*
X42097245Y-16824665D01*
X65447000Y-16824665D01*
X65447000Y-17107335D01*
X65502147Y-17384574D01*
X65610320Y-17645727D01*
X65767363Y-17880759D01*
X65967241Y-18080637D01*
X66202273Y-18237680D01*
X66463426Y-18345853D01*
X66740665Y-18401000D01*
X67023335Y-18401000D01*
X67300574Y-18345853D01*
X67561727Y-18237680D01*
X67796759Y-18080637D01*
X67996637Y-17880759D01*
X68153680Y-17645727D01*
X68261853Y-17384574D01*
X68317000Y-17107335D01*
X68317000Y-16824665D01*
X73067000Y-16824665D01*
X73067000Y-17107335D01*
X73122147Y-17384574D01*
X73230320Y-17645727D01*
X73387363Y-17880759D01*
X73587241Y-18080637D01*
X73822273Y-18237680D01*
X74083426Y-18345853D01*
X74360665Y-18401000D01*
X74643335Y-18401000D01*
X74920574Y-18345853D01*
X75181727Y-18237680D01*
X75416759Y-18080637D01*
X75616637Y-17880759D01*
X75773680Y-17645727D01*
X75881853Y-17384574D01*
X75937000Y-17107335D01*
X75937000Y-16824665D01*
X75881853Y-16547426D01*
X75773680Y-16286273D01*
X75616637Y-16051241D01*
X75416759Y-15851363D01*
X75181727Y-15694320D01*
X74920574Y-15586147D01*
X74643335Y-15531000D01*
X74360665Y-15531000D01*
X74083426Y-15586147D01*
X73822273Y-15694320D01*
X73587241Y-15851363D01*
X73387363Y-16051241D01*
X73230320Y-16286273D01*
X73122147Y-16547426D01*
X73067000Y-16824665D01*
X68317000Y-16824665D01*
X68261853Y-16547426D01*
X68153680Y-16286273D01*
X67996637Y-16051241D01*
X67796759Y-15851363D01*
X67561727Y-15694320D01*
X67300574Y-15586147D01*
X67023335Y-15531000D01*
X66740665Y-15531000D01*
X66463426Y-15586147D01*
X66202273Y-15694320D01*
X65967241Y-15851363D01*
X65767363Y-16051241D01*
X65610320Y-16286273D01*
X65502147Y-16547426D01*
X65447000Y-16824665D01*
X42097245Y-16824665D01*
X42173312Y-16801590D01*
X42327058Y-16719412D01*
X42461816Y-16608818D01*
X42489533Y-16575045D01*
X42914039Y-16150539D01*
X42986740Y-16165000D01*
X43279260Y-16165000D01*
X43566158Y-16107932D01*
X43836411Y-15995990D01*
X44079632Y-15833475D01*
X44286475Y-15626632D01*
X44403000Y-15452240D01*
X44519525Y-15626632D01*
X44726368Y-15833475D01*
X44969589Y-15995990D01*
X45239842Y-16107932D01*
X45526740Y-16165000D01*
X45819260Y-16165000D01*
X46106158Y-16107932D01*
X46376411Y-15995990D01*
X46619632Y-15833475D01*
X46826475Y-15626632D01*
X46943000Y-15452240D01*
X47059525Y-15626632D01*
X47266368Y-15833475D01*
X47509589Y-15995990D01*
X47779842Y-16107932D01*
X48066740Y-16165000D01*
X48359260Y-16165000D01*
X48646158Y-16107932D01*
X48916411Y-15995990D01*
X49159632Y-15833475D01*
X49366475Y-15626632D01*
X49528990Y-15383411D01*
X49640932Y-15113158D01*
X49698000Y-14826260D01*
X49698000Y-14533740D01*
X49640932Y-14246842D01*
X49528990Y-13976589D01*
X49366475Y-13733368D01*
X49159632Y-13526525D01*
X48916411Y-13364010D01*
X48646158Y-13252068D01*
X48359260Y-13195000D01*
X48066740Y-13195000D01*
X47779842Y-13252068D01*
X47509589Y-13364010D01*
X47266368Y-13526525D01*
X47059525Y-13733368D01*
X46943000Y-13907760D01*
X46891980Y-13831403D01*
X46908536Y-13811230D01*
X48001241Y-12718526D01*
X48054080Y-12675162D01*
X48097445Y-12622322D01*
X48097452Y-12622315D01*
X48227156Y-12464270D01*
X48227158Y-12464268D01*
X48355764Y-12223662D01*
X48365322Y-12192155D01*
X48434960Y-11962589D01*
X48445798Y-11852547D01*
X48455000Y-11759118D01*
X48455000Y-11759110D01*
X48461700Y-11691081D01*
X48455000Y-11623052D01*
X48455000Y-11025805D01*
X48497932Y-10922158D01*
X48555000Y-10635260D01*
X48555000Y-10342740D01*
X48551934Y-10327323D01*
X75172497Y-10327323D01*
X75172497Y-10754677D01*
X75255870Y-11173821D01*
X75419412Y-11568645D01*
X75656837Y-11923977D01*
X75959023Y-12226163D01*
X76314355Y-12463588D01*
X76709179Y-12627130D01*
X77128323Y-12710503D01*
X77555677Y-12710503D01*
X77974821Y-12627130D01*
X78369645Y-12463588D01*
X78724977Y-12226163D01*
X79027163Y-11923977D01*
X79264588Y-11568645D01*
X79428130Y-11173821D01*
X79511503Y-10754677D01*
X79511503Y-10327323D01*
X79428130Y-9908179D01*
X79264588Y-9513355D01*
X79027163Y-9158023D01*
X78724977Y-8855837D01*
X78369645Y-8618412D01*
X77974821Y-8454870D01*
X77555677Y-8371497D01*
X77128323Y-8371497D01*
X76709179Y-8454870D01*
X76314355Y-8618412D01*
X75959023Y-8855837D01*
X75656837Y-9158023D01*
X75419412Y-9513355D01*
X75255870Y-9908179D01*
X75172497Y-10327323D01*
X48551934Y-10327323D01*
X48497932Y-10055842D01*
X48385990Y-9785589D01*
X48223475Y-9542368D01*
X48016632Y-9335525D01*
X47773411Y-9173010D01*
X47503158Y-9061068D01*
X47216260Y-9004000D01*
X46923740Y-9004000D01*
X46636842Y-9061068D01*
X46366589Y-9173010D01*
X46123368Y-9335525D01*
X45916525Y-9542368D01*
X45800000Y-9716760D01*
X45683475Y-9542368D01*
X45476632Y-9335525D01*
X45233411Y-9173010D01*
X44963158Y-9061068D01*
X44676260Y-9004000D01*
X44383740Y-9004000D01*
X44096842Y-9061068D01*
X43826589Y-9173010D01*
X43583368Y-9335525D01*
X43376525Y-9542368D01*
X43260000Y-9716760D01*
X43143475Y-9542368D01*
X42936632Y-9335525D01*
X42693411Y-9173010D01*
X42423158Y-9061068D01*
X42136260Y-9004000D01*
X41843740Y-9004000D01*
X41556842Y-9061068D01*
X41286589Y-9173010D01*
X41043368Y-9335525D01*
X40836525Y-9542368D01*
X40674010Y-9785589D01*
X40562068Y-10055842D01*
X40505000Y-10342740D01*
X40505000Y-10635260D01*
X40562068Y-10922158D01*
X40674010Y-11192411D01*
X40836525Y-11435632D01*
X40895892Y-11494999D01*
X36178949Y-11494999D01*
X36110920Y-11488299D01*
X36042891Y-11494999D01*
X36042883Y-11494999D01*
X35839413Y-11515039D01*
X35578339Y-11594235D01*
X35337732Y-11722842D01*
X35126839Y-11895918D01*
X35083468Y-11948766D01*
X34581765Y-12450469D01*
X34528919Y-12493839D01*
X34485550Y-12546684D01*
X34485548Y-12546686D01*
X34393359Y-12659019D01*
X34355843Y-12704732D01*
X34227236Y-12945339D01*
X34148040Y-13206413D01*
X34128000Y-13409883D01*
X34128000Y-13409890D01*
X34121300Y-13477919D01*
X34128000Y-13545948D01*
X34128000Y-14143195D01*
X34085068Y-14246842D01*
X34028000Y-14533740D01*
X34028000Y-14826260D01*
X34081456Y-15095001D01*
X18381464Y-15095001D01*
X18337998Y-15090720D01*
X18294532Y-15095001D01*
X18294522Y-15095001D01*
X18164509Y-15107806D01*
X17997686Y-15158412D01*
X17843940Y-15240590D01*
X17709182Y-15351184D01*
X17681467Y-15384955D01*
X17175958Y-15890464D01*
X17175952Y-15890469D01*
X17147438Y-15918983D01*
X17112335Y-15912000D01*
X16829665Y-15912000D01*
X16552426Y-15967147D01*
X16291273Y-16075320D01*
X16056241Y-16232363D01*
X15856363Y-16432241D01*
X15699320Y-16667273D01*
X15591147Y-16928426D01*
X15536000Y-17205665D01*
X10786000Y-17205665D01*
X10730853Y-16928426D01*
X10622680Y-16667273D01*
X10465637Y-16432241D01*
X10265759Y-16232363D01*
X10030727Y-16075320D01*
X9769574Y-15967147D01*
X9492335Y-15912000D01*
X9209665Y-15912000D01*
X8932426Y-15967147D01*
X8671273Y-16075320D01*
X8436241Y-16232363D01*
X8236363Y-16432241D01*
X8079320Y-16667273D01*
X7971147Y-16928426D01*
X7916000Y-17205665D01*
X1502000Y-17205665D01*
X1502000Y-10327323D01*
X4172497Y-10327323D01*
X4172497Y-10754677D01*
X4255870Y-11173821D01*
X4419412Y-11568645D01*
X4656837Y-11923977D01*
X4959023Y-12226163D01*
X5314355Y-12463588D01*
X5709179Y-12627130D01*
X6128323Y-12710503D01*
X6555677Y-12710503D01*
X6974821Y-12627130D01*
X7369645Y-12463588D01*
X7724977Y-12226163D01*
X8027163Y-11923977D01*
X8264588Y-11568645D01*
X8428130Y-11173821D01*
X8511503Y-10754677D01*
X8511503Y-10327323D01*
X8428130Y-9908179D01*
X8264588Y-9513355D01*
X8027163Y-9158023D01*
X7724977Y-8855837D01*
X7369645Y-8618412D01*
X6974821Y-8454870D01*
X6555677Y-8371497D01*
X6128323Y-8371497D01*
X5709179Y-8454870D01*
X5314355Y-8618412D01*
X4959023Y-8855837D01*
X4656837Y-9158023D01*
X4419412Y-9513355D01*
X4255870Y-9908179D01*
X4172497Y-10327323D01*
X1502000Y-10327323D01*
X1502000Y-6473645D01*
X11203000Y-6473645D01*
X11203000Y-6884355D01*
X11283126Y-7287172D01*
X11440297Y-7666618D01*
X11668475Y-8008110D01*
X11958890Y-8298525D01*
X12300382Y-8526703D01*
X12679828Y-8683874D01*
X13082645Y-8764000D01*
X13493355Y-8764000D01*
X13896172Y-8683874D01*
X14275618Y-8526703D01*
X14617110Y-8298525D01*
X14907525Y-8008110D01*
X15135703Y-7666618D01*
X15292874Y-7287172D01*
X15373000Y-6884355D01*
X15373000Y-6473645D01*
X41011000Y-6473645D01*
X41011000Y-6884355D01*
X41091126Y-7287172D01*
X41248297Y-7666618D01*
X41476475Y-8008110D01*
X41766890Y-8298525D01*
X42108382Y-8526703D01*
X42487828Y-8683874D01*
X42890645Y-8764000D01*
X43301355Y-8764000D01*
X43704172Y-8683874D01*
X44083618Y-8526703D01*
X44425110Y-8298525D01*
X44715525Y-8008110D01*
X44943703Y-7666618D01*
X45100874Y-7287172D01*
X45181000Y-6884355D01*
X45181000Y-6473645D01*
X68734000Y-6473645D01*
X68734000Y-6884355D01*
X68814126Y-7287172D01*
X68971297Y-7666618D01*
X69199475Y-8008110D01*
X69489890Y-8298525D01*
X69831382Y-8526703D01*
X70210828Y-8683874D01*
X70613645Y-8764000D01*
X71024355Y-8764000D01*
X71427172Y-8683874D01*
X71806618Y-8526703D01*
X72148110Y-8298525D01*
X72438525Y-8008110D01*
X72666703Y-7666618D01*
X72823874Y-7287172D01*
X72904000Y-6884355D01*
X72904000Y-6473645D01*
X72823874Y-6070828D01*
X72666703Y-5691382D01*
X72438525Y-5349890D01*
X72148110Y-5059475D01*
X71806618Y-4831297D01*
X71427172Y-4674126D01*
X71024355Y-4594000D01*
X70613645Y-4594000D01*
X70210828Y-4674126D01*
X69831382Y-4831297D01*
X69489890Y-5059475D01*
X69199475Y-5349890D01*
X68971297Y-5691382D01*
X68814126Y-6070828D01*
X68734000Y-6473645D01*
X45181000Y-6473645D01*
X45100874Y-6070828D01*
X44943703Y-5691382D01*
X44715525Y-5349890D01*
X44425110Y-5059475D01*
X44083618Y-4831297D01*
X43704172Y-4674126D01*
X43301355Y-4594000D01*
X42890645Y-4594000D01*
X42487828Y-4674126D01*
X42108382Y-4831297D01*
X41766890Y-5059475D01*
X41476475Y-5349890D01*
X41248297Y-5691382D01*
X41091126Y-6070828D01*
X41011000Y-6473645D01*
X15373000Y-6473645D01*
X15292874Y-6070828D01*
X15135703Y-5691382D01*
X14907525Y-5349890D01*
X14617110Y-5059475D01*
X14275618Y-4831297D01*
X13896172Y-4674126D01*
X13493355Y-4594000D01*
X13082645Y-4594000D01*
X12679828Y-4674126D01*
X12300382Y-4831297D01*
X11958890Y-5059475D01*
X11668475Y-5349890D01*
X11440297Y-5691382D01*
X11283126Y-6070828D01*
X11203000Y-6473645D01*
X1502000Y-6473645D01*
X1502000Y-6009257D01*
X20954164Y799000D01*
X62729839Y799000D01*
X82182001Y-6009258D01*
G37*
X82182001Y-6009258D02*
X82182000Y-23508721D01*
X82153375Y-23800660D01*
X82077965Y-24050429D01*
X81955477Y-24280794D01*
X81790579Y-24482979D01*
X81589546Y-24649288D01*
X81360046Y-24773378D01*
X81110805Y-24850531D01*
X80820911Y-24881000D01*
X2874279Y-24881000D01*
X2582340Y-24852375D01*
X2332571Y-24776965D01*
X2102206Y-24654477D01*
X1900021Y-24489579D01*
X1733712Y-24288546D01*
X1609622Y-24059046D01*
X1532469Y-23809805D01*
X1502000Y-23519911D01*
X1502000Y-21281967D01*
X9113000Y-21281967D01*
X9113000Y-21604033D01*
X9175832Y-21919912D01*
X9299082Y-22217463D01*
X9478013Y-22485252D01*
X9705748Y-22712987D01*
X9973537Y-22891918D01*
X10271088Y-23015168D01*
X10586967Y-23078000D01*
X10909033Y-23078000D01*
X11224912Y-23015168D01*
X11522463Y-22891918D01*
X11790252Y-22712987D01*
X12017987Y-22485252D01*
X12018000Y-22485233D01*
X12018013Y-22485252D01*
X12245748Y-22712987D01*
X12513537Y-22891918D01*
X12811088Y-23015168D01*
X13126967Y-23078000D01*
X13449033Y-23078000D01*
X13764912Y-23015168D01*
X14062463Y-22891918D01*
X14330252Y-22712987D01*
X14557987Y-22485252D01*
X14736918Y-22217463D01*
X14860168Y-21919912D01*
X14923000Y-21604033D01*
X14923000Y-21281967D01*
X38921000Y-21281967D01*
X38921000Y-21604033D01*
X38983832Y-21919912D01*
X39107082Y-22217463D01*
X39286013Y-22485252D01*
X39513748Y-22712987D01*
X39781537Y-22891918D01*
X40079088Y-23015168D01*
X40394967Y-23078000D01*
X40717033Y-23078000D01*
X41032912Y-23015168D01*
X41330463Y-22891918D01*
X41598252Y-22712987D01*
X41825987Y-22485252D01*
X41826000Y-22485233D01*
X41826013Y-22485252D01*
X42053748Y-22712987D01*
X42321537Y-22891918D01*
X42619088Y-23015168D01*
X42934967Y-23078000D01*
X43257033Y-23078000D01*
X43572912Y-23015168D01*
X43870463Y-22891918D01*
X44138252Y-22712987D01*
X44365987Y-22485252D01*
X44544918Y-22217463D01*
X44668168Y-21919912D01*
X44731000Y-21604033D01*
X44731000Y-21281967D01*
X66644000Y-21281967D01*
X66644000Y-21604033D01*
X66706832Y-21919912D01*
X66830082Y-22217463D01*
X67009013Y-22485252D01*
X67236748Y-22712987D01*
X67504537Y-22891918D01*
X67802088Y-23015168D01*
X68117967Y-23078000D01*
X68440033Y-23078000D01*
X68755912Y-23015168D01*
X69053463Y-22891918D01*
X69321252Y-22712987D01*
X69548987Y-22485252D01*
X69549000Y-22485233D01*
X69549013Y-22485252D01*
X69776748Y-22712987D01*
X70044537Y-22891918D01*
X70342088Y-23015168D01*
X70657967Y-23078000D01*
X70980033Y-23078000D01*
X71295912Y-23015168D01*
X71593463Y-22891918D01*
X71861252Y-22712987D01*
X72088987Y-22485252D01*
X72267918Y-22217463D01*
X72391168Y-21919912D01*
X72454000Y-21604033D01*
X72454000Y-21281967D01*
X72391168Y-20966088D01*
X72267918Y-20668537D01*
X72088987Y-20400748D01*
X71861252Y-20173013D01*
X71593463Y-19994082D01*
X71295912Y-19870832D01*
X70980033Y-19808000D01*
X70657967Y-19808000D01*
X70342088Y-19870832D01*
X70044537Y-19994082D01*
X69776748Y-20173013D01*
X69549013Y-20400748D01*
X69549000Y-20400767D01*
X69548987Y-20400748D01*
X69321252Y-20173013D01*
X69053463Y-19994082D01*
X68755912Y-19870832D01*
X68440033Y-19808000D01*
X68117967Y-19808000D01*
X67802088Y-19870832D01*
X67504537Y-19994082D01*
X67236748Y-20173013D01*
X67009013Y-20400748D01*
X66830082Y-20668537D01*
X66706832Y-20966088D01*
X66644000Y-21281967D01*
X44731000Y-21281967D01*
X44668168Y-20966088D01*
X44544918Y-20668537D01*
X44365987Y-20400748D01*
X44138252Y-20173013D01*
X43870463Y-19994082D01*
X43572912Y-19870832D01*
X43257033Y-19808000D01*
X42934967Y-19808000D01*
X42619088Y-19870832D01*
X42321537Y-19994082D01*
X42053748Y-20173013D01*
X41826013Y-20400748D01*
X41826000Y-20400767D01*
X41825987Y-20400748D01*
X41598252Y-20173013D01*
X41330463Y-19994082D01*
X41032912Y-19870832D01*
X40717033Y-19808000D01*
X40394967Y-19808000D01*
X40079088Y-19870832D01*
X39781537Y-19994082D01*
X39513748Y-20173013D01*
X39286013Y-20400748D01*
X39107082Y-20668537D01*
X38983832Y-20966088D01*
X38921000Y-21281967D01*
X14923000Y-21281967D01*
X14860168Y-20966088D01*
X14736918Y-20668537D01*
X14557987Y-20400748D01*
X14330252Y-20173013D01*
X14062463Y-19994082D01*
X13764912Y-19870832D01*
X13449033Y-19808000D01*
X13126967Y-19808000D01*
X12811088Y-19870832D01*
X12513537Y-19994082D01*
X12245748Y-20173013D01*
X12018013Y-20400748D01*
X12018000Y-20400767D01*
X12017987Y-20400748D01*
X11790252Y-20173013D01*
X11522463Y-19994082D01*
X11224912Y-19870832D01*
X10909033Y-19808000D01*
X10586967Y-19808000D01*
X10271088Y-19870832D01*
X9973537Y-19994082D01*
X9705748Y-20173013D01*
X9478013Y-20400748D01*
X9299082Y-20668537D01*
X9175832Y-20966088D01*
X9113000Y-21281967D01*
X1502000Y-21281967D01*
X1502000Y-17205665D01*
X7916000Y-17205665D01*
X7916000Y-17488335D01*
X7971147Y-17765574D01*
X8079320Y-18026727D01*
X8236363Y-18261759D01*
X8436241Y-18461637D01*
X8671273Y-18618680D01*
X8932426Y-18726853D01*
X9209665Y-18782000D01*
X9492335Y-18782000D01*
X9769574Y-18726853D01*
X10030727Y-18618680D01*
X10265759Y-18461637D01*
X10465637Y-18261759D01*
X10622680Y-18026727D01*
X10730853Y-17765574D01*
X10786000Y-17488335D01*
X10786000Y-17205665D01*
X15536000Y-17205665D01*
X15536000Y-17488335D01*
X15591147Y-17765574D01*
X15699320Y-18026727D01*
X15856363Y-18261759D01*
X16056241Y-18461637D01*
X16291273Y-18618680D01*
X16552426Y-18726853D01*
X16829665Y-18782000D01*
X17112335Y-18782000D01*
X17389574Y-18726853D01*
X17650727Y-18618680D01*
X17885759Y-18461637D01*
X18085637Y-18261759D01*
X18112426Y-18221665D01*
X37634000Y-18221665D01*
X37634000Y-18504335D01*
X37689147Y-18781574D01*
X37797320Y-19042727D01*
X37954363Y-19277759D01*
X38154241Y-19477637D01*
X38389273Y-19634680D01*
X38650426Y-19742853D01*
X38927665Y-19798000D01*
X39210335Y-19798000D01*
X39487574Y-19742853D01*
X39748727Y-19634680D01*
X39983759Y-19477637D01*
X40183637Y-19277759D01*
X40340680Y-19042727D01*
X40448853Y-18781574D01*
X40504000Y-18504335D01*
X40504000Y-18221665D01*
X45254000Y-18221665D01*
X45254000Y-18504335D01*
X45309147Y-18781574D01*
X45417320Y-19042727D01*
X45574363Y-19277759D01*
X45774241Y-19477637D01*
X46009273Y-19634680D01*
X46270426Y-19742853D01*
X46547665Y-19798000D01*
X46830335Y-19798000D01*
X47107574Y-19742853D01*
X47368727Y-19634680D01*
X47603759Y-19477637D01*
X47803637Y-19277759D01*
X47960680Y-19042727D01*
X48068853Y-18781574D01*
X48124000Y-18504335D01*
X48124000Y-18221665D01*
X48068853Y-17944426D01*
X47960680Y-17683273D01*
X47803637Y-17448241D01*
X47603759Y-17248363D01*
X47368727Y-17091320D01*
X47107574Y-16983147D01*
X46830335Y-16928000D01*
X46547665Y-16928000D01*
X46270426Y-16983147D01*
X46009273Y-17091320D01*
X45774241Y-17248363D01*
X45574363Y-17448241D01*
X45417320Y-17683273D01*
X45309147Y-17944426D01*
X45254000Y-18221665D01*
X40504000Y-18221665D01*
X40448853Y-17944426D01*
X40340680Y-17683273D01*
X40183637Y-17448241D01*
X39983759Y-17248363D01*
X39748727Y-17091320D01*
X39487574Y-16983147D01*
X39210335Y-16928000D01*
X38927665Y-16928000D01*
X38650426Y-16983147D01*
X38389273Y-17091320D01*
X38154241Y-17248363D01*
X37954363Y-17448241D01*
X37797320Y-17683273D01*
X37689147Y-17944426D01*
X37634000Y-18221665D01*
X18112426Y-18221665D01*
X18242680Y-18026727D01*
X18350853Y-17765574D01*
X18406000Y-17488335D01*
X18406000Y-17205665D01*
X18399017Y-17170562D01*
X18427531Y-17142048D01*
X18427536Y-17142042D01*
X18704577Y-16865001D01*
X41789530Y-16865001D01*
X41832999Y-16869282D01*
X41876468Y-16865001D01*
X41876476Y-16865001D01*
X42006489Y-16852196D01*
X42097245Y-16824665D01*
X65447000Y-16824665D01*
X65447000Y-17107335D01*
X65502147Y-17384574D01*
X65610320Y-17645727D01*
X65767363Y-17880759D01*
X65967241Y-18080637D01*
X66202273Y-18237680D01*
X66463426Y-18345853D01*
X66740665Y-18401000D01*
X67023335Y-18401000D01*
X67300574Y-18345853D01*
X67561727Y-18237680D01*
X67796759Y-18080637D01*
X67996637Y-17880759D01*
X68153680Y-17645727D01*
X68261853Y-17384574D01*
X68317000Y-17107335D01*
X68317000Y-16824665D01*
X73067000Y-16824665D01*
X73067000Y-17107335D01*
X73122147Y-17384574D01*
X73230320Y-17645727D01*
X73387363Y-17880759D01*
X73587241Y-18080637D01*
X73822273Y-18237680D01*
X74083426Y-18345853D01*
X74360665Y-18401000D01*
X74643335Y-18401000D01*
X74920574Y-18345853D01*
X75181727Y-18237680D01*
X75416759Y-18080637D01*
X75616637Y-17880759D01*
X75773680Y-17645727D01*
X75881853Y-17384574D01*
X75937000Y-17107335D01*
X75937000Y-16824665D01*
X75881853Y-16547426D01*
X75773680Y-16286273D01*
X75616637Y-16051241D01*
X75416759Y-15851363D01*
X75181727Y-15694320D01*
X74920574Y-15586147D01*
X74643335Y-15531000D01*
X74360665Y-15531000D01*
X74083426Y-15586147D01*
X73822273Y-15694320D01*
X73587241Y-15851363D01*
X73387363Y-16051241D01*
X73230320Y-16286273D01*
X73122147Y-16547426D01*
X73067000Y-16824665D01*
X68317000Y-16824665D01*
X68261853Y-16547426D01*
X68153680Y-16286273D01*
X67996637Y-16051241D01*
X67796759Y-15851363D01*
X67561727Y-15694320D01*
X67300574Y-15586147D01*
X67023335Y-15531000D01*
X66740665Y-15531000D01*
X66463426Y-15586147D01*
X66202273Y-15694320D01*
X65967241Y-15851363D01*
X65767363Y-16051241D01*
X65610320Y-16286273D01*
X65502147Y-16547426D01*
X65447000Y-16824665D01*
X42097245Y-16824665D01*
X42173312Y-16801590D01*
X42327058Y-16719412D01*
X42461816Y-16608818D01*
X42489533Y-16575045D01*
X42914039Y-16150539D01*
X42986740Y-16165000D01*
X43279260Y-16165000D01*
X43566158Y-16107932D01*
X43836411Y-15995990D01*
X44079632Y-15833475D01*
X44286475Y-15626632D01*
X44403000Y-15452240D01*
X44519525Y-15626632D01*
X44726368Y-15833475D01*
X44969589Y-15995990D01*
X45239842Y-16107932D01*
X45526740Y-16165000D01*
X45819260Y-16165000D01*
X46106158Y-16107932D01*
X46376411Y-15995990D01*
X46619632Y-15833475D01*
X46826475Y-15626632D01*
X46943000Y-15452240D01*
X47059525Y-15626632D01*
X47266368Y-15833475D01*
X47509589Y-15995990D01*
X47779842Y-16107932D01*
X48066740Y-16165000D01*
X48359260Y-16165000D01*
X48646158Y-16107932D01*
X48916411Y-15995990D01*
X49159632Y-15833475D01*
X49366475Y-15626632D01*
X49528990Y-15383411D01*
X49640932Y-15113158D01*
X49698000Y-14826260D01*
X49698000Y-14533740D01*
X49640932Y-14246842D01*
X49528990Y-13976589D01*
X49366475Y-13733368D01*
X49159632Y-13526525D01*
X48916411Y-13364010D01*
X48646158Y-13252068D01*
X48359260Y-13195000D01*
X48066740Y-13195000D01*
X47779842Y-13252068D01*
X47509589Y-13364010D01*
X47266368Y-13526525D01*
X47059525Y-13733368D01*
X46943000Y-13907760D01*
X46891980Y-13831403D01*
X46908536Y-13811230D01*
X48001241Y-12718526D01*
X48054080Y-12675162D01*
X48097445Y-12622322D01*
X48097452Y-12622315D01*
X48227156Y-12464270D01*
X48227158Y-12464268D01*
X48355764Y-12223662D01*
X48365322Y-12192155D01*
X48434960Y-11962589D01*
X48445798Y-11852547D01*
X48455000Y-11759118D01*
X48455000Y-11759110D01*
X48461700Y-11691081D01*
X48455000Y-11623052D01*
X48455000Y-11025805D01*
X48497932Y-10922158D01*
X48555000Y-10635260D01*
X48555000Y-10342740D01*
X48551934Y-10327323D01*
X75172497Y-10327323D01*
X75172497Y-10754677D01*
X75255870Y-11173821D01*
X75419412Y-11568645D01*
X75656837Y-11923977D01*
X75959023Y-12226163D01*
X76314355Y-12463588D01*
X76709179Y-12627130D01*
X77128323Y-12710503D01*
X77555677Y-12710503D01*
X77974821Y-12627130D01*
X78369645Y-12463588D01*
X78724977Y-12226163D01*
X79027163Y-11923977D01*
X79264588Y-11568645D01*
X79428130Y-11173821D01*
X79511503Y-10754677D01*
X79511503Y-10327323D01*
X79428130Y-9908179D01*
X79264588Y-9513355D01*
X79027163Y-9158023D01*
X78724977Y-8855837D01*
X78369645Y-8618412D01*
X77974821Y-8454870D01*
X77555677Y-8371497D01*
X77128323Y-8371497D01*
X76709179Y-8454870D01*
X76314355Y-8618412D01*
X75959023Y-8855837D01*
X75656837Y-9158023D01*
X75419412Y-9513355D01*
X75255870Y-9908179D01*
X75172497Y-10327323D01*
X48551934Y-10327323D01*
X48497932Y-10055842D01*
X48385990Y-9785589D01*
X48223475Y-9542368D01*
X48016632Y-9335525D01*
X47773411Y-9173010D01*
X47503158Y-9061068D01*
X47216260Y-9004000D01*
X46923740Y-9004000D01*
X46636842Y-9061068D01*
X46366589Y-9173010D01*
X46123368Y-9335525D01*
X45916525Y-9542368D01*
X45800000Y-9716760D01*
X45683475Y-9542368D01*
X45476632Y-9335525D01*
X45233411Y-9173010D01*
X44963158Y-9061068D01*
X44676260Y-9004000D01*
X44383740Y-9004000D01*
X44096842Y-9061068D01*
X43826589Y-9173010D01*
X43583368Y-9335525D01*
X43376525Y-9542368D01*
X43260000Y-9716760D01*
X43143475Y-9542368D01*
X42936632Y-9335525D01*
X42693411Y-9173010D01*
X42423158Y-9061068D01*
X42136260Y-9004000D01*
X41843740Y-9004000D01*
X41556842Y-9061068D01*
X41286589Y-9173010D01*
X41043368Y-9335525D01*
X40836525Y-9542368D01*
X40674010Y-9785589D01*
X40562068Y-10055842D01*
X40505000Y-10342740D01*
X40505000Y-10635260D01*
X40562068Y-10922158D01*
X40674010Y-11192411D01*
X40836525Y-11435632D01*
X40895892Y-11494999D01*
X36178949Y-11494999D01*
X36110920Y-11488299D01*
X36042891Y-11494999D01*
X36042883Y-11494999D01*
X35839413Y-11515039D01*
X35578339Y-11594235D01*
X35337732Y-11722842D01*
X35126839Y-11895918D01*
X35083468Y-11948766D01*
X34581765Y-12450469D01*
X34528919Y-12493839D01*
X34485550Y-12546684D01*
X34485548Y-12546686D01*
X34393359Y-12659019D01*
X34355843Y-12704732D01*
X34227236Y-12945339D01*
X34148040Y-13206413D01*
X34128000Y-13409883D01*
X34128000Y-13409890D01*
X34121300Y-13477919D01*
X34128000Y-13545948D01*
X34128000Y-14143195D01*
X34085068Y-14246842D01*
X34028000Y-14533740D01*
X34028000Y-14826260D01*
X34081456Y-15095001D01*
X18381464Y-15095001D01*
X18337998Y-15090720D01*
X18294532Y-15095001D01*
X18294522Y-15095001D01*
X18164509Y-15107806D01*
X17997686Y-15158412D01*
X17843940Y-15240590D01*
X17709182Y-15351184D01*
X17681467Y-15384955D01*
X17175958Y-15890464D01*
X17175952Y-15890469D01*
X17147438Y-15918983D01*
X17112335Y-15912000D01*
X16829665Y-15912000D01*
X16552426Y-15967147D01*
X16291273Y-16075320D01*
X16056241Y-16232363D01*
X15856363Y-16432241D01*
X15699320Y-16667273D01*
X15591147Y-16928426D01*
X15536000Y-17205665D01*
X10786000Y-17205665D01*
X10730853Y-16928426D01*
X10622680Y-16667273D01*
X10465637Y-16432241D01*
X10265759Y-16232363D01*
X10030727Y-16075320D01*
X9769574Y-15967147D01*
X9492335Y-15912000D01*
X9209665Y-15912000D01*
X8932426Y-15967147D01*
X8671273Y-16075320D01*
X8436241Y-16232363D01*
X8236363Y-16432241D01*
X8079320Y-16667273D01*
X7971147Y-16928426D01*
X7916000Y-17205665D01*
X1502000Y-17205665D01*
X1502000Y-10327323D01*
X4172497Y-10327323D01*
X4172497Y-10754677D01*
X4255870Y-11173821D01*
X4419412Y-11568645D01*
X4656837Y-11923977D01*
X4959023Y-12226163D01*
X5314355Y-12463588D01*
X5709179Y-12627130D01*
X6128323Y-12710503D01*
X6555677Y-12710503D01*
X6974821Y-12627130D01*
X7369645Y-12463588D01*
X7724977Y-12226163D01*
X8027163Y-11923977D01*
X8264588Y-11568645D01*
X8428130Y-11173821D01*
X8511503Y-10754677D01*
X8511503Y-10327323D01*
X8428130Y-9908179D01*
X8264588Y-9513355D01*
X8027163Y-9158023D01*
X7724977Y-8855837D01*
X7369645Y-8618412D01*
X6974821Y-8454870D01*
X6555677Y-8371497D01*
X6128323Y-8371497D01*
X5709179Y-8454870D01*
X5314355Y-8618412D01*
X4959023Y-8855837D01*
X4656837Y-9158023D01*
X4419412Y-9513355D01*
X4255870Y-9908179D01*
X4172497Y-10327323D01*
X1502000Y-10327323D01*
X1502000Y-6473645D01*
X11203000Y-6473645D01*
X11203000Y-6884355D01*
X11283126Y-7287172D01*
X11440297Y-7666618D01*
X11668475Y-8008110D01*
X11958890Y-8298525D01*
X12300382Y-8526703D01*
X12679828Y-8683874D01*
X13082645Y-8764000D01*
X13493355Y-8764000D01*
X13896172Y-8683874D01*
X14275618Y-8526703D01*
X14617110Y-8298525D01*
X14907525Y-8008110D01*
X15135703Y-7666618D01*
X15292874Y-7287172D01*
X15373000Y-6884355D01*
X15373000Y-6473645D01*
X41011000Y-6473645D01*
X41011000Y-6884355D01*
X41091126Y-7287172D01*
X41248297Y-7666618D01*
X41476475Y-8008110D01*
X41766890Y-8298525D01*
X42108382Y-8526703D01*
X42487828Y-8683874D01*
X42890645Y-8764000D01*
X43301355Y-8764000D01*
X43704172Y-8683874D01*
X44083618Y-8526703D01*
X44425110Y-8298525D01*
X44715525Y-8008110D01*
X44943703Y-7666618D01*
X45100874Y-7287172D01*
X45181000Y-6884355D01*
X45181000Y-6473645D01*
X68734000Y-6473645D01*
X68734000Y-6884355D01*
X68814126Y-7287172D01*
X68971297Y-7666618D01*
X69199475Y-8008110D01*
X69489890Y-8298525D01*
X69831382Y-8526703D01*
X70210828Y-8683874D01*
X70613645Y-8764000D01*
X71024355Y-8764000D01*
X71427172Y-8683874D01*
X71806618Y-8526703D01*
X72148110Y-8298525D01*
X72438525Y-8008110D01*
X72666703Y-7666618D01*
X72823874Y-7287172D01*
X72904000Y-6884355D01*
X72904000Y-6473645D01*
X72823874Y-6070828D01*
X72666703Y-5691382D01*
X72438525Y-5349890D01*
X72148110Y-5059475D01*
X71806618Y-4831297D01*
X71427172Y-4674126D01*
X71024355Y-4594000D01*
X70613645Y-4594000D01*
X70210828Y-4674126D01*
X69831382Y-4831297D01*
X69489890Y-5059475D01*
X69199475Y-5349890D01*
X68971297Y-5691382D01*
X68814126Y-6070828D01*
X68734000Y-6473645D01*
X45181000Y-6473645D01*
X45100874Y-6070828D01*
X44943703Y-5691382D01*
X44715525Y-5349890D01*
X44425110Y-5059475D01*
X44083618Y-4831297D01*
X43704172Y-4674126D01*
X43301355Y-4594000D01*
X42890645Y-4594000D01*
X42487828Y-4674126D01*
X42108382Y-4831297D01*
X41766890Y-5059475D01*
X41476475Y-5349890D01*
X41248297Y-5691382D01*
X41091126Y-6070828D01*
X41011000Y-6473645D01*
X15373000Y-6473645D01*
X15292874Y-6070828D01*
X15135703Y-5691382D01*
X14907525Y-5349890D01*
X14617110Y-5059475D01*
X14275618Y-4831297D01*
X13896172Y-4674126D01*
X13493355Y-4594000D01*
X13082645Y-4594000D01*
X12679828Y-4674126D01*
X12300382Y-4831297D01*
X11958890Y-5059475D01*
X11668475Y-5349890D01*
X11440297Y-5691382D01*
X11283126Y-6070828D01*
X11203000Y-6473645D01*
X1502000Y-6473645D01*
X1502000Y-6009257D01*
X20954164Y799000D01*
X62729839Y799000D01*
X82182001Y-6009258D01*
M02*
