G04 #@! TF.GenerationSoftware,KiCad,Pcbnew,5.1.5+dfsg1-2build2*
G04 #@! TF.CreationDate,2020-06-26T22:11:02+02:00*
G04 #@! TF.ProjectId,robo-car-front-shield,726f626f-2d63-4617-922d-66726f6e742d,rev?*
G04 #@! TF.SameCoordinates,Original*
G04 #@! TF.FileFunction,Soldermask,Top*
G04 #@! TF.FilePolarity,Negative*
%FSLAX46Y46*%
G04 Gerber Fmt 4.6, Leading zero omitted, Abs format (unit mm)*
G04 Created by KiCad (PCBNEW 5.1.5+dfsg1-2build2) date 2020-06-26 22:11:02*
%MOMM*%
%LPD*%
G04 APERTURE LIST*
%ADD10C,0.100000*%
G04 APERTURE END LIST*
D10*
G36*
X68585564Y-20432389D02*
G01*
X68776833Y-20511615D01*
X68776835Y-20511616D01*
X68948973Y-20626635D01*
X69095365Y-20773027D01*
X69210385Y-20945167D01*
X69289611Y-21136436D01*
X69330000Y-21339484D01*
X69330000Y-21546516D01*
X69289611Y-21749564D01*
X69210385Y-21940833D01*
X69210384Y-21940835D01*
X69095365Y-22112973D01*
X68948973Y-22259365D01*
X68776835Y-22374384D01*
X68776834Y-22374385D01*
X68776833Y-22374385D01*
X68585564Y-22453611D01*
X68382516Y-22494000D01*
X68175484Y-22494000D01*
X67972436Y-22453611D01*
X67781167Y-22374385D01*
X67781166Y-22374385D01*
X67781165Y-22374384D01*
X67609027Y-22259365D01*
X67462635Y-22112973D01*
X67347616Y-21940835D01*
X67347615Y-21940833D01*
X67268389Y-21749564D01*
X67228000Y-21546516D01*
X67228000Y-21339484D01*
X67268389Y-21136436D01*
X67347615Y-20945167D01*
X67462635Y-20773027D01*
X67609027Y-20626635D01*
X67781165Y-20511616D01*
X67781167Y-20511615D01*
X67972436Y-20432389D01*
X68175484Y-20392000D01*
X68382516Y-20392000D01*
X68585564Y-20432389D01*
G37*
G36*
X73665564Y-20432389D02*
G01*
X73856833Y-20511615D01*
X73856835Y-20511616D01*
X74028973Y-20626635D01*
X74175365Y-20773027D01*
X74290385Y-20945167D01*
X74369611Y-21136436D01*
X74410000Y-21339484D01*
X74410000Y-21546516D01*
X74369611Y-21749564D01*
X74290385Y-21940833D01*
X74290384Y-21940835D01*
X74175365Y-22112973D01*
X74028973Y-22259365D01*
X73856835Y-22374384D01*
X73856834Y-22374385D01*
X73856833Y-22374385D01*
X73665564Y-22453611D01*
X73462516Y-22494000D01*
X73255484Y-22494000D01*
X73052436Y-22453611D01*
X72861167Y-22374385D01*
X72861166Y-22374385D01*
X72861165Y-22374384D01*
X72689027Y-22259365D01*
X72542635Y-22112973D01*
X72427616Y-21940835D01*
X72427615Y-21940833D01*
X72348389Y-21749564D01*
X72308000Y-21546516D01*
X72308000Y-21339484D01*
X72348389Y-21136436D01*
X72427615Y-20945167D01*
X72542635Y-20773027D01*
X72689027Y-20626635D01*
X72861165Y-20511616D01*
X72861167Y-20511615D01*
X73052436Y-20432389D01*
X73255484Y-20392000D01*
X73462516Y-20392000D01*
X73665564Y-20432389D01*
G37*
G36*
X40862564Y-20432389D02*
G01*
X41053833Y-20511615D01*
X41053835Y-20511616D01*
X41225973Y-20626635D01*
X41372365Y-20773027D01*
X41487385Y-20945167D01*
X41566611Y-21136436D01*
X41607000Y-21339484D01*
X41607000Y-21546516D01*
X41566611Y-21749564D01*
X41487385Y-21940833D01*
X41487384Y-21940835D01*
X41372365Y-22112973D01*
X41225973Y-22259365D01*
X41053835Y-22374384D01*
X41053834Y-22374385D01*
X41053833Y-22374385D01*
X40862564Y-22453611D01*
X40659516Y-22494000D01*
X40452484Y-22494000D01*
X40249436Y-22453611D01*
X40058167Y-22374385D01*
X40058166Y-22374385D01*
X40058165Y-22374384D01*
X39886027Y-22259365D01*
X39739635Y-22112973D01*
X39624616Y-21940835D01*
X39624615Y-21940833D01*
X39545389Y-21749564D01*
X39505000Y-21546516D01*
X39505000Y-21339484D01*
X39545389Y-21136436D01*
X39624615Y-20945167D01*
X39739635Y-20773027D01*
X39886027Y-20626635D01*
X40058165Y-20511616D01*
X40058167Y-20511615D01*
X40249436Y-20432389D01*
X40452484Y-20392000D01*
X40659516Y-20392000D01*
X40862564Y-20432389D01*
G37*
G36*
X43402564Y-20432389D02*
G01*
X43593833Y-20511615D01*
X43593835Y-20511616D01*
X43765973Y-20626635D01*
X43912365Y-20773027D01*
X44027385Y-20945167D01*
X44106611Y-21136436D01*
X44147000Y-21339484D01*
X44147000Y-21546516D01*
X44106611Y-21749564D01*
X44027385Y-21940833D01*
X44027384Y-21940835D01*
X43912365Y-22112973D01*
X43765973Y-22259365D01*
X43593835Y-22374384D01*
X43593834Y-22374385D01*
X43593833Y-22374385D01*
X43402564Y-22453611D01*
X43199516Y-22494000D01*
X42992484Y-22494000D01*
X42789436Y-22453611D01*
X42598167Y-22374385D01*
X42598166Y-22374385D01*
X42598165Y-22374384D01*
X42426027Y-22259365D01*
X42279635Y-22112973D01*
X42164616Y-21940835D01*
X42164615Y-21940833D01*
X42085389Y-21749564D01*
X42045000Y-21546516D01*
X42045000Y-21339484D01*
X42085389Y-21136436D01*
X42164615Y-20945167D01*
X42279635Y-20773027D01*
X42426027Y-20626635D01*
X42598165Y-20511616D01*
X42598167Y-20511615D01*
X42789436Y-20432389D01*
X42992484Y-20392000D01*
X43199516Y-20392000D01*
X43402564Y-20432389D01*
G37*
G36*
X45942564Y-20432389D02*
G01*
X46133833Y-20511615D01*
X46133835Y-20511616D01*
X46305973Y-20626635D01*
X46452365Y-20773027D01*
X46567385Y-20945167D01*
X46646611Y-21136436D01*
X46687000Y-21339484D01*
X46687000Y-21546516D01*
X46646611Y-21749564D01*
X46567385Y-21940833D01*
X46567384Y-21940835D01*
X46452365Y-22112973D01*
X46305973Y-22259365D01*
X46133835Y-22374384D01*
X46133834Y-22374385D01*
X46133833Y-22374385D01*
X45942564Y-22453611D01*
X45739516Y-22494000D01*
X45532484Y-22494000D01*
X45329436Y-22453611D01*
X45138167Y-22374385D01*
X45138166Y-22374385D01*
X45138165Y-22374384D01*
X44966027Y-22259365D01*
X44819635Y-22112973D01*
X44704616Y-21940835D01*
X44704615Y-21940833D01*
X44625389Y-21749564D01*
X44585000Y-21546516D01*
X44585000Y-21339484D01*
X44625389Y-21136436D01*
X44704615Y-20945167D01*
X44819635Y-20773027D01*
X44966027Y-20626635D01*
X45138165Y-20511616D01*
X45138167Y-20511615D01*
X45329436Y-20432389D01*
X45532484Y-20392000D01*
X45739516Y-20392000D01*
X45942564Y-20432389D01*
G37*
G36*
X16134564Y-20432389D02*
G01*
X16325833Y-20511615D01*
X16325835Y-20511616D01*
X16497973Y-20626635D01*
X16644365Y-20773027D01*
X16759385Y-20945167D01*
X16838611Y-21136436D01*
X16879000Y-21339484D01*
X16879000Y-21546516D01*
X16838611Y-21749564D01*
X16759385Y-21940833D01*
X16759384Y-21940835D01*
X16644365Y-22112973D01*
X16497973Y-22259365D01*
X16325835Y-22374384D01*
X16325834Y-22374385D01*
X16325833Y-22374385D01*
X16134564Y-22453611D01*
X15931516Y-22494000D01*
X15724484Y-22494000D01*
X15521436Y-22453611D01*
X15330167Y-22374385D01*
X15330166Y-22374385D01*
X15330165Y-22374384D01*
X15158027Y-22259365D01*
X15011635Y-22112973D01*
X14896616Y-21940835D01*
X14896615Y-21940833D01*
X14817389Y-21749564D01*
X14777000Y-21546516D01*
X14777000Y-21339484D01*
X14817389Y-21136436D01*
X14896615Y-20945167D01*
X15011635Y-20773027D01*
X15158027Y-20626635D01*
X15330165Y-20511616D01*
X15330167Y-20511615D01*
X15521436Y-20432389D01*
X15724484Y-20392000D01*
X15931516Y-20392000D01*
X16134564Y-20432389D01*
G37*
G36*
X13594564Y-20432389D02*
G01*
X13785833Y-20511615D01*
X13785835Y-20511616D01*
X13957973Y-20626635D01*
X14104365Y-20773027D01*
X14219385Y-20945167D01*
X14298611Y-21136436D01*
X14339000Y-21339484D01*
X14339000Y-21546516D01*
X14298611Y-21749564D01*
X14219385Y-21940833D01*
X14219384Y-21940835D01*
X14104365Y-22112973D01*
X13957973Y-22259365D01*
X13785835Y-22374384D01*
X13785834Y-22374385D01*
X13785833Y-22374385D01*
X13594564Y-22453611D01*
X13391516Y-22494000D01*
X13184484Y-22494000D01*
X12981436Y-22453611D01*
X12790167Y-22374385D01*
X12790166Y-22374385D01*
X12790165Y-22374384D01*
X12618027Y-22259365D01*
X12471635Y-22112973D01*
X12356616Y-21940835D01*
X12356615Y-21940833D01*
X12277389Y-21749564D01*
X12237000Y-21546516D01*
X12237000Y-21339484D01*
X12277389Y-21136436D01*
X12356615Y-20945167D01*
X12471635Y-20773027D01*
X12618027Y-20626635D01*
X12790165Y-20511616D01*
X12790167Y-20511615D01*
X12981436Y-20432389D01*
X13184484Y-20392000D01*
X13391516Y-20392000D01*
X13594564Y-20432389D01*
G37*
G36*
X11054564Y-20432389D02*
G01*
X11245833Y-20511615D01*
X11245835Y-20511616D01*
X11417973Y-20626635D01*
X11564365Y-20773027D01*
X11679385Y-20945167D01*
X11758611Y-21136436D01*
X11799000Y-21339484D01*
X11799000Y-21546516D01*
X11758611Y-21749564D01*
X11679385Y-21940833D01*
X11679384Y-21940835D01*
X11564365Y-22112973D01*
X11417973Y-22259365D01*
X11245835Y-22374384D01*
X11245834Y-22374385D01*
X11245833Y-22374385D01*
X11054564Y-22453611D01*
X10851516Y-22494000D01*
X10644484Y-22494000D01*
X10441436Y-22453611D01*
X10250167Y-22374385D01*
X10250166Y-22374385D01*
X10250165Y-22374384D01*
X10078027Y-22259365D01*
X9931635Y-22112973D01*
X9816616Y-21940835D01*
X9816615Y-21940833D01*
X9737389Y-21749564D01*
X9697000Y-21546516D01*
X9697000Y-21339484D01*
X9737389Y-21136436D01*
X9816615Y-20945167D01*
X9931635Y-20773027D01*
X10078027Y-20626635D01*
X10250165Y-20511616D01*
X10250167Y-20511615D01*
X10441436Y-20432389D01*
X10644484Y-20392000D01*
X10851516Y-20392000D01*
X11054564Y-20432389D01*
G37*
G36*
X71125564Y-20432389D02*
G01*
X71316833Y-20511615D01*
X71316835Y-20511616D01*
X71488973Y-20626635D01*
X71635365Y-20773027D01*
X71750385Y-20945167D01*
X71829611Y-21136436D01*
X71870000Y-21339484D01*
X71870000Y-21546516D01*
X71829611Y-21749564D01*
X71750385Y-21940833D01*
X71750384Y-21940835D01*
X71635365Y-22112973D01*
X71488973Y-22259365D01*
X71316835Y-22374384D01*
X71316834Y-22374385D01*
X71316833Y-22374385D01*
X71125564Y-22453611D01*
X70922516Y-22494000D01*
X70715484Y-22494000D01*
X70512436Y-22453611D01*
X70321167Y-22374385D01*
X70321166Y-22374385D01*
X70321165Y-22374384D01*
X70149027Y-22259365D01*
X70002635Y-22112973D01*
X69887616Y-21940835D01*
X69887615Y-21940833D01*
X69808389Y-21749564D01*
X69768000Y-21546516D01*
X69768000Y-21339484D01*
X69808389Y-21136436D01*
X69887615Y-20945167D01*
X70002635Y-20773027D01*
X70149027Y-20626635D01*
X70321165Y-20511616D01*
X70321167Y-20511615D01*
X70512436Y-20432389D01*
X70715484Y-20392000D01*
X70922516Y-20392000D01*
X71125564Y-20432389D01*
G37*
G36*
X39317228Y-17544703D02*
G01*
X39472100Y-17608853D01*
X39611481Y-17701985D01*
X39730015Y-17820519D01*
X39823147Y-17959900D01*
X39887297Y-18114772D01*
X39920000Y-18279184D01*
X39920000Y-18446816D01*
X39887297Y-18611228D01*
X39823147Y-18766100D01*
X39730015Y-18905481D01*
X39611481Y-19024015D01*
X39472100Y-19117147D01*
X39317228Y-19181297D01*
X39152816Y-19214000D01*
X38985184Y-19214000D01*
X38820772Y-19181297D01*
X38665900Y-19117147D01*
X38526519Y-19024015D01*
X38407985Y-18905481D01*
X38314853Y-18766100D01*
X38250703Y-18611228D01*
X38218000Y-18446816D01*
X38218000Y-18279184D01*
X38250703Y-18114772D01*
X38314853Y-17959900D01*
X38407985Y-17820519D01*
X38526519Y-17701985D01*
X38665900Y-17608853D01*
X38820772Y-17544703D01*
X38985184Y-17512000D01*
X39152816Y-17512000D01*
X39317228Y-17544703D01*
G37*
G36*
X46937228Y-17544703D02*
G01*
X47092100Y-17608853D01*
X47231481Y-17701985D01*
X47350015Y-17820519D01*
X47443147Y-17959900D01*
X47507297Y-18114772D01*
X47540000Y-18279184D01*
X47540000Y-18446816D01*
X47507297Y-18611228D01*
X47443147Y-18766100D01*
X47350015Y-18905481D01*
X47231481Y-19024015D01*
X47092100Y-19117147D01*
X46937228Y-19181297D01*
X46772816Y-19214000D01*
X46605184Y-19214000D01*
X46440772Y-19181297D01*
X46285900Y-19117147D01*
X46146519Y-19024015D01*
X46027985Y-18905481D01*
X45934853Y-18766100D01*
X45870703Y-18611228D01*
X45838000Y-18446816D01*
X45838000Y-18279184D01*
X45870703Y-18114772D01*
X45934853Y-17959900D01*
X46027985Y-17820519D01*
X46146519Y-17701985D01*
X46285900Y-17608853D01*
X46440772Y-17544703D01*
X46605184Y-17512000D01*
X46772816Y-17512000D01*
X46937228Y-17544703D01*
G37*
G36*
X17219228Y-16528703D02*
G01*
X17374100Y-16592853D01*
X17513481Y-16685985D01*
X17632015Y-16804519D01*
X17725147Y-16943900D01*
X17789297Y-17098772D01*
X17822000Y-17263184D01*
X17822000Y-17430816D01*
X17789297Y-17595228D01*
X17725147Y-17750100D01*
X17632015Y-17889481D01*
X17513481Y-18008015D01*
X17374100Y-18101147D01*
X17219228Y-18165297D01*
X17054816Y-18198000D01*
X16887184Y-18198000D01*
X16722772Y-18165297D01*
X16567900Y-18101147D01*
X16428519Y-18008015D01*
X16309985Y-17889481D01*
X16216853Y-17750100D01*
X16152703Y-17595228D01*
X16120000Y-17430816D01*
X16120000Y-17263184D01*
X16152703Y-17098772D01*
X16216853Y-16943900D01*
X16309985Y-16804519D01*
X16428519Y-16685985D01*
X16567900Y-16592853D01*
X16722772Y-16528703D01*
X16887184Y-16496000D01*
X17054816Y-16496000D01*
X17219228Y-16528703D01*
G37*
G36*
X9599228Y-16528703D02*
G01*
X9754100Y-16592853D01*
X9893481Y-16685985D01*
X10012015Y-16804519D01*
X10105147Y-16943900D01*
X10169297Y-17098772D01*
X10202000Y-17263184D01*
X10202000Y-17430816D01*
X10169297Y-17595228D01*
X10105147Y-17750100D01*
X10012015Y-17889481D01*
X9893481Y-18008015D01*
X9754100Y-18101147D01*
X9599228Y-18165297D01*
X9434816Y-18198000D01*
X9267184Y-18198000D01*
X9102772Y-18165297D01*
X8947900Y-18101147D01*
X8808519Y-18008015D01*
X8689985Y-17889481D01*
X8596853Y-17750100D01*
X8532703Y-17595228D01*
X8500000Y-17430816D01*
X8500000Y-17263184D01*
X8532703Y-17098772D01*
X8596853Y-16943900D01*
X8689985Y-16804519D01*
X8808519Y-16685985D01*
X8947900Y-16592853D01*
X9102772Y-16528703D01*
X9267184Y-16496000D01*
X9434816Y-16496000D01*
X9599228Y-16528703D01*
G37*
G36*
X67130228Y-16147703D02*
G01*
X67285100Y-16211853D01*
X67424481Y-16304985D01*
X67543015Y-16423519D01*
X67636147Y-16562900D01*
X67700297Y-16717772D01*
X67733000Y-16882184D01*
X67733000Y-17049816D01*
X67700297Y-17214228D01*
X67636147Y-17369100D01*
X67543015Y-17508481D01*
X67424481Y-17627015D01*
X67285100Y-17720147D01*
X67130228Y-17784297D01*
X66965816Y-17817000D01*
X66798184Y-17817000D01*
X66633772Y-17784297D01*
X66478900Y-17720147D01*
X66339519Y-17627015D01*
X66220985Y-17508481D01*
X66127853Y-17369100D01*
X66063703Y-17214228D01*
X66031000Y-17049816D01*
X66031000Y-16882184D01*
X66063703Y-16717772D01*
X66127853Y-16562900D01*
X66220985Y-16423519D01*
X66339519Y-16304985D01*
X66478900Y-16211853D01*
X66633772Y-16147703D01*
X66798184Y-16115000D01*
X66965816Y-16115000D01*
X67130228Y-16147703D01*
G37*
G36*
X74750228Y-16147703D02*
G01*
X74905100Y-16211853D01*
X75044481Y-16304985D01*
X75163015Y-16423519D01*
X75256147Y-16562900D01*
X75320297Y-16717772D01*
X75353000Y-16882184D01*
X75353000Y-17049816D01*
X75320297Y-17214228D01*
X75256147Y-17369100D01*
X75163015Y-17508481D01*
X75044481Y-17627015D01*
X74905100Y-17720147D01*
X74750228Y-17784297D01*
X74585816Y-17817000D01*
X74418184Y-17817000D01*
X74253772Y-17784297D01*
X74098900Y-17720147D01*
X73959519Y-17627015D01*
X73840985Y-17508481D01*
X73747853Y-17369100D01*
X73683703Y-17214228D01*
X73651000Y-17049816D01*
X73651000Y-16882184D01*
X73683703Y-16717772D01*
X73747853Y-16562900D01*
X73840985Y-16423519D01*
X73959519Y-16304985D01*
X74098900Y-16211853D01*
X74253772Y-16147703D01*
X74418184Y-16115000D01*
X74585816Y-16115000D01*
X74750228Y-16147703D01*
G37*
G36*
X40706512Y-13783927D02*
G01*
X40855812Y-13813624D01*
X41019784Y-13881544D01*
X41167354Y-13980147D01*
X41292853Y-14105646D01*
X41391456Y-14253216D01*
X41459376Y-14417188D01*
X41494000Y-14591259D01*
X41494000Y-14768741D01*
X41459376Y-14942812D01*
X41391456Y-15106784D01*
X41292853Y-15254354D01*
X41167354Y-15379853D01*
X41019784Y-15478456D01*
X40855812Y-15546376D01*
X40706512Y-15576073D01*
X40681742Y-15581000D01*
X40504258Y-15581000D01*
X40479488Y-15576073D01*
X40330188Y-15546376D01*
X40166216Y-15478456D01*
X40018646Y-15379853D01*
X39893147Y-15254354D01*
X39794544Y-15106784D01*
X39726624Y-14942812D01*
X39692000Y-14768741D01*
X39692000Y-14591259D01*
X39726624Y-14417188D01*
X39794544Y-14253216D01*
X39893147Y-14105646D01*
X40018646Y-13980147D01*
X40166216Y-13881544D01*
X40330188Y-13813624D01*
X40479488Y-13783927D01*
X40504258Y-13779000D01*
X40681742Y-13779000D01*
X40706512Y-13783927D01*
G37*
G36*
X51654000Y-15581000D02*
G01*
X49852000Y-15581000D01*
X49852000Y-13779000D01*
X51654000Y-13779000D01*
X51654000Y-15581000D01*
G37*
G36*
X48326512Y-13783927D02*
G01*
X48475812Y-13813624D01*
X48639784Y-13881544D01*
X48787354Y-13980147D01*
X48912853Y-14105646D01*
X49011456Y-14253216D01*
X49079376Y-14417188D01*
X49114000Y-14591259D01*
X49114000Y-14768741D01*
X49079376Y-14942812D01*
X49011456Y-15106784D01*
X48912853Y-15254354D01*
X48787354Y-15379853D01*
X48639784Y-15478456D01*
X48475812Y-15546376D01*
X48326512Y-15576073D01*
X48301742Y-15581000D01*
X48124258Y-15581000D01*
X48099488Y-15576073D01*
X47950188Y-15546376D01*
X47786216Y-15478456D01*
X47638646Y-15379853D01*
X47513147Y-15254354D01*
X47414544Y-15106784D01*
X47346624Y-14942812D01*
X47312000Y-14768741D01*
X47312000Y-14591259D01*
X47346624Y-14417188D01*
X47414544Y-14253216D01*
X47513147Y-14105646D01*
X47638646Y-13980147D01*
X47786216Y-13881544D01*
X47950188Y-13813624D01*
X48099488Y-13783927D01*
X48124258Y-13779000D01*
X48301742Y-13779000D01*
X48326512Y-13783927D01*
G37*
G36*
X45786512Y-13783927D02*
G01*
X45935812Y-13813624D01*
X46099784Y-13881544D01*
X46247354Y-13980147D01*
X46372853Y-14105646D01*
X46471456Y-14253216D01*
X46539376Y-14417188D01*
X46574000Y-14591259D01*
X46574000Y-14768741D01*
X46539376Y-14942812D01*
X46471456Y-15106784D01*
X46372853Y-15254354D01*
X46247354Y-15379853D01*
X46099784Y-15478456D01*
X45935812Y-15546376D01*
X45786512Y-15576073D01*
X45761742Y-15581000D01*
X45584258Y-15581000D01*
X45559488Y-15576073D01*
X45410188Y-15546376D01*
X45246216Y-15478456D01*
X45098646Y-15379853D01*
X44973147Y-15254354D01*
X44874544Y-15106784D01*
X44806624Y-14942812D01*
X44772000Y-14768741D01*
X44772000Y-14591259D01*
X44806624Y-14417188D01*
X44874544Y-14253216D01*
X44973147Y-14105646D01*
X45098646Y-13980147D01*
X45246216Y-13881544D01*
X45410188Y-13813624D01*
X45559488Y-13783927D01*
X45584258Y-13779000D01*
X45761742Y-13779000D01*
X45786512Y-13783927D01*
G37*
G36*
X43246512Y-13783927D02*
G01*
X43395812Y-13813624D01*
X43559784Y-13881544D01*
X43707354Y-13980147D01*
X43832853Y-14105646D01*
X43931456Y-14253216D01*
X43999376Y-14417188D01*
X44034000Y-14591259D01*
X44034000Y-14768741D01*
X43999376Y-14942812D01*
X43931456Y-15106784D01*
X43832853Y-15254354D01*
X43707354Y-15379853D01*
X43559784Y-15478456D01*
X43395812Y-15546376D01*
X43246512Y-15576073D01*
X43221742Y-15581000D01*
X43044258Y-15581000D01*
X43019488Y-15576073D01*
X42870188Y-15546376D01*
X42706216Y-15478456D01*
X42558646Y-15379853D01*
X42433147Y-15254354D01*
X42334544Y-15106784D01*
X42266624Y-14942812D01*
X42232000Y-14768741D01*
X42232000Y-14591259D01*
X42266624Y-14417188D01*
X42334544Y-14253216D01*
X42433147Y-14105646D01*
X42558646Y-13980147D01*
X42706216Y-13881544D01*
X42870188Y-13813624D01*
X43019488Y-13783927D01*
X43044258Y-13779000D01*
X43221742Y-13779000D01*
X43246512Y-13783927D01*
G37*
G36*
X38166512Y-13783927D02*
G01*
X38315812Y-13813624D01*
X38479784Y-13881544D01*
X38627354Y-13980147D01*
X38752853Y-14105646D01*
X38851456Y-14253216D01*
X38919376Y-14417188D01*
X38954000Y-14591259D01*
X38954000Y-14768741D01*
X38919376Y-14942812D01*
X38851456Y-15106784D01*
X38752853Y-15254354D01*
X38627354Y-15379853D01*
X38479784Y-15478456D01*
X38315812Y-15546376D01*
X38166512Y-15576073D01*
X38141742Y-15581000D01*
X37964258Y-15581000D01*
X37939488Y-15576073D01*
X37790188Y-15546376D01*
X37626216Y-15478456D01*
X37478646Y-15379853D01*
X37353147Y-15254354D01*
X37254544Y-15106784D01*
X37186624Y-14942812D01*
X37152000Y-14768741D01*
X37152000Y-14591259D01*
X37186624Y-14417188D01*
X37254544Y-14253216D01*
X37353147Y-14105646D01*
X37478646Y-13980147D01*
X37626216Y-13881544D01*
X37790188Y-13813624D01*
X37939488Y-13783927D01*
X37964258Y-13779000D01*
X38141742Y-13779000D01*
X38166512Y-13783927D01*
G37*
G36*
X35626512Y-13783927D02*
G01*
X35775812Y-13813624D01*
X35939784Y-13881544D01*
X36087354Y-13980147D01*
X36212853Y-14105646D01*
X36311456Y-14253216D01*
X36379376Y-14417188D01*
X36414000Y-14591259D01*
X36414000Y-14768741D01*
X36379376Y-14942812D01*
X36311456Y-15106784D01*
X36212853Y-15254354D01*
X36087354Y-15379853D01*
X35939784Y-15478456D01*
X35775812Y-15546376D01*
X35626512Y-15576073D01*
X35601742Y-15581000D01*
X35424258Y-15581000D01*
X35399488Y-15576073D01*
X35250188Y-15546376D01*
X35086216Y-15478456D01*
X34938646Y-15379853D01*
X34813147Y-15254354D01*
X34714544Y-15106784D01*
X34646624Y-14942812D01*
X34612000Y-14768741D01*
X34612000Y-14591259D01*
X34646624Y-14417188D01*
X34714544Y-14253216D01*
X34813147Y-14105646D01*
X34938646Y-13980147D01*
X35086216Y-13881544D01*
X35250188Y-13813624D01*
X35399488Y-13783927D01*
X35424258Y-13779000D01*
X35601742Y-13779000D01*
X35626512Y-13783927D01*
G37*
G36*
X40351000Y-11390000D02*
G01*
X38549000Y-11390000D01*
X38549000Y-9588000D01*
X40351000Y-9588000D01*
X40351000Y-11390000D01*
G37*
G36*
X47183512Y-9592927D02*
G01*
X47332812Y-9622624D01*
X47496784Y-9690544D01*
X47644354Y-9789147D01*
X47769853Y-9914646D01*
X47868456Y-10062216D01*
X47936376Y-10226188D01*
X47971000Y-10400259D01*
X47971000Y-10577741D01*
X47936376Y-10751812D01*
X47868456Y-10915784D01*
X47769853Y-11063354D01*
X47644354Y-11188853D01*
X47496784Y-11287456D01*
X47332812Y-11355376D01*
X47183512Y-11385073D01*
X47158742Y-11390000D01*
X46981258Y-11390000D01*
X46956488Y-11385073D01*
X46807188Y-11355376D01*
X46643216Y-11287456D01*
X46495646Y-11188853D01*
X46370147Y-11063354D01*
X46271544Y-10915784D01*
X46203624Y-10751812D01*
X46169000Y-10577741D01*
X46169000Y-10400259D01*
X46203624Y-10226188D01*
X46271544Y-10062216D01*
X46370147Y-9914646D01*
X46495646Y-9789147D01*
X46643216Y-9690544D01*
X46807188Y-9622624D01*
X46956488Y-9592927D01*
X46981258Y-9588000D01*
X47158742Y-9588000D01*
X47183512Y-9592927D01*
G37*
G36*
X44643512Y-9592927D02*
G01*
X44792812Y-9622624D01*
X44956784Y-9690544D01*
X45104354Y-9789147D01*
X45229853Y-9914646D01*
X45328456Y-10062216D01*
X45396376Y-10226188D01*
X45431000Y-10400259D01*
X45431000Y-10577741D01*
X45396376Y-10751812D01*
X45328456Y-10915784D01*
X45229853Y-11063354D01*
X45104354Y-11188853D01*
X44956784Y-11287456D01*
X44792812Y-11355376D01*
X44643512Y-11385073D01*
X44618742Y-11390000D01*
X44441258Y-11390000D01*
X44416488Y-11385073D01*
X44267188Y-11355376D01*
X44103216Y-11287456D01*
X43955646Y-11188853D01*
X43830147Y-11063354D01*
X43731544Y-10915784D01*
X43663624Y-10751812D01*
X43629000Y-10577741D01*
X43629000Y-10400259D01*
X43663624Y-10226188D01*
X43731544Y-10062216D01*
X43830147Y-9914646D01*
X43955646Y-9789147D01*
X44103216Y-9690544D01*
X44267188Y-9622624D01*
X44416488Y-9592927D01*
X44441258Y-9588000D01*
X44618742Y-9588000D01*
X44643512Y-9592927D01*
G37*
G36*
X42103512Y-9592927D02*
G01*
X42252812Y-9622624D01*
X42416784Y-9690544D01*
X42564354Y-9789147D01*
X42689853Y-9914646D01*
X42788456Y-10062216D01*
X42856376Y-10226188D01*
X42891000Y-10400259D01*
X42891000Y-10577741D01*
X42856376Y-10751812D01*
X42788456Y-10915784D01*
X42689853Y-11063354D01*
X42564354Y-11188853D01*
X42416784Y-11287456D01*
X42252812Y-11355376D01*
X42103512Y-11385073D01*
X42078742Y-11390000D01*
X41901258Y-11390000D01*
X41876488Y-11385073D01*
X41727188Y-11355376D01*
X41563216Y-11287456D01*
X41415646Y-11188853D01*
X41290147Y-11063354D01*
X41191544Y-10915784D01*
X41123624Y-10751812D01*
X41089000Y-10577741D01*
X41089000Y-10400259D01*
X41123624Y-10226188D01*
X41191544Y-10062216D01*
X41290147Y-9914646D01*
X41415646Y-9789147D01*
X41563216Y-9690544D01*
X41727188Y-9622624D01*
X41876488Y-9592927D01*
X41901258Y-9588000D01*
X42078742Y-9588000D01*
X42103512Y-9592927D01*
G37*
G36*
X13580831Y-5206841D02*
G01*
X13725826Y-5235682D01*
X13838974Y-5282550D01*
X13998989Y-5348830D01*
X13998990Y-5348831D01*
X14244832Y-5513097D01*
X14453903Y-5722168D01*
X14453904Y-5722170D01*
X14618170Y-5968011D01*
X14731318Y-6241175D01*
X14789000Y-6531163D01*
X14789000Y-6826837D01*
X14731318Y-7116825D01*
X14618170Y-7389989D01*
X14618169Y-7389990D01*
X14453903Y-7635832D01*
X14244832Y-7844903D01*
X14121076Y-7927594D01*
X13998989Y-8009170D01*
X13838974Y-8075450D01*
X13725826Y-8122318D01*
X13580831Y-8151159D01*
X13435837Y-8180000D01*
X13140163Y-8180000D01*
X12995169Y-8151159D01*
X12850174Y-8122318D01*
X12737026Y-8075450D01*
X12577011Y-8009170D01*
X12454924Y-7927594D01*
X12331168Y-7844903D01*
X12122097Y-7635832D01*
X11957831Y-7389990D01*
X11957830Y-7389989D01*
X11844682Y-7116825D01*
X11787000Y-6826837D01*
X11787000Y-6531163D01*
X11844682Y-6241175D01*
X11957830Y-5968011D01*
X12122096Y-5722170D01*
X12122097Y-5722168D01*
X12331168Y-5513097D01*
X12577010Y-5348831D01*
X12577011Y-5348830D01*
X12737026Y-5282550D01*
X12850174Y-5235682D01*
X12995169Y-5206841D01*
X13140163Y-5178000D01*
X13435837Y-5178000D01*
X13580831Y-5206841D01*
G37*
G36*
X43388831Y-5206841D02*
G01*
X43533826Y-5235682D01*
X43646974Y-5282550D01*
X43806989Y-5348830D01*
X43806990Y-5348831D01*
X44052832Y-5513097D01*
X44261903Y-5722168D01*
X44261904Y-5722170D01*
X44426170Y-5968011D01*
X44539318Y-6241175D01*
X44597000Y-6531163D01*
X44597000Y-6826837D01*
X44539318Y-7116825D01*
X44426170Y-7389989D01*
X44426169Y-7389990D01*
X44261903Y-7635832D01*
X44052832Y-7844903D01*
X43929076Y-7927594D01*
X43806989Y-8009170D01*
X43646974Y-8075450D01*
X43533826Y-8122318D01*
X43388831Y-8151159D01*
X43243837Y-8180000D01*
X42948163Y-8180000D01*
X42803169Y-8151159D01*
X42658174Y-8122318D01*
X42545026Y-8075450D01*
X42385011Y-8009170D01*
X42262924Y-7927594D01*
X42139168Y-7844903D01*
X41930097Y-7635832D01*
X41765831Y-7389990D01*
X41765830Y-7389989D01*
X41652682Y-7116825D01*
X41595000Y-6826837D01*
X41595000Y-6531163D01*
X41652682Y-6241175D01*
X41765830Y-5968011D01*
X41930096Y-5722170D01*
X41930097Y-5722168D01*
X42139168Y-5513097D01*
X42385010Y-5348831D01*
X42385011Y-5348830D01*
X42545026Y-5282550D01*
X42658174Y-5235682D01*
X42803169Y-5206841D01*
X42948163Y-5178000D01*
X43243837Y-5178000D01*
X43388831Y-5206841D01*
G37*
G36*
X71111831Y-5206841D02*
G01*
X71256826Y-5235682D01*
X71369974Y-5282550D01*
X71529989Y-5348830D01*
X71529990Y-5348831D01*
X71775832Y-5513097D01*
X71984903Y-5722168D01*
X71984904Y-5722170D01*
X72149170Y-5968011D01*
X72262318Y-6241175D01*
X72320000Y-6531163D01*
X72320000Y-6826837D01*
X72262318Y-7116825D01*
X72149170Y-7389989D01*
X72149169Y-7389990D01*
X71984903Y-7635832D01*
X71775832Y-7844903D01*
X71652076Y-7927594D01*
X71529989Y-8009170D01*
X71369974Y-8075450D01*
X71256826Y-8122318D01*
X71111831Y-8151159D01*
X70966837Y-8180000D01*
X70671163Y-8180000D01*
X70526169Y-8151159D01*
X70381174Y-8122318D01*
X70268026Y-8075450D01*
X70108011Y-8009170D01*
X69985924Y-7927594D01*
X69862168Y-7844903D01*
X69653097Y-7635832D01*
X69488831Y-7389990D01*
X69488830Y-7389989D01*
X69375682Y-7116825D01*
X69318000Y-6826837D01*
X69318000Y-6531163D01*
X69375682Y-6241175D01*
X69488830Y-5968011D01*
X69653096Y-5722170D01*
X69653097Y-5722168D01*
X69862168Y-5513097D01*
X70108010Y-5348831D01*
X70108011Y-5348830D01*
X70268026Y-5282550D01*
X70381174Y-5235682D01*
X70526169Y-5206841D01*
X70671163Y-5178000D01*
X70966837Y-5178000D01*
X71111831Y-5206841D01*
G37*
M02*
