G04 #@! TF.GenerationSoftware,KiCad,Pcbnew,5.1.5+dfsg1-2build2*
G04 #@! TF.CreationDate,2020-06-26T22:11:02+02:00*
G04 #@! TF.ProjectId,robo-car-front-shield,726f626f-2d63-4617-922d-66726f6e742d,rev?*
G04 #@! TF.SameCoordinates,Original*
G04 #@! TF.FileFunction,Legend,Bot*
G04 #@! TF.FilePolarity,Positive*
%FSLAX46Y46*%
G04 Gerber Fmt 4.6, Leading zero omitted, Abs format (unit mm)*
G04 Created by KiCad (PCBNEW 5.1.5+dfsg1-2build2) date 2020-06-26 22:11:02*
%MOMM*%
%LPD*%
G04 APERTURE LIST*
%ADD10C,0.010000*%
G04 APERTURE END LIST*
D10*
G36*
X56963200Y-4301706D02*
G01*
X56501919Y-4347267D01*
X56197500Y-4403862D01*
X55935852Y-4482823D01*
X55618066Y-4601509D01*
X55271949Y-4746965D01*
X54925312Y-4906236D01*
X54605963Y-5066368D01*
X54341711Y-5214406D01*
X54160364Y-5337394D01*
X54123841Y-5369886D01*
X54023162Y-5494674D01*
X54014407Y-5596861D01*
X54035972Y-5646774D01*
X54132825Y-5767835D01*
X54263468Y-5808317D01*
X54446361Y-5766870D01*
X54699965Y-5642148D01*
X54786462Y-5591938D01*
X55509477Y-5232099D01*
X56265988Y-4985952D01*
X57041850Y-4853201D01*
X57822920Y-4833550D01*
X58595054Y-4926703D01*
X59344107Y-5132364D01*
X60055935Y-5450236D01*
X60483750Y-5711274D01*
X60648319Y-5809948D01*
X60767123Y-5832456D01*
X60890161Y-5786047D01*
X60912375Y-5773413D01*
X61008989Y-5655682D01*
X61008999Y-5496937D01*
X60916916Y-5333011D01*
X60848875Y-5268861D01*
X60639299Y-5131006D01*
X60342347Y-4971476D01*
X59992189Y-4805424D01*
X59622993Y-4647999D01*
X59268928Y-4514353D01*
X58964162Y-4419636D01*
X58896250Y-4403038D01*
X58482039Y-4335143D01*
X57994381Y-4295631D01*
X57474394Y-4284489D01*
X56963200Y-4301706D01*
G37*
X56963200Y-4301706D02*
X56501919Y-4347267D01*
X56197500Y-4403862D01*
X55935852Y-4482823D01*
X55618066Y-4601509D01*
X55271949Y-4746965D01*
X54925312Y-4906236D01*
X54605963Y-5066368D01*
X54341711Y-5214406D01*
X54160364Y-5337394D01*
X54123841Y-5369886D01*
X54023162Y-5494674D01*
X54014407Y-5596861D01*
X54035972Y-5646774D01*
X54132825Y-5767835D01*
X54263468Y-5808317D01*
X54446361Y-5766870D01*
X54699965Y-5642148D01*
X54786462Y-5591938D01*
X55509477Y-5232099D01*
X56265988Y-4985952D01*
X57041850Y-4853201D01*
X57822920Y-4833550D01*
X58595054Y-4926703D01*
X59344107Y-5132364D01*
X60055935Y-5450236D01*
X60483750Y-5711274D01*
X60648319Y-5809948D01*
X60767123Y-5832456D01*
X60890161Y-5786047D01*
X60912375Y-5773413D01*
X61008989Y-5655682D01*
X61008999Y-5496937D01*
X60916916Y-5333011D01*
X60848875Y-5268861D01*
X60639299Y-5131006D01*
X60342347Y-4971476D01*
X59992189Y-4805424D01*
X59622993Y-4647999D01*
X59268928Y-4514353D01*
X58964162Y-4419636D01*
X58896250Y-4403038D01*
X58482039Y-4335143D01*
X57994381Y-4295631D01*
X57474394Y-4284489D01*
X56963200Y-4301706D01*
G36*
X57333662Y-5615261D02*
G01*
X57277000Y-5619928D01*
X56795200Y-5693220D01*
X56307572Y-5816876D01*
X55846345Y-5979341D01*
X55443749Y-6169060D01*
X55132011Y-6374476D01*
X55102125Y-6399731D01*
X55004340Y-6549774D01*
X55004203Y-6711954D01*
X55098082Y-6841255D01*
X55139685Y-6864967D01*
X55245714Y-6893426D01*
X55364047Y-6869124D01*
X55533352Y-6781688D01*
X55600060Y-6741476D01*
X56220350Y-6430604D01*
X56860754Y-6243843D01*
X57513831Y-6181330D01*
X58172136Y-6243202D01*
X58828229Y-6429597D01*
X59353634Y-6672336D01*
X59567057Y-6787204D01*
X59733337Y-6874073D01*
X59824768Y-6918562D01*
X59833623Y-6921500D01*
X59896318Y-6888787D01*
X59969644Y-6838567D01*
X60069558Y-6711324D01*
X60058767Y-6567919D01*
X59951536Y-6414809D01*
X59762130Y-6258450D01*
X59504815Y-6105297D01*
X59193855Y-5961807D01*
X58843516Y-5834436D01*
X58468062Y-5729639D01*
X58081758Y-5653874D01*
X57698870Y-5613596D01*
X57333662Y-5615261D01*
G37*
X57333662Y-5615261D02*
X57277000Y-5619928D01*
X56795200Y-5693220D01*
X56307572Y-5816876D01*
X55846345Y-5979341D01*
X55443749Y-6169060D01*
X55132011Y-6374476D01*
X55102125Y-6399731D01*
X55004340Y-6549774D01*
X55004203Y-6711954D01*
X55098082Y-6841255D01*
X55139685Y-6864967D01*
X55245714Y-6893426D01*
X55364047Y-6869124D01*
X55533352Y-6781688D01*
X55600060Y-6741476D01*
X56220350Y-6430604D01*
X56860754Y-6243843D01*
X57513831Y-6181330D01*
X58172136Y-6243202D01*
X58828229Y-6429597D01*
X59353634Y-6672336D01*
X59567057Y-6787204D01*
X59733337Y-6874073D01*
X59824768Y-6918562D01*
X59833623Y-6921500D01*
X59896318Y-6888787D01*
X59969644Y-6838567D01*
X60069558Y-6711324D01*
X60058767Y-6567919D01*
X59951536Y-6414809D01*
X59762130Y-6258450D01*
X59504815Y-6105297D01*
X59193855Y-5961807D01*
X58843516Y-5834436D01*
X58468062Y-5729639D01*
X58081758Y-5653874D01*
X57698870Y-5613596D01*
X57333662Y-5615261D01*
G36*
X57050769Y-7045679D02*
G01*
X56506004Y-7211813D01*
X56345533Y-7286667D01*
X56144697Y-7394132D01*
X56033419Y-7477469D01*
X55985628Y-7565084D01*
X55975256Y-7685379D01*
X55975250Y-7690122D01*
X55989927Y-7840544D01*
X56053083Y-7906758D01*
X56138455Y-7924740D01*
X56282541Y-7906749D01*
X56485350Y-7840515D01*
X56646455Y-7768063D01*
X56845238Y-7676728D01*
X57028421Y-7623058D01*
X57243800Y-7597448D01*
X57531000Y-7590322D01*
X57824169Y-7595527D01*
X58039298Y-7620058D01*
X58224957Y-7673275D01*
X58426330Y-7762875D01*
X58709058Y-7885294D01*
X58909293Y-7929625D01*
X59043789Y-7897022D01*
X59118500Y-7810500D01*
X59152151Y-7658145D01*
X59078100Y-7513284D01*
X58889401Y-7366704D01*
X58711630Y-7270845D01*
X58171893Y-7075072D01*
X57612169Y-7000057D01*
X57050769Y-7045679D01*
G37*
X57050769Y-7045679D02*
X56506004Y-7211813D01*
X56345533Y-7286667D01*
X56144697Y-7394132D01*
X56033419Y-7477469D01*
X55985628Y-7565084D01*
X55975256Y-7685379D01*
X55975250Y-7690122D01*
X55989927Y-7840544D01*
X56053083Y-7906758D01*
X56138455Y-7924740D01*
X56282541Y-7906749D01*
X56485350Y-7840515D01*
X56646455Y-7768063D01*
X56845238Y-7676728D01*
X57028421Y-7623058D01*
X57243800Y-7597448D01*
X57531000Y-7590322D01*
X57824169Y-7595527D01*
X58039298Y-7620058D01*
X58224957Y-7673275D01*
X58426330Y-7762875D01*
X58709058Y-7885294D01*
X58909293Y-7929625D01*
X59043789Y-7897022D01*
X59118500Y-7810500D01*
X59152151Y-7658145D01*
X59078100Y-7513284D01*
X58889401Y-7366704D01*
X58711630Y-7270845D01*
X58171893Y-7075072D01*
X57612169Y-7000057D01*
X57050769Y-7045679D01*
G36*
X57305128Y-8401687D02*
G01*
X57149882Y-8473186D01*
X57067438Y-8545380D01*
X56909418Y-8778386D01*
X56860066Y-9028838D01*
X56908222Y-9272106D01*
X57042726Y-9483565D01*
X57252418Y-9638587D01*
X57526137Y-9712545D01*
X57597697Y-9715500D01*
X57786477Y-9672786D01*
X57979726Y-9532510D01*
X58013600Y-9499600D01*
X58179353Y-9261285D01*
X58233114Y-9012455D01*
X58185230Y-8776687D01*
X58046048Y-8577559D01*
X57825913Y-8438649D01*
X57535174Y-8383533D01*
X57523785Y-8383411D01*
X57305128Y-8401687D01*
G37*
X57305128Y-8401687D02*
X57149882Y-8473186D01*
X57067438Y-8545380D01*
X56909418Y-8778386D01*
X56860066Y-9028838D01*
X56908222Y-9272106D01*
X57042726Y-9483565D01*
X57252418Y-9638587D01*
X57526137Y-9712545D01*
X57597697Y-9715500D01*
X57786477Y-9672786D01*
X57979726Y-9532510D01*
X58013600Y-9499600D01*
X58179353Y-9261285D01*
X58233114Y-9012455D01*
X58185230Y-8776687D01*
X58046048Y-8577559D01*
X57825913Y-8438649D01*
X57535174Y-8383533D01*
X57523785Y-8383411D01*
X57305128Y-8401687D01*
G36*
X51698819Y-9815283D02*
G01*
X51301816Y-9995988D01*
X50942039Y-10281503D01*
X50704315Y-10569284D01*
X50585106Y-10747146D01*
X50510710Y-10885758D01*
X50470565Y-11024851D01*
X50454106Y-11204157D01*
X50450772Y-11463409D01*
X50450750Y-11523064D01*
X50453264Y-11790078D01*
X50467693Y-11988409D01*
X50504369Y-12159085D01*
X50573623Y-12343132D01*
X50685787Y-12581577D01*
X50750048Y-12711584D01*
X50882110Y-12981400D01*
X50998487Y-13226045D01*
X51083607Y-13412424D01*
X51115276Y-13487897D01*
X51196484Y-13617080D01*
X51315584Y-13641306D01*
X51317493Y-13641028D01*
X51448444Y-13604059D01*
X51518218Y-13530545D01*
X51525767Y-13404626D01*
X51470045Y-13210441D01*
X51350006Y-12932130D01*
X51258134Y-12741402D01*
X51120185Y-12449113D01*
X50999599Y-12171596D01*
X50910893Y-11943586D01*
X50872069Y-11817668D01*
X50849173Y-11441225D01*
X50936731Y-11067659D01*
X51121683Y-10729404D01*
X51390972Y-10458897D01*
X51430228Y-10431251D01*
X51812452Y-10243252D01*
X52208083Y-10179379D01*
X52603776Y-10239611D01*
X52986187Y-10423929D01*
X53000460Y-10433504D01*
X53285149Y-10679796D01*
X53464956Y-10971130D01*
X53550939Y-11329618D01*
X53562250Y-11557000D01*
X53556903Y-11747293D01*
X53534047Y-11911418D01*
X53483461Y-12082026D01*
X53394927Y-12291770D01*
X53258224Y-12573303D01*
X53220839Y-12647782D01*
X53064131Y-12970612D01*
X52966058Y-13203963D01*
X52919727Y-13367145D01*
X52918243Y-13479466D01*
X52920424Y-13489157D01*
X52999877Y-13616462D01*
X53122865Y-13653391D01*
X53243310Y-13588397D01*
X53255459Y-13573125D01*
X53303786Y-13487683D01*
X53393545Y-13312163D01*
X53512272Y-13071481D01*
X53647501Y-12790554D01*
X53658737Y-12766924D01*
X53812473Y-12433367D01*
X53916027Y-12178437D01*
X53979937Y-11969213D01*
X54014740Y-11772779D01*
X54028143Y-11612931D01*
X54032787Y-11341956D01*
X54002813Y-11132537D01*
X53927086Y-10921420D01*
X53893410Y-10847506D01*
X53636490Y-10431060D01*
X53312957Y-10110364D01*
X52940117Y-9886928D01*
X52535276Y-9762263D01*
X52115741Y-9737878D01*
X51698819Y-9815283D01*
G37*
X51698819Y-9815283D02*
X51301816Y-9995988D01*
X50942039Y-10281503D01*
X50704315Y-10569284D01*
X50585106Y-10747146D01*
X50510710Y-10885758D01*
X50470565Y-11024851D01*
X50454106Y-11204157D01*
X50450772Y-11463409D01*
X50450750Y-11523064D01*
X50453264Y-11790078D01*
X50467693Y-11988409D01*
X50504369Y-12159085D01*
X50573623Y-12343132D01*
X50685787Y-12581577D01*
X50750048Y-12711584D01*
X50882110Y-12981400D01*
X50998487Y-13226045D01*
X51083607Y-13412424D01*
X51115276Y-13487897D01*
X51196484Y-13617080D01*
X51315584Y-13641306D01*
X51317493Y-13641028D01*
X51448444Y-13604059D01*
X51518218Y-13530545D01*
X51525767Y-13404626D01*
X51470045Y-13210441D01*
X51350006Y-12932130D01*
X51258134Y-12741402D01*
X51120185Y-12449113D01*
X50999599Y-12171596D01*
X50910893Y-11943586D01*
X50872069Y-11817668D01*
X50849173Y-11441225D01*
X50936731Y-11067659D01*
X51121683Y-10729404D01*
X51390972Y-10458897D01*
X51430228Y-10431251D01*
X51812452Y-10243252D01*
X52208083Y-10179379D01*
X52603776Y-10239611D01*
X52986187Y-10423929D01*
X53000460Y-10433504D01*
X53285149Y-10679796D01*
X53464956Y-10971130D01*
X53550939Y-11329618D01*
X53562250Y-11557000D01*
X53556903Y-11747293D01*
X53534047Y-11911418D01*
X53483461Y-12082026D01*
X53394927Y-12291770D01*
X53258224Y-12573303D01*
X53220839Y-12647782D01*
X53064131Y-12970612D01*
X52966058Y-13203963D01*
X52919727Y-13367145D01*
X52918243Y-13479466D01*
X52920424Y-13489157D01*
X52999877Y-13616462D01*
X53122865Y-13653391D01*
X53243310Y-13588397D01*
X53255459Y-13573125D01*
X53303786Y-13487683D01*
X53393545Y-13312163D01*
X53512272Y-13071481D01*
X53647501Y-12790554D01*
X53658737Y-12766924D01*
X53812473Y-12433367D01*
X53916027Y-12178437D01*
X53979937Y-11969213D01*
X54014740Y-11772779D01*
X54028143Y-11612931D01*
X54032787Y-11341956D01*
X54002813Y-11132537D01*
X53927086Y-10921420D01*
X53893410Y-10847506D01*
X53636490Y-10431060D01*
X53312957Y-10110364D01*
X52940117Y-9886928D01*
X52535276Y-9762263D01*
X52115741Y-9737878D01*
X51698819Y-9815283D01*
G36*
X52975292Y-14005175D02*
G01*
X52849487Y-14059263D01*
X52443775Y-14190706D01*
X52043966Y-14195293D01*
X51703166Y-14097039D01*
X51448882Y-14007716D01*
X51283617Y-14000478D01*
X51198203Y-14076863D01*
X51181000Y-14184592D01*
X51239828Y-14327442D01*
X51398950Y-14451048D01*
X51632323Y-14549127D01*
X51913903Y-14615396D01*
X52217648Y-14643574D01*
X52517516Y-14627377D01*
X52768500Y-14567553D01*
X53053310Y-14440673D01*
X53221419Y-14308522D01*
X53269598Y-14175327D01*
X53194618Y-14045319D01*
X53178200Y-14030968D01*
X53090522Y-13986849D01*
X52975292Y-14005175D01*
G37*
X52975292Y-14005175D02*
X52849487Y-14059263D01*
X52443775Y-14190706D01*
X52043966Y-14195293D01*
X51703166Y-14097039D01*
X51448882Y-14007716D01*
X51283617Y-14000478D01*
X51198203Y-14076863D01*
X51181000Y-14184592D01*
X51239828Y-14327442D01*
X51398950Y-14451048D01*
X51632323Y-14549127D01*
X51913903Y-14615396D01*
X52217648Y-14643574D01*
X52517516Y-14627377D01*
X52768500Y-14567553D01*
X53053310Y-14440673D01*
X53221419Y-14308522D01*
X53269598Y-14175327D01*
X53194618Y-14045319D01*
X53178200Y-14030968D01*
X53090522Y-13986849D01*
X52975292Y-14005175D01*
G36*
X51277534Y-14691459D02*
G01*
X51185041Y-14809945D01*
X51202280Y-14935132D01*
X51313137Y-15056650D01*
X51501496Y-15164130D01*
X51751243Y-15247205D01*
X52046263Y-15295504D01*
X52228750Y-15303500D01*
X52541125Y-15288290D01*
X52783676Y-15235604D01*
X52961421Y-15160625D01*
X53141897Y-15053988D01*
X53227138Y-14954122D01*
X53244750Y-14859000D01*
X53198424Y-14726182D01*
X53070214Y-14677296D01*
X52876270Y-14715540D01*
X52767181Y-14764432D01*
X52497914Y-14847233D01*
X52174744Y-14864490D01*
X51851816Y-14817406D01*
X51640050Y-14739422D01*
X51468802Y-14663127D01*
X51359316Y-14651529D01*
X51277534Y-14691459D01*
G37*
X51277534Y-14691459D02*
X51185041Y-14809945D01*
X51202280Y-14935132D01*
X51313137Y-15056650D01*
X51501496Y-15164130D01*
X51751243Y-15247205D01*
X52046263Y-15295504D01*
X52228750Y-15303500D01*
X52541125Y-15288290D01*
X52783676Y-15235604D01*
X52961421Y-15160625D01*
X53141897Y-15053988D01*
X53227138Y-14954122D01*
X53244750Y-14859000D01*
X53198424Y-14726182D01*
X53070214Y-14677296D01*
X52876270Y-14715540D01*
X52767181Y-14764432D01*
X52497914Y-14847233D01*
X52174744Y-14864490D01*
X51851816Y-14817406D01*
X51640050Y-14739422D01*
X51468802Y-14663127D01*
X51359316Y-14651529D01*
X51277534Y-14691459D01*
G36*
X63640833Y-9757843D02*
G01*
X63488885Y-9820159D01*
X63356492Y-9905996D01*
X63253987Y-10002987D01*
X63177603Y-10127754D01*
X63123572Y-10296915D01*
X63088124Y-10527091D01*
X63067492Y-10834902D01*
X63057907Y-11236969D01*
X63055599Y-11731075D01*
X63055500Y-13079901D01*
X62839363Y-13363056D01*
X62645465Y-13709103D01*
X62570371Y-14070731D01*
X62613727Y-14429163D01*
X62775179Y-14765620D01*
X62868059Y-14884531D01*
X63167073Y-15138333D01*
X63507346Y-15278820D01*
X63868900Y-15303046D01*
X64231758Y-15208063D01*
X64411780Y-15112203D01*
X64686437Y-14870322D01*
X64868143Y-14568037D01*
X64954157Y-14231150D01*
X64950804Y-14137823D01*
X64325451Y-14137823D01*
X64246790Y-14369443D01*
X64223456Y-14404930D01*
X64030701Y-14588573D01*
X63799956Y-14652553D01*
X63542814Y-14594126D01*
X63503732Y-14575179D01*
X63332276Y-14423598D01*
X63244518Y-14214281D01*
X63239586Y-13984001D01*
X63316608Y-13769531D01*
X63474709Y-13607647D01*
X63527363Y-13579445D01*
X63688324Y-13506106D01*
X63705287Y-11959988D01*
X63713446Y-11449737D01*
X63725497Y-11030335D01*
X63741001Y-10710325D01*
X63759518Y-10498254D01*
X63780607Y-10402665D01*
X63785750Y-10398060D01*
X63808102Y-10454760D01*
X63827512Y-10633166D01*
X63843702Y-10928014D01*
X63856396Y-11334038D01*
X63865316Y-11845971D01*
X63866267Y-11927465D01*
X63883283Y-13472680D01*
X64104392Y-13681213D01*
X64277797Y-13907269D01*
X64325451Y-14137823D01*
X64950804Y-14137823D01*
X64941737Y-13885468D01*
X64828143Y-13556792D01*
X64610633Y-13270929D01*
X64607673Y-13268138D01*
X64452501Y-13122362D01*
X64452501Y-11696301D01*
X64451807Y-11231260D01*
X64448766Y-10875280D01*
X64441941Y-10610424D01*
X64429892Y-10418756D01*
X64411181Y-10282339D01*
X64384370Y-10183237D01*
X64348020Y-10103513D01*
X64321078Y-10057594D01*
X64131772Y-9853373D01*
X63895199Y-9750654D01*
X63640833Y-9757843D01*
G37*
X63640833Y-9757843D02*
X63488885Y-9820159D01*
X63356492Y-9905996D01*
X63253987Y-10002987D01*
X63177603Y-10127754D01*
X63123572Y-10296915D01*
X63088124Y-10527091D01*
X63067492Y-10834902D01*
X63057907Y-11236969D01*
X63055599Y-11731075D01*
X63055500Y-13079901D01*
X62839363Y-13363056D01*
X62645465Y-13709103D01*
X62570371Y-14070731D01*
X62613727Y-14429163D01*
X62775179Y-14765620D01*
X62868059Y-14884531D01*
X63167073Y-15138333D01*
X63507346Y-15278820D01*
X63868900Y-15303046D01*
X64231758Y-15208063D01*
X64411780Y-15112203D01*
X64686437Y-14870322D01*
X64868143Y-14568037D01*
X64954157Y-14231150D01*
X64950804Y-14137823D01*
X64325451Y-14137823D01*
X64246790Y-14369443D01*
X64223456Y-14404930D01*
X64030701Y-14588573D01*
X63799956Y-14652553D01*
X63542814Y-14594126D01*
X63503732Y-14575179D01*
X63332276Y-14423598D01*
X63244518Y-14214281D01*
X63239586Y-13984001D01*
X63316608Y-13769531D01*
X63474709Y-13607647D01*
X63527363Y-13579445D01*
X63688324Y-13506106D01*
X63705287Y-11959988D01*
X63713446Y-11449737D01*
X63725497Y-11030335D01*
X63741001Y-10710325D01*
X63759518Y-10498254D01*
X63780607Y-10402665D01*
X63785750Y-10398060D01*
X63808102Y-10454760D01*
X63827512Y-10633166D01*
X63843702Y-10928014D01*
X63856396Y-11334038D01*
X63865316Y-11845971D01*
X63866267Y-11927465D01*
X63883283Y-13472680D01*
X64104392Y-13681213D01*
X64277797Y-13907269D01*
X64325451Y-14137823D01*
X64950804Y-14137823D01*
X64941737Y-13885468D01*
X64828143Y-13556792D01*
X64610633Y-13270929D01*
X64607673Y-13268138D01*
X64452501Y-13122362D01*
X64452501Y-11696301D01*
X64451807Y-11231260D01*
X64448766Y-10875280D01*
X64441941Y-10610424D01*
X64429892Y-10418756D01*
X64411181Y-10282339D01*
X64384370Y-10183237D01*
X64348020Y-10103513D01*
X64321078Y-10057594D01*
X64131772Y-9853373D01*
X63895199Y-9750654D01*
X63640833Y-9757843D01*
G36*
X54793185Y-19591356D02*
G01*
X54613512Y-19686338D01*
X54500413Y-19853462D01*
X54459495Y-20055086D01*
X54496367Y-20253571D01*
X54616637Y-20411274D01*
X54666286Y-20443139D01*
X54903970Y-20511812D01*
X55130416Y-20474729D01*
X55303892Y-20343186D01*
X55409046Y-20176375D01*
X55424081Y-20025333D01*
X55352743Y-19836482D01*
X55340947Y-19813346D01*
X55198088Y-19638635D01*
X54998775Y-19571754D01*
X54793185Y-19591356D01*
G37*
X54793185Y-19591356D02*
X54613512Y-19686338D01*
X54500413Y-19853462D01*
X54459495Y-20055086D01*
X54496367Y-20253571D01*
X54616637Y-20411274D01*
X54666286Y-20443139D01*
X54903970Y-20511812D01*
X55130416Y-20474729D01*
X55303892Y-20343186D01*
X55409046Y-20176375D01*
X55424081Y-20025333D01*
X55352743Y-19836482D01*
X55340947Y-19813346D01*
X55198088Y-19638635D01*
X54998775Y-19571754D01*
X54793185Y-19591356D01*
G36*
X53593023Y-18997843D02*
G01*
X53481879Y-19140087D01*
X53383171Y-19298350D01*
X53262152Y-19543679D01*
X53203965Y-19765651D01*
X53189188Y-20031582D01*
X53227551Y-20385326D01*
X53332272Y-20721623D01*
X53487795Y-20998171D01*
X53583660Y-21104391D01*
X53655383Y-21155800D01*
X53724629Y-21150284D01*
X53822784Y-21074726D01*
X53944695Y-20953520D01*
X54192277Y-20699974D01*
X54073743Y-20499311D01*
X53985345Y-20255791D01*
X53963520Y-19974178D01*
X54008635Y-19710534D01*
X54067767Y-19584628D01*
X54124204Y-19484761D01*
X54126714Y-19401988D01*
X54065487Y-19294665D01*
X53970388Y-19171176D01*
X53837659Y-19028970D01*
X53720349Y-18945693D01*
X53672998Y-18935726D01*
X53593023Y-18997843D01*
G37*
X53593023Y-18997843D02*
X53481879Y-19140087D01*
X53383171Y-19298350D01*
X53262152Y-19543679D01*
X53203965Y-19765651D01*
X53189188Y-20031582D01*
X53227551Y-20385326D01*
X53332272Y-20721623D01*
X53487795Y-20998171D01*
X53583660Y-21104391D01*
X53655383Y-21155800D01*
X53724629Y-21150284D01*
X53822784Y-21074726D01*
X53944695Y-20953520D01*
X54192277Y-20699974D01*
X54073743Y-20499311D01*
X53985345Y-20255791D01*
X53963520Y-19974178D01*
X54008635Y-19710534D01*
X54067767Y-19584628D01*
X54124204Y-19484761D01*
X54126714Y-19401988D01*
X54065487Y-19294665D01*
X53970388Y-19171176D01*
X53837659Y-19028970D01*
X53720349Y-18945693D01*
X53672998Y-18935726D01*
X53593023Y-18997843D01*
G36*
X52642079Y-18192392D02*
G01*
X52522506Y-18310750D01*
X52381061Y-18516902D01*
X52235424Y-18777955D01*
X52103276Y-19061020D01*
X52002298Y-19333205D01*
X51973496Y-19436120D01*
X51896244Y-19972817D01*
X51936146Y-20497480D01*
X52073634Y-20981885D01*
X52175863Y-21210087D01*
X52308741Y-21446509D01*
X52451255Y-21659540D01*
X52582394Y-21817568D01*
X52675505Y-21887391D01*
X52752457Y-21857374D01*
X52881773Y-21757251D01*
X52989090Y-21655200D01*
X53236921Y-21401398D01*
X53101063Y-21256783D01*
X52953180Y-21046496D01*
X52816014Y-20759833D01*
X52711357Y-20446936D01*
X52674469Y-20275241D01*
X52667994Y-19899873D01*
X52752662Y-19495704D01*
X52916999Y-19108756D01*
X52998789Y-18974555D01*
X53219887Y-18646004D01*
X52969362Y-18395479D01*
X52802631Y-18250256D01*
X52680877Y-18187908D01*
X52642079Y-18192392D01*
G37*
X52642079Y-18192392D02*
X52522506Y-18310750D01*
X52381061Y-18516902D01*
X52235424Y-18777955D01*
X52103276Y-19061020D01*
X52002298Y-19333205D01*
X51973496Y-19436120D01*
X51896244Y-19972817D01*
X51936146Y-20497480D01*
X52073634Y-20981885D01*
X52175863Y-21210087D01*
X52308741Y-21446509D01*
X52451255Y-21659540D01*
X52582394Y-21817568D01*
X52675505Y-21887391D01*
X52752457Y-21857374D01*
X52881773Y-21757251D01*
X52989090Y-21655200D01*
X53236921Y-21401398D01*
X53101063Y-21256783D01*
X52953180Y-21046496D01*
X52816014Y-20759833D01*
X52711357Y-20446936D01*
X52674469Y-20275241D01*
X52667994Y-19899873D01*
X52752662Y-19495704D01*
X52916999Y-19108756D01*
X52998789Y-18974555D01*
X53219887Y-18646004D01*
X52969362Y-18395479D01*
X52802631Y-18250256D01*
X52680877Y-18187908D01*
X52642079Y-18192392D01*
G36*
X52514500Y-4540250D02*
G01*
X47498000Y-9556448D01*
X47498000Y-23939500D01*
X57594500Y-23939500D01*
X57594500Y-24352250D01*
X57603616Y-24597755D01*
X57632492Y-24729262D01*
X57673875Y-24760249D01*
X57754781Y-24743743D01*
X57941354Y-24699738D01*
X58216298Y-24632504D01*
X58562317Y-24546310D01*
X58962115Y-24445422D01*
X59340750Y-24348886D01*
X60928250Y-23942273D01*
X64246125Y-23940886D01*
X67564000Y-23939500D01*
X67564000Y-9845481D01*
X66865500Y-9845481D01*
X66865500Y-23241000D01*
X61023500Y-23241000D01*
X61023500Y-19812000D01*
X59436000Y-19812000D01*
X59436000Y-20256500D01*
X58420000Y-20256500D01*
X58420000Y-19812000D01*
X59436000Y-19812000D01*
X61023500Y-19812000D01*
X61023500Y-19692912D01*
X61023501Y-16144825D01*
X59341596Y-15724162D01*
X58898805Y-15613702D01*
X58497296Y-15514090D01*
X58153256Y-15429297D01*
X57882872Y-15363295D01*
X57702335Y-15320057D01*
X57627830Y-15303553D01*
X57627096Y-15303500D01*
X57610494Y-15361433D01*
X57598754Y-15513010D01*
X57594500Y-15716250D01*
X57594500Y-16129000D01*
X54546500Y-16129000D01*
X54546500Y-19081750D01*
X55308500Y-19081750D01*
X55308500Y-16891000D01*
X57594500Y-16891000D01*
X57594500Y-23177500D01*
X55308500Y-23177500D01*
X55308500Y-20986750D01*
X54546500Y-20986750D01*
X54546500Y-23241000D01*
X48196500Y-23241000D01*
X48196500Y-16557785D01*
X48196501Y-9874571D01*
X52847714Y-5223035D01*
X53486508Y-4584638D01*
X54100251Y-3972136D01*
X54682969Y-3391446D01*
X55228684Y-2848484D01*
X55731423Y-2349167D01*
X56185209Y-1899411D01*
X56584068Y-1505132D01*
X56922024Y-1172248D01*
X57193101Y-906673D01*
X57391325Y-714326D01*
X57510719Y-601121D01*
X57545603Y-571499D01*
X57595982Y-615465D01*
X57730073Y-743412D01*
X57941893Y-949414D01*
X58225456Y-1227545D01*
X58574778Y-1571881D01*
X58983874Y-1976494D01*
X59446758Y-2435459D01*
X59957446Y-2942851D01*
X60509953Y-3492743D01*
X61098294Y-4079210D01*
X61716484Y-4696327D01*
X62228890Y-5208490D01*
X66865500Y-9845481D01*
X67564000Y-9845481D01*
X67564000Y-9556448D01*
X62547500Y-4540250D01*
X57531000Y475949D01*
X52514500Y-4540250D01*
G37*
X52514500Y-4540250D02*
X47498000Y-9556448D01*
X47498000Y-23939500D01*
X57594500Y-23939500D01*
X57594500Y-24352250D01*
X57603616Y-24597755D01*
X57632492Y-24729262D01*
X57673875Y-24760249D01*
X57754781Y-24743743D01*
X57941354Y-24699738D01*
X58216298Y-24632504D01*
X58562317Y-24546310D01*
X58962115Y-24445422D01*
X59340750Y-24348886D01*
X60928250Y-23942273D01*
X64246125Y-23940886D01*
X67564000Y-23939500D01*
X67564000Y-9845481D01*
X66865500Y-9845481D01*
X66865500Y-23241000D01*
X61023500Y-23241000D01*
X61023500Y-19812000D01*
X59436000Y-19812000D01*
X59436000Y-20256500D01*
X58420000Y-20256500D01*
X58420000Y-19812000D01*
X59436000Y-19812000D01*
X61023500Y-19812000D01*
X61023500Y-19692912D01*
X61023501Y-16144825D01*
X59341596Y-15724162D01*
X58898805Y-15613702D01*
X58497296Y-15514090D01*
X58153256Y-15429297D01*
X57882872Y-15363295D01*
X57702335Y-15320057D01*
X57627830Y-15303553D01*
X57627096Y-15303500D01*
X57610494Y-15361433D01*
X57598754Y-15513010D01*
X57594500Y-15716250D01*
X57594500Y-16129000D01*
X54546500Y-16129000D01*
X54546500Y-19081750D01*
X55308500Y-19081750D01*
X55308500Y-16891000D01*
X57594500Y-16891000D01*
X57594500Y-23177500D01*
X55308500Y-23177500D01*
X55308500Y-20986750D01*
X54546500Y-20986750D01*
X54546500Y-23241000D01*
X48196500Y-23241000D01*
X48196500Y-16557785D01*
X48196501Y-9874571D01*
X52847714Y-5223035D01*
X53486508Y-4584638D01*
X54100251Y-3972136D01*
X54682969Y-3391446D01*
X55228684Y-2848484D01*
X55731423Y-2349167D01*
X56185209Y-1899411D01*
X56584068Y-1505132D01*
X56922024Y-1172248D01*
X57193101Y-906673D01*
X57391325Y-714326D01*
X57510719Y-601121D01*
X57545603Y-571499D01*
X57595982Y-615465D01*
X57730073Y-743412D01*
X57941893Y-949414D01*
X58225456Y-1227545D01*
X58574778Y-1571881D01*
X58983874Y-1976494D01*
X59446758Y-2435459D01*
X59957446Y-2942851D01*
X60509953Y-3492743D01*
X61098294Y-4079210D01*
X61716484Y-4696327D01*
X62228890Y-5208490D01*
X66865500Y-9845481D01*
X67564000Y-9845481D01*
X67564000Y-9556448D01*
X62547500Y-4540250D01*
X57531000Y475949D01*
X52514500Y-4540250D01*
M02*
