G04 #@! TF.GenerationSoftware,KiCad,Pcbnew,5.1.5+dfsg1-2build2*
G04 #@! TF.CreationDate,2020-06-26T22:11:02+02:00*
G04 #@! TF.ProjectId,robo-car-front-shield,726f626f-2d63-4617-922d-66726f6e742d,rev?*
G04 #@! TF.SameCoordinates,Original*
G04 #@! TF.FileFunction,Copper,L1,Top*
G04 #@! TF.FilePolarity,Positive*
%FSLAX46Y46*%
G04 Gerber Fmt 4.6, Leading zero omitted, Abs format (unit mm)*
G04 Created by KiCad (PCBNEW 5.1.5+dfsg1-2build2) date 2020-06-26 22:11:02*
%MOMM*%
%LPD*%
G04 APERTURE LIST*
%ADD10O,1.700000X1.700000*%
%ADD11R,1.700000X1.700000*%
%ADD12C,2.000000*%
%ADD13C,2.900000*%
%ADD14C,1.600000*%
%ADD15O,1.600000X1.600000*%
%ADD16C,2.000000*%
%ADD17C,0.500000*%
G04 APERTURE END LIST*
D10*
X35513000Y-14680000D03*
X38053000Y-14680000D03*
X40593000Y-14680000D03*
X43133000Y-14680000D03*
X45673000Y-14680000D03*
X48213000Y-14680000D03*
D11*
X50753000Y-14680000D03*
D12*
X68279000Y-21443000D03*
X70819000Y-21443000D03*
X73359000Y-21443000D03*
D13*
X70819000Y-6679000D03*
D12*
X40556000Y-21443000D03*
X43096000Y-21443000D03*
X45636000Y-21443000D03*
D13*
X43096000Y-6679000D03*
X13288000Y-6679000D03*
D12*
X15828000Y-21443000D03*
X13288000Y-21443000D03*
X10748000Y-21443000D03*
D11*
X39450000Y-10489000D03*
D10*
X41990000Y-10489000D03*
X44530000Y-10489000D03*
X47070000Y-10489000D03*
D14*
X66882000Y-16966000D03*
D15*
X74502000Y-16966000D03*
X39069000Y-18363000D03*
D14*
X46689000Y-18363000D03*
X16971000Y-17347000D03*
D15*
X9351000Y-17347000D03*
D16*
X42310212Y-23643001D02*
X39499999Y-23643001D01*
X43096000Y-22857213D02*
X42310212Y-23643001D01*
X13288000Y-22857213D02*
X14127787Y-23697000D01*
X13288000Y-21443000D02*
X13288000Y-22857213D01*
X14127787Y-23697000D02*
X32211000Y-23697000D01*
X32211000Y-23697000D02*
X35640000Y-20268000D01*
X39499999Y-23643001D02*
X35640000Y-20268000D01*
X70819000Y-22857213D02*
X70819000Y-21443000D01*
X43881788Y-23643001D02*
X70033212Y-23643001D01*
X43096000Y-22857213D02*
X43881788Y-23643001D01*
X70033212Y-23643001D02*
X70819000Y-22857213D01*
X43096000Y-21443000D02*
X43096000Y-22857213D01*
X35513000Y-19656002D02*
X35640000Y-20268000D01*
X35513000Y-14680000D02*
X35513000Y-19656002D01*
D17*
X40593000Y-14426000D02*
X40593000Y-14680000D01*
X44530000Y-10489000D02*
X40593000Y-14426000D01*
X38053000Y-14426000D02*
X38053000Y-14680000D01*
X41990000Y-10489000D02*
X38053000Y-14426000D01*
X46689000Y-18363000D02*
X45673000Y-17347000D01*
X45673000Y-17347000D02*
X45673000Y-14680000D01*
X50499000Y-16966000D02*
X48213000Y-14680000D01*
X66882000Y-16966000D02*
X50499000Y-16966000D01*
X72756000Y-16966000D02*
X74502000Y-16966000D01*
X68279000Y-21443000D02*
X72756000Y-16966000D01*
X39069000Y-19956000D02*
X39069000Y-18363000D01*
X40556000Y-21443000D02*
X39069000Y-19956000D01*
X9748001Y-20443001D02*
X9748001Y-20411001D01*
X10748000Y-21443000D02*
X9748001Y-20443001D01*
X9351000Y-20014000D02*
X9351000Y-17347000D01*
X9748001Y-20411001D02*
X9351000Y-20014000D01*
M02*
