M48
INCH,TZ
T1C0.0315
T2C0.0354
T3C0.0394
T4C0.1024
%
G90
G05
T1
X3681Y-6830
X6681Y-6830
X15381Y-7230
X18381Y-7230
X26331Y-6680
X29331Y-6680
T2
X26881Y-8442
X27881Y-8442
X28881Y-8442
X15967Y-8442
X16967Y-8442
X17967Y-8442
X4231Y-8442
X5231Y-8442
X6231Y-8442
T3
X13981Y-5780
X14981Y-5780
X15981Y-5780
X16981Y-5780
X17981Y-5780
X18981Y-5780
X19981Y-5780
X15531Y-4130
X16531Y-4130
X17531Y-4130
X18531Y-4130
T4
X27881Y-2630
X16967Y-2630
X5231Y-2630
T0
M30
