M48
; DRILL file {KiCad 5.1.4-e60b266~84~ubuntu18.04.1} date di 03 sep 2019 20:07:55 CEST
; FORMAT={2:4/ absolute / inch / suppress leading zeros}
; #@! TF.CreationDate,2019-09-03T20:07:55+02:00
; #@! TF.GenerationSoftware,Kicad,Pcbnew,5.1.4-e60b266~84~ubuntu18.04.1
; #@! TF.FileFunction,Plated,1,2,PTH
FMAT,2
INCH,TZ
T1C0.0157
T2C0.0315
T3C0.0374
T4C0.0394
%
G90
G05
T1
X24000Y-26400
X26400Y-14400
X27000Y-13800
T2
X25500Y-24400
X28500Y-24400
X25500Y-21800
X28500Y-21800
X25500Y-23100
X28500Y-23100
X30400Y-13800
X30400Y-14784
X25500Y-25700
X28500Y-25700
X25500Y-20500
X28500Y-20500
T3
X21931Y-14300
X22916Y-14300
X23900Y-14300
X32400Y-21331
X32400Y-22316
X32400Y-23300
X32400Y-26031
X32400Y-27016
X32400Y-28000
X32400Y-16531
X32400Y-17516
X32400Y-18500
T4
X17200Y-27800
X18200Y-27800
X19200Y-27800
X19200Y-23400
X19200Y-24400
X19200Y-25400
X19200Y-26400
X21000Y-19500
X21000Y-20500
X21000Y-21500
X21000Y-22500
X21000Y-23500
X21000Y-24500
X21000Y-25500
X21000Y-26500
X30000Y-19500
X30000Y-20500
X30000Y-21500
X30000Y-22500
X30000Y-23500
X30000Y-24500
X30000Y-25500
X30000Y-26500
X17200Y-22400
X17200Y-23400
X17200Y-24400
X17200Y-25400
X17200Y-26400
X18200Y-23400
X18200Y-24400
X18200Y-25400
X18200Y-26400
T0
M30
