G04 #@! TF.GenerationSoftware,KiCad,Pcbnew,5.1.4-e60b266~84~ubuntu18.04.1*
G04 #@! TF.CreationDate,2019-09-03T20:05:05+02:00*
G04 #@! TF.ProjectId,multisensor,6d756c74-6973-4656-9e73-6f722e6b6963,rev?*
G04 #@! TF.SameCoordinates,Original*
G04 #@! TF.FileFunction,Legend,Top*
G04 #@! TF.FilePolarity,Positive*
%FSLAX46Y46*%
G04 Gerber Fmt 4.6, Leading zero omitted, Abs format (unit mm)*
G04 Created by KiCad (PCBNEW 5.1.4-e60b266~84~ubuntu18.04.1) date 2019-09-03 20:05:05*
%MOMM*%
%LPD*%
G04 APERTURE LIST*
%ADD10C,0.150000*%
%ADD11C,0.120000*%
G04 APERTURE END LIST*
D10*
X52888190Y-32456380D02*
X52888190Y-31456380D01*
X53221523Y-32170666D01*
X53554857Y-31456380D01*
X53554857Y-32456380D01*
X53983428Y-32170666D02*
X54459619Y-32170666D01*
X53888190Y-32456380D02*
X54221523Y-31456380D01*
X54554857Y-32456380D01*
X54792952Y-31456380D02*
X55459619Y-32456380D01*
X55459619Y-31456380D02*
X54792952Y-32456380D01*
X56650095Y-32456380D02*
X56840571Y-32456380D01*
X56935809Y-32408761D01*
X56983428Y-32361142D01*
X57078666Y-32218285D01*
X57126285Y-32027809D01*
X57126285Y-31646857D01*
X57078666Y-31551619D01*
X57031047Y-31504000D01*
X56935809Y-31456380D01*
X56745333Y-31456380D01*
X56650095Y-31504000D01*
X56602476Y-31551619D01*
X56554857Y-31646857D01*
X56554857Y-31884952D01*
X56602476Y-31980190D01*
X56650095Y-32027809D01*
X56745333Y-32075428D01*
X56935809Y-32075428D01*
X57031047Y-32027809D01*
X57078666Y-31980190D01*
X57126285Y-31884952D01*
X58316761Y-32456380D02*
X58316761Y-31456380D01*
X58697714Y-31456380D01*
X58792952Y-31504000D01*
X58840571Y-31551619D01*
X58888190Y-31646857D01*
X58888190Y-31789714D01*
X58840571Y-31884952D01*
X58792952Y-31932571D01*
X58697714Y-31980190D01*
X58316761Y-31980190D01*
X59316761Y-32456380D02*
X59316761Y-31456380D01*
X59697714Y-31456380D02*
X60364380Y-32456380D01*
X60364380Y-31456380D02*
X59697714Y-32456380D01*
X60745333Y-31932571D02*
X61078666Y-31932571D01*
X61221523Y-32456380D02*
X60745333Y-32456380D01*
X60745333Y-31456380D01*
X61221523Y-31456380D01*
X62126285Y-32456380D02*
X61650095Y-32456380D01*
X61650095Y-31456380D01*
X62412000Y-32408761D02*
X62554857Y-32456380D01*
X62792952Y-32456380D01*
X62888190Y-32408761D01*
X62935809Y-32361142D01*
X62983428Y-32265904D01*
X62983428Y-32170666D01*
X62935809Y-32075428D01*
X62888190Y-32027809D01*
X62792952Y-31980190D01*
X62602476Y-31932571D01*
X62507238Y-31884952D01*
X62459619Y-31837333D01*
X62412000Y-31742095D01*
X62412000Y-31646857D01*
X62459619Y-31551619D01*
X62507238Y-31504000D01*
X62602476Y-31456380D01*
X62840571Y-31456380D01*
X62983428Y-31504000D01*
X57856380Y-73468000D02*
X56856380Y-73468000D01*
X57856380Y-73039428D02*
X57332571Y-73039428D01*
X57237333Y-73087047D01*
X57189714Y-73182285D01*
X57189714Y-73325142D01*
X57237333Y-73420380D01*
X57284952Y-73468000D01*
X57189714Y-72706095D02*
X57189714Y-72325142D01*
X56856380Y-72563238D02*
X57713523Y-72563238D01*
X57808761Y-72515619D01*
X57856380Y-72420380D01*
X57856380Y-72325142D01*
X57189714Y-72134666D02*
X57189714Y-71753714D01*
X56856380Y-71991809D02*
X57713523Y-71991809D01*
X57808761Y-71944190D01*
X57856380Y-71848952D01*
X57856380Y-71753714D01*
X57189714Y-71420380D02*
X58189714Y-71420380D01*
X57237333Y-71420380D02*
X57189714Y-71325142D01*
X57189714Y-71134666D01*
X57237333Y-71039428D01*
X57284952Y-70991809D01*
X57380190Y-70944190D01*
X57665904Y-70944190D01*
X57761142Y-70991809D01*
X57808761Y-71039428D01*
X57856380Y-71134666D01*
X57856380Y-71325142D01*
X57808761Y-71420380D01*
X57808761Y-70563238D02*
X57856380Y-70468000D01*
X57856380Y-70277523D01*
X57808761Y-70182285D01*
X57713523Y-70134666D01*
X57665904Y-70134666D01*
X57570666Y-70182285D01*
X57523047Y-70277523D01*
X57523047Y-70420380D01*
X57475428Y-70515619D01*
X57380190Y-70563238D01*
X57332571Y-70563238D01*
X57237333Y-70515619D01*
X57189714Y-70420380D01*
X57189714Y-70277523D01*
X57237333Y-70182285D01*
X57761142Y-69706095D02*
X57808761Y-69658476D01*
X57856380Y-69706095D01*
X57808761Y-69753714D01*
X57761142Y-69706095D01*
X57856380Y-69706095D01*
X57237333Y-69706095D02*
X57284952Y-69658476D01*
X57332571Y-69706095D01*
X57284952Y-69753714D01*
X57237333Y-69706095D01*
X57332571Y-69706095D01*
X56808761Y-68515619D02*
X58094476Y-69372761D01*
X56808761Y-67468000D02*
X58094476Y-68325142D01*
X57189714Y-66706095D02*
X57999238Y-66706095D01*
X58094476Y-66753714D01*
X58142095Y-66801333D01*
X58189714Y-66896571D01*
X58189714Y-67039428D01*
X58142095Y-67134666D01*
X57808761Y-66706095D02*
X57856380Y-66801333D01*
X57856380Y-66991809D01*
X57808761Y-67087047D01*
X57761142Y-67134666D01*
X57665904Y-67182285D01*
X57380190Y-67182285D01*
X57284952Y-67134666D01*
X57237333Y-67087047D01*
X57189714Y-66991809D01*
X57189714Y-66801333D01*
X57237333Y-66706095D01*
X57856380Y-66229904D02*
X57189714Y-66229904D01*
X56856380Y-66229904D02*
X56904000Y-66277523D01*
X56951619Y-66229904D01*
X56904000Y-66182285D01*
X56856380Y-66229904D01*
X56951619Y-66229904D01*
X57189714Y-65896571D02*
X57189714Y-65515619D01*
X56856380Y-65753714D02*
X57713523Y-65753714D01*
X57808761Y-65706095D01*
X57856380Y-65610857D01*
X57856380Y-65515619D01*
X57856380Y-65182285D02*
X56856380Y-65182285D01*
X57856380Y-64753714D02*
X57332571Y-64753714D01*
X57237333Y-64801333D01*
X57189714Y-64896571D01*
X57189714Y-65039428D01*
X57237333Y-65134666D01*
X57284952Y-65182285D01*
X57189714Y-63848952D02*
X57856380Y-63848952D01*
X57189714Y-64277523D02*
X57713523Y-64277523D01*
X57808761Y-64229904D01*
X57856380Y-64134666D01*
X57856380Y-63991809D01*
X57808761Y-63896571D01*
X57761142Y-63848952D01*
X57856380Y-63372761D02*
X56856380Y-63372761D01*
X57237333Y-63372761D02*
X57189714Y-63277523D01*
X57189714Y-63087047D01*
X57237333Y-62991809D01*
X57284952Y-62944190D01*
X57380190Y-62896571D01*
X57665904Y-62896571D01*
X57761142Y-62944190D01*
X57808761Y-62991809D01*
X57856380Y-63087047D01*
X57856380Y-63277523D01*
X57808761Y-63372761D01*
X57761142Y-62468000D02*
X57808761Y-62420380D01*
X57856380Y-62468000D01*
X57808761Y-62515619D01*
X57761142Y-62468000D01*
X57856380Y-62468000D01*
X57808761Y-61563238D02*
X57856380Y-61658476D01*
X57856380Y-61848952D01*
X57808761Y-61944190D01*
X57761142Y-61991809D01*
X57665904Y-62039428D01*
X57380190Y-62039428D01*
X57284952Y-61991809D01*
X57237333Y-61944190D01*
X57189714Y-61848952D01*
X57189714Y-61658476D01*
X57237333Y-61563238D01*
X57856380Y-60991809D02*
X57808761Y-61087047D01*
X57761142Y-61134666D01*
X57665904Y-61182285D01*
X57380190Y-61182285D01*
X57284952Y-61134666D01*
X57237333Y-61087047D01*
X57189714Y-60991809D01*
X57189714Y-60848952D01*
X57237333Y-60753714D01*
X57284952Y-60706095D01*
X57380190Y-60658476D01*
X57665904Y-60658476D01*
X57761142Y-60706095D01*
X57808761Y-60753714D01*
X57856380Y-60848952D01*
X57856380Y-60991809D01*
X57856380Y-60229904D02*
X57189714Y-60229904D01*
X57284952Y-60229904D02*
X57237333Y-60182285D01*
X57189714Y-60087047D01*
X57189714Y-59944190D01*
X57237333Y-59848952D01*
X57332571Y-59801333D01*
X57856380Y-59801333D01*
X57332571Y-59801333D02*
X57237333Y-59753714D01*
X57189714Y-59658476D01*
X57189714Y-59515619D01*
X57237333Y-59420380D01*
X57332571Y-59372761D01*
X57856380Y-59372761D01*
X56808761Y-58182285D02*
X58094476Y-59039428D01*
X57856380Y-57848952D02*
X56856380Y-57848952D01*
X57570666Y-57515619D01*
X56856380Y-57182285D01*
X57856380Y-57182285D01*
X57856380Y-56277523D02*
X57332571Y-56277523D01*
X57237333Y-56325142D01*
X57189714Y-56420380D01*
X57189714Y-56610857D01*
X57237333Y-56706095D01*
X57808761Y-56277523D02*
X57856380Y-56372761D01*
X57856380Y-56610857D01*
X57808761Y-56706095D01*
X57713523Y-56753714D01*
X57618285Y-56753714D01*
X57523047Y-56706095D01*
X57475428Y-56610857D01*
X57475428Y-56372761D01*
X57427809Y-56277523D01*
X57856380Y-55801333D02*
X57189714Y-55801333D01*
X57380190Y-55801333D02*
X57284952Y-55753714D01*
X57237333Y-55706095D01*
X57189714Y-55610857D01*
X57189714Y-55515619D01*
X57808761Y-54753714D02*
X57856380Y-54848952D01*
X57856380Y-55039428D01*
X57808761Y-55134666D01*
X57761142Y-55182285D01*
X57665904Y-55229904D01*
X57380190Y-55229904D01*
X57284952Y-55182285D01*
X57237333Y-55134666D01*
X57189714Y-55039428D01*
X57189714Y-54848952D01*
X57237333Y-54753714D01*
X56856380Y-54420380D02*
X57856380Y-54182285D01*
X57142095Y-53991809D01*
X57856380Y-53801333D01*
X56856380Y-53563238D01*
X57856380Y-52753714D02*
X57332571Y-52753714D01*
X57237333Y-52801333D01*
X57189714Y-52896571D01*
X57189714Y-53087047D01*
X57237333Y-53182285D01*
X57808761Y-52753714D02*
X57856380Y-52848952D01*
X57856380Y-53087047D01*
X57808761Y-53182285D01*
X57713523Y-53229904D01*
X57618285Y-53229904D01*
X57523047Y-53182285D01*
X57475428Y-53087047D01*
X57475428Y-52848952D01*
X57427809Y-52753714D01*
X57189714Y-51848952D02*
X57999238Y-51848952D01*
X58094476Y-51896571D01*
X58142095Y-51944190D01*
X58189714Y-52039428D01*
X58189714Y-52182285D01*
X58142095Y-52277523D01*
X57808761Y-51848952D02*
X57856380Y-51944190D01*
X57856380Y-52134666D01*
X57808761Y-52229904D01*
X57761142Y-52277523D01*
X57665904Y-52325142D01*
X57380190Y-52325142D01*
X57284952Y-52277523D01*
X57237333Y-52229904D01*
X57189714Y-52134666D01*
X57189714Y-51944190D01*
X57237333Y-51848952D01*
X57189714Y-51372761D02*
X57856380Y-51372761D01*
X57284952Y-51372761D02*
X57237333Y-51325142D01*
X57189714Y-51229904D01*
X57189714Y-51087047D01*
X57237333Y-50991809D01*
X57332571Y-50944190D01*
X57856380Y-50944190D01*
X57808761Y-50087047D02*
X57856380Y-50182285D01*
X57856380Y-50372761D01*
X57808761Y-50468000D01*
X57713523Y-50515619D01*
X57332571Y-50515619D01*
X57237333Y-50468000D01*
X57189714Y-50372761D01*
X57189714Y-50182285D01*
X57237333Y-50087047D01*
X57332571Y-50039428D01*
X57427809Y-50039428D01*
X57523047Y-50515619D01*
X57856380Y-49610857D02*
X57189714Y-49610857D01*
X57380190Y-49610857D02*
X57284952Y-49563238D01*
X57237333Y-49515619D01*
X57189714Y-49420380D01*
X57189714Y-49325142D01*
X86828380Y-49846857D02*
X86828380Y-49275428D01*
X87828380Y-49561142D02*
X86828380Y-49561142D01*
X87304571Y-48942095D02*
X87304571Y-48608761D01*
X87828380Y-48465904D02*
X87828380Y-48942095D01*
X86828380Y-48942095D01*
X86828380Y-48465904D01*
X87828380Y-48037333D02*
X86828380Y-48037333D01*
X87542666Y-47704000D01*
X86828380Y-47370666D01*
X87828380Y-47370666D01*
X87828380Y-46894476D02*
X86828380Y-46894476D01*
X86828380Y-46513523D01*
X86876000Y-46418285D01*
X86923619Y-46370666D01*
X87018857Y-46323047D01*
X87161714Y-46323047D01*
X87256952Y-46370666D01*
X87304571Y-46418285D01*
X87352190Y-46513523D01*
X87352190Y-46894476D01*
X87923619Y-46132571D02*
X87923619Y-45370666D01*
X87780761Y-45180190D02*
X87828380Y-45037333D01*
X87828380Y-44799238D01*
X87780761Y-44704000D01*
X87733142Y-44656380D01*
X87637904Y-44608761D01*
X87542666Y-44608761D01*
X87447428Y-44656380D01*
X87399809Y-44704000D01*
X87352190Y-44799238D01*
X87304571Y-44989714D01*
X87256952Y-45084952D01*
X87209333Y-45132571D01*
X87114095Y-45180190D01*
X87018857Y-45180190D01*
X86923619Y-45132571D01*
X86876000Y-45084952D01*
X86828380Y-44989714D01*
X86828380Y-44751619D01*
X86876000Y-44608761D01*
X87304571Y-44180190D02*
X87304571Y-43846857D01*
X87828380Y-43704000D02*
X87828380Y-44180190D01*
X86828380Y-44180190D01*
X86828380Y-43704000D01*
X87828380Y-43275428D02*
X86828380Y-43275428D01*
X87828380Y-42704000D01*
X86828380Y-42704000D01*
X87780761Y-42275428D02*
X87828380Y-42132571D01*
X87828380Y-41894476D01*
X87780761Y-41799238D01*
X87733142Y-41751619D01*
X87637904Y-41704000D01*
X87542666Y-41704000D01*
X87447428Y-41751619D01*
X87399809Y-41799238D01*
X87352190Y-41894476D01*
X87304571Y-42084952D01*
X87256952Y-42180190D01*
X87209333Y-42227809D01*
X87114095Y-42275428D01*
X87018857Y-42275428D01*
X86923619Y-42227809D01*
X86876000Y-42180190D01*
X86828380Y-42084952D01*
X86828380Y-41846857D01*
X86876000Y-41704000D01*
X86828380Y-41084952D02*
X86828380Y-40894476D01*
X86876000Y-40799238D01*
X86971238Y-40704000D01*
X87161714Y-40656380D01*
X87495047Y-40656380D01*
X87685523Y-40704000D01*
X87780761Y-40799238D01*
X87828380Y-40894476D01*
X87828380Y-41084952D01*
X87780761Y-41180190D01*
X87685523Y-41275428D01*
X87495047Y-41323047D01*
X87161714Y-41323047D01*
X86971238Y-41275428D01*
X86876000Y-41180190D01*
X86828380Y-41084952D01*
X87828380Y-39656380D02*
X87352190Y-39989714D01*
X87828380Y-40227809D02*
X86828380Y-40227809D01*
X86828380Y-39846857D01*
X86876000Y-39751619D01*
X86923619Y-39704000D01*
X87018857Y-39656380D01*
X87161714Y-39656380D01*
X87256952Y-39704000D01*
X87304571Y-39751619D01*
X87352190Y-39846857D01*
X87352190Y-40227809D01*
X87828380Y-58991238D02*
X86828380Y-58991238D01*
X87542666Y-58657904D01*
X86828380Y-58324571D01*
X87828380Y-58324571D01*
X87828380Y-57848380D02*
X86828380Y-57848380D01*
X87733142Y-56800761D02*
X87780761Y-56848380D01*
X87828380Y-56991238D01*
X87828380Y-57086476D01*
X87780761Y-57229333D01*
X87685523Y-57324571D01*
X87590285Y-57372190D01*
X87399809Y-57419809D01*
X87256952Y-57419809D01*
X87066476Y-57372190D01*
X86971238Y-57324571D01*
X86876000Y-57229333D01*
X86828380Y-57086476D01*
X86828380Y-56991238D01*
X86876000Y-56848380D01*
X86923619Y-56800761D01*
X87828380Y-55800761D02*
X87352190Y-56134095D01*
X87828380Y-56372190D02*
X86828380Y-56372190D01*
X86828380Y-55991238D01*
X86876000Y-55896000D01*
X86923619Y-55848380D01*
X87018857Y-55800761D01*
X87161714Y-55800761D01*
X87256952Y-55848380D01*
X87304571Y-55896000D01*
X87352190Y-55991238D01*
X87352190Y-56372190D01*
X86828380Y-55181714D02*
X86828380Y-54991238D01*
X86876000Y-54896000D01*
X86971238Y-54800761D01*
X87161714Y-54753142D01*
X87495047Y-54753142D01*
X87685523Y-54800761D01*
X87780761Y-54896000D01*
X87828380Y-54991238D01*
X87828380Y-55181714D01*
X87780761Y-55276952D01*
X87685523Y-55372190D01*
X87495047Y-55419809D01*
X87161714Y-55419809D01*
X86971238Y-55372190D01*
X86876000Y-55276952D01*
X86828380Y-55181714D01*
X87828380Y-69580000D02*
X86828380Y-69580000D01*
X86828380Y-69199047D01*
X86876000Y-69103809D01*
X86923619Y-69056190D01*
X87018857Y-69008571D01*
X87161714Y-69008571D01*
X87256952Y-69056190D01*
X87304571Y-69103809D01*
X87352190Y-69199047D01*
X87352190Y-69580000D01*
X87828380Y-68580000D02*
X86828380Y-68580000D01*
X87828380Y-67532380D02*
X87352190Y-67865714D01*
X87828380Y-68103809D02*
X86828380Y-68103809D01*
X86828380Y-67722857D01*
X86876000Y-67627619D01*
X86923619Y-67580000D01*
X87018857Y-67532380D01*
X87161714Y-67532380D01*
X87256952Y-67580000D01*
X87304571Y-67627619D01*
X87352190Y-67722857D01*
X87352190Y-68103809D01*
X43188000Y-53847047D02*
X43140380Y-53942285D01*
X43140380Y-54085142D01*
X43188000Y-54228000D01*
X43283238Y-54323238D01*
X43378476Y-54370857D01*
X43568952Y-54418476D01*
X43711809Y-54418476D01*
X43902285Y-54370857D01*
X43997523Y-54323238D01*
X44092761Y-54228000D01*
X44140380Y-54085142D01*
X44140380Y-53989904D01*
X44092761Y-53847047D01*
X44045142Y-53799428D01*
X43711809Y-53799428D01*
X43711809Y-53989904D01*
X44140380Y-53370857D02*
X43140380Y-53370857D01*
X43140380Y-52989904D01*
X43188000Y-52894666D01*
X43235619Y-52847047D01*
X43330857Y-52799428D01*
X43473714Y-52799428D01*
X43568952Y-52847047D01*
X43616571Y-52894666D01*
X43664190Y-52989904D01*
X43664190Y-53370857D01*
X44140380Y-52370857D02*
X43140380Y-52370857D01*
X43140380Y-51704190D02*
X43140380Y-51513714D01*
X43188000Y-51418476D01*
X43283238Y-51323238D01*
X43473714Y-51275619D01*
X43807047Y-51275619D01*
X43997523Y-51323238D01*
X44092761Y-51418476D01*
X44140380Y-51513714D01*
X44140380Y-51704190D01*
X44092761Y-51799428D01*
X43997523Y-51894666D01*
X43807047Y-51942285D01*
X43473714Y-51942285D01*
X43283238Y-51894666D01*
X43188000Y-51799428D01*
X43140380Y-51704190D01*
X44140380Y-49561333D02*
X44140380Y-50132761D01*
X44140380Y-49847047D02*
X43140380Y-49847047D01*
X43283238Y-49942285D01*
X43378476Y-50037523D01*
X43426095Y-50132761D01*
X43140380Y-48704190D02*
X43140380Y-48894666D01*
X43188000Y-48989904D01*
X43235619Y-49037523D01*
X43378476Y-49132761D01*
X43568952Y-49180380D01*
X43949904Y-49180380D01*
X44045142Y-49132761D01*
X44092761Y-49085142D01*
X44140380Y-48989904D01*
X44140380Y-48799428D01*
X44092761Y-48704190D01*
X44045142Y-48656571D01*
X43949904Y-48608952D01*
X43711809Y-48608952D01*
X43616571Y-48656571D01*
X43568952Y-48704190D01*
X43521333Y-48799428D01*
X43521333Y-48989904D01*
X43568952Y-49085142D01*
X43616571Y-49132761D01*
X43711809Y-49180380D01*
X44140380Y-46894666D02*
X44140380Y-47466095D01*
X44140380Y-47180380D02*
X43140380Y-47180380D01*
X43283238Y-47275619D01*
X43378476Y-47370857D01*
X43426095Y-47466095D01*
X43473714Y-46037523D02*
X44140380Y-46037523D01*
X43092761Y-46275619D02*
X43807047Y-46513714D01*
X43807047Y-45894666D01*
X44140380Y-44228000D02*
X44140380Y-44799428D01*
X44140380Y-44513714D02*
X43140380Y-44513714D01*
X43283238Y-44608952D01*
X43378476Y-44704190D01*
X43426095Y-44799428D01*
X43140380Y-43894666D02*
X43140380Y-43275619D01*
X43521333Y-43608952D01*
X43521333Y-43466095D01*
X43568952Y-43370857D01*
X43616571Y-43323238D01*
X43711809Y-43275619D01*
X43949904Y-43275619D01*
X44045142Y-43323238D01*
X44092761Y-43370857D01*
X44140380Y-43466095D01*
X44140380Y-43751809D01*
X44092761Y-43847047D01*
X44045142Y-43894666D01*
X44140380Y-41561333D02*
X44140380Y-42132761D01*
X44140380Y-41847047D02*
X43140380Y-41847047D01*
X43283238Y-41942285D01*
X43378476Y-42037523D01*
X43426095Y-42132761D01*
X43235619Y-41180380D02*
X43188000Y-41132761D01*
X43140380Y-41037523D01*
X43140380Y-40799428D01*
X43188000Y-40704190D01*
X43235619Y-40656571D01*
X43330857Y-40608952D01*
X43426095Y-40608952D01*
X43568952Y-40656571D01*
X44140380Y-41228000D01*
X44140380Y-40608952D01*
X43854666Y-39466095D02*
X43854666Y-38989904D01*
X44140380Y-39561333D02*
X43140380Y-39228000D01*
X44140380Y-38894666D01*
X43140380Y-38370857D02*
X43140380Y-38275619D01*
X43188000Y-38180380D01*
X43235619Y-38132761D01*
X43330857Y-38085142D01*
X43521333Y-38037523D01*
X43759428Y-38037523D01*
X43949904Y-38085142D01*
X44045142Y-38132761D01*
X44092761Y-38180380D01*
X44140380Y-38275619D01*
X44140380Y-38370857D01*
X44092761Y-38466095D01*
X44045142Y-38513714D01*
X43949904Y-38561333D01*
X43759428Y-38608952D01*
X43521333Y-38608952D01*
X43330857Y-38561333D01*
X43235619Y-38513714D01*
X43188000Y-38466095D01*
X43140380Y-38370857D01*
X48268000Y-56641904D02*
X48220380Y-56737142D01*
X48220380Y-56880000D01*
X48268000Y-57022857D01*
X48363238Y-57118095D01*
X48458476Y-57165714D01*
X48648952Y-57213333D01*
X48791809Y-57213333D01*
X48982285Y-57165714D01*
X49077523Y-57118095D01*
X49172761Y-57022857D01*
X49220380Y-56880000D01*
X49220380Y-56784761D01*
X49172761Y-56641904D01*
X49125142Y-56594285D01*
X48791809Y-56594285D01*
X48791809Y-56784761D01*
X49220380Y-56165714D02*
X48220380Y-56165714D01*
X49220380Y-55594285D01*
X48220380Y-55594285D01*
X49220380Y-55118095D02*
X48220380Y-55118095D01*
X48220380Y-54880000D01*
X48268000Y-54737142D01*
X48363238Y-54641904D01*
X48458476Y-54594285D01*
X48648952Y-54546666D01*
X48791809Y-54546666D01*
X48982285Y-54594285D01*
X49077523Y-54641904D01*
X49172761Y-54737142D01*
X49220380Y-54880000D01*
X49220380Y-55118095D01*
X46680380Y-57173523D02*
X45680380Y-57173523D01*
X45680380Y-56792571D01*
X45728000Y-56697333D01*
X45775619Y-56649714D01*
X45870857Y-56602095D01*
X46013714Y-56602095D01*
X46108952Y-56649714D01*
X46156571Y-56697333D01*
X46204190Y-56792571D01*
X46204190Y-57173523D01*
X45680380Y-55983047D02*
X45680380Y-55792571D01*
X45728000Y-55697333D01*
X45823238Y-55602095D01*
X46013714Y-55554476D01*
X46347047Y-55554476D01*
X46537523Y-55602095D01*
X46632761Y-55697333D01*
X46680380Y-55792571D01*
X46680380Y-55983047D01*
X46632761Y-56078285D01*
X46537523Y-56173523D01*
X46347047Y-56221142D01*
X46013714Y-56221142D01*
X45823238Y-56173523D01*
X45728000Y-56078285D01*
X45680380Y-55983047D01*
X45680380Y-55221142D02*
X46680380Y-54983047D01*
X45966095Y-54792571D01*
X46680380Y-54602095D01*
X45680380Y-54364000D01*
X46156571Y-53983047D02*
X46156571Y-53649714D01*
X46680380Y-53506857D02*
X46680380Y-53983047D01*
X45680380Y-53983047D01*
X45680380Y-53506857D01*
X46680380Y-52506857D02*
X46204190Y-52840190D01*
X46680380Y-53078285D02*
X45680380Y-53078285D01*
X45680380Y-52697333D01*
X45728000Y-52602095D01*
X45775619Y-52554476D01*
X45870857Y-52506857D01*
X46013714Y-52506857D01*
X46108952Y-52554476D01*
X46156571Y-52602095D01*
X46204190Y-52697333D01*
X46204190Y-53078285D01*
X48577523Y-74128380D02*
X48101333Y-74128380D01*
X48053714Y-74604571D01*
X48101333Y-74556952D01*
X48196571Y-74509333D01*
X48434666Y-74509333D01*
X48529904Y-74556952D01*
X48577523Y-74604571D01*
X48625142Y-74699809D01*
X48625142Y-74937904D01*
X48577523Y-75033142D01*
X48529904Y-75080761D01*
X48434666Y-75128380D01*
X48196571Y-75128380D01*
X48101333Y-75080761D01*
X48053714Y-75033142D01*
X48910857Y-74128380D02*
X49244190Y-75128380D01*
X49577523Y-74128380D01*
X41941904Y-74128380D02*
X42560952Y-74128380D01*
X42227619Y-74509333D01*
X42370476Y-74509333D01*
X42465714Y-74556952D01*
X42513333Y-74604571D01*
X42560952Y-74699809D01*
X42560952Y-74937904D01*
X42513333Y-75033142D01*
X42465714Y-75080761D01*
X42370476Y-75128380D01*
X42084761Y-75128380D01*
X41989523Y-75080761D01*
X41941904Y-75033142D01*
X42846666Y-74128380D02*
X43180000Y-75128380D01*
X43513333Y-74128380D01*
X43751428Y-74128380D02*
X44370476Y-74128380D01*
X44037142Y-74509333D01*
X44180000Y-74509333D01*
X44275238Y-74556952D01*
X44322857Y-74604571D01*
X44370476Y-74699809D01*
X44370476Y-74937904D01*
X44322857Y-75033142D01*
X44275238Y-75080761D01*
X44180000Y-75128380D01*
X43894285Y-75128380D01*
X43799047Y-75080761D01*
X43751428Y-75033142D01*
D11*
X80486000Y-36302000D02*
G75*
G03X80486000Y-36302000I-3270000J0D01*
G01*
X80446000Y-36302000D02*
X73986000Y-36302000D01*
X80446000Y-36342000D02*
X73986000Y-36342000D01*
X80446000Y-36382000D02*
X73986000Y-36382000D01*
X80444000Y-36422000D02*
X73988000Y-36422000D01*
X80443000Y-36462000D02*
X73989000Y-36462000D01*
X80440000Y-36502000D02*
X73992000Y-36502000D01*
X80438000Y-36542000D02*
X78256000Y-36542000D01*
X76176000Y-36542000D02*
X73994000Y-36542000D01*
X80434000Y-36582000D02*
X78256000Y-36582000D01*
X76176000Y-36582000D02*
X73998000Y-36582000D01*
X80431000Y-36622000D02*
X78256000Y-36622000D01*
X76176000Y-36622000D02*
X74001000Y-36622000D01*
X80427000Y-36662000D02*
X78256000Y-36662000D01*
X76176000Y-36662000D02*
X74005000Y-36662000D01*
X80422000Y-36702000D02*
X78256000Y-36702000D01*
X76176000Y-36702000D02*
X74010000Y-36702000D01*
X80417000Y-36742000D02*
X78256000Y-36742000D01*
X76176000Y-36742000D02*
X74015000Y-36742000D01*
X80411000Y-36782000D02*
X78256000Y-36782000D01*
X76176000Y-36782000D02*
X74021000Y-36782000D01*
X80405000Y-36822000D02*
X78256000Y-36822000D01*
X76176000Y-36822000D02*
X74027000Y-36822000D01*
X80398000Y-36862000D02*
X78256000Y-36862000D01*
X76176000Y-36862000D02*
X74034000Y-36862000D01*
X80391000Y-36902000D02*
X78256000Y-36902000D01*
X76176000Y-36902000D02*
X74041000Y-36902000D01*
X80383000Y-36942000D02*
X78256000Y-36942000D01*
X76176000Y-36942000D02*
X74049000Y-36942000D01*
X80375000Y-36982000D02*
X78256000Y-36982000D01*
X76176000Y-36982000D02*
X74057000Y-36982000D01*
X80366000Y-37023000D02*
X78256000Y-37023000D01*
X76176000Y-37023000D02*
X74066000Y-37023000D01*
X80357000Y-37063000D02*
X78256000Y-37063000D01*
X76176000Y-37063000D02*
X74075000Y-37063000D01*
X80347000Y-37103000D02*
X78256000Y-37103000D01*
X76176000Y-37103000D02*
X74085000Y-37103000D01*
X80337000Y-37143000D02*
X78256000Y-37143000D01*
X76176000Y-37143000D02*
X74095000Y-37143000D01*
X80326000Y-37183000D02*
X78256000Y-37183000D01*
X76176000Y-37183000D02*
X74106000Y-37183000D01*
X80314000Y-37223000D02*
X78256000Y-37223000D01*
X76176000Y-37223000D02*
X74118000Y-37223000D01*
X80302000Y-37263000D02*
X78256000Y-37263000D01*
X76176000Y-37263000D02*
X74130000Y-37263000D01*
X80290000Y-37303000D02*
X78256000Y-37303000D01*
X76176000Y-37303000D02*
X74142000Y-37303000D01*
X80277000Y-37343000D02*
X78256000Y-37343000D01*
X76176000Y-37343000D02*
X74155000Y-37343000D01*
X80263000Y-37383000D02*
X78256000Y-37383000D01*
X76176000Y-37383000D02*
X74169000Y-37383000D01*
X80249000Y-37423000D02*
X78256000Y-37423000D01*
X76176000Y-37423000D02*
X74183000Y-37423000D01*
X80234000Y-37463000D02*
X78256000Y-37463000D01*
X76176000Y-37463000D02*
X74198000Y-37463000D01*
X80218000Y-37503000D02*
X78256000Y-37503000D01*
X76176000Y-37503000D02*
X74214000Y-37503000D01*
X80202000Y-37543000D02*
X78256000Y-37543000D01*
X76176000Y-37543000D02*
X74230000Y-37543000D01*
X80186000Y-37583000D02*
X78256000Y-37583000D01*
X76176000Y-37583000D02*
X74246000Y-37583000D01*
X80168000Y-37623000D02*
X78256000Y-37623000D01*
X76176000Y-37623000D02*
X74264000Y-37623000D01*
X80150000Y-37663000D02*
X78256000Y-37663000D01*
X76176000Y-37663000D02*
X74282000Y-37663000D01*
X80132000Y-37703000D02*
X78256000Y-37703000D01*
X76176000Y-37703000D02*
X74300000Y-37703000D01*
X80112000Y-37743000D02*
X78256000Y-37743000D01*
X76176000Y-37743000D02*
X74320000Y-37743000D01*
X80092000Y-37783000D02*
X78256000Y-37783000D01*
X76176000Y-37783000D02*
X74340000Y-37783000D01*
X80072000Y-37823000D02*
X78256000Y-37823000D01*
X76176000Y-37823000D02*
X74360000Y-37823000D01*
X80050000Y-37863000D02*
X78256000Y-37863000D01*
X76176000Y-37863000D02*
X74382000Y-37863000D01*
X80028000Y-37903000D02*
X78256000Y-37903000D01*
X76176000Y-37903000D02*
X74404000Y-37903000D01*
X80006000Y-37943000D02*
X78256000Y-37943000D01*
X76176000Y-37943000D02*
X74426000Y-37943000D01*
X79982000Y-37983000D02*
X78256000Y-37983000D01*
X76176000Y-37983000D02*
X74450000Y-37983000D01*
X79958000Y-38023000D02*
X78256000Y-38023000D01*
X76176000Y-38023000D02*
X74474000Y-38023000D01*
X79932000Y-38063000D02*
X78256000Y-38063000D01*
X76176000Y-38063000D02*
X74500000Y-38063000D01*
X79906000Y-38103000D02*
X78256000Y-38103000D01*
X76176000Y-38103000D02*
X74526000Y-38103000D01*
X79880000Y-38143000D02*
X78256000Y-38143000D01*
X76176000Y-38143000D02*
X74552000Y-38143000D01*
X79852000Y-38183000D02*
X78256000Y-38183000D01*
X76176000Y-38183000D02*
X74580000Y-38183000D01*
X79823000Y-38223000D02*
X78256000Y-38223000D01*
X76176000Y-38223000D02*
X74609000Y-38223000D01*
X79794000Y-38263000D02*
X78256000Y-38263000D01*
X76176000Y-38263000D02*
X74638000Y-38263000D01*
X79764000Y-38303000D02*
X78256000Y-38303000D01*
X76176000Y-38303000D02*
X74668000Y-38303000D01*
X79732000Y-38343000D02*
X78256000Y-38343000D01*
X76176000Y-38343000D02*
X74700000Y-38343000D01*
X79700000Y-38383000D02*
X78256000Y-38383000D01*
X76176000Y-38383000D02*
X74732000Y-38383000D01*
X79666000Y-38423000D02*
X78256000Y-38423000D01*
X76176000Y-38423000D02*
X74766000Y-38423000D01*
X79632000Y-38463000D02*
X78256000Y-38463000D01*
X76176000Y-38463000D02*
X74800000Y-38463000D01*
X79596000Y-38503000D02*
X78256000Y-38503000D01*
X76176000Y-38503000D02*
X74836000Y-38503000D01*
X79559000Y-38543000D02*
X78256000Y-38543000D01*
X76176000Y-38543000D02*
X74873000Y-38543000D01*
X79521000Y-38583000D02*
X78256000Y-38583000D01*
X76176000Y-38583000D02*
X74911000Y-38583000D01*
X79481000Y-38623000D02*
X74951000Y-38623000D01*
X79440000Y-38663000D02*
X74992000Y-38663000D01*
X79398000Y-38703000D02*
X75034000Y-38703000D01*
X79353000Y-38743000D02*
X75079000Y-38743000D01*
X79308000Y-38783000D02*
X75124000Y-38783000D01*
X79260000Y-38823000D02*
X75172000Y-38823000D01*
X79211000Y-38863000D02*
X75221000Y-38863000D01*
X79160000Y-38903000D02*
X75272000Y-38903000D01*
X79106000Y-38943000D02*
X75326000Y-38943000D01*
X79050000Y-38983000D02*
X75382000Y-38983000D01*
X78992000Y-39023000D02*
X75440000Y-39023000D01*
X78930000Y-39063000D02*
X75502000Y-39063000D01*
X78866000Y-39103000D02*
X75566000Y-39103000D01*
X78797000Y-39143000D02*
X75635000Y-39143000D01*
X78725000Y-39183000D02*
X75707000Y-39183000D01*
X78648000Y-39223000D02*
X75784000Y-39223000D01*
X78566000Y-39263000D02*
X75866000Y-39263000D01*
X78478000Y-39303000D02*
X75954000Y-39303000D01*
X78381000Y-39343000D02*
X76051000Y-39343000D01*
X78275000Y-39383000D02*
X76157000Y-39383000D01*
X78156000Y-39423000D02*
X76276000Y-39423000D01*
X78018000Y-39463000D02*
X76414000Y-39463000D01*
X77849000Y-39503000D02*
X76583000Y-39503000D01*
X77618000Y-39543000D02*
X76814000Y-39543000D01*
X79055000Y-32801759D02*
X79055000Y-33431759D01*
X79370000Y-33116759D02*
X78740000Y-33116759D01*
X63556000Y-39072000D02*
X63556000Y-37822000D01*
X62306000Y-39072000D02*
X63556000Y-39072000D01*
X53906000Y-33572000D02*
X58206000Y-33572000D01*
X53906000Y-36522000D02*
X53906000Y-33572000D01*
X53156000Y-36522000D02*
X53906000Y-36522000D01*
X62506000Y-33572000D02*
X58206000Y-33572000D01*
X62506000Y-36522000D02*
X62506000Y-33572000D01*
X63256000Y-36522000D02*
X62506000Y-36522000D01*
X53156000Y-38772000D02*
X54956000Y-38772000D01*
X53156000Y-38022000D02*
X53156000Y-38772000D01*
X54956000Y-38022000D02*
X53156000Y-38022000D01*
X54956000Y-38772000D02*
X54956000Y-38022000D01*
X61456000Y-38772000D02*
X63256000Y-38772000D01*
X61456000Y-38022000D02*
X61456000Y-38772000D01*
X63256000Y-38022000D02*
X61456000Y-38022000D01*
X63256000Y-38772000D02*
X63256000Y-38022000D01*
X56456000Y-38772000D02*
X59956000Y-38772000D01*
X56456000Y-38022000D02*
X56456000Y-38772000D01*
X59956000Y-38022000D02*
X56456000Y-38022000D01*
X59956000Y-38772000D02*
X59956000Y-38022000D01*
X53146000Y-38782000D02*
X63266000Y-38782000D01*
X53146000Y-32812000D02*
X53146000Y-38782000D01*
X63266000Y-32812000D02*
X53146000Y-32812000D01*
X63266000Y-38782000D02*
X63266000Y-32812000D01*
X64676000Y-33572000D02*
X71976000Y-33572000D01*
X64676000Y-39072000D02*
X71976000Y-39072000D01*
X71976000Y-39072000D02*
X71976000Y-37922000D01*
X79546000Y-62032000D02*
X80796000Y-62032000D01*
X79546000Y-60782000D02*
X79546000Y-62032000D01*
X85046000Y-52382000D02*
X85046000Y-56682000D01*
X82096000Y-52382000D02*
X85046000Y-52382000D01*
X82096000Y-51632000D02*
X82096000Y-52382000D01*
X85046000Y-60982000D02*
X85046000Y-56682000D01*
X82096000Y-60982000D02*
X85046000Y-60982000D01*
X82096000Y-61732000D02*
X82096000Y-60982000D01*
X79846000Y-51632000D02*
X79846000Y-53432000D01*
X80596000Y-51632000D02*
X79846000Y-51632000D01*
X80596000Y-53432000D02*
X80596000Y-51632000D01*
X79846000Y-53432000D02*
X80596000Y-53432000D01*
X79846000Y-59932000D02*
X79846000Y-61732000D01*
X80596000Y-59932000D02*
X79846000Y-59932000D01*
X80596000Y-61732000D02*
X80596000Y-59932000D01*
X79846000Y-61732000D02*
X80596000Y-61732000D01*
X79846000Y-54932000D02*
X79846000Y-58432000D01*
X80596000Y-54932000D02*
X79846000Y-54932000D01*
X80596000Y-58432000D02*
X80596000Y-54932000D01*
X79846000Y-58432000D02*
X80596000Y-58432000D01*
X79836000Y-51622000D02*
X79836000Y-61742000D01*
X85806000Y-51622000D02*
X79836000Y-51622000D01*
X85806000Y-61742000D02*
X85806000Y-51622000D01*
X79836000Y-61742000D02*
X85806000Y-61742000D01*
X44898000Y-68386000D02*
X47558000Y-68386000D01*
X44898000Y-60706000D02*
X44898000Y-68386000D01*
X47558000Y-60706000D02*
X47558000Y-68386000D01*
X44898000Y-60706000D02*
X47558000Y-60706000D01*
X44898000Y-59436000D02*
X44898000Y-58106000D01*
X44898000Y-58106000D02*
X46228000Y-58106000D01*
X50098000Y-71942000D02*
X50098000Y-69282000D01*
X44958000Y-71942000D02*
X50098000Y-71942000D01*
X44958000Y-69282000D02*
X50098000Y-69282000D01*
X44958000Y-71942000D02*
X44958000Y-69282000D01*
X43688000Y-71942000D02*
X42358000Y-71942000D01*
X42358000Y-71942000D02*
X42358000Y-70612000D01*
X47438000Y-58106000D02*
X48768000Y-58106000D01*
X47438000Y-59436000D02*
X47438000Y-58106000D01*
X47438000Y-60706000D02*
X50098000Y-60706000D01*
X50098000Y-60706000D02*
X50098000Y-68386000D01*
X47438000Y-60706000D02*
X47438000Y-68386000D01*
X47438000Y-68386000D02*
X50098000Y-68386000D01*
X79836000Y-73680000D02*
X85806000Y-73680000D01*
X85806000Y-73680000D02*
X85806000Y-63560000D01*
X85806000Y-63560000D02*
X79836000Y-63560000D01*
X79836000Y-63560000D02*
X79836000Y-73680000D01*
X79846000Y-70370000D02*
X80596000Y-70370000D01*
X80596000Y-70370000D02*
X80596000Y-66870000D01*
X80596000Y-66870000D02*
X79846000Y-66870000D01*
X79846000Y-66870000D02*
X79846000Y-70370000D01*
X79846000Y-73670000D02*
X80596000Y-73670000D01*
X80596000Y-73670000D02*
X80596000Y-71870000D01*
X80596000Y-71870000D02*
X79846000Y-71870000D01*
X79846000Y-71870000D02*
X79846000Y-73670000D01*
X79846000Y-65370000D02*
X80596000Y-65370000D01*
X80596000Y-65370000D02*
X80596000Y-63570000D01*
X80596000Y-63570000D02*
X79846000Y-63570000D01*
X79846000Y-63570000D02*
X79846000Y-65370000D01*
X82096000Y-73670000D02*
X82096000Y-72920000D01*
X82096000Y-72920000D02*
X85046000Y-72920000D01*
X85046000Y-72920000D02*
X85046000Y-68620000D01*
X82096000Y-63570000D02*
X82096000Y-64320000D01*
X82096000Y-64320000D02*
X85046000Y-64320000D01*
X85046000Y-64320000D02*
X85046000Y-68620000D01*
X79546000Y-72720000D02*
X79546000Y-73970000D01*
X79546000Y-73970000D02*
X80796000Y-73970000D01*
X65310000Y-60936000D02*
X65310000Y-60606000D01*
X65310000Y-60606000D02*
X71850000Y-60606000D01*
X71850000Y-60606000D02*
X71850000Y-60936000D01*
X65310000Y-63016000D02*
X65310000Y-63346000D01*
X65310000Y-63346000D02*
X71850000Y-63346000D01*
X71850000Y-63346000D02*
X71850000Y-63016000D01*
X65310000Y-57634000D02*
X65310000Y-57304000D01*
X65310000Y-57304000D02*
X71850000Y-57304000D01*
X71850000Y-57304000D02*
X71850000Y-57634000D01*
X65310000Y-59714000D02*
X65310000Y-60044000D01*
X65310000Y-60044000D02*
X71850000Y-60044000D01*
X71850000Y-60044000D02*
X71850000Y-59714000D01*
X71850000Y-66648000D02*
X71850000Y-66318000D01*
X65310000Y-66648000D02*
X71850000Y-66648000D01*
X65310000Y-66318000D02*
X65310000Y-66648000D01*
X71850000Y-63908000D02*
X71850000Y-64238000D01*
X65310000Y-63908000D02*
X71850000Y-63908000D01*
X65310000Y-64238000D02*
X65310000Y-63908000D01*
X65310000Y-54002000D02*
X65310000Y-54332000D01*
X71850000Y-54002000D02*
X65310000Y-54002000D01*
X71850000Y-54332000D02*
X71850000Y-54002000D01*
X65310000Y-56742000D02*
X65310000Y-56412000D01*
X71850000Y-56742000D02*
X65310000Y-56742000D01*
X71850000Y-56412000D02*
X71850000Y-56742000D01*
X65310000Y-51030000D02*
X65310000Y-50700000D01*
X65310000Y-50700000D02*
X71850000Y-50700000D01*
X71850000Y-50700000D02*
X71850000Y-51030000D01*
X65310000Y-53110000D02*
X65310000Y-53440000D01*
X65310000Y-53440000D02*
X71850000Y-53440000D01*
X71850000Y-53440000D02*
X71850000Y-53110000D01*
X79836000Y-49550000D02*
X85806000Y-49550000D01*
X85806000Y-49550000D02*
X85806000Y-39430000D01*
X85806000Y-39430000D02*
X79836000Y-39430000D01*
X79836000Y-39430000D02*
X79836000Y-49550000D01*
X79846000Y-46240000D02*
X80596000Y-46240000D01*
X80596000Y-46240000D02*
X80596000Y-42740000D01*
X80596000Y-42740000D02*
X79846000Y-42740000D01*
X79846000Y-42740000D02*
X79846000Y-46240000D01*
X79846000Y-49540000D02*
X80596000Y-49540000D01*
X80596000Y-49540000D02*
X80596000Y-47740000D01*
X80596000Y-47740000D02*
X79846000Y-47740000D01*
X79846000Y-47740000D02*
X79846000Y-49540000D01*
X79846000Y-41240000D02*
X80596000Y-41240000D01*
X80596000Y-41240000D02*
X80596000Y-39440000D01*
X80596000Y-39440000D02*
X79846000Y-39440000D01*
X79846000Y-39440000D02*
X79846000Y-41240000D01*
X82096000Y-49540000D02*
X82096000Y-48790000D01*
X82096000Y-48790000D02*
X85046000Y-48790000D01*
X85046000Y-48790000D02*
X85046000Y-44490000D01*
X82096000Y-39440000D02*
X82096000Y-40190000D01*
X82096000Y-40190000D02*
X85046000Y-40190000D01*
X85046000Y-40190000D02*
X85046000Y-44490000D01*
X79546000Y-48590000D02*
X79546000Y-49840000D01*
X79546000Y-49840000D02*
X80796000Y-49840000D01*
X75570000Y-41190000D02*
G75*
G02X77700000Y-43320000I0J-2130000D01*
G01*
X51840000Y-43320000D02*
G75*
G02X53970000Y-41190000I2130000J0D01*
G01*
X54380000Y-68750000D02*
X54380000Y-75650000D01*
X51840000Y-68750000D02*
X54380000Y-68750000D01*
D10*
G36*
X50800000Y-48895000D02*
G01*
X50800000Y-50165000D01*
X51435000Y-49530000D01*
X50800000Y-48895000D01*
G37*
X50800000Y-48895000D02*
X50800000Y-50165000D01*
X51435000Y-49530000D01*
X50800000Y-48895000D01*
D11*
X75580000Y-41190000D02*
X53970000Y-41190000D01*
X77700000Y-75650000D02*
X77700000Y-43320000D01*
X51840000Y-68750000D02*
X51840000Y-43320000D01*
X54380000Y-75650000D02*
X77700000Y-75650000D01*
X42358000Y-68386000D02*
X45018000Y-68386000D01*
X42358000Y-58166000D02*
X42358000Y-68386000D01*
X45018000Y-58166000D02*
X45018000Y-68386000D01*
X42358000Y-58166000D02*
X45018000Y-58166000D01*
X42358000Y-56896000D02*
X42358000Y-55566000D01*
X42358000Y-55566000D02*
X43688000Y-55566000D01*
D10*
X77049333Y-40997142D02*
X77001714Y-41044761D01*
X76858857Y-41092380D01*
X76763619Y-41092380D01*
X76620761Y-41044761D01*
X76525523Y-40949523D01*
X76477904Y-40854285D01*
X76430285Y-40663809D01*
X76430285Y-40520952D01*
X76477904Y-40330476D01*
X76525523Y-40235238D01*
X76620761Y-40140000D01*
X76763619Y-40092380D01*
X76858857Y-40092380D01*
X77001714Y-40140000D01*
X77049333Y-40187619D01*
X78001714Y-41092380D02*
X77430285Y-41092380D01*
X77716000Y-41092380D02*
X77716000Y-40092380D01*
X77620761Y-40235238D01*
X77525523Y-40330476D01*
X77430285Y-40378095D01*
X73335047Y-33075619D02*
X73382666Y-33028000D01*
X73477904Y-32980380D01*
X73716000Y-32980380D01*
X73811238Y-33028000D01*
X73858857Y-33075619D01*
X73906476Y-33170857D01*
X73906476Y-33266095D01*
X73858857Y-33408952D01*
X73287428Y-33980380D01*
X73906476Y-33980380D01*
X74287428Y-33075619D02*
X74335047Y-33028000D01*
X74430285Y-32980380D01*
X74668380Y-32980380D01*
X74763619Y-33028000D01*
X74811238Y-33075619D01*
X74858857Y-33170857D01*
X74858857Y-33266095D01*
X74811238Y-33408952D01*
X74239809Y-33980380D01*
X74858857Y-33980380D01*
X75477904Y-32980380D02*
X75573142Y-32980380D01*
X75668380Y-33028000D01*
X75716000Y-33075619D01*
X75763619Y-33170857D01*
X75811238Y-33361333D01*
X75811238Y-33599428D01*
X75763619Y-33789904D01*
X75716000Y-33885142D01*
X75668380Y-33932761D01*
X75573142Y-33980380D01*
X75477904Y-33980380D01*
X75382666Y-33932761D01*
X75335047Y-33885142D01*
X75287428Y-33789904D01*
X75239809Y-33599428D01*
X75239809Y-33361333D01*
X75287428Y-33170857D01*
X75335047Y-33075619D01*
X75382666Y-33028000D01*
X75477904Y-32980380D01*
X76668380Y-33313714D02*
X76668380Y-33980380D01*
X76239809Y-33313714D02*
X76239809Y-33837523D01*
X76287428Y-33932761D01*
X76382666Y-33980380D01*
X76525523Y-33980380D01*
X76620761Y-33932761D01*
X76668380Y-33885142D01*
X77477904Y-33456571D02*
X77144571Y-33456571D01*
X77144571Y-33980380D02*
X77144571Y-32980380D01*
X77620761Y-32980380D01*
X79287428Y-33980380D02*
X78716000Y-33980380D01*
X79001714Y-33980380D02*
X79001714Y-32980380D01*
X78906476Y-33123238D01*
X78811238Y-33218476D01*
X78716000Y-33266095D01*
X80144571Y-32980380D02*
X79954095Y-32980380D01*
X79858857Y-33028000D01*
X79811238Y-33075619D01*
X79716000Y-33218476D01*
X79668380Y-33408952D01*
X79668380Y-33789904D01*
X79716000Y-33885142D01*
X79763619Y-33932761D01*
X79858857Y-33980380D01*
X80049333Y-33980380D01*
X80144571Y-33932761D01*
X80192190Y-33885142D01*
X80239809Y-33789904D01*
X80239809Y-33551809D01*
X80192190Y-33456571D01*
X80144571Y-33408952D01*
X80049333Y-33361333D01*
X79858857Y-33361333D01*
X79763619Y-33408952D01*
X79716000Y-33456571D01*
X79668380Y-33551809D01*
X80525523Y-32980380D02*
X80858857Y-33980380D01*
X81192190Y-32980380D01*
X54610476Y-40584380D02*
X54610476Y-39584380D01*
X55181904Y-40584380D01*
X55181904Y-39584380D01*
X55658095Y-40060571D02*
X55991428Y-40060571D01*
X56134285Y-40584380D02*
X55658095Y-40584380D01*
X55658095Y-39584380D01*
X56134285Y-39584380D01*
X56753333Y-39584380D02*
X56943809Y-39584380D01*
X57039047Y-39632000D01*
X57134285Y-39727238D01*
X57181904Y-39917714D01*
X57181904Y-40251047D01*
X57134285Y-40441523D01*
X57039047Y-40536761D01*
X56943809Y-40584380D01*
X56753333Y-40584380D01*
X56658095Y-40536761D01*
X56562857Y-40441523D01*
X56515238Y-40251047D01*
X56515238Y-39917714D01*
X56562857Y-39727238D01*
X56658095Y-39632000D01*
X56753333Y-39584380D01*
X57610476Y-40584380D02*
X57610476Y-39584380D01*
X57991428Y-39584380D01*
X58086666Y-39632000D01*
X58134285Y-39679619D01*
X58181904Y-39774857D01*
X58181904Y-39917714D01*
X58134285Y-40012952D01*
X58086666Y-40060571D01*
X57991428Y-40108190D01*
X57610476Y-40108190D01*
X58610476Y-40584380D02*
X58610476Y-39584380D01*
X58991428Y-39584380D02*
X59658095Y-40584380D01*
X59658095Y-39584380D02*
X58991428Y-40584380D01*
X60039047Y-40060571D02*
X60372380Y-40060571D01*
X60515238Y-40584380D02*
X60039047Y-40584380D01*
X60039047Y-39584380D01*
X60515238Y-39584380D01*
X61420000Y-40584380D02*
X60943809Y-40584380D01*
X60943809Y-39584380D01*
X62277142Y-40584380D02*
X61705714Y-40584380D01*
X61991428Y-40584380D02*
X61991428Y-39584380D01*
X61896190Y-39727238D01*
X61800952Y-39822476D01*
X61705714Y-39870095D01*
X64135523Y-40584380D02*
X64135523Y-39584380D01*
X64706952Y-40584380D01*
X64706952Y-39584380D01*
X65183142Y-40060571D02*
X65516476Y-40060571D01*
X65659333Y-40584380D02*
X65183142Y-40584380D01*
X65183142Y-39584380D01*
X65659333Y-39584380D01*
X66278380Y-39584380D02*
X66468857Y-39584380D01*
X66564095Y-39632000D01*
X66659333Y-39727238D01*
X66706952Y-39917714D01*
X66706952Y-40251047D01*
X66659333Y-40441523D01*
X66564095Y-40536761D01*
X66468857Y-40584380D01*
X66278380Y-40584380D01*
X66183142Y-40536761D01*
X66087904Y-40441523D01*
X66040285Y-40251047D01*
X66040285Y-39917714D01*
X66087904Y-39727238D01*
X66183142Y-39632000D01*
X66278380Y-39584380D01*
X67135523Y-40584380D02*
X67135523Y-39584380D01*
X67516476Y-39584380D01*
X67611714Y-39632000D01*
X67659333Y-39679619D01*
X67706952Y-39774857D01*
X67706952Y-39917714D01*
X67659333Y-40012952D01*
X67611714Y-40060571D01*
X67516476Y-40108190D01*
X67135523Y-40108190D01*
X68135523Y-40584380D02*
X68135523Y-39584380D01*
X68516476Y-39584380D02*
X69183142Y-40584380D01*
X69183142Y-39584380D02*
X68516476Y-40584380D01*
X69564095Y-40060571D02*
X69897428Y-40060571D01*
X70040285Y-40584380D02*
X69564095Y-40584380D01*
X69564095Y-39584380D01*
X70040285Y-39584380D01*
X70945047Y-40584380D02*
X70468857Y-40584380D01*
X70468857Y-39584380D01*
X71040285Y-40679619D02*
X71802190Y-40679619D01*
X72230761Y-39584380D02*
X72326000Y-39584380D01*
X72421238Y-39632000D01*
X72468857Y-39679619D01*
X72516476Y-39774857D01*
X72564095Y-39965333D01*
X72564095Y-40203428D01*
X72516476Y-40393904D01*
X72468857Y-40489142D01*
X72421238Y-40536761D01*
X72326000Y-40584380D01*
X72230761Y-40584380D01*
X72135523Y-40536761D01*
X72087904Y-40489142D01*
X72040285Y-40393904D01*
X71992666Y-40203428D01*
X71992666Y-39965333D01*
X72040285Y-39774857D01*
X72087904Y-39679619D01*
X72135523Y-39632000D01*
X72230761Y-39584380D01*
X64461714Y-35174380D02*
X63890285Y-35174380D01*
X64176000Y-35174380D02*
X64176000Y-34174380D01*
X64080761Y-34317238D01*
X63985523Y-34412476D01*
X63890285Y-34460095D01*
X40863047Y-73604380D02*
X40863047Y-72604380D01*
X41244000Y-72604380D01*
X41339238Y-72652000D01*
X41386857Y-72699619D01*
X41434476Y-72794857D01*
X41434476Y-72937714D01*
X41386857Y-73032952D01*
X41339238Y-73080571D01*
X41244000Y-73128190D01*
X40863047Y-73128190D01*
X42053523Y-72604380D02*
X42244000Y-72604380D01*
X42339238Y-72652000D01*
X42434476Y-72747238D01*
X42482095Y-72937714D01*
X42482095Y-73271047D01*
X42434476Y-73461523D01*
X42339238Y-73556761D01*
X42244000Y-73604380D01*
X42053523Y-73604380D01*
X41958285Y-73556761D01*
X41863047Y-73461523D01*
X41815428Y-73271047D01*
X41815428Y-72937714D01*
X41863047Y-72747238D01*
X41958285Y-72652000D01*
X42053523Y-72604380D01*
X42815428Y-72604380D02*
X43053523Y-73604380D01*
X43244000Y-72890095D01*
X43434476Y-73604380D01*
X43672571Y-72604380D01*
X44053523Y-73080571D02*
X44386857Y-73080571D01*
X44529714Y-73604380D02*
X44053523Y-73604380D01*
X44053523Y-72604380D01*
X44529714Y-72604380D01*
X45529714Y-73604380D02*
X45196380Y-73128190D01*
X44958285Y-73604380D02*
X44958285Y-72604380D01*
X45339238Y-72604380D01*
X45434476Y-72652000D01*
X45482095Y-72699619D01*
X45529714Y-72794857D01*
X45529714Y-72937714D01*
X45482095Y-73032952D01*
X45434476Y-73080571D01*
X45339238Y-73128190D01*
X44958285Y-73128190D01*
X45720190Y-73699619D02*
X46482095Y-73699619D01*
X46672571Y-73556761D02*
X46815428Y-73604380D01*
X47053523Y-73604380D01*
X47148761Y-73556761D01*
X47196380Y-73509142D01*
X47244000Y-73413904D01*
X47244000Y-73318666D01*
X47196380Y-73223428D01*
X47148761Y-73175809D01*
X47053523Y-73128190D01*
X46863047Y-73080571D01*
X46767809Y-73032952D01*
X46720190Y-72985333D01*
X46672571Y-72890095D01*
X46672571Y-72794857D01*
X46720190Y-72699619D01*
X46767809Y-72652000D01*
X46863047Y-72604380D01*
X47101142Y-72604380D01*
X47244000Y-72652000D01*
X47672571Y-73080571D02*
X48005904Y-73080571D01*
X48148761Y-73604380D02*
X47672571Y-73604380D01*
X47672571Y-72604380D01*
X48148761Y-72604380D01*
X49053523Y-73604380D02*
X48577333Y-73604380D01*
X48577333Y-72604380D01*
X49386857Y-73080571D02*
X49720190Y-73080571D01*
X49863047Y-73604380D02*
X49386857Y-73604380D01*
X49386857Y-72604380D01*
X49863047Y-72604380D01*
X50863047Y-73509142D02*
X50815428Y-73556761D01*
X50672571Y-73604380D01*
X50577333Y-73604380D01*
X50434476Y-73556761D01*
X50339238Y-73461523D01*
X50291619Y-73366285D01*
X50244000Y-73175809D01*
X50244000Y-73032952D01*
X50291619Y-72842476D01*
X50339238Y-72747238D01*
X50434476Y-72652000D01*
X50577333Y-72604380D01*
X50672571Y-72604380D01*
X50815428Y-72652000D01*
X50863047Y-72699619D01*
X51148761Y-72604380D02*
X51720190Y-72604380D01*
X51434476Y-73604380D02*
X51434476Y-72604380D01*
X52244000Y-72604380D02*
X52434476Y-72604380D01*
X52529714Y-72652000D01*
X52624952Y-72747238D01*
X52672571Y-72937714D01*
X52672571Y-73271047D01*
X52624952Y-73461523D01*
X52529714Y-73556761D01*
X52434476Y-73604380D01*
X52244000Y-73604380D01*
X52148761Y-73556761D01*
X52053523Y-73461523D01*
X52005904Y-73271047D01*
X52005904Y-72937714D01*
X52053523Y-72747238D01*
X52148761Y-72652000D01*
X52244000Y-72604380D01*
X53672571Y-73604380D02*
X53339238Y-73128190D01*
X53101142Y-73604380D02*
X53101142Y-72604380D01*
X53482095Y-72604380D01*
X53577333Y-72652000D01*
X53624952Y-72699619D01*
X53672571Y-72794857D01*
X53672571Y-72937714D01*
X53624952Y-73032952D01*
X53577333Y-73080571D01*
X53482095Y-73128190D01*
X53101142Y-73128190D01*
X62317333Y-62428380D02*
X61984000Y-61952190D01*
X61745904Y-62428380D02*
X61745904Y-61428380D01*
X62126857Y-61428380D01*
X62222095Y-61476000D01*
X62269714Y-61523619D01*
X62317333Y-61618857D01*
X62317333Y-61761714D01*
X62269714Y-61856952D01*
X62222095Y-61904571D01*
X62126857Y-61952190D01*
X61745904Y-61952190D01*
X63269714Y-62428380D02*
X62698285Y-62428380D01*
X62984000Y-62428380D02*
X62984000Y-61428380D01*
X62888761Y-61571238D01*
X62793523Y-61666476D01*
X62698285Y-61714095D01*
X67413333Y-62428380D02*
X66841904Y-62428380D01*
X67127619Y-62428380D02*
X67127619Y-61428380D01*
X67032380Y-61571238D01*
X66937142Y-61666476D01*
X66841904Y-61714095D01*
X68032380Y-61428380D02*
X68127619Y-61428380D01*
X68222857Y-61476000D01*
X68270476Y-61523619D01*
X68318095Y-61618857D01*
X68365714Y-61809333D01*
X68365714Y-62047428D01*
X68318095Y-62237904D01*
X68270476Y-62333142D01*
X68222857Y-62380761D01*
X68127619Y-62428380D01*
X68032380Y-62428380D01*
X67937142Y-62380761D01*
X67889523Y-62333142D01*
X67841904Y-62237904D01*
X67794285Y-62047428D01*
X67794285Y-61809333D01*
X67841904Y-61618857D01*
X67889523Y-61523619D01*
X67937142Y-61476000D01*
X68032380Y-61428380D01*
X68984761Y-61428380D02*
X69080000Y-61428380D01*
X69175238Y-61476000D01*
X69222857Y-61523619D01*
X69270476Y-61618857D01*
X69318095Y-61809333D01*
X69318095Y-62047428D01*
X69270476Y-62237904D01*
X69222857Y-62333142D01*
X69175238Y-62380761D01*
X69080000Y-62428380D01*
X68984761Y-62428380D01*
X68889523Y-62380761D01*
X68841904Y-62333142D01*
X68794285Y-62237904D01*
X68746666Y-62047428D01*
X68746666Y-61809333D01*
X68794285Y-61618857D01*
X68841904Y-61523619D01*
X68889523Y-61476000D01*
X68984761Y-61428380D01*
X70318095Y-62428380D02*
X69984761Y-61952190D01*
X69746666Y-62428380D02*
X69746666Y-61428380D01*
X70127619Y-61428380D01*
X70222857Y-61476000D01*
X70270476Y-61523619D01*
X70318095Y-61618857D01*
X70318095Y-61761714D01*
X70270476Y-61856952D01*
X70222857Y-61904571D01*
X70127619Y-61952190D01*
X69746666Y-61952190D01*
X62317333Y-59380380D02*
X61984000Y-58904190D01*
X61745904Y-59380380D02*
X61745904Y-58380380D01*
X62126857Y-58380380D01*
X62222095Y-58428000D01*
X62269714Y-58475619D01*
X62317333Y-58570857D01*
X62317333Y-58713714D01*
X62269714Y-58808952D01*
X62222095Y-58856571D01*
X62126857Y-58904190D01*
X61745904Y-58904190D01*
X62698285Y-58475619D02*
X62745904Y-58428000D01*
X62841142Y-58380380D01*
X63079238Y-58380380D01*
X63174476Y-58428000D01*
X63222095Y-58475619D01*
X63269714Y-58570857D01*
X63269714Y-58666095D01*
X63222095Y-58808952D01*
X62650666Y-59380380D01*
X63269714Y-59380380D01*
X67413333Y-58872380D02*
X66841904Y-58872380D01*
X67127619Y-58872380D02*
X67127619Y-57872380D01*
X67032380Y-58015238D01*
X66937142Y-58110476D01*
X66841904Y-58158095D01*
X68032380Y-57872380D02*
X68127619Y-57872380D01*
X68222857Y-57920000D01*
X68270476Y-57967619D01*
X68318095Y-58062857D01*
X68365714Y-58253333D01*
X68365714Y-58491428D01*
X68318095Y-58681904D01*
X68270476Y-58777142D01*
X68222857Y-58824761D01*
X68127619Y-58872380D01*
X68032380Y-58872380D01*
X67937142Y-58824761D01*
X67889523Y-58777142D01*
X67841904Y-58681904D01*
X67794285Y-58491428D01*
X67794285Y-58253333D01*
X67841904Y-58062857D01*
X67889523Y-57967619D01*
X67937142Y-57920000D01*
X68032380Y-57872380D01*
X68984761Y-57872380D02*
X69080000Y-57872380D01*
X69175238Y-57920000D01*
X69222857Y-57967619D01*
X69270476Y-58062857D01*
X69318095Y-58253333D01*
X69318095Y-58491428D01*
X69270476Y-58681904D01*
X69222857Y-58777142D01*
X69175238Y-58824761D01*
X69080000Y-58872380D01*
X68984761Y-58872380D01*
X68889523Y-58824761D01*
X68841904Y-58777142D01*
X68794285Y-58681904D01*
X68746666Y-58491428D01*
X68746666Y-58253333D01*
X68794285Y-58062857D01*
X68841904Y-57967619D01*
X68889523Y-57920000D01*
X68984761Y-57872380D01*
X70318095Y-58872380D02*
X69984761Y-58396190D01*
X69746666Y-58872380D02*
X69746666Y-57872380D01*
X70127619Y-57872380D01*
X70222857Y-57920000D01*
X70270476Y-57967619D01*
X70318095Y-58062857D01*
X70318095Y-58205714D01*
X70270476Y-58300952D01*
X70222857Y-58348571D01*
X70127619Y-58396190D01*
X69746666Y-58396190D01*
X62317333Y-65476380D02*
X61984000Y-65000190D01*
X61745904Y-65476380D02*
X61745904Y-64476380D01*
X62126857Y-64476380D01*
X62222095Y-64524000D01*
X62269714Y-64571619D01*
X62317333Y-64666857D01*
X62317333Y-64809714D01*
X62269714Y-64904952D01*
X62222095Y-64952571D01*
X62126857Y-65000190D01*
X61745904Y-65000190D01*
X62650666Y-64476380D02*
X63269714Y-64476380D01*
X62936380Y-64857333D01*
X63079238Y-64857333D01*
X63174476Y-64904952D01*
X63222095Y-64952571D01*
X63269714Y-65047809D01*
X63269714Y-65285904D01*
X63222095Y-65381142D01*
X63174476Y-65428761D01*
X63079238Y-65476380D01*
X62793523Y-65476380D01*
X62698285Y-65428761D01*
X62650666Y-65381142D01*
X67413333Y-65476380D02*
X66841904Y-65476380D01*
X67127619Y-65476380D02*
X67127619Y-64476380D01*
X67032380Y-64619238D01*
X66937142Y-64714476D01*
X66841904Y-64762095D01*
X68032380Y-64476380D02*
X68127619Y-64476380D01*
X68222857Y-64524000D01*
X68270476Y-64571619D01*
X68318095Y-64666857D01*
X68365714Y-64857333D01*
X68365714Y-65095428D01*
X68318095Y-65285904D01*
X68270476Y-65381142D01*
X68222857Y-65428761D01*
X68127619Y-65476380D01*
X68032380Y-65476380D01*
X67937142Y-65428761D01*
X67889523Y-65381142D01*
X67841904Y-65285904D01*
X67794285Y-65095428D01*
X67794285Y-64857333D01*
X67841904Y-64666857D01*
X67889523Y-64571619D01*
X67937142Y-64524000D01*
X68032380Y-64476380D01*
X68984761Y-64476380D02*
X69080000Y-64476380D01*
X69175238Y-64524000D01*
X69222857Y-64571619D01*
X69270476Y-64666857D01*
X69318095Y-64857333D01*
X69318095Y-65095428D01*
X69270476Y-65285904D01*
X69222857Y-65381142D01*
X69175238Y-65428761D01*
X69080000Y-65476380D01*
X68984761Y-65476380D01*
X68889523Y-65428761D01*
X68841904Y-65381142D01*
X68794285Y-65285904D01*
X68746666Y-65095428D01*
X68746666Y-64857333D01*
X68794285Y-64666857D01*
X68841904Y-64571619D01*
X68889523Y-64524000D01*
X68984761Y-64476380D01*
X70318095Y-65476380D02*
X69984761Y-65000190D01*
X69746666Y-65476380D02*
X69746666Y-64476380D01*
X70127619Y-64476380D01*
X70222857Y-64524000D01*
X70270476Y-64571619D01*
X70318095Y-64666857D01*
X70318095Y-64809714D01*
X70270476Y-64904952D01*
X70222857Y-64952571D01*
X70127619Y-65000190D01*
X69746666Y-65000190D01*
X62317333Y-55824380D02*
X61984000Y-55348190D01*
X61745904Y-55824380D02*
X61745904Y-54824380D01*
X62126857Y-54824380D01*
X62222095Y-54872000D01*
X62269714Y-54919619D01*
X62317333Y-55014857D01*
X62317333Y-55157714D01*
X62269714Y-55252952D01*
X62222095Y-55300571D01*
X62126857Y-55348190D01*
X61745904Y-55348190D01*
X63174476Y-55157714D02*
X63174476Y-55824380D01*
X62936380Y-54776761D02*
X62698285Y-55491047D01*
X63317333Y-55491047D01*
X66810095Y-55157714D02*
X66810095Y-55824380D01*
X66572000Y-54776761D02*
X66333904Y-55491047D01*
X66952952Y-55491047D01*
X67238666Y-54824380D02*
X67905333Y-54824380D01*
X67476761Y-55824380D01*
X68476761Y-54824380D02*
X68572000Y-54824380D01*
X68667238Y-54872000D01*
X68714857Y-54919619D01*
X68762476Y-55014857D01*
X68810095Y-55205333D01*
X68810095Y-55443428D01*
X68762476Y-55633904D01*
X68714857Y-55729142D01*
X68667238Y-55776761D01*
X68572000Y-55824380D01*
X68476761Y-55824380D01*
X68381523Y-55776761D01*
X68333904Y-55729142D01*
X68286285Y-55633904D01*
X68238666Y-55443428D01*
X68238666Y-55205333D01*
X68286285Y-55014857D01*
X68333904Y-54919619D01*
X68381523Y-54872000D01*
X68476761Y-54824380D01*
X69810095Y-55824380D02*
X69476761Y-55348190D01*
X69238666Y-55824380D02*
X69238666Y-54824380D01*
X69619619Y-54824380D01*
X69714857Y-54872000D01*
X69762476Y-54919619D01*
X69810095Y-55014857D01*
X69810095Y-55157714D01*
X69762476Y-55252952D01*
X69714857Y-55300571D01*
X69619619Y-55348190D01*
X69238666Y-55348190D01*
X62317333Y-52776380D02*
X61984000Y-52300190D01*
X61745904Y-52776380D02*
X61745904Y-51776380D01*
X62126857Y-51776380D01*
X62222095Y-51824000D01*
X62269714Y-51871619D01*
X62317333Y-51966857D01*
X62317333Y-52109714D01*
X62269714Y-52204952D01*
X62222095Y-52252571D01*
X62126857Y-52300190D01*
X61745904Y-52300190D01*
X63222095Y-51776380D02*
X62745904Y-51776380D01*
X62698285Y-52252571D01*
X62745904Y-52204952D01*
X62841142Y-52157333D01*
X63079238Y-52157333D01*
X63174476Y-52204952D01*
X63222095Y-52252571D01*
X63269714Y-52347809D01*
X63269714Y-52585904D01*
X63222095Y-52681142D01*
X63174476Y-52728761D01*
X63079238Y-52776380D01*
X62841142Y-52776380D01*
X62745904Y-52728761D01*
X62698285Y-52681142D01*
X68294285Y-52776380D02*
X67722857Y-52776380D01*
X68008571Y-52776380D02*
X68008571Y-51776380D01*
X67913333Y-51919238D01*
X67818095Y-52014476D01*
X67722857Y-52062095D01*
X68722857Y-52776380D02*
X68722857Y-51776380D01*
X69056190Y-52490666D01*
X69389523Y-51776380D01*
X69389523Y-52776380D01*
X59404952Y-46696380D02*
X59643047Y-47696380D01*
X59833523Y-46982095D01*
X60024000Y-47696380D01*
X60262095Y-46696380D01*
X61024000Y-47648761D02*
X60928761Y-47696380D01*
X60738285Y-47696380D01*
X60643047Y-47648761D01*
X60595428Y-47553523D01*
X60595428Y-47172571D01*
X60643047Y-47077333D01*
X60738285Y-47029714D01*
X60928761Y-47029714D01*
X61024000Y-47077333D01*
X61071619Y-47172571D01*
X61071619Y-47267809D01*
X60595428Y-47363047D01*
X61500190Y-47696380D02*
X61500190Y-46696380D01*
X61833523Y-47410666D01*
X62166857Y-46696380D01*
X62166857Y-47696380D01*
X62785904Y-47696380D02*
X62690666Y-47648761D01*
X62643047Y-47601142D01*
X62595428Y-47505904D01*
X62595428Y-47220190D01*
X62643047Y-47124952D01*
X62690666Y-47077333D01*
X62785904Y-47029714D01*
X62928761Y-47029714D01*
X63024000Y-47077333D01*
X63071619Y-47124952D01*
X63119238Y-47220190D01*
X63119238Y-47505904D01*
X63071619Y-47601142D01*
X63024000Y-47648761D01*
X62928761Y-47696380D01*
X62785904Y-47696380D01*
X63500190Y-47648761D02*
X63595428Y-47696380D01*
X63785904Y-47696380D01*
X63881142Y-47648761D01*
X63928761Y-47553523D01*
X63928761Y-47505904D01*
X63881142Y-47410666D01*
X63785904Y-47363047D01*
X63643047Y-47363047D01*
X63547809Y-47315428D01*
X63500190Y-47220190D01*
X63500190Y-47172571D01*
X63547809Y-47077333D01*
X63643047Y-47029714D01*
X63785904Y-47029714D01*
X63881142Y-47077333D01*
X64119238Y-47791619D02*
X64881142Y-47791619D01*
X65119238Y-47696380D02*
X65119238Y-46696380D01*
X65357333Y-46696380D01*
X65500190Y-46744000D01*
X65595428Y-46839238D01*
X65643047Y-46934476D01*
X65690666Y-47124952D01*
X65690666Y-47267809D01*
X65643047Y-47458285D01*
X65595428Y-47553523D01*
X65500190Y-47648761D01*
X65357333Y-47696380D01*
X65119238Y-47696380D01*
X66643047Y-47696380D02*
X66071619Y-47696380D01*
X66357333Y-47696380D02*
X66357333Y-46696380D01*
X66262095Y-46839238D01*
X66166857Y-46934476D01*
X66071619Y-46982095D01*
X66833523Y-47791619D02*
X67595428Y-47791619D01*
X67833523Y-47696380D02*
X67833523Y-47029714D01*
X67833523Y-47124952D02*
X67881142Y-47077333D01*
X67976380Y-47029714D01*
X68119238Y-47029714D01*
X68214476Y-47077333D01*
X68262095Y-47172571D01*
X68262095Y-47696380D01*
X68262095Y-47172571D02*
X68309714Y-47077333D01*
X68404952Y-47029714D01*
X68547809Y-47029714D01*
X68643047Y-47077333D01*
X68690666Y-47172571D01*
X68690666Y-47696380D01*
X69166857Y-47696380D02*
X69166857Y-47029714D01*
X69166857Y-46696380D02*
X69119238Y-46744000D01*
X69166857Y-46791619D01*
X69214476Y-46744000D01*
X69166857Y-46696380D01*
X69166857Y-46791619D01*
X69643047Y-47029714D02*
X69643047Y-47696380D01*
X69643047Y-47124952D02*
X69690666Y-47077333D01*
X69785904Y-47029714D01*
X69928761Y-47029714D01*
X70024000Y-47077333D01*
X70071619Y-47172571D01*
X70071619Y-47696380D01*
X70547809Y-47696380D02*
X70547809Y-47029714D01*
X70547809Y-46696380D02*
X70500190Y-46744000D01*
X70547809Y-46791619D01*
X70595428Y-46744000D01*
X70547809Y-46696380D01*
X70547809Y-46791619D01*
M02*
