G04 #@! TF.GenerationSoftware,KiCad,Pcbnew,5.1.5+dfsg1-2build2*
G04 #@! TF.CreationDate,2020-06-26T22:01:47+02:00*
G04 #@! TF.ProjectId,robo-car,726f626f-2d63-4617-922e-6b696361645f,rev?*
G04 #@! TF.SameCoordinates,Original*
G04 #@! TF.FileFunction,Legend,Top*
G04 #@! TF.FilePolarity,Positive*
%FSLAX46Y46*%
G04 Gerber Fmt 4.6, Leading zero omitted, Abs format (unit mm)*
G04 Created by KiCad (PCBNEW 5.1.5+dfsg1-2build2) date 2020-06-26 22:01:47*
%MOMM*%
%LPD*%
G04 APERTURE LIST*
%ADD10C,0.325000*%
%ADD11C,0.300000*%
%ADD12C,0.010000*%
%ADD13C,0.120000*%
%ADD14C,0.150000*%
G04 APERTURE END LIST*
D10*
X33969904Y-52553428D02*
X33969904Y-53605809D01*
X33908000Y-53729619D01*
X33846095Y-53791523D01*
X33722285Y-53853428D01*
X33536571Y-53853428D01*
X33412761Y-53791523D01*
X33969904Y-53358190D02*
X33846095Y-53420095D01*
X33598476Y-53420095D01*
X33474666Y-53358190D01*
X33412761Y-53296285D01*
X33350857Y-53172476D01*
X33350857Y-52801047D01*
X33412761Y-52677238D01*
X33474666Y-52615333D01*
X33598476Y-52553428D01*
X33846095Y-52553428D01*
X33969904Y-52615333D01*
X34588952Y-53420095D02*
X34588952Y-52553428D01*
X34588952Y-52120095D02*
X34527047Y-52182000D01*
X34588952Y-52243904D01*
X34650857Y-52182000D01*
X34588952Y-52120095D01*
X34588952Y-52243904D01*
X35022285Y-52553428D02*
X35517523Y-52553428D01*
X35208000Y-52120095D02*
X35208000Y-53234380D01*
X35269904Y-53358190D01*
X35393714Y-53420095D01*
X35517523Y-53420095D01*
X35950857Y-53420095D02*
X35950857Y-52120095D01*
X36508000Y-53420095D02*
X36508000Y-52739142D01*
X36446095Y-52615333D01*
X36322285Y-52553428D01*
X36136571Y-52553428D01*
X36012761Y-52615333D01*
X35950857Y-52677238D01*
X37684190Y-52553428D02*
X37684190Y-53420095D01*
X37127047Y-52553428D02*
X37127047Y-53234380D01*
X37188952Y-53358190D01*
X37312761Y-53420095D01*
X37498476Y-53420095D01*
X37622285Y-53358190D01*
X37684190Y-53296285D01*
X38303238Y-53420095D02*
X38303238Y-52120095D01*
X38303238Y-52615333D02*
X38427047Y-52553428D01*
X38674666Y-52553428D01*
X38798476Y-52615333D01*
X38860380Y-52677238D01*
X38922285Y-52801047D01*
X38922285Y-53172476D01*
X38860380Y-53296285D01*
X38798476Y-53358190D01*
X38674666Y-53420095D01*
X38427047Y-53420095D01*
X38303238Y-53358190D01*
X39479428Y-53296285D02*
X39541333Y-53358190D01*
X39479428Y-53420095D01*
X39417523Y-53358190D01*
X39479428Y-53296285D01*
X39479428Y-53420095D01*
X40655619Y-53358190D02*
X40531809Y-53420095D01*
X40284190Y-53420095D01*
X40160380Y-53358190D01*
X40098476Y-53296285D01*
X40036571Y-53172476D01*
X40036571Y-52801047D01*
X40098476Y-52677238D01*
X40160380Y-52615333D01*
X40284190Y-52553428D01*
X40531809Y-52553428D01*
X40655619Y-52615333D01*
X41398476Y-53420095D02*
X41274666Y-53358190D01*
X41212761Y-53296285D01*
X41150857Y-53172476D01*
X41150857Y-52801047D01*
X41212761Y-52677238D01*
X41274666Y-52615333D01*
X41398476Y-52553428D01*
X41584190Y-52553428D01*
X41708000Y-52615333D01*
X41769904Y-52677238D01*
X41831809Y-52801047D01*
X41831809Y-53172476D01*
X41769904Y-53296285D01*
X41708000Y-53358190D01*
X41584190Y-53420095D01*
X41398476Y-53420095D01*
X42388952Y-53420095D02*
X42388952Y-52553428D01*
X42388952Y-52677238D02*
X42450857Y-52615333D01*
X42574666Y-52553428D01*
X42760380Y-52553428D01*
X42884190Y-52615333D01*
X42946095Y-52739142D01*
X42946095Y-53420095D01*
X42946095Y-52739142D02*
X43008000Y-52615333D01*
X43131809Y-52553428D01*
X43317523Y-52553428D01*
X43441333Y-52615333D01*
X43503238Y-52739142D01*
X43503238Y-53420095D01*
X45050857Y-52058190D02*
X43936571Y-53729619D01*
X45484190Y-53420095D02*
X45484190Y-52553428D01*
X45484190Y-52677238D02*
X45546095Y-52615333D01*
X45669904Y-52553428D01*
X45855619Y-52553428D01*
X45979428Y-52615333D01*
X46041333Y-52739142D01*
X46041333Y-53420095D01*
X46041333Y-52739142D02*
X46103238Y-52615333D01*
X46227047Y-52553428D01*
X46412761Y-52553428D01*
X46536571Y-52615333D01*
X46598476Y-52739142D01*
X46598476Y-53420095D01*
X47774666Y-53420095D02*
X47774666Y-52739142D01*
X47712761Y-52615333D01*
X47588952Y-52553428D01*
X47341333Y-52553428D01*
X47217523Y-52615333D01*
X47774666Y-53358190D02*
X47650857Y-53420095D01*
X47341333Y-53420095D01*
X47217523Y-53358190D01*
X47155619Y-53234380D01*
X47155619Y-53110571D01*
X47217523Y-52986761D01*
X47341333Y-52924857D01*
X47650857Y-52924857D01*
X47774666Y-52862952D01*
X48393714Y-53420095D02*
X48393714Y-52553428D01*
X48393714Y-52801047D02*
X48455619Y-52677238D01*
X48517523Y-52615333D01*
X48641333Y-52553428D01*
X48765142Y-52553428D01*
X49755619Y-53358190D02*
X49631809Y-53420095D01*
X49384190Y-53420095D01*
X49260380Y-53358190D01*
X49198476Y-53296285D01*
X49136571Y-53172476D01*
X49136571Y-52801047D01*
X49198476Y-52677238D01*
X49260380Y-52615333D01*
X49384190Y-52553428D01*
X49631809Y-52553428D01*
X49755619Y-52615333D01*
X50188952Y-52553428D02*
X50436571Y-53420095D01*
X50684190Y-52801047D01*
X50931809Y-53420095D01*
X51179428Y-52553428D01*
X52231809Y-53420095D02*
X52231809Y-52739142D01*
X52169904Y-52615333D01*
X52046095Y-52553428D01*
X51798476Y-52553428D01*
X51674666Y-52615333D01*
X52231809Y-53358190D02*
X52108000Y-53420095D01*
X51798476Y-53420095D01*
X51674666Y-53358190D01*
X51612761Y-53234380D01*
X51612761Y-53110571D01*
X51674666Y-52986761D01*
X51798476Y-52924857D01*
X52108000Y-52924857D01*
X52231809Y-52862952D01*
X53408000Y-52553428D02*
X53408000Y-53605809D01*
X53346095Y-53729619D01*
X53284190Y-53791523D01*
X53160380Y-53853428D01*
X52974666Y-53853428D01*
X52850857Y-53791523D01*
X53408000Y-53358190D02*
X53284190Y-53420095D01*
X53036571Y-53420095D01*
X52912761Y-53358190D01*
X52850857Y-53296285D01*
X52788952Y-53172476D01*
X52788952Y-52801047D01*
X52850857Y-52677238D01*
X52912761Y-52615333D01*
X53036571Y-52553428D01*
X53284190Y-52553428D01*
X53408000Y-52615333D01*
X54027047Y-52553428D02*
X54027047Y-53420095D01*
X54027047Y-52677238D02*
X54088952Y-52615333D01*
X54212761Y-52553428D01*
X54398476Y-52553428D01*
X54522285Y-52615333D01*
X54584190Y-52739142D01*
X54584190Y-53420095D01*
X55698476Y-53358190D02*
X55574666Y-53420095D01*
X55327047Y-53420095D01*
X55203238Y-53358190D01*
X55141333Y-53234380D01*
X55141333Y-52739142D01*
X55203238Y-52615333D01*
X55327047Y-52553428D01*
X55574666Y-52553428D01*
X55698476Y-52615333D01*
X55760380Y-52739142D01*
X55760380Y-52862952D01*
X55141333Y-52986761D01*
X56317523Y-53420095D02*
X56317523Y-52553428D01*
X56317523Y-52801047D02*
X56379428Y-52677238D01*
X56441333Y-52615333D01*
X56565142Y-52553428D01*
X56688952Y-52553428D01*
D11*
X15300000Y-87903857D02*
X15514285Y-87975285D01*
X15585714Y-88046714D01*
X15657142Y-88189571D01*
X15657142Y-88403857D01*
X15585714Y-88546714D01*
X15514285Y-88618142D01*
X15371428Y-88689571D01*
X14800000Y-88689571D01*
X14800000Y-87189571D01*
X15300000Y-87189571D01*
X15442857Y-87261000D01*
X15514285Y-87332428D01*
X15585714Y-87475285D01*
X15585714Y-87618142D01*
X15514285Y-87761000D01*
X15442857Y-87832428D01*
X15300000Y-87903857D01*
X14800000Y-87903857D01*
X16228571Y-88261000D02*
X16942857Y-88261000D01*
X16085714Y-88689571D02*
X16585714Y-87189571D01*
X17085714Y-88689571D01*
X17371428Y-87189571D02*
X18228571Y-87189571D01*
X17800000Y-88689571D02*
X17800000Y-87189571D01*
X18514285Y-87189571D02*
X19371428Y-87189571D01*
X18942857Y-88689571D02*
X18942857Y-87189571D01*
X19871428Y-87903857D02*
X20371428Y-87903857D01*
X20585714Y-88689571D02*
X19871428Y-88689571D01*
X19871428Y-87189571D01*
X20585714Y-87189571D01*
X22085714Y-88689571D02*
X21585714Y-87975285D01*
X21228571Y-88689571D02*
X21228571Y-87189571D01*
X21800000Y-87189571D01*
X21942857Y-87261000D01*
X22014285Y-87332428D01*
X22085714Y-87475285D01*
X22085714Y-87689571D01*
X22014285Y-87832428D01*
X21942857Y-87903857D01*
X21800000Y-87975285D01*
X21228571Y-87975285D01*
X23014285Y-87975285D02*
X23014285Y-88689571D01*
X22514285Y-87189571D02*
X23014285Y-87975285D01*
X23514285Y-87189571D01*
X10255428Y-98111571D02*
X10541142Y-98111571D01*
X10684000Y-98183000D01*
X10826857Y-98325857D01*
X10898285Y-98611571D01*
X10898285Y-99111571D01*
X10826857Y-99397285D01*
X10684000Y-99540142D01*
X10541142Y-99611571D01*
X10255428Y-99611571D01*
X10112571Y-99540142D01*
X9969714Y-99397285D01*
X9898285Y-99111571D01*
X9898285Y-98611571D01*
X9969714Y-98325857D01*
X10112571Y-98183000D01*
X10255428Y-98111571D01*
X12041142Y-98825857D02*
X11541142Y-98825857D01*
X11541142Y-99611571D02*
X11541142Y-98111571D01*
X12255428Y-98111571D01*
X13326857Y-98825857D02*
X12826857Y-98825857D01*
X12826857Y-99611571D02*
X12826857Y-98111571D01*
X13541142Y-98111571D01*
X10755428Y-87189571D02*
X11041142Y-87189571D01*
X11184000Y-87261000D01*
X11326857Y-87403857D01*
X11398285Y-87689571D01*
X11398285Y-88189571D01*
X11326857Y-88475285D01*
X11184000Y-88618142D01*
X11041142Y-88689571D01*
X10755428Y-88689571D01*
X10612571Y-88618142D01*
X10469714Y-88475285D01*
X10398285Y-88189571D01*
X10398285Y-87689571D01*
X10469714Y-87403857D01*
X10612571Y-87261000D01*
X10755428Y-87189571D01*
X12041142Y-88689571D02*
X12041142Y-87189571D01*
X12898285Y-88689571D01*
X12898285Y-87189571D01*
X22034428Y-86213142D02*
X20891571Y-86213142D01*
X16954428Y-86213142D02*
X15811571Y-86213142D01*
X16383000Y-86784571D02*
X16383000Y-85641714D01*
X74612571Y-55479142D02*
X75755428Y-55479142D01*
X75184000Y-56050571D02*
X75184000Y-54907714D01*
X69659571Y-55518857D02*
X70802428Y-55518857D01*
X72322571Y-55979142D02*
X72465428Y-56050571D01*
X72751142Y-56050571D01*
X72894000Y-55979142D01*
X72965428Y-55836285D01*
X72965428Y-55764857D01*
X72894000Y-55622000D01*
X72751142Y-55550571D01*
X72536857Y-55550571D01*
X72394000Y-55479142D01*
X72322571Y-55336285D01*
X72322571Y-55264857D01*
X72394000Y-55122000D01*
X72536857Y-55050571D01*
X72751142Y-55050571D01*
X72894000Y-55122000D01*
X26348571Y-39850142D02*
X26491428Y-39921571D01*
X26777142Y-39921571D01*
X26920000Y-39850142D01*
X26991428Y-39707285D01*
X26991428Y-39635857D01*
X26920000Y-39493000D01*
X26777142Y-39421571D01*
X26562857Y-39421571D01*
X26420000Y-39350142D01*
X26348571Y-39207285D01*
X26348571Y-39135857D01*
X26420000Y-38993000D01*
X26562857Y-38921571D01*
X26777142Y-38921571D01*
X26920000Y-38993000D01*
X27368428Y-41890142D02*
X26225571Y-41890142D01*
X26797000Y-42461571D02*
X26797000Y-41318714D01*
X27495428Y-44557142D02*
X26352571Y-44557142D01*
X25082428Y-27285142D02*
X23939571Y-27285142D01*
X24511000Y-27856571D02*
X24511000Y-26713714D01*
X25082428Y-36556142D02*
X23939571Y-36556142D01*
X11525285Y-18712571D02*
X10668142Y-18712571D01*
X11096714Y-18712571D02*
X11096714Y-17212571D01*
X10953857Y-17426857D01*
X10811000Y-17569714D01*
X10668142Y-17641142D01*
X12096714Y-17355428D02*
X12168142Y-17284000D01*
X12311000Y-17212571D01*
X12668142Y-17212571D01*
X12811000Y-17284000D01*
X12882428Y-17355428D01*
X12953857Y-17498285D01*
X12953857Y-17641142D01*
X12882428Y-17855428D01*
X12025285Y-18712571D01*
X12953857Y-18712571D01*
X11414142Y-23189428D02*
X11271285Y-23118000D01*
X11199857Y-23046571D01*
X11128428Y-22903714D01*
X11128428Y-22832285D01*
X11199857Y-22689428D01*
X11271285Y-22618000D01*
X11414142Y-22546571D01*
X11699857Y-22546571D01*
X11842714Y-22618000D01*
X11914142Y-22689428D01*
X11985571Y-22832285D01*
X11985571Y-22903714D01*
X11914142Y-23046571D01*
X11842714Y-23118000D01*
X11699857Y-23189428D01*
X11414142Y-23189428D01*
X11271285Y-23260857D01*
X11199857Y-23332285D01*
X11128428Y-23475142D01*
X11128428Y-23760857D01*
X11199857Y-23903714D01*
X11271285Y-23975142D01*
X11414142Y-24046571D01*
X11699857Y-24046571D01*
X11842714Y-23975142D01*
X11914142Y-23903714D01*
X11985571Y-23760857D01*
X11985571Y-23475142D01*
X11914142Y-23332285D01*
X11842714Y-23260857D01*
X11699857Y-23189428D01*
X11057000Y-20006571D02*
X12057000Y-20006571D01*
X11414142Y-21506571D01*
X74231428Y-10775142D02*
X73088571Y-10775142D01*
X79184428Y-10902142D02*
X78041571Y-10902142D01*
X78613000Y-11473571D02*
X78613000Y-10330714D01*
X76521428Y-10441857D02*
X76378571Y-10370428D01*
X76092857Y-10370428D01*
X75950000Y-10441857D01*
X75878571Y-10584714D01*
X75878571Y-10656142D01*
X75950000Y-10799000D01*
X76092857Y-10870428D01*
X76307142Y-10870428D01*
X76450000Y-10941857D01*
X76521428Y-11084714D01*
X76521428Y-11156142D01*
X76450000Y-11299000D01*
X76307142Y-11370428D01*
X76092857Y-11370428D01*
X75950000Y-11299000D01*
X6290428Y-10187857D02*
X6147571Y-10116428D01*
X5861857Y-10116428D01*
X5719000Y-10187857D01*
X5647571Y-10330714D01*
X5647571Y-10402142D01*
X5719000Y-10545000D01*
X5861857Y-10616428D01*
X6076142Y-10616428D01*
X6219000Y-10687857D01*
X6290428Y-10830714D01*
X6290428Y-10902142D01*
X6219000Y-11045000D01*
X6076142Y-11116428D01*
X5861857Y-11116428D01*
X5719000Y-11045000D01*
X8953428Y-10648142D02*
X7810571Y-10648142D01*
X4000428Y-10648142D02*
X2857571Y-10648142D01*
X3429000Y-11219571D02*
X3429000Y-10076714D01*
D12*
G36*
X45398800Y-29447706D02*
G01*
X45860081Y-29493267D01*
X46164500Y-29549862D01*
X46426148Y-29628823D01*
X46743934Y-29747509D01*
X47090051Y-29892965D01*
X47436688Y-30052236D01*
X47756037Y-30212368D01*
X48020289Y-30360406D01*
X48201636Y-30483394D01*
X48238159Y-30515886D01*
X48338838Y-30640674D01*
X48347593Y-30742861D01*
X48326028Y-30792774D01*
X48229175Y-30913835D01*
X48098532Y-30954317D01*
X47915639Y-30912870D01*
X47662035Y-30788148D01*
X47575538Y-30737938D01*
X46852523Y-30378099D01*
X46096012Y-30131952D01*
X45320150Y-29999201D01*
X44539080Y-29979550D01*
X43766946Y-30072703D01*
X43017893Y-30278364D01*
X42306065Y-30596236D01*
X41878250Y-30857274D01*
X41713681Y-30955948D01*
X41594877Y-30978456D01*
X41471839Y-30932047D01*
X41449625Y-30919413D01*
X41353011Y-30801682D01*
X41353001Y-30642937D01*
X41445084Y-30479011D01*
X41513125Y-30414861D01*
X41722701Y-30277006D01*
X42019653Y-30117476D01*
X42369811Y-29951424D01*
X42739007Y-29793999D01*
X43093072Y-29660353D01*
X43397838Y-29565636D01*
X43465750Y-29549038D01*
X43879961Y-29481143D01*
X44367619Y-29441631D01*
X44887606Y-29430489D01*
X45398800Y-29447706D01*
G37*
X45398800Y-29447706D02*
X45860081Y-29493267D01*
X46164500Y-29549862D01*
X46426148Y-29628823D01*
X46743934Y-29747509D01*
X47090051Y-29892965D01*
X47436688Y-30052236D01*
X47756037Y-30212368D01*
X48020289Y-30360406D01*
X48201636Y-30483394D01*
X48238159Y-30515886D01*
X48338838Y-30640674D01*
X48347593Y-30742861D01*
X48326028Y-30792774D01*
X48229175Y-30913835D01*
X48098532Y-30954317D01*
X47915639Y-30912870D01*
X47662035Y-30788148D01*
X47575538Y-30737938D01*
X46852523Y-30378099D01*
X46096012Y-30131952D01*
X45320150Y-29999201D01*
X44539080Y-29979550D01*
X43766946Y-30072703D01*
X43017893Y-30278364D01*
X42306065Y-30596236D01*
X41878250Y-30857274D01*
X41713681Y-30955948D01*
X41594877Y-30978456D01*
X41471839Y-30932047D01*
X41449625Y-30919413D01*
X41353011Y-30801682D01*
X41353001Y-30642937D01*
X41445084Y-30479011D01*
X41513125Y-30414861D01*
X41722701Y-30277006D01*
X42019653Y-30117476D01*
X42369811Y-29951424D01*
X42739007Y-29793999D01*
X43093072Y-29660353D01*
X43397838Y-29565636D01*
X43465750Y-29549038D01*
X43879961Y-29481143D01*
X44367619Y-29441631D01*
X44887606Y-29430489D01*
X45398800Y-29447706D01*
G36*
X45028338Y-30761261D02*
G01*
X45085000Y-30765928D01*
X45566800Y-30839220D01*
X46054428Y-30962876D01*
X46515655Y-31125341D01*
X46918251Y-31315060D01*
X47229989Y-31520476D01*
X47259875Y-31545731D01*
X47357660Y-31695774D01*
X47357797Y-31857954D01*
X47263918Y-31987255D01*
X47222315Y-32010967D01*
X47116286Y-32039426D01*
X46997953Y-32015124D01*
X46828648Y-31927688D01*
X46761940Y-31887476D01*
X46141650Y-31576604D01*
X45501246Y-31389843D01*
X44848169Y-31327330D01*
X44189864Y-31389202D01*
X43533771Y-31575597D01*
X43008366Y-31818336D01*
X42794943Y-31933204D01*
X42628663Y-32020073D01*
X42537232Y-32064562D01*
X42528377Y-32067500D01*
X42465682Y-32034787D01*
X42392356Y-31984567D01*
X42292442Y-31857324D01*
X42303233Y-31713919D01*
X42410464Y-31560809D01*
X42599870Y-31404450D01*
X42857185Y-31251297D01*
X43168145Y-31107807D01*
X43518484Y-30980436D01*
X43893938Y-30875639D01*
X44280242Y-30799874D01*
X44663130Y-30759596D01*
X45028338Y-30761261D01*
G37*
X45028338Y-30761261D02*
X45085000Y-30765928D01*
X45566800Y-30839220D01*
X46054428Y-30962876D01*
X46515655Y-31125341D01*
X46918251Y-31315060D01*
X47229989Y-31520476D01*
X47259875Y-31545731D01*
X47357660Y-31695774D01*
X47357797Y-31857954D01*
X47263918Y-31987255D01*
X47222315Y-32010967D01*
X47116286Y-32039426D01*
X46997953Y-32015124D01*
X46828648Y-31927688D01*
X46761940Y-31887476D01*
X46141650Y-31576604D01*
X45501246Y-31389843D01*
X44848169Y-31327330D01*
X44189864Y-31389202D01*
X43533771Y-31575597D01*
X43008366Y-31818336D01*
X42794943Y-31933204D01*
X42628663Y-32020073D01*
X42537232Y-32064562D01*
X42528377Y-32067500D01*
X42465682Y-32034787D01*
X42392356Y-31984567D01*
X42292442Y-31857324D01*
X42303233Y-31713919D01*
X42410464Y-31560809D01*
X42599870Y-31404450D01*
X42857185Y-31251297D01*
X43168145Y-31107807D01*
X43518484Y-30980436D01*
X43893938Y-30875639D01*
X44280242Y-30799874D01*
X44663130Y-30759596D01*
X45028338Y-30761261D01*
G36*
X45311231Y-32191679D02*
G01*
X45855996Y-32357813D01*
X46016467Y-32432667D01*
X46217303Y-32540132D01*
X46328581Y-32623469D01*
X46376372Y-32711084D01*
X46386744Y-32831379D01*
X46386750Y-32836122D01*
X46372073Y-32986544D01*
X46308917Y-33052758D01*
X46223545Y-33070740D01*
X46079459Y-33052749D01*
X45876650Y-32986515D01*
X45715545Y-32914063D01*
X45516762Y-32822728D01*
X45333579Y-32769058D01*
X45118200Y-32743448D01*
X44831000Y-32736322D01*
X44537831Y-32741527D01*
X44322702Y-32766058D01*
X44137043Y-32819275D01*
X43935670Y-32908875D01*
X43652942Y-33031294D01*
X43452707Y-33075625D01*
X43318211Y-33043022D01*
X43243500Y-32956500D01*
X43209849Y-32804145D01*
X43283900Y-32659284D01*
X43472599Y-32512704D01*
X43650370Y-32416845D01*
X44190107Y-32221072D01*
X44749831Y-32146057D01*
X45311231Y-32191679D01*
G37*
X45311231Y-32191679D02*
X45855996Y-32357813D01*
X46016467Y-32432667D01*
X46217303Y-32540132D01*
X46328581Y-32623469D01*
X46376372Y-32711084D01*
X46386744Y-32831379D01*
X46386750Y-32836122D01*
X46372073Y-32986544D01*
X46308917Y-33052758D01*
X46223545Y-33070740D01*
X46079459Y-33052749D01*
X45876650Y-32986515D01*
X45715545Y-32914063D01*
X45516762Y-32822728D01*
X45333579Y-32769058D01*
X45118200Y-32743448D01*
X44831000Y-32736322D01*
X44537831Y-32741527D01*
X44322702Y-32766058D01*
X44137043Y-32819275D01*
X43935670Y-32908875D01*
X43652942Y-33031294D01*
X43452707Y-33075625D01*
X43318211Y-33043022D01*
X43243500Y-32956500D01*
X43209849Y-32804145D01*
X43283900Y-32659284D01*
X43472599Y-32512704D01*
X43650370Y-32416845D01*
X44190107Y-32221072D01*
X44749831Y-32146057D01*
X45311231Y-32191679D01*
G36*
X45056872Y-33547687D02*
G01*
X45212118Y-33619186D01*
X45294562Y-33691380D01*
X45452582Y-33924386D01*
X45501934Y-34174838D01*
X45453778Y-34418106D01*
X45319274Y-34629565D01*
X45109582Y-34784587D01*
X44835863Y-34858545D01*
X44764303Y-34861500D01*
X44575523Y-34818786D01*
X44382274Y-34678510D01*
X44348400Y-34645600D01*
X44182647Y-34407285D01*
X44128886Y-34158455D01*
X44176770Y-33922687D01*
X44315952Y-33723559D01*
X44536087Y-33584649D01*
X44826826Y-33529533D01*
X44838215Y-33529411D01*
X45056872Y-33547687D01*
G37*
X45056872Y-33547687D02*
X45212118Y-33619186D01*
X45294562Y-33691380D01*
X45452582Y-33924386D01*
X45501934Y-34174838D01*
X45453778Y-34418106D01*
X45319274Y-34629565D01*
X45109582Y-34784587D01*
X44835863Y-34858545D01*
X44764303Y-34861500D01*
X44575523Y-34818786D01*
X44382274Y-34678510D01*
X44348400Y-34645600D01*
X44182647Y-34407285D01*
X44128886Y-34158455D01*
X44176770Y-33922687D01*
X44315952Y-33723559D01*
X44536087Y-33584649D01*
X44826826Y-33529533D01*
X44838215Y-33529411D01*
X45056872Y-33547687D01*
G36*
X50663181Y-34961283D02*
G01*
X51060184Y-35141988D01*
X51419961Y-35427503D01*
X51657685Y-35715284D01*
X51776894Y-35893146D01*
X51851290Y-36031758D01*
X51891435Y-36170851D01*
X51907894Y-36350157D01*
X51911228Y-36609409D01*
X51911250Y-36669064D01*
X51908736Y-36936078D01*
X51894307Y-37134409D01*
X51857631Y-37305085D01*
X51788377Y-37489132D01*
X51676213Y-37727577D01*
X51611952Y-37857584D01*
X51479890Y-38127400D01*
X51363513Y-38372045D01*
X51278393Y-38558424D01*
X51246724Y-38633897D01*
X51165516Y-38763080D01*
X51046416Y-38787306D01*
X51044507Y-38787028D01*
X50913556Y-38750059D01*
X50843782Y-38676545D01*
X50836233Y-38550626D01*
X50891955Y-38356441D01*
X51011994Y-38078130D01*
X51103866Y-37887402D01*
X51241815Y-37595113D01*
X51362401Y-37317596D01*
X51451107Y-37089586D01*
X51489931Y-36963668D01*
X51512827Y-36587225D01*
X51425269Y-36213659D01*
X51240317Y-35875404D01*
X50971028Y-35604897D01*
X50931772Y-35577251D01*
X50549548Y-35389252D01*
X50153917Y-35325379D01*
X49758224Y-35385611D01*
X49375813Y-35569929D01*
X49361540Y-35579504D01*
X49076851Y-35825796D01*
X48897044Y-36117130D01*
X48811061Y-36475618D01*
X48799750Y-36703000D01*
X48805097Y-36893293D01*
X48827953Y-37057418D01*
X48878539Y-37228026D01*
X48967073Y-37437770D01*
X49103776Y-37719303D01*
X49141161Y-37793782D01*
X49297869Y-38116612D01*
X49395942Y-38349963D01*
X49442273Y-38513145D01*
X49443757Y-38625466D01*
X49441576Y-38635157D01*
X49362123Y-38762462D01*
X49239135Y-38799391D01*
X49118690Y-38734397D01*
X49106541Y-38719125D01*
X49058214Y-38633683D01*
X48968455Y-38458163D01*
X48849728Y-38217481D01*
X48714499Y-37936554D01*
X48703263Y-37912924D01*
X48549527Y-37579367D01*
X48445973Y-37324437D01*
X48382063Y-37115213D01*
X48347260Y-36918779D01*
X48333857Y-36758931D01*
X48329213Y-36487956D01*
X48359187Y-36278537D01*
X48434914Y-36067420D01*
X48468590Y-35993506D01*
X48725510Y-35577060D01*
X49049043Y-35256364D01*
X49421883Y-35032928D01*
X49826724Y-34908263D01*
X50246259Y-34883878D01*
X50663181Y-34961283D01*
G37*
X50663181Y-34961283D02*
X51060184Y-35141988D01*
X51419961Y-35427503D01*
X51657685Y-35715284D01*
X51776894Y-35893146D01*
X51851290Y-36031758D01*
X51891435Y-36170851D01*
X51907894Y-36350157D01*
X51911228Y-36609409D01*
X51911250Y-36669064D01*
X51908736Y-36936078D01*
X51894307Y-37134409D01*
X51857631Y-37305085D01*
X51788377Y-37489132D01*
X51676213Y-37727577D01*
X51611952Y-37857584D01*
X51479890Y-38127400D01*
X51363513Y-38372045D01*
X51278393Y-38558424D01*
X51246724Y-38633897D01*
X51165516Y-38763080D01*
X51046416Y-38787306D01*
X51044507Y-38787028D01*
X50913556Y-38750059D01*
X50843782Y-38676545D01*
X50836233Y-38550626D01*
X50891955Y-38356441D01*
X51011994Y-38078130D01*
X51103866Y-37887402D01*
X51241815Y-37595113D01*
X51362401Y-37317596D01*
X51451107Y-37089586D01*
X51489931Y-36963668D01*
X51512827Y-36587225D01*
X51425269Y-36213659D01*
X51240317Y-35875404D01*
X50971028Y-35604897D01*
X50931772Y-35577251D01*
X50549548Y-35389252D01*
X50153917Y-35325379D01*
X49758224Y-35385611D01*
X49375813Y-35569929D01*
X49361540Y-35579504D01*
X49076851Y-35825796D01*
X48897044Y-36117130D01*
X48811061Y-36475618D01*
X48799750Y-36703000D01*
X48805097Y-36893293D01*
X48827953Y-37057418D01*
X48878539Y-37228026D01*
X48967073Y-37437770D01*
X49103776Y-37719303D01*
X49141161Y-37793782D01*
X49297869Y-38116612D01*
X49395942Y-38349963D01*
X49442273Y-38513145D01*
X49443757Y-38625466D01*
X49441576Y-38635157D01*
X49362123Y-38762462D01*
X49239135Y-38799391D01*
X49118690Y-38734397D01*
X49106541Y-38719125D01*
X49058214Y-38633683D01*
X48968455Y-38458163D01*
X48849728Y-38217481D01*
X48714499Y-37936554D01*
X48703263Y-37912924D01*
X48549527Y-37579367D01*
X48445973Y-37324437D01*
X48382063Y-37115213D01*
X48347260Y-36918779D01*
X48333857Y-36758931D01*
X48329213Y-36487956D01*
X48359187Y-36278537D01*
X48434914Y-36067420D01*
X48468590Y-35993506D01*
X48725510Y-35577060D01*
X49049043Y-35256364D01*
X49421883Y-35032928D01*
X49826724Y-34908263D01*
X50246259Y-34883878D01*
X50663181Y-34961283D01*
G36*
X49386708Y-39151175D02*
G01*
X49512513Y-39205263D01*
X49918225Y-39336706D01*
X50318034Y-39341293D01*
X50658834Y-39243039D01*
X50913118Y-39153716D01*
X51078383Y-39146478D01*
X51163797Y-39222863D01*
X51181000Y-39330592D01*
X51122172Y-39473442D01*
X50963050Y-39597048D01*
X50729677Y-39695127D01*
X50448097Y-39761396D01*
X50144352Y-39789574D01*
X49844484Y-39773377D01*
X49593500Y-39713553D01*
X49308690Y-39586673D01*
X49140581Y-39454522D01*
X49092402Y-39321327D01*
X49167382Y-39191319D01*
X49183800Y-39176968D01*
X49271478Y-39132849D01*
X49386708Y-39151175D01*
G37*
X49386708Y-39151175D02*
X49512513Y-39205263D01*
X49918225Y-39336706D01*
X50318034Y-39341293D01*
X50658834Y-39243039D01*
X50913118Y-39153716D01*
X51078383Y-39146478D01*
X51163797Y-39222863D01*
X51181000Y-39330592D01*
X51122172Y-39473442D01*
X50963050Y-39597048D01*
X50729677Y-39695127D01*
X50448097Y-39761396D01*
X50144352Y-39789574D01*
X49844484Y-39773377D01*
X49593500Y-39713553D01*
X49308690Y-39586673D01*
X49140581Y-39454522D01*
X49092402Y-39321327D01*
X49167382Y-39191319D01*
X49183800Y-39176968D01*
X49271478Y-39132849D01*
X49386708Y-39151175D01*
G36*
X51084466Y-39837459D02*
G01*
X51176959Y-39955945D01*
X51159720Y-40081132D01*
X51048863Y-40202650D01*
X50860504Y-40310130D01*
X50610757Y-40393205D01*
X50315737Y-40441504D01*
X50133250Y-40449500D01*
X49820875Y-40434290D01*
X49578324Y-40381604D01*
X49400579Y-40306625D01*
X49220103Y-40199988D01*
X49134862Y-40100122D01*
X49117250Y-40005000D01*
X49163576Y-39872182D01*
X49291786Y-39823296D01*
X49485730Y-39861540D01*
X49594819Y-39910432D01*
X49864086Y-39993233D01*
X50187256Y-40010490D01*
X50510184Y-39963406D01*
X50721950Y-39885422D01*
X50893198Y-39809127D01*
X51002684Y-39797529D01*
X51084466Y-39837459D01*
G37*
X51084466Y-39837459D02*
X51176959Y-39955945D01*
X51159720Y-40081132D01*
X51048863Y-40202650D01*
X50860504Y-40310130D01*
X50610757Y-40393205D01*
X50315737Y-40441504D01*
X50133250Y-40449500D01*
X49820875Y-40434290D01*
X49578324Y-40381604D01*
X49400579Y-40306625D01*
X49220103Y-40199988D01*
X49134862Y-40100122D01*
X49117250Y-40005000D01*
X49163576Y-39872182D01*
X49291786Y-39823296D01*
X49485730Y-39861540D01*
X49594819Y-39910432D01*
X49864086Y-39993233D01*
X50187256Y-40010490D01*
X50510184Y-39963406D01*
X50721950Y-39885422D01*
X50893198Y-39809127D01*
X51002684Y-39797529D01*
X51084466Y-39837459D01*
G36*
X38721167Y-34903843D02*
G01*
X38873115Y-34966159D01*
X39005508Y-35051996D01*
X39108013Y-35148987D01*
X39184397Y-35273754D01*
X39238428Y-35442915D01*
X39273876Y-35673091D01*
X39294508Y-35980902D01*
X39304093Y-36382969D01*
X39306401Y-36877075D01*
X39306500Y-38225901D01*
X39522637Y-38509056D01*
X39716535Y-38855103D01*
X39791629Y-39216731D01*
X39748273Y-39575163D01*
X39586821Y-39911620D01*
X39493941Y-40030531D01*
X39194927Y-40284333D01*
X38854654Y-40424820D01*
X38493100Y-40449046D01*
X38130242Y-40354063D01*
X37950220Y-40258203D01*
X37675563Y-40016322D01*
X37493857Y-39714037D01*
X37407843Y-39377150D01*
X37411196Y-39283823D01*
X38036549Y-39283823D01*
X38115210Y-39515443D01*
X38138544Y-39550930D01*
X38331299Y-39734573D01*
X38562044Y-39798553D01*
X38819186Y-39740126D01*
X38858268Y-39721179D01*
X39029724Y-39569598D01*
X39117482Y-39360281D01*
X39122414Y-39130001D01*
X39045392Y-38915531D01*
X38887291Y-38753647D01*
X38834637Y-38725445D01*
X38673676Y-38652106D01*
X38656713Y-37105988D01*
X38648554Y-36595737D01*
X38636503Y-36176335D01*
X38620999Y-35856325D01*
X38602482Y-35644254D01*
X38581393Y-35548665D01*
X38576250Y-35544060D01*
X38553898Y-35600760D01*
X38534488Y-35779166D01*
X38518298Y-36074014D01*
X38505604Y-36480038D01*
X38496684Y-36991971D01*
X38495733Y-37073465D01*
X38478717Y-38618680D01*
X38257608Y-38827213D01*
X38084203Y-39053269D01*
X38036549Y-39283823D01*
X37411196Y-39283823D01*
X37420263Y-39031468D01*
X37533857Y-38702792D01*
X37751367Y-38416929D01*
X37754327Y-38414138D01*
X37909499Y-38268362D01*
X37909499Y-36842301D01*
X37910193Y-36377260D01*
X37913234Y-36021280D01*
X37920059Y-35756424D01*
X37932108Y-35564756D01*
X37950819Y-35428339D01*
X37977630Y-35329237D01*
X38013980Y-35249513D01*
X38040922Y-35203594D01*
X38230228Y-34999373D01*
X38466801Y-34896654D01*
X38721167Y-34903843D01*
G37*
X38721167Y-34903843D02*
X38873115Y-34966159D01*
X39005508Y-35051996D01*
X39108013Y-35148987D01*
X39184397Y-35273754D01*
X39238428Y-35442915D01*
X39273876Y-35673091D01*
X39294508Y-35980902D01*
X39304093Y-36382969D01*
X39306401Y-36877075D01*
X39306500Y-38225901D01*
X39522637Y-38509056D01*
X39716535Y-38855103D01*
X39791629Y-39216731D01*
X39748273Y-39575163D01*
X39586821Y-39911620D01*
X39493941Y-40030531D01*
X39194927Y-40284333D01*
X38854654Y-40424820D01*
X38493100Y-40449046D01*
X38130242Y-40354063D01*
X37950220Y-40258203D01*
X37675563Y-40016322D01*
X37493857Y-39714037D01*
X37407843Y-39377150D01*
X37411196Y-39283823D01*
X38036549Y-39283823D01*
X38115210Y-39515443D01*
X38138544Y-39550930D01*
X38331299Y-39734573D01*
X38562044Y-39798553D01*
X38819186Y-39740126D01*
X38858268Y-39721179D01*
X39029724Y-39569598D01*
X39117482Y-39360281D01*
X39122414Y-39130001D01*
X39045392Y-38915531D01*
X38887291Y-38753647D01*
X38834637Y-38725445D01*
X38673676Y-38652106D01*
X38656713Y-37105988D01*
X38648554Y-36595737D01*
X38636503Y-36176335D01*
X38620999Y-35856325D01*
X38602482Y-35644254D01*
X38581393Y-35548665D01*
X38576250Y-35544060D01*
X38553898Y-35600760D01*
X38534488Y-35779166D01*
X38518298Y-36074014D01*
X38505604Y-36480038D01*
X38496684Y-36991971D01*
X38495733Y-37073465D01*
X38478717Y-38618680D01*
X38257608Y-38827213D01*
X38084203Y-39053269D01*
X38036549Y-39283823D01*
X37411196Y-39283823D01*
X37420263Y-39031468D01*
X37533857Y-38702792D01*
X37751367Y-38416929D01*
X37754327Y-38414138D01*
X37909499Y-38268362D01*
X37909499Y-36842301D01*
X37910193Y-36377260D01*
X37913234Y-36021280D01*
X37920059Y-35756424D01*
X37932108Y-35564756D01*
X37950819Y-35428339D01*
X37977630Y-35329237D01*
X38013980Y-35249513D01*
X38040922Y-35203594D01*
X38230228Y-34999373D01*
X38466801Y-34896654D01*
X38721167Y-34903843D01*
G36*
X47568815Y-44737356D02*
G01*
X47748488Y-44832338D01*
X47861587Y-44999462D01*
X47902505Y-45201086D01*
X47865633Y-45399571D01*
X47745363Y-45557274D01*
X47695714Y-45589139D01*
X47458030Y-45657812D01*
X47231584Y-45620729D01*
X47058108Y-45489186D01*
X46952954Y-45322375D01*
X46937919Y-45171333D01*
X47009257Y-44982482D01*
X47021053Y-44959346D01*
X47163912Y-44784635D01*
X47363225Y-44717754D01*
X47568815Y-44737356D01*
G37*
X47568815Y-44737356D02*
X47748488Y-44832338D01*
X47861587Y-44999462D01*
X47902505Y-45201086D01*
X47865633Y-45399571D01*
X47745363Y-45557274D01*
X47695714Y-45589139D01*
X47458030Y-45657812D01*
X47231584Y-45620729D01*
X47058108Y-45489186D01*
X46952954Y-45322375D01*
X46937919Y-45171333D01*
X47009257Y-44982482D01*
X47021053Y-44959346D01*
X47163912Y-44784635D01*
X47363225Y-44717754D01*
X47568815Y-44737356D01*
G36*
X48768977Y-44143843D02*
G01*
X48880121Y-44286087D01*
X48978829Y-44444350D01*
X49099848Y-44689679D01*
X49158035Y-44911651D01*
X49172812Y-45177582D01*
X49134449Y-45531326D01*
X49029728Y-45867623D01*
X48874205Y-46144171D01*
X48778340Y-46250391D01*
X48706617Y-46301800D01*
X48637371Y-46296284D01*
X48539216Y-46220726D01*
X48417305Y-46099520D01*
X48169723Y-45845974D01*
X48288257Y-45645311D01*
X48376655Y-45401791D01*
X48398480Y-45120178D01*
X48353365Y-44856534D01*
X48294233Y-44730628D01*
X48237796Y-44630761D01*
X48235286Y-44547988D01*
X48296513Y-44440665D01*
X48391612Y-44317176D01*
X48524341Y-44174970D01*
X48641651Y-44091693D01*
X48689002Y-44081726D01*
X48768977Y-44143843D01*
G37*
X48768977Y-44143843D02*
X48880121Y-44286087D01*
X48978829Y-44444350D01*
X49099848Y-44689679D01*
X49158035Y-44911651D01*
X49172812Y-45177582D01*
X49134449Y-45531326D01*
X49029728Y-45867623D01*
X48874205Y-46144171D01*
X48778340Y-46250391D01*
X48706617Y-46301800D01*
X48637371Y-46296284D01*
X48539216Y-46220726D01*
X48417305Y-46099520D01*
X48169723Y-45845974D01*
X48288257Y-45645311D01*
X48376655Y-45401791D01*
X48398480Y-45120178D01*
X48353365Y-44856534D01*
X48294233Y-44730628D01*
X48237796Y-44630761D01*
X48235286Y-44547988D01*
X48296513Y-44440665D01*
X48391612Y-44317176D01*
X48524341Y-44174970D01*
X48641651Y-44091693D01*
X48689002Y-44081726D01*
X48768977Y-44143843D01*
G36*
X49719921Y-43338392D02*
G01*
X49839494Y-43456750D01*
X49980939Y-43662902D01*
X50126576Y-43923955D01*
X50258724Y-44207020D01*
X50359702Y-44479205D01*
X50388504Y-44582120D01*
X50465756Y-45118817D01*
X50425854Y-45643480D01*
X50288366Y-46127885D01*
X50186137Y-46356087D01*
X50053259Y-46592509D01*
X49910745Y-46805540D01*
X49779606Y-46963568D01*
X49686495Y-47033391D01*
X49609543Y-47003374D01*
X49480227Y-46903251D01*
X49372910Y-46801200D01*
X49125079Y-46547398D01*
X49260937Y-46402783D01*
X49408820Y-46192496D01*
X49545986Y-45905833D01*
X49650643Y-45592936D01*
X49687531Y-45421241D01*
X49694006Y-45045873D01*
X49609338Y-44641704D01*
X49445001Y-44254756D01*
X49363211Y-44120555D01*
X49142113Y-43792004D01*
X49392638Y-43541479D01*
X49559369Y-43396256D01*
X49681123Y-43333908D01*
X49719921Y-43338392D01*
G37*
X49719921Y-43338392D02*
X49839494Y-43456750D01*
X49980939Y-43662902D01*
X50126576Y-43923955D01*
X50258724Y-44207020D01*
X50359702Y-44479205D01*
X50388504Y-44582120D01*
X50465756Y-45118817D01*
X50425854Y-45643480D01*
X50288366Y-46127885D01*
X50186137Y-46356087D01*
X50053259Y-46592509D01*
X49910745Y-46805540D01*
X49779606Y-46963568D01*
X49686495Y-47033391D01*
X49609543Y-47003374D01*
X49480227Y-46903251D01*
X49372910Y-46801200D01*
X49125079Y-46547398D01*
X49260937Y-46402783D01*
X49408820Y-46192496D01*
X49545986Y-45905833D01*
X49650643Y-45592936D01*
X49687531Y-45421241D01*
X49694006Y-45045873D01*
X49609338Y-44641704D01*
X49445001Y-44254756D01*
X49363211Y-44120555D01*
X49142113Y-43792004D01*
X49392638Y-43541479D01*
X49559369Y-43396256D01*
X49681123Y-43333908D01*
X49719921Y-43338392D01*
G36*
X49847500Y-29686250D02*
G01*
X54864000Y-34702448D01*
X54864000Y-49085500D01*
X44767500Y-49085500D01*
X44767500Y-49498250D01*
X44758384Y-49743755D01*
X44729508Y-49875262D01*
X44688125Y-49906249D01*
X44607219Y-49889743D01*
X44420646Y-49845738D01*
X44145702Y-49778504D01*
X43799683Y-49692310D01*
X43399885Y-49591422D01*
X43021250Y-49494886D01*
X41433750Y-49088273D01*
X38115875Y-49086886D01*
X34798000Y-49085500D01*
X34798000Y-34991481D01*
X35496500Y-34991481D01*
X35496500Y-48387000D01*
X41338500Y-48387000D01*
X41338500Y-44958000D01*
X42926000Y-44958000D01*
X42926000Y-45402500D01*
X43942000Y-45402500D01*
X43942000Y-44958000D01*
X42926000Y-44958000D01*
X41338500Y-44958000D01*
X41338500Y-44838912D01*
X41338499Y-41290825D01*
X43020404Y-40870162D01*
X43463195Y-40759702D01*
X43864704Y-40660090D01*
X44208744Y-40575297D01*
X44479128Y-40509295D01*
X44659665Y-40466057D01*
X44734170Y-40449553D01*
X44734904Y-40449500D01*
X44751506Y-40507433D01*
X44763246Y-40659010D01*
X44767500Y-40862250D01*
X44767500Y-41275000D01*
X47815500Y-41275000D01*
X47815500Y-44227750D01*
X47053500Y-44227750D01*
X47053500Y-42037000D01*
X44767500Y-42037000D01*
X44767500Y-48323500D01*
X47053500Y-48323500D01*
X47053500Y-46132750D01*
X47815500Y-46132750D01*
X47815500Y-48387000D01*
X54165500Y-48387000D01*
X54165500Y-41703785D01*
X54165499Y-35020571D01*
X49514286Y-30369035D01*
X48875492Y-29730638D01*
X48261749Y-29118136D01*
X47679031Y-28537446D01*
X47133316Y-27994484D01*
X46630577Y-27495167D01*
X46176791Y-27045411D01*
X45777932Y-26651132D01*
X45439976Y-26318248D01*
X45168899Y-26052673D01*
X44970675Y-25860326D01*
X44851281Y-25747121D01*
X44816397Y-25717499D01*
X44766018Y-25761465D01*
X44631927Y-25889412D01*
X44420107Y-26095414D01*
X44136544Y-26373545D01*
X43787222Y-26717881D01*
X43378126Y-27122494D01*
X42915242Y-27581459D01*
X42404554Y-28088851D01*
X41852047Y-28638743D01*
X41263706Y-29225210D01*
X40645516Y-29842327D01*
X40133110Y-30354490D01*
X35496500Y-34991481D01*
X34798000Y-34991481D01*
X34798000Y-34702448D01*
X39814500Y-29686250D01*
X44831000Y-24670051D01*
X49847500Y-29686250D01*
G37*
X49847500Y-29686250D02*
X54864000Y-34702448D01*
X54864000Y-49085500D01*
X44767500Y-49085500D01*
X44767500Y-49498250D01*
X44758384Y-49743755D01*
X44729508Y-49875262D01*
X44688125Y-49906249D01*
X44607219Y-49889743D01*
X44420646Y-49845738D01*
X44145702Y-49778504D01*
X43799683Y-49692310D01*
X43399885Y-49591422D01*
X43021250Y-49494886D01*
X41433750Y-49088273D01*
X38115875Y-49086886D01*
X34798000Y-49085500D01*
X34798000Y-34991481D01*
X35496500Y-34991481D01*
X35496500Y-48387000D01*
X41338500Y-48387000D01*
X41338500Y-44958000D01*
X42926000Y-44958000D01*
X42926000Y-45402500D01*
X43942000Y-45402500D01*
X43942000Y-44958000D01*
X42926000Y-44958000D01*
X41338500Y-44958000D01*
X41338500Y-44838912D01*
X41338499Y-41290825D01*
X43020404Y-40870162D01*
X43463195Y-40759702D01*
X43864704Y-40660090D01*
X44208744Y-40575297D01*
X44479128Y-40509295D01*
X44659665Y-40466057D01*
X44734170Y-40449553D01*
X44734904Y-40449500D01*
X44751506Y-40507433D01*
X44763246Y-40659010D01*
X44767500Y-40862250D01*
X44767500Y-41275000D01*
X47815500Y-41275000D01*
X47815500Y-44227750D01*
X47053500Y-44227750D01*
X47053500Y-42037000D01*
X44767500Y-42037000D01*
X44767500Y-48323500D01*
X47053500Y-48323500D01*
X47053500Y-46132750D01*
X47815500Y-46132750D01*
X47815500Y-48387000D01*
X54165500Y-48387000D01*
X54165500Y-41703785D01*
X54165499Y-35020571D01*
X49514286Y-30369035D01*
X48875492Y-29730638D01*
X48261749Y-29118136D01*
X47679031Y-28537446D01*
X47133316Y-27994484D01*
X46630577Y-27495167D01*
X46176791Y-27045411D01*
X45777932Y-26651132D01*
X45439976Y-26318248D01*
X45168899Y-26052673D01*
X44970675Y-25860326D01*
X44851281Y-25747121D01*
X44816397Y-25717499D01*
X44766018Y-25761465D01*
X44631927Y-25889412D01*
X44420107Y-26095414D01*
X44136544Y-26373545D01*
X43787222Y-26717881D01*
X43378126Y-27122494D01*
X42915242Y-27581459D01*
X42404554Y-28088851D01*
X41852047Y-28638743D01*
X41263706Y-29225210D01*
X40645516Y-29842327D01*
X40133110Y-30354490D01*
X35496500Y-34991481D01*
X34798000Y-34991481D01*
X34798000Y-34702448D01*
X39814500Y-29686250D01*
X44831000Y-24670051D01*
X49847500Y-29686250D01*
D13*
X65350000Y-87045000D02*
X54500000Y-87045000D01*
X65350000Y-92145000D02*
X65350000Y-87045000D01*
X64850000Y-91845000D02*
X65350000Y-92145000D01*
X64850000Y-97245000D02*
X64850000Y-91845000D01*
X65350000Y-96995000D02*
X64850000Y-97245000D01*
X65350000Y-97045000D02*
X65350000Y-96995000D01*
X65350000Y-98945000D02*
X65350000Y-97045000D01*
X64850000Y-98695000D02*
X65350000Y-98945000D01*
X64850000Y-99645000D02*
X64850000Y-98695000D01*
X54500000Y-99645000D02*
X64850000Y-99645000D01*
X54500000Y-87045000D02*
X54500000Y-99645000D01*
X44069000Y-85852000D02*
X889000Y-85852000D01*
X889000Y-85852000D02*
X889000Y-65278000D01*
X889000Y-65278000D02*
X44069000Y-65278000D01*
X44069000Y-65278000D02*
X44069000Y-85852000D01*
X25781000Y-76708000D02*
X20955000Y-76708000D01*
X25781000Y-76708000D02*
X25781000Y-75184000D01*
X25781000Y-75184000D02*
X20955000Y-75184000D01*
X20955000Y-75184000D02*
X20955000Y-73660000D01*
X20955000Y-73660000D02*
X18669000Y-75946000D01*
X20955000Y-76708000D02*
X20955000Y-78232000D01*
X20955000Y-78232000D02*
X18669000Y-75946000D01*
X6450000Y-44450000D02*
G75*
G03X6450000Y-44450000I-2620000J0D01*
G01*
X3830000Y-47030000D02*
X3830000Y-41870000D01*
X3790000Y-47030000D02*
X3790000Y-41870000D01*
X3750000Y-47029000D02*
X3750000Y-41871000D01*
X3710000Y-47028000D02*
X3710000Y-41872000D01*
X3670000Y-47026000D02*
X3670000Y-41874000D01*
X3630000Y-47023000D02*
X3630000Y-41877000D01*
X3590000Y-47019000D02*
X3590000Y-45490000D01*
X3590000Y-43410000D02*
X3590000Y-41881000D01*
X3550000Y-47015000D02*
X3550000Y-45490000D01*
X3550000Y-43410000D02*
X3550000Y-41885000D01*
X3510000Y-47011000D02*
X3510000Y-45490000D01*
X3510000Y-43410000D02*
X3510000Y-41889000D01*
X3470000Y-47006000D02*
X3470000Y-45490000D01*
X3470000Y-43410000D02*
X3470000Y-41894000D01*
X3430000Y-47000000D02*
X3430000Y-45490000D01*
X3430000Y-43410000D02*
X3430000Y-41900000D01*
X3390000Y-46993000D02*
X3390000Y-45490000D01*
X3390000Y-43410000D02*
X3390000Y-41907000D01*
X3350000Y-46986000D02*
X3350000Y-45490000D01*
X3350000Y-43410000D02*
X3350000Y-41914000D01*
X3310000Y-46978000D02*
X3310000Y-45490000D01*
X3310000Y-43410000D02*
X3310000Y-41922000D01*
X3270000Y-46970000D02*
X3270000Y-45490000D01*
X3270000Y-43410000D02*
X3270000Y-41930000D01*
X3230000Y-46961000D02*
X3230000Y-45490000D01*
X3230000Y-43410000D02*
X3230000Y-41939000D01*
X3190000Y-46951000D02*
X3190000Y-45490000D01*
X3190000Y-43410000D02*
X3190000Y-41949000D01*
X3150000Y-46941000D02*
X3150000Y-45490000D01*
X3150000Y-43410000D02*
X3150000Y-41959000D01*
X3109000Y-46930000D02*
X3109000Y-45490000D01*
X3109000Y-43410000D02*
X3109000Y-41970000D01*
X3069000Y-46918000D02*
X3069000Y-45490000D01*
X3069000Y-43410000D02*
X3069000Y-41982000D01*
X3029000Y-46905000D02*
X3029000Y-45490000D01*
X3029000Y-43410000D02*
X3029000Y-41995000D01*
X2989000Y-46892000D02*
X2989000Y-45490000D01*
X2989000Y-43410000D02*
X2989000Y-42008000D01*
X2949000Y-46878000D02*
X2949000Y-45490000D01*
X2949000Y-43410000D02*
X2949000Y-42022000D01*
X2909000Y-46864000D02*
X2909000Y-45490000D01*
X2909000Y-43410000D02*
X2909000Y-42036000D01*
X2869000Y-46848000D02*
X2869000Y-45490000D01*
X2869000Y-43410000D02*
X2869000Y-42052000D01*
X2829000Y-46832000D02*
X2829000Y-45490000D01*
X2829000Y-43410000D02*
X2829000Y-42068000D01*
X2789000Y-46815000D02*
X2789000Y-45490000D01*
X2789000Y-43410000D02*
X2789000Y-42085000D01*
X2749000Y-46798000D02*
X2749000Y-45490000D01*
X2749000Y-43410000D02*
X2749000Y-42102000D01*
X2709000Y-46779000D02*
X2709000Y-45490000D01*
X2709000Y-43410000D02*
X2709000Y-42121000D01*
X2669000Y-46760000D02*
X2669000Y-45490000D01*
X2669000Y-43410000D02*
X2669000Y-42140000D01*
X2629000Y-46740000D02*
X2629000Y-45490000D01*
X2629000Y-43410000D02*
X2629000Y-42160000D01*
X2589000Y-46718000D02*
X2589000Y-45490000D01*
X2589000Y-43410000D02*
X2589000Y-42182000D01*
X2549000Y-46697000D02*
X2549000Y-45490000D01*
X2549000Y-43410000D02*
X2549000Y-42203000D01*
X2509000Y-46674000D02*
X2509000Y-45490000D01*
X2509000Y-43410000D02*
X2509000Y-42226000D01*
X2469000Y-46650000D02*
X2469000Y-45490000D01*
X2469000Y-43410000D02*
X2469000Y-42250000D01*
X2429000Y-46625000D02*
X2429000Y-45490000D01*
X2429000Y-43410000D02*
X2429000Y-42275000D01*
X2389000Y-46599000D02*
X2389000Y-45490000D01*
X2389000Y-43410000D02*
X2389000Y-42301000D01*
X2349000Y-46572000D02*
X2349000Y-45490000D01*
X2349000Y-43410000D02*
X2349000Y-42328000D01*
X2309000Y-46545000D02*
X2309000Y-45490000D01*
X2309000Y-43410000D02*
X2309000Y-42355000D01*
X2269000Y-46515000D02*
X2269000Y-45490000D01*
X2269000Y-43410000D02*
X2269000Y-42385000D01*
X2229000Y-46485000D02*
X2229000Y-45490000D01*
X2229000Y-43410000D02*
X2229000Y-42415000D01*
X2189000Y-46454000D02*
X2189000Y-45490000D01*
X2189000Y-43410000D02*
X2189000Y-42446000D01*
X2149000Y-46421000D02*
X2149000Y-45490000D01*
X2149000Y-43410000D02*
X2149000Y-42479000D01*
X2109000Y-46387000D02*
X2109000Y-45490000D01*
X2109000Y-43410000D02*
X2109000Y-42513000D01*
X2069000Y-46351000D02*
X2069000Y-45490000D01*
X2069000Y-43410000D02*
X2069000Y-42549000D01*
X2029000Y-46314000D02*
X2029000Y-45490000D01*
X2029000Y-43410000D02*
X2029000Y-42586000D01*
X1989000Y-46276000D02*
X1989000Y-45490000D01*
X1989000Y-43410000D02*
X1989000Y-42624000D01*
X1949000Y-46235000D02*
X1949000Y-45490000D01*
X1949000Y-43410000D02*
X1949000Y-42665000D01*
X1909000Y-46193000D02*
X1909000Y-45490000D01*
X1909000Y-43410000D02*
X1909000Y-42707000D01*
X1869000Y-46149000D02*
X1869000Y-45490000D01*
X1869000Y-43410000D02*
X1869000Y-42751000D01*
X1829000Y-46103000D02*
X1829000Y-45490000D01*
X1829000Y-43410000D02*
X1829000Y-42797000D01*
X1789000Y-46055000D02*
X1789000Y-45490000D01*
X1789000Y-43410000D02*
X1789000Y-42845000D01*
X1749000Y-46004000D02*
X1749000Y-45490000D01*
X1749000Y-43410000D02*
X1749000Y-42896000D01*
X1709000Y-45950000D02*
X1709000Y-45490000D01*
X1709000Y-43410000D02*
X1709000Y-42950000D01*
X1669000Y-45893000D02*
X1669000Y-45490000D01*
X1669000Y-43410000D02*
X1669000Y-43007000D01*
X1629000Y-45833000D02*
X1629000Y-45490000D01*
X1629000Y-43410000D02*
X1629000Y-43067000D01*
X1589000Y-45769000D02*
X1589000Y-45490000D01*
X1589000Y-43410000D02*
X1589000Y-43131000D01*
X1549000Y-45701000D02*
X1549000Y-45490000D01*
X1549000Y-43410000D02*
X1549000Y-43199000D01*
X1509000Y-45628000D02*
X1509000Y-43272000D01*
X1469000Y-45548000D02*
X1469000Y-43352000D01*
X1429000Y-45461000D02*
X1429000Y-43439000D01*
X1389000Y-45365000D02*
X1389000Y-43535000D01*
X1349000Y-45255000D02*
X1349000Y-43645000D01*
X1309000Y-45127000D02*
X1309000Y-43773000D01*
X1269000Y-44968000D02*
X1269000Y-43932000D01*
X1229000Y-44734000D02*
X1229000Y-44166000D01*
X6634775Y-45925000D02*
X6134775Y-45925000D01*
X6384775Y-46175000D02*
X6384775Y-45675000D01*
X5565000Y-36830000D02*
G75*
G03X5565000Y-36830000I-2120000J0D01*
G01*
X3445000Y-38910000D02*
X3445000Y-34750000D01*
X3405000Y-38910000D02*
X3405000Y-34750000D01*
X3365000Y-38909000D02*
X3365000Y-34751000D01*
X3325000Y-38907000D02*
X3325000Y-34753000D01*
X3285000Y-38904000D02*
X3285000Y-34756000D01*
X3245000Y-38901000D02*
X3245000Y-37670000D01*
X3245000Y-35990000D02*
X3245000Y-34759000D01*
X3205000Y-38897000D02*
X3205000Y-37670000D01*
X3205000Y-35990000D02*
X3205000Y-34763000D01*
X3165000Y-38892000D02*
X3165000Y-37670000D01*
X3165000Y-35990000D02*
X3165000Y-34768000D01*
X3125000Y-38886000D02*
X3125000Y-37670000D01*
X3125000Y-35990000D02*
X3125000Y-34774000D01*
X3085000Y-38880000D02*
X3085000Y-37670000D01*
X3085000Y-35990000D02*
X3085000Y-34780000D01*
X3045000Y-38872000D02*
X3045000Y-37670000D01*
X3045000Y-35990000D02*
X3045000Y-34788000D01*
X3005000Y-38864000D02*
X3005000Y-37670000D01*
X3005000Y-35990000D02*
X3005000Y-34796000D01*
X2965000Y-38855000D02*
X2965000Y-37670000D01*
X2965000Y-35990000D02*
X2965000Y-34805000D01*
X2925000Y-38846000D02*
X2925000Y-37670000D01*
X2925000Y-35990000D02*
X2925000Y-34814000D01*
X2885000Y-38835000D02*
X2885000Y-37670000D01*
X2885000Y-35990000D02*
X2885000Y-34825000D01*
X2845000Y-38824000D02*
X2845000Y-37670000D01*
X2845000Y-35990000D02*
X2845000Y-34836000D01*
X2805000Y-38812000D02*
X2805000Y-37670000D01*
X2805000Y-35990000D02*
X2805000Y-34848000D01*
X2765000Y-38798000D02*
X2765000Y-37670000D01*
X2765000Y-35990000D02*
X2765000Y-34862000D01*
X2724000Y-38784000D02*
X2724000Y-37670000D01*
X2724000Y-35990000D02*
X2724000Y-34876000D01*
X2684000Y-38770000D02*
X2684000Y-37670000D01*
X2684000Y-35990000D02*
X2684000Y-34890000D01*
X2644000Y-38754000D02*
X2644000Y-37670000D01*
X2644000Y-35990000D02*
X2644000Y-34906000D01*
X2604000Y-38737000D02*
X2604000Y-37670000D01*
X2604000Y-35990000D02*
X2604000Y-34923000D01*
X2564000Y-38719000D02*
X2564000Y-37670000D01*
X2564000Y-35990000D02*
X2564000Y-34941000D01*
X2524000Y-38700000D02*
X2524000Y-37670000D01*
X2524000Y-35990000D02*
X2524000Y-34960000D01*
X2484000Y-38681000D02*
X2484000Y-37670000D01*
X2484000Y-35990000D02*
X2484000Y-34979000D01*
X2444000Y-38660000D02*
X2444000Y-37670000D01*
X2444000Y-35990000D02*
X2444000Y-35000000D01*
X2404000Y-38638000D02*
X2404000Y-37670000D01*
X2404000Y-35990000D02*
X2404000Y-35022000D01*
X2364000Y-38615000D02*
X2364000Y-37670000D01*
X2364000Y-35990000D02*
X2364000Y-35045000D01*
X2324000Y-38590000D02*
X2324000Y-37670000D01*
X2324000Y-35990000D02*
X2324000Y-35070000D01*
X2284000Y-38565000D02*
X2284000Y-37670000D01*
X2284000Y-35990000D02*
X2284000Y-35095000D01*
X2244000Y-38538000D02*
X2244000Y-37670000D01*
X2244000Y-35990000D02*
X2244000Y-35122000D01*
X2204000Y-38510000D02*
X2204000Y-37670000D01*
X2204000Y-35990000D02*
X2204000Y-35150000D01*
X2164000Y-38480000D02*
X2164000Y-37670000D01*
X2164000Y-35990000D02*
X2164000Y-35180000D01*
X2124000Y-38449000D02*
X2124000Y-37670000D01*
X2124000Y-35990000D02*
X2124000Y-35211000D01*
X2084000Y-38417000D02*
X2084000Y-37670000D01*
X2084000Y-35990000D02*
X2084000Y-35243000D01*
X2044000Y-38382000D02*
X2044000Y-37670000D01*
X2044000Y-35990000D02*
X2044000Y-35278000D01*
X2004000Y-38346000D02*
X2004000Y-37670000D01*
X2004000Y-35990000D02*
X2004000Y-35314000D01*
X1964000Y-38308000D02*
X1964000Y-37670000D01*
X1964000Y-35990000D02*
X1964000Y-35352000D01*
X1924000Y-38268000D02*
X1924000Y-37670000D01*
X1924000Y-35990000D02*
X1924000Y-35392000D01*
X1884000Y-38226000D02*
X1884000Y-37670000D01*
X1884000Y-35990000D02*
X1884000Y-35434000D01*
X1844000Y-38181000D02*
X1844000Y-37670000D01*
X1844000Y-35990000D02*
X1844000Y-35479000D01*
X1804000Y-38134000D02*
X1804000Y-37670000D01*
X1804000Y-35990000D02*
X1804000Y-35526000D01*
X1764000Y-38084000D02*
X1764000Y-37670000D01*
X1764000Y-35990000D02*
X1764000Y-35576000D01*
X1724000Y-38030000D02*
X1724000Y-37670000D01*
X1724000Y-35990000D02*
X1724000Y-35630000D01*
X1684000Y-37972000D02*
X1684000Y-37670000D01*
X1684000Y-35990000D02*
X1684000Y-35688000D01*
X1644000Y-37910000D02*
X1644000Y-37670000D01*
X1644000Y-35990000D02*
X1644000Y-35750000D01*
X1604000Y-37843000D02*
X1604000Y-35817000D01*
X1564000Y-37770000D02*
X1564000Y-35890000D01*
X1524000Y-37689000D02*
X1524000Y-35971000D01*
X1484000Y-37598000D02*
X1484000Y-36062000D01*
X1444000Y-37494000D02*
X1444000Y-36166000D01*
X1404000Y-37367000D02*
X1404000Y-36293000D01*
X1364000Y-37200000D02*
X1364000Y-36460000D01*
X5714801Y-38025000D02*
X5314801Y-38025000D01*
X5514801Y-38225000D02*
X5514801Y-37825000D01*
X7100000Y-52070000D02*
G75*
G03X7100000Y-52070000I-3270000J0D01*
G01*
X3830000Y-55300000D02*
X3830000Y-48840000D01*
X3790000Y-55300000D02*
X3790000Y-48840000D01*
X3750000Y-55300000D02*
X3750000Y-48840000D01*
X3710000Y-55298000D02*
X3710000Y-48842000D01*
X3670000Y-55297000D02*
X3670000Y-48843000D01*
X3630000Y-55294000D02*
X3630000Y-48846000D01*
X3590000Y-55292000D02*
X3590000Y-53110000D01*
X3590000Y-51030000D02*
X3590000Y-48848000D01*
X3550000Y-55288000D02*
X3550000Y-53110000D01*
X3550000Y-51030000D02*
X3550000Y-48852000D01*
X3510000Y-55285000D02*
X3510000Y-53110000D01*
X3510000Y-51030000D02*
X3510000Y-48855000D01*
X3470000Y-55281000D02*
X3470000Y-53110000D01*
X3470000Y-51030000D02*
X3470000Y-48859000D01*
X3430000Y-55276000D02*
X3430000Y-53110000D01*
X3430000Y-51030000D02*
X3430000Y-48864000D01*
X3390000Y-55271000D02*
X3390000Y-53110000D01*
X3390000Y-51030000D02*
X3390000Y-48869000D01*
X3350000Y-55265000D02*
X3350000Y-53110000D01*
X3350000Y-51030000D02*
X3350000Y-48875000D01*
X3310000Y-55259000D02*
X3310000Y-53110000D01*
X3310000Y-51030000D02*
X3310000Y-48881000D01*
X3270000Y-55252000D02*
X3270000Y-53110000D01*
X3270000Y-51030000D02*
X3270000Y-48888000D01*
X3230000Y-55245000D02*
X3230000Y-53110000D01*
X3230000Y-51030000D02*
X3230000Y-48895000D01*
X3190000Y-55237000D02*
X3190000Y-53110000D01*
X3190000Y-51030000D02*
X3190000Y-48903000D01*
X3150000Y-55229000D02*
X3150000Y-53110000D01*
X3150000Y-51030000D02*
X3150000Y-48911000D01*
X3109000Y-55220000D02*
X3109000Y-53110000D01*
X3109000Y-51030000D02*
X3109000Y-48920000D01*
X3069000Y-55211000D02*
X3069000Y-53110000D01*
X3069000Y-51030000D02*
X3069000Y-48929000D01*
X3029000Y-55201000D02*
X3029000Y-53110000D01*
X3029000Y-51030000D02*
X3029000Y-48939000D01*
X2989000Y-55191000D02*
X2989000Y-53110000D01*
X2989000Y-51030000D02*
X2989000Y-48949000D01*
X2949000Y-55180000D02*
X2949000Y-53110000D01*
X2949000Y-51030000D02*
X2949000Y-48960000D01*
X2909000Y-55168000D02*
X2909000Y-53110000D01*
X2909000Y-51030000D02*
X2909000Y-48972000D01*
X2869000Y-55156000D02*
X2869000Y-53110000D01*
X2869000Y-51030000D02*
X2869000Y-48984000D01*
X2829000Y-55144000D02*
X2829000Y-53110000D01*
X2829000Y-51030000D02*
X2829000Y-48996000D01*
X2789000Y-55131000D02*
X2789000Y-53110000D01*
X2789000Y-51030000D02*
X2789000Y-49009000D01*
X2749000Y-55117000D02*
X2749000Y-53110000D01*
X2749000Y-51030000D02*
X2749000Y-49023000D01*
X2709000Y-55103000D02*
X2709000Y-53110000D01*
X2709000Y-51030000D02*
X2709000Y-49037000D01*
X2669000Y-55088000D02*
X2669000Y-53110000D01*
X2669000Y-51030000D02*
X2669000Y-49052000D01*
X2629000Y-55072000D02*
X2629000Y-53110000D01*
X2629000Y-51030000D02*
X2629000Y-49068000D01*
X2589000Y-55056000D02*
X2589000Y-53110000D01*
X2589000Y-51030000D02*
X2589000Y-49084000D01*
X2549000Y-55040000D02*
X2549000Y-53110000D01*
X2549000Y-51030000D02*
X2549000Y-49100000D01*
X2509000Y-55022000D02*
X2509000Y-53110000D01*
X2509000Y-51030000D02*
X2509000Y-49118000D01*
X2469000Y-55004000D02*
X2469000Y-53110000D01*
X2469000Y-51030000D02*
X2469000Y-49136000D01*
X2429000Y-54986000D02*
X2429000Y-53110000D01*
X2429000Y-51030000D02*
X2429000Y-49154000D01*
X2389000Y-54966000D02*
X2389000Y-53110000D01*
X2389000Y-51030000D02*
X2389000Y-49174000D01*
X2349000Y-54946000D02*
X2349000Y-53110000D01*
X2349000Y-51030000D02*
X2349000Y-49194000D01*
X2309000Y-54926000D02*
X2309000Y-53110000D01*
X2309000Y-51030000D02*
X2309000Y-49214000D01*
X2269000Y-54904000D02*
X2269000Y-53110000D01*
X2269000Y-51030000D02*
X2269000Y-49236000D01*
X2229000Y-54882000D02*
X2229000Y-53110000D01*
X2229000Y-51030000D02*
X2229000Y-49258000D01*
X2189000Y-54860000D02*
X2189000Y-53110000D01*
X2189000Y-51030000D02*
X2189000Y-49280000D01*
X2149000Y-54836000D02*
X2149000Y-53110000D01*
X2149000Y-51030000D02*
X2149000Y-49304000D01*
X2109000Y-54812000D02*
X2109000Y-53110000D01*
X2109000Y-51030000D02*
X2109000Y-49328000D01*
X2069000Y-54786000D02*
X2069000Y-53110000D01*
X2069000Y-51030000D02*
X2069000Y-49354000D01*
X2029000Y-54760000D02*
X2029000Y-53110000D01*
X2029000Y-51030000D02*
X2029000Y-49380000D01*
X1989000Y-54734000D02*
X1989000Y-53110000D01*
X1989000Y-51030000D02*
X1989000Y-49406000D01*
X1949000Y-54706000D02*
X1949000Y-53110000D01*
X1949000Y-51030000D02*
X1949000Y-49434000D01*
X1909000Y-54677000D02*
X1909000Y-53110000D01*
X1909000Y-51030000D02*
X1909000Y-49463000D01*
X1869000Y-54648000D02*
X1869000Y-53110000D01*
X1869000Y-51030000D02*
X1869000Y-49492000D01*
X1829000Y-54618000D02*
X1829000Y-53110000D01*
X1829000Y-51030000D02*
X1829000Y-49522000D01*
X1789000Y-54586000D02*
X1789000Y-53110000D01*
X1789000Y-51030000D02*
X1789000Y-49554000D01*
X1749000Y-54554000D02*
X1749000Y-53110000D01*
X1749000Y-51030000D02*
X1749000Y-49586000D01*
X1709000Y-54520000D02*
X1709000Y-53110000D01*
X1709000Y-51030000D02*
X1709000Y-49620000D01*
X1669000Y-54486000D02*
X1669000Y-53110000D01*
X1669000Y-51030000D02*
X1669000Y-49654000D01*
X1629000Y-54450000D02*
X1629000Y-53110000D01*
X1629000Y-51030000D02*
X1629000Y-49690000D01*
X1589000Y-54413000D02*
X1589000Y-53110000D01*
X1589000Y-51030000D02*
X1589000Y-49727000D01*
X1549000Y-54375000D02*
X1549000Y-53110000D01*
X1549000Y-51030000D02*
X1549000Y-49765000D01*
X1509000Y-54335000D02*
X1509000Y-49805000D01*
X1469000Y-54294000D02*
X1469000Y-49846000D01*
X1429000Y-54252000D02*
X1429000Y-49888000D01*
X1389000Y-54207000D02*
X1389000Y-49933000D01*
X1349000Y-54162000D02*
X1349000Y-49978000D01*
X1309000Y-54114000D02*
X1309000Y-50026000D01*
X1269000Y-54065000D02*
X1269000Y-50075000D01*
X1229000Y-54014000D02*
X1229000Y-50126000D01*
X1189000Y-53960000D02*
X1189000Y-50180000D01*
X1149000Y-53904000D02*
X1149000Y-50236000D01*
X1109000Y-53846000D02*
X1109000Y-50294000D01*
X1069000Y-53784000D02*
X1069000Y-50356000D01*
X1029000Y-53720000D02*
X1029000Y-50420000D01*
X989000Y-53651000D02*
X989000Y-50489000D01*
X949000Y-53579000D02*
X949000Y-50561000D01*
X909000Y-53502000D02*
X909000Y-50638000D01*
X869000Y-53420000D02*
X869000Y-50720000D01*
X829000Y-53332000D02*
X829000Y-50808000D01*
X789000Y-53235000D02*
X789000Y-50905000D01*
X749000Y-53129000D02*
X749000Y-51011000D01*
X709000Y-53010000D02*
X709000Y-51130000D01*
X669000Y-52872000D02*
X669000Y-51268000D01*
X629000Y-52703000D02*
X629000Y-51437000D01*
X589000Y-52472000D02*
X589000Y-51668000D01*
X7330241Y-53909000D02*
X6700241Y-53909000D01*
X7015241Y-54224000D02*
X7015241Y-53594000D01*
X44340000Y-87045000D02*
X44340000Y-99645000D01*
X44340000Y-99645000D02*
X54690000Y-99645000D01*
X54690000Y-99645000D02*
X54690000Y-98695000D01*
X54690000Y-98695000D02*
X55190000Y-98945000D01*
X55190000Y-98945000D02*
X55190000Y-97045000D01*
X55190000Y-97045000D02*
X55190000Y-96995000D01*
X55190000Y-96995000D02*
X54690000Y-97245000D01*
X54690000Y-97245000D02*
X54690000Y-91845000D01*
X54690000Y-91845000D02*
X55190000Y-92145000D01*
X55190000Y-92145000D02*
X55190000Y-87045000D01*
X55190000Y-87045000D02*
X44340000Y-87045000D01*
X34180000Y-87045000D02*
X34180000Y-99645000D01*
X34180000Y-99645000D02*
X44530000Y-99645000D01*
X44530000Y-99645000D02*
X44530000Y-98695000D01*
X44530000Y-98695000D02*
X45030000Y-98945000D01*
X45030000Y-98945000D02*
X45030000Y-97045000D01*
X45030000Y-97045000D02*
X45030000Y-96995000D01*
X45030000Y-96995000D02*
X44530000Y-97245000D01*
X44530000Y-97245000D02*
X44530000Y-91845000D01*
X44530000Y-91845000D02*
X45030000Y-92145000D01*
X45030000Y-92145000D02*
X45030000Y-87045000D01*
X45030000Y-87045000D02*
X34180000Y-87045000D01*
X34870000Y-87045000D02*
X24020000Y-87045000D01*
X34870000Y-92145000D02*
X34870000Y-87045000D01*
X34370000Y-91845000D02*
X34870000Y-92145000D01*
X34370000Y-97245000D02*
X34370000Y-91845000D01*
X34870000Y-96995000D02*
X34370000Y-97245000D01*
X34870000Y-97045000D02*
X34870000Y-96995000D01*
X34870000Y-98945000D02*
X34870000Y-97045000D01*
X34370000Y-98695000D02*
X34870000Y-98945000D01*
X34370000Y-99645000D02*
X34370000Y-98695000D01*
X24020000Y-99645000D02*
X34370000Y-99645000D01*
X24020000Y-87045000D02*
X24020000Y-99645000D01*
X25968000Y-37913000D02*
X23308000Y-37913000D01*
X25968000Y-43053000D02*
X25968000Y-37913000D01*
X23308000Y-43053000D02*
X23308000Y-37913000D01*
X25968000Y-43053000D02*
X23308000Y-43053000D01*
X25968000Y-44323000D02*
X25968000Y-45653000D01*
X25968000Y-45653000D02*
X24638000Y-45653000D01*
X23174000Y-45653000D02*
X21844000Y-45653000D01*
X23174000Y-44323000D02*
X23174000Y-45653000D01*
X23174000Y-43053000D02*
X20514000Y-43053000D01*
X20514000Y-43053000D02*
X20514000Y-37913000D01*
X23174000Y-43053000D02*
X23174000Y-37913000D01*
X23174000Y-37913000D02*
X20514000Y-37913000D01*
X21844000Y-37652000D02*
X20514000Y-37652000D01*
X20514000Y-37652000D02*
X20514000Y-36322000D01*
X20514000Y-35052000D02*
X20514000Y-27372000D01*
X23174000Y-27372000D02*
X20514000Y-27372000D01*
X23174000Y-35052000D02*
X23174000Y-27372000D01*
X23174000Y-35052000D02*
X20514000Y-35052000D01*
X9719000Y-39116000D02*
X12379000Y-39116000D01*
X9719000Y-39116000D02*
X9719000Y-44256000D01*
X9719000Y-44256000D02*
X12379000Y-44256000D01*
X12379000Y-39116000D02*
X12379000Y-44256000D01*
X12379000Y-36516000D02*
X12379000Y-37846000D01*
X11049000Y-36516000D02*
X12379000Y-36516000D01*
X79054000Y-58988000D02*
X79054000Y-56328000D01*
X68834000Y-58988000D02*
X79054000Y-58988000D01*
X68834000Y-56328000D02*
X79054000Y-56328000D01*
X68834000Y-58988000D02*
X68834000Y-56328000D01*
X67564000Y-58988000D02*
X66234000Y-58988000D01*
X66234000Y-58988000D02*
X66234000Y-57658000D01*
X13860000Y-87045000D02*
X13860000Y-99645000D01*
X13860000Y-99645000D02*
X24210000Y-99645000D01*
X24210000Y-99645000D02*
X24210000Y-98695000D01*
X24210000Y-98695000D02*
X24710000Y-98945000D01*
X24710000Y-98945000D02*
X24710000Y-97045000D01*
X24710000Y-97045000D02*
X24710000Y-96995000D01*
X24710000Y-96995000D02*
X24210000Y-97245000D01*
X24210000Y-97245000D02*
X24210000Y-91845000D01*
X24210000Y-91845000D02*
X24710000Y-92145000D01*
X24710000Y-92145000D02*
X24710000Y-87045000D01*
X24710000Y-87045000D02*
X13860000Y-87045000D01*
X10636000Y-30961000D02*
X10636000Y-30631000D01*
X4096000Y-30961000D02*
X10636000Y-30961000D01*
X4096000Y-30631000D02*
X4096000Y-30961000D01*
X10636000Y-28221000D02*
X10636000Y-28551000D01*
X4096000Y-28221000D02*
X10636000Y-28221000D01*
X4096000Y-28551000D02*
X4096000Y-28221000D01*
X76310000Y-65345000D02*
X74660000Y-65345000D01*
X76310000Y-85785000D02*
X76310000Y-65345000D01*
X71010000Y-85785000D02*
X76310000Y-85785000D01*
X71010000Y-65345000D02*
X71010000Y-85785000D01*
X72660000Y-65345000D02*
X71010000Y-65345000D01*
X74660000Y-65345000D02*
G75*
G02X72660000Y-65345000I-1000000J0D01*
G01*
X53070000Y-65345000D02*
G75*
G02X51070000Y-65345000I-1000000J0D01*
G01*
X51070000Y-65345000D02*
X49420000Y-65345000D01*
X49420000Y-65345000D02*
X49420000Y-85785000D01*
X49420000Y-85785000D02*
X54720000Y-85785000D01*
X54720000Y-85785000D02*
X54720000Y-65345000D01*
X54720000Y-65345000D02*
X53070000Y-65345000D01*
X11404680Y-5112000D02*
G75*
G03X11404680Y-5112000I-4832680J0D01*
G01*
X29089680Y-5080000D02*
G75*
G03X29089680Y-5080000I-4832680J0D01*
G01*
X45832680Y-5080000D02*
G75*
G03X45832680Y-5080000I-4832680J0D01*
G01*
X62871680Y-5080000D02*
G75*
G03X62871680Y-5080000I-4832680J0D01*
G01*
X12214000Y-31424000D02*
X8614000Y-31424000D01*
X12252478Y-31435522D02*
G75*
G02X10414000Y-35874000I-1838478J-1838478D01*
G01*
X8575522Y-31435522D02*
G75*
G03X10414000Y-35874000I1838478J-1838478D01*
G01*
X1465000Y-60280000D02*
X9965000Y-60280000D01*
X9965000Y-60280000D02*
X9965000Y-64180000D01*
X9965000Y-64180000D02*
X1465000Y-64180000D01*
X1465000Y-64180000D02*
X1465000Y-60280000D01*
X10165000Y-59920000D02*
X1265000Y-59920000D01*
X1265000Y-59920000D02*
X1265000Y-56920000D01*
X1265000Y-56920000D02*
X10165000Y-56920000D01*
X10165000Y-56920000D02*
X10165000Y-59920000D01*
X13462000Y-89154000D02*
X13462000Y-97790000D01*
X13462000Y-97790000D02*
X9906000Y-97790000D01*
X9906000Y-97790000D02*
X9906000Y-89154000D01*
X9906000Y-89154000D02*
X13462000Y-89154000D01*
X31944000Y-10862000D02*
X31944000Y-13522000D01*
X47244000Y-10862000D02*
X31944000Y-10862000D01*
X47244000Y-13522000D02*
X31944000Y-13522000D01*
X47244000Y-10862000D02*
X47244000Y-13522000D01*
X48514000Y-10862000D02*
X49844000Y-10862000D01*
X49844000Y-10862000D02*
X49844000Y-12192000D01*
X81159680Y-5080000D02*
G75*
G03X81159680Y-5080000I-4832680J0D01*
G01*
X80143680Y-94996000D02*
G75*
G03X80143680Y-94996000I-4832680J0D01*
G01*
X9690680Y-94901000D02*
G75*
G03X9690680Y-94901000I-4832680J0D01*
G01*
X819000Y-11244000D02*
X819000Y-15264000D01*
X819000Y-15264000D02*
X11039000Y-15264000D01*
X11039000Y-15264000D02*
X11039000Y-11244000D01*
X11039000Y-11244000D02*
X819000Y-11244000D01*
X819000Y-12954000D02*
X1319000Y-12954000D01*
X1319000Y-12954000D02*
X1319000Y-11744000D01*
X1319000Y-11744000D02*
X10539000Y-11744000D01*
X10539000Y-11744000D02*
X10539000Y-12954000D01*
X10539000Y-12954000D02*
X11039000Y-12954000D01*
X819000Y-13764000D02*
X1819000Y-13764000D01*
X1819000Y-13764000D02*
X1819000Y-15264000D01*
X11039000Y-13764000D02*
X10039000Y-13764000D01*
X10039000Y-13764000D02*
X10039000Y-15264000D01*
X519000Y-13064000D02*
X519000Y-15564000D01*
X519000Y-15564000D02*
X3019000Y-15564000D01*
X81650000Y-11487000D02*
X79150000Y-11487000D01*
X81650000Y-13987000D02*
X81650000Y-11487000D01*
X72130000Y-13287000D02*
X72130000Y-11787000D01*
X71130000Y-13287000D02*
X72130000Y-13287000D01*
X80350000Y-13287000D02*
X80350000Y-11787000D01*
X81350000Y-13287000D02*
X80350000Y-13287000D01*
X71630000Y-14097000D02*
X71130000Y-14097000D01*
X71630000Y-15307000D02*
X71630000Y-14097000D01*
X80850000Y-15307000D02*
X71630000Y-15307000D01*
X80850000Y-14097000D02*
X80850000Y-15307000D01*
X81350000Y-14097000D02*
X80850000Y-14097000D01*
X71130000Y-15807000D02*
X81350000Y-15807000D01*
X71130000Y-11787000D02*
X71130000Y-15807000D01*
X81350000Y-11787000D02*
X71130000Y-11787000D01*
X81350000Y-15807000D02*
X81350000Y-11787000D01*
X7687000Y-19431000D02*
X10347000Y-19431000D01*
X7687000Y-19431000D02*
X7687000Y-24571000D01*
X7687000Y-24571000D02*
X10347000Y-24571000D01*
X10347000Y-19431000D02*
X10347000Y-24571000D01*
X10347000Y-16831000D02*
X10347000Y-18161000D01*
X9017000Y-16831000D02*
X10347000Y-16831000D01*
X3429000Y-16831000D02*
X4759000Y-16831000D01*
X4759000Y-16831000D02*
X4759000Y-18161000D01*
X4759000Y-19431000D02*
X4759000Y-24571000D01*
X2099000Y-24571000D02*
X4759000Y-24571000D01*
X2099000Y-19431000D02*
X2099000Y-24571000D01*
X2099000Y-19431000D02*
X4759000Y-19431000D01*
X4893000Y-19431000D02*
X7553000Y-19431000D01*
X4893000Y-19431000D02*
X4893000Y-24571000D01*
X4893000Y-24571000D02*
X7553000Y-24571000D01*
X7553000Y-19431000D02*
X7553000Y-24571000D01*
X7553000Y-16831000D02*
X7553000Y-18161000D01*
X6223000Y-16831000D02*
X7553000Y-16831000D01*
D14*
X56951904Y-87066380D02*
X56951904Y-86066380D01*
X57285238Y-86780666D01*
X57618571Y-86066380D01*
X57618571Y-87066380D01*
X58285238Y-86066380D02*
X58475714Y-86066380D01*
X58570952Y-86114000D01*
X58666190Y-86209238D01*
X58713809Y-86399714D01*
X58713809Y-86733047D01*
X58666190Y-86923523D01*
X58570952Y-87018761D01*
X58475714Y-87066380D01*
X58285238Y-87066380D01*
X58190000Y-87018761D01*
X58094761Y-86923523D01*
X58047142Y-86733047D01*
X58047142Y-86399714D01*
X58094761Y-86209238D01*
X58190000Y-86114000D01*
X58285238Y-86066380D01*
X58999523Y-86066380D02*
X59570952Y-86066380D01*
X59285238Y-87066380D02*
X59285238Y-86066380D01*
X60094761Y-86066380D02*
X60285238Y-86066380D01*
X60380476Y-86114000D01*
X60475714Y-86209238D01*
X60523333Y-86399714D01*
X60523333Y-86733047D01*
X60475714Y-86923523D01*
X60380476Y-87018761D01*
X60285238Y-87066380D01*
X60094761Y-87066380D01*
X59999523Y-87018761D01*
X59904285Y-86923523D01*
X59856666Y-86733047D01*
X59856666Y-86399714D01*
X59904285Y-86209238D01*
X59999523Y-86114000D01*
X60094761Y-86066380D01*
X61523333Y-87066380D02*
X61190000Y-86590190D01*
X60951904Y-87066380D02*
X60951904Y-86066380D01*
X61332857Y-86066380D01*
X61428095Y-86114000D01*
X61475714Y-86161619D01*
X61523333Y-86256857D01*
X61523333Y-86399714D01*
X61475714Y-86494952D01*
X61428095Y-86542571D01*
X61332857Y-86590190D01*
X60951904Y-86590190D01*
X62475714Y-87066380D02*
X61904285Y-87066380D01*
X62190000Y-87066380D02*
X62190000Y-86066380D01*
X62094761Y-86209238D01*
X61999523Y-86304476D01*
X61904285Y-86352095D01*
X41021142Y-81351380D02*
X41021142Y-80351380D01*
X41497333Y-81351380D02*
X41497333Y-80351380D01*
X42068761Y-81351380D01*
X42068761Y-80351380D01*
X42544952Y-80970428D02*
X43306857Y-80970428D01*
X42925904Y-81351380D02*
X42925904Y-80589476D01*
X41402142Y-70556380D02*
X41402142Y-69556380D01*
X41878333Y-70556380D02*
X41878333Y-69556380D01*
X42449761Y-70556380D01*
X42449761Y-69556380D01*
X42925952Y-70175428D02*
X43687857Y-70175428D01*
X1047952Y-79970380D02*
X1238428Y-79970380D01*
X1333666Y-80018000D01*
X1428904Y-80113238D01*
X1476523Y-80303714D01*
X1476523Y-80637047D01*
X1428904Y-80827523D01*
X1333666Y-80922761D01*
X1238428Y-80970380D01*
X1047952Y-80970380D01*
X952714Y-80922761D01*
X857476Y-80827523D01*
X809857Y-80637047D01*
X809857Y-80303714D01*
X857476Y-80113238D01*
X952714Y-80018000D01*
X1047952Y-79970380D01*
X1905095Y-79970380D02*
X1905095Y-80779904D01*
X1952714Y-80875142D01*
X2000333Y-80922761D01*
X2095571Y-80970380D01*
X2286047Y-80970380D01*
X2381285Y-80922761D01*
X2428904Y-80875142D01*
X2476523Y-80779904D01*
X2476523Y-79970380D01*
X2809857Y-79970380D02*
X3381285Y-79970380D01*
X3095571Y-80970380D02*
X3095571Y-79970380D01*
X3714619Y-80589428D02*
X4476523Y-80589428D01*
X4095571Y-80970380D02*
X4095571Y-80208476D01*
X1555952Y-69810380D02*
X1746428Y-69810380D01*
X1841666Y-69858000D01*
X1936904Y-69953238D01*
X1984523Y-70143714D01*
X1984523Y-70477047D01*
X1936904Y-70667523D01*
X1841666Y-70762761D01*
X1746428Y-70810380D01*
X1555952Y-70810380D01*
X1460714Y-70762761D01*
X1365476Y-70667523D01*
X1317857Y-70477047D01*
X1317857Y-70143714D01*
X1365476Y-69953238D01*
X1460714Y-69858000D01*
X1555952Y-69810380D01*
X2413095Y-69810380D02*
X2413095Y-70619904D01*
X2460714Y-70715142D01*
X2508333Y-70762761D01*
X2603571Y-70810380D01*
X2794047Y-70810380D01*
X2889285Y-70762761D01*
X2936904Y-70715142D01*
X2984523Y-70619904D01*
X2984523Y-69810380D01*
X3317857Y-69810380D02*
X3889285Y-69810380D01*
X3603571Y-70810380D02*
X3603571Y-69810380D01*
X4222619Y-70429428D02*
X4984523Y-70429428D01*
X19836142Y-72588380D02*
X19359952Y-72588380D01*
X19359952Y-71588380D01*
X20169476Y-72588380D02*
X20169476Y-71588380D01*
X20502809Y-72302666D01*
X20836142Y-71588380D01*
X20836142Y-72588380D01*
X21264714Y-71683619D02*
X21312333Y-71636000D01*
X21407571Y-71588380D01*
X21645666Y-71588380D01*
X21740904Y-71636000D01*
X21788523Y-71683619D01*
X21836142Y-71778857D01*
X21836142Y-71874095D01*
X21788523Y-72016952D01*
X21217095Y-72588380D01*
X21836142Y-72588380D01*
X22740904Y-71588380D02*
X22264714Y-71588380D01*
X22217095Y-72064571D01*
X22264714Y-72016952D01*
X22359952Y-71969333D01*
X22598047Y-71969333D01*
X22693285Y-72016952D01*
X22740904Y-72064571D01*
X22788523Y-72159809D01*
X22788523Y-72397904D01*
X22740904Y-72493142D01*
X22693285Y-72540761D01*
X22598047Y-72588380D01*
X22359952Y-72588380D01*
X22264714Y-72540761D01*
X22217095Y-72493142D01*
X23264714Y-72588380D02*
X23455190Y-72588380D01*
X23550428Y-72540761D01*
X23598047Y-72493142D01*
X23693285Y-72350285D01*
X23740904Y-72159809D01*
X23740904Y-71778857D01*
X23693285Y-71683619D01*
X23645666Y-71636000D01*
X23550428Y-71588380D01*
X23359952Y-71588380D01*
X23264714Y-71636000D01*
X23217095Y-71683619D01*
X23169476Y-71778857D01*
X23169476Y-72016952D01*
X23217095Y-72112190D01*
X23264714Y-72159809D01*
X23359952Y-72207428D01*
X23550428Y-72207428D01*
X23645666Y-72159809D01*
X23693285Y-72112190D01*
X23740904Y-72016952D01*
X24598047Y-71588380D02*
X24407571Y-71588380D01*
X24312333Y-71636000D01*
X24264714Y-71683619D01*
X24169476Y-71826476D01*
X24121857Y-72016952D01*
X24121857Y-72397904D01*
X24169476Y-72493142D01*
X24217095Y-72540761D01*
X24312333Y-72588380D01*
X24502809Y-72588380D01*
X24598047Y-72540761D01*
X24645666Y-72493142D01*
X24693285Y-72397904D01*
X24693285Y-72159809D01*
X24645666Y-72064571D01*
X24598047Y-72016952D01*
X24502809Y-71969333D01*
X24312333Y-71969333D01*
X24217095Y-72016952D01*
X24169476Y-72064571D01*
X24121857Y-72159809D01*
X25074238Y-72540761D02*
X25217095Y-72588380D01*
X25455190Y-72588380D01*
X25550428Y-72540761D01*
X25598047Y-72493142D01*
X25645666Y-72397904D01*
X25645666Y-72302666D01*
X25598047Y-72207428D01*
X25550428Y-72159809D01*
X25455190Y-72112190D01*
X25264714Y-72064571D01*
X25169476Y-72016952D01*
X25121857Y-71969333D01*
X25074238Y-71874095D01*
X25074238Y-71778857D01*
X25121857Y-71683619D01*
X25169476Y-71636000D01*
X25264714Y-71588380D01*
X25502809Y-71588380D01*
X25645666Y-71636000D01*
X4802380Y-48458380D02*
X4230952Y-48458380D01*
X4516666Y-48458380D02*
X4516666Y-47458380D01*
X4421428Y-47601238D01*
X4326190Y-47696476D01*
X4230952Y-47744095D01*
X5421428Y-47458380D02*
X5516666Y-47458380D01*
X5611904Y-47506000D01*
X5659523Y-47553619D01*
X5707142Y-47648857D01*
X5754761Y-47839333D01*
X5754761Y-48077428D01*
X5707142Y-48267904D01*
X5659523Y-48363142D01*
X5611904Y-48410761D01*
X5516666Y-48458380D01*
X5421428Y-48458380D01*
X5326190Y-48410761D01*
X5278571Y-48363142D01*
X5230952Y-48267904D01*
X5183333Y-48077428D01*
X5183333Y-47839333D01*
X5230952Y-47648857D01*
X5278571Y-47553619D01*
X5326190Y-47506000D01*
X5421428Y-47458380D01*
X6373809Y-47458380D02*
X6469047Y-47458380D01*
X6564285Y-47506000D01*
X6611904Y-47553619D01*
X6659523Y-47648857D01*
X6707142Y-47839333D01*
X6707142Y-48077428D01*
X6659523Y-48267904D01*
X6611904Y-48363142D01*
X6564285Y-48410761D01*
X6469047Y-48458380D01*
X6373809Y-48458380D01*
X6278571Y-48410761D01*
X6230952Y-48363142D01*
X6183333Y-48267904D01*
X6135714Y-48077428D01*
X6135714Y-47839333D01*
X6183333Y-47648857D01*
X6230952Y-47553619D01*
X6278571Y-47506000D01*
X6373809Y-47458380D01*
X7564285Y-47791714D02*
X7564285Y-48458380D01*
X7135714Y-47791714D02*
X7135714Y-48315523D01*
X7183333Y-48410761D01*
X7278571Y-48458380D01*
X7421428Y-48458380D01*
X7516666Y-48410761D01*
X7564285Y-48363142D01*
X8373809Y-47934571D02*
X8040476Y-47934571D01*
X8040476Y-48458380D02*
X8040476Y-47458380D01*
X8516666Y-47458380D01*
X3929238Y-39790714D02*
X3929238Y-40457380D01*
X3691142Y-39409761D02*
X3453047Y-40124047D01*
X4072095Y-40124047D01*
X4453047Y-40362142D02*
X4500666Y-40409761D01*
X4453047Y-40457380D01*
X4405428Y-40409761D01*
X4453047Y-40362142D01*
X4453047Y-40457380D01*
X4834000Y-39457380D02*
X5500666Y-39457380D01*
X5072095Y-40457380D01*
X6310190Y-39790714D02*
X6310190Y-40457380D01*
X5881619Y-39790714D02*
X5881619Y-40314523D01*
X5929238Y-40409761D01*
X6024476Y-40457380D01*
X6167333Y-40457380D01*
X6262571Y-40409761D01*
X6310190Y-40362142D01*
X7119714Y-39933571D02*
X6786380Y-39933571D01*
X6786380Y-40457380D02*
X6786380Y-39457380D01*
X7262571Y-39457380D01*
X5723142Y-55411714D02*
X5723142Y-56078380D01*
X5485047Y-55030761D02*
X5246952Y-55745047D01*
X5866000Y-55745047D01*
X6151714Y-55078380D02*
X6818380Y-55078380D01*
X6389809Y-56078380D01*
X7389809Y-55078380D02*
X7485047Y-55078380D01*
X7580285Y-55126000D01*
X7627904Y-55173619D01*
X7675523Y-55268857D01*
X7723142Y-55459333D01*
X7723142Y-55697428D01*
X7675523Y-55887904D01*
X7627904Y-55983142D01*
X7580285Y-56030761D01*
X7485047Y-56078380D01*
X7389809Y-56078380D01*
X7294571Y-56030761D01*
X7246952Y-55983142D01*
X7199333Y-55887904D01*
X7151714Y-55697428D01*
X7151714Y-55459333D01*
X7199333Y-55268857D01*
X7246952Y-55173619D01*
X7294571Y-55126000D01*
X7389809Y-55078380D01*
X8580285Y-55411714D02*
X8580285Y-56078380D01*
X8151714Y-55411714D02*
X8151714Y-55935523D01*
X8199333Y-56030761D01*
X8294571Y-56078380D01*
X8437428Y-56078380D01*
X8532666Y-56030761D01*
X8580285Y-55983142D01*
X9389809Y-55554571D02*
X9056476Y-55554571D01*
X9056476Y-56078380D02*
X9056476Y-55078380D01*
X9532666Y-55078380D01*
X47299904Y-87320380D02*
X47299904Y-86320380D01*
X47633238Y-87034666D01*
X47966571Y-86320380D01*
X47966571Y-87320380D01*
X48633238Y-86320380D02*
X48823714Y-86320380D01*
X48918952Y-86368000D01*
X49014190Y-86463238D01*
X49061809Y-86653714D01*
X49061809Y-86987047D01*
X49014190Y-87177523D01*
X48918952Y-87272761D01*
X48823714Y-87320380D01*
X48633238Y-87320380D01*
X48538000Y-87272761D01*
X48442761Y-87177523D01*
X48395142Y-86987047D01*
X48395142Y-86653714D01*
X48442761Y-86463238D01*
X48538000Y-86368000D01*
X48633238Y-86320380D01*
X49347523Y-86320380D02*
X49918952Y-86320380D01*
X49633238Y-87320380D02*
X49633238Y-86320380D01*
X50442761Y-86320380D02*
X50633238Y-86320380D01*
X50728476Y-86368000D01*
X50823714Y-86463238D01*
X50871333Y-86653714D01*
X50871333Y-86987047D01*
X50823714Y-87177523D01*
X50728476Y-87272761D01*
X50633238Y-87320380D01*
X50442761Y-87320380D01*
X50347523Y-87272761D01*
X50252285Y-87177523D01*
X50204666Y-86987047D01*
X50204666Y-86653714D01*
X50252285Y-86463238D01*
X50347523Y-86368000D01*
X50442761Y-86320380D01*
X51871333Y-87320380D02*
X51538000Y-86844190D01*
X51299904Y-87320380D02*
X51299904Y-86320380D01*
X51680857Y-86320380D01*
X51776095Y-86368000D01*
X51823714Y-86415619D01*
X51871333Y-86510857D01*
X51871333Y-86653714D01*
X51823714Y-86748952D01*
X51776095Y-86796571D01*
X51680857Y-86844190D01*
X51299904Y-86844190D01*
X52252285Y-86415619D02*
X52299904Y-86368000D01*
X52395142Y-86320380D01*
X52633238Y-86320380D01*
X52728476Y-86368000D01*
X52776095Y-86415619D01*
X52823714Y-86510857D01*
X52823714Y-86606095D01*
X52776095Y-86748952D01*
X52204666Y-87320380D01*
X52823714Y-87320380D01*
X36631904Y-87193380D02*
X36631904Y-86193380D01*
X36965238Y-86907666D01*
X37298571Y-86193380D01*
X37298571Y-87193380D01*
X37965238Y-86193380D02*
X38155714Y-86193380D01*
X38250952Y-86241000D01*
X38346190Y-86336238D01*
X38393809Y-86526714D01*
X38393809Y-86860047D01*
X38346190Y-87050523D01*
X38250952Y-87145761D01*
X38155714Y-87193380D01*
X37965238Y-87193380D01*
X37870000Y-87145761D01*
X37774761Y-87050523D01*
X37727142Y-86860047D01*
X37727142Y-86526714D01*
X37774761Y-86336238D01*
X37870000Y-86241000D01*
X37965238Y-86193380D01*
X38679523Y-86193380D02*
X39250952Y-86193380D01*
X38965238Y-87193380D02*
X38965238Y-86193380D01*
X39774761Y-86193380D02*
X39965238Y-86193380D01*
X40060476Y-86241000D01*
X40155714Y-86336238D01*
X40203333Y-86526714D01*
X40203333Y-86860047D01*
X40155714Y-87050523D01*
X40060476Y-87145761D01*
X39965238Y-87193380D01*
X39774761Y-87193380D01*
X39679523Y-87145761D01*
X39584285Y-87050523D01*
X39536666Y-86860047D01*
X39536666Y-86526714D01*
X39584285Y-86336238D01*
X39679523Y-86241000D01*
X39774761Y-86193380D01*
X41203333Y-87193380D02*
X40870000Y-86717190D01*
X40631904Y-87193380D02*
X40631904Y-86193380D01*
X41012857Y-86193380D01*
X41108095Y-86241000D01*
X41155714Y-86288619D01*
X41203333Y-86383857D01*
X41203333Y-86526714D01*
X41155714Y-86621952D01*
X41108095Y-86669571D01*
X41012857Y-86717190D01*
X40631904Y-86717190D01*
X41536666Y-86193380D02*
X42155714Y-86193380D01*
X41822380Y-86574333D01*
X41965238Y-86574333D01*
X42060476Y-86621952D01*
X42108095Y-86669571D01*
X42155714Y-86764809D01*
X42155714Y-87002904D01*
X42108095Y-87098142D01*
X42060476Y-87145761D01*
X41965238Y-87193380D01*
X41679523Y-87193380D01*
X41584285Y-87145761D01*
X41536666Y-87098142D01*
X26725904Y-87066380D02*
X26725904Y-86066380D01*
X27059238Y-86780666D01*
X27392571Y-86066380D01*
X27392571Y-87066380D01*
X28059238Y-86066380D02*
X28249714Y-86066380D01*
X28344952Y-86114000D01*
X28440190Y-86209238D01*
X28487809Y-86399714D01*
X28487809Y-86733047D01*
X28440190Y-86923523D01*
X28344952Y-87018761D01*
X28249714Y-87066380D01*
X28059238Y-87066380D01*
X27964000Y-87018761D01*
X27868761Y-86923523D01*
X27821142Y-86733047D01*
X27821142Y-86399714D01*
X27868761Y-86209238D01*
X27964000Y-86114000D01*
X28059238Y-86066380D01*
X28773523Y-86066380D02*
X29344952Y-86066380D01*
X29059238Y-87066380D02*
X29059238Y-86066380D01*
X29868761Y-86066380D02*
X30059238Y-86066380D01*
X30154476Y-86114000D01*
X30249714Y-86209238D01*
X30297333Y-86399714D01*
X30297333Y-86733047D01*
X30249714Y-86923523D01*
X30154476Y-87018761D01*
X30059238Y-87066380D01*
X29868761Y-87066380D01*
X29773523Y-87018761D01*
X29678285Y-86923523D01*
X29630666Y-86733047D01*
X29630666Y-86399714D01*
X29678285Y-86209238D01*
X29773523Y-86114000D01*
X29868761Y-86066380D01*
X31297333Y-87066380D02*
X30964000Y-86590190D01*
X30725904Y-87066380D02*
X30725904Y-86066380D01*
X31106857Y-86066380D01*
X31202095Y-86114000D01*
X31249714Y-86161619D01*
X31297333Y-86256857D01*
X31297333Y-86399714D01*
X31249714Y-86494952D01*
X31202095Y-86542571D01*
X31106857Y-86590190D01*
X30725904Y-86590190D01*
X32154476Y-86399714D02*
X32154476Y-87066380D01*
X31916380Y-86018761D02*
X31678285Y-86733047D01*
X32297333Y-86733047D01*
X25169761Y-51942666D02*
X25217380Y-51799809D01*
X25217380Y-51561714D01*
X25169761Y-51466476D01*
X25122142Y-51418857D01*
X25026904Y-51371238D01*
X24931666Y-51371238D01*
X24836428Y-51418857D01*
X24788809Y-51466476D01*
X24741190Y-51561714D01*
X24693571Y-51752190D01*
X24645952Y-51847428D01*
X24598333Y-51895047D01*
X24503095Y-51942666D01*
X24407857Y-51942666D01*
X24312619Y-51895047D01*
X24265000Y-51847428D01*
X24217380Y-51752190D01*
X24217380Y-51514095D01*
X24265000Y-51371238D01*
X24693571Y-50942666D02*
X24693571Y-50609333D01*
X25217380Y-50466476D02*
X25217380Y-50942666D01*
X24217380Y-50942666D01*
X24217380Y-50466476D01*
X25217380Y-49466476D02*
X24741190Y-49799809D01*
X25217380Y-50037904D02*
X24217380Y-50037904D01*
X24217380Y-49656952D01*
X24265000Y-49561714D01*
X24312619Y-49514095D01*
X24407857Y-49466476D01*
X24550714Y-49466476D01*
X24645952Y-49514095D01*
X24693571Y-49561714D01*
X24741190Y-49656952D01*
X24741190Y-50037904D01*
X24217380Y-49180761D02*
X25217380Y-48847428D01*
X24217380Y-48514095D01*
X24217380Y-47990285D02*
X24217380Y-47799809D01*
X24265000Y-47704571D01*
X24360238Y-47609333D01*
X24550714Y-47561714D01*
X24884047Y-47561714D01*
X25074523Y-47609333D01*
X25169761Y-47704571D01*
X25217380Y-47799809D01*
X25217380Y-47990285D01*
X25169761Y-48085523D01*
X25074523Y-48180761D01*
X24884047Y-48228380D01*
X24550714Y-48228380D01*
X24360238Y-48180761D01*
X24265000Y-48085523D01*
X24217380Y-47990285D01*
X25217380Y-46609333D02*
X25217380Y-47180761D01*
X25217380Y-46895047D02*
X24217380Y-46895047D01*
X24360238Y-46990285D01*
X24455476Y-47085523D01*
X24503095Y-47180761D01*
X22248761Y-52069666D02*
X22296380Y-51926809D01*
X22296380Y-51688714D01*
X22248761Y-51593476D01*
X22201142Y-51545857D01*
X22105904Y-51498238D01*
X22010666Y-51498238D01*
X21915428Y-51545857D01*
X21867809Y-51593476D01*
X21820190Y-51688714D01*
X21772571Y-51879190D01*
X21724952Y-51974428D01*
X21677333Y-52022047D01*
X21582095Y-52069666D01*
X21486857Y-52069666D01*
X21391619Y-52022047D01*
X21344000Y-51974428D01*
X21296380Y-51879190D01*
X21296380Y-51641095D01*
X21344000Y-51498238D01*
X21772571Y-51069666D02*
X21772571Y-50736333D01*
X22296380Y-50593476D02*
X22296380Y-51069666D01*
X21296380Y-51069666D01*
X21296380Y-50593476D01*
X22296380Y-49593476D02*
X21820190Y-49926809D01*
X22296380Y-50164904D02*
X21296380Y-50164904D01*
X21296380Y-49783952D01*
X21344000Y-49688714D01*
X21391619Y-49641095D01*
X21486857Y-49593476D01*
X21629714Y-49593476D01*
X21724952Y-49641095D01*
X21772571Y-49688714D01*
X21820190Y-49783952D01*
X21820190Y-50164904D01*
X21296380Y-49307761D02*
X22296380Y-48974428D01*
X21296380Y-48641095D01*
X21296380Y-48117285D02*
X21296380Y-47926809D01*
X21344000Y-47831571D01*
X21439238Y-47736333D01*
X21629714Y-47688714D01*
X21963047Y-47688714D01*
X22153523Y-47736333D01*
X22248761Y-47831571D01*
X22296380Y-47926809D01*
X22296380Y-48117285D01*
X22248761Y-48212523D01*
X22153523Y-48307761D01*
X21963047Y-48355380D01*
X21629714Y-48355380D01*
X21439238Y-48307761D01*
X21344000Y-48212523D01*
X21296380Y-48117285D01*
X21391619Y-47307761D02*
X21344000Y-47260142D01*
X21296380Y-47164904D01*
X21296380Y-46926809D01*
X21344000Y-46831571D01*
X21391619Y-46783952D01*
X21486857Y-46736333D01*
X21582095Y-46736333D01*
X21724952Y-46783952D01*
X22296380Y-47355380D01*
X22296380Y-46736333D01*
X21510666Y-38544380D02*
X21510666Y-39258666D01*
X21463047Y-39401523D01*
X21367809Y-39496761D01*
X21224952Y-39544380D01*
X21129714Y-39544380D01*
X22129714Y-38972952D02*
X22034476Y-38925333D01*
X21986857Y-38877714D01*
X21939238Y-38782476D01*
X21939238Y-38734857D01*
X21986857Y-38639619D01*
X22034476Y-38592000D01*
X22129714Y-38544380D01*
X22320190Y-38544380D01*
X22415428Y-38592000D01*
X22463047Y-38639619D01*
X22510666Y-38734857D01*
X22510666Y-38782476D01*
X22463047Y-38877714D01*
X22415428Y-38925333D01*
X22320190Y-38972952D01*
X22129714Y-38972952D01*
X22034476Y-39020571D01*
X21986857Y-39068190D01*
X21939238Y-39163428D01*
X21939238Y-39353904D01*
X21986857Y-39449142D01*
X22034476Y-39496761D01*
X22129714Y-39544380D01*
X22320190Y-39544380D01*
X22415428Y-39496761D01*
X22463047Y-39449142D01*
X22510666Y-39353904D01*
X22510666Y-39163428D01*
X22463047Y-39068190D01*
X22415428Y-39020571D01*
X22320190Y-38972952D01*
X24963380Y-35464333D02*
X23963380Y-35464333D01*
X24439571Y-35464333D02*
X24439571Y-34892904D01*
X24963380Y-34892904D02*
X23963380Y-34892904D01*
X24868142Y-33845285D02*
X24915761Y-33892904D01*
X24963380Y-34035761D01*
X24963380Y-34131000D01*
X24915761Y-34273857D01*
X24820523Y-34369095D01*
X24725285Y-34416714D01*
X24534809Y-34464333D01*
X24391952Y-34464333D01*
X24201476Y-34416714D01*
X24106238Y-34369095D01*
X24011000Y-34273857D01*
X23963380Y-34131000D01*
X23963380Y-34035761D01*
X24011000Y-33892904D01*
X24058619Y-33845285D01*
X24582428Y-33416714D02*
X24582428Y-32654809D01*
X24915761Y-32226238D02*
X24963380Y-32083380D01*
X24963380Y-31845285D01*
X24915761Y-31750047D01*
X24868142Y-31702428D01*
X24772904Y-31654809D01*
X24677666Y-31654809D01*
X24582428Y-31702428D01*
X24534809Y-31750047D01*
X24487190Y-31845285D01*
X24439571Y-32035761D01*
X24391952Y-32131000D01*
X24344333Y-32178619D01*
X24249095Y-32226238D01*
X24153857Y-32226238D01*
X24058619Y-32178619D01*
X24011000Y-32131000D01*
X23963380Y-32035761D01*
X23963380Y-31797666D01*
X24011000Y-31654809D01*
X24963380Y-30654809D02*
X24487190Y-30988142D01*
X24963380Y-31226238D02*
X23963380Y-31226238D01*
X23963380Y-30845285D01*
X24011000Y-30750047D01*
X24058619Y-30702428D01*
X24153857Y-30654809D01*
X24296714Y-30654809D01*
X24391952Y-30702428D01*
X24439571Y-30750047D01*
X24487190Y-30845285D01*
X24487190Y-31226238D01*
X23963380Y-30035761D02*
X23963380Y-29940523D01*
X24011000Y-29845285D01*
X24058619Y-29797666D01*
X24153857Y-29750047D01*
X24344333Y-29702428D01*
X24582428Y-29702428D01*
X24772904Y-29750047D01*
X24868142Y-29797666D01*
X24915761Y-29845285D01*
X24963380Y-29940523D01*
X24963380Y-30035761D01*
X24915761Y-30131000D01*
X24868142Y-30178619D01*
X24772904Y-30226238D01*
X24582428Y-30273857D01*
X24344333Y-30273857D01*
X24153857Y-30226238D01*
X24058619Y-30178619D01*
X24011000Y-30131000D01*
X23963380Y-30035761D01*
X24296714Y-28845285D02*
X24963380Y-28845285D01*
X23915761Y-29083380D02*
X24630047Y-29321476D01*
X24630047Y-28702428D01*
X8707380Y-43394047D02*
X7707380Y-43394047D01*
X7707380Y-43155952D01*
X7755000Y-43013095D01*
X7850238Y-42917857D01*
X7945476Y-42870238D01*
X8135952Y-42822619D01*
X8278809Y-42822619D01*
X8469285Y-42870238D01*
X8564523Y-42917857D01*
X8659761Y-43013095D01*
X8707380Y-43155952D01*
X8707380Y-43394047D01*
X8707380Y-42394047D02*
X7707380Y-42394047D01*
X8183571Y-42394047D02*
X8183571Y-41822619D01*
X8707380Y-41822619D02*
X7707380Y-41822619D01*
X7707380Y-41489285D02*
X7707380Y-40917857D01*
X8707380Y-41203571D02*
X7707380Y-41203571D01*
X8707380Y-40060714D02*
X8707380Y-40632142D01*
X8707380Y-40346428D02*
X7707380Y-40346428D01*
X7850238Y-40441666D01*
X7945476Y-40536904D01*
X7993095Y-40632142D01*
X8707380Y-39108333D02*
X8707380Y-39679761D01*
X8707380Y-39394047D02*
X7707380Y-39394047D01*
X7850238Y-39489285D01*
X7945476Y-39584523D01*
X7993095Y-39679761D01*
X68953523Y-60650380D02*
X68620190Y-60174190D01*
X68382095Y-60650380D02*
X68382095Y-59650380D01*
X68763047Y-59650380D01*
X68858285Y-59698000D01*
X68905904Y-59745619D01*
X68953523Y-59840857D01*
X68953523Y-59983714D01*
X68905904Y-60078952D01*
X68858285Y-60126571D01*
X68763047Y-60174190D01*
X68382095Y-60174190D01*
X69953523Y-60555142D02*
X69905904Y-60602761D01*
X69763047Y-60650380D01*
X69667809Y-60650380D01*
X69524952Y-60602761D01*
X69429714Y-60507523D01*
X69382095Y-60412285D01*
X69334476Y-60221809D01*
X69334476Y-60078952D01*
X69382095Y-59888476D01*
X69429714Y-59793238D01*
X69524952Y-59698000D01*
X69667809Y-59650380D01*
X69763047Y-59650380D01*
X69905904Y-59698000D01*
X69953523Y-59745619D01*
X70286857Y-59650380D02*
X70524952Y-60650380D01*
X70715428Y-59936095D01*
X70905904Y-60650380D01*
X71144000Y-59650380D01*
X72001142Y-60650380D02*
X71524952Y-60650380D01*
X71524952Y-59650380D01*
X72334476Y-60269428D02*
X73096380Y-60269428D01*
X73763047Y-59650380D02*
X73858285Y-59650380D01*
X73953523Y-59698000D01*
X74001142Y-59745619D01*
X74048761Y-59840857D01*
X74096380Y-60031333D01*
X74096380Y-60269428D01*
X74048761Y-60459904D01*
X74001142Y-60555142D01*
X73953523Y-60602761D01*
X73858285Y-60650380D01*
X73763047Y-60650380D01*
X73667809Y-60602761D01*
X73620190Y-60555142D01*
X73572571Y-60459904D01*
X73524952Y-60269428D01*
X73524952Y-60031333D01*
X73572571Y-59840857D01*
X73620190Y-59745619D01*
X73667809Y-59698000D01*
X73763047Y-59650380D01*
X75001142Y-59650380D02*
X74524952Y-59650380D01*
X74477333Y-60126571D01*
X74524952Y-60078952D01*
X74620190Y-60031333D01*
X74858285Y-60031333D01*
X74953523Y-60078952D01*
X75001142Y-60126571D01*
X75048761Y-60221809D01*
X75048761Y-60459904D01*
X75001142Y-60555142D01*
X74953523Y-60602761D01*
X74858285Y-60650380D01*
X74620190Y-60650380D01*
X74524952Y-60602761D01*
X74477333Y-60555142D01*
X76001142Y-60650380D02*
X75429714Y-60650380D01*
X75715428Y-60650380D02*
X75715428Y-59650380D01*
X75620190Y-59793238D01*
X75524952Y-59888476D01*
X75429714Y-59936095D01*
X76858285Y-59650380D02*
X76667809Y-59650380D01*
X76572571Y-59698000D01*
X76524952Y-59745619D01*
X76429714Y-59888476D01*
X76382095Y-60078952D01*
X76382095Y-60459904D01*
X76429714Y-60555142D01*
X76477333Y-60602761D01*
X76572571Y-60650380D01*
X76763047Y-60650380D01*
X76858285Y-60602761D01*
X76905904Y-60555142D01*
X76953523Y-60459904D01*
X76953523Y-60221809D01*
X76905904Y-60126571D01*
X76858285Y-60078952D01*
X76763047Y-60031333D01*
X76572571Y-60031333D01*
X76477333Y-60078952D01*
X76429714Y-60126571D01*
X76382095Y-60221809D01*
X6707285Y-29503714D02*
X6707285Y-30170380D01*
X6469190Y-29122761D02*
X6231095Y-29837047D01*
X6850142Y-29837047D01*
X7231095Y-30170380D02*
X7231095Y-29170380D01*
X7802523Y-30170380D02*
X7373952Y-29598952D01*
X7802523Y-29170380D02*
X7231095Y-29741809D01*
X8135857Y-29170380D02*
X8802523Y-29170380D01*
X8373952Y-30170380D01*
X10794761Y-4564380D02*
X10985238Y-4564380D01*
X11080476Y-4612000D01*
X11175714Y-4707238D01*
X11223333Y-4897714D01*
X11223333Y-5231047D01*
X11175714Y-5421523D01*
X11080476Y-5516761D01*
X10985238Y-5564380D01*
X10794761Y-5564380D01*
X10699523Y-5516761D01*
X10604285Y-5421523D01*
X10556666Y-5231047D01*
X10556666Y-4897714D01*
X10604285Y-4707238D01*
X10699523Y-4612000D01*
X10794761Y-4564380D01*
X2254000Y-5564380D02*
X2254000Y-4564380D01*
X5810095Y-1056000D02*
X5714857Y-1008380D01*
X5571999Y-1008380D01*
X5429142Y-1056000D01*
X5333904Y-1151238D01*
X5286285Y-1246476D01*
X5238666Y-1436952D01*
X5238666Y-1579809D01*
X5286285Y-1770285D01*
X5333904Y-1865523D01*
X5429142Y-1960761D01*
X5571999Y-2008380D01*
X5667238Y-2008380D01*
X5810095Y-1960761D01*
X5857714Y-1913142D01*
X5857714Y-1579809D01*
X5667238Y-1579809D01*
X6286285Y-2008380D02*
X6286285Y-1008380D01*
X6857714Y-2008380D01*
X6857714Y-1008380D01*
X7333904Y-2008380D02*
X7333904Y-1008380D01*
X7572000Y-1008380D01*
X7714857Y-1056000D01*
X7810095Y-1151238D01*
X7857714Y-1246476D01*
X7905333Y-1436952D01*
X7905333Y-1579809D01*
X7857714Y-1770285D01*
X7810095Y-1865523D01*
X7714857Y-1960761D01*
X7572000Y-2008380D01*
X7333904Y-2008380D01*
X5048190Y-8453714D02*
X4286285Y-8739428D01*
X5048190Y-9025142D01*
X5524380Y-8739428D02*
X6286285Y-8739428D01*
X8000571Y-8120380D02*
X7524380Y-8120380D01*
X7476761Y-8596571D01*
X7524380Y-8548952D01*
X7619619Y-8501333D01*
X7857714Y-8501333D01*
X7952952Y-8548952D01*
X8000571Y-8596571D01*
X8048190Y-8691809D01*
X8048190Y-8929904D01*
X8000571Y-9025142D01*
X7952952Y-9072761D01*
X7857714Y-9120380D01*
X7619619Y-9120380D01*
X7524380Y-9072761D01*
X7476761Y-9025142D01*
X8333904Y-8120380D02*
X8667238Y-9120380D01*
X9000571Y-8120380D01*
X22733190Y-8421714D02*
X21971285Y-8707428D01*
X22733190Y-8993142D01*
X23209380Y-8707428D02*
X23971285Y-8707428D01*
X25685571Y-8088380D02*
X25209380Y-8088380D01*
X25161761Y-8564571D01*
X25209380Y-8516952D01*
X25304619Y-8469333D01*
X25542714Y-8469333D01*
X25637952Y-8516952D01*
X25685571Y-8564571D01*
X25733190Y-8659809D01*
X25733190Y-8897904D01*
X25685571Y-8993142D01*
X25637952Y-9040761D01*
X25542714Y-9088380D01*
X25304619Y-9088380D01*
X25209380Y-9040761D01*
X25161761Y-8993142D01*
X26018904Y-8088380D02*
X26352238Y-9088380D01*
X26685571Y-8088380D01*
X23495095Y-1024000D02*
X23399857Y-976380D01*
X23257000Y-976380D01*
X23114142Y-1024000D01*
X23018904Y-1119238D01*
X22971285Y-1214476D01*
X22923666Y-1404952D01*
X22923666Y-1547809D01*
X22971285Y-1738285D01*
X23018904Y-1833523D01*
X23114142Y-1928761D01*
X23257000Y-1976380D01*
X23352238Y-1976380D01*
X23495095Y-1928761D01*
X23542714Y-1881142D01*
X23542714Y-1547809D01*
X23352238Y-1547809D01*
X23971285Y-1976380D02*
X23971285Y-976380D01*
X24542714Y-1976380D01*
X24542714Y-976380D01*
X25018904Y-1976380D02*
X25018904Y-976380D01*
X25257000Y-976380D01*
X25399857Y-1024000D01*
X25495095Y-1119238D01*
X25542714Y-1214476D01*
X25590333Y-1404952D01*
X25590333Y-1547809D01*
X25542714Y-1738285D01*
X25495095Y-1833523D01*
X25399857Y-1928761D01*
X25257000Y-1976380D01*
X25018904Y-1976380D01*
X28479761Y-4532380D02*
X28670238Y-4532380D01*
X28765476Y-4580000D01*
X28860714Y-4675238D01*
X28908333Y-4865714D01*
X28908333Y-5199047D01*
X28860714Y-5389523D01*
X28765476Y-5484761D01*
X28670238Y-5532380D01*
X28479761Y-5532380D01*
X28384523Y-5484761D01*
X28289285Y-5389523D01*
X28241666Y-5199047D01*
X28241666Y-4865714D01*
X28289285Y-4675238D01*
X28384523Y-4580000D01*
X28479761Y-4532380D01*
X45222761Y-4532380D02*
X45413238Y-4532380D01*
X45508476Y-4580000D01*
X45603714Y-4675238D01*
X45651333Y-4865714D01*
X45651333Y-5199047D01*
X45603714Y-5389523D01*
X45508476Y-5484761D01*
X45413238Y-5532380D01*
X45222761Y-5532380D01*
X45127523Y-5484761D01*
X45032285Y-5389523D01*
X44984666Y-5199047D01*
X44984666Y-4865714D01*
X45032285Y-4675238D01*
X45127523Y-4580000D01*
X45222761Y-4532380D01*
X36682000Y-5532380D02*
X36682000Y-4532380D01*
X40238095Y-1024000D02*
X40142857Y-976380D01*
X40000000Y-976380D01*
X39857142Y-1024000D01*
X39761904Y-1119238D01*
X39714285Y-1214476D01*
X39666666Y-1404952D01*
X39666666Y-1547809D01*
X39714285Y-1738285D01*
X39761904Y-1833523D01*
X39857142Y-1928761D01*
X40000000Y-1976380D01*
X40095238Y-1976380D01*
X40238095Y-1928761D01*
X40285714Y-1881142D01*
X40285714Y-1547809D01*
X40095238Y-1547809D01*
X40714285Y-1976380D02*
X40714285Y-976380D01*
X41285714Y-1976380D01*
X41285714Y-976380D01*
X41761904Y-1976380D02*
X41761904Y-976380D01*
X42000000Y-976380D01*
X42142857Y-1024000D01*
X42238095Y-1119238D01*
X42285714Y-1214476D01*
X42333333Y-1404952D01*
X42333333Y-1547809D01*
X42285714Y-1738285D01*
X42238095Y-1833523D01*
X42142857Y-1928761D01*
X42000000Y-1976380D01*
X41761904Y-1976380D01*
X39476190Y-8421714D02*
X38714285Y-8707428D01*
X39476190Y-8993142D01*
X39952380Y-8707428D02*
X40714285Y-8707428D01*
X42428571Y-8088380D02*
X41952380Y-8088380D01*
X41904761Y-8564571D01*
X41952380Y-8516952D01*
X42047619Y-8469333D01*
X42285714Y-8469333D01*
X42380952Y-8516952D01*
X42428571Y-8564571D01*
X42476190Y-8659809D01*
X42476190Y-8897904D01*
X42428571Y-8993142D01*
X42380952Y-9040761D01*
X42285714Y-9088380D01*
X42047619Y-9088380D01*
X41952380Y-9040761D01*
X41904761Y-8993142D01*
X42761904Y-8088380D02*
X43095238Y-9088380D01*
X43428571Y-8088380D01*
X56515190Y-8421714D02*
X55753285Y-8707428D01*
X56515190Y-8993142D01*
X56991380Y-8707428D02*
X57753285Y-8707428D01*
X59467571Y-8088380D02*
X58991380Y-8088380D01*
X58943761Y-8564571D01*
X58991380Y-8516952D01*
X59086619Y-8469333D01*
X59324714Y-8469333D01*
X59419952Y-8516952D01*
X59467571Y-8564571D01*
X59515190Y-8659809D01*
X59515190Y-8897904D01*
X59467571Y-8993142D01*
X59419952Y-9040761D01*
X59324714Y-9088380D01*
X59086619Y-9088380D01*
X58991380Y-9040761D01*
X58943761Y-8993142D01*
X59800904Y-8088380D02*
X60134238Y-9088380D01*
X60467571Y-8088380D01*
X57277095Y-1024000D02*
X57181857Y-976380D01*
X57039000Y-976380D01*
X56896142Y-1024000D01*
X56800904Y-1119238D01*
X56753285Y-1214476D01*
X56705666Y-1404952D01*
X56705666Y-1547809D01*
X56753285Y-1738285D01*
X56800904Y-1833523D01*
X56896142Y-1928761D01*
X57039000Y-1976380D01*
X57134238Y-1976380D01*
X57277095Y-1928761D01*
X57324714Y-1881142D01*
X57324714Y-1547809D01*
X57134238Y-1547809D01*
X57753285Y-1976380D02*
X57753285Y-976380D01*
X58324714Y-1976380D01*
X58324714Y-976380D01*
X58800904Y-1976380D02*
X58800904Y-976380D01*
X59039000Y-976380D01*
X59181857Y-1024000D01*
X59277095Y-1119238D01*
X59324714Y-1214476D01*
X59372333Y-1404952D01*
X59372333Y-1547809D01*
X59324714Y-1738285D01*
X59277095Y-1833523D01*
X59181857Y-1928761D01*
X59039000Y-1976380D01*
X58800904Y-1976380D01*
X53721000Y-5532380D02*
X53721000Y-4532380D01*
X62261761Y-4532380D02*
X62452238Y-4532380D01*
X62547476Y-4580000D01*
X62642714Y-4675238D01*
X62690333Y-4865714D01*
X62690333Y-5199047D01*
X62642714Y-5389523D01*
X62547476Y-5484761D01*
X62452238Y-5532380D01*
X62261761Y-5532380D01*
X62166523Y-5484761D01*
X62071285Y-5389523D01*
X62023666Y-5199047D01*
X62023666Y-4865714D01*
X62071285Y-4675238D01*
X62166523Y-4580000D01*
X62261761Y-4532380D01*
X9175904Y-36286380D02*
X9175904Y-37095904D01*
X9223523Y-37191142D01*
X9271142Y-37238761D01*
X9366380Y-37286380D01*
X9556857Y-37286380D01*
X9652095Y-37238761D01*
X9699714Y-37191142D01*
X9747333Y-37095904D01*
X9747333Y-36286380D01*
X10747333Y-37286380D02*
X10175904Y-37286380D01*
X10461619Y-37286380D02*
X10461619Y-36286380D01*
X10366380Y-36429238D01*
X10271142Y-36524476D01*
X10175904Y-36572095D01*
X11366380Y-36286380D02*
X11461619Y-36286380D01*
X11556857Y-36334000D01*
X11604476Y-36381619D01*
X11652095Y-36476857D01*
X11699714Y-36667333D01*
X11699714Y-36905428D01*
X11652095Y-37095904D01*
X11604476Y-37191142D01*
X11556857Y-37238761D01*
X11461619Y-37286380D01*
X11366380Y-37286380D01*
X11271142Y-37238761D01*
X11223523Y-37191142D01*
X11175904Y-37095904D01*
X11128285Y-36905428D01*
X11128285Y-36667333D01*
X11175904Y-36476857D01*
X11223523Y-36381619D01*
X11271142Y-36334000D01*
X11366380Y-36286380D01*
X1175142Y-33345380D02*
X1175142Y-32345380D01*
X1413238Y-32345380D01*
X1556095Y-32393000D01*
X1651333Y-32488238D01*
X1698952Y-32583476D01*
X1746571Y-32773952D01*
X1746571Y-32916809D01*
X1698952Y-33107285D01*
X1651333Y-33202523D01*
X1556095Y-33297761D01*
X1413238Y-33345380D01*
X1175142Y-33345380D01*
X2127523Y-33297761D02*
X2270380Y-33345380D01*
X2508476Y-33345380D01*
X2603714Y-33297761D01*
X2651333Y-33250142D01*
X2698952Y-33154904D01*
X2698952Y-33059666D01*
X2651333Y-32964428D01*
X2603714Y-32916809D01*
X2508476Y-32869190D01*
X2318000Y-32821571D01*
X2222761Y-32773952D01*
X2175142Y-32726333D01*
X2127523Y-32631095D01*
X2127523Y-32535857D01*
X2175142Y-32440619D01*
X2222761Y-32393000D01*
X2318000Y-32345380D01*
X2556095Y-32345380D01*
X2698952Y-32393000D01*
X3651333Y-33345380D02*
X3079904Y-33345380D01*
X3365619Y-33345380D02*
X3365619Y-32345380D01*
X3270380Y-32488238D01*
X3175142Y-32583476D01*
X3079904Y-32631095D01*
X4222761Y-32773952D02*
X4127523Y-32726333D01*
X4079904Y-32678714D01*
X4032285Y-32583476D01*
X4032285Y-32535857D01*
X4079904Y-32440619D01*
X4127523Y-32393000D01*
X4222761Y-32345380D01*
X4413238Y-32345380D01*
X4508476Y-32393000D01*
X4556095Y-32440619D01*
X4603714Y-32535857D01*
X4603714Y-32583476D01*
X4556095Y-32678714D01*
X4508476Y-32726333D01*
X4413238Y-32773952D01*
X4222761Y-32773952D01*
X4127523Y-32821571D01*
X4079904Y-32869190D01*
X4032285Y-32964428D01*
X4032285Y-33154904D01*
X4079904Y-33250142D01*
X4127523Y-33297761D01*
X4222761Y-33345380D01*
X4413238Y-33345380D01*
X4508476Y-33297761D01*
X4556095Y-33250142D01*
X4603714Y-33154904D01*
X4603714Y-32964428D01*
X4556095Y-32869190D01*
X4508476Y-32821571D01*
X4413238Y-32773952D01*
X5365619Y-32821571D02*
X5508476Y-32869190D01*
X5556095Y-32916809D01*
X5603714Y-33012047D01*
X5603714Y-33154904D01*
X5556095Y-33250142D01*
X5508476Y-33297761D01*
X5413238Y-33345380D01*
X5032285Y-33345380D01*
X5032285Y-32345380D01*
X5365619Y-32345380D01*
X5460857Y-32393000D01*
X5508476Y-32440619D01*
X5556095Y-32535857D01*
X5556095Y-32631095D01*
X5508476Y-32726333D01*
X5460857Y-32773952D01*
X5365619Y-32821571D01*
X5032285Y-32821571D01*
X5984666Y-32440619D02*
X6032285Y-32393000D01*
X6127523Y-32345380D01*
X6365619Y-32345380D01*
X6460857Y-32393000D01*
X6508476Y-32440619D01*
X6556095Y-32535857D01*
X6556095Y-32631095D01*
X6508476Y-32773952D01*
X5937047Y-33345380D01*
X6556095Y-33345380D01*
X7175142Y-32345380D02*
X7270380Y-32345380D01*
X7365619Y-32393000D01*
X7413238Y-32440619D01*
X7460857Y-32535857D01*
X7508476Y-32726333D01*
X7508476Y-32964428D01*
X7460857Y-33154904D01*
X7413238Y-33250142D01*
X7365619Y-33297761D01*
X7270380Y-33345380D01*
X7175142Y-33345380D01*
X7079904Y-33297761D01*
X7032285Y-33250142D01*
X6984666Y-33154904D01*
X6937047Y-32964428D01*
X6937047Y-32726333D01*
X6984666Y-32535857D01*
X7032285Y-32440619D01*
X7079904Y-32393000D01*
X7175142Y-32345380D01*
X10438428Y-58856619D02*
X10486047Y-58809000D01*
X10581285Y-58761380D01*
X10819380Y-58761380D01*
X10914619Y-58809000D01*
X10962238Y-58856619D01*
X11009857Y-58951857D01*
X11009857Y-59047095D01*
X10962238Y-59189952D01*
X10390809Y-59761380D01*
X11009857Y-59761380D01*
X11390809Y-59475666D02*
X11867000Y-59475666D01*
X11295571Y-59761380D02*
X11628904Y-58761380D01*
X11962238Y-59761380D01*
X13009857Y-59713761D02*
X13152714Y-59761380D01*
X13390809Y-59761380D01*
X13486047Y-59713761D01*
X13533666Y-59666142D01*
X13581285Y-59570904D01*
X13581285Y-59475666D01*
X13533666Y-59380428D01*
X13486047Y-59332809D01*
X13390809Y-59285190D01*
X13200333Y-59237571D01*
X13105095Y-59189952D01*
X13057476Y-59142333D01*
X13009857Y-59047095D01*
X13009857Y-58951857D01*
X13057476Y-58856619D01*
X13105095Y-58809000D01*
X13200333Y-58761380D01*
X13438428Y-58761380D01*
X13581285Y-58809000D01*
X14152714Y-59761380D02*
X14057476Y-59713761D01*
X14009857Y-59618523D01*
X14009857Y-58761380D01*
X14676523Y-59761380D02*
X14581285Y-59713761D01*
X14533666Y-59666142D01*
X14486047Y-59570904D01*
X14486047Y-59285190D01*
X14533666Y-59189952D01*
X14581285Y-59142333D01*
X14676523Y-59094714D01*
X14819380Y-59094714D01*
X14914619Y-59142333D01*
X14962238Y-59189952D01*
X15009857Y-59285190D01*
X15009857Y-59570904D01*
X14962238Y-59666142D01*
X14914619Y-59713761D01*
X14819380Y-59761380D01*
X14676523Y-59761380D01*
X15343190Y-59094714D02*
X15533666Y-59761380D01*
X15724142Y-59285190D01*
X15914619Y-59761380D01*
X16105095Y-59094714D01*
X17581285Y-59237571D02*
X17724142Y-59285190D01*
X17771761Y-59332809D01*
X17819380Y-59428047D01*
X17819380Y-59570904D01*
X17771761Y-59666142D01*
X17724142Y-59713761D01*
X17628904Y-59761380D01*
X17247952Y-59761380D01*
X17247952Y-58761380D01*
X17581285Y-58761380D01*
X17676523Y-58809000D01*
X17724142Y-58856619D01*
X17771761Y-58951857D01*
X17771761Y-59047095D01*
X17724142Y-59142333D01*
X17676523Y-59189952D01*
X17581285Y-59237571D01*
X17247952Y-59237571D01*
X18390809Y-59761380D02*
X18295571Y-59713761D01*
X18247952Y-59618523D01*
X18247952Y-58761380D01*
X18914619Y-59761380D02*
X18819380Y-59713761D01*
X18771761Y-59666142D01*
X18724142Y-59570904D01*
X18724142Y-59285190D01*
X18771761Y-59189952D01*
X18819380Y-59142333D01*
X18914619Y-59094714D01*
X19057476Y-59094714D01*
X19152714Y-59142333D01*
X19200333Y-59189952D01*
X19247952Y-59285190D01*
X19247952Y-59570904D01*
X19200333Y-59666142D01*
X19152714Y-59713761D01*
X19057476Y-59761380D01*
X18914619Y-59761380D01*
X19581285Y-59094714D02*
X19771761Y-59761380D01*
X19962238Y-59285190D01*
X20152714Y-59761380D01*
X20343190Y-59094714D01*
X10454238Y-63174619D02*
X10501857Y-63127000D01*
X10597095Y-63079380D01*
X10835190Y-63079380D01*
X10930428Y-63127000D01*
X10978047Y-63174619D01*
X11025666Y-63269857D01*
X11025666Y-63365095D01*
X10978047Y-63507952D01*
X10406619Y-64079380D01*
X11025666Y-64079380D01*
X11406619Y-63793666D02*
X11882809Y-63793666D01*
X11311380Y-64079380D02*
X11644714Y-63079380D01*
X11978047Y-64079380D01*
X13073285Y-64079380D02*
X13073285Y-63079380D01*
X13454238Y-63079380D01*
X13549476Y-63127000D01*
X13597095Y-63174619D01*
X13644714Y-63269857D01*
X13644714Y-63412714D01*
X13597095Y-63507952D01*
X13549476Y-63555571D01*
X13454238Y-63603190D01*
X13073285Y-63603190D01*
X14216142Y-64079380D02*
X14120904Y-64031761D01*
X14073285Y-63984142D01*
X14025666Y-63888904D01*
X14025666Y-63603190D01*
X14073285Y-63507952D01*
X14120904Y-63460333D01*
X14216142Y-63412714D01*
X14358999Y-63412714D01*
X14454238Y-63460333D01*
X14501857Y-63507952D01*
X14549476Y-63603190D01*
X14549476Y-63888904D01*
X14501857Y-63984142D01*
X14454238Y-64031761D01*
X14358999Y-64079380D01*
X14216142Y-64079380D01*
X15120904Y-64079380D02*
X15025666Y-64031761D01*
X14978047Y-63936523D01*
X14978047Y-63079380D01*
X15406619Y-63412714D02*
X15644714Y-64079380D01*
X15882809Y-63412714D02*
X15644714Y-64079380D01*
X15549476Y-64317476D01*
X15501857Y-64365095D01*
X15406619Y-64412714D01*
X16597095Y-63555571D02*
X16263761Y-63555571D01*
X16263761Y-64079380D02*
X16263761Y-63079380D01*
X16739952Y-63079380D01*
X17549476Y-63412714D02*
X17549476Y-64079380D01*
X17120904Y-63412714D02*
X17120904Y-63936523D01*
X17168523Y-64031761D01*
X17263761Y-64079380D01*
X17406619Y-64079380D01*
X17501857Y-64031761D01*
X17549476Y-63984142D01*
X17978047Y-64031761D02*
X18073285Y-64079380D01*
X18263761Y-64079380D01*
X18359000Y-64031761D01*
X18406619Y-63936523D01*
X18406619Y-63888904D01*
X18359000Y-63793666D01*
X18263761Y-63746047D01*
X18120904Y-63746047D01*
X18025666Y-63698428D01*
X17978047Y-63603190D01*
X17978047Y-63555571D01*
X18025666Y-63460333D01*
X18120904Y-63412714D01*
X18263761Y-63412714D01*
X18359000Y-63460333D01*
X19216142Y-64031761D02*
X19120904Y-64079380D01*
X18930428Y-64079380D01*
X18835190Y-64031761D01*
X18787571Y-63936523D01*
X18787571Y-63555571D01*
X18835190Y-63460333D01*
X18930428Y-63412714D01*
X19120904Y-63412714D01*
X19216142Y-63460333D01*
X19263761Y-63555571D01*
X19263761Y-63650809D01*
X18787571Y-63746047D01*
X35767000Y-14517714D02*
X36147952Y-14517714D01*
X35909857Y-15184380D02*
X35909857Y-14327238D01*
X35957476Y-14232000D01*
X36052714Y-14184380D01*
X36147952Y-14184380D01*
X36481285Y-15184380D02*
X36481285Y-14517714D01*
X36481285Y-14708190D02*
X36528904Y-14612952D01*
X36576523Y-14565333D01*
X36671761Y-14517714D01*
X36767000Y-14517714D01*
X37243190Y-15184380D02*
X37147952Y-15136761D01*
X37100333Y-15089142D01*
X37052714Y-14993904D01*
X37052714Y-14708190D01*
X37100333Y-14612952D01*
X37147952Y-14565333D01*
X37243190Y-14517714D01*
X37386047Y-14517714D01*
X37481285Y-14565333D01*
X37528904Y-14612952D01*
X37576523Y-14708190D01*
X37576523Y-14993904D01*
X37528904Y-15089142D01*
X37481285Y-15136761D01*
X37386047Y-15184380D01*
X37243190Y-15184380D01*
X38005095Y-14517714D02*
X38005095Y-15184380D01*
X38005095Y-14612952D02*
X38052714Y-14565333D01*
X38147952Y-14517714D01*
X38290809Y-14517714D01*
X38386047Y-14565333D01*
X38433666Y-14660571D01*
X38433666Y-15184380D01*
X38767000Y-14517714D02*
X39147952Y-14517714D01*
X38909857Y-14184380D02*
X38909857Y-15041523D01*
X38957476Y-15136761D01*
X39052714Y-15184380D01*
X39147952Y-15184380D01*
X39243190Y-15279619D02*
X40005095Y-15279619D01*
X40671761Y-15136761D02*
X40576523Y-15184380D01*
X40386047Y-15184380D01*
X40290809Y-15136761D01*
X40243190Y-15089142D01*
X40195571Y-14993904D01*
X40195571Y-14708190D01*
X40243190Y-14612952D01*
X40290809Y-14565333D01*
X40386047Y-14517714D01*
X40576523Y-14517714D01*
X40671761Y-14565333D01*
X41243190Y-15184380D02*
X41147952Y-15136761D01*
X41100333Y-15089142D01*
X41052714Y-14993904D01*
X41052714Y-14708190D01*
X41100333Y-14612952D01*
X41147952Y-14565333D01*
X41243190Y-14517714D01*
X41386047Y-14517714D01*
X41481285Y-14565333D01*
X41528904Y-14612952D01*
X41576523Y-14708190D01*
X41576523Y-14993904D01*
X41528904Y-15089142D01*
X41481285Y-15136761D01*
X41386047Y-15184380D01*
X41243190Y-15184380D01*
X42005095Y-14517714D02*
X42005095Y-15184380D01*
X42005095Y-14612952D02*
X42052714Y-14565333D01*
X42147952Y-14517714D01*
X42290809Y-14517714D01*
X42386047Y-14565333D01*
X42433666Y-14660571D01*
X42433666Y-15184380D01*
X42909857Y-14517714D02*
X42909857Y-15184380D01*
X42909857Y-14612952D02*
X42957476Y-14565333D01*
X43052714Y-14517714D01*
X43195571Y-14517714D01*
X43290809Y-14565333D01*
X43338428Y-14660571D01*
X43338428Y-15184380D01*
X44195571Y-15136761D02*
X44100333Y-15184380D01*
X43909857Y-15184380D01*
X43814619Y-15136761D01*
X43767000Y-15041523D01*
X43767000Y-14660571D01*
X43814619Y-14565333D01*
X43909857Y-14517714D01*
X44100333Y-14517714D01*
X44195571Y-14565333D01*
X44243190Y-14660571D01*
X44243190Y-14755809D01*
X43767000Y-14851047D01*
X45100333Y-15136761D02*
X45005095Y-15184380D01*
X44814619Y-15184380D01*
X44719380Y-15136761D01*
X44671761Y-15089142D01*
X44624142Y-14993904D01*
X44624142Y-14708190D01*
X44671761Y-14612952D01*
X44719380Y-14565333D01*
X44814619Y-14517714D01*
X45005095Y-14517714D01*
X45100333Y-14565333D01*
X45386047Y-14517714D02*
X45767000Y-14517714D01*
X45528904Y-14184380D02*
X45528904Y-15041523D01*
X45576523Y-15136761D01*
X45671761Y-15184380D01*
X45767000Y-15184380D01*
X74803190Y-8421714D02*
X74041285Y-8707428D01*
X74803190Y-8993142D01*
X75279380Y-8707428D02*
X76041285Y-8707428D01*
X77755571Y-8088380D02*
X77279380Y-8088380D01*
X77231761Y-8564571D01*
X77279380Y-8516952D01*
X77374619Y-8469333D01*
X77612714Y-8469333D01*
X77707952Y-8516952D01*
X77755571Y-8564571D01*
X77803190Y-8659809D01*
X77803190Y-8897904D01*
X77755571Y-8993142D01*
X77707952Y-9040761D01*
X77612714Y-9088380D01*
X77374619Y-9088380D01*
X77279380Y-9040761D01*
X77231761Y-8993142D01*
X78088904Y-8088380D02*
X78422238Y-9088380D01*
X78755571Y-8088380D01*
X75565095Y-1024000D02*
X75469857Y-976380D01*
X75327000Y-976380D01*
X75184142Y-1024000D01*
X75088904Y-1119238D01*
X75041285Y-1214476D01*
X74993666Y-1404952D01*
X74993666Y-1547809D01*
X75041285Y-1738285D01*
X75088904Y-1833523D01*
X75184142Y-1928761D01*
X75327000Y-1976380D01*
X75422238Y-1976380D01*
X75565095Y-1928761D01*
X75612714Y-1881142D01*
X75612714Y-1547809D01*
X75422238Y-1547809D01*
X76041285Y-1976380D02*
X76041285Y-976380D01*
X76612714Y-1976380D01*
X76612714Y-976380D01*
X77088904Y-1976380D02*
X77088904Y-976380D01*
X77327000Y-976380D01*
X77469857Y-1024000D01*
X77565095Y-1119238D01*
X77612714Y-1214476D01*
X77660333Y-1404952D01*
X77660333Y-1547809D01*
X77612714Y-1738285D01*
X77565095Y-1833523D01*
X77469857Y-1928761D01*
X77327000Y-1976380D01*
X77088904Y-1976380D01*
X72009000Y-5532380D02*
X72009000Y-4532380D01*
X80549761Y-4532380D02*
X80740238Y-4532380D01*
X80835476Y-4580000D01*
X80930714Y-4675238D01*
X80978333Y-4865714D01*
X80978333Y-5199047D01*
X80930714Y-5389523D01*
X80835476Y-5484761D01*
X80740238Y-5532380D01*
X80549761Y-5532380D01*
X80454523Y-5484761D01*
X80359285Y-5389523D01*
X80311666Y-5199047D01*
X80311666Y-4865714D01*
X80359285Y-4675238D01*
X80454523Y-4580000D01*
X80549761Y-4532380D01*
X70897761Y-94448380D02*
X71088238Y-94448380D01*
X71183476Y-94496000D01*
X71278714Y-94591238D01*
X71326333Y-94781714D01*
X71326333Y-95115047D01*
X71278714Y-95305523D01*
X71183476Y-95400761D01*
X71088238Y-95448380D01*
X70897761Y-95448380D01*
X70802523Y-95400761D01*
X70707285Y-95305523D01*
X70659666Y-95115047D01*
X70659666Y-94781714D01*
X70707285Y-94591238D01*
X70802523Y-94496000D01*
X70897761Y-94448380D01*
X79629000Y-95448380D02*
X79629000Y-94448380D01*
X74549095Y-98052000D02*
X74453857Y-98004380D01*
X74311000Y-98004380D01*
X74168142Y-98052000D01*
X74072904Y-98147238D01*
X74025285Y-98242476D01*
X73977666Y-98432952D01*
X73977666Y-98575809D01*
X74025285Y-98766285D01*
X74072904Y-98861523D01*
X74168142Y-98956761D01*
X74311000Y-99004380D01*
X74406238Y-99004380D01*
X74549095Y-98956761D01*
X74596714Y-98909142D01*
X74596714Y-98575809D01*
X74406238Y-98575809D01*
X75025285Y-99004380D02*
X75025285Y-98004380D01*
X75596714Y-99004380D01*
X75596714Y-98004380D01*
X76072904Y-99004380D02*
X76072904Y-98004380D01*
X76311000Y-98004380D01*
X76453857Y-98052000D01*
X76549095Y-98147238D01*
X76596714Y-98242476D01*
X76644333Y-98432952D01*
X76644333Y-98575809D01*
X76596714Y-98766285D01*
X76549095Y-98861523D01*
X76453857Y-98956761D01*
X76311000Y-99004380D01*
X76072904Y-99004380D01*
X73787190Y-91225714D02*
X73025285Y-91511428D01*
X73787190Y-91797142D01*
X74263380Y-91511428D02*
X75025285Y-91511428D01*
X76739571Y-90892380D02*
X76263380Y-90892380D01*
X76215761Y-91368571D01*
X76263380Y-91320952D01*
X76358619Y-91273333D01*
X76596714Y-91273333D01*
X76691952Y-91320952D01*
X76739571Y-91368571D01*
X76787190Y-91463809D01*
X76787190Y-91701904D01*
X76739571Y-91797142D01*
X76691952Y-91844761D01*
X76596714Y-91892380D01*
X76358619Y-91892380D01*
X76263380Y-91844761D01*
X76215761Y-91797142D01*
X77072904Y-90892380D02*
X77406238Y-91892380D01*
X77739571Y-90892380D01*
X3334190Y-91130714D02*
X2572285Y-91416428D01*
X3334190Y-91702142D01*
X3810380Y-91416428D02*
X4572285Y-91416428D01*
X6286571Y-90797380D02*
X5810380Y-90797380D01*
X5762761Y-91273571D01*
X5810380Y-91225952D01*
X5905619Y-91178333D01*
X6143714Y-91178333D01*
X6238952Y-91225952D01*
X6286571Y-91273571D01*
X6334190Y-91368809D01*
X6334190Y-91606904D01*
X6286571Y-91702142D01*
X6238952Y-91749761D01*
X6143714Y-91797380D01*
X5905619Y-91797380D01*
X5810380Y-91749761D01*
X5762761Y-91702142D01*
X6619904Y-90797380D02*
X6953238Y-91797380D01*
X7286571Y-90797380D01*
X4096095Y-97957000D02*
X4000857Y-97909380D01*
X3858000Y-97909380D01*
X3715142Y-97957000D01*
X3619904Y-98052238D01*
X3572285Y-98147476D01*
X3524666Y-98337952D01*
X3524666Y-98480809D01*
X3572285Y-98671285D01*
X3619904Y-98766523D01*
X3715142Y-98861761D01*
X3858000Y-98909380D01*
X3953238Y-98909380D01*
X4096095Y-98861761D01*
X4143714Y-98814142D01*
X4143714Y-98480809D01*
X3953238Y-98480809D01*
X4572285Y-98909380D02*
X4572285Y-97909380D01*
X5143714Y-98909380D01*
X5143714Y-97909380D01*
X5619904Y-98909380D02*
X5619904Y-97909380D01*
X5858000Y-97909380D01*
X6000857Y-97957000D01*
X6096095Y-98052238D01*
X6143714Y-98147476D01*
X6191333Y-98337952D01*
X6191333Y-98480809D01*
X6143714Y-98671285D01*
X6096095Y-98766523D01*
X6000857Y-98861761D01*
X5858000Y-98909380D01*
X5619904Y-98909380D01*
X9176000Y-95353380D02*
X9176000Y-94353380D01*
X444761Y-94353380D02*
X635238Y-94353380D01*
X730476Y-94401000D01*
X825714Y-94496238D01*
X873333Y-94686714D01*
X873333Y-95020047D01*
X825714Y-95210523D01*
X730476Y-95305761D01*
X635238Y-95353380D01*
X444761Y-95353380D01*
X349523Y-95305761D01*
X254285Y-95210523D01*
X206666Y-95020047D01*
X206666Y-94686714D01*
X254285Y-94496238D01*
X349523Y-94401000D01*
X444761Y-94353380D01*
X1191190Y-15533714D02*
X1191190Y-16200380D01*
X1191190Y-15628952D02*
X1238809Y-15581333D01*
X1334047Y-15533714D01*
X1476904Y-15533714D01*
X1572142Y-15581333D01*
X1619761Y-15676571D01*
X1619761Y-16200380D01*
X2476904Y-16152761D02*
X2381666Y-16200380D01*
X2191190Y-16200380D01*
X2095952Y-16152761D01*
X2048333Y-16057523D01*
X2048333Y-15676571D01*
X2095952Y-15581333D01*
X2191190Y-15533714D01*
X2381666Y-15533714D01*
X2476904Y-15581333D01*
X2524523Y-15676571D01*
X2524523Y-15771809D01*
X2048333Y-15867047D01*
X3095952Y-16200380D02*
X3000714Y-16152761D01*
X2953095Y-16105142D01*
X2905476Y-16009904D01*
X2905476Y-15724190D01*
X2953095Y-15628952D01*
X3000714Y-15581333D01*
X3095952Y-15533714D01*
X3238809Y-15533714D01*
X3334047Y-15581333D01*
X3381666Y-15628952D01*
X3429285Y-15724190D01*
X3429285Y-16009904D01*
X3381666Y-16105142D01*
X3334047Y-16152761D01*
X3238809Y-16200380D01*
X3095952Y-16200380D01*
X3857857Y-15533714D02*
X3857857Y-16533714D01*
X3857857Y-15581333D02*
X3953095Y-15533714D01*
X4143571Y-15533714D01*
X4238809Y-15581333D01*
X4286428Y-15628952D01*
X4334047Y-15724190D01*
X4334047Y-16009904D01*
X4286428Y-16105142D01*
X4238809Y-16152761D01*
X4143571Y-16200380D01*
X3953095Y-16200380D01*
X3857857Y-16152761D01*
X4762619Y-16200380D02*
X4762619Y-15533714D01*
X4762619Y-15200380D02*
X4715000Y-15248000D01*
X4762619Y-15295619D01*
X4810238Y-15248000D01*
X4762619Y-15200380D01*
X4762619Y-15295619D01*
X5143571Y-16200380D02*
X5667380Y-15533714D01*
X5143571Y-15533714D02*
X5667380Y-16200380D01*
X6429285Y-16152761D02*
X6334047Y-16200380D01*
X6143571Y-16200380D01*
X6048333Y-16152761D01*
X6000714Y-16057523D01*
X6000714Y-15676571D01*
X6048333Y-15581333D01*
X6143571Y-15533714D01*
X6334047Y-15533714D01*
X6429285Y-15581333D01*
X6476904Y-15676571D01*
X6476904Y-15771809D01*
X6000714Y-15867047D01*
X7048333Y-16200380D02*
X6953095Y-16152761D01*
X6905476Y-16057523D01*
X6905476Y-15200380D01*
X7191190Y-16295619D02*
X7953095Y-16295619D01*
X8334047Y-16200380D02*
X8238809Y-16152761D01*
X8191190Y-16057523D01*
X8191190Y-15200380D01*
X9095952Y-16152761D02*
X9000714Y-16200380D01*
X8810238Y-16200380D01*
X8715000Y-16152761D01*
X8667380Y-16057523D01*
X8667380Y-15676571D01*
X8715000Y-15581333D01*
X8810238Y-15533714D01*
X9000714Y-15533714D01*
X9095952Y-15581333D01*
X9143571Y-15676571D01*
X9143571Y-15771809D01*
X8667380Y-15867047D01*
X9429285Y-15533714D02*
X9810238Y-15533714D01*
X9572142Y-16200380D02*
X9572142Y-15343238D01*
X9619761Y-15248000D01*
X9715000Y-15200380D01*
X9810238Y-15200380D01*
X10000714Y-15533714D02*
X10381666Y-15533714D01*
X10143571Y-15200380D02*
X10143571Y-16057523D01*
X10191190Y-16152761D01*
X10286428Y-16200380D01*
X10381666Y-16200380D01*
X71200000Y-16549714D02*
X71200000Y-17216380D01*
X71200000Y-16644952D02*
X71247619Y-16597333D01*
X71342857Y-16549714D01*
X71485714Y-16549714D01*
X71580952Y-16597333D01*
X71628571Y-16692571D01*
X71628571Y-17216380D01*
X72485714Y-17168761D02*
X72390476Y-17216380D01*
X72200000Y-17216380D01*
X72104761Y-17168761D01*
X72057142Y-17073523D01*
X72057142Y-16692571D01*
X72104761Y-16597333D01*
X72200000Y-16549714D01*
X72390476Y-16549714D01*
X72485714Y-16597333D01*
X72533333Y-16692571D01*
X72533333Y-16787809D01*
X72057142Y-16883047D01*
X73104761Y-17216380D02*
X73009523Y-17168761D01*
X72961904Y-17121142D01*
X72914285Y-17025904D01*
X72914285Y-16740190D01*
X72961904Y-16644952D01*
X73009523Y-16597333D01*
X73104761Y-16549714D01*
X73247619Y-16549714D01*
X73342857Y-16597333D01*
X73390476Y-16644952D01*
X73438095Y-16740190D01*
X73438095Y-17025904D01*
X73390476Y-17121142D01*
X73342857Y-17168761D01*
X73247619Y-17216380D01*
X73104761Y-17216380D01*
X73866666Y-16549714D02*
X73866666Y-17549714D01*
X73866666Y-16597333D02*
X73961904Y-16549714D01*
X74152380Y-16549714D01*
X74247619Y-16597333D01*
X74295238Y-16644952D01*
X74342857Y-16740190D01*
X74342857Y-17025904D01*
X74295238Y-17121142D01*
X74247619Y-17168761D01*
X74152380Y-17216380D01*
X73961904Y-17216380D01*
X73866666Y-17168761D01*
X74771428Y-17216380D02*
X74771428Y-16549714D01*
X74771428Y-16216380D02*
X74723809Y-16264000D01*
X74771428Y-16311619D01*
X74819047Y-16264000D01*
X74771428Y-16216380D01*
X74771428Y-16311619D01*
X75152380Y-17216380D02*
X75676190Y-16549714D01*
X75152380Y-16549714D02*
X75676190Y-17216380D01*
X76438095Y-17168761D02*
X76342857Y-17216380D01*
X76152380Y-17216380D01*
X76057142Y-17168761D01*
X76009523Y-17073523D01*
X76009523Y-16692571D01*
X76057142Y-16597333D01*
X76152380Y-16549714D01*
X76342857Y-16549714D01*
X76438095Y-16597333D01*
X76485714Y-16692571D01*
X76485714Y-16787809D01*
X76009523Y-16883047D01*
X77057142Y-17216380D02*
X76961904Y-17168761D01*
X76914285Y-17073523D01*
X76914285Y-16216380D01*
X77200000Y-17311619D02*
X77961904Y-17311619D01*
X78200000Y-17216380D02*
X78200000Y-16549714D01*
X78200000Y-16740190D02*
X78247619Y-16644952D01*
X78295238Y-16597333D01*
X78390476Y-16549714D01*
X78485714Y-16549714D01*
X78819047Y-17216380D02*
X78819047Y-16549714D01*
X78819047Y-16216380D02*
X78771428Y-16264000D01*
X78819047Y-16311619D01*
X78866666Y-16264000D01*
X78819047Y-16216380D01*
X78819047Y-16311619D01*
X79723809Y-16549714D02*
X79723809Y-17359238D01*
X79676190Y-17454476D01*
X79628571Y-17502095D01*
X79533333Y-17549714D01*
X79390476Y-17549714D01*
X79295238Y-17502095D01*
X79723809Y-17168761D02*
X79628571Y-17216380D01*
X79438095Y-17216380D01*
X79342857Y-17168761D01*
X79295238Y-17121142D01*
X79247619Y-17025904D01*
X79247619Y-16740190D01*
X79295238Y-16644952D01*
X79342857Y-16597333D01*
X79438095Y-16549714D01*
X79628571Y-16549714D01*
X79723809Y-16597333D01*
X80200000Y-17216380D02*
X80200000Y-16216380D01*
X80628571Y-17216380D02*
X80628571Y-16692571D01*
X80580952Y-16597333D01*
X80485714Y-16549714D01*
X80342857Y-16549714D01*
X80247619Y-16597333D01*
X80200000Y-16644952D01*
X80961904Y-16549714D02*
X81342857Y-16549714D01*
X81104761Y-16216380D02*
X81104761Y-17073523D01*
X81152380Y-17168761D01*
X81247619Y-17216380D01*
X81342857Y-17216380D01*
X8525000Y-25281000D02*
X8429761Y-25233380D01*
X8286904Y-25233380D01*
X8144047Y-25281000D01*
X8048809Y-25376238D01*
X8001190Y-25471476D01*
X7953571Y-25661952D01*
X7953571Y-25804809D01*
X8001190Y-25995285D01*
X8048809Y-26090523D01*
X8144047Y-26185761D01*
X8286904Y-26233380D01*
X8382142Y-26233380D01*
X8525000Y-26185761D01*
X8572619Y-26138142D01*
X8572619Y-25804809D01*
X8382142Y-25804809D01*
X9001190Y-26233380D02*
X9001190Y-25233380D01*
X9382142Y-25233380D01*
X9477380Y-25281000D01*
X9525000Y-25328619D01*
X9572619Y-25423857D01*
X9572619Y-25566714D01*
X9525000Y-25661952D01*
X9477380Y-25709571D01*
X9382142Y-25757190D01*
X9001190Y-25757190D01*
X10001190Y-26233380D02*
X10001190Y-25233380D01*
X10667857Y-25233380D02*
X10858333Y-25233380D01*
X10953571Y-25281000D01*
X11048809Y-25376238D01*
X11096428Y-25566714D01*
X11096428Y-25900047D01*
X11048809Y-26090523D01*
X10953571Y-26185761D01*
X10858333Y-26233380D01*
X10667857Y-26233380D01*
X10572619Y-26185761D01*
X10477380Y-26090523D01*
X10429761Y-25900047D01*
X10429761Y-25566714D01*
X10477380Y-25376238D01*
X10572619Y-25281000D01*
X10667857Y-25233380D01*
X1587666Y-26233380D02*
X1587666Y-25233380D01*
X1968619Y-25233380D01*
X2063857Y-25281000D01*
X2111476Y-25328619D01*
X2159095Y-25423857D01*
X2159095Y-25566714D01*
X2111476Y-25661952D01*
X2063857Y-25709571D01*
X1968619Y-25757190D01*
X1587666Y-25757190D01*
X2492428Y-25233380D02*
X2730523Y-26233380D01*
X2921000Y-25519095D01*
X3111476Y-26233380D01*
X3349571Y-25233380D01*
X4301952Y-26233380D02*
X3968619Y-25757190D01*
X3730523Y-26233380D02*
X3730523Y-25233380D01*
X4111476Y-25233380D01*
X4206714Y-25281000D01*
X4254333Y-25328619D01*
X4301952Y-25423857D01*
X4301952Y-25566714D01*
X4254333Y-25661952D01*
X4206714Y-25709571D01*
X4111476Y-25757190D01*
X3730523Y-25757190D01*
X5334095Y-25281000D02*
X5238857Y-25233380D01*
X5095999Y-25233380D01*
X4953142Y-25281000D01*
X4857904Y-25376238D01*
X4810285Y-25471476D01*
X4762666Y-25661952D01*
X4762666Y-25804809D01*
X4810285Y-25995285D01*
X4857904Y-26090523D01*
X4953142Y-26185761D01*
X5095999Y-26233380D01*
X5191238Y-26233380D01*
X5334095Y-26185761D01*
X5381714Y-26138142D01*
X5381714Y-25804809D01*
X5191238Y-25804809D01*
X5810285Y-26233380D02*
X5810285Y-25233380D01*
X6381714Y-26233380D01*
X6381714Y-25233380D01*
X6857904Y-26233380D02*
X6857904Y-25233380D01*
X7096000Y-25233380D01*
X7238857Y-25281000D01*
X7334095Y-25376238D01*
X7381714Y-25471476D01*
X7429333Y-25661952D01*
X7429333Y-25804809D01*
X7381714Y-25995285D01*
X7334095Y-26090523D01*
X7238857Y-26185761D01*
X7096000Y-26233380D01*
X6857904Y-26233380D01*
M02*
