G04 #@! TF.GenerationSoftware,KiCad,Pcbnew,5.1.5+dfsg1-2build2*
G04 #@! TF.CreationDate,2020-06-26T22:01:47+02:00*
G04 #@! TF.ProjectId,robo-car,726f626f-2d63-4617-922e-6b696361645f,rev?*
G04 #@! TF.SameCoordinates,Original*
G04 #@! TF.FileFunction,Soldermask,Bot*
G04 #@! TF.FilePolarity,Negative*
%FSLAX46Y46*%
G04 Gerber Fmt 4.6, Leading zero omitted, Abs format (unit mm)*
G04 Created by KiCad (PCBNEW 5.1.5+dfsg1-2build2) date 2020-06-26 22:01:47*
%MOMM*%
%LPD*%
G04 APERTURE LIST*
%ADD10C,0.100000*%
G04 APERTURE END LIST*
D10*
G36*
X11921142Y-95230242D02*
G01*
X12069101Y-95291529D01*
X12202255Y-95380499D01*
X12315501Y-95493745D01*
X12404471Y-95626899D01*
X12465758Y-95774858D01*
X12497000Y-95931925D01*
X12497000Y-96092075D01*
X12465758Y-96249142D01*
X12404471Y-96397101D01*
X12315501Y-96530255D01*
X12202255Y-96643501D01*
X12069101Y-96732471D01*
X11921142Y-96793758D01*
X11764075Y-96825000D01*
X11603925Y-96825000D01*
X11446858Y-96793758D01*
X11298899Y-96732471D01*
X11165745Y-96643501D01*
X11052499Y-96530255D01*
X10963529Y-96397101D01*
X10902242Y-96249142D01*
X10871000Y-96092075D01*
X10871000Y-95931925D01*
X10902242Y-95774858D01*
X10963529Y-95626899D01*
X11052499Y-95493745D01*
X11165745Y-95380499D01*
X11298899Y-95291529D01*
X11446858Y-95230242D01*
X11603925Y-95199000D01*
X11764075Y-95199000D01*
X11921142Y-95230242D01*
G37*
G36*
X21714071Y-91329063D02*
G01*
X21910300Y-91388589D01*
X22091146Y-91485253D01*
X22132437Y-91519140D01*
X22249660Y-91615340D01*
X22379748Y-91773855D01*
X22476410Y-91954697D01*
X22476411Y-91954699D01*
X22535937Y-92150928D01*
X22551000Y-92303868D01*
X22551000Y-94386132D01*
X22535937Y-94539072D01*
X22476411Y-94735301D01*
X22476410Y-94735303D01*
X22379748Y-94916145D01*
X22249660Y-95074660D01*
X22091145Y-95204748D01*
X22043447Y-95230243D01*
X21910301Y-95301411D01*
X21714072Y-95360937D01*
X21510000Y-95381036D01*
X21305929Y-95360937D01*
X21109700Y-95301411D01*
X20976554Y-95230243D01*
X20928856Y-95204748D01*
X20770341Y-95074660D01*
X20640253Y-94916145D01*
X20543591Y-94735303D01*
X20543590Y-94735301D01*
X20484064Y-94539072D01*
X20469001Y-94386132D01*
X20469000Y-92303869D01*
X20484063Y-92150929D01*
X20543589Y-91954700D01*
X20640253Y-91773854D01*
X20689573Y-91713757D01*
X20770340Y-91615340D01*
X20928855Y-91485252D01*
X21109697Y-91388590D01*
X21109699Y-91388589D01*
X21305928Y-91329063D01*
X21510000Y-91308964D01*
X21714071Y-91329063D01*
G37*
G36*
X62354071Y-91329063D02*
G01*
X62550300Y-91388589D01*
X62731146Y-91485253D01*
X62772437Y-91519140D01*
X62889660Y-91615340D01*
X63019748Y-91773855D01*
X63116410Y-91954697D01*
X63116411Y-91954699D01*
X63175937Y-92150928D01*
X63191000Y-92303868D01*
X63191000Y-94386132D01*
X63175937Y-94539072D01*
X63116411Y-94735301D01*
X63116410Y-94735303D01*
X63019748Y-94916145D01*
X62889660Y-95074660D01*
X62731145Y-95204748D01*
X62683447Y-95230243D01*
X62550301Y-95301411D01*
X62354072Y-95360937D01*
X62150000Y-95381036D01*
X61945929Y-95360937D01*
X61749700Y-95301411D01*
X61616554Y-95230243D01*
X61568856Y-95204748D01*
X61410341Y-95074660D01*
X61280253Y-94916145D01*
X61183591Y-94735303D01*
X61183590Y-94735301D01*
X61124064Y-94539072D01*
X61109001Y-94386132D01*
X61109000Y-92303869D01*
X61124063Y-92150929D01*
X61183589Y-91954700D01*
X61280253Y-91773854D01*
X61329573Y-91713757D01*
X61410340Y-91615340D01*
X61568855Y-91485252D01*
X61749697Y-91388590D01*
X61749699Y-91388589D01*
X61945928Y-91329063D01*
X62150000Y-91308964D01*
X62354071Y-91329063D01*
G37*
G36*
X52194071Y-91329063D02*
G01*
X52390300Y-91388589D01*
X52571146Y-91485253D01*
X52612437Y-91519140D01*
X52729660Y-91615340D01*
X52859748Y-91773855D01*
X52956410Y-91954697D01*
X52956411Y-91954699D01*
X53015937Y-92150928D01*
X53031000Y-92303868D01*
X53031000Y-94386132D01*
X53015937Y-94539072D01*
X52956411Y-94735301D01*
X52956410Y-94735303D01*
X52859748Y-94916145D01*
X52729660Y-95074660D01*
X52571145Y-95204748D01*
X52523447Y-95230243D01*
X52390301Y-95301411D01*
X52194072Y-95360937D01*
X51990000Y-95381036D01*
X51785929Y-95360937D01*
X51589700Y-95301411D01*
X51456554Y-95230243D01*
X51408856Y-95204748D01*
X51250341Y-95074660D01*
X51120253Y-94916145D01*
X51023591Y-94735303D01*
X51023590Y-94735301D01*
X50964064Y-94539072D01*
X50949001Y-94386132D01*
X50949000Y-92303869D01*
X50964063Y-92150929D01*
X51023589Y-91954700D01*
X51120253Y-91773854D01*
X51169573Y-91713757D01*
X51250340Y-91615340D01*
X51408855Y-91485252D01*
X51589697Y-91388590D01*
X51589699Y-91388589D01*
X51785928Y-91329063D01*
X51990000Y-91308964D01*
X52194071Y-91329063D01*
G37*
G36*
X31874071Y-91329063D02*
G01*
X32070300Y-91388589D01*
X32251146Y-91485253D01*
X32292437Y-91519140D01*
X32409660Y-91615340D01*
X32539748Y-91773855D01*
X32636410Y-91954697D01*
X32636411Y-91954699D01*
X32695937Y-92150928D01*
X32711000Y-92303868D01*
X32711000Y-94386132D01*
X32695937Y-94539072D01*
X32636411Y-94735301D01*
X32636410Y-94735303D01*
X32539748Y-94916145D01*
X32409660Y-95074660D01*
X32251145Y-95204748D01*
X32203447Y-95230243D01*
X32070301Y-95301411D01*
X31874072Y-95360937D01*
X31670000Y-95381036D01*
X31465929Y-95360937D01*
X31269700Y-95301411D01*
X31136554Y-95230243D01*
X31088856Y-95204748D01*
X30930341Y-95074660D01*
X30800253Y-94916145D01*
X30703591Y-94735303D01*
X30703590Y-94735301D01*
X30644064Y-94539072D01*
X30629001Y-94386132D01*
X30629000Y-92303869D01*
X30644063Y-92150929D01*
X30703589Y-91954700D01*
X30800253Y-91773854D01*
X30849573Y-91713757D01*
X30930340Y-91615340D01*
X31088855Y-91485252D01*
X31269697Y-91388590D01*
X31269699Y-91388589D01*
X31465928Y-91329063D01*
X31670000Y-91308964D01*
X31874071Y-91329063D01*
G37*
G36*
X42034071Y-91329063D02*
G01*
X42230300Y-91388589D01*
X42411146Y-91485253D01*
X42452437Y-91519140D01*
X42569660Y-91615340D01*
X42699748Y-91773855D01*
X42796410Y-91954697D01*
X42796411Y-91954699D01*
X42855937Y-92150928D01*
X42871000Y-92303868D01*
X42871000Y-94386132D01*
X42855937Y-94539072D01*
X42796411Y-94735301D01*
X42796410Y-94735303D01*
X42699748Y-94916145D01*
X42569660Y-95074660D01*
X42411145Y-95204748D01*
X42363447Y-95230243D01*
X42230301Y-95301411D01*
X42034072Y-95360937D01*
X41830000Y-95381036D01*
X41625929Y-95360937D01*
X41429700Y-95301411D01*
X41296554Y-95230243D01*
X41248856Y-95204748D01*
X41090341Y-95074660D01*
X40960253Y-94916145D01*
X40863591Y-94735303D01*
X40863590Y-94735301D01*
X40804064Y-94539072D01*
X40789001Y-94386132D01*
X40789000Y-92303869D01*
X40804063Y-92150929D01*
X40863589Y-91954700D01*
X40960253Y-91773854D01*
X41009573Y-91713757D01*
X41090340Y-91615340D01*
X41248855Y-91485252D01*
X41429697Y-91388590D01*
X41429699Y-91388589D01*
X41625928Y-91329063D01*
X41830000Y-91308964D01*
X42034071Y-91329063D01*
G37*
G36*
X27711000Y-95376000D02*
G01*
X25629000Y-95376000D01*
X25629000Y-91314000D01*
X27711000Y-91314000D01*
X27711000Y-95376000D01*
G37*
G36*
X17551000Y-95376000D02*
G01*
X15469000Y-95376000D01*
X15469000Y-91314000D01*
X17551000Y-91314000D01*
X17551000Y-95376000D01*
G37*
G36*
X37871000Y-95376000D02*
G01*
X35789000Y-95376000D01*
X35789000Y-91314000D01*
X37871000Y-91314000D01*
X37871000Y-95376000D01*
G37*
G36*
X48031000Y-95376000D02*
G01*
X45949000Y-95376000D01*
X45949000Y-91314000D01*
X48031000Y-91314000D01*
X48031000Y-95376000D01*
G37*
G36*
X58191000Y-95376000D02*
G01*
X56109000Y-95376000D01*
X56109000Y-91314000D01*
X58191000Y-91314000D01*
X58191000Y-95376000D01*
G37*
G36*
X11921142Y-92690242D02*
G01*
X12069101Y-92751529D01*
X12202255Y-92840499D01*
X12315501Y-92953745D01*
X12404471Y-93086899D01*
X12465758Y-93234858D01*
X12497000Y-93391925D01*
X12497000Y-93552075D01*
X12465758Y-93709142D01*
X12404471Y-93857101D01*
X12315501Y-93990255D01*
X12202255Y-94103501D01*
X12069101Y-94192471D01*
X11921142Y-94253758D01*
X11764075Y-94285000D01*
X11603925Y-94285000D01*
X11446858Y-94253758D01*
X11298899Y-94192471D01*
X11165745Y-94103501D01*
X11052499Y-93990255D01*
X10963529Y-93857101D01*
X10902242Y-93709142D01*
X10871000Y-93552075D01*
X10871000Y-93391925D01*
X10902242Y-93234858D01*
X10963529Y-93086899D01*
X11052499Y-92953745D01*
X11165745Y-92840499D01*
X11298899Y-92751529D01*
X11446858Y-92690242D01*
X11603925Y-92659000D01*
X11764075Y-92659000D01*
X11921142Y-92690242D01*
G37*
G36*
X11921142Y-90150242D02*
G01*
X12069101Y-90211529D01*
X12202255Y-90300499D01*
X12315501Y-90413745D01*
X12404471Y-90546899D01*
X12465758Y-90694858D01*
X12497000Y-90851925D01*
X12497000Y-91012075D01*
X12465758Y-91169142D01*
X12404471Y-91317101D01*
X12315501Y-91450255D01*
X12202255Y-91563501D01*
X12069101Y-91652471D01*
X11921142Y-91713758D01*
X11764075Y-91745000D01*
X11603925Y-91745000D01*
X11446858Y-91713758D01*
X11298899Y-91652471D01*
X11165745Y-91563501D01*
X11052499Y-91450255D01*
X10963529Y-91317101D01*
X10902242Y-91169142D01*
X10871000Y-91012075D01*
X10871000Y-90851925D01*
X10902242Y-90694858D01*
X10963529Y-90546899D01*
X11052499Y-90413745D01*
X11165745Y-90300499D01*
X11298899Y-90211529D01*
X11446858Y-90150242D01*
X11603925Y-90119000D01*
X11764075Y-90119000D01*
X11921142Y-90150242D01*
G37*
G36*
X4480000Y-85887000D02*
G01*
X854000Y-85887000D01*
X854000Y-82261000D01*
X4480000Y-82261000D01*
X4480000Y-85887000D01*
G37*
G36*
X44104000Y-85887000D02*
G01*
X40478000Y-85887000D01*
X40478000Y-82261000D01*
X44104000Y-82261000D01*
X44104000Y-85887000D01*
G37*
G36*
X77718228Y-83636703D02*
G01*
X77873100Y-83700853D01*
X78012481Y-83793985D01*
X78131015Y-83912519D01*
X78224147Y-84051900D01*
X78288297Y-84206772D01*
X78321000Y-84371184D01*
X78321000Y-84538816D01*
X78288297Y-84703228D01*
X78224147Y-84858100D01*
X78131015Y-84997481D01*
X78012481Y-85116015D01*
X77873100Y-85209147D01*
X77718228Y-85273297D01*
X77553816Y-85306000D01*
X77386184Y-85306000D01*
X77221772Y-85273297D01*
X77066900Y-85209147D01*
X76927519Y-85116015D01*
X76808985Y-84997481D01*
X76715853Y-84858100D01*
X76651703Y-84703228D01*
X76619000Y-84538816D01*
X76619000Y-84371184D01*
X76651703Y-84206772D01*
X76715853Y-84051900D01*
X76808985Y-83912519D01*
X76927519Y-83793985D01*
X77066900Y-83700853D01*
X77221772Y-83636703D01*
X77386184Y-83604000D01*
X77553816Y-83604000D01*
X77718228Y-83636703D01*
G37*
G36*
X56128228Y-83636703D02*
G01*
X56283100Y-83700853D01*
X56422481Y-83793985D01*
X56541015Y-83912519D01*
X56634147Y-84051900D01*
X56698297Y-84206772D01*
X56731000Y-84371184D01*
X56731000Y-84538816D01*
X56698297Y-84703228D01*
X56634147Y-84858100D01*
X56541015Y-84997481D01*
X56422481Y-85116015D01*
X56283100Y-85209147D01*
X56128228Y-85273297D01*
X55963816Y-85306000D01*
X55796184Y-85306000D01*
X55631772Y-85273297D01*
X55476900Y-85209147D01*
X55337519Y-85116015D01*
X55218985Y-84997481D01*
X55125853Y-84858100D01*
X55061703Y-84703228D01*
X55029000Y-84538816D01*
X55029000Y-84371184D01*
X55061703Y-84206772D01*
X55125853Y-84051900D01*
X55218985Y-83912519D01*
X55337519Y-83793985D01*
X55476900Y-83700853D01*
X55631772Y-83636703D01*
X55796184Y-83604000D01*
X55963816Y-83604000D01*
X56128228Y-83636703D01*
G37*
G36*
X70098228Y-83636703D02*
G01*
X70253100Y-83700853D01*
X70392481Y-83793985D01*
X70511015Y-83912519D01*
X70604147Y-84051900D01*
X70668297Y-84206772D01*
X70701000Y-84371184D01*
X70701000Y-84538816D01*
X70668297Y-84703228D01*
X70604147Y-84858100D01*
X70511015Y-84997481D01*
X70392481Y-85116015D01*
X70253100Y-85209147D01*
X70098228Y-85273297D01*
X69933816Y-85306000D01*
X69766184Y-85306000D01*
X69601772Y-85273297D01*
X69446900Y-85209147D01*
X69307519Y-85116015D01*
X69188985Y-84997481D01*
X69095853Y-84858100D01*
X69031703Y-84703228D01*
X68999000Y-84538816D01*
X68999000Y-84371184D01*
X69031703Y-84206772D01*
X69095853Y-84051900D01*
X69188985Y-83912519D01*
X69307519Y-83793985D01*
X69446900Y-83700853D01*
X69601772Y-83636703D01*
X69766184Y-83604000D01*
X69933816Y-83604000D01*
X70098228Y-83636703D01*
G37*
G36*
X48508228Y-83636703D02*
G01*
X48663100Y-83700853D01*
X48802481Y-83793985D01*
X48921015Y-83912519D01*
X49014147Y-84051900D01*
X49078297Y-84206772D01*
X49111000Y-84371184D01*
X49111000Y-84538816D01*
X49078297Y-84703228D01*
X49014147Y-84858100D01*
X48921015Y-84997481D01*
X48802481Y-85116015D01*
X48663100Y-85209147D01*
X48508228Y-85273297D01*
X48343816Y-85306000D01*
X48176184Y-85306000D01*
X48011772Y-85273297D01*
X47856900Y-85209147D01*
X47717519Y-85116015D01*
X47598985Y-84997481D01*
X47505853Y-84858100D01*
X47441703Y-84703228D01*
X47409000Y-84538816D01*
X47409000Y-84371184D01*
X47441703Y-84206772D01*
X47505853Y-84051900D01*
X47598985Y-83912519D01*
X47717519Y-83793985D01*
X47856900Y-83700853D01*
X48011772Y-83636703D01*
X48176184Y-83604000D01*
X48343816Y-83604000D01*
X48508228Y-83636703D01*
G37*
G36*
X70098228Y-81096703D02*
G01*
X70253100Y-81160853D01*
X70392481Y-81253985D01*
X70511015Y-81372519D01*
X70604147Y-81511900D01*
X70668297Y-81666772D01*
X70701000Y-81831184D01*
X70701000Y-81998816D01*
X70668297Y-82163228D01*
X70604147Y-82318100D01*
X70511015Y-82457481D01*
X70392481Y-82576015D01*
X70253100Y-82669147D01*
X70098228Y-82733297D01*
X69933816Y-82766000D01*
X69766184Y-82766000D01*
X69601772Y-82733297D01*
X69446900Y-82669147D01*
X69307519Y-82576015D01*
X69188985Y-82457481D01*
X69095853Y-82318100D01*
X69031703Y-82163228D01*
X68999000Y-81998816D01*
X68999000Y-81831184D01*
X69031703Y-81666772D01*
X69095853Y-81511900D01*
X69188985Y-81372519D01*
X69307519Y-81253985D01*
X69446900Y-81160853D01*
X69601772Y-81096703D01*
X69766184Y-81064000D01*
X69933816Y-81064000D01*
X70098228Y-81096703D01*
G37*
G36*
X48508228Y-81096703D02*
G01*
X48663100Y-81160853D01*
X48802481Y-81253985D01*
X48921015Y-81372519D01*
X49014147Y-81511900D01*
X49078297Y-81666772D01*
X49111000Y-81831184D01*
X49111000Y-81998816D01*
X49078297Y-82163228D01*
X49014147Y-82318100D01*
X48921015Y-82457481D01*
X48802481Y-82576015D01*
X48663100Y-82669147D01*
X48508228Y-82733297D01*
X48343816Y-82766000D01*
X48176184Y-82766000D01*
X48011772Y-82733297D01*
X47856900Y-82669147D01*
X47717519Y-82576015D01*
X47598985Y-82457481D01*
X47505853Y-82318100D01*
X47441703Y-82163228D01*
X47409000Y-81998816D01*
X47409000Y-81831184D01*
X47441703Y-81666772D01*
X47505853Y-81511900D01*
X47598985Y-81372519D01*
X47717519Y-81253985D01*
X47856900Y-81160853D01*
X48011772Y-81096703D01*
X48176184Y-81064000D01*
X48343816Y-81064000D01*
X48508228Y-81096703D01*
G37*
G36*
X56128228Y-81096703D02*
G01*
X56283100Y-81160853D01*
X56422481Y-81253985D01*
X56541015Y-81372519D01*
X56634147Y-81511900D01*
X56698297Y-81666772D01*
X56731000Y-81831184D01*
X56731000Y-81998816D01*
X56698297Y-82163228D01*
X56634147Y-82318100D01*
X56541015Y-82457481D01*
X56422481Y-82576015D01*
X56283100Y-82669147D01*
X56128228Y-82733297D01*
X55963816Y-82766000D01*
X55796184Y-82766000D01*
X55631772Y-82733297D01*
X55476900Y-82669147D01*
X55337519Y-82576015D01*
X55218985Y-82457481D01*
X55125853Y-82318100D01*
X55061703Y-82163228D01*
X55029000Y-81998816D01*
X55029000Y-81831184D01*
X55061703Y-81666772D01*
X55125853Y-81511900D01*
X55218985Y-81372519D01*
X55337519Y-81253985D01*
X55476900Y-81160853D01*
X55631772Y-81096703D01*
X55796184Y-81064000D01*
X55963816Y-81064000D01*
X56128228Y-81096703D01*
G37*
G36*
X77718228Y-81096703D02*
G01*
X77873100Y-81160853D01*
X78012481Y-81253985D01*
X78131015Y-81372519D01*
X78224147Y-81511900D01*
X78288297Y-81666772D01*
X78321000Y-81831184D01*
X78321000Y-81998816D01*
X78288297Y-82163228D01*
X78224147Y-82318100D01*
X78131015Y-82457481D01*
X78012481Y-82576015D01*
X77873100Y-82669147D01*
X77718228Y-82733297D01*
X77553816Y-82766000D01*
X77386184Y-82766000D01*
X77221772Y-82733297D01*
X77066900Y-82669147D01*
X76927519Y-82576015D01*
X76808985Y-82457481D01*
X76715853Y-82318100D01*
X76651703Y-82163228D01*
X76619000Y-81998816D01*
X76619000Y-81831184D01*
X76651703Y-81666772D01*
X76715853Y-81511900D01*
X76808985Y-81372519D01*
X76927519Y-81253985D01*
X77066900Y-81160853D01*
X77221772Y-81096703D01*
X77386184Y-81064000D01*
X77553816Y-81064000D01*
X77718228Y-81096703D01*
G37*
G36*
X70098228Y-78556703D02*
G01*
X70253100Y-78620853D01*
X70392481Y-78713985D01*
X70511015Y-78832519D01*
X70604147Y-78971900D01*
X70668297Y-79126772D01*
X70701000Y-79291184D01*
X70701000Y-79458816D01*
X70668297Y-79623228D01*
X70604147Y-79778100D01*
X70511015Y-79917481D01*
X70392481Y-80036015D01*
X70253100Y-80129147D01*
X70098228Y-80193297D01*
X69933816Y-80226000D01*
X69766184Y-80226000D01*
X69601772Y-80193297D01*
X69446900Y-80129147D01*
X69307519Y-80036015D01*
X69188985Y-79917481D01*
X69095853Y-79778100D01*
X69031703Y-79623228D01*
X68999000Y-79458816D01*
X68999000Y-79291184D01*
X69031703Y-79126772D01*
X69095853Y-78971900D01*
X69188985Y-78832519D01*
X69307519Y-78713985D01*
X69446900Y-78620853D01*
X69601772Y-78556703D01*
X69766184Y-78524000D01*
X69933816Y-78524000D01*
X70098228Y-78556703D01*
G37*
G36*
X77718228Y-78556703D02*
G01*
X77873100Y-78620853D01*
X78012481Y-78713985D01*
X78131015Y-78832519D01*
X78224147Y-78971900D01*
X78288297Y-79126772D01*
X78321000Y-79291184D01*
X78321000Y-79458816D01*
X78288297Y-79623228D01*
X78224147Y-79778100D01*
X78131015Y-79917481D01*
X78012481Y-80036015D01*
X77873100Y-80129147D01*
X77718228Y-80193297D01*
X77553816Y-80226000D01*
X77386184Y-80226000D01*
X77221772Y-80193297D01*
X77066900Y-80129147D01*
X76927519Y-80036015D01*
X76808985Y-79917481D01*
X76715853Y-79778100D01*
X76651703Y-79623228D01*
X76619000Y-79458816D01*
X76619000Y-79291184D01*
X76651703Y-79126772D01*
X76715853Y-78971900D01*
X76808985Y-78832519D01*
X76927519Y-78713985D01*
X77066900Y-78620853D01*
X77221772Y-78556703D01*
X77386184Y-78524000D01*
X77553816Y-78524000D01*
X77718228Y-78556703D01*
G37*
G36*
X56128228Y-78556703D02*
G01*
X56283100Y-78620853D01*
X56422481Y-78713985D01*
X56541015Y-78832519D01*
X56634147Y-78971900D01*
X56698297Y-79126772D01*
X56731000Y-79291184D01*
X56731000Y-79458816D01*
X56698297Y-79623228D01*
X56634147Y-79778100D01*
X56541015Y-79917481D01*
X56422481Y-80036015D01*
X56283100Y-80129147D01*
X56128228Y-80193297D01*
X55963816Y-80226000D01*
X55796184Y-80226000D01*
X55631772Y-80193297D01*
X55476900Y-80129147D01*
X55337519Y-80036015D01*
X55218985Y-79917481D01*
X55125853Y-79778100D01*
X55061703Y-79623228D01*
X55029000Y-79458816D01*
X55029000Y-79291184D01*
X55061703Y-79126772D01*
X55125853Y-78971900D01*
X55218985Y-78832519D01*
X55337519Y-78713985D01*
X55476900Y-78620853D01*
X55631772Y-78556703D01*
X55796184Y-78524000D01*
X55963816Y-78524000D01*
X56128228Y-78556703D01*
G37*
G36*
X48508228Y-78556703D02*
G01*
X48663100Y-78620853D01*
X48802481Y-78713985D01*
X48921015Y-78832519D01*
X49014147Y-78971900D01*
X49078297Y-79126772D01*
X49111000Y-79291184D01*
X49111000Y-79458816D01*
X49078297Y-79623228D01*
X49014147Y-79778100D01*
X48921015Y-79917481D01*
X48802481Y-80036015D01*
X48663100Y-80129147D01*
X48508228Y-80193297D01*
X48343816Y-80226000D01*
X48176184Y-80226000D01*
X48011772Y-80193297D01*
X47856900Y-80129147D01*
X47717519Y-80036015D01*
X47598985Y-79917481D01*
X47505853Y-79778100D01*
X47441703Y-79623228D01*
X47409000Y-79458816D01*
X47409000Y-79291184D01*
X47441703Y-79126772D01*
X47505853Y-78971900D01*
X47598985Y-78832519D01*
X47717519Y-78713985D01*
X47856900Y-78620853D01*
X48011772Y-78556703D01*
X48176184Y-78524000D01*
X48343816Y-78524000D01*
X48508228Y-78556703D01*
G37*
G36*
X77718228Y-76016703D02*
G01*
X77873100Y-76080853D01*
X78012481Y-76173985D01*
X78131015Y-76292519D01*
X78224147Y-76431900D01*
X78288297Y-76586772D01*
X78321000Y-76751184D01*
X78321000Y-76918816D01*
X78288297Y-77083228D01*
X78224147Y-77238100D01*
X78131015Y-77377481D01*
X78012481Y-77496015D01*
X77873100Y-77589147D01*
X77718228Y-77653297D01*
X77553816Y-77686000D01*
X77386184Y-77686000D01*
X77221772Y-77653297D01*
X77066900Y-77589147D01*
X76927519Y-77496015D01*
X76808985Y-77377481D01*
X76715853Y-77238100D01*
X76651703Y-77083228D01*
X76619000Y-76918816D01*
X76619000Y-76751184D01*
X76651703Y-76586772D01*
X76715853Y-76431900D01*
X76808985Y-76292519D01*
X76927519Y-76173985D01*
X77066900Y-76080853D01*
X77221772Y-76016703D01*
X77386184Y-75984000D01*
X77553816Y-75984000D01*
X77718228Y-76016703D01*
G37*
G36*
X70098228Y-76016703D02*
G01*
X70253100Y-76080853D01*
X70392481Y-76173985D01*
X70511015Y-76292519D01*
X70604147Y-76431900D01*
X70668297Y-76586772D01*
X70701000Y-76751184D01*
X70701000Y-76918816D01*
X70668297Y-77083228D01*
X70604147Y-77238100D01*
X70511015Y-77377481D01*
X70392481Y-77496015D01*
X70253100Y-77589147D01*
X70098228Y-77653297D01*
X69933816Y-77686000D01*
X69766184Y-77686000D01*
X69601772Y-77653297D01*
X69446900Y-77589147D01*
X69307519Y-77496015D01*
X69188985Y-77377481D01*
X69095853Y-77238100D01*
X69031703Y-77083228D01*
X68999000Y-76918816D01*
X68999000Y-76751184D01*
X69031703Y-76586772D01*
X69095853Y-76431900D01*
X69188985Y-76292519D01*
X69307519Y-76173985D01*
X69446900Y-76080853D01*
X69601772Y-76016703D01*
X69766184Y-75984000D01*
X69933816Y-75984000D01*
X70098228Y-76016703D01*
G37*
G36*
X56128228Y-76016703D02*
G01*
X56283100Y-76080853D01*
X56422481Y-76173985D01*
X56541015Y-76292519D01*
X56634147Y-76431900D01*
X56698297Y-76586772D01*
X56731000Y-76751184D01*
X56731000Y-76918816D01*
X56698297Y-77083228D01*
X56634147Y-77238100D01*
X56541015Y-77377481D01*
X56422481Y-77496015D01*
X56283100Y-77589147D01*
X56128228Y-77653297D01*
X55963816Y-77686000D01*
X55796184Y-77686000D01*
X55631772Y-77653297D01*
X55476900Y-77589147D01*
X55337519Y-77496015D01*
X55218985Y-77377481D01*
X55125853Y-77238100D01*
X55061703Y-77083228D01*
X55029000Y-76918816D01*
X55029000Y-76751184D01*
X55061703Y-76586772D01*
X55125853Y-76431900D01*
X55218985Y-76292519D01*
X55337519Y-76173985D01*
X55476900Y-76080853D01*
X55631772Y-76016703D01*
X55796184Y-75984000D01*
X55963816Y-75984000D01*
X56128228Y-76016703D01*
G37*
G36*
X48508228Y-76016703D02*
G01*
X48663100Y-76080853D01*
X48802481Y-76173985D01*
X48921015Y-76292519D01*
X49014147Y-76431900D01*
X49078297Y-76586772D01*
X49111000Y-76751184D01*
X49111000Y-76918816D01*
X49078297Y-77083228D01*
X49014147Y-77238100D01*
X48921015Y-77377481D01*
X48802481Y-77496015D01*
X48663100Y-77589147D01*
X48508228Y-77653297D01*
X48343816Y-77686000D01*
X48176184Y-77686000D01*
X48011772Y-77653297D01*
X47856900Y-77589147D01*
X47717519Y-77496015D01*
X47598985Y-77377481D01*
X47505853Y-77238100D01*
X47441703Y-77083228D01*
X47409000Y-76918816D01*
X47409000Y-76751184D01*
X47441703Y-76586772D01*
X47505853Y-76431900D01*
X47598985Y-76292519D01*
X47717519Y-76173985D01*
X47856900Y-76080853D01*
X48011772Y-76016703D01*
X48176184Y-75984000D01*
X48343816Y-75984000D01*
X48508228Y-76016703D01*
G37*
G36*
X48508228Y-73476703D02*
G01*
X48663100Y-73540853D01*
X48802481Y-73633985D01*
X48921015Y-73752519D01*
X49014147Y-73891900D01*
X49078297Y-74046772D01*
X49111000Y-74211184D01*
X49111000Y-74378816D01*
X49078297Y-74543228D01*
X49014147Y-74698100D01*
X48921015Y-74837481D01*
X48802481Y-74956015D01*
X48663100Y-75049147D01*
X48508228Y-75113297D01*
X48343816Y-75146000D01*
X48176184Y-75146000D01*
X48011772Y-75113297D01*
X47856900Y-75049147D01*
X47717519Y-74956015D01*
X47598985Y-74837481D01*
X47505853Y-74698100D01*
X47441703Y-74543228D01*
X47409000Y-74378816D01*
X47409000Y-74211184D01*
X47441703Y-74046772D01*
X47505853Y-73891900D01*
X47598985Y-73752519D01*
X47717519Y-73633985D01*
X47856900Y-73540853D01*
X48011772Y-73476703D01*
X48176184Y-73444000D01*
X48343816Y-73444000D01*
X48508228Y-73476703D01*
G37*
G36*
X56128228Y-73476703D02*
G01*
X56283100Y-73540853D01*
X56422481Y-73633985D01*
X56541015Y-73752519D01*
X56634147Y-73891900D01*
X56698297Y-74046772D01*
X56731000Y-74211184D01*
X56731000Y-74378816D01*
X56698297Y-74543228D01*
X56634147Y-74698100D01*
X56541015Y-74837481D01*
X56422481Y-74956015D01*
X56283100Y-75049147D01*
X56128228Y-75113297D01*
X55963816Y-75146000D01*
X55796184Y-75146000D01*
X55631772Y-75113297D01*
X55476900Y-75049147D01*
X55337519Y-74956015D01*
X55218985Y-74837481D01*
X55125853Y-74698100D01*
X55061703Y-74543228D01*
X55029000Y-74378816D01*
X55029000Y-74211184D01*
X55061703Y-74046772D01*
X55125853Y-73891900D01*
X55218985Y-73752519D01*
X55337519Y-73633985D01*
X55476900Y-73540853D01*
X55631772Y-73476703D01*
X55796184Y-73444000D01*
X55963816Y-73444000D01*
X56128228Y-73476703D01*
G37*
G36*
X70098228Y-73476703D02*
G01*
X70253100Y-73540853D01*
X70392481Y-73633985D01*
X70511015Y-73752519D01*
X70604147Y-73891900D01*
X70668297Y-74046772D01*
X70701000Y-74211184D01*
X70701000Y-74378816D01*
X70668297Y-74543228D01*
X70604147Y-74698100D01*
X70511015Y-74837481D01*
X70392481Y-74956015D01*
X70253100Y-75049147D01*
X70098228Y-75113297D01*
X69933816Y-75146000D01*
X69766184Y-75146000D01*
X69601772Y-75113297D01*
X69446900Y-75049147D01*
X69307519Y-74956015D01*
X69188985Y-74837481D01*
X69095853Y-74698100D01*
X69031703Y-74543228D01*
X68999000Y-74378816D01*
X68999000Y-74211184D01*
X69031703Y-74046772D01*
X69095853Y-73891900D01*
X69188985Y-73752519D01*
X69307519Y-73633985D01*
X69446900Y-73540853D01*
X69601772Y-73476703D01*
X69766184Y-73444000D01*
X69933816Y-73444000D01*
X70098228Y-73476703D01*
G37*
G36*
X77718228Y-73476703D02*
G01*
X77873100Y-73540853D01*
X78012481Y-73633985D01*
X78131015Y-73752519D01*
X78224147Y-73891900D01*
X78288297Y-74046772D01*
X78321000Y-74211184D01*
X78321000Y-74378816D01*
X78288297Y-74543228D01*
X78224147Y-74698100D01*
X78131015Y-74837481D01*
X78012481Y-74956015D01*
X77873100Y-75049147D01*
X77718228Y-75113297D01*
X77553816Y-75146000D01*
X77386184Y-75146000D01*
X77221772Y-75113297D01*
X77066900Y-75049147D01*
X76927519Y-74956015D01*
X76808985Y-74837481D01*
X76715853Y-74698100D01*
X76651703Y-74543228D01*
X76619000Y-74378816D01*
X76619000Y-74211184D01*
X76651703Y-74046772D01*
X76715853Y-73891900D01*
X76808985Y-73752519D01*
X76927519Y-73633985D01*
X77066900Y-73540853D01*
X77221772Y-73476703D01*
X77386184Y-73444000D01*
X77553816Y-73444000D01*
X77718228Y-73476703D01*
G37*
G36*
X48508228Y-70936703D02*
G01*
X48663100Y-71000853D01*
X48802481Y-71093985D01*
X48921015Y-71212519D01*
X49014147Y-71351900D01*
X49078297Y-71506772D01*
X49111000Y-71671184D01*
X49111000Y-71838816D01*
X49078297Y-72003228D01*
X49014147Y-72158100D01*
X48921015Y-72297481D01*
X48802481Y-72416015D01*
X48663100Y-72509147D01*
X48508228Y-72573297D01*
X48343816Y-72606000D01*
X48176184Y-72606000D01*
X48011772Y-72573297D01*
X47856900Y-72509147D01*
X47717519Y-72416015D01*
X47598985Y-72297481D01*
X47505853Y-72158100D01*
X47441703Y-72003228D01*
X47409000Y-71838816D01*
X47409000Y-71671184D01*
X47441703Y-71506772D01*
X47505853Y-71351900D01*
X47598985Y-71212519D01*
X47717519Y-71093985D01*
X47856900Y-71000853D01*
X48011772Y-70936703D01*
X48176184Y-70904000D01*
X48343816Y-70904000D01*
X48508228Y-70936703D01*
G37*
G36*
X70098228Y-70936703D02*
G01*
X70253100Y-71000853D01*
X70392481Y-71093985D01*
X70511015Y-71212519D01*
X70604147Y-71351900D01*
X70668297Y-71506772D01*
X70701000Y-71671184D01*
X70701000Y-71838816D01*
X70668297Y-72003228D01*
X70604147Y-72158100D01*
X70511015Y-72297481D01*
X70392481Y-72416015D01*
X70253100Y-72509147D01*
X70098228Y-72573297D01*
X69933816Y-72606000D01*
X69766184Y-72606000D01*
X69601772Y-72573297D01*
X69446900Y-72509147D01*
X69307519Y-72416015D01*
X69188985Y-72297481D01*
X69095853Y-72158100D01*
X69031703Y-72003228D01*
X68999000Y-71838816D01*
X68999000Y-71671184D01*
X69031703Y-71506772D01*
X69095853Y-71351900D01*
X69188985Y-71212519D01*
X69307519Y-71093985D01*
X69446900Y-71000853D01*
X69601772Y-70936703D01*
X69766184Y-70904000D01*
X69933816Y-70904000D01*
X70098228Y-70936703D01*
G37*
G36*
X77718228Y-70936703D02*
G01*
X77873100Y-71000853D01*
X78012481Y-71093985D01*
X78131015Y-71212519D01*
X78224147Y-71351900D01*
X78288297Y-71506772D01*
X78321000Y-71671184D01*
X78321000Y-71838816D01*
X78288297Y-72003228D01*
X78224147Y-72158100D01*
X78131015Y-72297481D01*
X78012481Y-72416015D01*
X77873100Y-72509147D01*
X77718228Y-72573297D01*
X77553816Y-72606000D01*
X77386184Y-72606000D01*
X77221772Y-72573297D01*
X77066900Y-72509147D01*
X76927519Y-72416015D01*
X76808985Y-72297481D01*
X76715853Y-72158100D01*
X76651703Y-72003228D01*
X76619000Y-71838816D01*
X76619000Y-71671184D01*
X76651703Y-71506772D01*
X76715853Y-71351900D01*
X76808985Y-71212519D01*
X76927519Y-71093985D01*
X77066900Y-71000853D01*
X77221772Y-70936703D01*
X77386184Y-70904000D01*
X77553816Y-70904000D01*
X77718228Y-70936703D01*
G37*
G36*
X56128228Y-70936703D02*
G01*
X56283100Y-71000853D01*
X56422481Y-71093985D01*
X56541015Y-71212519D01*
X56634147Y-71351900D01*
X56698297Y-71506772D01*
X56731000Y-71671184D01*
X56731000Y-71838816D01*
X56698297Y-72003228D01*
X56634147Y-72158100D01*
X56541015Y-72297481D01*
X56422481Y-72416015D01*
X56283100Y-72509147D01*
X56128228Y-72573297D01*
X55963816Y-72606000D01*
X55796184Y-72606000D01*
X55631772Y-72573297D01*
X55476900Y-72509147D01*
X55337519Y-72416015D01*
X55218985Y-72297481D01*
X55125853Y-72158100D01*
X55061703Y-72003228D01*
X55029000Y-71838816D01*
X55029000Y-71671184D01*
X55061703Y-71506772D01*
X55125853Y-71351900D01*
X55218985Y-71212519D01*
X55337519Y-71093985D01*
X55476900Y-71000853D01*
X55631772Y-70936703D01*
X55796184Y-70904000D01*
X55963816Y-70904000D01*
X56128228Y-70936703D01*
G37*
G36*
X77718228Y-68396703D02*
G01*
X77873100Y-68460853D01*
X78012481Y-68553985D01*
X78131015Y-68672519D01*
X78224147Y-68811900D01*
X78288297Y-68966772D01*
X78321000Y-69131184D01*
X78321000Y-69298816D01*
X78288297Y-69463228D01*
X78224147Y-69618100D01*
X78131015Y-69757481D01*
X78012481Y-69876015D01*
X77873100Y-69969147D01*
X77718228Y-70033297D01*
X77553816Y-70066000D01*
X77386184Y-70066000D01*
X77221772Y-70033297D01*
X77066900Y-69969147D01*
X76927519Y-69876015D01*
X76808985Y-69757481D01*
X76715853Y-69618100D01*
X76651703Y-69463228D01*
X76619000Y-69298816D01*
X76619000Y-69131184D01*
X76651703Y-68966772D01*
X76715853Y-68811900D01*
X76808985Y-68672519D01*
X76927519Y-68553985D01*
X77066900Y-68460853D01*
X77221772Y-68396703D01*
X77386184Y-68364000D01*
X77553816Y-68364000D01*
X77718228Y-68396703D01*
G37*
G36*
X48508228Y-68396703D02*
G01*
X48663100Y-68460853D01*
X48802481Y-68553985D01*
X48921015Y-68672519D01*
X49014147Y-68811900D01*
X49078297Y-68966772D01*
X49111000Y-69131184D01*
X49111000Y-69298816D01*
X49078297Y-69463228D01*
X49014147Y-69618100D01*
X48921015Y-69757481D01*
X48802481Y-69876015D01*
X48663100Y-69969147D01*
X48508228Y-70033297D01*
X48343816Y-70066000D01*
X48176184Y-70066000D01*
X48011772Y-70033297D01*
X47856900Y-69969147D01*
X47717519Y-69876015D01*
X47598985Y-69757481D01*
X47505853Y-69618100D01*
X47441703Y-69463228D01*
X47409000Y-69298816D01*
X47409000Y-69131184D01*
X47441703Y-68966772D01*
X47505853Y-68811900D01*
X47598985Y-68672519D01*
X47717519Y-68553985D01*
X47856900Y-68460853D01*
X48011772Y-68396703D01*
X48176184Y-68364000D01*
X48343816Y-68364000D01*
X48508228Y-68396703D01*
G37*
G36*
X70098228Y-68396703D02*
G01*
X70253100Y-68460853D01*
X70392481Y-68553985D01*
X70511015Y-68672519D01*
X70604147Y-68811900D01*
X70668297Y-68966772D01*
X70701000Y-69131184D01*
X70701000Y-69298816D01*
X70668297Y-69463228D01*
X70604147Y-69618100D01*
X70511015Y-69757481D01*
X70392481Y-69876015D01*
X70253100Y-69969147D01*
X70098228Y-70033297D01*
X69933816Y-70066000D01*
X69766184Y-70066000D01*
X69601772Y-70033297D01*
X69446900Y-69969147D01*
X69307519Y-69876015D01*
X69188985Y-69757481D01*
X69095853Y-69618100D01*
X69031703Y-69463228D01*
X68999000Y-69298816D01*
X68999000Y-69131184D01*
X69031703Y-68966772D01*
X69095853Y-68811900D01*
X69188985Y-68672519D01*
X69307519Y-68553985D01*
X69446900Y-68460853D01*
X69601772Y-68396703D01*
X69766184Y-68364000D01*
X69933816Y-68364000D01*
X70098228Y-68396703D01*
G37*
G36*
X56128228Y-68396703D02*
G01*
X56283100Y-68460853D01*
X56422481Y-68553985D01*
X56541015Y-68672519D01*
X56634147Y-68811900D01*
X56698297Y-68966772D01*
X56731000Y-69131184D01*
X56731000Y-69298816D01*
X56698297Y-69463228D01*
X56634147Y-69618100D01*
X56541015Y-69757481D01*
X56422481Y-69876015D01*
X56283100Y-69969147D01*
X56128228Y-70033297D01*
X55963816Y-70066000D01*
X55796184Y-70066000D01*
X55631772Y-70033297D01*
X55476900Y-69969147D01*
X55337519Y-69876015D01*
X55218985Y-69757481D01*
X55125853Y-69618100D01*
X55061703Y-69463228D01*
X55029000Y-69298816D01*
X55029000Y-69131184D01*
X55061703Y-68966772D01*
X55125853Y-68811900D01*
X55218985Y-68672519D01*
X55337519Y-68553985D01*
X55476900Y-68460853D01*
X55631772Y-68396703D01*
X55796184Y-68364000D01*
X55963816Y-68364000D01*
X56128228Y-68396703D01*
G37*
G36*
X44104000Y-68869000D02*
G01*
X40478000Y-68869000D01*
X40478000Y-65243000D01*
X44104000Y-65243000D01*
X44104000Y-68869000D01*
G37*
G36*
X4480000Y-68869000D02*
G01*
X854000Y-68869000D01*
X854000Y-65243000D01*
X4480000Y-65243000D01*
X4480000Y-68869000D01*
G37*
G36*
X49111000Y-67526000D02*
G01*
X47409000Y-67526000D01*
X47409000Y-65824000D01*
X49111000Y-65824000D01*
X49111000Y-67526000D01*
G37*
G36*
X77718228Y-65856703D02*
G01*
X77873100Y-65920853D01*
X78012481Y-66013985D01*
X78131015Y-66132519D01*
X78224147Y-66271900D01*
X78288297Y-66426772D01*
X78321000Y-66591184D01*
X78321000Y-66758816D01*
X78288297Y-66923228D01*
X78224147Y-67078100D01*
X78131015Y-67217481D01*
X78012481Y-67336015D01*
X77873100Y-67429147D01*
X77718228Y-67493297D01*
X77553816Y-67526000D01*
X77386184Y-67526000D01*
X77221772Y-67493297D01*
X77066900Y-67429147D01*
X76927519Y-67336015D01*
X76808985Y-67217481D01*
X76715853Y-67078100D01*
X76651703Y-66923228D01*
X76619000Y-66758816D01*
X76619000Y-66591184D01*
X76651703Y-66426772D01*
X76715853Y-66271900D01*
X76808985Y-66132519D01*
X76927519Y-66013985D01*
X77066900Y-65920853D01*
X77221772Y-65856703D01*
X77386184Y-65824000D01*
X77553816Y-65824000D01*
X77718228Y-65856703D01*
G37*
G36*
X70701000Y-67526000D02*
G01*
X68999000Y-67526000D01*
X68999000Y-65824000D01*
X70701000Y-65824000D01*
X70701000Y-67526000D01*
G37*
G36*
X56128228Y-65856703D02*
G01*
X56283100Y-65920853D01*
X56422481Y-66013985D01*
X56541015Y-66132519D01*
X56634147Y-66271900D01*
X56698297Y-66426772D01*
X56731000Y-66591184D01*
X56731000Y-66758816D01*
X56698297Y-66923228D01*
X56634147Y-67078100D01*
X56541015Y-67217481D01*
X56422481Y-67336015D01*
X56283100Y-67429147D01*
X56128228Y-67493297D01*
X55963816Y-67526000D01*
X55796184Y-67526000D01*
X55631772Y-67493297D01*
X55476900Y-67429147D01*
X55337519Y-67336015D01*
X55218985Y-67217481D01*
X55125853Y-67078100D01*
X55061703Y-66923228D01*
X55029000Y-66758816D01*
X55029000Y-66591184D01*
X55061703Y-66426772D01*
X55125853Y-66271900D01*
X55218985Y-66132519D01*
X55337519Y-66013985D01*
X55476900Y-65920853D01*
X55631772Y-65856703D01*
X55796184Y-65824000D01*
X55963816Y-65824000D01*
X56128228Y-65856703D01*
G37*
G36*
X2828512Y-61333927D02*
G01*
X2977812Y-61363624D01*
X3141784Y-61431544D01*
X3289354Y-61530147D01*
X3414853Y-61655646D01*
X3513456Y-61803216D01*
X3581376Y-61967188D01*
X3616000Y-62141259D01*
X3616000Y-62318741D01*
X3581376Y-62492812D01*
X3513456Y-62656784D01*
X3414853Y-62804354D01*
X3289354Y-62929853D01*
X3141784Y-63028456D01*
X2977812Y-63096376D01*
X2828512Y-63126073D01*
X2803742Y-63131000D01*
X2626258Y-63131000D01*
X2601488Y-63126073D01*
X2452188Y-63096376D01*
X2288216Y-63028456D01*
X2140646Y-62929853D01*
X2015147Y-62804354D01*
X1916544Y-62656784D01*
X1848624Y-62492812D01*
X1814000Y-62318741D01*
X1814000Y-62141259D01*
X1848624Y-61967188D01*
X1916544Y-61803216D01*
X2015147Y-61655646D01*
X2140646Y-61530147D01*
X2288216Y-61431544D01*
X2452188Y-61363624D01*
X2601488Y-61333927D01*
X2626258Y-61329000D01*
X2803742Y-61329000D01*
X2828512Y-61333927D01*
G37*
G36*
X8828512Y-61333927D02*
G01*
X8977812Y-61363624D01*
X9141784Y-61431544D01*
X9289354Y-61530147D01*
X9414853Y-61655646D01*
X9513456Y-61803216D01*
X9581376Y-61967188D01*
X9616000Y-62141259D01*
X9616000Y-62318741D01*
X9581376Y-62492812D01*
X9513456Y-62656784D01*
X9414853Y-62804354D01*
X9289354Y-62929853D01*
X9141784Y-63028456D01*
X8977812Y-63096376D01*
X8828512Y-63126073D01*
X8803742Y-63131000D01*
X8626258Y-63131000D01*
X8601488Y-63126073D01*
X8452188Y-63096376D01*
X8288216Y-63028456D01*
X8140646Y-62929853D01*
X8015147Y-62804354D01*
X7916544Y-62656784D01*
X7848624Y-62492812D01*
X7814000Y-62318741D01*
X7814000Y-62141259D01*
X7848624Y-61967188D01*
X7916544Y-61803216D01*
X8015147Y-61655646D01*
X8140646Y-61530147D01*
X8288216Y-61431544D01*
X8452188Y-61363624D01*
X8601488Y-61333927D01*
X8626258Y-61329000D01*
X8803742Y-61329000D01*
X8828512Y-61333927D01*
G37*
G36*
X8498642Y-58099781D02*
G01*
X8644414Y-58160162D01*
X8644416Y-58160163D01*
X8775608Y-58247822D01*
X8887178Y-58359392D01*
X8968171Y-58480608D01*
X8974838Y-58490586D01*
X9035219Y-58636358D01*
X9066000Y-58791107D01*
X9066000Y-58948893D01*
X9035219Y-59103642D01*
X8974838Y-59249414D01*
X8974837Y-59249416D01*
X8887178Y-59380608D01*
X8775608Y-59492178D01*
X8644416Y-59579837D01*
X8644415Y-59579838D01*
X8644414Y-59579838D01*
X8498642Y-59640219D01*
X8343893Y-59671000D01*
X8186107Y-59671000D01*
X8031358Y-59640219D01*
X7885586Y-59579838D01*
X7885585Y-59579838D01*
X7885584Y-59579837D01*
X7754392Y-59492178D01*
X7642822Y-59380608D01*
X7555163Y-59249416D01*
X7555162Y-59249414D01*
X7494781Y-59103642D01*
X7464000Y-58948893D01*
X7464000Y-58791107D01*
X7494781Y-58636358D01*
X7555162Y-58490586D01*
X7561829Y-58480608D01*
X7642822Y-58359392D01*
X7754392Y-58247822D01*
X7885584Y-58160163D01*
X7885586Y-58160162D01*
X8031358Y-58099781D01*
X8186107Y-58069000D01*
X8343893Y-58069000D01*
X8498642Y-58099781D01*
G37*
G36*
X3398642Y-57199781D02*
G01*
X3544414Y-57260162D01*
X3544416Y-57260163D01*
X3675608Y-57347822D01*
X3787178Y-57459392D01*
X3860588Y-57569259D01*
X3874838Y-57590586D01*
X3935219Y-57736358D01*
X3966000Y-57891107D01*
X3966000Y-58048893D01*
X3935219Y-58203642D01*
X3923326Y-58232353D01*
X3874837Y-58349416D01*
X3787178Y-58480608D01*
X3675608Y-58592178D01*
X3544416Y-58679837D01*
X3544415Y-58679838D01*
X3544414Y-58679838D01*
X3398642Y-58740219D01*
X3243893Y-58771000D01*
X3086107Y-58771000D01*
X2931358Y-58740219D01*
X2785586Y-58679838D01*
X2785585Y-58679838D01*
X2785584Y-58679837D01*
X2654392Y-58592178D01*
X2542822Y-58480608D01*
X2455163Y-58349416D01*
X2406674Y-58232353D01*
X2394781Y-58203642D01*
X2364000Y-58048893D01*
X2364000Y-57891107D01*
X2394781Y-57736358D01*
X2455162Y-57590586D01*
X2469412Y-57569259D01*
X2542822Y-57459392D01*
X2654392Y-57347822D01*
X2785584Y-57260163D01*
X2785586Y-57260162D01*
X2931358Y-57199781D01*
X3086107Y-57169000D01*
X3243893Y-57169000D01*
X3398642Y-57199781D01*
G37*
G36*
X72757512Y-56761927D02*
G01*
X72906812Y-56791624D01*
X73070784Y-56859544D01*
X73218354Y-56958147D01*
X73343853Y-57083646D01*
X73442456Y-57231216D01*
X73510376Y-57395188D01*
X73545000Y-57569259D01*
X73545000Y-57746741D01*
X73510376Y-57920812D01*
X73442456Y-58084784D01*
X73343853Y-58232354D01*
X73218354Y-58357853D01*
X73070784Y-58456456D01*
X72906812Y-58524376D01*
X72757512Y-58554073D01*
X72732742Y-58559000D01*
X72555258Y-58559000D01*
X72530488Y-58554073D01*
X72381188Y-58524376D01*
X72217216Y-58456456D01*
X72069646Y-58357853D01*
X71944147Y-58232354D01*
X71845544Y-58084784D01*
X71777624Y-57920812D01*
X71743000Y-57746741D01*
X71743000Y-57569259D01*
X71777624Y-57395188D01*
X71845544Y-57231216D01*
X71944147Y-57083646D01*
X72069646Y-56958147D01*
X72217216Y-56859544D01*
X72381188Y-56791624D01*
X72530488Y-56761927D01*
X72555258Y-56757000D01*
X72732742Y-56757000D01*
X72757512Y-56761927D01*
G37*
G36*
X77837512Y-56761927D02*
G01*
X77986812Y-56791624D01*
X78150784Y-56859544D01*
X78298354Y-56958147D01*
X78423853Y-57083646D01*
X78522456Y-57231216D01*
X78590376Y-57395188D01*
X78625000Y-57569259D01*
X78625000Y-57746741D01*
X78590376Y-57920812D01*
X78522456Y-58084784D01*
X78423853Y-58232354D01*
X78298354Y-58357853D01*
X78150784Y-58456456D01*
X77986812Y-58524376D01*
X77837512Y-58554073D01*
X77812742Y-58559000D01*
X77635258Y-58559000D01*
X77610488Y-58554073D01*
X77461188Y-58524376D01*
X77297216Y-58456456D01*
X77149646Y-58357853D01*
X77024147Y-58232354D01*
X76925544Y-58084784D01*
X76857624Y-57920812D01*
X76823000Y-57746741D01*
X76823000Y-57569259D01*
X76857624Y-57395188D01*
X76925544Y-57231216D01*
X77024147Y-57083646D01*
X77149646Y-56958147D01*
X77297216Y-56859544D01*
X77461188Y-56791624D01*
X77610488Y-56761927D01*
X77635258Y-56757000D01*
X77812742Y-56757000D01*
X77837512Y-56761927D01*
G37*
G36*
X75297512Y-56761927D02*
G01*
X75446812Y-56791624D01*
X75610784Y-56859544D01*
X75758354Y-56958147D01*
X75883853Y-57083646D01*
X75982456Y-57231216D01*
X76050376Y-57395188D01*
X76085000Y-57569259D01*
X76085000Y-57746741D01*
X76050376Y-57920812D01*
X75982456Y-58084784D01*
X75883853Y-58232354D01*
X75758354Y-58357853D01*
X75610784Y-58456456D01*
X75446812Y-58524376D01*
X75297512Y-58554073D01*
X75272742Y-58559000D01*
X75095258Y-58559000D01*
X75070488Y-58554073D01*
X74921188Y-58524376D01*
X74757216Y-58456456D01*
X74609646Y-58357853D01*
X74484147Y-58232354D01*
X74385544Y-58084784D01*
X74317624Y-57920812D01*
X74283000Y-57746741D01*
X74283000Y-57569259D01*
X74317624Y-57395188D01*
X74385544Y-57231216D01*
X74484147Y-57083646D01*
X74609646Y-56958147D01*
X74757216Y-56859544D01*
X74921188Y-56791624D01*
X75070488Y-56761927D01*
X75095258Y-56757000D01*
X75272742Y-56757000D01*
X75297512Y-56761927D01*
G37*
G36*
X70217512Y-56761927D02*
G01*
X70366812Y-56791624D01*
X70530784Y-56859544D01*
X70678354Y-56958147D01*
X70803853Y-57083646D01*
X70902456Y-57231216D01*
X70970376Y-57395188D01*
X71005000Y-57569259D01*
X71005000Y-57746741D01*
X70970376Y-57920812D01*
X70902456Y-58084784D01*
X70803853Y-58232354D01*
X70678354Y-58357853D01*
X70530784Y-58456456D01*
X70366812Y-58524376D01*
X70217512Y-58554073D01*
X70192742Y-58559000D01*
X70015258Y-58559000D01*
X69990488Y-58554073D01*
X69841188Y-58524376D01*
X69677216Y-58456456D01*
X69529646Y-58357853D01*
X69404147Y-58232354D01*
X69305544Y-58084784D01*
X69237624Y-57920812D01*
X69203000Y-57746741D01*
X69203000Y-57569259D01*
X69237624Y-57395188D01*
X69305544Y-57231216D01*
X69404147Y-57083646D01*
X69529646Y-56958147D01*
X69677216Y-56859544D01*
X69841188Y-56791624D01*
X69990488Y-56761927D01*
X70015258Y-56757000D01*
X70192742Y-56757000D01*
X70217512Y-56761927D01*
G37*
G36*
X68465000Y-58559000D02*
G01*
X66663000Y-58559000D01*
X66663000Y-56757000D01*
X68465000Y-56757000D01*
X68465000Y-58559000D01*
G37*
G36*
X15343512Y-55733927D02*
G01*
X15492812Y-55763624D01*
X15656784Y-55831544D01*
X15804354Y-55930147D01*
X15929853Y-56055646D01*
X16028456Y-56203216D01*
X16096376Y-56367188D01*
X16131000Y-56541259D01*
X16131000Y-56718741D01*
X16096376Y-56892812D01*
X16028456Y-57056784D01*
X15929853Y-57204354D01*
X15804354Y-57329853D01*
X15656784Y-57428456D01*
X15492812Y-57496376D01*
X15343512Y-57526073D01*
X15318742Y-57531000D01*
X15141258Y-57531000D01*
X15116488Y-57526073D01*
X14967188Y-57496376D01*
X14803216Y-57428456D01*
X14655646Y-57329853D01*
X14530147Y-57204354D01*
X14431544Y-57056784D01*
X14363624Y-56892812D01*
X14329000Y-56718741D01*
X14329000Y-56541259D01*
X14363624Y-56367188D01*
X14431544Y-56203216D01*
X14530147Y-56055646D01*
X14655646Y-55930147D01*
X14803216Y-55831544D01*
X14967188Y-55763624D01*
X15116488Y-55733927D01*
X15141258Y-55729000D01*
X15318742Y-55729000D01*
X15343512Y-55733927D01*
G37*
G36*
X18671000Y-57531000D02*
G01*
X16869000Y-57531000D01*
X16869000Y-55729000D01*
X18671000Y-55729000D01*
X18671000Y-57531000D01*
G37*
G36*
X15343512Y-53193927D02*
G01*
X15492812Y-53223624D01*
X15656784Y-53291544D01*
X15804354Y-53390147D01*
X15929853Y-53515646D01*
X16028456Y-53663216D01*
X16096376Y-53827188D01*
X16131000Y-54001259D01*
X16131000Y-54178741D01*
X16096376Y-54352812D01*
X16028456Y-54516784D01*
X15929853Y-54664354D01*
X15804354Y-54789853D01*
X15656784Y-54888456D01*
X15492812Y-54956376D01*
X15343512Y-54986073D01*
X15318742Y-54991000D01*
X15141258Y-54991000D01*
X15116488Y-54986073D01*
X14967188Y-54956376D01*
X14803216Y-54888456D01*
X14655646Y-54789853D01*
X14530147Y-54664354D01*
X14431544Y-54516784D01*
X14363624Y-54352812D01*
X14329000Y-54178741D01*
X14329000Y-54001259D01*
X14363624Y-53827188D01*
X14431544Y-53663216D01*
X14530147Y-53515646D01*
X14655646Y-53390147D01*
X14803216Y-53291544D01*
X14967188Y-53223624D01*
X15116488Y-53193927D01*
X15141258Y-53189000D01*
X15318742Y-53189000D01*
X15343512Y-53193927D01*
G37*
G36*
X17883512Y-53193927D02*
G01*
X18032812Y-53223624D01*
X18196784Y-53291544D01*
X18344354Y-53390147D01*
X18469853Y-53515646D01*
X18568456Y-53663216D01*
X18636376Y-53827188D01*
X18671000Y-54001259D01*
X18671000Y-54178741D01*
X18636376Y-54352812D01*
X18568456Y-54516784D01*
X18469853Y-54664354D01*
X18344354Y-54789853D01*
X18196784Y-54888456D01*
X18032812Y-54956376D01*
X17883512Y-54986073D01*
X17858742Y-54991000D01*
X17681258Y-54991000D01*
X17656488Y-54986073D01*
X17507188Y-54956376D01*
X17343216Y-54888456D01*
X17195646Y-54789853D01*
X17070147Y-54664354D01*
X16971544Y-54516784D01*
X16903624Y-54352812D01*
X16869000Y-54178741D01*
X16869000Y-54001259D01*
X16903624Y-53827188D01*
X16971544Y-53663216D01*
X17070147Y-53515646D01*
X17195646Y-53390147D01*
X17343216Y-53291544D01*
X17507188Y-53223624D01*
X17656488Y-53193927D01*
X17681258Y-53189000D01*
X17858742Y-53189000D01*
X17883512Y-53193927D01*
G37*
G36*
X2828228Y-51251703D02*
G01*
X2983100Y-51315853D01*
X3122481Y-51408985D01*
X3241015Y-51527519D01*
X3334147Y-51666900D01*
X3398297Y-51821772D01*
X3431000Y-51986184D01*
X3431000Y-52153816D01*
X3398297Y-52318228D01*
X3334147Y-52473100D01*
X3241015Y-52612481D01*
X3122481Y-52731015D01*
X2983100Y-52824147D01*
X2828228Y-52888297D01*
X2663816Y-52921000D01*
X2496184Y-52921000D01*
X2331772Y-52888297D01*
X2176900Y-52824147D01*
X2037519Y-52731015D01*
X1918985Y-52612481D01*
X1825853Y-52473100D01*
X1761703Y-52318228D01*
X1729000Y-52153816D01*
X1729000Y-51986184D01*
X1761703Y-51821772D01*
X1825853Y-51666900D01*
X1918985Y-51527519D01*
X2037519Y-51408985D01*
X2176900Y-51315853D01*
X2331772Y-51251703D01*
X2496184Y-51219000D01*
X2663816Y-51219000D01*
X2828228Y-51251703D01*
G37*
G36*
X5931000Y-52921000D02*
G01*
X4229000Y-52921000D01*
X4229000Y-51219000D01*
X5931000Y-51219000D01*
X5931000Y-52921000D01*
G37*
G36*
X17883512Y-50653927D02*
G01*
X18032812Y-50683624D01*
X18196784Y-50751544D01*
X18344354Y-50850147D01*
X18469853Y-50975646D01*
X18568456Y-51123216D01*
X18636376Y-51287188D01*
X18671000Y-51461259D01*
X18671000Y-51638741D01*
X18636376Y-51812812D01*
X18568456Y-51976784D01*
X18469853Y-52124354D01*
X18344354Y-52249853D01*
X18196784Y-52348456D01*
X18032812Y-52416376D01*
X17883512Y-52446073D01*
X17858742Y-52451000D01*
X17681258Y-52451000D01*
X17656488Y-52446073D01*
X17507188Y-52416376D01*
X17343216Y-52348456D01*
X17195646Y-52249853D01*
X17070147Y-52124354D01*
X16971544Y-51976784D01*
X16903624Y-51812812D01*
X16869000Y-51638741D01*
X16869000Y-51461259D01*
X16903624Y-51287188D01*
X16971544Y-51123216D01*
X17070147Y-50975646D01*
X17195646Y-50850147D01*
X17343216Y-50751544D01*
X17507188Y-50683624D01*
X17656488Y-50653927D01*
X17681258Y-50649000D01*
X17858742Y-50649000D01*
X17883512Y-50653927D01*
G37*
G36*
X15343512Y-50653927D02*
G01*
X15492812Y-50683624D01*
X15656784Y-50751544D01*
X15804354Y-50850147D01*
X15929853Y-50975646D01*
X16028456Y-51123216D01*
X16096376Y-51287188D01*
X16131000Y-51461259D01*
X16131000Y-51638741D01*
X16096376Y-51812812D01*
X16028456Y-51976784D01*
X15929853Y-52124354D01*
X15804354Y-52249853D01*
X15656784Y-52348456D01*
X15492812Y-52416376D01*
X15343512Y-52446073D01*
X15318742Y-52451000D01*
X15141258Y-52451000D01*
X15116488Y-52446073D01*
X14967188Y-52416376D01*
X14803216Y-52348456D01*
X14655646Y-52249853D01*
X14530147Y-52124354D01*
X14431544Y-51976784D01*
X14363624Y-51812812D01*
X14329000Y-51638741D01*
X14329000Y-51461259D01*
X14363624Y-51287188D01*
X14431544Y-51123216D01*
X14530147Y-50975646D01*
X14655646Y-50850147D01*
X14803216Y-50751544D01*
X14967188Y-50683624D01*
X15116488Y-50653927D01*
X15141258Y-50649000D01*
X15318742Y-50649000D01*
X15343512Y-50653927D01*
G37*
G36*
X17883512Y-48113927D02*
G01*
X18032812Y-48143624D01*
X18196784Y-48211544D01*
X18344354Y-48310147D01*
X18469853Y-48435646D01*
X18568456Y-48583216D01*
X18636376Y-48747188D01*
X18671000Y-48921259D01*
X18671000Y-49098741D01*
X18636376Y-49272812D01*
X18568456Y-49436784D01*
X18469853Y-49584354D01*
X18344354Y-49709853D01*
X18196784Y-49808456D01*
X18032812Y-49876376D01*
X17883512Y-49906073D01*
X17858742Y-49911000D01*
X17681258Y-49911000D01*
X17656488Y-49906073D01*
X17507188Y-49876376D01*
X17343216Y-49808456D01*
X17195646Y-49709853D01*
X17070147Y-49584354D01*
X16971544Y-49436784D01*
X16903624Y-49272812D01*
X16869000Y-49098741D01*
X16869000Y-48921259D01*
X16903624Y-48747188D01*
X16971544Y-48583216D01*
X17070147Y-48435646D01*
X17195646Y-48310147D01*
X17343216Y-48211544D01*
X17507188Y-48143624D01*
X17656488Y-48113927D01*
X17681258Y-48109000D01*
X17858742Y-48109000D01*
X17883512Y-48113927D01*
G37*
G36*
X15343512Y-48113927D02*
G01*
X15492812Y-48143624D01*
X15656784Y-48211544D01*
X15804354Y-48310147D01*
X15929853Y-48435646D01*
X16028456Y-48583216D01*
X16096376Y-48747188D01*
X16131000Y-48921259D01*
X16131000Y-49098741D01*
X16096376Y-49272812D01*
X16028456Y-49436784D01*
X15929853Y-49584354D01*
X15804354Y-49709853D01*
X15656784Y-49808456D01*
X15492812Y-49876376D01*
X15343512Y-49906073D01*
X15318742Y-49911000D01*
X15141258Y-49911000D01*
X15116488Y-49906073D01*
X14967188Y-49876376D01*
X14803216Y-49808456D01*
X14655646Y-49709853D01*
X14530147Y-49584354D01*
X14431544Y-49436784D01*
X14363624Y-49272812D01*
X14329000Y-49098741D01*
X14329000Y-48921259D01*
X14363624Y-48747188D01*
X14431544Y-48583216D01*
X14530147Y-48435646D01*
X14655646Y-48310147D01*
X14803216Y-48211544D01*
X14967188Y-48143624D01*
X15116488Y-48113927D01*
X15141258Y-48109000D01*
X15318742Y-48109000D01*
X15343512Y-48113927D01*
G37*
G36*
X15343512Y-45573927D02*
G01*
X15492812Y-45603624D01*
X15656784Y-45671544D01*
X15804354Y-45770147D01*
X15929853Y-45895646D01*
X16028456Y-46043216D01*
X16096376Y-46207188D01*
X16131000Y-46381259D01*
X16131000Y-46558741D01*
X16096376Y-46732812D01*
X16028456Y-46896784D01*
X15929853Y-47044354D01*
X15804354Y-47169853D01*
X15656784Y-47268456D01*
X15492812Y-47336376D01*
X15343512Y-47366073D01*
X15318742Y-47371000D01*
X15141258Y-47371000D01*
X15116488Y-47366073D01*
X14967188Y-47336376D01*
X14803216Y-47268456D01*
X14655646Y-47169853D01*
X14530147Y-47044354D01*
X14431544Y-46896784D01*
X14363624Y-46732812D01*
X14329000Y-46558741D01*
X14329000Y-46381259D01*
X14363624Y-46207188D01*
X14431544Y-46043216D01*
X14530147Y-45895646D01*
X14655646Y-45770147D01*
X14803216Y-45671544D01*
X14967188Y-45603624D01*
X15116488Y-45573927D01*
X15141258Y-45569000D01*
X15318742Y-45569000D01*
X15343512Y-45573927D01*
G37*
G36*
X17883512Y-45573927D02*
G01*
X18032812Y-45603624D01*
X18196784Y-45671544D01*
X18344354Y-45770147D01*
X18469853Y-45895646D01*
X18568456Y-46043216D01*
X18636376Y-46207188D01*
X18671000Y-46381259D01*
X18671000Y-46558741D01*
X18636376Y-46732812D01*
X18568456Y-46896784D01*
X18469853Y-47044354D01*
X18344354Y-47169853D01*
X18196784Y-47268456D01*
X18032812Y-47336376D01*
X17883512Y-47366073D01*
X17858742Y-47371000D01*
X17681258Y-47371000D01*
X17656488Y-47366073D01*
X17507188Y-47336376D01*
X17343216Y-47268456D01*
X17195646Y-47169853D01*
X17070147Y-47044354D01*
X16971544Y-46896784D01*
X16903624Y-46732812D01*
X16869000Y-46558741D01*
X16869000Y-46381259D01*
X16903624Y-46207188D01*
X16971544Y-46043216D01*
X17070147Y-45895646D01*
X17195646Y-45770147D01*
X17343216Y-45671544D01*
X17507188Y-45603624D01*
X17656488Y-45573927D01*
X17681258Y-45569000D01*
X17858742Y-45569000D01*
X17883512Y-45573927D01*
G37*
G36*
X2828228Y-43631703D02*
G01*
X2983100Y-43695853D01*
X3122481Y-43788985D01*
X3241015Y-43907519D01*
X3334147Y-44046900D01*
X3398297Y-44201772D01*
X3431000Y-44366184D01*
X3431000Y-44533816D01*
X3398297Y-44698228D01*
X3334147Y-44853100D01*
X3241015Y-44992481D01*
X3122481Y-45111015D01*
X2983100Y-45204147D01*
X2828228Y-45268297D01*
X2663816Y-45301000D01*
X2496184Y-45301000D01*
X2331772Y-45268297D01*
X2176900Y-45204147D01*
X2037519Y-45111015D01*
X1918985Y-44992481D01*
X1825853Y-44853100D01*
X1761703Y-44698228D01*
X1729000Y-44533816D01*
X1729000Y-44366184D01*
X1761703Y-44201772D01*
X1825853Y-44046900D01*
X1918985Y-43907519D01*
X2037519Y-43788985D01*
X2176900Y-43695853D01*
X2331772Y-43631703D01*
X2496184Y-43599000D01*
X2663816Y-43599000D01*
X2828228Y-43631703D01*
G37*
G36*
X5931000Y-45301000D02*
G01*
X4229000Y-45301000D01*
X4229000Y-43599000D01*
X5931000Y-43599000D01*
X5931000Y-45301000D01*
G37*
G36*
X25539000Y-45224000D02*
G01*
X23737000Y-45224000D01*
X23737000Y-43422000D01*
X25539000Y-43422000D01*
X25539000Y-45224000D01*
G37*
G36*
X22745000Y-45224000D02*
G01*
X20943000Y-45224000D01*
X20943000Y-43422000D01*
X22745000Y-43422000D01*
X22745000Y-45224000D01*
G37*
G36*
X17883512Y-43033927D02*
G01*
X18032812Y-43063624D01*
X18196784Y-43131544D01*
X18344354Y-43230147D01*
X18469853Y-43355646D01*
X18568456Y-43503216D01*
X18636376Y-43667188D01*
X18671000Y-43841259D01*
X18671000Y-44018741D01*
X18636376Y-44192812D01*
X18568456Y-44356784D01*
X18469853Y-44504354D01*
X18344354Y-44629853D01*
X18196784Y-44728456D01*
X18032812Y-44796376D01*
X17883512Y-44826073D01*
X17858742Y-44831000D01*
X17681258Y-44831000D01*
X17656488Y-44826073D01*
X17507188Y-44796376D01*
X17343216Y-44728456D01*
X17195646Y-44629853D01*
X17070147Y-44504354D01*
X16971544Y-44356784D01*
X16903624Y-44192812D01*
X16869000Y-44018741D01*
X16869000Y-43841259D01*
X16903624Y-43667188D01*
X16971544Y-43503216D01*
X17070147Y-43355646D01*
X17195646Y-43230147D01*
X17343216Y-43131544D01*
X17507188Y-43063624D01*
X17656488Y-43033927D01*
X17681258Y-43029000D01*
X17858742Y-43029000D01*
X17883512Y-43033927D01*
G37*
G36*
X15343512Y-43033927D02*
G01*
X15492812Y-43063624D01*
X15656784Y-43131544D01*
X15804354Y-43230147D01*
X15929853Y-43355646D01*
X16028456Y-43503216D01*
X16096376Y-43667188D01*
X16131000Y-43841259D01*
X16131000Y-44018741D01*
X16096376Y-44192812D01*
X16028456Y-44356784D01*
X15929853Y-44504354D01*
X15804354Y-44629853D01*
X15656784Y-44728456D01*
X15492812Y-44796376D01*
X15343512Y-44826073D01*
X15318742Y-44831000D01*
X15141258Y-44831000D01*
X15116488Y-44826073D01*
X14967188Y-44796376D01*
X14803216Y-44728456D01*
X14655646Y-44629853D01*
X14530147Y-44504354D01*
X14431544Y-44356784D01*
X14363624Y-44192812D01*
X14329000Y-44018741D01*
X14329000Y-43841259D01*
X14363624Y-43667188D01*
X14431544Y-43503216D01*
X14530147Y-43355646D01*
X14655646Y-43230147D01*
X14803216Y-43131544D01*
X14967188Y-43063624D01*
X15116488Y-43033927D01*
X15141258Y-43029000D01*
X15318742Y-43029000D01*
X15343512Y-43033927D01*
G37*
G36*
X11162512Y-42029927D02*
G01*
X11311812Y-42059624D01*
X11475784Y-42127544D01*
X11623354Y-42226147D01*
X11748853Y-42351646D01*
X11847456Y-42499216D01*
X11915376Y-42663188D01*
X11950000Y-42837259D01*
X11950000Y-43014741D01*
X11915376Y-43188812D01*
X11847456Y-43352784D01*
X11748853Y-43500354D01*
X11623354Y-43625853D01*
X11475784Y-43724456D01*
X11311812Y-43792376D01*
X11162512Y-43822073D01*
X11137742Y-43827000D01*
X10960258Y-43827000D01*
X10935488Y-43822073D01*
X10786188Y-43792376D01*
X10622216Y-43724456D01*
X10474646Y-43625853D01*
X10349147Y-43500354D01*
X10250544Y-43352784D01*
X10182624Y-43188812D01*
X10148000Y-43014741D01*
X10148000Y-42837259D01*
X10182624Y-42663188D01*
X10250544Y-42499216D01*
X10349147Y-42351646D01*
X10474646Y-42226147D01*
X10622216Y-42127544D01*
X10786188Y-42059624D01*
X10935488Y-42029927D01*
X10960258Y-42025000D01*
X11137742Y-42025000D01*
X11162512Y-42029927D01*
G37*
G36*
X24751512Y-40886927D02*
G01*
X24900812Y-40916624D01*
X25064784Y-40984544D01*
X25212354Y-41083147D01*
X25337853Y-41208646D01*
X25436456Y-41356216D01*
X25504376Y-41520188D01*
X25539000Y-41694259D01*
X25539000Y-41871741D01*
X25504376Y-42045812D01*
X25436456Y-42209784D01*
X25337853Y-42357354D01*
X25212354Y-42482853D01*
X25064784Y-42581456D01*
X24900812Y-42649376D01*
X24751512Y-42679073D01*
X24726742Y-42684000D01*
X24549258Y-42684000D01*
X24524488Y-42679073D01*
X24375188Y-42649376D01*
X24211216Y-42581456D01*
X24063646Y-42482853D01*
X23938147Y-42357354D01*
X23839544Y-42209784D01*
X23771624Y-42045812D01*
X23737000Y-41871741D01*
X23737000Y-41694259D01*
X23771624Y-41520188D01*
X23839544Y-41356216D01*
X23938147Y-41208646D01*
X24063646Y-41083147D01*
X24211216Y-40984544D01*
X24375188Y-40916624D01*
X24524488Y-40886927D01*
X24549258Y-40882000D01*
X24726742Y-40882000D01*
X24751512Y-40886927D01*
G37*
G36*
X21957512Y-40886927D02*
G01*
X22106812Y-40916624D01*
X22270784Y-40984544D01*
X22418354Y-41083147D01*
X22543853Y-41208646D01*
X22642456Y-41356216D01*
X22710376Y-41520188D01*
X22745000Y-41694259D01*
X22745000Y-41871741D01*
X22710376Y-42045812D01*
X22642456Y-42209784D01*
X22543853Y-42357354D01*
X22418354Y-42482853D01*
X22270784Y-42581456D01*
X22106812Y-42649376D01*
X21957512Y-42679073D01*
X21932742Y-42684000D01*
X21755258Y-42684000D01*
X21730488Y-42679073D01*
X21581188Y-42649376D01*
X21417216Y-42581456D01*
X21269646Y-42482853D01*
X21144147Y-42357354D01*
X21045544Y-42209784D01*
X20977624Y-42045812D01*
X20943000Y-41871741D01*
X20943000Y-41694259D01*
X20977624Y-41520188D01*
X21045544Y-41356216D01*
X21144147Y-41208646D01*
X21269646Y-41083147D01*
X21417216Y-40984544D01*
X21581188Y-40916624D01*
X21730488Y-40886927D01*
X21755258Y-40882000D01*
X21932742Y-40882000D01*
X21957512Y-40886927D01*
G37*
G36*
X17883512Y-40493927D02*
G01*
X18032812Y-40523624D01*
X18196784Y-40591544D01*
X18344354Y-40690147D01*
X18469853Y-40815646D01*
X18568456Y-40963216D01*
X18636376Y-41127188D01*
X18671000Y-41301259D01*
X18671000Y-41478741D01*
X18636376Y-41652812D01*
X18568456Y-41816784D01*
X18469853Y-41964354D01*
X18344354Y-42089853D01*
X18196784Y-42188456D01*
X18032812Y-42256376D01*
X17883512Y-42286073D01*
X17858742Y-42291000D01*
X17681258Y-42291000D01*
X17656488Y-42286073D01*
X17507188Y-42256376D01*
X17343216Y-42188456D01*
X17195646Y-42089853D01*
X17070147Y-41964354D01*
X16971544Y-41816784D01*
X16903624Y-41652812D01*
X16869000Y-41478741D01*
X16869000Y-41301259D01*
X16903624Y-41127188D01*
X16971544Y-40963216D01*
X17070147Y-40815646D01*
X17195646Y-40690147D01*
X17343216Y-40591544D01*
X17507188Y-40523624D01*
X17656488Y-40493927D01*
X17681258Y-40489000D01*
X17858742Y-40489000D01*
X17883512Y-40493927D01*
G37*
G36*
X15343512Y-40493927D02*
G01*
X15492812Y-40523624D01*
X15656784Y-40591544D01*
X15804354Y-40690147D01*
X15929853Y-40815646D01*
X16028456Y-40963216D01*
X16096376Y-41127188D01*
X16131000Y-41301259D01*
X16131000Y-41478741D01*
X16096376Y-41652812D01*
X16028456Y-41816784D01*
X15929853Y-41964354D01*
X15804354Y-42089853D01*
X15656784Y-42188456D01*
X15492812Y-42256376D01*
X15343512Y-42286073D01*
X15318742Y-42291000D01*
X15141258Y-42291000D01*
X15116488Y-42286073D01*
X14967188Y-42256376D01*
X14803216Y-42188456D01*
X14655646Y-42089853D01*
X14530147Y-41964354D01*
X14431544Y-41816784D01*
X14363624Y-41652812D01*
X14329000Y-41478741D01*
X14329000Y-41301259D01*
X14363624Y-41127188D01*
X14431544Y-40963216D01*
X14530147Y-40815646D01*
X14655646Y-40690147D01*
X14803216Y-40591544D01*
X14967188Y-40523624D01*
X15116488Y-40493927D01*
X15141258Y-40489000D01*
X15318742Y-40489000D01*
X15343512Y-40493927D01*
G37*
G36*
X11162512Y-39489927D02*
G01*
X11311812Y-39519624D01*
X11475784Y-39587544D01*
X11623354Y-39686147D01*
X11748853Y-39811646D01*
X11847456Y-39959216D01*
X11915376Y-40123188D01*
X11950000Y-40297259D01*
X11950000Y-40474741D01*
X11915376Y-40648812D01*
X11847456Y-40812784D01*
X11748853Y-40960354D01*
X11623354Y-41085853D01*
X11475784Y-41184456D01*
X11311812Y-41252376D01*
X11162512Y-41282073D01*
X11137742Y-41287000D01*
X10960258Y-41287000D01*
X10935488Y-41282073D01*
X10786188Y-41252376D01*
X10622216Y-41184456D01*
X10474646Y-41085853D01*
X10349147Y-40960354D01*
X10250544Y-40812784D01*
X10182624Y-40648812D01*
X10148000Y-40474741D01*
X10148000Y-40297259D01*
X10182624Y-40123188D01*
X10250544Y-39959216D01*
X10349147Y-39811646D01*
X10474646Y-39686147D01*
X10622216Y-39587544D01*
X10786188Y-39519624D01*
X10935488Y-39489927D01*
X10960258Y-39485000D01*
X11137742Y-39485000D01*
X11162512Y-39489927D01*
G37*
G36*
X24751512Y-38346927D02*
G01*
X24900812Y-38376624D01*
X25064784Y-38444544D01*
X25212354Y-38543147D01*
X25337853Y-38668646D01*
X25436456Y-38816216D01*
X25504376Y-38980188D01*
X25539000Y-39154259D01*
X25539000Y-39331741D01*
X25504376Y-39505812D01*
X25436456Y-39669784D01*
X25337853Y-39817354D01*
X25212354Y-39942853D01*
X25064784Y-40041456D01*
X24900812Y-40109376D01*
X24751512Y-40139073D01*
X24726742Y-40144000D01*
X24549258Y-40144000D01*
X24524488Y-40139073D01*
X24375188Y-40109376D01*
X24211216Y-40041456D01*
X24063646Y-39942853D01*
X23938147Y-39817354D01*
X23839544Y-39669784D01*
X23771624Y-39505812D01*
X23737000Y-39331741D01*
X23737000Y-39154259D01*
X23771624Y-38980188D01*
X23839544Y-38816216D01*
X23938147Y-38668646D01*
X24063646Y-38543147D01*
X24211216Y-38444544D01*
X24375188Y-38376624D01*
X24524488Y-38346927D01*
X24549258Y-38342000D01*
X24726742Y-38342000D01*
X24751512Y-38346927D01*
G37*
G36*
X21957512Y-38346927D02*
G01*
X22106812Y-38376624D01*
X22270784Y-38444544D01*
X22418354Y-38543147D01*
X22543853Y-38668646D01*
X22642456Y-38816216D01*
X22710376Y-38980188D01*
X22745000Y-39154259D01*
X22745000Y-39331741D01*
X22710376Y-39505812D01*
X22642456Y-39669784D01*
X22543853Y-39817354D01*
X22418354Y-39942853D01*
X22270784Y-40041456D01*
X22106812Y-40109376D01*
X21957512Y-40139073D01*
X21932742Y-40144000D01*
X21755258Y-40144000D01*
X21730488Y-40139073D01*
X21581188Y-40109376D01*
X21417216Y-40041456D01*
X21269646Y-39942853D01*
X21144147Y-39817354D01*
X21045544Y-39669784D01*
X20977624Y-39505812D01*
X20943000Y-39331741D01*
X20943000Y-39154259D01*
X20977624Y-38980188D01*
X21045544Y-38816216D01*
X21144147Y-38668646D01*
X21269646Y-38543147D01*
X21417216Y-38444544D01*
X21581188Y-38376624D01*
X21730488Y-38346927D01*
X21755258Y-38342000D01*
X21932742Y-38342000D01*
X21957512Y-38346927D01*
G37*
G36*
X17883512Y-37953927D02*
G01*
X18032812Y-37983624D01*
X18196784Y-38051544D01*
X18344354Y-38150147D01*
X18469853Y-38275646D01*
X18568456Y-38423216D01*
X18636376Y-38587188D01*
X18671000Y-38761259D01*
X18671000Y-38938741D01*
X18636376Y-39112812D01*
X18568456Y-39276784D01*
X18469853Y-39424354D01*
X18344354Y-39549853D01*
X18196784Y-39648456D01*
X18032812Y-39716376D01*
X17883512Y-39746073D01*
X17858742Y-39751000D01*
X17681258Y-39751000D01*
X17656488Y-39746073D01*
X17507188Y-39716376D01*
X17343216Y-39648456D01*
X17195646Y-39549853D01*
X17070147Y-39424354D01*
X16971544Y-39276784D01*
X16903624Y-39112812D01*
X16869000Y-38938741D01*
X16869000Y-38761259D01*
X16903624Y-38587188D01*
X16971544Y-38423216D01*
X17070147Y-38275646D01*
X17195646Y-38150147D01*
X17343216Y-38051544D01*
X17507188Y-37983624D01*
X17656488Y-37953927D01*
X17681258Y-37949000D01*
X17858742Y-37949000D01*
X17883512Y-37953927D01*
G37*
G36*
X15343512Y-37953927D02*
G01*
X15492812Y-37983624D01*
X15656784Y-38051544D01*
X15804354Y-38150147D01*
X15929853Y-38275646D01*
X16028456Y-38423216D01*
X16096376Y-38587188D01*
X16131000Y-38761259D01*
X16131000Y-38938741D01*
X16096376Y-39112812D01*
X16028456Y-39276784D01*
X15929853Y-39424354D01*
X15804354Y-39549853D01*
X15656784Y-39648456D01*
X15492812Y-39716376D01*
X15343512Y-39746073D01*
X15318742Y-39751000D01*
X15141258Y-39751000D01*
X15116488Y-39746073D01*
X14967188Y-39716376D01*
X14803216Y-39648456D01*
X14655646Y-39549853D01*
X14530147Y-39424354D01*
X14431544Y-39276784D01*
X14363624Y-39112812D01*
X14329000Y-38938741D01*
X14329000Y-38761259D01*
X14363624Y-38587188D01*
X14431544Y-38423216D01*
X14530147Y-38275646D01*
X14655646Y-38150147D01*
X14803216Y-38051544D01*
X14967188Y-37983624D01*
X15116488Y-37953927D01*
X15141258Y-37949000D01*
X15318742Y-37949000D01*
X15343512Y-37953927D01*
G37*
G36*
X11950000Y-38747000D02*
G01*
X10148000Y-38747000D01*
X10148000Y-36945000D01*
X11950000Y-36945000D01*
X11950000Y-38747000D01*
G37*
G36*
X2634890Y-36204017D02*
G01*
X2676516Y-36221259D01*
X2753364Y-36253091D01*
X2859988Y-36324335D01*
X2950665Y-36415012D01*
X3021910Y-36521638D01*
X3070983Y-36640110D01*
X3096000Y-36765881D01*
X3096000Y-36894119D01*
X3070983Y-37019890D01*
X3034298Y-37108456D01*
X3021909Y-37138364D01*
X2950665Y-37244988D01*
X2859988Y-37335665D01*
X2753364Y-37406909D01*
X2753363Y-37406910D01*
X2753362Y-37406910D01*
X2634890Y-37455983D01*
X2509119Y-37481000D01*
X2380881Y-37481000D01*
X2255110Y-37455983D01*
X2136638Y-37406910D01*
X2136637Y-37406910D01*
X2136636Y-37406909D01*
X2030012Y-37335665D01*
X1939335Y-37244988D01*
X1868091Y-37138364D01*
X1855703Y-37108456D01*
X1819017Y-37019890D01*
X1794000Y-36894119D01*
X1794000Y-36765881D01*
X1819017Y-36640110D01*
X1868090Y-36521638D01*
X1939335Y-36415012D01*
X2030012Y-36324335D01*
X2136636Y-36253091D01*
X2213485Y-36221259D01*
X2255110Y-36204017D01*
X2380881Y-36179000D01*
X2509119Y-36179000D01*
X2634890Y-36204017D01*
G37*
G36*
X5096000Y-37481000D02*
G01*
X3794000Y-37481000D01*
X3794000Y-36179000D01*
X5096000Y-36179000D01*
X5096000Y-37481000D01*
G37*
G36*
X22745000Y-37223000D02*
G01*
X20943000Y-37223000D01*
X20943000Y-35421000D01*
X22745000Y-35421000D01*
X22745000Y-37223000D01*
G37*
G36*
X17883512Y-35413927D02*
G01*
X18032812Y-35443624D01*
X18196784Y-35511544D01*
X18344354Y-35610147D01*
X18469853Y-35735646D01*
X18568456Y-35883216D01*
X18636376Y-36047188D01*
X18662594Y-36179000D01*
X18667571Y-36204017D01*
X18671000Y-36221259D01*
X18671000Y-36398741D01*
X18636376Y-36572812D01*
X18568456Y-36736784D01*
X18469853Y-36884354D01*
X18344354Y-37009853D01*
X18196784Y-37108456D01*
X18032812Y-37176376D01*
X17883512Y-37206073D01*
X17858742Y-37211000D01*
X17681258Y-37211000D01*
X17656488Y-37206073D01*
X17507188Y-37176376D01*
X17343216Y-37108456D01*
X17195646Y-37009853D01*
X17070147Y-36884354D01*
X16971544Y-36736784D01*
X16903624Y-36572812D01*
X16869000Y-36398741D01*
X16869000Y-36221259D01*
X16872430Y-36204017D01*
X16877406Y-36179000D01*
X16903624Y-36047188D01*
X16971544Y-35883216D01*
X17070147Y-35735646D01*
X17195646Y-35610147D01*
X17343216Y-35511544D01*
X17507188Y-35443624D01*
X17656488Y-35413927D01*
X17681258Y-35409000D01*
X17858742Y-35409000D01*
X17883512Y-35413927D01*
G37*
G36*
X15343512Y-35413927D02*
G01*
X15492812Y-35443624D01*
X15656784Y-35511544D01*
X15804354Y-35610147D01*
X15929853Y-35735646D01*
X16028456Y-35883216D01*
X16096376Y-36047188D01*
X16122594Y-36179000D01*
X16127571Y-36204017D01*
X16131000Y-36221259D01*
X16131000Y-36398741D01*
X16096376Y-36572812D01*
X16028456Y-36736784D01*
X15929853Y-36884354D01*
X15804354Y-37009853D01*
X15656784Y-37108456D01*
X15492812Y-37176376D01*
X15343512Y-37206073D01*
X15318742Y-37211000D01*
X15141258Y-37211000D01*
X15116488Y-37206073D01*
X14967188Y-37176376D01*
X14803216Y-37108456D01*
X14655646Y-37009853D01*
X14530147Y-36884354D01*
X14431544Y-36736784D01*
X14363624Y-36572812D01*
X14329000Y-36398741D01*
X14329000Y-36221259D01*
X14332430Y-36204017D01*
X14337406Y-36179000D01*
X14363624Y-36047188D01*
X14431544Y-35883216D01*
X14530147Y-35735646D01*
X14655646Y-35610147D01*
X14803216Y-35511544D01*
X14967188Y-35443624D01*
X15116488Y-35413927D01*
X15141258Y-35409000D01*
X15318742Y-35409000D01*
X15343512Y-35413927D01*
G37*
G36*
X21957512Y-32885927D02*
G01*
X22106812Y-32915624D01*
X22270784Y-32983544D01*
X22418354Y-33082147D01*
X22543853Y-33207646D01*
X22642456Y-33355216D01*
X22710376Y-33519188D01*
X22745000Y-33693259D01*
X22745000Y-33870741D01*
X22710376Y-34044812D01*
X22642456Y-34208784D01*
X22543853Y-34356354D01*
X22418354Y-34481853D01*
X22270784Y-34580456D01*
X22106812Y-34648376D01*
X21957512Y-34678073D01*
X21932742Y-34683000D01*
X21755258Y-34683000D01*
X21730488Y-34678073D01*
X21581188Y-34648376D01*
X21417216Y-34580456D01*
X21269646Y-34481853D01*
X21144147Y-34356354D01*
X21045544Y-34208784D01*
X20977624Y-34044812D01*
X20943000Y-33870741D01*
X20943000Y-33693259D01*
X20977624Y-33519188D01*
X21045544Y-33355216D01*
X21144147Y-33207646D01*
X21269646Y-33082147D01*
X21417216Y-32983544D01*
X21581188Y-32915624D01*
X21730488Y-32885927D01*
X21755258Y-32881000D01*
X21932742Y-32881000D01*
X21957512Y-32885927D01*
G37*
G36*
X17883512Y-32873927D02*
G01*
X18032812Y-32903624D01*
X18196784Y-32971544D01*
X18344354Y-33070147D01*
X18469853Y-33195646D01*
X18568456Y-33343216D01*
X18636376Y-33507188D01*
X18671000Y-33681259D01*
X18671000Y-33858741D01*
X18636376Y-34032812D01*
X18568456Y-34196784D01*
X18469853Y-34344354D01*
X18344354Y-34469853D01*
X18196784Y-34568456D01*
X18032812Y-34636376D01*
X17883512Y-34666073D01*
X17858742Y-34671000D01*
X17681258Y-34671000D01*
X17656488Y-34666073D01*
X17507188Y-34636376D01*
X17343216Y-34568456D01*
X17195646Y-34469853D01*
X17070147Y-34344354D01*
X16971544Y-34196784D01*
X16903624Y-34032812D01*
X16869000Y-33858741D01*
X16869000Y-33681259D01*
X16903624Y-33507188D01*
X16971544Y-33343216D01*
X17070147Y-33195646D01*
X17195646Y-33070147D01*
X17343216Y-32971544D01*
X17507188Y-32903624D01*
X17656488Y-32873927D01*
X17681258Y-32869000D01*
X17858742Y-32869000D01*
X17883512Y-32873927D01*
G37*
G36*
X15343512Y-32873927D02*
G01*
X15492812Y-32903624D01*
X15656784Y-32971544D01*
X15804354Y-33070147D01*
X15929853Y-33195646D01*
X16028456Y-33343216D01*
X16096376Y-33507188D01*
X16131000Y-33681259D01*
X16131000Y-33858741D01*
X16096376Y-34032812D01*
X16028456Y-34196784D01*
X15929853Y-34344354D01*
X15804354Y-34469853D01*
X15656784Y-34568456D01*
X15492812Y-34636376D01*
X15343512Y-34666073D01*
X15318742Y-34671000D01*
X15141258Y-34671000D01*
X15116488Y-34666073D01*
X14967188Y-34636376D01*
X14803216Y-34568456D01*
X14655646Y-34469853D01*
X14530147Y-34344354D01*
X14431544Y-34196784D01*
X14363624Y-34032812D01*
X14329000Y-33858741D01*
X14329000Y-33681259D01*
X14363624Y-33507188D01*
X14431544Y-33343216D01*
X14530147Y-33195646D01*
X14655646Y-33070147D01*
X14803216Y-32971544D01*
X14967188Y-32903624D01*
X15116488Y-32873927D01*
X15141258Y-32869000D01*
X15318742Y-32869000D01*
X15343512Y-32873927D01*
G37*
G36*
X10526916Y-32481334D02*
G01*
X10635492Y-32514271D01*
X10635495Y-32514272D01*
X10671601Y-32533571D01*
X10735557Y-32567756D01*
X10823264Y-32639736D01*
X10886383Y-32716646D01*
X10903702Y-32733965D01*
X10924077Y-32747579D01*
X10946716Y-32756957D01*
X10970749Y-32761737D01*
X10995253Y-32761737D01*
X11019286Y-32756957D01*
X11041925Y-32747579D01*
X11062299Y-32733966D01*
X11079626Y-32716639D01*
X11093240Y-32696264D01*
X11102618Y-32673625D01*
X11107398Y-32649592D01*
X11108000Y-32637340D01*
X11108000Y-32473000D01*
X12260000Y-32473000D01*
X12260000Y-34075000D01*
X11108000Y-34075000D01*
X11108000Y-33910660D01*
X11105598Y-33886274D01*
X11098485Y-33862825D01*
X11086934Y-33841214D01*
X11071389Y-33822272D01*
X11052447Y-33806727D01*
X11030836Y-33795176D01*
X11007387Y-33788063D01*
X10983001Y-33785661D01*
X10958615Y-33788063D01*
X10935166Y-33795176D01*
X10913555Y-33806727D01*
X10886381Y-33831356D01*
X10823264Y-33908264D01*
X10735556Y-33980244D01*
X10671600Y-34014429D01*
X10635494Y-34033728D01*
X10635491Y-34033729D01*
X10526915Y-34066666D01*
X10414000Y-34077787D01*
X10301084Y-34066666D01*
X10192508Y-34033729D01*
X10192505Y-34033728D01*
X10156399Y-34014429D01*
X10092443Y-33980244D01*
X10004736Y-33908264D01*
X9932756Y-33820556D01*
X9889239Y-33739140D01*
X9875625Y-33718766D01*
X9858298Y-33701439D01*
X9837924Y-33687825D01*
X9815285Y-33678448D01*
X9791251Y-33673668D01*
X9766747Y-33673668D01*
X9742714Y-33678449D01*
X9720075Y-33687826D01*
X9699701Y-33701440D01*
X9682374Y-33718767D01*
X9668762Y-33739140D01*
X9625244Y-33820557D01*
X9553264Y-33908264D01*
X9465556Y-33980244D01*
X9401600Y-34014429D01*
X9365494Y-34033728D01*
X9365491Y-34033729D01*
X9256915Y-34066666D01*
X9144000Y-34077787D01*
X9031084Y-34066666D01*
X8922508Y-34033729D01*
X8922505Y-34033728D01*
X8886399Y-34014429D01*
X8822443Y-33980244D01*
X8734736Y-33908264D01*
X8662756Y-33820556D01*
X8619239Y-33739140D01*
X8609272Y-33720494D01*
X8603492Y-33701440D01*
X8576334Y-33611915D01*
X8568000Y-33527297D01*
X8568000Y-33020702D01*
X8576334Y-32936084D01*
X8609271Y-32827508D01*
X8609272Y-32827505D01*
X8662756Y-32727445D01*
X8662757Y-32727443D01*
X8734737Y-32639736D01*
X8822444Y-32567756D01*
X8886400Y-32533571D01*
X8922506Y-32514272D01*
X8922509Y-32514271D01*
X9031085Y-32481334D01*
X9144000Y-32470213D01*
X9256916Y-32481334D01*
X9365492Y-32514271D01*
X9365495Y-32514272D01*
X9401601Y-32533571D01*
X9465557Y-32567756D01*
X9553264Y-32639736D01*
X9625244Y-32727443D01*
X9641019Y-32756957D01*
X9668761Y-32808859D01*
X9682375Y-32829234D01*
X9699702Y-32846561D01*
X9720076Y-32860174D01*
X9742715Y-32869552D01*
X9766748Y-32874332D01*
X9791252Y-32874332D01*
X9815285Y-32869552D01*
X9837924Y-32860174D01*
X9858299Y-32846560D01*
X9875626Y-32829233D01*
X9889239Y-32808859D01*
X9932756Y-32727445D01*
X9932757Y-32727443D01*
X10004737Y-32639736D01*
X10092444Y-32567756D01*
X10156400Y-32533571D01*
X10192506Y-32514272D01*
X10192509Y-32514271D01*
X10301085Y-32481334D01*
X10414000Y-32470213D01*
X10526916Y-32481334D01*
G37*
G36*
X21953590Y-30345147D02*
G01*
X22106812Y-30375624D01*
X22270784Y-30443544D01*
X22418354Y-30542147D01*
X22543853Y-30667646D01*
X22642456Y-30815216D01*
X22710376Y-30979188D01*
X22745000Y-31153259D01*
X22745000Y-31330741D01*
X22710376Y-31504812D01*
X22642456Y-31668784D01*
X22543853Y-31816354D01*
X22418354Y-31941853D01*
X22270784Y-32040456D01*
X22106812Y-32108376D01*
X21957512Y-32138073D01*
X21932742Y-32143000D01*
X21755258Y-32143000D01*
X21730488Y-32138073D01*
X21581188Y-32108376D01*
X21417216Y-32040456D01*
X21269646Y-31941853D01*
X21144147Y-31816354D01*
X21045544Y-31668784D01*
X20977624Y-31504812D01*
X20943000Y-31330741D01*
X20943000Y-31153259D01*
X20977624Y-30979188D01*
X21045544Y-30815216D01*
X21144147Y-30667646D01*
X21269646Y-30542147D01*
X21417216Y-30443544D01*
X21581188Y-30375624D01*
X21734410Y-30345147D01*
X21755258Y-30341000D01*
X21932742Y-30341000D01*
X21953590Y-30345147D01*
G37*
G36*
X15343512Y-30333927D02*
G01*
X15492812Y-30363624D01*
X15656784Y-30431544D01*
X15804354Y-30530147D01*
X15929853Y-30655646D01*
X16028456Y-30803216D01*
X16096376Y-30967188D01*
X16131000Y-31141259D01*
X16131000Y-31318741D01*
X16096376Y-31492812D01*
X16028456Y-31656784D01*
X15929853Y-31804354D01*
X15804354Y-31929853D01*
X15656784Y-32028456D01*
X15492812Y-32096376D01*
X15343512Y-32126073D01*
X15318742Y-32131000D01*
X15141258Y-32131000D01*
X15116488Y-32126073D01*
X14967188Y-32096376D01*
X14803216Y-32028456D01*
X14655646Y-31929853D01*
X14530147Y-31804354D01*
X14431544Y-31656784D01*
X14363624Y-31492812D01*
X14329000Y-31318741D01*
X14329000Y-31141259D01*
X14363624Y-30967188D01*
X14431544Y-30803216D01*
X14530147Y-30655646D01*
X14655646Y-30530147D01*
X14803216Y-30431544D01*
X14967188Y-30363624D01*
X15116488Y-30333927D01*
X15141258Y-30329000D01*
X15318742Y-30329000D01*
X15343512Y-30333927D01*
G37*
G36*
X17883512Y-30333927D02*
G01*
X18032812Y-30363624D01*
X18196784Y-30431544D01*
X18344354Y-30530147D01*
X18469853Y-30655646D01*
X18568456Y-30803216D01*
X18636376Y-30967188D01*
X18671000Y-31141259D01*
X18671000Y-31318741D01*
X18636376Y-31492812D01*
X18568456Y-31656784D01*
X18469853Y-31804354D01*
X18344354Y-31929853D01*
X18196784Y-32028456D01*
X18032812Y-32096376D01*
X17883512Y-32126073D01*
X17858742Y-32131000D01*
X17681258Y-32131000D01*
X17656488Y-32126073D01*
X17507188Y-32096376D01*
X17343216Y-32028456D01*
X17195646Y-31929853D01*
X17070147Y-31804354D01*
X16971544Y-31656784D01*
X16903624Y-31492812D01*
X16869000Y-31318741D01*
X16869000Y-31141259D01*
X16903624Y-30967188D01*
X16971544Y-30803216D01*
X17070147Y-30655646D01*
X17195646Y-30530147D01*
X17343216Y-30431544D01*
X17507188Y-30363624D01*
X17656488Y-30333927D01*
X17681258Y-30329000D01*
X17858742Y-30329000D01*
X17883512Y-30333927D01*
G37*
G36*
X11424228Y-28772703D02*
G01*
X11579100Y-28836853D01*
X11718481Y-28929985D01*
X11837015Y-29048519D01*
X11930147Y-29187900D01*
X11994297Y-29342772D01*
X12027000Y-29507184D01*
X12027000Y-29674816D01*
X11994297Y-29839228D01*
X11930147Y-29994100D01*
X11837015Y-30133481D01*
X11718481Y-30252015D01*
X11579100Y-30345147D01*
X11424228Y-30409297D01*
X11259816Y-30442000D01*
X11092184Y-30442000D01*
X10927772Y-30409297D01*
X10772900Y-30345147D01*
X10633519Y-30252015D01*
X10514985Y-30133481D01*
X10421853Y-29994100D01*
X10357703Y-29839228D01*
X10325000Y-29674816D01*
X10325000Y-29507184D01*
X10357703Y-29342772D01*
X10421853Y-29187900D01*
X10514985Y-29048519D01*
X10633519Y-28929985D01*
X10772900Y-28836853D01*
X10927772Y-28772703D01*
X11092184Y-28740000D01*
X11259816Y-28740000D01*
X11424228Y-28772703D01*
G37*
G36*
X3804228Y-28772703D02*
G01*
X3959100Y-28836853D01*
X4098481Y-28929985D01*
X4217015Y-29048519D01*
X4310147Y-29187900D01*
X4374297Y-29342772D01*
X4407000Y-29507184D01*
X4407000Y-29674816D01*
X4374297Y-29839228D01*
X4310147Y-29994100D01*
X4217015Y-30133481D01*
X4098481Y-30252015D01*
X3959100Y-30345147D01*
X3804228Y-30409297D01*
X3639816Y-30442000D01*
X3472184Y-30442000D01*
X3307772Y-30409297D01*
X3152900Y-30345147D01*
X3013519Y-30252015D01*
X2894985Y-30133481D01*
X2801853Y-29994100D01*
X2737703Y-29839228D01*
X2705000Y-29674816D01*
X2705000Y-29507184D01*
X2737703Y-29342772D01*
X2801853Y-29187900D01*
X2894985Y-29048519D01*
X3013519Y-28929985D01*
X3152900Y-28836853D01*
X3307772Y-28772703D01*
X3472184Y-28740000D01*
X3639816Y-28740000D01*
X3804228Y-28772703D01*
G37*
G36*
X21957512Y-27805927D02*
G01*
X22106812Y-27835624D01*
X22270784Y-27903544D01*
X22418354Y-28002147D01*
X22543853Y-28127646D01*
X22642456Y-28275216D01*
X22710376Y-28439188D01*
X22745000Y-28613259D01*
X22745000Y-28790741D01*
X22710376Y-28964812D01*
X22642456Y-29128784D01*
X22543853Y-29276354D01*
X22418354Y-29401853D01*
X22270784Y-29500456D01*
X22106812Y-29568376D01*
X21957512Y-29598073D01*
X21932742Y-29603000D01*
X21755258Y-29603000D01*
X21730488Y-29598073D01*
X21581188Y-29568376D01*
X21417216Y-29500456D01*
X21269646Y-29401853D01*
X21144147Y-29276354D01*
X21045544Y-29128784D01*
X20977624Y-28964812D01*
X20943000Y-28790741D01*
X20943000Y-28613259D01*
X20977624Y-28439188D01*
X21045544Y-28275216D01*
X21144147Y-28127646D01*
X21269646Y-28002147D01*
X21417216Y-27903544D01*
X21581188Y-27835624D01*
X21730488Y-27805927D01*
X21755258Y-27801000D01*
X21932742Y-27801000D01*
X21957512Y-27805927D01*
G37*
G36*
X15343512Y-27793927D02*
G01*
X15492812Y-27823624D01*
X15656784Y-27891544D01*
X15804354Y-27990147D01*
X15929853Y-28115646D01*
X16028456Y-28263216D01*
X16096376Y-28427188D01*
X16131000Y-28601259D01*
X16131000Y-28778741D01*
X16096376Y-28952812D01*
X16028456Y-29116784D01*
X15929853Y-29264354D01*
X15804354Y-29389853D01*
X15656784Y-29488456D01*
X15492812Y-29556376D01*
X15343512Y-29586073D01*
X15318742Y-29591000D01*
X15141258Y-29591000D01*
X15116488Y-29586073D01*
X14967188Y-29556376D01*
X14803216Y-29488456D01*
X14655646Y-29389853D01*
X14530147Y-29264354D01*
X14431544Y-29116784D01*
X14363624Y-28952812D01*
X14329000Y-28778741D01*
X14329000Y-28601259D01*
X14363624Y-28427188D01*
X14431544Y-28263216D01*
X14530147Y-28115646D01*
X14655646Y-27990147D01*
X14803216Y-27891544D01*
X14967188Y-27823624D01*
X15116488Y-27793927D01*
X15141258Y-27789000D01*
X15318742Y-27789000D01*
X15343512Y-27793927D01*
G37*
G36*
X17883512Y-27793927D02*
G01*
X18032812Y-27823624D01*
X18196784Y-27891544D01*
X18344354Y-27990147D01*
X18469853Y-28115646D01*
X18568456Y-28263216D01*
X18636376Y-28427188D01*
X18671000Y-28601259D01*
X18671000Y-28778741D01*
X18636376Y-28952812D01*
X18568456Y-29116784D01*
X18469853Y-29264354D01*
X18344354Y-29389853D01*
X18196784Y-29488456D01*
X18032812Y-29556376D01*
X17883512Y-29586073D01*
X17858742Y-29591000D01*
X17681258Y-29591000D01*
X17656488Y-29586073D01*
X17507188Y-29556376D01*
X17343216Y-29488456D01*
X17195646Y-29389853D01*
X17070147Y-29264354D01*
X16971544Y-29116784D01*
X16903624Y-28952812D01*
X16869000Y-28778741D01*
X16869000Y-28601259D01*
X16903624Y-28427188D01*
X16971544Y-28263216D01*
X17070147Y-28115646D01*
X17195646Y-27990147D01*
X17343216Y-27891544D01*
X17507188Y-27823624D01*
X17656488Y-27793927D01*
X17681258Y-27789000D01*
X17858742Y-27789000D01*
X17883512Y-27793927D01*
G37*
G36*
X15343512Y-25253927D02*
G01*
X15492812Y-25283624D01*
X15656784Y-25351544D01*
X15804354Y-25450147D01*
X15929853Y-25575646D01*
X16028456Y-25723216D01*
X16096376Y-25887188D01*
X16131000Y-26061259D01*
X16131000Y-26238741D01*
X16096376Y-26412812D01*
X16028456Y-26576784D01*
X15929853Y-26724354D01*
X15804354Y-26849853D01*
X15656784Y-26948456D01*
X15492812Y-27016376D01*
X15343512Y-27046073D01*
X15318742Y-27051000D01*
X15141258Y-27051000D01*
X15116488Y-27046073D01*
X14967188Y-27016376D01*
X14803216Y-26948456D01*
X14655646Y-26849853D01*
X14530147Y-26724354D01*
X14431544Y-26576784D01*
X14363624Y-26412812D01*
X14329000Y-26238741D01*
X14329000Y-26061259D01*
X14363624Y-25887188D01*
X14431544Y-25723216D01*
X14530147Y-25575646D01*
X14655646Y-25450147D01*
X14803216Y-25351544D01*
X14967188Y-25283624D01*
X15116488Y-25253927D01*
X15141258Y-25249000D01*
X15318742Y-25249000D01*
X15343512Y-25253927D01*
G37*
G36*
X17883512Y-25253927D02*
G01*
X18032812Y-25283624D01*
X18196784Y-25351544D01*
X18344354Y-25450147D01*
X18469853Y-25575646D01*
X18568456Y-25723216D01*
X18636376Y-25887188D01*
X18671000Y-26061259D01*
X18671000Y-26238741D01*
X18636376Y-26412812D01*
X18568456Y-26576784D01*
X18469853Y-26724354D01*
X18344354Y-26849853D01*
X18196784Y-26948456D01*
X18032812Y-27016376D01*
X17883512Y-27046073D01*
X17858742Y-27051000D01*
X17681258Y-27051000D01*
X17656488Y-27046073D01*
X17507188Y-27016376D01*
X17343216Y-26948456D01*
X17195646Y-26849853D01*
X17070147Y-26724354D01*
X16971544Y-26576784D01*
X16903624Y-26412812D01*
X16869000Y-26238741D01*
X16869000Y-26061259D01*
X16903624Y-25887188D01*
X16971544Y-25723216D01*
X17070147Y-25575646D01*
X17195646Y-25450147D01*
X17343216Y-25351544D01*
X17507188Y-25283624D01*
X17656488Y-25253927D01*
X17681258Y-25249000D01*
X17858742Y-25249000D01*
X17883512Y-25253927D01*
G37*
G36*
X17883512Y-22713927D02*
G01*
X18032812Y-22743624D01*
X18196784Y-22811544D01*
X18344354Y-22910147D01*
X18469853Y-23035646D01*
X18568456Y-23183216D01*
X18636376Y-23347188D01*
X18666073Y-23496488D01*
X18667530Y-23503811D01*
X18671000Y-23521259D01*
X18671000Y-23698741D01*
X18636376Y-23872812D01*
X18568456Y-24036784D01*
X18469853Y-24184354D01*
X18344354Y-24309853D01*
X18196784Y-24408456D01*
X18032812Y-24476376D01*
X17883512Y-24506073D01*
X17858742Y-24511000D01*
X17681258Y-24511000D01*
X17656488Y-24506073D01*
X17507188Y-24476376D01*
X17343216Y-24408456D01*
X17195646Y-24309853D01*
X17070147Y-24184354D01*
X16971544Y-24036784D01*
X16903624Y-23872812D01*
X16869000Y-23698741D01*
X16869000Y-23521259D01*
X16872471Y-23503811D01*
X16873927Y-23496488D01*
X16903624Y-23347188D01*
X16971544Y-23183216D01*
X17070147Y-23035646D01*
X17195646Y-22910147D01*
X17343216Y-22811544D01*
X17507188Y-22743624D01*
X17656488Y-22713927D01*
X17681258Y-22709000D01*
X17858742Y-22709000D01*
X17883512Y-22713927D01*
G37*
G36*
X15343512Y-22713927D02*
G01*
X15492812Y-22743624D01*
X15656784Y-22811544D01*
X15804354Y-22910147D01*
X15929853Y-23035646D01*
X16028456Y-23183216D01*
X16096376Y-23347188D01*
X16126073Y-23496488D01*
X16127530Y-23503811D01*
X16131000Y-23521259D01*
X16131000Y-23698741D01*
X16096376Y-23872812D01*
X16028456Y-24036784D01*
X15929853Y-24184354D01*
X15804354Y-24309853D01*
X15656784Y-24408456D01*
X15492812Y-24476376D01*
X15343512Y-24506073D01*
X15318742Y-24511000D01*
X15141258Y-24511000D01*
X15116488Y-24506073D01*
X14967188Y-24476376D01*
X14803216Y-24408456D01*
X14655646Y-24309853D01*
X14530147Y-24184354D01*
X14431544Y-24036784D01*
X14363624Y-23872812D01*
X14329000Y-23698741D01*
X14329000Y-23521259D01*
X14332471Y-23503811D01*
X14333927Y-23496488D01*
X14363624Y-23347188D01*
X14431544Y-23183216D01*
X14530147Y-23035646D01*
X14655646Y-22910147D01*
X14803216Y-22811544D01*
X14967188Y-22743624D01*
X15116488Y-22713927D01*
X15141258Y-22709000D01*
X15318742Y-22709000D01*
X15343512Y-22713927D01*
G37*
G36*
X3542512Y-22344927D02*
G01*
X3691812Y-22374624D01*
X3855784Y-22442544D01*
X4003354Y-22541147D01*
X4128853Y-22666646D01*
X4227456Y-22814216D01*
X4295376Y-22978188D01*
X4325073Y-23127488D01*
X4330000Y-23152258D01*
X4330000Y-23329742D01*
X4325073Y-23354512D01*
X4295376Y-23503812D01*
X4227456Y-23667784D01*
X4128853Y-23815354D01*
X4003354Y-23940853D01*
X3855784Y-24039456D01*
X3691812Y-24107376D01*
X3542512Y-24137073D01*
X3517742Y-24142000D01*
X3340258Y-24142000D01*
X3315488Y-24137073D01*
X3166188Y-24107376D01*
X3002216Y-24039456D01*
X2854646Y-23940853D01*
X2729147Y-23815354D01*
X2630544Y-23667784D01*
X2562624Y-23503812D01*
X2532927Y-23354512D01*
X2528000Y-23329742D01*
X2528000Y-23152258D01*
X2532927Y-23127488D01*
X2562624Y-22978188D01*
X2630544Y-22814216D01*
X2729147Y-22666646D01*
X2854646Y-22541147D01*
X3002216Y-22442544D01*
X3166188Y-22374624D01*
X3315488Y-22344927D01*
X3340258Y-22340000D01*
X3517742Y-22340000D01*
X3542512Y-22344927D01*
G37*
G36*
X9130512Y-22344927D02*
G01*
X9279812Y-22374624D01*
X9443784Y-22442544D01*
X9591354Y-22541147D01*
X9716853Y-22666646D01*
X9815456Y-22814216D01*
X9883376Y-22978188D01*
X9913073Y-23127488D01*
X9918000Y-23152258D01*
X9918000Y-23329742D01*
X9913073Y-23354512D01*
X9883376Y-23503812D01*
X9815456Y-23667784D01*
X9716853Y-23815354D01*
X9591354Y-23940853D01*
X9443784Y-24039456D01*
X9279812Y-24107376D01*
X9130512Y-24137073D01*
X9105742Y-24142000D01*
X8928258Y-24142000D01*
X8903488Y-24137073D01*
X8754188Y-24107376D01*
X8590216Y-24039456D01*
X8442646Y-23940853D01*
X8317147Y-23815354D01*
X8218544Y-23667784D01*
X8150624Y-23503812D01*
X8120927Y-23354512D01*
X8116000Y-23329742D01*
X8116000Y-23152258D01*
X8120927Y-23127488D01*
X8150624Y-22978188D01*
X8218544Y-22814216D01*
X8317147Y-22666646D01*
X8442646Y-22541147D01*
X8590216Y-22442544D01*
X8754188Y-22374624D01*
X8903488Y-22344927D01*
X8928258Y-22340000D01*
X9105742Y-22340000D01*
X9130512Y-22344927D01*
G37*
G36*
X6336512Y-22344927D02*
G01*
X6485812Y-22374624D01*
X6649784Y-22442544D01*
X6797354Y-22541147D01*
X6922853Y-22666646D01*
X7021456Y-22814216D01*
X7089376Y-22978188D01*
X7119073Y-23127488D01*
X7124000Y-23152258D01*
X7124000Y-23329742D01*
X7119073Y-23354512D01*
X7089376Y-23503812D01*
X7021456Y-23667784D01*
X6922853Y-23815354D01*
X6797354Y-23940853D01*
X6649784Y-24039456D01*
X6485812Y-24107376D01*
X6336512Y-24137073D01*
X6311742Y-24142000D01*
X6134258Y-24142000D01*
X6109488Y-24137073D01*
X5960188Y-24107376D01*
X5796216Y-24039456D01*
X5648646Y-23940853D01*
X5523147Y-23815354D01*
X5424544Y-23667784D01*
X5356624Y-23503812D01*
X5326927Y-23354512D01*
X5322000Y-23329742D01*
X5322000Y-23152258D01*
X5326927Y-23127488D01*
X5356624Y-22978188D01*
X5424544Y-22814216D01*
X5523147Y-22666646D01*
X5648646Y-22541147D01*
X5796216Y-22442544D01*
X5960188Y-22374624D01*
X6109488Y-22344927D01*
X6134258Y-22340000D01*
X6311742Y-22340000D01*
X6336512Y-22344927D01*
G37*
G36*
X15343512Y-20173927D02*
G01*
X15492812Y-20203624D01*
X15656784Y-20271544D01*
X15804354Y-20370147D01*
X15929853Y-20495646D01*
X16028456Y-20643216D01*
X16096376Y-20807188D01*
X16126073Y-20956488D01*
X16127530Y-20963811D01*
X16131000Y-20981259D01*
X16131000Y-21158741D01*
X16096376Y-21332812D01*
X16028456Y-21496784D01*
X15929853Y-21644354D01*
X15804354Y-21769853D01*
X15656784Y-21868456D01*
X15492812Y-21936376D01*
X15343512Y-21966073D01*
X15318742Y-21971000D01*
X15141258Y-21971000D01*
X15116488Y-21966073D01*
X14967188Y-21936376D01*
X14803216Y-21868456D01*
X14655646Y-21769853D01*
X14530147Y-21644354D01*
X14431544Y-21496784D01*
X14363624Y-21332812D01*
X14329000Y-21158741D01*
X14329000Y-20981259D01*
X14332471Y-20963811D01*
X14333927Y-20956488D01*
X14363624Y-20807188D01*
X14431544Y-20643216D01*
X14530147Y-20495646D01*
X14655646Y-20370147D01*
X14803216Y-20271544D01*
X14967188Y-20203624D01*
X15116488Y-20173927D01*
X15141258Y-20169000D01*
X15318742Y-20169000D01*
X15343512Y-20173927D01*
G37*
G36*
X17883512Y-20173927D02*
G01*
X18032812Y-20203624D01*
X18196784Y-20271544D01*
X18344354Y-20370147D01*
X18469853Y-20495646D01*
X18568456Y-20643216D01*
X18636376Y-20807188D01*
X18666073Y-20956488D01*
X18667530Y-20963811D01*
X18671000Y-20981259D01*
X18671000Y-21158741D01*
X18636376Y-21332812D01*
X18568456Y-21496784D01*
X18469853Y-21644354D01*
X18344354Y-21769853D01*
X18196784Y-21868456D01*
X18032812Y-21936376D01*
X17883512Y-21966073D01*
X17858742Y-21971000D01*
X17681258Y-21971000D01*
X17656488Y-21966073D01*
X17507188Y-21936376D01*
X17343216Y-21868456D01*
X17195646Y-21769853D01*
X17070147Y-21644354D01*
X16971544Y-21496784D01*
X16903624Y-21332812D01*
X16869000Y-21158741D01*
X16869000Y-20981259D01*
X16872471Y-20963811D01*
X16873927Y-20956488D01*
X16903624Y-20807188D01*
X16971544Y-20643216D01*
X17070147Y-20495646D01*
X17195646Y-20370147D01*
X17343216Y-20271544D01*
X17507188Y-20203624D01*
X17656488Y-20173927D01*
X17681258Y-20169000D01*
X17858742Y-20169000D01*
X17883512Y-20173927D01*
G37*
G36*
X6336512Y-19804927D02*
G01*
X6485812Y-19834624D01*
X6649784Y-19902544D01*
X6797354Y-20001147D01*
X6922853Y-20126646D01*
X7021456Y-20274216D01*
X7089376Y-20438188D01*
X7119073Y-20587488D01*
X7124000Y-20612258D01*
X7124000Y-20789742D01*
X7119073Y-20814512D01*
X7089376Y-20963812D01*
X7021456Y-21127784D01*
X6922853Y-21275354D01*
X6797354Y-21400853D01*
X6649784Y-21499456D01*
X6485812Y-21567376D01*
X6336512Y-21597073D01*
X6311742Y-21602000D01*
X6134258Y-21602000D01*
X6109488Y-21597073D01*
X5960188Y-21567376D01*
X5796216Y-21499456D01*
X5648646Y-21400853D01*
X5523147Y-21275354D01*
X5424544Y-21127784D01*
X5356624Y-20963812D01*
X5326927Y-20814512D01*
X5322000Y-20789742D01*
X5322000Y-20612258D01*
X5326927Y-20587488D01*
X5356624Y-20438188D01*
X5424544Y-20274216D01*
X5523147Y-20126646D01*
X5648646Y-20001147D01*
X5796216Y-19902544D01*
X5960188Y-19834624D01*
X6109488Y-19804927D01*
X6134258Y-19800000D01*
X6311742Y-19800000D01*
X6336512Y-19804927D01*
G37*
G36*
X3542512Y-19804927D02*
G01*
X3691812Y-19834624D01*
X3855784Y-19902544D01*
X4003354Y-20001147D01*
X4128853Y-20126646D01*
X4227456Y-20274216D01*
X4295376Y-20438188D01*
X4325073Y-20587488D01*
X4330000Y-20612258D01*
X4330000Y-20789742D01*
X4325073Y-20814512D01*
X4295376Y-20963812D01*
X4227456Y-21127784D01*
X4128853Y-21275354D01*
X4003354Y-21400853D01*
X3855784Y-21499456D01*
X3691812Y-21567376D01*
X3542512Y-21597073D01*
X3517742Y-21602000D01*
X3340258Y-21602000D01*
X3315488Y-21597073D01*
X3166188Y-21567376D01*
X3002216Y-21499456D01*
X2854646Y-21400853D01*
X2729147Y-21275354D01*
X2630544Y-21127784D01*
X2562624Y-20963812D01*
X2532927Y-20814512D01*
X2528000Y-20789742D01*
X2528000Y-20612258D01*
X2532927Y-20587488D01*
X2562624Y-20438188D01*
X2630544Y-20274216D01*
X2729147Y-20126646D01*
X2854646Y-20001147D01*
X3002216Y-19902544D01*
X3166188Y-19834624D01*
X3315488Y-19804927D01*
X3340258Y-19800000D01*
X3517742Y-19800000D01*
X3542512Y-19804927D01*
G37*
G36*
X9130512Y-19804927D02*
G01*
X9279812Y-19834624D01*
X9443784Y-19902544D01*
X9591354Y-20001147D01*
X9716853Y-20126646D01*
X9815456Y-20274216D01*
X9883376Y-20438188D01*
X9913073Y-20587488D01*
X9918000Y-20612258D01*
X9918000Y-20789742D01*
X9913073Y-20814512D01*
X9883376Y-20963812D01*
X9815456Y-21127784D01*
X9716853Y-21275354D01*
X9591354Y-21400853D01*
X9443784Y-21499456D01*
X9279812Y-21567376D01*
X9130512Y-21597073D01*
X9105742Y-21602000D01*
X8928258Y-21602000D01*
X8903488Y-21597073D01*
X8754188Y-21567376D01*
X8590216Y-21499456D01*
X8442646Y-21400853D01*
X8317147Y-21275354D01*
X8218544Y-21127784D01*
X8150624Y-20963812D01*
X8120927Y-20814512D01*
X8116000Y-20789742D01*
X8116000Y-20612258D01*
X8120927Y-20587488D01*
X8150624Y-20438188D01*
X8218544Y-20274216D01*
X8317147Y-20126646D01*
X8442646Y-20001147D01*
X8590216Y-19902544D01*
X8754188Y-19834624D01*
X8903488Y-19804927D01*
X8928258Y-19800000D01*
X9105742Y-19800000D01*
X9130512Y-19804927D01*
G37*
G36*
X17883512Y-17633927D02*
G01*
X18032812Y-17663624D01*
X18196784Y-17731544D01*
X18344354Y-17830147D01*
X18469853Y-17955646D01*
X18568456Y-18103216D01*
X18636376Y-18267188D01*
X18671000Y-18441259D01*
X18671000Y-18618741D01*
X18636376Y-18792812D01*
X18568456Y-18956784D01*
X18469853Y-19104354D01*
X18344354Y-19229853D01*
X18196784Y-19328456D01*
X18032812Y-19396376D01*
X17883512Y-19426073D01*
X17858742Y-19431000D01*
X17681258Y-19431000D01*
X17656488Y-19426073D01*
X17507188Y-19396376D01*
X17343216Y-19328456D01*
X17195646Y-19229853D01*
X17070147Y-19104354D01*
X16971544Y-18956784D01*
X16903624Y-18792812D01*
X16869000Y-18618741D01*
X16869000Y-18441259D01*
X16903624Y-18267188D01*
X16971544Y-18103216D01*
X17070147Y-17955646D01*
X17195646Y-17830147D01*
X17343216Y-17731544D01*
X17507188Y-17663624D01*
X17656488Y-17633927D01*
X17681258Y-17629000D01*
X17858742Y-17629000D01*
X17883512Y-17633927D01*
G37*
G36*
X15343512Y-17633927D02*
G01*
X15492812Y-17663624D01*
X15656784Y-17731544D01*
X15804354Y-17830147D01*
X15929853Y-17955646D01*
X16028456Y-18103216D01*
X16096376Y-18267188D01*
X16131000Y-18441259D01*
X16131000Y-18618741D01*
X16096376Y-18792812D01*
X16028456Y-18956784D01*
X15929853Y-19104354D01*
X15804354Y-19229853D01*
X15656784Y-19328456D01*
X15492812Y-19396376D01*
X15343512Y-19426073D01*
X15318742Y-19431000D01*
X15141258Y-19431000D01*
X15116488Y-19426073D01*
X14967188Y-19396376D01*
X14803216Y-19328456D01*
X14655646Y-19229853D01*
X14530147Y-19104354D01*
X14431544Y-18956784D01*
X14363624Y-18792812D01*
X14329000Y-18618741D01*
X14329000Y-18441259D01*
X14363624Y-18267188D01*
X14431544Y-18103216D01*
X14530147Y-17955646D01*
X14655646Y-17830147D01*
X14803216Y-17731544D01*
X14967188Y-17663624D01*
X15116488Y-17633927D01*
X15141258Y-17629000D01*
X15318742Y-17629000D01*
X15343512Y-17633927D01*
G37*
G36*
X9918000Y-19062000D02*
G01*
X8116000Y-19062000D01*
X8116000Y-17260000D01*
X9918000Y-17260000D01*
X9918000Y-19062000D01*
G37*
G36*
X4330000Y-19062000D02*
G01*
X2528000Y-19062000D01*
X2528000Y-17260000D01*
X4330000Y-17260000D01*
X4330000Y-19062000D01*
G37*
G36*
X7124000Y-19062000D02*
G01*
X5322000Y-19062000D01*
X5322000Y-17260000D01*
X7124000Y-17260000D01*
X7124000Y-19062000D01*
G37*
G36*
X17877383Y-15092708D02*
G01*
X18032812Y-15123624D01*
X18196784Y-15191544D01*
X18344354Y-15290147D01*
X18469853Y-15415646D01*
X18568456Y-15563216D01*
X18636376Y-15727188D01*
X18671000Y-15901259D01*
X18671000Y-16078741D01*
X18636376Y-16252812D01*
X18568456Y-16416784D01*
X18469853Y-16564354D01*
X18344354Y-16689853D01*
X18196784Y-16788456D01*
X18032812Y-16856376D01*
X17883512Y-16886073D01*
X17858742Y-16891000D01*
X17681258Y-16891000D01*
X17656488Y-16886073D01*
X17507188Y-16856376D01*
X17343216Y-16788456D01*
X17195646Y-16689853D01*
X17070147Y-16564354D01*
X16971544Y-16416784D01*
X16903624Y-16252812D01*
X16869000Y-16078741D01*
X16869000Y-15901259D01*
X16903624Y-15727188D01*
X16971544Y-15563216D01*
X17070147Y-15415646D01*
X17195646Y-15290147D01*
X17343216Y-15191544D01*
X17507188Y-15123624D01*
X17662617Y-15092708D01*
X17681258Y-15089000D01*
X17858742Y-15089000D01*
X17877383Y-15092708D01*
G37*
G36*
X15337383Y-15092708D02*
G01*
X15492812Y-15123624D01*
X15656784Y-15191544D01*
X15804354Y-15290147D01*
X15929853Y-15415646D01*
X16028456Y-15563216D01*
X16096376Y-15727188D01*
X16131000Y-15901259D01*
X16131000Y-16078741D01*
X16096376Y-16252812D01*
X16028456Y-16416784D01*
X15929853Y-16564354D01*
X15804354Y-16689853D01*
X15656784Y-16788456D01*
X15492812Y-16856376D01*
X15343512Y-16886073D01*
X15318742Y-16891000D01*
X15141258Y-16891000D01*
X15116488Y-16886073D01*
X14967188Y-16856376D01*
X14803216Y-16788456D01*
X14655646Y-16689853D01*
X14530147Y-16564354D01*
X14431544Y-16416784D01*
X14363624Y-16252812D01*
X14329000Y-16078741D01*
X14329000Y-15901259D01*
X14363624Y-15727188D01*
X14431544Y-15563216D01*
X14530147Y-15415646D01*
X14655646Y-15290147D01*
X14803216Y-15191544D01*
X14967188Y-15123624D01*
X15122617Y-15092708D01*
X15141258Y-15089000D01*
X15318742Y-15089000D01*
X15337383Y-15092708D01*
G37*
G36*
X73916627Y-13084037D02*
G01*
X74086466Y-13135557D01*
X74242991Y-13219222D01*
X74278729Y-13248552D01*
X74380186Y-13331814D01*
X74457043Y-13425466D01*
X74492778Y-13469009D01*
X74576443Y-13625534D01*
X74627963Y-13795374D01*
X74632122Y-13837600D01*
X74639789Y-13915442D01*
X74641000Y-13927743D01*
X74641000Y-14266258D01*
X74627963Y-14398627D01*
X74576443Y-14568466D01*
X74492778Y-14724991D01*
X74463448Y-14760729D01*
X74380186Y-14862186D01*
X74242989Y-14974779D01*
X74086467Y-15058442D01*
X74086465Y-15058443D01*
X73916626Y-15109963D01*
X73740000Y-15127359D01*
X73563373Y-15109963D01*
X73393534Y-15058443D01*
X73237009Y-14974778D01*
X73194750Y-14940097D01*
X73099814Y-14862186D01*
X72987221Y-14724989D01*
X72903558Y-14568467D01*
X72903557Y-14568465D01*
X72852037Y-14398626D01*
X72839000Y-14266257D01*
X72839000Y-13927742D01*
X72841498Y-13902383D01*
X72848451Y-13831779D01*
X72852037Y-13795373D01*
X72903557Y-13625534D01*
X72987222Y-13469009D01*
X73099815Y-13331815D01*
X73237010Y-13219222D01*
X73393535Y-13135557D01*
X73563374Y-13084037D01*
X73740000Y-13066641D01*
X73916627Y-13084037D01*
G37*
G36*
X76416627Y-13084037D02*
G01*
X76586466Y-13135557D01*
X76742991Y-13219222D01*
X76778729Y-13248552D01*
X76880186Y-13331814D01*
X76957043Y-13425466D01*
X76992778Y-13469009D01*
X77076443Y-13625534D01*
X77127963Y-13795374D01*
X77132122Y-13837600D01*
X77139789Y-13915442D01*
X77141000Y-13927743D01*
X77141000Y-14266258D01*
X77127963Y-14398627D01*
X77076443Y-14568466D01*
X76992778Y-14724991D01*
X76963448Y-14760729D01*
X76880186Y-14862186D01*
X76742989Y-14974779D01*
X76586467Y-15058442D01*
X76586465Y-15058443D01*
X76416626Y-15109963D01*
X76240000Y-15127359D01*
X76063373Y-15109963D01*
X75893534Y-15058443D01*
X75737009Y-14974778D01*
X75694750Y-14940097D01*
X75599814Y-14862186D01*
X75487221Y-14724989D01*
X75403558Y-14568467D01*
X75403557Y-14568465D01*
X75352037Y-14398626D01*
X75339000Y-14266257D01*
X75339000Y-13927742D01*
X75341498Y-13902383D01*
X75348451Y-13831779D01*
X75352037Y-13795373D01*
X75403557Y-13625534D01*
X75487222Y-13469009D01*
X75599815Y-13331815D01*
X75737010Y-13219222D01*
X75893535Y-13135557D01*
X76063374Y-13084037D01*
X76240000Y-13066641D01*
X76416627Y-13084037D01*
G37*
G36*
X79498600Y-13074989D02*
G01*
X79531652Y-13085015D01*
X79562103Y-13101292D01*
X79588799Y-13123201D01*
X79610708Y-13149897D01*
X79626985Y-13180348D01*
X79637011Y-13213400D01*
X79641000Y-13253903D01*
X79641000Y-14940097D01*
X79637011Y-14980600D01*
X79626985Y-15013652D01*
X79610708Y-15044103D01*
X79588799Y-15070799D01*
X79562103Y-15092708D01*
X79531652Y-15108985D01*
X79498600Y-15119011D01*
X79458097Y-15123000D01*
X78021903Y-15123000D01*
X77981400Y-15119011D01*
X77948348Y-15108985D01*
X77917897Y-15092708D01*
X77891201Y-15070799D01*
X77869292Y-15044103D01*
X77853015Y-15013652D01*
X77842989Y-14980600D01*
X77839000Y-14940097D01*
X77839000Y-13253903D01*
X77842989Y-13213400D01*
X77853015Y-13180348D01*
X77869292Y-13149897D01*
X77891201Y-13123201D01*
X77917897Y-13101292D01*
X77948348Y-13085015D01*
X77981400Y-13074989D01*
X78021903Y-13071000D01*
X79458097Y-13071000D01*
X79498600Y-13074989D01*
G37*
G36*
X15343512Y-12553927D02*
G01*
X15492812Y-12583624D01*
X15656784Y-12651544D01*
X15804354Y-12750147D01*
X15929853Y-12875646D01*
X16028456Y-13023216D01*
X16096376Y-13187188D01*
X16131000Y-13361259D01*
X16131000Y-13538741D01*
X16096376Y-13712812D01*
X16028456Y-13876784D01*
X15929853Y-14024354D01*
X15804354Y-14149853D01*
X15656784Y-14248456D01*
X15492812Y-14316376D01*
X15343512Y-14346073D01*
X15318742Y-14351000D01*
X15141258Y-14351000D01*
X15116488Y-14346073D01*
X14967188Y-14316376D01*
X14803216Y-14248456D01*
X14655646Y-14149853D01*
X14530147Y-14024354D01*
X14431544Y-13876784D01*
X14363624Y-13712812D01*
X14329000Y-13538741D01*
X14329000Y-13361259D01*
X14363624Y-13187188D01*
X14431544Y-13023216D01*
X14530147Y-12875646D01*
X14655646Y-12750147D01*
X14803216Y-12651544D01*
X14967188Y-12583624D01*
X15116488Y-12553927D01*
X15141258Y-12549000D01*
X15318742Y-12549000D01*
X15343512Y-12553927D01*
G37*
G36*
X17883512Y-12553927D02*
G01*
X18032812Y-12583624D01*
X18196784Y-12651544D01*
X18344354Y-12750147D01*
X18469853Y-12875646D01*
X18568456Y-13023216D01*
X18636376Y-13187188D01*
X18671000Y-13361259D01*
X18671000Y-13538741D01*
X18636376Y-13712812D01*
X18568456Y-13876784D01*
X18469853Y-14024354D01*
X18344354Y-14149853D01*
X18196784Y-14248456D01*
X18032812Y-14316376D01*
X17883512Y-14346073D01*
X17858742Y-14351000D01*
X17681258Y-14351000D01*
X17656488Y-14346073D01*
X17507188Y-14316376D01*
X17343216Y-14248456D01*
X17195646Y-14149853D01*
X17070147Y-14024354D01*
X16971544Y-13876784D01*
X16903624Y-13712812D01*
X16869000Y-13538741D01*
X16869000Y-13361259D01*
X16903624Y-13187188D01*
X16971544Y-13023216D01*
X17070147Y-12875646D01*
X17195646Y-12750147D01*
X17343216Y-12651544D01*
X17507188Y-12583624D01*
X17656488Y-12553927D01*
X17681258Y-12549000D01*
X17858742Y-12549000D01*
X17883512Y-12553927D01*
G37*
G36*
X8605626Y-11941037D02*
G01*
X8775465Y-11992557D01*
X8775467Y-11992558D01*
X8931989Y-12076221D01*
X9069186Y-12188814D01*
X9144627Y-12280741D01*
X9181778Y-12326009D01*
X9265443Y-12482534D01*
X9316963Y-12652373D01*
X9316963Y-12652375D01*
X9330000Y-12784740D01*
X9330000Y-13123259D01*
X9327502Y-13148617D01*
X9316963Y-13255626D01*
X9265443Y-13425466D01*
X9181778Y-13581991D01*
X9152448Y-13617729D01*
X9069186Y-13719186D01*
X8976350Y-13795373D01*
X8931991Y-13831778D01*
X8775466Y-13915443D01*
X8605627Y-13966963D01*
X8429000Y-13984359D01*
X8252374Y-13966963D01*
X8082535Y-13915443D01*
X7926010Y-13831778D01*
X7788815Y-13719185D01*
X7676222Y-13581991D01*
X7592557Y-13425466D01*
X7541037Y-13255627D01*
X7530624Y-13149897D01*
X7528000Y-13123260D01*
X7528000Y-12784741D01*
X7541037Y-12652376D01*
X7541037Y-12652374D01*
X7592557Y-12482535D01*
X7676222Y-12326010D01*
X7713373Y-12280741D01*
X7788814Y-12188814D01*
X7893066Y-12103258D01*
X7926009Y-12076222D01*
X8082534Y-11992557D01*
X8252373Y-11941037D01*
X8429000Y-11923641D01*
X8605626Y-11941037D01*
G37*
G36*
X6105626Y-11941037D02*
G01*
X6275465Y-11992557D01*
X6275467Y-11992558D01*
X6431989Y-12076221D01*
X6569186Y-12188814D01*
X6644627Y-12280741D01*
X6681778Y-12326009D01*
X6765443Y-12482534D01*
X6816963Y-12652373D01*
X6816963Y-12652375D01*
X6830000Y-12784740D01*
X6830000Y-13123259D01*
X6827502Y-13148617D01*
X6816963Y-13255626D01*
X6765443Y-13425466D01*
X6681778Y-13581991D01*
X6652448Y-13617729D01*
X6569186Y-13719186D01*
X6476350Y-13795373D01*
X6431991Y-13831778D01*
X6275466Y-13915443D01*
X6105627Y-13966963D01*
X5929000Y-13984359D01*
X5752374Y-13966963D01*
X5582535Y-13915443D01*
X5426010Y-13831778D01*
X5288815Y-13719185D01*
X5176222Y-13581991D01*
X5092557Y-13425466D01*
X5041037Y-13255627D01*
X5030624Y-13149897D01*
X5028000Y-13123260D01*
X5028000Y-12784741D01*
X5041037Y-12652376D01*
X5041037Y-12652374D01*
X5092557Y-12482535D01*
X5176222Y-12326010D01*
X5213373Y-12280741D01*
X5288814Y-12188814D01*
X5393066Y-12103258D01*
X5426009Y-12076222D01*
X5582534Y-11992557D01*
X5752373Y-11941037D01*
X5929000Y-11923641D01*
X6105626Y-11941037D01*
G37*
G36*
X4187600Y-11931989D02*
G01*
X4220652Y-11942015D01*
X4251103Y-11958292D01*
X4277799Y-11980201D01*
X4299708Y-12006897D01*
X4315985Y-12037348D01*
X4326011Y-12070400D01*
X4330000Y-12110903D01*
X4330000Y-13797097D01*
X4326011Y-13837600D01*
X4315985Y-13870652D01*
X4299708Y-13901103D01*
X4277799Y-13927799D01*
X4251103Y-13949708D01*
X4220652Y-13965985D01*
X4187600Y-13976011D01*
X4147097Y-13980000D01*
X2710903Y-13980000D01*
X2670400Y-13976011D01*
X2637348Y-13965985D01*
X2606897Y-13949708D01*
X2580201Y-13927799D01*
X2558292Y-13901103D01*
X2542015Y-13870652D01*
X2531989Y-13837600D01*
X2528000Y-13797097D01*
X2528000Y-12110903D01*
X2531989Y-12070400D01*
X2542015Y-12037348D01*
X2558292Y-12006897D01*
X2580201Y-11980201D01*
X2606897Y-11958292D01*
X2637348Y-11942015D01*
X2670400Y-11931989D01*
X2710903Y-11928000D01*
X4147097Y-11928000D01*
X4187600Y-11931989D01*
G37*
G36*
X35927512Y-11295927D02*
G01*
X36076812Y-11325624D01*
X36240784Y-11393544D01*
X36388354Y-11492147D01*
X36513853Y-11617646D01*
X36612456Y-11765216D01*
X36680376Y-11929188D01*
X36715000Y-12103259D01*
X36715000Y-12280741D01*
X36680376Y-12454812D01*
X36612456Y-12618784D01*
X36513853Y-12766354D01*
X36388354Y-12891853D01*
X36240784Y-12990456D01*
X36076812Y-13058376D01*
X35942885Y-13085015D01*
X35902742Y-13093000D01*
X35725258Y-13093000D01*
X35685115Y-13085015D01*
X35551188Y-13058376D01*
X35387216Y-12990456D01*
X35239646Y-12891853D01*
X35114147Y-12766354D01*
X35015544Y-12618784D01*
X34947624Y-12454812D01*
X34913000Y-12280741D01*
X34913000Y-12103259D01*
X34947624Y-11929188D01*
X35015544Y-11765216D01*
X35114147Y-11617646D01*
X35239646Y-11492147D01*
X35387216Y-11393544D01*
X35551188Y-11325624D01*
X35700488Y-11295927D01*
X35725258Y-11291000D01*
X35902742Y-11291000D01*
X35927512Y-11295927D01*
G37*
G36*
X41007512Y-11295927D02*
G01*
X41156812Y-11325624D01*
X41320784Y-11393544D01*
X41468354Y-11492147D01*
X41593853Y-11617646D01*
X41692456Y-11765216D01*
X41760376Y-11929188D01*
X41795000Y-12103259D01*
X41795000Y-12280741D01*
X41760376Y-12454812D01*
X41692456Y-12618784D01*
X41593853Y-12766354D01*
X41468354Y-12891853D01*
X41320784Y-12990456D01*
X41156812Y-13058376D01*
X41022885Y-13085015D01*
X40982742Y-13093000D01*
X40805258Y-13093000D01*
X40765115Y-13085015D01*
X40631188Y-13058376D01*
X40467216Y-12990456D01*
X40319646Y-12891853D01*
X40194147Y-12766354D01*
X40095544Y-12618784D01*
X40027624Y-12454812D01*
X39993000Y-12280741D01*
X39993000Y-12103259D01*
X40027624Y-11929188D01*
X40095544Y-11765216D01*
X40194147Y-11617646D01*
X40319646Y-11492147D01*
X40467216Y-11393544D01*
X40631188Y-11325624D01*
X40780488Y-11295927D01*
X40805258Y-11291000D01*
X40982742Y-11291000D01*
X41007512Y-11295927D01*
G37*
G36*
X49415000Y-13093000D02*
G01*
X47613000Y-13093000D01*
X47613000Y-11291000D01*
X49415000Y-11291000D01*
X49415000Y-13093000D01*
G37*
G36*
X46087512Y-11295927D02*
G01*
X46236812Y-11325624D01*
X46400784Y-11393544D01*
X46548354Y-11492147D01*
X46673853Y-11617646D01*
X46772456Y-11765216D01*
X46840376Y-11929188D01*
X46875000Y-12103259D01*
X46875000Y-12280741D01*
X46840376Y-12454812D01*
X46772456Y-12618784D01*
X46673853Y-12766354D01*
X46548354Y-12891853D01*
X46400784Y-12990456D01*
X46236812Y-13058376D01*
X46102885Y-13085015D01*
X46062742Y-13093000D01*
X45885258Y-13093000D01*
X45845115Y-13085015D01*
X45711188Y-13058376D01*
X45547216Y-12990456D01*
X45399646Y-12891853D01*
X45274147Y-12766354D01*
X45175544Y-12618784D01*
X45107624Y-12454812D01*
X45073000Y-12280741D01*
X45073000Y-12103259D01*
X45107624Y-11929188D01*
X45175544Y-11765216D01*
X45274147Y-11617646D01*
X45399646Y-11492147D01*
X45547216Y-11393544D01*
X45711188Y-11325624D01*
X45860488Y-11295927D01*
X45885258Y-11291000D01*
X46062742Y-11291000D01*
X46087512Y-11295927D01*
G37*
G36*
X38467512Y-11295927D02*
G01*
X38616812Y-11325624D01*
X38780784Y-11393544D01*
X38928354Y-11492147D01*
X39053853Y-11617646D01*
X39152456Y-11765216D01*
X39220376Y-11929188D01*
X39255000Y-12103259D01*
X39255000Y-12280741D01*
X39220376Y-12454812D01*
X39152456Y-12618784D01*
X39053853Y-12766354D01*
X38928354Y-12891853D01*
X38780784Y-12990456D01*
X38616812Y-13058376D01*
X38482885Y-13085015D01*
X38442742Y-13093000D01*
X38265258Y-13093000D01*
X38225115Y-13085015D01*
X38091188Y-13058376D01*
X37927216Y-12990456D01*
X37779646Y-12891853D01*
X37654147Y-12766354D01*
X37555544Y-12618784D01*
X37487624Y-12454812D01*
X37453000Y-12280741D01*
X37453000Y-12103259D01*
X37487624Y-11929188D01*
X37555544Y-11765216D01*
X37654147Y-11617646D01*
X37779646Y-11492147D01*
X37927216Y-11393544D01*
X38091188Y-11325624D01*
X38240488Y-11295927D01*
X38265258Y-11291000D01*
X38442742Y-11291000D01*
X38467512Y-11295927D01*
G37*
G36*
X33387512Y-11295927D02*
G01*
X33536812Y-11325624D01*
X33700784Y-11393544D01*
X33848354Y-11492147D01*
X33973853Y-11617646D01*
X34072456Y-11765216D01*
X34140376Y-11929188D01*
X34175000Y-12103259D01*
X34175000Y-12280741D01*
X34140376Y-12454812D01*
X34072456Y-12618784D01*
X33973853Y-12766354D01*
X33848354Y-12891853D01*
X33700784Y-12990456D01*
X33536812Y-13058376D01*
X33402885Y-13085015D01*
X33362742Y-13093000D01*
X33185258Y-13093000D01*
X33145115Y-13085015D01*
X33011188Y-13058376D01*
X32847216Y-12990456D01*
X32699646Y-12891853D01*
X32574147Y-12766354D01*
X32475544Y-12618784D01*
X32407624Y-12454812D01*
X32373000Y-12280741D01*
X32373000Y-12103259D01*
X32407624Y-11929188D01*
X32475544Y-11765216D01*
X32574147Y-11617646D01*
X32699646Y-11492147D01*
X32847216Y-11393544D01*
X33011188Y-11325624D01*
X33160488Y-11295927D01*
X33185258Y-11291000D01*
X33362742Y-11291000D01*
X33387512Y-11295927D01*
G37*
G36*
X43547512Y-11295927D02*
G01*
X43696812Y-11325624D01*
X43860784Y-11393544D01*
X44008354Y-11492147D01*
X44133853Y-11617646D01*
X44232456Y-11765216D01*
X44300376Y-11929188D01*
X44335000Y-12103259D01*
X44335000Y-12280741D01*
X44300376Y-12454812D01*
X44232456Y-12618784D01*
X44133853Y-12766354D01*
X44008354Y-12891853D01*
X43860784Y-12990456D01*
X43696812Y-13058376D01*
X43562885Y-13085015D01*
X43522742Y-13093000D01*
X43345258Y-13093000D01*
X43305115Y-13085015D01*
X43171188Y-13058376D01*
X43007216Y-12990456D01*
X42859646Y-12891853D01*
X42734147Y-12766354D01*
X42635544Y-12618784D01*
X42567624Y-12454812D01*
X42533000Y-12280741D01*
X42533000Y-12103259D01*
X42567624Y-11929188D01*
X42635544Y-11765216D01*
X42734147Y-11617646D01*
X42859646Y-11492147D01*
X43007216Y-11393544D01*
X43171188Y-11325624D01*
X43320488Y-11295927D01*
X43345258Y-11291000D01*
X43522742Y-11291000D01*
X43547512Y-11295927D01*
G37*
G36*
X15343512Y-10013927D02*
G01*
X15492812Y-10043624D01*
X15656784Y-10111544D01*
X15804354Y-10210147D01*
X15929853Y-10335646D01*
X16028456Y-10483216D01*
X16096376Y-10647188D01*
X16131000Y-10821259D01*
X16131000Y-10998741D01*
X16096376Y-11172812D01*
X16028456Y-11336784D01*
X15929853Y-11484354D01*
X15804354Y-11609853D01*
X15656784Y-11708456D01*
X15492812Y-11776376D01*
X15343512Y-11806073D01*
X15318742Y-11811000D01*
X15141258Y-11811000D01*
X15116488Y-11806073D01*
X14967188Y-11776376D01*
X14803216Y-11708456D01*
X14655646Y-11609853D01*
X14530147Y-11484354D01*
X14431544Y-11336784D01*
X14363624Y-11172812D01*
X14329000Y-10998741D01*
X14329000Y-10821259D01*
X14363624Y-10647188D01*
X14431544Y-10483216D01*
X14530147Y-10335646D01*
X14655646Y-10210147D01*
X14803216Y-10111544D01*
X14967188Y-10043624D01*
X15116488Y-10013927D01*
X15141258Y-10009000D01*
X15318742Y-10009000D01*
X15343512Y-10013927D01*
G37*
G36*
X17883512Y-10013927D02*
G01*
X18032812Y-10043624D01*
X18196784Y-10111544D01*
X18344354Y-10210147D01*
X18469853Y-10335646D01*
X18568456Y-10483216D01*
X18636376Y-10647188D01*
X18671000Y-10821259D01*
X18671000Y-10998741D01*
X18636376Y-11172812D01*
X18568456Y-11336784D01*
X18469853Y-11484354D01*
X18344354Y-11609853D01*
X18196784Y-11708456D01*
X18032812Y-11776376D01*
X17883512Y-11806073D01*
X17858742Y-11811000D01*
X17681258Y-11811000D01*
X17656488Y-11806073D01*
X17507188Y-11776376D01*
X17343216Y-11708456D01*
X17195646Y-11609853D01*
X17070147Y-11484354D01*
X16971544Y-11336784D01*
X16903624Y-11172812D01*
X16869000Y-10998741D01*
X16869000Y-10821259D01*
X16903624Y-10647188D01*
X16971544Y-10483216D01*
X17070147Y-10335646D01*
X17195646Y-10210147D01*
X17343216Y-10111544D01*
X17507188Y-10043624D01*
X17656488Y-10013927D01*
X17681258Y-10009000D01*
X17858742Y-10009000D01*
X17883512Y-10013927D01*
G37*
G36*
X17883512Y-7473927D02*
G01*
X18032812Y-7503624D01*
X18196784Y-7571544D01*
X18344354Y-7670147D01*
X18469853Y-7795646D01*
X18568456Y-7943216D01*
X18636376Y-8107188D01*
X18671000Y-8281259D01*
X18671000Y-8458741D01*
X18636376Y-8632812D01*
X18568456Y-8796784D01*
X18469853Y-8944354D01*
X18344354Y-9069853D01*
X18196784Y-9168456D01*
X18032812Y-9236376D01*
X17883512Y-9266073D01*
X17858742Y-9271000D01*
X17681258Y-9271000D01*
X17656488Y-9266073D01*
X17507188Y-9236376D01*
X17343216Y-9168456D01*
X17195646Y-9069853D01*
X17070147Y-8944354D01*
X16971544Y-8796784D01*
X16903624Y-8632812D01*
X16869000Y-8458741D01*
X16869000Y-8281259D01*
X16903624Y-8107188D01*
X16971544Y-7943216D01*
X17070147Y-7795646D01*
X17195646Y-7670147D01*
X17343216Y-7571544D01*
X17507188Y-7503624D01*
X17656488Y-7473927D01*
X17681258Y-7469000D01*
X17858742Y-7469000D01*
X17883512Y-7473927D01*
G37*
G36*
X15343512Y-7473927D02*
G01*
X15492812Y-7503624D01*
X15656784Y-7571544D01*
X15804354Y-7670147D01*
X15929853Y-7795646D01*
X16028456Y-7943216D01*
X16096376Y-8107188D01*
X16131000Y-8281259D01*
X16131000Y-8458741D01*
X16096376Y-8632812D01*
X16028456Y-8796784D01*
X15929853Y-8944354D01*
X15804354Y-9069853D01*
X15656784Y-9168456D01*
X15492812Y-9236376D01*
X15343512Y-9266073D01*
X15318742Y-9271000D01*
X15141258Y-9271000D01*
X15116488Y-9266073D01*
X14967188Y-9236376D01*
X14803216Y-9168456D01*
X14655646Y-9069853D01*
X14530147Y-8944354D01*
X14431544Y-8796784D01*
X14363624Y-8632812D01*
X14329000Y-8458741D01*
X14329000Y-8281259D01*
X14363624Y-8107188D01*
X14431544Y-7943216D01*
X14530147Y-7795646D01*
X14655646Y-7670147D01*
X14803216Y-7571544D01*
X14967188Y-7503624D01*
X15116488Y-7473927D01*
X15141258Y-7469000D01*
X15318742Y-7469000D01*
X15343512Y-7473927D01*
G37*
M02*
