M48
INCH,TZ
T1C0.0118
T2C0.0157
T3C0.0197
T4C0.0236
T5C0.0276
T6C0.0295
T7C0.0300
T8C0.0315
T9C0.0374
T10C0.0394
T11C0.0520
T12C0.0591
%
G90
G05
T1
X2400Y-2000
X3300Y-37400
X7500Y-27000
X7500Y-27950
X7850Y-27000
X7850Y-27950
X8200Y-27000
X8200Y-28250
X8600Y-27000
X8600Y-28250
X10000Y-31750
X10000Y-32250
X10550Y-28750
X12150Y-28750
X13250Y-32250
X13750Y-31750
X22850Y-32250
X24250Y-32250
X28250Y-37400
X31050Y-37400
X31450Y-1950
T2
X17950Y-3500
X19500Y-31750
X21000Y-31750
T3
X24750Y-25500
X24750Y-26650
T4
X963Y-14500
X1750Y-14500
T5
X1246Y-22823
X3254Y-23177
T6
X3600Y-13100
X4100Y-13100
X4600Y-13100
T7
X4600Y-35800
X4600Y-36800
X4600Y-37800
T8
X19000Y-26250
X19000Y-27250
X19000Y-28250
X19000Y-29250
X19000Y-30250
X19000Y-31250
X19000Y-32250
X19000Y-33250
X22000Y-26250
X22000Y-27250
X22000Y-28250
X22000Y-29250
X22000Y-30250
X22000Y-31250
X22000Y-32250
X22000Y-33250
X1016Y-17500
X2000Y-17500
X1016Y-20500
X2000Y-20500
X27500Y-26250
X27500Y-27250
X27500Y-28250
X27500Y-29250
X27500Y-30250
X27500Y-31250
X27500Y-32250
X27500Y-33250
X30500Y-26250
X30500Y-27250
X30500Y-28250
X30500Y-29250
X30500Y-30250
X30500Y-31250
X30500Y-32250
X30500Y-33250
X1400Y-11650
X4400Y-11650
T9
X1350Y-5100
X2334Y-5100
X3319Y-5100
X29031Y-5550
X30016Y-5550
X31000Y-5550
T10
X1913Y-38187
X2650Y-1150
X9550Y-1200
X29700Y-38200
X3550Y-7150
X3550Y-8150
X3550Y-9150
X4350Y-14900
X4350Y-15900
X4350Y-16900
X26600Y-22700
X27600Y-22700
X28600Y-22700
X29600Y-22700
X30600Y-22700
X9700Y-15450
X9700Y-16450
X9700Y-17450
X8600Y-11300
X8600Y-12300
X8600Y-13300
X8600Y-14300
X5996Y-3295
X5996Y-4295
X5996Y-5295
X5996Y-6295
X5996Y-7295
X5996Y-8295
X5996Y-9295
X5996Y-10295
X5996Y-11295
X5996Y-12295
X5996Y-13295
X5996Y-14295
X5996Y-15295
X5996Y-16295
X5996Y-17295
X5996Y-18295
X5996Y-19295
X5996Y-20295
X5996Y-21295
X5996Y-22295
X6996Y-3295
X6996Y-4295
X6996Y-5295
X6996Y-6295
X6996Y-7295
X6996Y-8295
X6996Y-9295
X6996Y-10295
X6996Y-11295
X6996Y-12295
X6996Y-13295
X6996Y-14295
X6996Y-15295
X6996Y-16295
X6996Y-17295
X6996Y-18295
X6996Y-19295
X6996Y-20295
X6996Y-21295
X6996Y-22295
X8600Y-15450
X8600Y-16450
X8600Y-17450
X2450Y-7150
X2450Y-8150
X2450Y-9150
X1350Y-7150
X1350Y-8150
X1350Y-9150
X1069Y-24500
X3431Y-24500
X13100Y-4800
X14100Y-4800
X15100Y-4800
X16100Y-4800
X17100Y-4800
X18100Y-4800
X19100Y-4800
T11
X10500Y-36750
X12469Y-36750
X22500Y-36750
X24469Y-36750
X18500Y-36750
X20469Y-36750
X14500Y-36750
X16469Y-36750
X6500Y-36750
X8469Y-36750
T12
X1050Y-26400
X1050Y-33100
X16650Y-26400
X16650Y-33100
T0
M30
