G04 #@! TF.GenerationSoftware,KiCad,Pcbnew,5.1.5+dfsg1-2build2*
G04 #@! TF.CreationDate,2020-06-26T22:01:47+02:00*
G04 #@! TF.ProjectId,robo-car,726f626f-2d63-4617-922e-6b696361645f,rev?*
G04 #@! TF.SameCoordinates,Original*
G04 #@! TF.FileFunction,Legend,Bot*
G04 #@! TF.FilePolarity,Positive*
%FSLAX46Y46*%
G04 Gerber Fmt 4.6, Leading zero omitted, Abs format (unit mm)*
G04 Created by KiCad (PCBNEW 5.1.5+dfsg1-2build2) date 2020-06-26 22:01:47*
%MOMM*%
%LPD*%
G04 APERTURE LIST*
%ADD10C,0.300000*%
%ADD11C,0.120000*%
%ADD12C,0.150000*%
G04 APERTURE END LIST*
D10*
X51494142Y-21791000D02*
X51637000Y-21719571D01*
X51851285Y-21719571D01*
X52065571Y-21791000D01*
X52208428Y-21933857D01*
X52279857Y-22076714D01*
X52351285Y-22362428D01*
X52351285Y-22576714D01*
X52279857Y-22862428D01*
X52208428Y-23005285D01*
X52065571Y-23148142D01*
X51851285Y-23219571D01*
X51708428Y-23219571D01*
X51494142Y-23148142D01*
X51422714Y-23076714D01*
X51422714Y-22576714D01*
X51708428Y-22576714D01*
X50779857Y-23219571D02*
X50779857Y-21719571D01*
X50208428Y-21719571D01*
X50065571Y-21791000D01*
X49994142Y-21862428D01*
X49922714Y-22005285D01*
X49922714Y-22219571D01*
X49994142Y-22362428D01*
X50065571Y-22433857D01*
X50208428Y-22505285D01*
X50779857Y-22505285D01*
X49279857Y-23219571D02*
X49279857Y-21719571D01*
X48279857Y-21719571D02*
X47994142Y-21719571D01*
X47851285Y-21791000D01*
X47708428Y-21933857D01*
X47637000Y-22219571D01*
X47637000Y-22719571D01*
X47708428Y-23005285D01*
X47851285Y-23148142D01*
X47994142Y-23219571D01*
X48279857Y-23219571D01*
X48422714Y-23148142D01*
X48565571Y-23005285D01*
X48637000Y-22719571D01*
X48637000Y-22219571D01*
X48565571Y-21933857D01*
X48422714Y-21791000D01*
X48279857Y-21719571D01*
X43851285Y-23076714D02*
X43922714Y-23148142D01*
X44137000Y-23219571D01*
X44279857Y-23219571D01*
X44494142Y-23148142D01*
X44637000Y-23005285D01*
X44708428Y-22862428D01*
X44779857Y-22576714D01*
X44779857Y-22362428D01*
X44708428Y-22076714D01*
X44637000Y-21933857D01*
X44494142Y-21791000D01*
X44279857Y-21719571D01*
X44137000Y-21719571D01*
X43922714Y-21791000D01*
X43851285Y-21862428D01*
X42922714Y-21719571D02*
X42637000Y-21719571D01*
X42494142Y-21791000D01*
X42351285Y-21933857D01*
X42279857Y-22219571D01*
X42279857Y-22719571D01*
X42351285Y-23005285D01*
X42494142Y-23148142D01*
X42637000Y-23219571D01*
X42922714Y-23219571D01*
X43065571Y-23148142D01*
X43208428Y-23005285D01*
X43279857Y-22719571D01*
X43279857Y-22219571D01*
X43208428Y-21933857D01*
X43065571Y-21791000D01*
X42922714Y-21719571D01*
X41637000Y-23219571D02*
X41637000Y-21719571D01*
X41137000Y-22791000D01*
X40637000Y-21719571D01*
X40637000Y-23219571D01*
X39922714Y-23219571D02*
X39922714Y-21719571D01*
X39351285Y-21719571D01*
X39208428Y-21791000D01*
X39137000Y-21862428D01*
X39065571Y-22005285D01*
X39065571Y-22219571D01*
X39137000Y-22362428D01*
X39208428Y-22433857D01*
X39351285Y-22505285D01*
X39922714Y-22505285D01*
X38137000Y-21719571D02*
X37851285Y-21719571D01*
X37708428Y-21791000D01*
X37565571Y-21933857D01*
X37494142Y-22219571D01*
X37494142Y-22719571D01*
X37565571Y-23005285D01*
X37708428Y-23148142D01*
X37851285Y-23219571D01*
X38137000Y-23219571D01*
X38279857Y-23148142D01*
X38422714Y-23005285D01*
X38494142Y-22719571D01*
X38494142Y-22219571D01*
X38422714Y-21933857D01*
X38279857Y-21791000D01*
X38137000Y-21719571D01*
X36851285Y-23219571D02*
X36851285Y-21719571D01*
X35994142Y-23219571D01*
X35994142Y-21719571D01*
X35279857Y-22433857D02*
X34779857Y-22433857D01*
X34565571Y-23219571D02*
X35279857Y-23219571D01*
X35279857Y-21719571D01*
X34565571Y-21719571D01*
X33922714Y-23219571D02*
X33922714Y-21719571D01*
X33065571Y-23219571D01*
X33065571Y-21719571D01*
X32565571Y-21719571D02*
X31708428Y-21719571D01*
X32137000Y-23219571D02*
X32137000Y-21719571D01*
X51494142Y-25769571D02*
X52351285Y-25769571D01*
X51922714Y-25769571D02*
X51922714Y-24269571D01*
X52065571Y-24483857D01*
X52208428Y-24626714D01*
X52351285Y-24698142D01*
X50565571Y-24269571D02*
X50422714Y-24269571D01*
X50279857Y-24341000D01*
X50208428Y-24412428D01*
X50137000Y-24555285D01*
X50065571Y-24841000D01*
X50065571Y-25198142D01*
X50137000Y-25483857D01*
X50208428Y-25626714D01*
X50279857Y-25698142D01*
X50422714Y-25769571D01*
X50565571Y-25769571D01*
X50708428Y-25698142D01*
X50779857Y-25626714D01*
X50851285Y-25483857D01*
X50922714Y-25198142D01*
X50922714Y-24841000D01*
X50851285Y-24555285D01*
X50779857Y-24412428D01*
X50708428Y-24341000D01*
X50565571Y-24269571D01*
X44851285Y-24983857D02*
X44351285Y-24983857D01*
X44137000Y-25769571D02*
X44851285Y-25769571D01*
X44851285Y-24269571D01*
X44137000Y-24269571D01*
X42637000Y-25626714D02*
X42708428Y-25698142D01*
X42922714Y-25769571D01*
X43065571Y-25769571D01*
X43279857Y-25698142D01*
X43422714Y-25555285D01*
X43494142Y-25412428D01*
X43565571Y-25126714D01*
X43565571Y-24912428D01*
X43494142Y-24626714D01*
X43422714Y-24483857D01*
X43279857Y-24341000D01*
X43065571Y-24269571D01*
X42922714Y-24269571D01*
X42708428Y-24341000D01*
X42637000Y-24412428D01*
X41994142Y-25769571D02*
X41994142Y-24269571D01*
X41994142Y-24983857D02*
X41137000Y-24983857D01*
X41137000Y-25769571D02*
X41137000Y-24269571D01*
X40137000Y-24269571D02*
X39851285Y-24269571D01*
X39708428Y-24341000D01*
X39565571Y-24483857D01*
X39494142Y-24769571D01*
X39494142Y-25269571D01*
X39565571Y-25555285D01*
X39708428Y-25698142D01*
X39851285Y-25769571D01*
X40137000Y-25769571D01*
X40279857Y-25698142D01*
X40422714Y-25555285D01*
X40494142Y-25269571D01*
X40494142Y-24769571D01*
X40422714Y-24483857D01*
X40279857Y-24341000D01*
X40137000Y-24269571D01*
X39208428Y-25912428D02*
X38065571Y-25912428D01*
X36851285Y-25626714D02*
X36922714Y-25698142D01*
X37137000Y-25769571D01*
X37279857Y-25769571D01*
X37494142Y-25698142D01*
X37637000Y-25555285D01*
X37708428Y-25412428D01*
X37779857Y-25126714D01*
X37779857Y-24912428D01*
X37708428Y-24626714D01*
X37637000Y-24483857D01*
X37494142Y-24341000D01*
X37279857Y-24269571D01*
X37137000Y-24269571D01*
X36922714Y-24341000D01*
X36851285Y-24412428D01*
X36279857Y-25341000D02*
X35565571Y-25341000D01*
X36422714Y-25769571D02*
X35922714Y-24269571D01*
X35422714Y-25769571D01*
X34922714Y-25769571D02*
X34922714Y-24269571D01*
X34422714Y-25341000D01*
X33922714Y-24269571D01*
X33922714Y-25769571D01*
X51994142Y-26819571D02*
X51851285Y-26819571D01*
X51708428Y-26891000D01*
X51637000Y-26962428D01*
X51565571Y-27105285D01*
X51494142Y-27391000D01*
X51494142Y-27748142D01*
X51565571Y-28033857D01*
X51637000Y-28176714D01*
X51708428Y-28248142D01*
X51851285Y-28319571D01*
X51994142Y-28319571D01*
X52137000Y-28248142D01*
X52208428Y-28176714D01*
X52279857Y-28033857D01*
X52351285Y-27748142D01*
X52351285Y-27391000D01*
X52279857Y-27105285D01*
X52208428Y-26962428D01*
X52137000Y-26891000D01*
X51994142Y-26819571D01*
X50779857Y-28319571D02*
X50494142Y-28319571D01*
X50351285Y-28248142D01*
X50279857Y-28176714D01*
X50137000Y-27962428D01*
X50065571Y-27676714D01*
X50065571Y-27105285D01*
X50137000Y-26962428D01*
X50208428Y-26891000D01*
X50351285Y-26819571D01*
X50637000Y-26819571D01*
X50779857Y-26891000D01*
X50851285Y-26962428D01*
X50922714Y-27105285D01*
X50922714Y-27462428D01*
X50851285Y-27605285D01*
X50779857Y-27676714D01*
X50637000Y-27748142D01*
X50351285Y-27748142D01*
X50208428Y-27676714D01*
X50137000Y-27605285D01*
X50065571Y-27462428D01*
X45065571Y-26819571D02*
X44208428Y-26819571D01*
X44637000Y-28319571D02*
X44637000Y-26819571D01*
X42851285Y-28319571D02*
X43351285Y-27605285D01*
X43708428Y-28319571D02*
X43708428Y-26819571D01*
X43137000Y-26819571D01*
X42994142Y-26891000D01*
X42922714Y-26962428D01*
X42851285Y-27105285D01*
X42851285Y-27319571D01*
X42922714Y-27462428D01*
X42994142Y-27533857D01*
X43137000Y-27605285D01*
X43708428Y-27605285D01*
X42208428Y-28319571D02*
X42208428Y-26819571D01*
X40708428Y-26891000D02*
X40851285Y-26819571D01*
X41065571Y-26819571D01*
X41279857Y-26891000D01*
X41422714Y-27033857D01*
X41494142Y-27176714D01*
X41565571Y-27462428D01*
X41565571Y-27676714D01*
X41494142Y-27962428D01*
X41422714Y-28105285D01*
X41279857Y-28248142D01*
X41065571Y-28319571D01*
X40922714Y-28319571D01*
X40708428Y-28248142D01*
X40637000Y-28176714D01*
X40637000Y-27676714D01*
X40922714Y-27676714D01*
X40351285Y-28462428D02*
X39208428Y-28462428D01*
X37994142Y-28176714D02*
X38065571Y-28248142D01*
X38279857Y-28319571D01*
X38422714Y-28319571D01*
X38637000Y-28248142D01*
X38779857Y-28105285D01*
X38851285Y-27962428D01*
X38922714Y-27676714D01*
X38922714Y-27462428D01*
X38851285Y-27176714D01*
X38779857Y-27033857D01*
X38637000Y-26891000D01*
X38422714Y-26819571D01*
X38279857Y-26819571D01*
X38065571Y-26891000D01*
X37994142Y-26962428D01*
X37422714Y-27891000D02*
X36708428Y-27891000D01*
X37565571Y-28319571D02*
X37065571Y-26819571D01*
X36565571Y-28319571D01*
X36065571Y-28319571D02*
X36065571Y-26819571D01*
X35565571Y-27891000D01*
X35065571Y-26819571D01*
X35065571Y-28319571D01*
X51494142Y-30869571D02*
X52351285Y-30869571D01*
X51922714Y-30869571D02*
X51922714Y-29369571D01*
X52065571Y-29583857D01*
X52208428Y-29726714D01*
X52351285Y-29798142D01*
X50065571Y-30869571D02*
X50922714Y-30869571D01*
X50494142Y-30869571D02*
X50494142Y-29369571D01*
X50637000Y-29583857D01*
X50779857Y-29726714D01*
X50922714Y-29798142D01*
X44922714Y-30798142D02*
X44708428Y-30869571D01*
X44351285Y-30869571D01*
X44208428Y-30798142D01*
X44137000Y-30726714D01*
X44065571Y-30583857D01*
X44065571Y-30441000D01*
X44137000Y-30298142D01*
X44208428Y-30226714D01*
X44351285Y-30155285D01*
X44637000Y-30083857D01*
X44779857Y-30012428D01*
X44851285Y-29941000D01*
X44922714Y-29798142D01*
X44922714Y-29655285D01*
X44851285Y-29512428D01*
X44779857Y-29441000D01*
X44637000Y-29369571D01*
X44279857Y-29369571D01*
X44065571Y-29441000D01*
X43422714Y-30083857D02*
X42922714Y-30083857D01*
X42708428Y-30869571D02*
X43422714Y-30869571D01*
X43422714Y-29369571D01*
X42708428Y-29369571D01*
X41208428Y-30869571D02*
X41708428Y-30155285D01*
X42065571Y-30869571D02*
X42065571Y-29369571D01*
X41494142Y-29369571D01*
X41351285Y-29441000D01*
X41279857Y-29512428D01*
X41208428Y-29655285D01*
X41208428Y-29869571D01*
X41279857Y-30012428D01*
X41351285Y-30083857D01*
X41494142Y-30155285D01*
X42065571Y-30155285D01*
X40779857Y-29369571D02*
X40279857Y-30869571D01*
X39779857Y-29369571D01*
X38994142Y-29369571D02*
X38708428Y-29369571D01*
X38565571Y-29441000D01*
X38422714Y-29583857D01*
X38351285Y-29869571D01*
X38351285Y-30369571D01*
X38422714Y-30655285D01*
X38565571Y-30798142D01*
X38708428Y-30869571D01*
X38994142Y-30869571D01*
X39137000Y-30798142D01*
X39279857Y-30655285D01*
X39351285Y-30369571D01*
X39351285Y-29869571D01*
X39279857Y-29583857D01*
X39137000Y-29441000D01*
X38994142Y-29369571D01*
X36922714Y-30869571D02*
X37779857Y-30869571D01*
X37351285Y-30869571D02*
X37351285Y-29369571D01*
X37494142Y-29583857D01*
X37637000Y-29726714D01*
X37779857Y-29798142D01*
X51494142Y-33419571D02*
X52351285Y-33419571D01*
X51922714Y-33419571D02*
X51922714Y-31919571D01*
X52065571Y-32133857D01*
X52208428Y-32276714D01*
X52351285Y-32348142D01*
X50922714Y-32062428D02*
X50851285Y-31991000D01*
X50708428Y-31919571D01*
X50351285Y-31919571D01*
X50208428Y-31991000D01*
X50137000Y-32062428D01*
X50065571Y-32205285D01*
X50065571Y-32348142D01*
X50137000Y-32562428D01*
X50994142Y-33419571D01*
X50065571Y-33419571D01*
X44922714Y-33348142D02*
X44708428Y-33419571D01*
X44351285Y-33419571D01*
X44208428Y-33348142D01*
X44137000Y-33276714D01*
X44065571Y-33133857D01*
X44065571Y-32991000D01*
X44137000Y-32848142D01*
X44208428Y-32776714D01*
X44351285Y-32705285D01*
X44637000Y-32633857D01*
X44779857Y-32562428D01*
X44851285Y-32491000D01*
X44922714Y-32348142D01*
X44922714Y-32205285D01*
X44851285Y-32062428D01*
X44779857Y-31991000D01*
X44637000Y-31919571D01*
X44279857Y-31919571D01*
X44065571Y-31991000D01*
X43422714Y-32633857D02*
X42922714Y-32633857D01*
X42708428Y-33419571D02*
X43422714Y-33419571D01*
X43422714Y-31919571D01*
X42708428Y-31919571D01*
X41208428Y-33419571D02*
X41708428Y-32705285D01*
X42065571Y-33419571D02*
X42065571Y-31919571D01*
X41494142Y-31919571D01*
X41351285Y-31991000D01*
X41279857Y-32062428D01*
X41208428Y-32205285D01*
X41208428Y-32419571D01*
X41279857Y-32562428D01*
X41351285Y-32633857D01*
X41494142Y-32705285D01*
X42065571Y-32705285D01*
X40779857Y-31919571D02*
X40279857Y-33419571D01*
X39779857Y-31919571D01*
X38994142Y-31919571D02*
X38708428Y-31919571D01*
X38565571Y-31991000D01*
X38422714Y-32133857D01*
X38351285Y-32419571D01*
X38351285Y-32919571D01*
X38422714Y-33205285D01*
X38565571Y-33348142D01*
X38708428Y-33419571D01*
X38994142Y-33419571D01*
X39137000Y-33348142D01*
X39279857Y-33205285D01*
X39351285Y-32919571D01*
X39351285Y-32419571D01*
X39279857Y-32133857D01*
X39137000Y-31991000D01*
X38994142Y-31919571D01*
X37779857Y-32062428D02*
X37708428Y-31991000D01*
X37565571Y-31919571D01*
X37208428Y-31919571D01*
X37065571Y-31991000D01*
X36994142Y-32062428D01*
X36922714Y-32205285D01*
X36922714Y-32348142D01*
X36994142Y-32562428D01*
X37851285Y-33419571D01*
X36922714Y-33419571D01*
X52351285Y-34612428D02*
X52279857Y-34541000D01*
X52137000Y-34469571D01*
X51779857Y-34469571D01*
X51637000Y-34541000D01*
X51565571Y-34612428D01*
X51494142Y-34755285D01*
X51494142Y-34898142D01*
X51565571Y-35112428D01*
X52422714Y-35969571D01*
X51494142Y-35969571D01*
X50208428Y-34469571D02*
X50494142Y-34469571D01*
X50637000Y-34541000D01*
X50708428Y-34612428D01*
X50851285Y-34826714D01*
X50922714Y-35112428D01*
X50922714Y-35683857D01*
X50851285Y-35826714D01*
X50779857Y-35898142D01*
X50637000Y-35969571D01*
X50351285Y-35969571D01*
X50208428Y-35898142D01*
X50137000Y-35826714D01*
X50065571Y-35683857D01*
X50065571Y-35326714D01*
X50137000Y-35183857D01*
X50208428Y-35112428D01*
X50351285Y-35041000D01*
X50637000Y-35041000D01*
X50779857Y-35112428D01*
X50851285Y-35183857D01*
X50922714Y-35326714D01*
X44137000Y-35969571D02*
X44851285Y-35969571D01*
X44851285Y-34469571D01*
X43637000Y-35969571D02*
X43637000Y-34469571D01*
X42137000Y-34541000D02*
X42279857Y-34469571D01*
X42494142Y-34469571D01*
X42708428Y-34541000D01*
X42851285Y-34683857D01*
X42922714Y-34826714D01*
X42994142Y-35112428D01*
X42994142Y-35326714D01*
X42922714Y-35612428D01*
X42851285Y-35755285D01*
X42708428Y-35898142D01*
X42494142Y-35969571D01*
X42351285Y-35969571D01*
X42137000Y-35898142D01*
X42065571Y-35826714D01*
X42065571Y-35326714D01*
X42351285Y-35326714D01*
X41422714Y-35969571D02*
X41422714Y-34469571D01*
X41422714Y-35183857D02*
X40565571Y-35183857D01*
X40565571Y-35969571D02*
X40565571Y-34469571D01*
X40065571Y-34469571D02*
X39208428Y-34469571D01*
X39637000Y-35969571D02*
X39637000Y-34469571D01*
X39065571Y-36112428D02*
X37922714Y-36112428D01*
X36708428Y-35969571D02*
X37208428Y-35255285D01*
X37565571Y-35969571D02*
X37565571Y-34469571D01*
X36994142Y-34469571D01*
X36851285Y-34541000D01*
X36779857Y-34612428D01*
X36708428Y-34755285D01*
X36708428Y-34969571D01*
X36779857Y-35112428D01*
X36851285Y-35183857D01*
X36994142Y-35255285D01*
X37565571Y-35255285D01*
X52351285Y-37162428D02*
X52279857Y-37091000D01*
X52137000Y-37019571D01*
X51779857Y-37019571D01*
X51637000Y-37091000D01*
X51565571Y-37162428D01*
X51494142Y-37305285D01*
X51494142Y-37448142D01*
X51565571Y-37662428D01*
X52422714Y-38519571D01*
X51494142Y-38519571D01*
X50565571Y-37019571D02*
X50422714Y-37019571D01*
X50279857Y-37091000D01*
X50208428Y-37162428D01*
X50137000Y-37305285D01*
X50065571Y-37591000D01*
X50065571Y-37948142D01*
X50137000Y-38233857D01*
X50208428Y-38376714D01*
X50279857Y-38448142D01*
X50422714Y-38519571D01*
X50565571Y-38519571D01*
X50708428Y-38448142D01*
X50779857Y-38376714D01*
X50851285Y-38233857D01*
X50922714Y-37948142D01*
X50922714Y-37591000D01*
X50851285Y-37305285D01*
X50779857Y-37162428D01*
X50708428Y-37091000D01*
X50565571Y-37019571D01*
X44137000Y-38519571D02*
X44851285Y-38519571D01*
X44851285Y-37019571D01*
X43637000Y-38519571D02*
X43637000Y-37019571D01*
X42137000Y-37091000D02*
X42279857Y-37019571D01*
X42494142Y-37019571D01*
X42708428Y-37091000D01*
X42851285Y-37233857D01*
X42922714Y-37376714D01*
X42994142Y-37662428D01*
X42994142Y-37876714D01*
X42922714Y-38162428D01*
X42851285Y-38305285D01*
X42708428Y-38448142D01*
X42494142Y-38519571D01*
X42351285Y-38519571D01*
X42137000Y-38448142D01*
X42065571Y-38376714D01*
X42065571Y-37876714D01*
X42351285Y-37876714D01*
X41422714Y-38519571D02*
X41422714Y-37019571D01*
X41422714Y-37733857D02*
X40565571Y-37733857D01*
X40565571Y-38519571D02*
X40565571Y-37019571D01*
X40065571Y-37019571D02*
X39208428Y-37019571D01*
X39637000Y-38519571D02*
X39637000Y-37019571D01*
X39065571Y-38662428D02*
X37922714Y-38662428D01*
X36851285Y-38519571D02*
X37565571Y-38519571D01*
X37565571Y-37019571D01*
X52351285Y-39712428D02*
X52279857Y-39641000D01*
X52137000Y-39569571D01*
X51779857Y-39569571D01*
X51637000Y-39641000D01*
X51565571Y-39712428D01*
X51494142Y-39855285D01*
X51494142Y-39998142D01*
X51565571Y-40212428D01*
X52422714Y-41069571D01*
X51494142Y-41069571D01*
X50065571Y-41069571D02*
X50922714Y-41069571D01*
X50494142Y-41069571D02*
X50494142Y-39569571D01*
X50637000Y-39783857D01*
X50779857Y-39926714D01*
X50922714Y-39998142D01*
X44137000Y-41069571D02*
X44851285Y-41069571D01*
X44851285Y-39569571D01*
X43637000Y-41069571D02*
X43637000Y-39569571D01*
X42137000Y-39641000D02*
X42279857Y-39569571D01*
X42494142Y-39569571D01*
X42708428Y-39641000D01*
X42851285Y-39783857D01*
X42922714Y-39926714D01*
X42994142Y-40212428D01*
X42994142Y-40426714D01*
X42922714Y-40712428D01*
X42851285Y-40855285D01*
X42708428Y-40998142D01*
X42494142Y-41069571D01*
X42351285Y-41069571D01*
X42137000Y-40998142D01*
X42065571Y-40926714D01*
X42065571Y-40426714D01*
X42351285Y-40426714D01*
X41422714Y-41069571D02*
X41422714Y-39569571D01*
X41422714Y-40283857D02*
X40565571Y-40283857D01*
X40565571Y-41069571D02*
X40565571Y-39569571D01*
X40065571Y-39569571D02*
X39208428Y-39569571D01*
X39637000Y-41069571D02*
X39637000Y-39569571D01*
X39065571Y-41212428D02*
X37922714Y-41212428D01*
X37065571Y-40283857D02*
X36851285Y-40355285D01*
X36779857Y-40426714D01*
X36708428Y-40569571D01*
X36708428Y-40783857D01*
X36779857Y-40926714D01*
X36851285Y-40998142D01*
X36994142Y-41069571D01*
X37565571Y-41069571D01*
X37565571Y-39569571D01*
X37065571Y-39569571D01*
X36922714Y-39641000D01*
X36851285Y-39712428D01*
X36779857Y-39855285D01*
X36779857Y-39998142D01*
X36851285Y-40141000D01*
X36922714Y-40212428D01*
X37065571Y-40283857D01*
X37565571Y-40283857D01*
X35779857Y-39569571D02*
X35494142Y-39569571D01*
X35351285Y-39641000D01*
X35208428Y-39783857D01*
X35137000Y-40069571D01*
X35137000Y-40569571D01*
X35208428Y-40855285D01*
X35351285Y-40998142D01*
X35494142Y-41069571D01*
X35779857Y-41069571D01*
X35922714Y-40998142D01*
X36065571Y-40855285D01*
X36137000Y-40569571D01*
X36137000Y-40069571D01*
X36065571Y-39783857D01*
X35922714Y-39641000D01*
X35779857Y-39569571D01*
X34494142Y-41069571D02*
X34494142Y-39569571D01*
X34137000Y-39569571D01*
X33922714Y-39641000D01*
X33779857Y-39783857D01*
X33708428Y-39926714D01*
X33637000Y-40212428D01*
X33637000Y-40426714D01*
X33708428Y-40712428D01*
X33779857Y-40855285D01*
X33922714Y-40998142D01*
X34137000Y-41069571D01*
X34494142Y-41069571D01*
X32708428Y-40355285D02*
X32708428Y-41069571D01*
X33208428Y-39569571D02*
X32708428Y-40355285D01*
X32208428Y-39569571D01*
X52351285Y-42262428D02*
X52279857Y-42191000D01*
X52137000Y-42119571D01*
X51779857Y-42119571D01*
X51637000Y-42191000D01*
X51565571Y-42262428D01*
X51494142Y-42405285D01*
X51494142Y-42548142D01*
X51565571Y-42762428D01*
X52422714Y-43619571D01*
X51494142Y-43619571D01*
X50922714Y-42262428D02*
X50851285Y-42191000D01*
X50708428Y-42119571D01*
X50351285Y-42119571D01*
X50208428Y-42191000D01*
X50137000Y-42262428D01*
X50065571Y-42405285D01*
X50065571Y-42548142D01*
X50137000Y-42762428D01*
X50994142Y-43619571D01*
X50065571Y-43619571D01*
X44851285Y-43619571D02*
X44851285Y-42119571D01*
X44351285Y-43191000D01*
X43851285Y-42119571D01*
X43851285Y-43619571D01*
X42851285Y-42119571D02*
X42565571Y-42119571D01*
X42422714Y-42191000D01*
X42279857Y-42333857D01*
X42208428Y-42619571D01*
X42208428Y-43119571D01*
X42279857Y-43405285D01*
X42422714Y-43548142D01*
X42565571Y-43619571D01*
X42851285Y-43619571D01*
X42994142Y-43548142D01*
X43137000Y-43405285D01*
X43208428Y-43119571D01*
X43208428Y-42619571D01*
X43137000Y-42333857D01*
X42994142Y-42191000D01*
X42851285Y-42119571D01*
X41779857Y-42119571D02*
X40922714Y-42119571D01*
X41351285Y-43619571D02*
X41351285Y-42119571D01*
X40422714Y-43619571D02*
X40422714Y-42119571D01*
X39422714Y-42119571D02*
X39137000Y-42119571D01*
X38994142Y-42191000D01*
X38851285Y-42333857D01*
X38779857Y-42619571D01*
X38779857Y-43119571D01*
X38851285Y-43405285D01*
X38994142Y-43548142D01*
X39137000Y-43619571D01*
X39422714Y-43619571D01*
X39565571Y-43548142D01*
X39708428Y-43405285D01*
X39779857Y-43119571D01*
X39779857Y-42619571D01*
X39708428Y-42333857D01*
X39565571Y-42191000D01*
X39422714Y-42119571D01*
X38137000Y-43619571D02*
X38137000Y-42119571D01*
X37279857Y-43619571D01*
X37279857Y-42119571D01*
X52351285Y-44812428D02*
X52279857Y-44741000D01*
X52137000Y-44669571D01*
X51779857Y-44669571D01*
X51637000Y-44741000D01*
X51565571Y-44812428D01*
X51494142Y-44955285D01*
X51494142Y-45098142D01*
X51565571Y-45312428D01*
X52422714Y-46169571D01*
X51494142Y-46169571D01*
X50994142Y-44669571D02*
X50065571Y-44669571D01*
X50565571Y-45241000D01*
X50351285Y-45241000D01*
X50208428Y-45312428D01*
X50137000Y-45383857D01*
X50065571Y-45526714D01*
X50065571Y-45883857D01*
X50137000Y-46026714D01*
X50208428Y-46098142D01*
X50351285Y-46169571D01*
X50779857Y-46169571D01*
X50922714Y-46098142D01*
X50994142Y-46026714D01*
X44851285Y-46169571D02*
X44851285Y-44669571D01*
X44851285Y-45383857D02*
X43994142Y-45383857D01*
X43994142Y-46169571D02*
X43994142Y-44669571D01*
X43279857Y-44669571D02*
X43279857Y-45883857D01*
X43208428Y-46026714D01*
X43137000Y-46098142D01*
X42994142Y-46169571D01*
X42708428Y-46169571D01*
X42565571Y-46098142D01*
X42494142Y-46026714D01*
X42422714Y-45883857D01*
X42422714Y-44669571D01*
X41708428Y-46169571D02*
X41708428Y-44669571D01*
X41208428Y-45741000D01*
X40708428Y-44669571D01*
X40708428Y-46169571D01*
X39994142Y-46169571D02*
X39994142Y-44669571D01*
X39279857Y-46169571D02*
X39279857Y-44669571D01*
X38922714Y-44669571D01*
X38708428Y-44741000D01*
X38565571Y-44883857D01*
X38494142Y-45026714D01*
X38422714Y-45312428D01*
X38422714Y-45526714D01*
X38494142Y-45812428D01*
X38565571Y-45955285D01*
X38708428Y-46098142D01*
X38922714Y-46169571D01*
X39279857Y-46169571D01*
X37779857Y-46169571D02*
X37779857Y-44669571D01*
X37279857Y-44669571D02*
X36422714Y-44669571D01*
X36851285Y-46169571D02*
X36851285Y-44669571D01*
X35637000Y-45455285D02*
X35637000Y-46169571D01*
X36137000Y-44669571D02*
X35637000Y-45455285D01*
X35137000Y-44669571D01*
X51494142Y-48719571D02*
X52351285Y-48719571D01*
X51922714Y-48719571D02*
X51922714Y-47219571D01*
X52065571Y-47433857D01*
X52208428Y-47576714D01*
X52351285Y-47648142D01*
X50208428Y-47719571D02*
X50208428Y-48719571D01*
X50565571Y-47148142D02*
X50922714Y-48219571D01*
X49994142Y-48219571D01*
X45065571Y-47219571D02*
X44208428Y-47219571D01*
X44637000Y-48719571D02*
X44637000Y-47219571D01*
X43708428Y-47933857D02*
X43208428Y-47933857D01*
X42994142Y-48719571D02*
X43708428Y-48719571D01*
X43708428Y-47219571D01*
X42994142Y-47219571D01*
X42351285Y-48719571D02*
X42351285Y-47219571D01*
X41851285Y-48291000D01*
X41351285Y-47219571D01*
X41351285Y-48719571D01*
X40637000Y-48719571D02*
X40637000Y-47219571D01*
X40065571Y-47219571D01*
X39922714Y-47291000D01*
X39851285Y-47362428D01*
X39779857Y-47505285D01*
X39779857Y-47719571D01*
X39851285Y-47862428D01*
X39922714Y-47933857D01*
X40065571Y-48005285D01*
X40637000Y-48005285D01*
X39137000Y-47933857D02*
X38637000Y-47933857D01*
X38422714Y-48719571D02*
X39137000Y-48719571D01*
X39137000Y-47219571D01*
X38422714Y-47219571D01*
X36922714Y-48719571D02*
X37422714Y-48005285D01*
X37779857Y-48719571D02*
X37779857Y-47219571D01*
X37208428Y-47219571D01*
X37065571Y-47291000D01*
X36994142Y-47362428D01*
X36922714Y-47505285D01*
X36922714Y-47719571D01*
X36994142Y-47862428D01*
X37065571Y-47933857D01*
X37208428Y-48005285D01*
X37779857Y-48005285D01*
X36351285Y-48291000D02*
X35637000Y-48291000D01*
X36494142Y-48719571D02*
X35994142Y-47219571D01*
X35494142Y-48719571D01*
X35208428Y-47219571D02*
X34351285Y-47219571D01*
X34779857Y-48719571D02*
X34779857Y-47219571D01*
X33851285Y-47219571D02*
X33851285Y-48433857D01*
X33779857Y-48576714D01*
X33708428Y-48648142D01*
X33565571Y-48719571D01*
X33279857Y-48719571D01*
X33137000Y-48648142D01*
X33065571Y-48576714D01*
X32994142Y-48433857D01*
X32994142Y-47219571D01*
X31422714Y-48719571D02*
X31922714Y-48005285D01*
X32279857Y-48719571D02*
X32279857Y-47219571D01*
X31708428Y-47219571D01*
X31565571Y-47291000D01*
X31494142Y-47362428D01*
X31422714Y-47505285D01*
X31422714Y-47719571D01*
X31494142Y-47862428D01*
X31565571Y-47933857D01*
X31708428Y-48005285D01*
X32279857Y-48005285D01*
X30779857Y-47933857D02*
X30279857Y-47933857D01*
X30065571Y-48719571D02*
X30779857Y-48719571D01*
X30779857Y-47219571D01*
X30065571Y-47219571D01*
X51994142Y-49769571D02*
X51851285Y-49769571D01*
X51708428Y-49841000D01*
X51637000Y-49912428D01*
X51565571Y-50055285D01*
X51494142Y-50341000D01*
X51494142Y-50698142D01*
X51565571Y-50983857D01*
X51637000Y-51126714D01*
X51708428Y-51198142D01*
X51851285Y-51269571D01*
X51994142Y-51269571D01*
X52137000Y-51198142D01*
X52208428Y-51126714D01*
X52279857Y-50983857D01*
X52351285Y-50698142D01*
X52351285Y-50341000D01*
X52279857Y-50055285D01*
X52208428Y-49912428D01*
X52137000Y-49841000D01*
X51994142Y-49769571D01*
X50994142Y-49769571D02*
X49994142Y-49769571D01*
X50637000Y-51269571D01*
X44351285Y-50483857D02*
X44851285Y-50483857D01*
X44851285Y-51269571D02*
X44851285Y-49769571D01*
X44137000Y-49769571D01*
X42708428Y-51269571D02*
X43208428Y-50555285D01*
X43565571Y-51269571D02*
X43565571Y-49769571D01*
X42994142Y-49769571D01*
X42851285Y-49841000D01*
X42779857Y-49912428D01*
X42708428Y-50055285D01*
X42708428Y-50269571D01*
X42779857Y-50412428D01*
X42851285Y-50483857D01*
X42994142Y-50555285D01*
X43565571Y-50555285D01*
X42065571Y-50483857D02*
X41565571Y-50483857D01*
X41351285Y-51269571D02*
X42065571Y-51269571D01*
X42065571Y-49769571D01*
X41351285Y-49769571D01*
X40708428Y-50483857D02*
X40208428Y-50483857D01*
X39994142Y-51269571D02*
X40708428Y-51269571D01*
X40708428Y-49769571D01*
X39994142Y-49769571D01*
X51994142Y-52319571D02*
X51851285Y-52319571D01*
X51708428Y-52391000D01*
X51637000Y-52462428D01*
X51565571Y-52605285D01*
X51494142Y-52891000D01*
X51494142Y-53248142D01*
X51565571Y-53533857D01*
X51637000Y-53676714D01*
X51708428Y-53748142D01*
X51851285Y-53819571D01*
X51994142Y-53819571D01*
X52137000Y-53748142D01*
X52208428Y-53676714D01*
X52279857Y-53533857D01*
X52351285Y-53248142D01*
X52351285Y-52891000D01*
X52279857Y-52605285D01*
X52208428Y-52462428D01*
X52137000Y-52391000D01*
X51994142Y-52319571D01*
X50637000Y-52962428D02*
X50779857Y-52891000D01*
X50851285Y-52819571D01*
X50922714Y-52676714D01*
X50922714Y-52605285D01*
X50851285Y-52462428D01*
X50779857Y-52391000D01*
X50637000Y-52319571D01*
X50351285Y-52319571D01*
X50208428Y-52391000D01*
X50137000Y-52462428D01*
X50065571Y-52605285D01*
X50065571Y-52676714D01*
X50137000Y-52819571D01*
X50208428Y-52891000D01*
X50351285Y-52962428D01*
X50637000Y-52962428D01*
X50779857Y-53033857D01*
X50851285Y-53105285D01*
X50922714Y-53248142D01*
X50922714Y-53533857D01*
X50851285Y-53676714D01*
X50779857Y-53748142D01*
X50637000Y-53819571D01*
X50351285Y-53819571D01*
X50208428Y-53748142D01*
X50137000Y-53676714D01*
X50065571Y-53533857D01*
X50065571Y-53248142D01*
X50137000Y-53105285D01*
X50208428Y-53033857D01*
X50351285Y-52962428D01*
X44351285Y-53033857D02*
X44851285Y-53033857D01*
X44851285Y-53819571D02*
X44851285Y-52319571D01*
X44137000Y-52319571D01*
X42708428Y-53819571D02*
X43208428Y-53105285D01*
X43565571Y-53819571D02*
X43565571Y-52319571D01*
X42994142Y-52319571D01*
X42851285Y-52391000D01*
X42779857Y-52462428D01*
X42708428Y-52605285D01*
X42708428Y-52819571D01*
X42779857Y-52962428D01*
X42851285Y-53033857D01*
X42994142Y-53105285D01*
X43565571Y-53105285D01*
X42065571Y-53033857D02*
X41565571Y-53033857D01*
X41351285Y-53819571D02*
X42065571Y-53819571D01*
X42065571Y-52319571D01*
X41351285Y-52319571D01*
X40708428Y-53033857D02*
X40208428Y-53033857D01*
X39994142Y-53819571D02*
X40708428Y-53819571D01*
X40708428Y-52319571D01*
X39994142Y-52319571D01*
X51494142Y-56369571D02*
X52351285Y-56369571D01*
X51922714Y-56369571D02*
X51922714Y-54869571D01*
X52065571Y-55083857D01*
X52208428Y-55226714D01*
X52351285Y-55298142D01*
X50922714Y-55012428D02*
X50851285Y-54941000D01*
X50708428Y-54869571D01*
X50351285Y-54869571D01*
X50208428Y-54941000D01*
X50137000Y-55012428D01*
X50065571Y-55155285D01*
X50065571Y-55298142D01*
X50137000Y-55512428D01*
X50994142Y-56369571D01*
X50065571Y-56369571D01*
X44351285Y-55583857D02*
X44851285Y-55583857D01*
X44851285Y-56369571D02*
X44851285Y-54869571D01*
X44137000Y-54869571D01*
X42708428Y-56369571D02*
X43208428Y-55655285D01*
X43565571Y-56369571D02*
X43565571Y-54869571D01*
X42994142Y-54869571D01*
X42851285Y-54941000D01*
X42779857Y-55012428D01*
X42708428Y-55155285D01*
X42708428Y-55369571D01*
X42779857Y-55512428D01*
X42851285Y-55583857D01*
X42994142Y-55655285D01*
X43565571Y-55655285D01*
X42065571Y-55583857D02*
X41565571Y-55583857D01*
X41351285Y-56369571D02*
X42065571Y-56369571D01*
X42065571Y-54869571D01*
X41351285Y-54869571D01*
X40708428Y-55583857D02*
X40208428Y-55583857D01*
X39994142Y-56369571D02*
X40708428Y-56369571D01*
X40708428Y-54869571D01*
X39994142Y-54869571D01*
X79180142Y-21791000D02*
X79323000Y-21719571D01*
X79537285Y-21719571D01*
X79751571Y-21791000D01*
X79894428Y-21933857D01*
X79965857Y-22076714D01*
X80037285Y-22362428D01*
X80037285Y-22576714D01*
X79965857Y-22862428D01*
X79894428Y-23005285D01*
X79751571Y-23148142D01*
X79537285Y-23219571D01*
X79394428Y-23219571D01*
X79180142Y-23148142D01*
X79108714Y-23076714D01*
X79108714Y-22576714D01*
X79394428Y-22576714D01*
X78465857Y-23219571D02*
X78465857Y-21719571D01*
X77894428Y-21719571D01*
X77751571Y-21791000D01*
X77680142Y-21862428D01*
X77608714Y-22005285D01*
X77608714Y-22219571D01*
X77680142Y-22362428D01*
X77751571Y-22433857D01*
X77894428Y-22505285D01*
X78465857Y-22505285D01*
X76965857Y-23219571D02*
X76965857Y-21719571D01*
X75965857Y-21719571D02*
X75680142Y-21719571D01*
X75537285Y-21791000D01*
X75394428Y-21933857D01*
X75323000Y-22219571D01*
X75323000Y-22719571D01*
X75394428Y-23005285D01*
X75537285Y-23148142D01*
X75680142Y-23219571D01*
X75965857Y-23219571D01*
X76108714Y-23148142D01*
X76251571Y-23005285D01*
X76323000Y-22719571D01*
X76323000Y-22219571D01*
X76251571Y-21933857D01*
X76108714Y-21791000D01*
X75965857Y-21719571D01*
X71537285Y-23076714D02*
X71608714Y-23148142D01*
X71823000Y-23219571D01*
X71965857Y-23219571D01*
X72180142Y-23148142D01*
X72323000Y-23005285D01*
X72394428Y-22862428D01*
X72465857Y-22576714D01*
X72465857Y-22362428D01*
X72394428Y-22076714D01*
X72323000Y-21933857D01*
X72180142Y-21791000D01*
X71965857Y-21719571D01*
X71823000Y-21719571D01*
X71608714Y-21791000D01*
X71537285Y-21862428D01*
X70608714Y-21719571D02*
X70323000Y-21719571D01*
X70180142Y-21791000D01*
X70037285Y-21933857D01*
X69965857Y-22219571D01*
X69965857Y-22719571D01*
X70037285Y-23005285D01*
X70180142Y-23148142D01*
X70323000Y-23219571D01*
X70608714Y-23219571D01*
X70751571Y-23148142D01*
X70894428Y-23005285D01*
X70965857Y-22719571D01*
X70965857Y-22219571D01*
X70894428Y-21933857D01*
X70751571Y-21791000D01*
X70608714Y-21719571D01*
X69323000Y-23219571D02*
X69323000Y-21719571D01*
X68823000Y-22791000D01*
X68323000Y-21719571D01*
X68323000Y-23219571D01*
X67608714Y-23219571D02*
X67608714Y-21719571D01*
X67037285Y-21719571D01*
X66894428Y-21791000D01*
X66823000Y-21862428D01*
X66751571Y-22005285D01*
X66751571Y-22219571D01*
X66823000Y-22362428D01*
X66894428Y-22433857D01*
X67037285Y-22505285D01*
X67608714Y-22505285D01*
X65823000Y-21719571D02*
X65537285Y-21719571D01*
X65394428Y-21791000D01*
X65251571Y-21933857D01*
X65180142Y-22219571D01*
X65180142Y-22719571D01*
X65251571Y-23005285D01*
X65394428Y-23148142D01*
X65537285Y-23219571D01*
X65823000Y-23219571D01*
X65965857Y-23148142D01*
X66108714Y-23005285D01*
X66180142Y-22719571D01*
X66180142Y-22219571D01*
X66108714Y-21933857D01*
X65965857Y-21791000D01*
X65823000Y-21719571D01*
X64537285Y-23219571D02*
X64537285Y-21719571D01*
X63680142Y-23219571D01*
X63680142Y-21719571D01*
X62965857Y-22433857D02*
X62465857Y-22433857D01*
X62251571Y-23219571D02*
X62965857Y-23219571D01*
X62965857Y-21719571D01*
X62251571Y-21719571D01*
X61608714Y-23219571D02*
X61608714Y-21719571D01*
X60751571Y-23219571D01*
X60751571Y-21719571D01*
X60251571Y-21719571D02*
X59394428Y-21719571D01*
X59823000Y-23219571D02*
X59823000Y-21719571D01*
X79680142Y-24269571D02*
X79537285Y-24269571D01*
X79394428Y-24341000D01*
X79323000Y-24412428D01*
X79251571Y-24555285D01*
X79180142Y-24841000D01*
X79180142Y-25198142D01*
X79251571Y-25483857D01*
X79323000Y-25626714D01*
X79394428Y-25698142D01*
X79537285Y-25769571D01*
X79680142Y-25769571D01*
X79823000Y-25698142D01*
X79894428Y-25626714D01*
X79965857Y-25483857D01*
X80037285Y-25198142D01*
X80037285Y-24841000D01*
X79965857Y-24555285D01*
X79894428Y-24412428D01*
X79823000Y-24341000D01*
X79680142Y-24269571D01*
X78323000Y-24912428D02*
X78465857Y-24841000D01*
X78537285Y-24769571D01*
X78608714Y-24626714D01*
X78608714Y-24555285D01*
X78537285Y-24412428D01*
X78465857Y-24341000D01*
X78323000Y-24269571D01*
X78037285Y-24269571D01*
X77894428Y-24341000D01*
X77823000Y-24412428D01*
X77751571Y-24555285D01*
X77751571Y-24626714D01*
X77823000Y-24769571D01*
X77894428Y-24841000D01*
X78037285Y-24912428D01*
X78323000Y-24912428D01*
X78465857Y-24983857D01*
X78537285Y-25055285D01*
X78608714Y-25198142D01*
X78608714Y-25483857D01*
X78537285Y-25626714D01*
X78465857Y-25698142D01*
X78323000Y-25769571D01*
X78037285Y-25769571D01*
X77894428Y-25698142D01*
X77823000Y-25626714D01*
X77751571Y-25483857D01*
X77751571Y-25198142D01*
X77823000Y-25055285D01*
X77894428Y-24983857D01*
X78037285Y-24912428D01*
X72537285Y-25769571D02*
X72537285Y-24269571D01*
X72037285Y-25341000D01*
X71537285Y-24269571D01*
X71537285Y-25769571D01*
X70537285Y-24269571D02*
X70251571Y-24269571D01*
X70108714Y-24341000D01*
X69965857Y-24483857D01*
X69894428Y-24769571D01*
X69894428Y-25269571D01*
X69965857Y-25555285D01*
X70108714Y-25698142D01*
X70251571Y-25769571D01*
X70537285Y-25769571D01*
X70680142Y-25698142D01*
X70823000Y-25555285D01*
X70894428Y-25269571D01*
X70894428Y-24769571D01*
X70823000Y-24483857D01*
X70680142Y-24341000D01*
X70537285Y-24269571D01*
X69465857Y-24269571D02*
X68608714Y-24269571D01*
X69037285Y-25769571D02*
X69037285Y-24269571D01*
X67823000Y-24269571D02*
X67537285Y-24269571D01*
X67394428Y-24341000D01*
X67251571Y-24483857D01*
X67180142Y-24769571D01*
X67180142Y-25269571D01*
X67251571Y-25555285D01*
X67394428Y-25698142D01*
X67537285Y-25769571D01*
X67823000Y-25769571D01*
X67965857Y-25698142D01*
X68108714Y-25555285D01*
X68180142Y-25269571D01*
X68180142Y-24769571D01*
X68108714Y-24483857D01*
X67965857Y-24341000D01*
X67823000Y-24269571D01*
X65680142Y-25769571D02*
X66180142Y-25055285D01*
X66537285Y-25769571D02*
X66537285Y-24269571D01*
X65965857Y-24269571D01*
X65823000Y-24341000D01*
X65751571Y-24412428D01*
X65680142Y-24555285D01*
X65680142Y-24769571D01*
X65751571Y-24912428D01*
X65823000Y-24983857D01*
X65965857Y-25055285D01*
X66537285Y-25055285D01*
X64251571Y-25769571D02*
X65108714Y-25769571D01*
X64680142Y-25769571D02*
X64680142Y-24269571D01*
X64823000Y-24483857D01*
X64965857Y-24626714D01*
X65108714Y-24698142D01*
X63965857Y-25912428D02*
X62823000Y-25912428D01*
X61965857Y-24983857D02*
X62465857Y-24983857D01*
X62465857Y-25769571D02*
X62465857Y-24269571D01*
X61751571Y-24269571D01*
X79180142Y-28319571D02*
X80037285Y-28319571D01*
X79608714Y-28319571D02*
X79608714Y-26819571D01*
X79751571Y-27033857D01*
X79894428Y-27176714D01*
X80037285Y-27248142D01*
X77823000Y-26819571D02*
X78537285Y-26819571D01*
X78608714Y-27533857D01*
X78537285Y-27462428D01*
X78394428Y-27391000D01*
X78037285Y-27391000D01*
X77894428Y-27462428D01*
X77823000Y-27533857D01*
X77751571Y-27676714D01*
X77751571Y-28033857D01*
X77823000Y-28176714D01*
X77894428Y-28248142D01*
X78037285Y-28319571D01*
X78394428Y-28319571D01*
X78537285Y-28248142D01*
X78608714Y-28176714D01*
X72537285Y-28319571D02*
X72537285Y-26819571D01*
X72037285Y-27891000D01*
X71537285Y-26819571D01*
X71537285Y-28319571D01*
X70537285Y-26819571D02*
X70251571Y-26819571D01*
X70108714Y-26891000D01*
X69965857Y-27033857D01*
X69894428Y-27319571D01*
X69894428Y-27819571D01*
X69965857Y-28105285D01*
X70108714Y-28248142D01*
X70251571Y-28319571D01*
X70537285Y-28319571D01*
X70680142Y-28248142D01*
X70823000Y-28105285D01*
X70894428Y-27819571D01*
X70894428Y-27319571D01*
X70823000Y-27033857D01*
X70680142Y-26891000D01*
X70537285Y-26819571D01*
X69465857Y-26819571D02*
X68608714Y-26819571D01*
X69037285Y-28319571D02*
X69037285Y-26819571D01*
X67823000Y-26819571D02*
X67537285Y-26819571D01*
X67394428Y-26891000D01*
X67251571Y-27033857D01*
X67180142Y-27319571D01*
X67180142Y-27819571D01*
X67251571Y-28105285D01*
X67394428Y-28248142D01*
X67537285Y-28319571D01*
X67823000Y-28319571D01*
X67965857Y-28248142D01*
X68108714Y-28105285D01*
X68180142Y-27819571D01*
X68180142Y-27319571D01*
X68108714Y-27033857D01*
X67965857Y-26891000D01*
X67823000Y-26819571D01*
X65680142Y-28319571D02*
X66180142Y-27605285D01*
X66537285Y-28319571D02*
X66537285Y-26819571D01*
X65965857Y-26819571D01*
X65823000Y-26891000D01*
X65751571Y-26962428D01*
X65680142Y-27105285D01*
X65680142Y-27319571D01*
X65751571Y-27462428D01*
X65823000Y-27533857D01*
X65965857Y-27605285D01*
X66537285Y-27605285D01*
X64251571Y-28319571D02*
X65108714Y-28319571D01*
X64680142Y-28319571D02*
X64680142Y-26819571D01*
X64823000Y-27033857D01*
X64965857Y-27176714D01*
X65108714Y-27248142D01*
X63965857Y-28462428D02*
X62823000Y-28462428D01*
X61965857Y-27533857D02*
X61751571Y-27605285D01*
X61680142Y-27676714D01*
X61608714Y-27819571D01*
X61608714Y-28033857D01*
X61680142Y-28176714D01*
X61751571Y-28248142D01*
X61894428Y-28319571D01*
X62465857Y-28319571D01*
X62465857Y-26819571D01*
X61965857Y-26819571D01*
X61823000Y-26891000D01*
X61751571Y-26962428D01*
X61680142Y-27105285D01*
X61680142Y-27248142D01*
X61751571Y-27391000D01*
X61823000Y-27462428D01*
X61965857Y-27533857D01*
X62465857Y-27533857D01*
X80037285Y-29512428D02*
X79965857Y-29441000D01*
X79823000Y-29369571D01*
X79465857Y-29369571D01*
X79323000Y-29441000D01*
X79251571Y-29512428D01*
X79180142Y-29655285D01*
X79180142Y-29798142D01*
X79251571Y-30012428D01*
X80108714Y-30869571D01*
X79180142Y-30869571D01*
X78680142Y-29369571D02*
X77680142Y-29369571D01*
X78323000Y-30869571D01*
X72537285Y-30869571D02*
X72537285Y-29369571D01*
X72037285Y-30441000D01*
X71537285Y-29369571D01*
X71537285Y-30869571D01*
X70537285Y-29369571D02*
X70251571Y-29369571D01*
X70108714Y-29441000D01*
X69965857Y-29583857D01*
X69894428Y-29869571D01*
X69894428Y-30369571D01*
X69965857Y-30655285D01*
X70108714Y-30798142D01*
X70251571Y-30869571D01*
X70537285Y-30869571D01*
X70680142Y-30798142D01*
X70823000Y-30655285D01*
X70894428Y-30369571D01*
X70894428Y-29869571D01*
X70823000Y-29583857D01*
X70680142Y-29441000D01*
X70537285Y-29369571D01*
X69465857Y-29369571D02*
X68608714Y-29369571D01*
X69037285Y-30869571D02*
X69037285Y-29369571D01*
X67823000Y-29369571D02*
X67537285Y-29369571D01*
X67394428Y-29441000D01*
X67251571Y-29583857D01*
X67180142Y-29869571D01*
X67180142Y-30369571D01*
X67251571Y-30655285D01*
X67394428Y-30798142D01*
X67537285Y-30869571D01*
X67823000Y-30869571D01*
X67965857Y-30798142D01*
X68108714Y-30655285D01*
X68180142Y-30369571D01*
X68180142Y-29869571D01*
X68108714Y-29583857D01*
X67965857Y-29441000D01*
X67823000Y-29369571D01*
X65680142Y-30869571D02*
X66180142Y-30155285D01*
X66537285Y-30869571D02*
X66537285Y-29369571D01*
X65965857Y-29369571D01*
X65823000Y-29441000D01*
X65751571Y-29512428D01*
X65680142Y-29655285D01*
X65680142Y-29869571D01*
X65751571Y-30012428D01*
X65823000Y-30083857D01*
X65965857Y-30155285D01*
X66537285Y-30155285D01*
X65108714Y-29512428D02*
X65037285Y-29441000D01*
X64894428Y-29369571D01*
X64537285Y-29369571D01*
X64394428Y-29441000D01*
X64323000Y-29512428D01*
X64251571Y-29655285D01*
X64251571Y-29798142D01*
X64323000Y-30012428D01*
X65180142Y-30869571D01*
X64251571Y-30869571D01*
X63965857Y-31012428D02*
X62823000Y-31012428D01*
X61965857Y-30083857D02*
X62465857Y-30083857D01*
X62465857Y-30869571D02*
X62465857Y-29369571D01*
X61751571Y-29369571D01*
X79180142Y-33419571D02*
X80037285Y-33419571D01*
X79608714Y-33419571D02*
X79608714Y-31919571D01*
X79751571Y-32133857D01*
X79894428Y-32276714D01*
X80037285Y-32348142D01*
X78680142Y-31919571D02*
X77680142Y-31919571D01*
X78323000Y-33419571D01*
X72537285Y-33419571D02*
X72537285Y-31919571D01*
X72037285Y-32991000D01*
X71537285Y-31919571D01*
X71537285Y-33419571D01*
X70537285Y-31919571D02*
X70251571Y-31919571D01*
X70108714Y-31991000D01*
X69965857Y-32133857D01*
X69894428Y-32419571D01*
X69894428Y-32919571D01*
X69965857Y-33205285D01*
X70108714Y-33348142D01*
X70251571Y-33419571D01*
X70537285Y-33419571D01*
X70680142Y-33348142D01*
X70823000Y-33205285D01*
X70894428Y-32919571D01*
X70894428Y-32419571D01*
X70823000Y-32133857D01*
X70680142Y-31991000D01*
X70537285Y-31919571D01*
X69465857Y-31919571D02*
X68608714Y-31919571D01*
X69037285Y-33419571D02*
X69037285Y-31919571D01*
X67823000Y-31919571D02*
X67537285Y-31919571D01*
X67394428Y-31991000D01*
X67251571Y-32133857D01*
X67180142Y-32419571D01*
X67180142Y-32919571D01*
X67251571Y-33205285D01*
X67394428Y-33348142D01*
X67537285Y-33419571D01*
X67823000Y-33419571D01*
X67965857Y-33348142D01*
X68108714Y-33205285D01*
X68180142Y-32919571D01*
X68180142Y-32419571D01*
X68108714Y-32133857D01*
X67965857Y-31991000D01*
X67823000Y-31919571D01*
X65680142Y-33419571D02*
X66180142Y-32705285D01*
X66537285Y-33419571D02*
X66537285Y-31919571D01*
X65965857Y-31919571D01*
X65823000Y-31991000D01*
X65751571Y-32062428D01*
X65680142Y-32205285D01*
X65680142Y-32419571D01*
X65751571Y-32562428D01*
X65823000Y-32633857D01*
X65965857Y-32705285D01*
X66537285Y-32705285D01*
X65108714Y-32062428D02*
X65037285Y-31991000D01*
X64894428Y-31919571D01*
X64537285Y-31919571D01*
X64394428Y-31991000D01*
X64323000Y-32062428D01*
X64251571Y-32205285D01*
X64251571Y-32348142D01*
X64323000Y-32562428D01*
X65180142Y-33419571D01*
X64251571Y-33419571D01*
X63965857Y-33562428D02*
X62823000Y-33562428D01*
X61965857Y-32633857D02*
X61751571Y-32705285D01*
X61680142Y-32776714D01*
X61608714Y-32919571D01*
X61608714Y-33133857D01*
X61680142Y-33276714D01*
X61751571Y-33348142D01*
X61894428Y-33419571D01*
X62465857Y-33419571D01*
X62465857Y-31919571D01*
X61965857Y-31919571D01*
X61823000Y-31991000D01*
X61751571Y-32062428D01*
X61680142Y-32205285D01*
X61680142Y-32348142D01*
X61751571Y-32491000D01*
X61823000Y-32562428D01*
X61965857Y-32633857D01*
X62465857Y-32633857D01*
X79680142Y-34469571D02*
X79537285Y-34469571D01*
X79394428Y-34541000D01*
X79323000Y-34612428D01*
X79251571Y-34755285D01*
X79180142Y-35041000D01*
X79180142Y-35398142D01*
X79251571Y-35683857D01*
X79323000Y-35826714D01*
X79394428Y-35898142D01*
X79537285Y-35969571D01*
X79680142Y-35969571D01*
X79823000Y-35898142D01*
X79894428Y-35826714D01*
X79965857Y-35683857D01*
X80037285Y-35398142D01*
X80037285Y-35041000D01*
X79965857Y-34755285D01*
X79894428Y-34612428D01*
X79823000Y-34541000D01*
X79680142Y-34469571D01*
X78680142Y-34469571D02*
X77751571Y-34469571D01*
X78251571Y-35041000D01*
X78037285Y-35041000D01*
X77894428Y-35112428D01*
X77823000Y-35183857D01*
X77751571Y-35326714D01*
X77751571Y-35683857D01*
X77823000Y-35826714D01*
X77894428Y-35898142D01*
X78037285Y-35969571D01*
X78465857Y-35969571D01*
X78608714Y-35898142D01*
X78680142Y-35826714D01*
X72537285Y-35969571D02*
X72537285Y-34469571D01*
X72037285Y-35541000D01*
X71537285Y-34469571D01*
X71537285Y-35969571D01*
X70537285Y-34469571D02*
X70251571Y-34469571D01*
X70108714Y-34541000D01*
X69965857Y-34683857D01*
X69894428Y-34969571D01*
X69894428Y-35469571D01*
X69965857Y-35755285D01*
X70108714Y-35898142D01*
X70251571Y-35969571D01*
X70537285Y-35969571D01*
X70680142Y-35898142D01*
X70823000Y-35755285D01*
X70894428Y-35469571D01*
X70894428Y-34969571D01*
X70823000Y-34683857D01*
X70680142Y-34541000D01*
X70537285Y-34469571D01*
X69465857Y-34469571D02*
X68608714Y-34469571D01*
X69037285Y-35969571D02*
X69037285Y-34469571D01*
X67823000Y-34469571D02*
X67537285Y-34469571D01*
X67394428Y-34541000D01*
X67251571Y-34683857D01*
X67180142Y-34969571D01*
X67180142Y-35469571D01*
X67251571Y-35755285D01*
X67394428Y-35898142D01*
X67537285Y-35969571D01*
X67823000Y-35969571D01*
X67965857Y-35898142D01*
X68108714Y-35755285D01*
X68180142Y-35469571D01*
X68180142Y-34969571D01*
X68108714Y-34683857D01*
X67965857Y-34541000D01*
X67823000Y-34469571D01*
X65680142Y-35969571D02*
X66180142Y-35255285D01*
X66537285Y-35969571D02*
X66537285Y-34469571D01*
X65965857Y-34469571D01*
X65823000Y-34541000D01*
X65751571Y-34612428D01*
X65680142Y-34755285D01*
X65680142Y-34969571D01*
X65751571Y-35112428D01*
X65823000Y-35183857D01*
X65965857Y-35255285D01*
X66537285Y-35255285D01*
X65180142Y-34469571D02*
X64251571Y-34469571D01*
X64751571Y-35041000D01*
X64537285Y-35041000D01*
X64394428Y-35112428D01*
X64323000Y-35183857D01*
X64251571Y-35326714D01*
X64251571Y-35683857D01*
X64323000Y-35826714D01*
X64394428Y-35898142D01*
X64537285Y-35969571D01*
X64965857Y-35969571D01*
X65108714Y-35898142D01*
X65180142Y-35826714D01*
X63965857Y-36112428D02*
X62823000Y-36112428D01*
X61965857Y-35183857D02*
X62465857Y-35183857D01*
X62465857Y-35969571D02*
X62465857Y-34469571D01*
X61751571Y-34469571D01*
X79680142Y-37019571D02*
X79537285Y-37019571D01*
X79394428Y-37091000D01*
X79323000Y-37162428D01*
X79251571Y-37305285D01*
X79180142Y-37591000D01*
X79180142Y-37948142D01*
X79251571Y-38233857D01*
X79323000Y-38376714D01*
X79394428Y-38448142D01*
X79537285Y-38519571D01*
X79680142Y-38519571D01*
X79823000Y-38448142D01*
X79894428Y-38376714D01*
X79965857Y-38233857D01*
X80037285Y-37948142D01*
X80037285Y-37591000D01*
X79965857Y-37305285D01*
X79894428Y-37162428D01*
X79823000Y-37091000D01*
X79680142Y-37019571D01*
X78608714Y-37162428D02*
X78537285Y-37091000D01*
X78394428Y-37019571D01*
X78037285Y-37019571D01*
X77894428Y-37091000D01*
X77823000Y-37162428D01*
X77751571Y-37305285D01*
X77751571Y-37448142D01*
X77823000Y-37662428D01*
X78680142Y-38519571D01*
X77751571Y-38519571D01*
X72537285Y-38519571D02*
X72537285Y-37019571D01*
X72037285Y-38091000D01*
X71537285Y-37019571D01*
X71537285Y-38519571D01*
X70537285Y-37019571D02*
X70251571Y-37019571D01*
X70108714Y-37091000D01*
X69965857Y-37233857D01*
X69894428Y-37519571D01*
X69894428Y-38019571D01*
X69965857Y-38305285D01*
X70108714Y-38448142D01*
X70251571Y-38519571D01*
X70537285Y-38519571D01*
X70680142Y-38448142D01*
X70823000Y-38305285D01*
X70894428Y-38019571D01*
X70894428Y-37519571D01*
X70823000Y-37233857D01*
X70680142Y-37091000D01*
X70537285Y-37019571D01*
X69465857Y-37019571D02*
X68608714Y-37019571D01*
X69037285Y-38519571D02*
X69037285Y-37019571D01*
X67823000Y-37019571D02*
X67537285Y-37019571D01*
X67394428Y-37091000D01*
X67251571Y-37233857D01*
X67180142Y-37519571D01*
X67180142Y-38019571D01*
X67251571Y-38305285D01*
X67394428Y-38448142D01*
X67537285Y-38519571D01*
X67823000Y-38519571D01*
X67965857Y-38448142D01*
X68108714Y-38305285D01*
X68180142Y-38019571D01*
X68180142Y-37519571D01*
X68108714Y-37233857D01*
X67965857Y-37091000D01*
X67823000Y-37019571D01*
X65680142Y-38519571D02*
X66180142Y-37805285D01*
X66537285Y-38519571D02*
X66537285Y-37019571D01*
X65965857Y-37019571D01*
X65823000Y-37091000D01*
X65751571Y-37162428D01*
X65680142Y-37305285D01*
X65680142Y-37519571D01*
X65751571Y-37662428D01*
X65823000Y-37733857D01*
X65965857Y-37805285D01*
X66537285Y-37805285D01*
X65180142Y-37019571D02*
X64251571Y-37019571D01*
X64751571Y-37591000D01*
X64537285Y-37591000D01*
X64394428Y-37662428D01*
X64323000Y-37733857D01*
X64251571Y-37876714D01*
X64251571Y-38233857D01*
X64323000Y-38376714D01*
X64394428Y-38448142D01*
X64537285Y-38519571D01*
X64965857Y-38519571D01*
X65108714Y-38448142D01*
X65180142Y-38376714D01*
X63965857Y-38662428D02*
X62823000Y-38662428D01*
X61965857Y-37733857D02*
X61751571Y-37805285D01*
X61680142Y-37876714D01*
X61608714Y-38019571D01*
X61608714Y-38233857D01*
X61680142Y-38376714D01*
X61751571Y-38448142D01*
X61894428Y-38519571D01*
X62465857Y-38519571D01*
X62465857Y-37019571D01*
X61965857Y-37019571D01*
X61823000Y-37091000D01*
X61751571Y-37162428D01*
X61680142Y-37305285D01*
X61680142Y-37448142D01*
X61751571Y-37591000D01*
X61823000Y-37662428D01*
X61965857Y-37733857D01*
X62465857Y-37733857D01*
X79180142Y-41069571D02*
X80037285Y-41069571D01*
X79608714Y-41069571D02*
X79608714Y-39569571D01*
X79751571Y-39783857D01*
X79894428Y-39926714D01*
X80037285Y-39998142D01*
X77894428Y-40069571D02*
X77894428Y-41069571D01*
X78251571Y-39498142D02*
X78608714Y-40569571D01*
X77680142Y-40569571D01*
X72537285Y-41069571D02*
X72537285Y-39569571D01*
X72037285Y-40641000D01*
X71537285Y-39569571D01*
X71537285Y-41069571D01*
X70537285Y-39569571D02*
X70251571Y-39569571D01*
X70108714Y-39641000D01*
X69965857Y-39783857D01*
X69894428Y-40069571D01*
X69894428Y-40569571D01*
X69965857Y-40855285D01*
X70108714Y-40998142D01*
X70251571Y-41069571D01*
X70537285Y-41069571D01*
X70680142Y-40998142D01*
X70823000Y-40855285D01*
X70894428Y-40569571D01*
X70894428Y-40069571D01*
X70823000Y-39783857D01*
X70680142Y-39641000D01*
X70537285Y-39569571D01*
X69465857Y-39569571D02*
X68608714Y-39569571D01*
X69037285Y-41069571D02*
X69037285Y-39569571D01*
X67823000Y-39569571D02*
X67537285Y-39569571D01*
X67394428Y-39641000D01*
X67251571Y-39783857D01*
X67180142Y-40069571D01*
X67180142Y-40569571D01*
X67251571Y-40855285D01*
X67394428Y-40998142D01*
X67537285Y-41069571D01*
X67823000Y-41069571D01*
X67965857Y-40998142D01*
X68108714Y-40855285D01*
X68180142Y-40569571D01*
X68180142Y-40069571D01*
X68108714Y-39783857D01*
X67965857Y-39641000D01*
X67823000Y-39569571D01*
X65680142Y-41069571D02*
X66180142Y-40355285D01*
X66537285Y-41069571D02*
X66537285Y-39569571D01*
X65965857Y-39569571D01*
X65823000Y-39641000D01*
X65751571Y-39712428D01*
X65680142Y-39855285D01*
X65680142Y-40069571D01*
X65751571Y-40212428D01*
X65823000Y-40283857D01*
X65965857Y-40355285D01*
X66537285Y-40355285D01*
X64394428Y-40069571D02*
X64394428Y-41069571D01*
X64751571Y-39498142D02*
X65108714Y-40569571D01*
X64180142Y-40569571D01*
X63965857Y-41212428D02*
X62823000Y-41212428D01*
X61965857Y-40283857D02*
X62465857Y-40283857D01*
X62465857Y-41069571D02*
X62465857Y-39569571D01*
X61751571Y-39569571D01*
X79180142Y-43619571D02*
X80037285Y-43619571D01*
X79608714Y-43619571D02*
X79608714Y-42119571D01*
X79751571Y-42333857D01*
X79894428Y-42476714D01*
X80037285Y-42548142D01*
X77823000Y-42119571D02*
X78537285Y-42119571D01*
X78608714Y-42833857D01*
X78537285Y-42762428D01*
X78394428Y-42691000D01*
X78037285Y-42691000D01*
X77894428Y-42762428D01*
X77823000Y-42833857D01*
X77751571Y-42976714D01*
X77751571Y-43333857D01*
X77823000Y-43476714D01*
X77894428Y-43548142D01*
X78037285Y-43619571D01*
X78394428Y-43619571D01*
X78537285Y-43548142D01*
X78608714Y-43476714D01*
X72537285Y-43619571D02*
X72537285Y-42119571D01*
X72037285Y-43191000D01*
X71537285Y-42119571D01*
X71537285Y-43619571D01*
X70537285Y-42119571D02*
X70251571Y-42119571D01*
X70108714Y-42191000D01*
X69965857Y-42333857D01*
X69894428Y-42619571D01*
X69894428Y-43119571D01*
X69965857Y-43405285D01*
X70108714Y-43548142D01*
X70251571Y-43619571D01*
X70537285Y-43619571D01*
X70680142Y-43548142D01*
X70823000Y-43405285D01*
X70894428Y-43119571D01*
X70894428Y-42619571D01*
X70823000Y-42333857D01*
X70680142Y-42191000D01*
X70537285Y-42119571D01*
X69465857Y-42119571D02*
X68608714Y-42119571D01*
X69037285Y-43619571D02*
X69037285Y-42119571D01*
X67823000Y-42119571D02*
X67537285Y-42119571D01*
X67394428Y-42191000D01*
X67251571Y-42333857D01*
X67180142Y-42619571D01*
X67180142Y-43119571D01*
X67251571Y-43405285D01*
X67394428Y-43548142D01*
X67537285Y-43619571D01*
X67823000Y-43619571D01*
X67965857Y-43548142D01*
X68108714Y-43405285D01*
X68180142Y-43119571D01*
X68180142Y-42619571D01*
X68108714Y-42333857D01*
X67965857Y-42191000D01*
X67823000Y-42119571D01*
X65680142Y-43619571D02*
X66180142Y-42905285D01*
X66537285Y-43619571D02*
X66537285Y-42119571D01*
X65965857Y-42119571D01*
X65823000Y-42191000D01*
X65751571Y-42262428D01*
X65680142Y-42405285D01*
X65680142Y-42619571D01*
X65751571Y-42762428D01*
X65823000Y-42833857D01*
X65965857Y-42905285D01*
X66537285Y-42905285D01*
X64394428Y-42619571D02*
X64394428Y-43619571D01*
X64751571Y-42048142D02*
X65108714Y-43119571D01*
X64180142Y-43119571D01*
X63965857Y-43762428D02*
X62823000Y-43762428D01*
X61965857Y-42833857D02*
X61751571Y-42905285D01*
X61680142Y-42976714D01*
X61608714Y-43119571D01*
X61608714Y-43333857D01*
X61680142Y-43476714D01*
X61751571Y-43548142D01*
X61894428Y-43619571D01*
X62465857Y-43619571D01*
X62465857Y-42119571D01*
X61965857Y-42119571D01*
X61823000Y-42191000D01*
X61751571Y-42262428D01*
X61680142Y-42405285D01*
X61680142Y-42548142D01*
X61751571Y-42691000D01*
X61823000Y-42762428D01*
X61965857Y-42833857D01*
X62465857Y-42833857D01*
X79680142Y-44669571D02*
X79537285Y-44669571D01*
X79394428Y-44741000D01*
X79323000Y-44812428D01*
X79251571Y-44955285D01*
X79180142Y-45241000D01*
X79180142Y-45598142D01*
X79251571Y-45883857D01*
X79323000Y-46026714D01*
X79394428Y-46098142D01*
X79537285Y-46169571D01*
X79680142Y-46169571D01*
X79823000Y-46098142D01*
X79894428Y-46026714D01*
X79965857Y-45883857D01*
X80037285Y-45598142D01*
X80037285Y-45241000D01*
X79965857Y-44955285D01*
X79894428Y-44812428D01*
X79823000Y-44741000D01*
X79680142Y-44669571D01*
X77894428Y-45169571D02*
X77894428Y-46169571D01*
X78251571Y-44598142D02*
X78608714Y-45669571D01*
X77680142Y-45669571D01*
X71823000Y-46169571D02*
X72537285Y-46169571D01*
X72537285Y-44669571D01*
X71323000Y-46169571D02*
X71323000Y-44669571D01*
X70608714Y-46169571D02*
X70608714Y-44669571D01*
X69751571Y-46169571D01*
X69751571Y-44669571D01*
X69037285Y-45383857D02*
X68537285Y-45383857D01*
X68323000Y-46169571D02*
X69037285Y-46169571D01*
X69037285Y-44669571D01*
X68323000Y-44669571D01*
X68037285Y-46312428D02*
X66894428Y-46312428D01*
X66037285Y-45383857D02*
X66537285Y-45383857D01*
X66537285Y-46169571D02*
X66537285Y-44669571D01*
X65823000Y-44669571D01*
X64965857Y-44669571D02*
X64680142Y-44669571D01*
X64537285Y-44741000D01*
X64394428Y-44883857D01*
X64323000Y-45169571D01*
X64323000Y-45669571D01*
X64394428Y-45955285D01*
X64537285Y-46098142D01*
X64680142Y-46169571D01*
X64965857Y-46169571D01*
X65108714Y-46098142D01*
X65251571Y-45955285D01*
X65323000Y-45669571D01*
X65323000Y-45169571D01*
X65251571Y-44883857D01*
X65108714Y-44741000D01*
X64965857Y-44669571D01*
X62965857Y-46169571D02*
X63680142Y-46169571D01*
X63680142Y-44669571D01*
X61751571Y-46169571D02*
X62465857Y-46169571D01*
X62465857Y-44669571D01*
X60965857Y-44669571D02*
X60680142Y-44669571D01*
X60537285Y-44741000D01*
X60394428Y-44883857D01*
X60323000Y-45169571D01*
X60323000Y-45669571D01*
X60394428Y-45955285D01*
X60537285Y-46098142D01*
X60680142Y-46169571D01*
X60965857Y-46169571D01*
X61108714Y-46098142D01*
X61251571Y-45955285D01*
X61323000Y-45669571D01*
X61323000Y-45169571D01*
X61251571Y-44883857D01*
X61108714Y-44741000D01*
X60965857Y-44669571D01*
X59823000Y-44669571D02*
X59465857Y-46169571D01*
X59180142Y-45098142D01*
X58894428Y-46169571D01*
X58537285Y-44669571D01*
X58323000Y-46312428D02*
X57180142Y-46312428D01*
X55965857Y-46169571D02*
X56465857Y-45455285D01*
X56823000Y-46169571D02*
X56823000Y-44669571D01*
X56251571Y-44669571D01*
X56108714Y-44741000D01*
X56037285Y-44812428D01*
X55965857Y-44955285D01*
X55965857Y-45169571D01*
X56037285Y-45312428D01*
X56108714Y-45383857D01*
X56251571Y-45455285D01*
X56823000Y-45455285D01*
X79680142Y-47219571D02*
X79537285Y-47219571D01*
X79394428Y-47291000D01*
X79323000Y-47362428D01*
X79251571Y-47505285D01*
X79180142Y-47791000D01*
X79180142Y-48148142D01*
X79251571Y-48433857D01*
X79323000Y-48576714D01*
X79394428Y-48648142D01*
X79537285Y-48719571D01*
X79680142Y-48719571D01*
X79823000Y-48648142D01*
X79894428Y-48576714D01*
X79965857Y-48433857D01*
X80037285Y-48148142D01*
X80037285Y-47791000D01*
X79965857Y-47505285D01*
X79894428Y-47362428D01*
X79823000Y-47291000D01*
X79680142Y-47219571D01*
X77823000Y-47219571D02*
X78537285Y-47219571D01*
X78608714Y-47933857D01*
X78537285Y-47862428D01*
X78394428Y-47791000D01*
X78037285Y-47791000D01*
X77894428Y-47862428D01*
X77823000Y-47933857D01*
X77751571Y-48076714D01*
X77751571Y-48433857D01*
X77823000Y-48576714D01*
X77894428Y-48648142D01*
X78037285Y-48719571D01*
X78394428Y-48719571D01*
X78537285Y-48648142D01*
X78608714Y-48576714D01*
X71823000Y-48719571D02*
X72537285Y-48719571D01*
X72537285Y-47219571D01*
X71323000Y-48719571D02*
X71323000Y-47219571D01*
X70608714Y-48719571D02*
X70608714Y-47219571D01*
X69751571Y-48719571D01*
X69751571Y-47219571D01*
X69037285Y-47933857D02*
X68537285Y-47933857D01*
X68323000Y-48719571D02*
X69037285Y-48719571D01*
X69037285Y-47219571D01*
X68323000Y-47219571D01*
X68037285Y-48862428D02*
X66894428Y-48862428D01*
X66037285Y-47933857D02*
X66537285Y-47933857D01*
X66537285Y-48719571D02*
X66537285Y-47219571D01*
X65823000Y-47219571D01*
X64965857Y-47219571D02*
X64680142Y-47219571D01*
X64537285Y-47291000D01*
X64394428Y-47433857D01*
X64323000Y-47719571D01*
X64323000Y-48219571D01*
X64394428Y-48505285D01*
X64537285Y-48648142D01*
X64680142Y-48719571D01*
X64965857Y-48719571D01*
X65108714Y-48648142D01*
X65251571Y-48505285D01*
X65323000Y-48219571D01*
X65323000Y-47719571D01*
X65251571Y-47433857D01*
X65108714Y-47291000D01*
X64965857Y-47219571D01*
X62965857Y-48719571D02*
X63680142Y-48719571D01*
X63680142Y-47219571D01*
X61751571Y-48719571D02*
X62465857Y-48719571D01*
X62465857Y-47219571D01*
X60965857Y-47219571D02*
X60680142Y-47219571D01*
X60537285Y-47291000D01*
X60394428Y-47433857D01*
X60323000Y-47719571D01*
X60323000Y-48219571D01*
X60394428Y-48505285D01*
X60537285Y-48648142D01*
X60680142Y-48719571D01*
X60965857Y-48719571D01*
X61108714Y-48648142D01*
X61251571Y-48505285D01*
X61323000Y-48219571D01*
X61323000Y-47719571D01*
X61251571Y-47433857D01*
X61108714Y-47291000D01*
X60965857Y-47219571D01*
X59823000Y-47219571D02*
X59465857Y-48719571D01*
X59180142Y-47648142D01*
X58894428Y-48719571D01*
X58537285Y-47219571D01*
X58323000Y-48862428D02*
X57180142Y-48862428D01*
X56823000Y-48719571D02*
X56823000Y-47219571D01*
X56323000Y-48291000D01*
X55823000Y-47219571D01*
X55823000Y-48719571D01*
X79680142Y-49769571D02*
X79537285Y-49769571D01*
X79394428Y-49841000D01*
X79323000Y-49912428D01*
X79251571Y-50055285D01*
X79180142Y-50341000D01*
X79180142Y-50698142D01*
X79251571Y-50983857D01*
X79323000Y-51126714D01*
X79394428Y-51198142D01*
X79537285Y-51269571D01*
X79680142Y-51269571D01*
X79823000Y-51198142D01*
X79894428Y-51126714D01*
X79965857Y-50983857D01*
X80037285Y-50698142D01*
X80037285Y-50341000D01*
X79965857Y-50055285D01*
X79894428Y-49912428D01*
X79823000Y-49841000D01*
X79680142Y-49769571D01*
X77894428Y-49769571D02*
X78180142Y-49769571D01*
X78323000Y-49841000D01*
X78394428Y-49912428D01*
X78537285Y-50126714D01*
X78608714Y-50412428D01*
X78608714Y-50983857D01*
X78537285Y-51126714D01*
X78465857Y-51198142D01*
X78323000Y-51269571D01*
X78037285Y-51269571D01*
X77894428Y-51198142D01*
X77823000Y-51126714D01*
X77751571Y-50983857D01*
X77751571Y-50626714D01*
X77823000Y-50483857D01*
X77894428Y-50412428D01*
X78037285Y-50341000D01*
X78323000Y-50341000D01*
X78465857Y-50412428D01*
X78537285Y-50483857D01*
X78608714Y-50626714D01*
X71823000Y-51269571D02*
X72537285Y-51269571D01*
X72537285Y-49769571D01*
X71323000Y-51269571D02*
X71323000Y-49769571D01*
X70608714Y-51269571D02*
X70608714Y-49769571D01*
X69751571Y-51269571D01*
X69751571Y-49769571D01*
X69037285Y-50483857D02*
X68537285Y-50483857D01*
X68323000Y-51269571D02*
X69037285Y-51269571D01*
X69037285Y-49769571D01*
X68323000Y-49769571D01*
X68037285Y-51412428D02*
X66894428Y-51412428D01*
X66037285Y-50483857D02*
X66537285Y-50483857D01*
X66537285Y-51269571D02*
X66537285Y-49769571D01*
X65823000Y-49769571D01*
X64965857Y-49769571D02*
X64680142Y-49769571D01*
X64537285Y-49841000D01*
X64394428Y-49983857D01*
X64323000Y-50269571D01*
X64323000Y-50769571D01*
X64394428Y-51055285D01*
X64537285Y-51198142D01*
X64680142Y-51269571D01*
X64965857Y-51269571D01*
X65108714Y-51198142D01*
X65251571Y-51055285D01*
X65323000Y-50769571D01*
X65323000Y-50269571D01*
X65251571Y-49983857D01*
X65108714Y-49841000D01*
X64965857Y-49769571D01*
X62965857Y-51269571D02*
X63680142Y-51269571D01*
X63680142Y-49769571D01*
X61751571Y-51269571D02*
X62465857Y-51269571D01*
X62465857Y-49769571D01*
X60965857Y-49769571D02*
X60680142Y-49769571D01*
X60537285Y-49841000D01*
X60394428Y-49983857D01*
X60323000Y-50269571D01*
X60323000Y-50769571D01*
X60394428Y-51055285D01*
X60537285Y-51198142D01*
X60680142Y-51269571D01*
X60965857Y-51269571D01*
X61108714Y-51198142D01*
X61251571Y-51055285D01*
X61323000Y-50769571D01*
X61323000Y-50269571D01*
X61251571Y-49983857D01*
X61108714Y-49841000D01*
X60965857Y-49769571D01*
X59823000Y-49769571D02*
X59465857Y-51269571D01*
X59180142Y-50198142D01*
X58894428Y-51269571D01*
X58537285Y-49769571D01*
X58323000Y-51412428D02*
X57180142Y-51412428D01*
X56108714Y-51269571D02*
X56823000Y-51269571D01*
X56823000Y-49769571D01*
X79180142Y-53819571D02*
X80037285Y-53819571D01*
X79608714Y-53819571D02*
X79608714Y-52319571D01*
X79751571Y-52533857D01*
X79894428Y-52676714D01*
X80037285Y-52748142D01*
X78465857Y-53819571D02*
X78180142Y-53819571D01*
X78037285Y-53748142D01*
X77965857Y-53676714D01*
X77823000Y-53462428D01*
X77751571Y-53176714D01*
X77751571Y-52605285D01*
X77823000Y-52462428D01*
X77894428Y-52391000D01*
X78037285Y-52319571D01*
X78323000Y-52319571D01*
X78465857Y-52391000D01*
X78537285Y-52462428D01*
X78608714Y-52605285D01*
X78608714Y-52962428D01*
X78537285Y-53105285D01*
X78465857Y-53176714D01*
X78323000Y-53248142D01*
X78037285Y-53248142D01*
X77894428Y-53176714D01*
X77823000Y-53105285D01*
X77751571Y-52962428D01*
X72537285Y-53033857D02*
X72037285Y-53033857D01*
X71823000Y-53819571D02*
X72537285Y-53819571D01*
X72537285Y-52319571D01*
X71823000Y-52319571D01*
X70323000Y-53676714D02*
X70394428Y-53748142D01*
X70608714Y-53819571D01*
X70751571Y-53819571D01*
X70965857Y-53748142D01*
X71108714Y-53605285D01*
X71180142Y-53462428D01*
X71251571Y-53176714D01*
X71251571Y-52962428D01*
X71180142Y-52676714D01*
X71108714Y-52533857D01*
X70965857Y-52391000D01*
X70751571Y-52319571D01*
X70608714Y-52319571D01*
X70394428Y-52391000D01*
X70323000Y-52462428D01*
X69680142Y-53819571D02*
X69680142Y-52319571D01*
X69680142Y-53033857D02*
X68823000Y-53033857D01*
X68823000Y-53819571D02*
X68823000Y-52319571D01*
X67823000Y-52319571D02*
X67537285Y-52319571D01*
X67394428Y-52391000D01*
X67251571Y-52533857D01*
X67180142Y-52819571D01*
X67180142Y-53319571D01*
X67251571Y-53605285D01*
X67394428Y-53748142D01*
X67537285Y-53819571D01*
X67823000Y-53819571D01*
X67965857Y-53748142D01*
X68108714Y-53605285D01*
X68180142Y-53319571D01*
X68180142Y-52819571D01*
X68108714Y-52533857D01*
X67965857Y-52391000D01*
X67823000Y-52319571D01*
X66894428Y-53962428D02*
X65751571Y-53962428D01*
X64894428Y-53033857D02*
X65394428Y-53033857D01*
X65394428Y-53819571D02*
X65394428Y-52319571D01*
X64680142Y-52319571D01*
X63251571Y-53819571D02*
X63751571Y-53105285D01*
X64108714Y-53819571D02*
X64108714Y-52319571D01*
X63537285Y-52319571D01*
X63394428Y-52391000D01*
X63323000Y-52462428D01*
X63251571Y-52605285D01*
X63251571Y-52819571D01*
X63323000Y-52962428D01*
X63394428Y-53033857D01*
X63537285Y-53105285D01*
X64108714Y-53105285D01*
X62323000Y-52319571D02*
X62037285Y-52319571D01*
X61894428Y-52391000D01*
X61751571Y-52533857D01*
X61680142Y-52819571D01*
X61680142Y-53319571D01*
X61751571Y-53605285D01*
X61894428Y-53748142D01*
X62037285Y-53819571D01*
X62323000Y-53819571D01*
X62465857Y-53748142D01*
X62608714Y-53605285D01*
X62680142Y-53319571D01*
X62680142Y-52819571D01*
X62608714Y-52533857D01*
X62465857Y-52391000D01*
X62323000Y-52319571D01*
X61037285Y-53819571D02*
X61037285Y-52319571D01*
X60180142Y-53819571D01*
X60180142Y-52319571D01*
X59680142Y-52319571D02*
X58823000Y-52319571D01*
X59251571Y-53819571D02*
X59251571Y-52319571D01*
X79180142Y-56369571D02*
X80037285Y-56369571D01*
X79608714Y-56369571D02*
X79608714Y-54869571D01*
X79751571Y-55083857D01*
X79894428Y-55226714D01*
X80037285Y-55298142D01*
X77894428Y-54869571D02*
X78180142Y-54869571D01*
X78323000Y-54941000D01*
X78394428Y-55012428D01*
X78537285Y-55226714D01*
X78608714Y-55512428D01*
X78608714Y-56083857D01*
X78537285Y-56226714D01*
X78465857Y-56298142D01*
X78323000Y-56369571D01*
X78037285Y-56369571D01*
X77894428Y-56298142D01*
X77823000Y-56226714D01*
X77751571Y-56083857D01*
X77751571Y-55726714D01*
X77823000Y-55583857D01*
X77894428Y-55512428D01*
X78037285Y-55441000D01*
X78323000Y-55441000D01*
X78465857Y-55512428D01*
X78537285Y-55583857D01*
X78608714Y-55726714D01*
X72751571Y-54869571D02*
X71894428Y-54869571D01*
X72323000Y-56369571D02*
X72323000Y-54869571D01*
X70537285Y-56369571D02*
X71037285Y-55655285D01*
X71394428Y-56369571D02*
X71394428Y-54869571D01*
X70823000Y-54869571D01*
X70680142Y-54941000D01*
X70608714Y-55012428D01*
X70537285Y-55155285D01*
X70537285Y-55369571D01*
X70608714Y-55512428D01*
X70680142Y-55583857D01*
X70823000Y-55655285D01*
X71394428Y-55655285D01*
X69894428Y-56369571D02*
X69894428Y-54869571D01*
X68394428Y-54941000D02*
X68537285Y-54869571D01*
X68751571Y-54869571D01*
X68965857Y-54941000D01*
X69108714Y-55083857D01*
X69180142Y-55226714D01*
X69251571Y-55512428D01*
X69251571Y-55726714D01*
X69180142Y-56012428D01*
X69108714Y-56155285D01*
X68965857Y-56298142D01*
X68751571Y-56369571D01*
X68608714Y-56369571D01*
X68394428Y-56298142D01*
X68323000Y-56226714D01*
X68323000Y-55726714D01*
X68608714Y-55726714D01*
X68037285Y-56512428D02*
X66894428Y-56512428D01*
X66037285Y-55583857D02*
X66537285Y-55583857D01*
X66537285Y-56369571D02*
X66537285Y-54869571D01*
X65823000Y-54869571D01*
X64394428Y-56369571D02*
X64894428Y-55655285D01*
X65251571Y-56369571D02*
X65251571Y-54869571D01*
X64680142Y-54869571D01*
X64537285Y-54941000D01*
X64465857Y-55012428D01*
X64394428Y-55155285D01*
X64394428Y-55369571D01*
X64465857Y-55512428D01*
X64537285Y-55583857D01*
X64680142Y-55655285D01*
X65251571Y-55655285D01*
X63465857Y-54869571D02*
X63180142Y-54869571D01*
X63037285Y-54941000D01*
X62894428Y-55083857D01*
X62823000Y-55369571D01*
X62823000Y-55869571D01*
X62894428Y-56155285D01*
X63037285Y-56298142D01*
X63180142Y-56369571D01*
X63465857Y-56369571D01*
X63608714Y-56298142D01*
X63751571Y-56155285D01*
X63823000Y-55869571D01*
X63823000Y-55369571D01*
X63751571Y-55083857D01*
X63608714Y-54941000D01*
X63465857Y-54869571D01*
X62180142Y-56369571D02*
X62180142Y-54869571D01*
X61323000Y-56369571D01*
X61323000Y-54869571D01*
X60823000Y-54869571D02*
X59965857Y-54869571D01*
X60394428Y-56369571D02*
X60394428Y-54869571D01*
D11*
X13900000Y-57960000D02*
X16500000Y-57960000D01*
X13900000Y-57960000D02*
X13900000Y-7040000D01*
X13900000Y-7040000D02*
X19100000Y-7040000D01*
X19100000Y-55360000D02*
X19100000Y-7040000D01*
X16500000Y-55360000D02*
X19100000Y-55360000D01*
X16500000Y-57960000D02*
X16500000Y-55360000D01*
X19100000Y-57960000D02*
X19100000Y-56630000D01*
X17770000Y-57960000D02*
X19100000Y-57960000D01*
D12*
X16833333Y-58852380D02*
X16833333Y-59566666D01*
X16880952Y-59709523D01*
X16976190Y-59804761D01*
X17119047Y-59852380D01*
X17214285Y-59852380D01*
X15880952Y-58852380D02*
X16357142Y-58852380D01*
X16404761Y-59328571D01*
X16357142Y-59280952D01*
X16261904Y-59233333D01*
X16023809Y-59233333D01*
X15928571Y-59280952D01*
X15880952Y-59328571D01*
X15833333Y-59423809D01*
X15833333Y-59661904D01*
X15880952Y-59757142D01*
X15928571Y-59804761D01*
X16023809Y-59852380D01*
X16261904Y-59852380D01*
X16357142Y-59804761D01*
X16404761Y-59757142D01*
M02*
