G04 #@! TF.GenerationSoftware,KiCad,Pcbnew,5.1.5+dfsg1-2build2*
G04 #@! TF.CreationDate,2020-06-26T22:01:47+02:00*
G04 #@! TF.ProjectId,robo-car,726f626f-2d63-4617-922e-6b696361645f,rev?*
G04 #@! TF.SameCoordinates,Original*
G04 #@! TF.FileFunction,Copper,L1,Top*
G04 #@! TF.FilePolarity,Positive*
%FSLAX46Y46*%
G04 Gerber Fmt 4.6, Leading zero omitted, Abs format (unit mm)*
G04 Created by KiCad (PCBNEW 5.1.5+dfsg1-2build2) date 2020-06-26 22:01:47*
%MOMM*%
%LPD*%
G04 APERTURE LIST*
%ADD10C,0.200000*%
%ADD11O,1.980000X3.960000*%
%ADD12R,1.980000X3.960000*%
%ADD13R,3.524000X3.524000*%
%ADD14R,1.700000X1.700000*%
%ADD15O,1.700000X1.700000*%
%ADD16R,1.600000X1.600000*%
%ADD17C,1.600000*%
%ADD18R,1.200000X1.200000*%
%ADD19C,1.200000*%
%ADD20O,1.600000X1.600000*%
%ADD21O,3.000000X1.500000*%
%ADD22O,1.050000X1.500000*%
%ADD23R,1.050000X1.500000*%
%ADD24C,1.700000*%
%ADD25C,1.500000*%
%ADD26C,1.524000*%
%ADD27C,0.100000*%
%ADD28O,1.700000X1.950000*%
%ADD29C,0.600000*%
%ADD30C,0.800000*%
%ADD31C,1.000000*%
%ADD32C,2.000000*%
%ADD33C,2.000000*%
%ADD34C,1.000000*%
%ADD35C,0.250000*%
%ADD36C,0.500000*%
%ADD37C,1.500000*%
G04 APERTURE END LIST*
D10*
X7692571Y-83859714D02*
X7883047Y-84526380D01*
X8073523Y-84050190D01*
X8264000Y-84526380D01*
X8454476Y-83859714D01*
X9264000Y-84526380D02*
X9264000Y-84002571D01*
X9216380Y-83907333D01*
X9121142Y-83859714D01*
X8930666Y-83859714D01*
X8835428Y-83907333D01*
X9264000Y-84478761D02*
X9168761Y-84526380D01*
X8930666Y-84526380D01*
X8835428Y-84478761D01*
X8787809Y-84383523D01*
X8787809Y-84288285D01*
X8835428Y-84193047D01*
X8930666Y-84145428D01*
X9168761Y-84145428D01*
X9264000Y-84097809D01*
X10168761Y-83859714D02*
X10168761Y-84669238D01*
X10121142Y-84764476D01*
X10073523Y-84812095D01*
X9978285Y-84859714D01*
X9835428Y-84859714D01*
X9740190Y-84812095D01*
X10168761Y-84478761D02*
X10073523Y-84526380D01*
X9883047Y-84526380D01*
X9787809Y-84478761D01*
X9740190Y-84431142D01*
X9692571Y-84335904D01*
X9692571Y-84050190D01*
X9740190Y-83954952D01*
X9787809Y-83907333D01*
X9883047Y-83859714D01*
X10073523Y-83859714D01*
X10168761Y-83907333D01*
X10644952Y-83859714D02*
X10644952Y-84526380D01*
X10644952Y-83954952D02*
X10692571Y-83907333D01*
X10787809Y-83859714D01*
X10930666Y-83859714D01*
X11025904Y-83907333D01*
X11073523Y-84002571D01*
X11073523Y-84526380D01*
X11930666Y-84478761D02*
X11835428Y-84526380D01*
X11644952Y-84526380D01*
X11549714Y-84478761D01*
X11502095Y-84383523D01*
X11502095Y-84002571D01*
X11549714Y-83907333D01*
X11644952Y-83859714D01*
X11835428Y-83859714D01*
X11930666Y-83907333D01*
X11978285Y-84002571D01*
X11978285Y-84097809D01*
X11502095Y-84193047D01*
X12406857Y-84526380D02*
X12406857Y-83859714D01*
X12406857Y-84050190D02*
X12454476Y-83954952D01*
X12502095Y-83907333D01*
X12597333Y-83859714D01*
X12692571Y-83859714D01*
X13025904Y-84431142D02*
X13073523Y-84478761D01*
X13025904Y-84526380D01*
X12978285Y-84478761D01*
X13025904Y-84431142D01*
X13025904Y-84526380D01*
X13502095Y-84526380D02*
X13502095Y-83859714D01*
X13502095Y-83954952D02*
X13549714Y-83907333D01*
X13644952Y-83859714D01*
X13787809Y-83859714D01*
X13883047Y-83907333D01*
X13930666Y-84002571D01*
X13930666Y-84526380D01*
X13930666Y-84002571D02*
X13978285Y-83907333D01*
X14073523Y-83859714D01*
X14216380Y-83859714D01*
X14311619Y-83907333D01*
X14359238Y-84002571D01*
X14359238Y-84526380D01*
X15264000Y-84526380D02*
X15264000Y-84002571D01*
X15216380Y-83907333D01*
X15121142Y-83859714D01*
X14930666Y-83859714D01*
X14835428Y-83907333D01*
X15264000Y-84478761D02*
X15168761Y-84526380D01*
X14930666Y-84526380D01*
X14835428Y-84478761D01*
X14787809Y-84383523D01*
X14787809Y-84288285D01*
X14835428Y-84193047D01*
X14930666Y-84145428D01*
X15168761Y-84145428D01*
X15264000Y-84097809D01*
X15740190Y-84526380D02*
X15740190Y-83859714D01*
X15740190Y-84050190D02*
X15787809Y-83954952D01*
X15835428Y-83907333D01*
X15930666Y-83859714D01*
X16025904Y-83859714D01*
X16787809Y-84478761D02*
X16692571Y-84526380D01*
X16502095Y-84526380D01*
X16406857Y-84478761D01*
X16359238Y-84431142D01*
X16311619Y-84335904D01*
X16311619Y-84050190D01*
X16359238Y-83954952D01*
X16406857Y-83907333D01*
X16502095Y-83859714D01*
X16692571Y-83859714D01*
X16787809Y-83907333D01*
X17835428Y-84050190D02*
X17787809Y-84002571D01*
X17692571Y-83954952D01*
X17597333Y-83954952D01*
X17502095Y-84002571D01*
X17454476Y-84050190D01*
X17406857Y-84145428D01*
X17406857Y-84240666D01*
X17454476Y-84335904D01*
X17502095Y-84383523D01*
X17597333Y-84431142D01*
X17692571Y-84431142D01*
X17787809Y-84383523D01*
X17835428Y-84335904D01*
X17835428Y-83954952D02*
X17835428Y-84335904D01*
X17883047Y-84383523D01*
X17930666Y-84383523D01*
X18025904Y-84335904D01*
X18073523Y-84240666D01*
X18073523Y-84002571D01*
X17978285Y-83859714D01*
X17835428Y-83764476D01*
X17644952Y-83716857D01*
X17454476Y-83764476D01*
X17311619Y-83859714D01*
X17216380Y-84002571D01*
X17168761Y-84193047D01*
X17216380Y-84383523D01*
X17311619Y-84526380D01*
X17454476Y-84621619D01*
X17644952Y-84669238D01*
X17835428Y-84621619D01*
X17978285Y-84526380D01*
X18930666Y-83859714D02*
X18930666Y-84669238D01*
X18883047Y-84764476D01*
X18835428Y-84812095D01*
X18740190Y-84859714D01*
X18597333Y-84859714D01*
X18502095Y-84812095D01*
X18930666Y-84478761D02*
X18835428Y-84526380D01*
X18644952Y-84526380D01*
X18549714Y-84478761D01*
X18502095Y-84431142D01*
X18454476Y-84335904D01*
X18454476Y-84050190D01*
X18502095Y-83954952D01*
X18549714Y-83907333D01*
X18644952Y-83859714D01*
X18835428Y-83859714D01*
X18930666Y-83907333D01*
X19406857Y-84526380D02*
X19406857Y-83859714D01*
X19406857Y-83954952D02*
X19454476Y-83907333D01*
X19549714Y-83859714D01*
X19692571Y-83859714D01*
X19787809Y-83907333D01*
X19835428Y-84002571D01*
X19835428Y-84526380D01*
X19835428Y-84002571D02*
X19883047Y-83907333D01*
X19978285Y-83859714D01*
X20121142Y-83859714D01*
X20216380Y-83907333D01*
X20264000Y-84002571D01*
X20264000Y-84526380D01*
X21168761Y-84526380D02*
X21168761Y-84002571D01*
X21121142Y-83907333D01*
X21025904Y-83859714D01*
X20835428Y-83859714D01*
X20740190Y-83907333D01*
X21168761Y-84478761D02*
X21073523Y-84526380D01*
X20835428Y-84526380D01*
X20740190Y-84478761D01*
X20692571Y-84383523D01*
X20692571Y-84288285D01*
X20740190Y-84193047D01*
X20835428Y-84145428D01*
X21073523Y-84145428D01*
X21168761Y-84097809D01*
X21644952Y-84526380D02*
X21644952Y-83859714D01*
X21644952Y-83526380D02*
X21597333Y-83574000D01*
X21644952Y-83621619D01*
X21692571Y-83574000D01*
X21644952Y-83526380D01*
X21644952Y-83621619D01*
X22264000Y-84526380D02*
X22168761Y-84478761D01*
X22121142Y-84383523D01*
X22121142Y-83526380D01*
X22644952Y-84431142D02*
X22692571Y-84478761D01*
X22644952Y-84526380D01*
X22597333Y-84478761D01*
X22644952Y-84431142D01*
X22644952Y-84526380D01*
X23549714Y-84478761D02*
X23454476Y-84526380D01*
X23264000Y-84526380D01*
X23168761Y-84478761D01*
X23121142Y-84431142D01*
X23073523Y-84335904D01*
X23073523Y-84050190D01*
X23121142Y-83954952D01*
X23168761Y-83907333D01*
X23264000Y-83859714D01*
X23454476Y-83859714D01*
X23549714Y-83907333D01*
X24121142Y-84526380D02*
X24025904Y-84478761D01*
X23978285Y-84431142D01*
X23930666Y-84335904D01*
X23930666Y-84050190D01*
X23978285Y-83954952D01*
X24025904Y-83907333D01*
X24121142Y-83859714D01*
X24264000Y-83859714D01*
X24359238Y-83907333D01*
X24406857Y-83954952D01*
X24454476Y-84050190D01*
X24454476Y-84335904D01*
X24406857Y-84431142D01*
X24359238Y-84478761D01*
X24264000Y-84526380D01*
X24121142Y-84526380D01*
X24883047Y-84526380D02*
X24883047Y-83859714D01*
X24883047Y-83954952D02*
X24930666Y-83907333D01*
X25025904Y-83859714D01*
X25168761Y-83859714D01*
X25264000Y-83907333D01*
X25311619Y-84002571D01*
X25311619Y-84526380D01*
X25311619Y-84002571D02*
X25359238Y-83907333D01*
X25454476Y-83859714D01*
X25597333Y-83859714D01*
X25692571Y-83907333D01*
X25740190Y-84002571D01*
X25740190Y-84526380D01*
D11*
X62150000Y-93345000D03*
D12*
X57150000Y-93345000D03*
D13*
X42291000Y-84074000D03*
X42291000Y-67056000D03*
X2667000Y-67056000D03*
X2667000Y-84074000D03*
D14*
X17770000Y-56630000D03*
D15*
X15230000Y-56630000D03*
X17770000Y-54090000D03*
X15230000Y-54090000D03*
X17770000Y-51550000D03*
X15230000Y-51550000D03*
X17770000Y-49010000D03*
X15230000Y-49010000D03*
X17770000Y-46470000D03*
X15230000Y-46470000D03*
X17770000Y-43930000D03*
X15230000Y-43930000D03*
X17770000Y-41390000D03*
X15230000Y-41390000D03*
X17770000Y-38850000D03*
X15230000Y-38850000D03*
X17770000Y-36310000D03*
X15230000Y-36310000D03*
X17770000Y-33770000D03*
X15230000Y-33770000D03*
X17770000Y-31230000D03*
X15230000Y-31230000D03*
X17770000Y-28690000D03*
X15230000Y-28690000D03*
X17770000Y-26150000D03*
X15230000Y-26150000D03*
X17770000Y-23610000D03*
X15230000Y-23610000D03*
X17770000Y-21070000D03*
X15230000Y-21070000D03*
X17770000Y-18530000D03*
X15230000Y-18530000D03*
X17770000Y-15990000D03*
X15230000Y-15990000D03*
X17770000Y-13450000D03*
X15230000Y-13450000D03*
X17770000Y-10910000D03*
X15230000Y-10910000D03*
X17770000Y-8370000D03*
X15230000Y-8370000D03*
D16*
X5080000Y-44450000D03*
D17*
X2580000Y-44450000D03*
D18*
X4445000Y-36830000D03*
D19*
X2445000Y-36830000D03*
D16*
X5080000Y-52070000D03*
D17*
X2580000Y-52070000D03*
D12*
X46990000Y-93345000D03*
D11*
X51990000Y-93345000D03*
D12*
X36830000Y-93345000D03*
D11*
X41830000Y-93345000D03*
X31670000Y-93345000D03*
D12*
X26670000Y-93345000D03*
D14*
X24638000Y-44323000D03*
D15*
X24638000Y-41783000D03*
X24638000Y-39243000D03*
X21844000Y-39243000D03*
X21844000Y-41783000D03*
D14*
X21844000Y-44323000D03*
D15*
X21844000Y-28702000D03*
X21844000Y-31242000D03*
X21844000Y-33782000D03*
D14*
X21844000Y-36322000D03*
X11049000Y-37846000D03*
D15*
X11049000Y-40386000D03*
X11049000Y-42926000D03*
D14*
X67564000Y-57658000D03*
D15*
X70104000Y-57658000D03*
X72644000Y-57658000D03*
X75184000Y-57658000D03*
X77724000Y-57658000D03*
D12*
X16510000Y-93345000D03*
D11*
X21510000Y-93345000D03*
D20*
X11176000Y-29591000D03*
D17*
X3556000Y-29591000D03*
D20*
X77470000Y-66675000D03*
X69850000Y-84455000D03*
X77470000Y-69215000D03*
X69850000Y-81915000D03*
X77470000Y-71755000D03*
X69850000Y-79375000D03*
X77470000Y-74295000D03*
X69850000Y-76835000D03*
X77470000Y-76835000D03*
X69850000Y-74295000D03*
X77470000Y-79375000D03*
X69850000Y-71755000D03*
X77470000Y-81915000D03*
X69850000Y-69215000D03*
X77470000Y-84455000D03*
D16*
X69850000Y-66675000D03*
X48260000Y-66675000D03*
D20*
X55880000Y-84455000D03*
X48260000Y-69215000D03*
X55880000Y-81915000D03*
X48260000Y-71755000D03*
X55880000Y-79375000D03*
X48260000Y-74295000D03*
X55880000Y-76835000D03*
X48260000Y-76835000D03*
X55880000Y-74295000D03*
X48260000Y-79375000D03*
X55880000Y-71755000D03*
X48260000Y-81915000D03*
X55880000Y-69215000D03*
X48260000Y-84455000D03*
X55880000Y-66675000D03*
D21*
X4572000Y-3112000D03*
X4572000Y-5112000D03*
X4572000Y-7112000D03*
X8572000Y-3112000D03*
X8572000Y-5112000D03*
X8572000Y-7112000D03*
X26257000Y-7080000D03*
X26257000Y-5080000D03*
X26257000Y-3080000D03*
X22257000Y-7080000D03*
X22257000Y-5080000D03*
X22257000Y-3080000D03*
X39000000Y-3080000D03*
X39000000Y-5080000D03*
X39000000Y-7080000D03*
X43000000Y-3080000D03*
X43000000Y-5080000D03*
X43000000Y-7080000D03*
X60039000Y-7080000D03*
X60039000Y-5080000D03*
X60039000Y-3080000D03*
X56039000Y-7080000D03*
X56039000Y-5080000D03*
X56039000Y-3080000D03*
D22*
X10414000Y-33274000D03*
X9144000Y-33274000D03*
D23*
X11684000Y-33274000D03*
D24*
X2715000Y-62230000D03*
X8715000Y-62230000D03*
D25*
X8265000Y-58870000D03*
X3165000Y-57970000D03*
D26*
X11684000Y-90932000D03*
X11684000Y-93472000D03*
X11684000Y-96012000D03*
D14*
X48514000Y-12192000D03*
D15*
X45974000Y-12192000D03*
X43434000Y-12192000D03*
X40894000Y-12192000D03*
X38354000Y-12192000D03*
X35814000Y-12192000D03*
X33274000Y-12192000D03*
D21*
X78327000Y-7080000D03*
X78327000Y-5080000D03*
X78327000Y-3080000D03*
X74327000Y-7080000D03*
X74327000Y-5080000D03*
X74327000Y-3080000D03*
X77311000Y-96996000D03*
X77311000Y-94996000D03*
X77311000Y-92996000D03*
X73311000Y-96996000D03*
X73311000Y-94996000D03*
X73311000Y-92996000D03*
X2858000Y-92901000D03*
X2858000Y-94901000D03*
X2858000Y-96901000D03*
X6858000Y-92901000D03*
X6858000Y-94901000D03*
X6858000Y-96901000D03*
G04 #@! TA.AperFunction,ComponentPad*
D27*
G36*
X4053504Y-11980204D02*
G01*
X4077773Y-11983804D01*
X4101571Y-11989765D01*
X4124671Y-11998030D01*
X4146849Y-12008520D01*
X4167893Y-12021133D01*
X4187598Y-12035747D01*
X4205777Y-12052223D01*
X4222253Y-12070402D01*
X4236867Y-12090107D01*
X4249480Y-12111151D01*
X4259970Y-12133329D01*
X4268235Y-12156429D01*
X4274196Y-12180227D01*
X4277796Y-12204496D01*
X4279000Y-12229000D01*
X4279000Y-13679000D01*
X4277796Y-13703504D01*
X4274196Y-13727773D01*
X4268235Y-13751571D01*
X4259970Y-13774671D01*
X4249480Y-13796849D01*
X4236867Y-13817893D01*
X4222253Y-13837598D01*
X4205777Y-13855777D01*
X4187598Y-13872253D01*
X4167893Y-13886867D01*
X4146849Y-13899480D01*
X4124671Y-13909970D01*
X4101571Y-13918235D01*
X4077773Y-13924196D01*
X4053504Y-13927796D01*
X4029000Y-13929000D01*
X2829000Y-13929000D01*
X2804496Y-13927796D01*
X2780227Y-13924196D01*
X2756429Y-13918235D01*
X2733329Y-13909970D01*
X2711151Y-13899480D01*
X2690107Y-13886867D01*
X2670402Y-13872253D01*
X2652223Y-13855777D01*
X2635747Y-13837598D01*
X2621133Y-13817893D01*
X2608520Y-13796849D01*
X2598030Y-13774671D01*
X2589765Y-13751571D01*
X2583804Y-13727773D01*
X2580204Y-13703504D01*
X2579000Y-13679000D01*
X2579000Y-12229000D01*
X2580204Y-12204496D01*
X2583804Y-12180227D01*
X2589765Y-12156429D01*
X2598030Y-12133329D01*
X2608520Y-12111151D01*
X2621133Y-12090107D01*
X2635747Y-12070402D01*
X2652223Y-12052223D01*
X2670402Y-12035747D01*
X2690107Y-12021133D01*
X2711151Y-12008520D01*
X2733329Y-11998030D01*
X2756429Y-11989765D01*
X2780227Y-11983804D01*
X2804496Y-11980204D01*
X2829000Y-11979000D01*
X4029000Y-11979000D01*
X4053504Y-11980204D01*
G37*
G04 #@! TD.AperFunction*
D28*
X5929000Y-12954000D03*
X8429000Y-12954000D03*
X73740000Y-14097000D03*
X76240000Y-14097000D03*
G04 #@! TA.AperFunction,ComponentPad*
D27*
G36*
X79364504Y-13123204D02*
G01*
X79388773Y-13126804D01*
X79412571Y-13132765D01*
X79435671Y-13141030D01*
X79457849Y-13151520D01*
X79478893Y-13164133D01*
X79498598Y-13178747D01*
X79516777Y-13195223D01*
X79533253Y-13213402D01*
X79547867Y-13233107D01*
X79560480Y-13254151D01*
X79570970Y-13276329D01*
X79579235Y-13299429D01*
X79585196Y-13323227D01*
X79588796Y-13347496D01*
X79590000Y-13372000D01*
X79590000Y-14822000D01*
X79588796Y-14846504D01*
X79585196Y-14870773D01*
X79579235Y-14894571D01*
X79570970Y-14917671D01*
X79560480Y-14939849D01*
X79547867Y-14960893D01*
X79533253Y-14980598D01*
X79516777Y-14998777D01*
X79498598Y-15015253D01*
X79478893Y-15029867D01*
X79457849Y-15042480D01*
X79435671Y-15052970D01*
X79412571Y-15061235D01*
X79388773Y-15067196D01*
X79364504Y-15070796D01*
X79340000Y-15072000D01*
X78140000Y-15072000D01*
X78115496Y-15070796D01*
X78091227Y-15067196D01*
X78067429Y-15061235D01*
X78044329Y-15052970D01*
X78022151Y-15042480D01*
X78001107Y-15029867D01*
X77981402Y-15015253D01*
X77963223Y-14998777D01*
X77946747Y-14980598D01*
X77932133Y-14960893D01*
X77919520Y-14939849D01*
X77909030Y-14917671D01*
X77900765Y-14894571D01*
X77894804Y-14870773D01*
X77891204Y-14846504D01*
X77890000Y-14822000D01*
X77890000Y-13372000D01*
X77891204Y-13347496D01*
X77894804Y-13323227D01*
X77900765Y-13299429D01*
X77909030Y-13276329D01*
X77919520Y-13254151D01*
X77932133Y-13233107D01*
X77946747Y-13213402D01*
X77963223Y-13195223D01*
X77981402Y-13178747D01*
X78001107Y-13164133D01*
X78022151Y-13151520D01*
X78044329Y-13141030D01*
X78067429Y-13132765D01*
X78091227Y-13126804D01*
X78115496Y-13123204D01*
X78140000Y-13122000D01*
X79340000Y-13122000D01*
X79364504Y-13123204D01*
G37*
G04 #@! TD.AperFunction*
D14*
X9017000Y-18161000D03*
D15*
X9017000Y-20701000D03*
X9017000Y-23241000D03*
X3429000Y-23241000D03*
X3429000Y-20701000D03*
D14*
X3429000Y-18161000D03*
X6223000Y-18161000D03*
D15*
X6223000Y-20701000D03*
X6223000Y-23241000D03*
D29*
X19939000Y-68580000D03*
X19939000Y-70993000D03*
X6096000Y-5080000D03*
X21844000Y-71755000D03*
X21844000Y-68580000D03*
X26797000Y-73025000D03*
X30861000Y-73025000D03*
X61595000Y-81915000D03*
X58039000Y-81915000D03*
X25400000Y-81915000D03*
X19050000Y-68580000D03*
X19050000Y-70993000D03*
X33655000Y-81915000D03*
D30*
X49530000Y-80645000D03*
X53340000Y-80645000D03*
D29*
X34925000Y-80645000D03*
X25400000Y-80645000D03*
X20828000Y-71755000D03*
X20828000Y-68580000D03*
X79883000Y-4953000D03*
X78867000Y-94996000D03*
X71755000Y-94996000D03*
X8382000Y-94996000D03*
D31*
X62865000Y-64770000D03*
D32*
X24257000Y-3048000D03*
X75438000Y-97028000D03*
X6731000Y-2921000D03*
X4858000Y-96996000D03*
D31*
X62865000Y-67691000D03*
D30*
X45593000Y-8890000D03*
D33*
X8265000Y-55255000D02*
X5080000Y-52070000D01*
X8265000Y-58870000D02*
X8265000Y-55255000D01*
X5080000Y-52070000D02*
X5080000Y-44450000D01*
X15230000Y-54090000D02*
X15230000Y-56630000D01*
X5080000Y-44450000D02*
X5080000Y-43815000D01*
X4445000Y-43180000D02*
X4445000Y-36830000D01*
X5080000Y-43815000D02*
X4445000Y-43180000D01*
X12180000Y-54090000D02*
X15230000Y-54090000D01*
X7620000Y-50800000D02*
X10910000Y-54090000D01*
X6985000Y-42545000D02*
X7620000Y-43180000D01*
X10910000Y-54090000D02*
X12180000Y-54090000D01*
X6350000Y-36830000D02*
X6985000Y-37465000D01*
X4445000Y-36830000D02*
X6350000Y-36830000D01*
D34*
X48260000Y-66675000D02*
X45162999Y-69772001D01*
X16432001Y-69772001D02*
X13335000Y-66675000D01*
X13335000Y-58525000D02*
X15230000Y-56630000D01*
D35*
X55880000Y-66675000D02*
X57404000Y-68199000D01*
X57404000Y-82931000D02*
X55880000Y-84455000D01*
X57404000Y-68199000D02*
X57404000Y-82931000D01*
D36*
X7620000Y-48514000D02*
X8255000Y-49149000D01*
D33*
X7620000Y-43180000D02*
X7620000Y-48514000D01*
X7620000Y-48514000D02*
X7620000Y-50800000D01*
X6985000Y-37465000D02*
X6985000Y-38354000D01*
D34*
X13335000Y-66675000D02*
X13335000Y-59690000D01*
X13335000Y-59690000D02*
X13335000Y-58525000D01*
D36*
X13335000Y-58525000D02*
X13335000Y-58547000D01*
D33*
X6604000Y-37084000D02*
X6985000Y-37465000D01*
D34*
X5683000Y-6953000D02*
X4604000Y-6953000D01*
X77470000Y-92837000D02*
X77311000Y-92996000D01*
X77470000Y-84455000D02*
X77470000Y-92837000D01*
X77311000Y-92996000D02*
X73311000Y-92996000D01*
D33*
X6985000Y-40132000D02*
X6985000Y-42545000D01*
X6985000Y-38354000D02*
X6985000Y-40132000D01*
D36*
X7239000Y-40386000D02*
X6985000Y-40132000D01*
X11049000Y-40386000D02*
X7239000Y-40386000D01*
D34*
X2826000Y-92996000D02*
X6826000Y-92996000D01*
X6826000Y-91246000D02*
X6731000Y-91151000D01*
X6826000Y-92996000D02*
X6826000Y-91246000D01*
X6731000Y-91151000D02*
X6731000Y-80264000D01*
X13335000Y-73660000D02*
X13335000Y-66675000D01*
X6731000Y-80264000D02*
X13335000Y-73660000D01*
X17222999Y-69772001D02*
X13335000Y-73660000D01*
X18972001Y-69772001D02*
X17222999Y-69772001D01*
X45162999Y-69772001D02*
X18972001Y-69772001D01*
X18972001Y-69772001D02*
X16432001Y-69772001D01*
D33*
X29789000Y-7112000D02*
X32258000Y-7112000D01*
X26257000Y-7080000D02*
X29757000Y-7080000D01*
X29757000Y-7080000D02*
X29789000Y-7112000D01*
D37*
X32258000Y-7112000D02*
X78327000Y-7080000D01*
D33*
X32258000Y-7112000D02*
X33274000Y-8128000D01*
X33274000Y-8128000D02*
X33274000Y-12192000D01*
X19509271Y-6319999D02*
X20269272Y-7080000D01*
X14245999Y-6319999D02*
X19509271Y-6319999D01*
X13453998Y-7112000D02*
X14245999Y-6319999D01*
X20269272Y-7080000D02*
X22257000Y-7080000D01*
X8572000Y-7112000D02*
X13453998Y-7112000D01*
X8572000Y-7112000D02*
X4572000Y-7112000D01*
X3429000Y-24443081D02*
X3429000Y-23241000D01*
X3429000Y-29972000D02*
X3429000Y-24443081D01*
X4445000Y-30988000D02*
X3429000Y-29972000D01*
X4445000Y-32512000D02*
X4445000Y-30988000D01*
X3429000Y-23241000D02*
X3429000Y-18161000D01*
X3429000Y-18161000D02*
X3429000Y-12319000D01*
X3429000Y-8255000D02*
X4572000Y-7112000D01*
X3429000Y-12319000D02*
X3429000Y-8255000D01*
D37*
X78740000Y-7493000D02*
X78327000Y-7080000D01*
X78740000Y-14097000D02*
X78740000Y-7493000D01*
D34*
X5334000Y-33401000D02*
X4445000Y-34290000D01*
X9144000Y-33401000D02*
X5334000Y-33401000D01*
D33*
X4445000Y-34290000D02*
X4445000Y-32512000D01*
X4445000Y-36830000D02*
X4445000Y-34290000D01*
X21844000Y-28702000D02*
X26416000Y-28702000D01*
X24638000Y-41783000D02*
X21844000Y-41783000D01*
X22257000Y-7080000D02*
X26257000Y-7080000D01*
X26688001Y-7511001D02*
X26257000Y-7080000D01*
X26688001Y-40935080D02*
X26688001Y-7511001D01*
X25840081Y-41783000D02*
X26688001Y-40935080D01*
X24638000Y-41783000D02*
X25840081Y-41783000D01*
D34*
X72550011Y-85672061D02*
X72550011Y-80484989D01*
X70477072Y-87745000D02*
X72550011Y-85672061D01*
X64770000Y-87745000D02*
X70477072Y-87745000D01*
X62150000Y-90365000D02*
X64770000Y-87745000D01*
X62150000Y-93345000D02*
X62150000Y-90365000D01*
X72550011Y-80484989D02*
X73660000Y-79375000D01*
X73660000Y-79375000D02*
X77470000Y-79375000D01*
D33*
X57150000Y-93345000D02*
X57150000Y-94335000D01*
X57150000Y-93345000D02*
X57150000Y-92355000D01*
D34*
X73025000Y-71755000D02*
X77470000Y-71755000D01*
X71350001Y-85175001D02*
X71350001Y-73429999D01*
X70165002Y-86360000D02*
X71350001Y-85175001D01*
X71350001Y-73429999D02*
X73025000Y-71755000D01*
X61155000Y-86360000D02*
X70165002Y-86360000D01*
X57150000Y-90365000D02*
X61155000Y-86360000D01*
X57150000Y-93345000D02*
X57150000Y-90365000D01*
D33*
X46990000Y-92355000D02*
X46990000Y-93345000D01*
D34*
X46990000Y-90365000D02*
X46990000Y-93345000D01*
X47820000Y-89535000D02*
X46990000Y-90365000D01*
X52385002Y-89535000D02*
X47820000Y-89535000D01*
X54229000Y-89535000D02*
X47820000Y-89535000D01*
X59055000Y-84709000D02*
X54229000Y-89535000D01*
X59055000Y-75565000D02*
X59055000Y-84709000D01*
X62865000Y-71755000D02*
X59055000Y-75565000D01*
X69850000Y-71755000D02*
X62865000Y-71755000D01*
D33*
X51990000Y-93345000D02*
X51990000Y-92355000D01*
D34*
X61595000Y-79375000D02*
X69850000Y-79375000D01*
X60325000Y-80645000D02*
X61595000Y-79375000D01*
X60325000Y-85136070D02*
X60325000Y-80645000D01*
X52116070Y-93345000D02*
X60325000Y-85136070D01*
X51990000Y-93345000D02*
X52116070Y-93345000D01*
X50800000Y-73025000D02*
X50800000Y-85090000D01*
X50800000Y-85090000D02*
X48895000Y-86995000D01*
X48895000Y-86995000D02*
X39370000Y-86995000D01*
X39370000Y-86995000D02*
X36830000Y-89535000D01*
X36830000Y-89535000D02*
X36830000Y-93345000D01*
X52070000Y-71755000D02*
X55880000Y-71755000D01*
X50800000Y-73025000D02*
X52070000Y-71755000D01*
X43815000Y-88265000D02*
X41830000Y-90250000D01*
X49322070Y-88265000D02*
X43815000Y-88265000D01*
X52000009Y-85587061D02*
X49322070Y-88265000D01*
X52000010Y-80079990D02*
X52000009Y-85587061D01*
X41830000Y-90250000D02*
X41830000Y-93345000D01*
X52705000Y-79375000D02*
X55880000Y-79375000D01*
X52000010Y-80079990D02*
X52705000Y-79375000D01*
X31670000Y-81995000D02*
X31670000Y-93345000D01*
X34290000Y-79375000D02*
X48260000Y-79375000D01*
X31670000Y-81995000D02*
X34290000Y-79375000D01*
X26670000Y-81915000D02*
X26670000Y-93345000D01*
X26670000Y-74930000D02*
X26670000Y-81915000D01*
X29845000Y-71755000D02*
X26670000Y-74930000D01*
X48260000Y-71755000D02*
X29845000Y-71755000D01*
D35*
X79248000Y-66151588D02*
X79248000Y-80137000D01*
X79248000Y-80137000D02*
X77470000Y-81915000D01*
X77851000Y-64643000D02*
X79248000Y-66151588D01*
X77612412Y-64516000D02*
X77851000Y-64643000D01*
X52150027Y-60330218D02*
X50119772Y-58299963D01*
X19413911Y-45102089D02*
X19413911Y-43033911D01*
X76904010Y-63696010D02*
X64573990Y-63696010D01*
X77851000Y-64643000D02*
X76904010Y-63696010D01*
X63879590Y-62992000D02*
X52830590Y-62992000D01*
X64573990Y-63686400D02*
X63879590Y-62992000D01*
X52830590Y-62992000D02*
X52197000Y-62358410D01*
X19413911Y-43033911D02*
X17770000Y-41390000D01*
X64573990Y-63696010D02*
X64573990Y-63686400D01*
X52150027Y-60330220D02*
X52150027Y-62311437D01*
X52150027Y-60330218D02*
X52150027Y-60330220D01*
X22860000Y-48548178D02*
X22906411Y-48594589D01*
X49856159Y-58036352D02*
X44574352Y-58036352D01*
X50119772Y-58299963D02*
X49856159Y-58036352D01*
X19450907Y-45102089D02*
X23644037Y-49295219D01*
X19413911Y-45102089D02*
X19450907Y-45102089D01*
X23644037Y-49295219D02*
X23644037Y-55389807D01*
X26290581Y-58036351D02*
X49530000Y-58036351D01*
X23644037Y-55389807D02*
X26290581Y-58036351D01*
X17770000Y-44094588D02*
X22352000Y-48676588D01*
X17770000Y-43930000D02*
X17770000Y-44094588D01*
X22352000Y-48676588D02*
X22358215Y-48682803D01*
X78595001Y-68089999D02*
X77470000Y-69215000D01*
X78595001Y-66134999D02*
X78595001Y-68089999D01*
X77484002Y-65024000D02*
X78595001Y-66134999D01*
X76592020Y-64146020D02*
X77470000Y-65024000D01*
X77470000Y-65024000D02*
X77484002Y-65024000D01*
X64196179Y-63944999D02*
X64123980Y-63872800D01*
X64196179Y-63954609D02*
X64196179Y-63944999D01*
X64387590Y-64146020D02*
X64196179Y-63954609D01*
X76592020Y-64146020D02*
X64387590Y-64146020D01*
X16594999Y-52114001D02*
X17245608Y-52764610D01*
X16594999Y-51011409D02*
X16594999Y-52114001D01*
X15768591Y-50185001D02*
X16594999Y-51011409D01*
X63693190Y-63442010D02*
X64196179Y-63944999D01*
X51700018Y-60516619D02*
X51700019Y-62497839D01*
X49933370Y-58749971D02*
X51700018Y-60516619D01*
X26104181Y-58486361D02*
X49669759Y-58486361D01*
X17245608Y-52764610D02*
X16408598Y-51927600D01*
X16408598Y-51927600D02*
X16408598Y-50825008D01*
X51700019Y-62497839D02*
X52644190Y-63442010D01*
X16430411Y-42754999D02*
X22792400Y-49116988D01*
X15768591Y-50185001D02*
X14665999Y-50185001D01*
X14665999Y-50185001D02*
X14054999Y-49574001D01*
X49669759Y-58486361D02*
X49933370Y-58749971D01*
X14054999Y-49574001D02*
X14054999Y-43365999D01*
X14054999Y-43365999D02*
X14665999Y-42754999D01*
X14665999Y-42754999D02*
X16430411Y-42754999D01*
X22792400Y-49116988D02*
X22829398Y-49116988D01*
X52644190Y-63442010D02*
X63693190Y-63442010D01*
X16408598Y-50825008D02*
X15768591Y-50185001D01*
X22829398Y-49116988D02*
X23194028Y-49481618D01*
X23194028Y-49481618D02*
X23194029Y-55576209D01*
X23194029Y-55576209D02*
X26104181Y-58486361D01*
X18796000Y-52578000D02*
X19685000Y-53465000D01*
X17770000Y-51550000D02*
X18796000Y-52578000D01*
X20447000Y-70993000D02*
X19939000Y-70993000D01*
X20510010Y-70929990D02*
X20447000Y-70993000D01*
X45413640Y-70929990D02*
X20510010Y-70929990D01*
X47128630Y-69215000D02*
X45413640Y-70929990D01*
X48260000Y-69215000D02*
X47128630Y-69215000D01*
X19939000Y-53721000D02*
X19812000Y-53594000D01*
X19812000Y-53594000D02*
X18796000Y-52578000D01*
X19939000Y-68580000D02*
X19939000Y-53721000D01*
X17770000Y-29490998D02*
X17770000Y-28690000D01*
X16405001Y-30855997D02*
X17770000Y-29490998D01*
X16405001Y-34144003D02*
X16405001Y-30855997D01*
X19050000Y-35812590D02*
X18182411Y-34945001D01*
X19050000Y-36449000D02*
X19050000Y-35812590D01*
X20194410Y-36957000D02*
X19558000Y-36957000D01*
X20956410Y-37719000D02*
X20194410Y-36957000D01*
X17205999Y-34945001D02*
X16405001Y-34144003D01*
X19558000Y-36957000D02*
X19050000Y-36449000D01*
X23114000Y-37719000D02*
X20956410Y-37719000D01*
X18182411Y-34945001D02*
X17205999Y-34945001D01*
X23114000Y-37719000D02*
X24638000Y-39243000D01*
X15794001Y-35134999D02*
X16405001Y-35745999D01*
X14665999Y-35134999D02*
X15794001Y-35134999D01*
X14054999Y-34523999D02*
X14665999Y-35134999D01*
X14054999Y-32405001D02*
X14054999Y-34523999D01*
X15230000Y-31230000D02*
X14054999Y-32405001D01*
X20994001Y-38393001D02*
X21844000Y-39243000D01*
X20275999Y-37674999D02*
X20994001Y-38393001D01*
X17395997Y-37674999D02*
X20275999Y-37674999D01*
X16405001Y-36684003D02*
X17395997Y-37674999D01*
X16405001Y-35745999D02*
X16405001Y-36684003D01*
X10414000Y-34020000D02*
X10414000Y-33020000D01*
X10414000Y-34401000D02*
X10414000Y-33401000D01*
X12323000Y-36310000D02*
X10414000Y-34401000D01*
X15230000Y-36310000D02*
X12323000Y-36310000D01*
D36*
X10414000Y-30607000D02*
X11176000Y-29845000D01*
X10414000Y-33401000D02*
X10414000Y-30607000D01*
D35*
X52600037Y-60143820D02*
X52425609Y-59969392D01*
X52600037Y-62125037D02*
X52600037Y-60143820D01*
X64008000Y-62484000D02*
X52959000Y-62484000D01*
X64770000Y-63246000D02*
X64008000Y-62484000D01*
X52425609Y-59969392D02*
X52425608Y-59969392D01*
X52959000Y-62484000D02*
X52600037Y-62125037D01*
X72644000Y-62230000D02*
X71628000Y-63246000D01*
X71628000Y-63246000D02*
X64770000Y-63246000D01*
X72644000Y-57658000D02*
X72644000Y-62230000D01*
X52600036Y-60143819D02*
X52425608Y-59969392D01*
X50042559Y-57586342D02*
X52425608Y-59969392D01*
X24094048Y-55203408D02*
X26476982Y-57586342D01*
X24094048Y-51477684D02*
X24094048Y-55203408D01*
X24094046Y-49108818D02*
X24094048Y-51477684D01*
X19863921Y-44878693D02*
X24094046Y-49108818D01*
X26476982Y-57586342D02*
X50042559Y-57586342D01*
X19863921Y-40943921D02*
X19863921Y-44878693D01*
X17770000Y-38850000D02*
X19863921Y-40943921D01*
X6223000Y-4953000D02*
X4604000Y-4953000D01*
X17782000Y-33782000D02*
X17770000Y-33770000D01*
X21844000Y-33782000D02*
X17782000Y-33782000D01*
X21832000Y-31230000D02*
X21844000Y-31242000D01*
X17770000Y-31230000D02*
X21832000Y-31230000D01*
X14158990Y-37778990D02*
X11049000Y-37778990D01*
X15230000Y-38850000D02*
X14158990Y-37778990D01*
D36*
X9017000Y-23241000D02*
X9652000Y-23241000D01*
X9781000Y-23241000D02*
X9017000Y-23241000D01*
X15230000Y-28690000D02*
X9781000Y-23241000D01*
D35*
X53443260Y-69215000D02*
X49633260Y-73025000D01*
X55880000Y-69215000D02*
X53443260Y-69215000D01*
X19546000Y-49010000D02*
X17770000Y-49010000D01*
X20955001Y-50419001D02*
X20891500Y-50355500D01*
X20891500Y-50355500D02*
X19546000Y-49010000D01*
X20955000Y-50419000D02*
X20891500Y-50355500D01*
X23114000Y-73025000D02*
X26797000Y-73025000D01*
X21844000Y-71755000D02*
X23114000Y-73025000D01*
X21844000Y-68580000D02*
X21844000Y-62484000D01*
X21844000Y-62484000D02*
X21844000Y-60706000D01*
X21844000Y-60706000D02*
X21844000Y-60579000D01*
X21844000Y-51308000D02*
X21209000Y-50673000D01*
X21209000Y-50673000D02*
X20891500Y-50355500D01*
X21844000Y-60706000D02*
X21844000Y-51308000D01*
X49633260Y-73025000D02*
X32131000Y-73025000D01*
X32131000Y-73025000D02*
X30861000Y-73025000D01*
X69850000Y-69215000D02*
X60071000Y-69215000D01*
X60071000Y-69215000D02*
X58489010Y-67633010D01*
X58489010Y-67633010D02*
X58489009Y-65855009D01*
X58489009Y-65855009D02*
X57230029Y-64596029D01*
X57230029Y-64596029D02*
X52399798Y-64596028D01*
X52399798Y-64596028D02*
X51250009Y-63446239D01*
X51250009Y-63446239D02*
X51250009Y-60703020D01*
X25917781Y-58936371D02*
X49483359Y-58936371D01*
X22744019Y-55762609D02*
X25917781Y-58936371D01*
X22744019Y-49668019D02*
X22744019Y-55762609D01*
X49483359Y-58936371D02*
X49946994Y-59400006D01*
X22642998Y-49566998D02*
X22744019Y-49668019D01*
X22606000Y-49566998D02*
X22642998Y-49566998D01*
X16405001Y-45105001D02*
X18144003Y-45105001D01*
X15230000Y-43930000D02*
X16405001Y-45105001D01*
X18144003Y-45105001D02*
X22606000Y-49566998D01*
X49946994Y-59400006D02*
X49746969Y-59199980D01*
X51250009Y-60703020D02*
X49946994Y-59400006D01*
X69850000Y-81915000D02*
X61595000Y-81915000D01*
X61595000Y-81915000D02*
X61595000Y-81915000D01*
X58039000Y-66041410D02*
X58039000Y-81915000D01*
X15230000Y-46470000D02*
X16594999Y-47834999D01*
X16594999Y-47834999D02*
X19007409Y-47834999D01*
X50800000Y-60889421D02*
X50799999Y-63632639D01*
X22294009Y-51121599D02*
X22294009Y-55949009D01*
X52213397Y-65046037D02*
X57043628Y-65046038D01*
X49296960Y-59386381D02*
X50800000Y-60889421D01*
X19007409Y-47834999D02*
X22294009Y-51121599D01*
X50799999Y-63632639D02*
X52213397Y-65046037D01*
X57043628Y-65046038D02*
X58039000Y-66041410D01*
X34339619Y-59386381D02*
X25731381Y-59386381D01*
X34212619Y-59386381D02*
X34339619Y-59386381D01*
X34339619Y-59386381D02*
X49296960Y-59386381D01*
X22294010Y-55949010D02*
X22294010Y-55822009D01*
X25731381Y-59386381D02*
X22294010Y-55949010D01*
D36*
X33655000Y-81915000D02*
X33655000Y-81915000D01*
X33655000Y-81915000D02*
X33655000Y-81915000D01*
X33655000Y-81915000D02*
X33655000Y-81915000D01*
D35*
X48260000Y-81915000D02*
X33655000Y-81915000D01*
X25400000Y-81915000D02*
X20320000Y-81915000D01*
X19050000Y-80645000D02*
X19050000Y-71120000D01*
X20320000Y-81915000D02*
X19050000Y-80645000D01*
X19050000Y-68155736D02*
X19050000Y-68580000D01*
X17770000Y-54090000D02*
X18987500Y-55307500D01*
X18987500Y-55307500D02*
X19050000Y-55370000D01*
X19121010Y-55441010D02*
X18987500Y-55307500D01*
X19121010Y-64015626D02*
X19121010Y-55441010D01*
X19050000Y-64086636D02*
X19121010Y-64015626D01*
X19050000Y-68580000D02*
X19050000Y-64086636D01*
X49530000Y-80645000D02*
X34925000Y-80645000D01*
X34925000Y-80645000D02*
X34925000Y-80645000D01*
X34925000Y-80645000D02*
X34925000Y-80645000D01*
X15230000Y-49010000D02*
X15230000Y-48905000D01*
X53340000Y-80645000D02*
X54610000Y-81915000D01*
X54610000Y-81915000D02*
X55880000Y-81915000D01*
X16594999Y-50374999D02*
X19134999Y-50374999D01*
X15230000Y-49010000D02*
X16594999Y-50374999D01*
X20193000Y-51435000D02*
X20320000Y-51560000D01*
X19134999Y-50374999D02*
X20193000Y-51435000D01*
X20574000Y-51816000D02*
X20447000Y-51689000D01*
X20447000Y-51689000D02*
X20193000Y-51435000D01*
X21717000Y-80645000D02*
X25400000Y-80645000D01*
X20828000Y-79756000D02*
X21717000Y-80645000D01*
X20828000Y-71755000D02*
X20828000Y-79756000D01*
X20828000Y-52070000D02*
X20828000Y-68580000D01*
X20447000Y-51689000D02*
X20828000Y-52070000D01*
D36*
X14027919Y-18530000D02*
X14015919Y-18542000D01*
X15230000Y-18530000D02*
X14027919Y-18530000D01*
X14015919Y-18542000D02*
X10414000Y-18542000D01*
X10367000Y-18161000D02*
X9017000Y-18161000D01*
X10414000Y-18208000D02*
X10367000Y-18161000D01*
X10414000Y-18542000D02*
X10414000Y-18208000D01*
D33*
X38910000Y-84328000D02*
X42672000Y-84328000D01*
X34639999Y-95408001D02*
X34639999Y-88598001D01*
X33522990Y-96525010D02*
X34639999Y-95408001D01*
X12197010Y-96525010D02*
X33522990Y-96525010D01*
X34639999Y-88598001D02*
X38910000Y-84328000D01*
X11684000Y-96012000D02*
X12197010Y-96525010D01*
D35*
X10033000Y-4953000D02*
X8604000Y-4953000D01*
D36*
X21507000Y-5080000D02*
X22257000Y-5080000D01*
X10572000Y-5112000D02*
X14035307Y-1648693D01*
X8572000Y-5112000D02*
X10572000Y-5112000D01*
X14035307Y-1648693D02*
X14035307Y-1585693D01*
X14035307Y-1585693D02*
X14859000Y-762000D01*
X17399000Y-762000D02*
X18415000Y-1778000D01*
X14859000Y-762000D02*
X17399000Y-762000D01*
X18415000Y-1778000D02*
X21507000Y-5080000D01*
X39000000Y-5080000D02*
X26257000Y-5080000D01*
X43000000Y-5080000D02*
X56039000Y-5080000D01*
D35*
X72644000Y-4953000D02*
X74327000Y-4953000D01*
D36*
X72327000Y-5080000D02*
X74327000Y-5080000D01*
X72055694Y-5351306D02*
X72327000Y-5080000D01*
X62310306Y-5351306D02*
X72055694Y-5351306D01*
X62039000Y-5080000D02*
X62310306Y-5351306D01*
X60039000Y-5080000D02*
X62039000Y-5080000D01*
X79883000Y-4953000D02*
X78327000Y-4953000D01*
D34*
X78867000Y-94996000D02*
X77311000Y-94996000D01*
D36*
X71755000Y-94996000D02*
X73311000Y-94996000D01*
X8382000Y-94996000D02*
X6826000Y-94996000D01*
D34*
X21510000Y-93345000D02*
X21510000Y-94335000D01*
D33*
X21510000Y-93345000D02*
X21510000Y-93475002D01*
D34*
X77311000Y-96996000D02*
X73311000Y-96996000D01*
X2826000Y-96996000D02*
X4858000Y-96996000D01*
X8604000Y-2953000D02*
X4604000Y-2953000D01*
X77279000Y-97028000D02*
X77311000Y-96996000D01*
X75438000Y-97028000D02*
X77279000Y-97028000D01*
X73343000Y-97028000D02*
X73311000Y-96996000D01*
X75438000Y-97028000D02*
X73343000Y-97028000D01*
X4858000Y-96996000D02*
X6826000Y-96996000D01*
D37*
X66644457Y-1112457D02*
X68612000Y-3080000D01*
X64546543Y-1112457D02*
X66644457Y-1112457D01*
X62579000Y-3080000D02*
X64546543Y-1112457D01*
X60039000Y-3080000D02*
X62579000Y-3080000D01*
X68612000Y-3080000D02*
X78327000Y-3080000D01*
X60039000Y-3080000D02*
X26257000Y-3080000D01*
X26257000Y-3080000D02*
X22257000Y-3080000D01*
D34*
X62865000Y-67691000D02*
X62865000Y-64971029D01*
D33*
X2715000Y-58420000D02*
X3165000Y-57970000D01*
X2715000Y-62230000D02*
X2715000Y-58420000D01*
X8715000Y-63432081D02*
X8715000Y-62230000D01*
X8715000Y-74899000D02*
X8715000Y-63432081D01*
X3048000Y-80566000D02*
X8715000Y-74899000D01*
X3048000Y-84328000D02*
X3048000Y-80566000D01*
X11811000Y-93345000D02*
X11684000Y-93472000D01*
X16510000Y-93345000D02*
X11811000Y-93345000D01*
D36*
X15230000Y-26150000D02*
X10289000Y-21209000D01*
X9017000Y-20701000D02*
X9779000Y-20701000D01*
X10287000Y-21209000D02*
X10289000Y-21209000D01*
X9779000Y-20701000D02*
X10287000Y-21209000D01*
D35*
X14478000Y-11684000D02*
X15230000Y-10910000D01*
D36*
X5929000Y-11479000D02*
X5929000Y-12954000D01*
X6498000Y-10910000D02*
X5929000Y-11479000D01*
X15230000Y-10910000D02*
X6498000Y-10910000D01*
X45593000Y-8890000D02*
X75057000Y-8890000D01*
X76240000Y-10073000D02*
X76240000Y-14097000D01*
X75057000Y-8890000D02*
X76240000Y-10073000D01*
M02*
