G04 #@! TF.GenerationSoftware,KiCad,Pcbnew,5.1.5+dfsg1-2build2*
G04 #@! TF.CreationDate,2020-06-26T22:01:47+02:00*
G04 #@! TF.ProjectId,robo-car,726f626f-2d63-4617-922e-6b696361645f,rev?*
G04 #@! TF.SameCoordinates,Original*
G04 #@! TF.FileFunction,Profile,NP*
%FSLAX46Y46*%
G04 Gerber Fmt 4.6, Leading zero omitted, Abs format (unit mm)*
G04 Created by KiCad (PCBNEW 5.1.5+dfsg1-2build2) date 2020-06-26 22:01:47*
%MOMM*%
%LPD*%
G04 APERTURE LIST*
%ADD10C,0.050000*%
G04 APERTURE END LIST*
D10*
X72500000Y-47000000D02*
G75*
G03X72500000Y-47000000I-1500000J0D01*
G01*
X12500000Y-47000000D02*
G75*
G03X12500000Y-47000000I-1500000J0D01*
G01*
X2500000Y-100000000D02*
G75*
G02X0Y-97500000I0J2500000D01*
G01*
X82000000Y-97500000D02*
G75*
G02X79500000Y-100000000I-2500000J0D01*
G01*
X79500000Y0D02*
G75*
G02X82000000Y-2500000I0J-2500000D01*
G01*
X0Y-2500000D02*
G75*
G02X2500000Y0I2500000J0D01*
G01*
X33000000Y-61000000D02*
G75*
G02X34000000Y-60000000I1000000J0D01*
G01*
X34000000Y-65000000D02*
G75*
G02X33000000Y-64000000I0J1000000D01*
G01*
X50000000Y-64000000D02*
G75*
G02X49000000Y-65000000I-1000000J0D01*
G01*
X49000000Y-60000000D02*
G75*
G02X50000000Y-61000000I0J-1000000D01*
G01*
X33000000Y-64000000D02*
X33000000Y-61000000D01*
X50000000Y-61000000D02*
X50000000Y-64000000D01*
X49000000Y-60000000D02*
X34000000Y-60000000D01*
X34000000Y-65000000D02*
X49000000Y-65000000D01*
X50000000Y-21000000D02*
G75*
G02X50000000Y-19000000I0J1000000D01*
G01*
X65000000Y-19000000D02*
G75*
G02X65000000Y-21000000I0J-1000000D01*
G01*
X65000000Y-19000000D02*
X50000000Y-19000000D01*
X65000000Y-21000000D02*
X50000000Y-21000000D01*
X66875000Y-61500000D02*
G75*
G03X66875000Y-61500000I-1375000J0D01*
G01*
X17875000Y-61500000D02*
G75*
G03X17875000Y-61500000I-1375000J0D01*
G01*
X66875000Y-3500000D02*
G75*
G03X66875000Y-3500000I-1375000J0D01*
G01*
X17875000Y-3500000D02*
G75*
G03X17875000Y-3500000I-1375000J0D01*
G01*
X0Y-97500000D02*
X0Y-2500000D01*
X79500000Y-100000000D02*
X2500000Y-100000000D01*
X82000000Y-2500000D02*
X82000000Y-97500000D01*
X2500000Y0D02*
X79500000Y0D01*
M02*
