G04 #@! TF.GenerationSoftware,KiCad,Pcbnew,5.1.4-e60b266~84~ubuntu18.04.1*
G04 #@! TF.CreationDate,2020-03-13T15:35:42+01:00*
G04 #@! TF.ProjectId,tree_lights,74726565-5f6c-4696-9768-74732e6b6963,rev?*
G04 #@! TF.SameCoordinates,Original*
G04 #@! TF.FileFunction,Profile,NP*
%FSLAX46Y46*%
G04 Gerber Fmt 4.6, Leading zero omitted, Abs format (unit mm)*
G04 Created by KiCad (PCBNEW 5.1.4-e60b266~84~ubuntu18.04.1) date 2020-03-13 15:35:42*
%MOMM*%
%LPD*%
G04 APERTURE LIST*
%ADD10C,0.050000*%
%ADD11C,0.200000*%
G04 APERTURE END LIST*
D10*
X101346000Y-106299000D02*
G75*
G03X101346000Y-106299000I-2520878J0D01*
G01*
D11*
X78849216Y-132373871D02*
X68820898Y-115436913D01*
X122202643Y-129691490D02*
X135146915Y-120286926D01*
X118629007Y-101527716D02*
G75*
G03X118629007Y-101527716I-7000000J0D01*
G01*
X156182712Y-95127145D02*
X154437116Y-115436913D01*
X106052089Y-105758316D02*
G75*
G03X106052089Y-105758316I0J0D01*
G01*
X141431573Y-99920080D02*
X136487302Y-84703176D01*
X131192506Y-142064976D02*
X111629007Y-146538825D01*
X88072110Y-119679647D02*
X101016382Y-129084211D01*
X135146915Y-120286926D02*
X139192000Y-117348000D01*
X84392314Y-90583908D02*
X81339223Y-99980358D01*
X82455779Y-68216815D02*
X94637249Y-78877533D01*
X82455779Y-68216815D02*
X85172141Y-65112964D01*
X136487302Y-84703176D02*
X151128692Y-79945900D01*
X94637249Y-78877533D02*
X84392314Y-90583908D01*
X119517439Y-57213242D02*
X138085873Y-65112964D01*
X156182712Y-95127145D02*
X141431573Y-99920080D01*
X119517439Y-72242259D02*
X103517440Y-72242259D01*
X85172141Y-65112964D02*
X103517440Y-57253543D01*
X131192506Y-142064976D02*
X122202643Y-129691490D01*
X78849216Y-132373871D02*
X88072110Y-119679647D01*
X105965889Y-105642212D02*
G75*
G03X105965889Y-105642212I0J0D01*
G01*
X103517440Y-72242259D02*
X103517440Y-57253543D01*
X119517439Y-57213242D02*
X119517439Y-72242259D01*
X68820898Y-115436913D02*
X67045778Y-95336136D01*
X111629007Y-146538825D02*
X91711001Y-141891969D01*
X101016382Y-129084211D02*
X91711001Y-141891969D01*
X81339223Y-99980358D02*
X67045778Y-95336136D01*
X138085873Y-65112964D02*
X151128692Y-79945900D01*
X154437116Y-115436913D02*
X147009544Y-128107926D01*
X139192000Y-117348000D02*
X147009544Y-128107926D01*
M02*
