G04 #@! TF.GenerationSoftware,KiCad,Pcbnew,5.1.4-e60b266~84~ubuntu18.04.1*
G04 #@! TF.CreationDate,2020-03-13T15:35:42+01:00*
G04 #@! TF.ProjectId,tree_lights,74726565-5f6c-4696-9768-74732e6b6963,rev?*
G04 #@! TF.SameCoordinates,Original*
G04 #@! TF.FileFunction,Soldermask,Bot*
G04 #@! TF.FilePolarity,Negative*
%FSLAX46Y46*%
G04 Gerber Fmt 4.6, Leading zero omitted, Abs format (unit mm)*
G04 Created by KiCad (PCBNEW 5.1.4-e60b266~84~ubuntu18.04.1) date 2020-03-13 15:35:42*
%MOMM*%
%LPD*%
G04 APERTURE LIST*
%ADD10C,0.100000*%
G04 APERTURE END LIST*
D10*
G36*
X112008228Y-140913703D02*
G01*
X112163100Y-140977853D01*
X112302481Y-141070985D01*
X112421015Y-141189519D01*
X112514147Y-141328900D01*
X112578297Y-141483772D01*
X112611000Y-141648184D01*
X112611000Y-141815816D01*
X112578297Y-141980228D01*
X112514147Y-142135100D01*
X112421015Y-142274481D01*
X112302481Y-142393015D01*
X112163100Y-142486147D01*
X112008228Y-142550297D01*
X111843816Y-142583000D01*
X111676184Y-142583000D01*
X111511772Y-142550297D01*
X111356900Y-142486147D01*
X111217519Y-142393015D01*
X111098985Y-142274481D01*
X111005853Y-142135100D01*
X110941703Y-141980228D01*
X110909000Y-141815816D01*
X110909000Y-141648184D01*
X110941703Y-141483772D01*
X111005853Y-141328900D01*
X111098985Y-141189519D01*
X111217519Y-141070985D01*
X111356900Y-140977853D01*
X111511772Y-140913703D01*
X111676184Y-140881000D01*
X111843816Y-140881000D01*
X112008228Y-140913703D01*
X112008228Y-140913703D01*
G37*
G36*
X117419747Y-140922921D02*
G01*
X117499376Y-140930764D01*
X117652627Y-140977252D01*
X117652630Y-140977253D01*
X117793863Y-141052744D01*
X117917659Y-141154341D01*
X118019256Y-141278137D01*
X118094747Y-141419370D01*
X118094748Y-141419373D01*
X118141236Y-141572624D01*
X118156933Y-141732000D01*
X118141236Y-141891376D01*
X118114283Y-141980228D01*
X118094747Y-142044630D01*
X118019256Y-142185863D01*
X117917659Y-142309659D01*
X117793863Y-142411256D01*
X117652630Y-142486747D01*
X117652627Y-142486748D01*
X117499376Y-142533236D01*
X117419747Y-142541079D01*
X117379934Y-142545000D01*
X116300066Y-142545000D01*
X116260253Y-142541079D01*
X116180624Y-142533236D01*
X116027373Y-142486748D01*
X116027370Y-142486747D01*
X115886137Y-142411256D01*
X115762341Y-142309659D01*
X115660744Y-142185863D01*
X115585253Y-142044630D01*
X115565717Y-141980228D01*
X115538764Y-141891376D01*
X115523067Y-141732000D01*
X115538764Y-141572624D01*
X115585252Y-141419373D01*
X115585253Y-141419370D01*
X115660744Y-141278137D01*
X115762341Y-141154341D01*
X115886137Y-141052744D01*
X116027370Y-140977253D01*
X116027373Y-140977252D01*
X116180624Y-140930764D01*
X116260253Y-140922921D01*
X116300066Y-140919000D01*
X117379934Y-140919000D01*
X117419747Y-140922921D01*
X117419747Y-140922921D01*
G37*
G36*
X107259747Y-140922921D02*
G01*
X107339376Y-140930764D01*
X107492627Y-140977252D01*
X107492630Y-140977253D01*
X107633863Y-141052744D01*
X107757659Y-141154341D01*
X107859256Y-141278137D01*
X107934747Y-141419370D01*
X107934748Y-141419373D01*
X107981236Y-141572624D01*
X107996933Y-141732000D01*
X107981236Y-141891376D01*
X107954283Y-141980228D01*
X107934747Y-142044630D01*
X107859256Y-142185863D01*
X107757659Y-142309659D01*
X107633863Y-142411256D01*
X107492630Y-142486747D01*
X107492627Y-142486748D01*
X107339376Y-142533236D01*
X107259747Y-142541079D01*
X107219934Y-142545000D01*
X106140066Y-142545000D01*
X106100253Y-142541079D01*
X106020624Y-142533236D01*
X105867373Y-142486748D01*
X105867370Y-142486747D01*
X105726137Y-142411256D01*
X105602341Y-142309659D01*
X105500744Y-142185863D01*
X105425253Y-142044630D01*
X105405717Y-141980228D01*
X105378764Y-141891376D01*
X105363067Y-141732000D01*
X105378764Y-141572624D01*
X105425252Y-141419373D01*
X105425253Y-141419370D01*
X105500744Y-141278137D01*
X105602341Y-141154341D01*
X105726137Y-141052744D01*
X105867370Y-140977253D01*
X105867373Y-140977252D01*
X106020624Y-140930764D01*
X106100253Y-140922921D01*
X106140066Y-140919000D01*
X107219934Y-140919000D01*
X107259747Y-140922921D01*
X107259747Y-140922921D01*
G37*
G36*
X117419747Y-138382921D02*
G01*
X117499376Y-138390764D01*
X117652627Y-138437252D01*
X117652630Y-138437253D01*
X117793863Y-138512744D01*
X117917659Y-138614341D01*
X118019256Y-138738137D01*
X118094747Y-138879370D01*
X118094748Y-138879373D01*
X118141236Y-139032624D01*
X118156933Y-139192000D01*
X118141236Y-139351376D01*
X118094748Y-139504627D01*
X118094747Y-139504630D01*
X118019256Y-139645863D01*
X117917659Y-139769659D01*
X117793863Y-139871256D01*
X117652630Y-139946747D01*
X117652627Y-139946748D01*
X117499376Y-139993236D01*
X117419747Y-140001079D01*
X117379934Y-140005000D01*
X116300066Y-140005000D01*
X116260253Y-140001079D01*
X116180624Y-139993236D01*
X116027373Y-139946748D01*
X116027370Y-139946747D01*
X115886137Y-139871256D01*
X115762341Y-139769659D01*
X115660744Y-139645863D01*
X115585253Y-139504630D01*
X115585252Y-139504627D01*
X115538764Y-139351376D01*
X115523067Y-139192000D01*
X115538764Y-139032624D01*
X115585252Y-138879373D01*
X115585253Y-138879370D01*
X115660744Y-138738137D01*
X115762341Y-138614341D01*
X115886137Y-138512744D01*
X116027370Y-138437253D01*
X116027373Y-138437252D01*
X116180624Y-138390764D01*
X116260253Y-138382921D01*
X116300066Y-138379000D01*
X117379934Y-138379000D01*
X117419747Y-138382921D01*
X117419747Y-138382921D01*
G37*
G36*
X107259747Y-138382921D02*
G01*
X107339376Y-138390764D01*
X107492627Y-138437252D01*
X107492630Y-138437253D01*
X107633863Y-138512744D01*
X107757659Y-138614341D01*
X107859256Y-138738137D01*
X107934747Y-138879370D01*
X107934748Y-138879373D01*
X107981236Y-139032624D01*
X107996933Y-139192000D01*
X107981236Y-139351376D01*
X107934748Y-139504627D01*
X107934747Y-139504630D01*
X107859256Y-139645863D01*
X107757659Y-139769659D01*
X107633863Y-139871256D01*
X107492630Y-139946747D01*
X107492627Y-139946748D01*
X107339376Y-139993236D01*
X107259747Y-140001079D01*
X107219934Y-140005000D01*
X106140066Y-140005000D01*
X106100253Y-140001079D01*
X106020624Y-139993236D01*
X105867373Y-139946748D01*
X105867370Y-139946747D01*
X105726137Y-139871256D01*
X105602341Y-139769659D01*
X105500744Y-139645863D01*
X105425253Y-139504630D01*
X105425252Y-139504627D01*
X105378764Y-139351376D01*
X105363067Y-139192000D01*
X105378764Y-139032624D01*
X105425252Y-138879373D01*
X105425253Y-138879370D01*
X105500744Y-138738137D01*
X105602341Y-138614341D01*
X105726137Y-138512744D01*
X105867370Y-138437253D01*
X105867373Y-138437252D01*
X106020624Y-138390764D01*
X106100253Y-138382921D01*
X106140066Y-138379000D01*
X107219934Y-138379000D01*
X107259747Y-138382921D01*
X107259747Y-138382921D01*
G37*
G36*
X117419747Y-135842921D02*
G01*
X117499376Y-135850764D01*
X117652627Y-135897252D01*
X117652630Y-135897253D01*
X117793863Y-135972744D01*
X117917659Y-136074341D01*
X118019256Y-136198137D01*
X118094747Y-136339370D01*
X118094748Y-136339373D01*
X118141236Y-136492624D01*
X118156933Y-136652000D01*
X118141236Y-136811376D01*
X118094748Y-136964627D01*
X118094747Y-136964630D01*
X118019256Y-137105863D01*
X117917659Y-137229659D01*
X117793863Y-137331256D01*
X117652630Y-137406747D01*
X117652627Y-137406748D01*
X117499376Y-137453236D01*
X117419747Y-137461079D01*
X117379934Y-137465000D01*
X116300066Y-137465000D01*
X116260253Y-137461079D01*
X116180624Y-137453236D01*
X116027373Y-137406748D01*
X116027370Y-137406747D01*
X115886137Y-137331256D01*
X115762341Y-137229659D01*
X115660744Y-137105863D01*
X115585253Y-136964630D01*
X115585252Y-136964627D01*
X115538764Y-136811376D01*
X115523067Y-136652000D01*
X115538764Y-136492624D01*
X115585252Y-136339373D01*
X115585253Y-136339370D01*
X115660744Y-136198137D01*
X115762341Y-136074341D01*
X115886137Y-135972744D01*
X116027370Y-135897253D01*
X116027373Y-135897252D01*
X116180624Y-135850764D01*
X116260253Y-135842921D01*
X116300066Y-135839000D01*
X117379934Y-135839000D01*
X117419747Y-135842921D01*
X117419747Y-135842921D01*
G37*
G36*
X107259747Y-135842921D02*
G01*
X107339376Y-135850764D01*
X107492627Y-135897252D01*
X107492630Y-135897253D01*
X107633863Y-135972744D01*
X107757659Y-136074341D01*
X107859256Y-136198137D01*
X107934747Y-136339370D01*
X107934748Y-136339373D01*
X107981236Y-136492624D01*
X107996933Y-136652000D01*
X107981236Y-136811376D01*
X107934748Y-136964627D01*
X107934747Y-136964630D01*
X107859256Y-137105863D01*
X107757659Y-137229659D01*
X107633863Y-137331256D01*
X107492630Y-137406747D01*
X107492627Y-137406748D01*
X107339376Y-137453236D01*
X107259747Y-137461079D01*
X107219934Y-137465000D01*
X106140066Y-137465000D01*
X106100253Y-137461079D01*
X106020624Y-137453236D01*
X105867373Y-137406748D01*
X105867370Y-137406747D01*
X105726137Y-137331256D01*
X105602341Y-137229659D01*
X105500744Y-137105863D01*
X105425253Y-136964630D01*
X105425252Y-136964627D01*
X105378764Y-136811376D01*
X105363067Y-136652000D01*
X105378764Y-136492624D01*
X105425252Y-136339373D01*
X105425253Y-136339370D01*
X105500744Y-136198137D01*
X105602341Y-136074341D01*
X105726137Y-135972744D01*
X105867370Y-135897253D01*
X105867373Y-135897252D01*
X106020624Y-135850764D01*
X106100253Y-135842921D01*
X106140066Y-135839000D01*
X107219934Y-135839000D01*
X107259747Y-135842921D01*
X107259747Y-135842921D01*
G37*
G36*
X111926823Y-133273313D02*
G01*
X112087242Y-133321976D01*
X112219906Y-133392886D01*
X112235078Y-133400996D01*
X112364659Y-133507341D01*
X112471004Y-133636922D01*
X112471005Y-133636924D01*
X112550024Y-133784758D01*
X112598687Y-133945177D01*
X112615117Y-134112000D01*
X112598687Y-134278823D01*
X112550024Y-134439242D01*
X112482344Y-134565863D01*
X112471004Y-134587078D01*
X112364659Y-134716659D01*
X112235078Y-134823004D01*
X112235076Y-134823005D01*
X112087242Y-134902024D01*
X111926823Y-134950687D01*
X111801804Y-134963000D01*
X111718196Y-134963000D01*
X111593177Y-134950687D01*
X111432758Y-134902024D01*
X111284924Y-134823005D01*
X111284922Y-134823004D01*
X111155341Y-134716659D01*
X111048996Y-134587078D01*
X111037656Y-134565863D01*
X110969976Y-134439242D01*
X110921313Y-134278823D01*
X110904883Y-134112000D01*
X110921313Y-133945177D01*
X110969976Y-133784758D01*
X111048995Y-133636924D01*
X111048996Y-133636922D01*
X111155341Y-133507341D01*
X111284922Y-133400996D01*
X111300094Y-133392886D01*
X111432758Y-133321976D01*
X111593177Y-133273313D01*
X111718196Y-133261000D01*
X111801804Y-133261000D01*
X111926823Y-133273313D01*
X111926823Y-133273313D01*
G37*
G36*
X117419747Y-133302921D02*
G01*
X117499376Y-133310764D01*
X117652627Y-133357252D01*
X117652630Y-133357253D01*
X117793863Y-133432744D01*
X117917659Y-133534341D01*
X118019256Y-133658137D01*
X118094747Y-133799370D01*
X118094748Y-133799373D01*
X118141236Y-133952624D01*
X118156933Y-134112000D01*
X118141236Y-134271376D01*
X118138976Y-134278825D01*
X118094747Y-134424630D01*
X118019256Y-134565863D01*
X117917659Y-134689659D01*
X117793863Y-134791256D01*
X117652630Y-134866747D01*
X117652627Y-134866748D01*
X117499376Y-134913236D01*
X117419747Y-134921079D01*
X117379934Y-134925000D01*
X116300066Y-134925000D01*
X116260253Y-134921079D01*
X116180624Y-134913236D01*
X116027373Y-134866748D01*
X116027370Y-134866747D01*
X115886137Y-134791256D01*
X115762341Y-134689659D01*
X115660744Y-134565863D01*
X115585253Y-134424630D01*
X115541024Y-134278825D01*
X115538764Y-134271376D01*
X115523067Y-134112000D01*
X115538764Y-133952624D01*
X115585252Y-133799373D01*
X115585253Y-133799370D01*
X115660744Y-133658137D01*
X115762341Y-133534341D01*
X115886137Y-133432744D01*
X116027370Y-133357253D01*
X116027373Y-133357252D01*
X116180624Y-133310764D01*
X116260253Y-133302921D01*
X116300066Y-133299000D01*
X117379934Y-133299000D01*
X117419747Y-133302921D01*
X117419747Y-133302921D01*
G37*
G36*
X107259747Y-133302921D02*
G01*
X107339376Y-133310764D01*
X107492627Y-133357252D01*
X107492630Y-133357253D01*
X107633863Y-133432744D01*
X107757659Y-133534341D01*
X107859256Y-133658137D01*
X107934747Y-133799370D01*
X107934748Y-133799373D01*
X107981236Y-133952624D01*
X107996933Y-134112000D01*
X107981236Y-134271376D01*
X107978976Y-134278825D01*
X107934747Y-134424630D01*
X107859256Y-134565863D01*
X107757659Y-134689659D01*
X107633863Y-134791256D01*
X107492630Y-134866747D01*
X107492627Y-134866748D01*
X107339376Y-134913236D01*
X107259747Y-134921079D01*
X107219934Y-134925000D01*
X106140066Y-134925000D01*
X106100253Y-134921079D01*
X106020624Y-134913236D01*
X105867373Y-134866748D01*
X105867370Y-134866747D01*
X105726137Y-134791256D01*
X105602341Y-134689659D01*
X105500744Y-134565863D01*
X105425253Y-134424630D01*
X105381024Y-134278825D01*
X105378764Y-134271376D01*
X105363067Y-134112000D01*
X105378764Y-133952624D01*
X105425252Y-133799373D01*
X105425253Y-133799370D01*
X105500744Y-133658137D01*
X105602341Y-133534341D01*
X105726137Y-133432744D01*
X105867370Y-133357253D01*
X105867373Y-133357252D01*
X106020624Y-133310764D01*
X106100253Y-133302921D01*
X106140066Y-133299000D01*
X107219934Y-133299000D01*
X107259747Y-133302921D01*
X107259747Y-133302921D01*
G37*
G36*
X117419747Y-130762921D02*
G01*
X117499376Y-130770764D01*
X117652627Y-130817252D01*
X117652630Y-130817253D01*
X117793863Y-130892744D01*
X117917659Y-130994341D01*
X118019256Y-131118137D01*
X118094747Y-131259370D01*
X118094748Y-131259373D01*
X118141236Y-131412624D01*
X118156933Y-131572000D01*
X118141236Y-131731376D01*
X118094748Y-131884627D01*
X118094747Y-131884630D01*
X118019256Y-132025863D01*
X117917659Y-132149659D01*
X117793863Y-132251256D01*
X117652630Y-132326747D01*
X117652627Y-132326748D01*
X117499376Y-132373236D01*
X117419747Y-132381079D01*
X117379934Y-132385000D01*
X116300066Y-132385000D01*
X116260253Y-132381079D01*
X116180624Y-132373236D01*
X116027373Y-132326748D01*
X116027370Y-132326747D01*
X115886137Y-132251256D01*
X115762341Y-132149659D01*
X115660744Y-132025863D01*
X115585253Y-131884630D01*
X115585252Y-131884627D01*
X115538764Y-131731376D01*
X115523067Y-131572000D01*
X115538764Y-131412624D01*
X115585252Y-131259373D01*
X115585253Y-131259370D01*
X115660744Y-131118137D01*
X115762341Y-130994341D01*
X115886137Y-130892744D01*
X116027370Y-130817253D01*
X116027373Y-130817252D01*
X116180624Y-130770764D01*
X116260253Y-130762921D01*
X116300066Y-130759000D01*
X117379934Y-130759000D01*
X117419747Y-130762921D01*
X117419747Y-130762921D01*
G37*
G36*
X107259747Y-130762921D02*
G01*
X107339376Y-130770764D01*
X107492627Y-130817252D01*
X107492630Y-130817253D01*
X107633863Y-130892744D01*
X107757659Y-130994341D01*
X107859256Y-131118137D01*
X107934747Y-131259370D01*
X107934748Y-131259373D01*
X107981236Y-131412624D01*
X107996933Y-131572000D01*
X107981236Y-131731376D01*
X107934748Y-131884627D01*
X107934747Y-131884630D01*
X107859256Y-132025863D01*
X107757659Y-132149659D01*
X107633863Y-132251256D01*
X107492630Y-132326747D01*
X107492627Y-132326748D01*
X107339376Y-132373236D01*
X107259747Y-132381079D01*
X107219934Y-132385000D01*
X106140066Y-132385000D01*
X106100253Y-132381079D01*
X106020624Y-132373236D01*
X105867373Y-132326748D01*
X105867370Y-132326747D01*
X105726137Y-132251256D01*
X105602341Y-132149659D01*
X105500744Y-132025863D01*
X105425253Y-131884630D01*
X105425252Y-131884627D01*
X105378764Y-131731376D01*
X105363067Y-131572000D01*
X105378764Y-131412624D01*
X105425252Y-131259373D01*
X105425253Y-131259370D01*
X105500744Y-131118137D01*
X105602341Y-130994341D01*
X105726137Y-130892744D01*
X105867370Y-130817253D01*
X105867373Y-130817252D01*
X106020624Y-130770764D01*
X106100253Y-130762921D01*
X106140066Y-130759000D01*
X107219934Y-130759000D01*
X107259747Y-130762921D01*
X107259747Y-130762921D01*
G37*
G36*
X107259747Y-128222921D02*
G01*
X107339376Y-128230764D01*
X107492627Y-128277252D01*
X107492630Y-128277253D01*
X107633863Y-128352744D01*
X107757659Y-128454341D01*
X107859256Y-128578137D01*
X107934747Y-128719370D01*
X107934748Y-128719373D01*
X107981236Y-128872624D01*
X107996933Y-129032000D01*
X107981236Y-129191376D01*
X107934748Y-129344627D01*
X107934747Y-129344630D01*
X107859256Y-129485863D01*
X107757659Y-129609659D01*
X107633863Y-129711256D01*
X107492630Y-129786747D01*
X107492627Y-129786748D01*
X107339376Y-129833236D01*
X107259747Y-129841079D01*
X107219934Y-129845000D01*
X106140066Y-129845000D01*
X106100253Y-129841079D01*
X106020624Y-129833236D01*
X105867373Y-129786748D01*
X105867370Y-129786747D01*
X105726137Y-129711256D01*
X105602341Y-129609659D01*
X105500744Y-129485863D01*
X105425253Y-129344630D01*
X105425252Y-129344627D01*
X105378764Y-129191376D01*
X105363067Y-129032000D01*
X105378764Y-128872624D01*
X105425252Y-128719373D01*
X105425253Y-128719370D01*
X105500744Y-128578137D01*
X105602341Y-128454341D01*
X105726137Y-128352744D01*
X105867370Y-128277253D01*
X105867373Y-128277252D01*
X106020624Y-128230764D01*
X106100253Y-128222921D01*
X106140066Y-128219000D01*
X107219934Y-128219000D01*
X107259747Y-128222921D01*
X107259747Y-128222921D01*
G37*
G36*
X117419747Y-128222921D02*
G01*
X117499376Y-128230764D01*
X117652627Y-128277252D01*
X117652630Y-128277253D01*
X117793863Y-128352744D01*
X117917659Y-128454341D01*
X118019256Y-128578137D01*
X118094747Y-128719370D01*
X118094748Y-128719373D01*
X118141236Y-128872624D01*
X118156933Y-129032000D01*
X118141236Y-129191376D01*
X118094748Y-129344627D01*
X118094747Y-129344630D01*
X118019256Y-129485863D01*
X117917659Y-129609659D01*
X117793863Y-129711256D01*
X117652630Y-129786747D01*
X117652627Y-129786748D01*
X117499376Y-129833236D01*
X117419747Y-129841079D01*
X117379934Y-129845000D01*
X116300066Y-129845000D01*
X116260253Y-129841079D01*
X116180624Y-129833236D01*
X116027373Y-129786748D01*
X116027370Y-129786747D01*
X115886137Y-129711256D01*
X115762341Y-129609659D01*
X115660744Y-129485863D01*
X115585253Y-129344630D01*
X115585252Y-129344627D01*
X115538764Y-129191376D01*
X115523067Y-129032000D01*
X115538764Y-128872624D01*
X115585252Y-128719373D01*
X115585253Y-128719370D01*
X115660744Y-128578137D01*
X115762341Y-128454341D01*
X115886137Y-128352744D01*
X116027370Y-128277253D01*
X116027373Y-128277252D01*
X116180624Y-128230764D01*
X116260253Y-128222921D01*
X116300066Y-128219000D01*
X117379934Y-128219000D01*
X117419747Y-128222921D01*
X117419747Y-128222921D01*
G37*
G36*
X107259747Y-125682921D02*
G01*
X107339376Y-125690764D01*
X107492627Y-125737252D01*
X107492630Y-125737253D01*
X107633863Y-125812744D01*
X107757659Y-125914341D01*
X107859256Y-126038137D01*
X107934747Y-126179370D01*
X107934748Y-126179373D01*
X107981236Y-126332624D01*
X107996933Y-126492000D01*
X107981236Y-126651376D01*
X107934748Y-126804627D01*
X107934747Y-126804630D01*
X107859256Y-126945863D01*
X107757659Y-127069659D01*
X107633863Y-127171256D01*
X107492630Y-127246747D01*
X107492627Y-127246748D01*
X107339376Y-127293236D01*
X107259747Y-127301079D01*
X107219934Y-127305000D01*
X106140066Y-127305000D01*
X106100253Y-127301079D01*
X106020624Y-127293236D01*
X105867373Y-127246748D01*
X105867370Y-127246747D01*
X105726137Y-127171256D01*
X105602341Y-127069659D01*
X105500744Y-126945863D01*
X105425253Y-126804630D01*
X105425252Y-126804627D01*
X105378764Y-126651376D01*
X105363067Y-126492000D01*
X105378764Y-126332624D01*
X105425252Y-126179373D01*
X105425253Y-126179370D01*
X105500744Y-126038137D01*
X105602341Y-125914341D01*
X105726137Y-125812744D01*
X105867370Y-125737253D01*
X105867373Y-125737252D01*
X106020624Y-125690764D01*
X106100253Y-125682921D01*
X106140066Y-125679000D01*
X107219934Y-125679000D01*
X107259747Y-125682921D01*
X107259747Y-125682921D01*
G37*
G36*
X117419747Y-125682921D02*
G01*
X117499376Y-125690764D01*
X117652627Y-125737252D01*
X117652630Y-125737253D01*
X117793863Y-125812744D01*
X117917659Y-125914341D01*
X118019256Y-126038137D01*
X118094747Y-126179370D01*
X118094748Y-126179373D01*
X118141236Y-126332624D01*
X118156933Y-126492000D01*
X118141236Y-126651376D01*
X118094748Y-126804627D01*
X118094747Y-126804630D01*
X118019256Y-126945863D01*
X117917659Y-127069659D01*
X117793863Y-127171256D01*
X117652630Y-127246747D01*
X117652627Y-127246748D01*
X117499376Y-127293236D01*
X117419747Y-127301079D01*
X117379934Y-127305000D01*
X116300066Y-127305000D01*
X116260253Y-127301079D01*
X116180624Y-127293236D01*
X116027373Y-127246748D01*
X116027370Y-127246747D01*
X115886137Y-127171256D01*
X115762341Y-127069659D01*
X115660744Y-126945863D01*
X115585253Y-126804630D01*
X115585252Y-126804627D01*
X115538764Y-126651376D01*
X115523067Y-126492000D01*
X115538764Y-126332624D01*
X115585252Y-126179373D01*
X115585253Y-126179370D01*
X115660744Y-126038137D01*
X115762341Y-125914341D01*
X115886137Y-125812744D01*
X116027370Y-125737253D01*
X116027373Y-125737252D01*
X116180624Y-125690764D01*
X116260253Y-125682921D01*
X116300066Y-125679000D01*
X117379934Y-125679000D01*
X117419747Y-125682921D01*
X117419747Y-125682921D01*
G37*
G36*
X117419747Y-123142921D02*
G01*
X117499376Y-123150764D01*
X117652627Y-123197252D01*
X117652630Y-123197253D01*
X117793863Y-123272744D01*
X117917659Y-123374341D01*
X118019256Y-123498137D01*
X118094747Y-123639370D01*
X118094748Y-123639373D01*
X118141236Y-123792624D01*
X118156933Y-123952000D01*
X118141236Y-124111376D01*
X118094748Y-124264627D01*
X118094747Y-124264630D01*
X118019256Y-124405863D01*
X117917659Y-124529659D01*
X117793863Y-124631256D01*
X117652630Y-124706747D01*
X117652627Y-124706748D01*
X117499376Y-124753236D01*
X117419747Y-124761079D01*
X117379934Y-124765000D01*
X116300066Y-124765000D01*
X116260253Y-124761079D01*
X116180624Y-124753236D01*
X116027373Y-124706748D01*
X116027370Y-124706747D01*
X115886137Y-124631256D01*
X115762341Y-124529659D01*
X115660744Y-124405863D01*
X115585253Y-124264630D01*
X115585252Y-124264627D01*
X115538764Y-124111376D01*
X115523067Y-123952000D01*
X115538764Y-123792624D01*
X115585252Y-123639373D01*
X115585253Y-123639370D01*
X115660744Y-123498137D01*
X115762341Y-123374341D01*
X115886137Y-123272744D01*
X116027370Y-123197253D01*
X116027373Y-123197252D01*
X116180624Y-123150764D01*
X116260253Y-123142921D01*
X116300066Y-123139000D01*
X117379934Y-123139000D01*
X117419747Y-123142921D01*
X117419747Y-123142921D01*
G37*
G36*
X107715993Y-123146203D02*
G01*
X107780411Y-123165744D01*
X107839781Y-123197478D01*
X107891817Y-123240183D01*
X107934522Y-123292219D01*
X107966256Y-123351589D01*
X107985797Y-123416007D01*
X107993000Y-123489140D01*
X107993000Y-124414860D01*
X107985797Y-124487993D01*
X107966256Y-124552411D01*
X107934522Y-124611781D01*
X107891817Y-124663817D01*
X107839781Y-124706522D01*
X107780411Y-124738256D01*
X107715993Y-124757797D01*
X107642860Y-124765000D01*
X105717140Y-124765000D01*
X105644007Y-124757797D01*
X105579589Y-124738256D01*
X105520219Y-124706522D01*
X105468183Y-124663817D01*
X105425478Y-124611781D01*
X105393744Y-124552411D01*
X105374203Y-124487993D01*
X105367000Y-124414860D01*
X105367000Y-123489140D01*
X105374203Y-123416007D01*
X105393744Y-123351589D01*
X105425478Y-123292219D01*
X105468183Y-123240183D01*
X105520219Y-123197478D01*
X105579589Y-123165744D01*
X105644007Y-123146203D01*
X105717140Y-123139000D01*
X107642860Y-123139000D01*
X107715993Y-123146203D01*
X107715993Y-123146203D01*
G37*
G36*
X83072645Y-117409406D02*
G01*
X84366728Y-118420454D01*
X81865911Y-121621353D01*
X81865910Y-121621353D01*
X81045591Y-120980449D01*
X80225272Y-120339546D01*
X82726089Y-117138647D01*
X82726090Y-117138647D01*
X83072645Y-117409406D01*
X83072645Y-117409406D01*
G37*
G36*
X146543916Y-119095334D02*
G01*
X146652492Y-119128271D01*
X146652495Y-119128272D01*
X146688601Y-119147571D01*
X146752557Y-119181756D01*
X146840264Y-119253736D01*
X146903383Y-119330646D01*
X146920702Y-119347965D01*
X146941077Y-119361579D01*
X146963716Y-119370957D01*
X146987749Y-119375737D01*
X147012253Y-119375737D01*
X147036286Y-119370957D01*
X147058925Y-119361579D01*
X147079299Y-119347966D01*
X147096626Y-119330639D01*
X147110240Y-119310264D01*
X147119618Y-119287625D01*
X147124398Y-119263592D01*
X147125000Y-119251340D01*
X147125000Y-119087000D01*
X148277000Y-119087000D01*
X148277000Y-120689000D01*
X147125000Y-120689000D01*
X147125000Y-120524660D01*
X147122598Y-120500274D01*
X147115485Y-120476825D01*
X147103934Y-120455214D01*
X147088389Y-120436272D01*
X147069447Y-120420727D01*
X147047836Y-120409176D01*
X147024387Y-120402063D01*
X147000001Y-120399661D01*
X146975615Y-120402063D01*
X146952166Y-120409176D01*
X146930555Y-120420727D01*
X146903381Y-120445356D01*
X146840264Y-120522264D01*
X146752556Y-120594244D01*
X146688600Y-120628429D01*
X146652494Y-120647728D01*
X146652491Y-120647729D01*
X146543915Y-120680666D01*
X146431000Y-120691787D01*
X146318084Y-120680666D01*
X146209508Y-120647729D01*
X146209505Y-120647728D01*
X146173399Y-120628429D01*
X146109443Y-120594244D01*
X146021736Y-120522264D01*
X145949756Y-120434556D01*
X145906239Y-120353140D01*
X145892625Y-120332766D01*
X145875298Y-120315439D01*
X145854924Y-120301825D01*
X145832285Y-120292448D01*
X145808251Y-120287668D01*
X145783747Y-120287668D01*
X145759714Y-120292449D01*
X145737075Y-120301826D01*
X145716701Y-120315440D01*
X145699374Y-120332767D01*
X145685762Y-120353140D01*
X145642244Y-120434557D01*
X145570264Y-120522264D01*
X145482556Y-120594244D01*
X145418600Y-120628429D01*
X145382494Y-120647728D01*
X145382491Y-120647729D01*
X145273915Y-120680666D01*
X145161000Y-120691787D01*
X145048084Y-120680666D01*
X144939508Y-120647729D01*
X144939505Y-120647728D01*
X144903399Y-120628429D01*
X144839443Y-120594244D01*
X144751736Y-120522264D01*
X144679756Y-120434556D01*
X144636239Y-120353140D01*
X144626272Y-120334494D01*
X144620492Y-120315440D01*
X144593334Y-120225915D01*
X144585000Y-120141297D01*
X144585000Y-119634702D01*
X144593334Y-119550084D01*
X144626271Y-119441508D01*
X144626272Y-119441505D01*
X144679756Y-119341445D01*
X144679757Y-119341443D01*
X144751737Y-119253736D01*
X144839444Y-119181756D01*
X144903400Y-119147571D01*
X144939506Y-119128272D01*
X144939509Y-119128271D01*
X145048085Y-119095334D01*
X145161000Y-119084213D01*
X145273916Y-119095334D01*
X145382492Y-119128271D01*
X145382495Y-119128272D01*
X145418601Y-119147571D01*
X145482557Y-119181756D01*
X145570264Y-119253736D01*
X145642244Y-119341443D01*
X145658019Y-119370957D01*
X145685761Y-119422859D01*
X145699375Y-119443234D01*
X145716702Y-119460561D01*
X145737076Y-119474174D01*
X145759715Y-119483552D01*
X145783748Y-119488332D01*
X145808252Y-119488332D01*
X145832285Y-119483552D01*
X145854924Y-119474174D01*
X145875299Y-119460560D01*
X145892626Y-119443233D01*
X145906239Y-119422859D01*
X145949756Y-119341445D01*
X145949757Y-119341443D01*
X146021737Y-119253736D01*
X146109444Y-119181756D01*
X146173400Y-119147571D01*
X146209506Y-119128272D01*
X146209509Y-119128271D01*
X146318085Y-119095334D01*
X146431000Y-119084213D01*
X146543916Y-119095334D01*
X146543916Y-119095334D01*
G37*
G36*
X79134351Y-114494310D02*
G01*
X79244991Y-114513570D01*
X79436270Y-114587474D01*
X79473596Y-114611139D01*
X79609455Y-114697274D01*
X79757891Y-114838752D01*
X79875874Y-115006469D01*
X79958870Y-115193980D01*
X80003690Y-115394084D01*
X80008611Y-115599082D01*
X79998029Y-115659867D01*
X79973443Y-115801103D01*
X79899539Y-115992381D01*
X79817250Y-116122173D01*
X78535280Y-117763020D01*
X78429251Y-117874264D01*
X78261534Y-117992247D01*
X78074023Y-118075243D01*
X77873919Y-118120063D01*
X77668921Y-118124983D01*
X77466901Y-118089816D01*
X77275623Y-118015912D01*
X77182819Y-117957073D01*
X77102437Y-117906111D01*
X76954001Y-117764634D01*
X76836018Y-117596917D01*
X76753022Y-117409406D01*
X76708202Y-117209302D01*
X76703282Y-117004304D01*
X76738449Y-116802285D01*
X76738449Y-116802284D01*
X76812353Y-116611006D01*
X76894642Y-116481214D01*
X78176611Y-114840366D01*
X78282640Y-114729122D01*
X78366499Y-114670131D01*
X78450357Y-114611139D01*
X78637868Y-114528143D01*
X78837972Y-114483323D01*
X79042970Y-114478402D01*
X79134351Y-114494310D01*
X79134351Y-114494310D01*
G37*
G36*
X131802220Y-113701615D02*
G01*
X131385981Y-115659868D01*
X129427728Y-115243629D01*
X129843967Y-113285376D01*
X131802220Y-113701615D01*
X131802220Y-113701615D01*
G37*
G36*
X122314188Y-111684871D02*
G01*
X121897949Y-113643124D01*
X119939696Y-113226885D01*
X120355935Y-111268632D01*
X122314188Y-111684871D01*
X122314188Y-111684871D01*
G37*
G36*
X145859437Y-110829827D02*
G01*
X145986497Y-110844023D01*
X146256133Y-110901336D01*
X148023258Y-111276950D01*
X148128108Y-111310261D01*
X148169725Y-111323483D01*
X148349290Y-111422506D01*
X148393761Y-111459988D01*
X148506085Y-111554657D01*
X148634088Y-111714860D01*
X148728377Y-111896956D01*
X148776370Y-112062962D01*
X148785328Y-112093946D01*
X148799535Y-112260520D01*
X148802754Y-112298264D01*
X148779985Y-112502056D01*
X148717896Y-112697488D01*
X148618873Y-112877053D01*
X148486722Y-113033848D01*
X148326519Y-113161851D01*
X148144423Y-113256140D01*
X147947435Y-113313090D01*
X147794194Y-113326160D01*
X147743115Y-113330517D01*
X147743114Y-113330517D01*
X147717446Y-113327649D01*
X147590386Y-113313453D01*
X147264898Y-113244268D01*
X145553626Y-112880526D01*
X145448776Y-112847215D01*
X145407159Y-112833993D01*
X145227595Y-112734970D01*
X145183123Y-112697488D01*
X145070799Y-112602819D01*
X144942796Y-112442616D01*
X144848507Y-112260520D01*
X144791557Y-112063532D01*
X144774130Y-111859211D01*
X144796899Y-111655420D01*
X144858987Y-111459992D01*
X144858988Y-111459988D01*
X144958011Y-111280424D01*
X144960939Y-111276950D01*
X145090162Y-111123628D01*
X145250365Y-110995625D01*
X145432461Y-110901336D01*
X145629449Y-110844386D01*
X145782689Y-110831316D01*
X145833768Y-110826959D01*
X145833769Y-110826959D01*
X145859437Y-110829827D01*
X145859437Y-110829827D01*
G37*
G36*
X150031054Y-106592016D02*
G01*
X150031054Y-106592017D01*
X149598182Y-108628520D01*
X149598182Y-108628521D01*
X145624946Y-107783984D01*
X146057818Y-105747479D01*
X150031054Y-106592016D01*
X150031054Y-106592016D01*
G37*
G36*
X76080826Y-104663193D02*
G01*
X76084560Y-104663266D01*
X76277637Y-104705627D01*
X76325581Y-104726598D01*
X76458743Y-104784843D01*
X76620915Y-104897869D01*
X76757920Y-105040361D01*
X76864493Y-105206844D01*
X76903954Y-105307663D01*
X76936540Y-105390920D01*
X76971291Y-105585512D01*
X76967411Y-105783145D01*
X76935664Y-105927845D01*
X76920237Y-105975324D01*
X76875843Y-106111956D01*
X76816477Y-106247680D01*
X76703451Y-106409852D01*
X76587078Y-106521743D01*
X76560959Y-106546856D01*
X76394477Y-106653430D01*
X76239760Y-106713985D01*
X76210401Y-106725476D01*
X76015808Y-106760227D01*
X75818175Y-106756347D01*
X75625095Y-106713985D01*
X75443990Y-106634769D01*
X75382649Y-106592017D01*
X75281818Y-106521743D01*
X75144814Y-106379251D01*
X75038240Y-106212769D01*
X74966194Y-106028693D01*
X74931443Y-105834100D01*
X74935323Y-105636467D01*
X74967070Y-105491769D01*
X74967071Y-105491764D01*
X75026888Y-105307663D01*
X75070987Y-105206844D01*
X75086257Y-105171933D01*
X75199283Y-105009761D01*
X75341775Y-104872757D01*
X75508257Y-104766183D01*
X75692332Y-104694136D01*
X75886926Y-104659385D01*
X76080826Y-104663193D01*
X76080826Y-104663193D01*
G37*
G36*
X73665143Y-103878290D02*
G01*
X73668877Y-103878363D01*
X73861954Y-103920724D01*
X73909898Y-103941695D01*
X74043060Y-103999940D01*
X74205232Y-104112966D01*
X74342237Y-104255458D01*
X74448810Y-104421941D01*
X74488271Y-104522760D01*
X74520857Y-104606017D01*
X74555608Y-104800609D01*
X74551728Y-104998242D01*
X74519981Y-105142942D01*
X74510561Y-105171932D01*
X74460160Y-105327053D01*
X74406532Y-105449659D01*
X74400794Y-105462777D01*
X74287768Y-105624949D01*
X74171395Y-105736840D01*
X74145276Y-105761953D01*
X73978794Y-105868527D01*
X73824077Y-105929082D01*
X73794718Y-105940573D01*
X73600125Y-105975324D01*
X73402492Y-105971444D01*
X73209412Y-105929082D01*
X73028307Y-105849866D01*
X72881402Y-105747480D01*
X72866135Y-105736840D01*
X72729131Y-105594348D01*
X72723475Y-105585512D01*
X72622557Y-105427866D01*
X72550511Y-105243790D01*
X72515760Y-105049197D01*
X72519640Y-104851564D01*
X72534279Y-104784843D01*
X72551388Y-104706861D01*
X72611205Y-104522760D01*
X72655304Y-104421941D01*
X72670574Y-104387030D01*
X72783600Y-104224858D01*
X72926092Y-104087854D01*
X73092574Y-103981280D01*
X73276649Y-103909233D01*
X73471243Y-103874482D01*
X73665143Y-103878290D01*
X73665143Y-103878290D01*
G37*
G36*
X72399162Y-103450538D02*
G01*
X71749609Y-105449659D01*
X71749608Y-105449659D01*
X69840838Y-104829462D01*
X69913440Y-104606016D01*
X70490391Y-102830341D01*
X70490392Y-102830341D01*
X72399162Y-103450538D01*
X72399162Y-103450538D01*
G37*
G36*
X153595640Y-101414017D02*
G01*
X153220983Y-103176640D01*
X151458360Y-102801983D01*
X151833017Y-101039360D01*
X153595640Y-101414017D01*
X153595640Y-101414017D01*
G37*
G36*
X150152948Y-100685423D02*
G01*
X150219132Y-100691941D01*
X150388971Y-100743461D01*
X150545496Y-100827126D01*
X150581234Y-100856456D01*
X150682691Y-100939718D01*
X150764464Y-101039360D01*
X150795283Y-101076913D01*
X150878948Y-101233438D01*
X150930468Y-101403277D01*
X150947864Y-101579904D01*
X150930468Y-101756531D01*
X150878948Y-101926370D01*
X150795283Y-102082895D01*
X150765953Y-102118633D01*
X150682691Y-102220090D01*
X150581234Y-102303352D01*
X150545496Y-102332682D01*
X150388971Y-102416347D01*
X150219132Y-102467867D01*
X150152948Y-102474385D01*
X150086765Y-102480904D01*
X149998245Y-102480904D01*
X149932062Y-102474385D01*
X149865878Y-102467867D01*
X149696039Y-102416347D01*
X149539514Y-102332682D01*
X149503776Y-102303352D01*
X149402319Y-102220090D01*
X149319057Y-102118633D01*
X149289727Y-102082895D01*
X149206062Y-101926370D01*
X149154542Y-101756531D01*
X149137146Y-101579904D01*
X149154542Y-101403277D01*
X149206062Y-101233438D01*
X149289727Y-101076913D01*
X149320546Y-101039360D01*
X149402319Y-100939718D01*
X149503776Y-100856456D01*
X149539514Y-100827126D01*
X149696039Y-100743461D01*
X149865878Y-100691941D01*
X149932062Y-100685423D01*
X149998245Y-100678904D01*
X150086765Y-100678904D01*
X150152948Y-100685423D01*
X150152948Y-100685423D01*
G37*
G36*
X79290507Y-100530216D02*
G01*
X79450926Y-100578879D01*
X79583590Y-100649789D01*
X79598762Y-100657899D01*
X79728343Y-100764244D01*
X79834688Y-100893825D01*
X79834689Y-100893827D01*
X79913708Y-101041661D01*
X79962371Y-101202080D01*
X79978801Y-101368903D01*
X79962371Y-101535726D01*
X79913708Y-101696145D01*
X79881432Y-101756529D01*
X79834688Y-101843981D01*
X79728343Y-101973562D01*
X79598762Y-102079907D01*
X79593172Y-102082895D01*
X79450926Y-102158927D01*
X79290507Y-102207590D01*
X79165488Y-102219903D01*
X79081880Y-102219903D01*
X78956861Y-102207590D01*
X78796442Y-102158927D01*
X78654196Y-102082895D01*
X78648606Y-102079907D01*
X78519025Y-101973562D01*
X78412680Y-101843981D01*
X78365936Y-101756529D01*
X78333660Y-101696145D01*
X78284997Y-101535726D01*
X78268567Y-101368903D01*
X78284997Y-101202080D01*
X78333660Y-101041661D01*
X78412679Y-100893827D01*
X78412680Y-100893825D01*
X78519025Y-100764244D01*
X78648606Y-100657899D01*
X78663778Y-100649789D01*
X78796442Y-100578879D01*
X78956861Y-100530216D01*
X79081880Y-100517903D01*
X79165488Y-100517903D01*
X79290507Y-100530216D01*
X79290507Y-100530216D01*
G37*
G36*
X147668453Y-100157328D02*
G01*
X147734637Y-100163846D01*
X147904476Y-100215366D01*
X148061001Y-100299031D01*
X148089168Y-100322147D01*
X148198196Y-100411623D01*
X148270875Y-100500184D01*
X148310788Y-100548818D01*
X148394453Y-100705343D01*
X148445973Y-100875182D01*
X148463369Y-101051809D01*
X148445973Y-101228436D01*
X148394453Y-101398275D01*
X148310788Y-101554800D01*
X148281458Y-101590538D01*
X148198196Y-101691995D01*
X148119557Y-101756531D01*
X148061001Y-101804587D01*
X147904476Y-101888252D01*
X147734637Y-101939772D01*
X147668453Y-101946290D01*
X147602270Y-101952809D01*
X147513750Y-101952809D01*
X147447567Y-101946290D01*
X147381383Y-101939772D01*
X147211544Y-101888252D01*
X147055019Y-101804587D01*
X146996463Y-101756531D01*
X146917824Y-101691995D01*
X146834562Y-101590538D01*
X146805232Y-101554800D01*
X146721567Y-101398275D01*
X146670047Y-101228436D01*
X146652651Y-101051809D01*
X146670047Y-100875182D01*
X146721567Y-100705343D01*
X146805232Y-100548818D01*
X146845145Y-100500184D01*
X146917824Y-100411623D01*
X147026852Y-100322147D01*
X147055019Y-100299031D01*
X147211544Y-100215366D01*
X147381383Y-100163846D01*
X147447567Y-100157328D01*
X147513750Y-100150809D01*
X147602270Y-100150809D01*
X147668453Y-100157328D01*
X147668453Y-100157328D01*
G37*
G36*
X76956228Y-99765703D02*
G01*
X77111100Y-99829853D01*
X77250481Y-99922985D01*
X77369015Y-100041519D01*
X77462147Y-100180900D01*
X77526297Y-100335772D01*
X77559000Y-100500184D01*
X77559000Y-100667816D01*
X77526297Y-100832228D01*
X77462147Y-100987100D01*
X77369015Y-101126481D01*
X77250481Y-101245015D01*
X77111100Y-101338147D01*
X76956228Y-101402297D01*
X76791816Y-101435000D01*
X76624184Y-101435000D01*
X76459772Y-101402297D01*
X76304900Y-101338147D01*
X76165519Y-101245015D01*
X76046985Y-101126481D01*
X75953853Y-100987100D01*
X75889703Y-100832228D01*
X75857000Y-100667816D01*
X75857000Y-100500184D01*
X75889703Y-100335772D01*
X75953853Y-100180900D01*
X76046985Y-100041519D01*
X76165519Y-99922985D01*
X76304900Y-99829853D01*
X76459772Y-99765703D01*
X76624184Y-99733000D01*
X76791816Y-99733000D01*
X76956228Y-99765703D01*
X76956228Y-99765703D01*
G37*
G36*
X73908228Y-98749703D02*
G01*
X74063100Y-98813853D01*
X74202481Y-98906985D01*
X74321015Y-99025519D01*
X74414147Y-99164900D01*
X74478297Y-99319772D01*
X74511000Y-99484184D01*
X74511000Y-99651816D01*
X74478297Y-99816228D01*
X74414147Y-99971100D01*
X74321015Y-100110481D01*
X74202481Y-100229015D01*
X74063100Y-100322147D01*
X73908228Y-100386297D01*
X73743816Y-100419000D01*
X73576184Y-100419000D01*
X73411772Y-100386297D01*
X73256900Y-100322147D01*
X73117519Y-100229015D01*
X72998985Y-100110481D01*
X72905853Y-99971100D01*
X72841703Y-99816228D01*
X72809000Y-99651816D01*
X72809000Y-99484184D01*
X72841703Y-99319772D01*
X72905853Y-99164900D01*
X72998985Y-99025519D01*
X73117519Y-98906985D01*
X73256900Y-98813853D01*
X73411772Y-98749703D01*
X73576184Y-98717000D01*
X73743816Y-98717000D01*
X73908228Y-98749703D01*
X73908228Y-98749703D01*
G37*
G36*
X135128807Y-98051253D02*
G01*
X134712568Y-100009506D01*
X132754315Y-99593267D01*
X133170554Y-97635014D01*
X135128807Y-98051253D01*
X135128807Y-98051253D01*
G37*
G36*
X71411139Y-97944410D02*
G01*
X71571558Y-97993073D01*
X71680405Y-98051253D01*
X71719394Y-98072093D01*
X71848975Y-98178438D01*
X71955320Y-98308019D01*
X71955321Y-98308021D01*
X72034340Y-98455855D01*
X72083003Y-98616274D01*
X72099433Y-98783097D01*
X72083003Y-98949920D01*
X72034340Y-99110339D01*
X72005175Y-99164903D01*
X71955320Y-99258175D01*
X71848975Y-99387756D01*
X71719394Y-99494101D01*
X71719392Y-99494102D01*
X71571558Y-99573121D01*
X71411139Y-99621784D01*
X71286120Y-99634097D01*
X71202512Y-99634097D01*
X71077493Y-99621784D01*
X70917074Y-99573121D01*
X70769240Y-99494102D01*
X70769238Y-99494101D01*
X70639657Y-99387756D01*
X70533312Y-99258175D01*
X70483457Y-99164903D01*
X70454292Y-99110339D01*
X70405629Y-98949920D01*
X70389199Y-98783097D01*
X70405629Y-98616274D01*
X70454292Y-98455855D01*
X70533311Y-98308021D01*
X70533312Y-98308019D01*
X70639657Y-98178438D01*
X70769238Y-98072093D01*
X70808227Y-98051253D01*
X70917074Y-97993073D01*
X71077493Y-97944410D01*
X71202512Y-97932097D01*
X71286120Y-97932097D01*
X71411139Y-97944410D01*
X71411139Y-97944410D01*
G37*
G36*
X125640775Y-96034510D02*
G01*
X125224536Y-97992763D01*
X123266283Y-97576524D01*
X123682522Y-95618271D01*
X125640775Y-96034510D01*
X125640775Y-96034510D01*
G37*
G36*
X105805946Y-80280947D02*
G01*
X105908220Y-80291020D01*
X106097381Y-80348401D01*
X106271712Y-80441583D01*
X106424515Y-80566985D01*
X106549917Y-80719788D01*
X106643099Y-80894119D01*
X106700480Y-81083280D01*
X106719855Y-81280000D01*
X106700480Y-81476720D01*
X106643099Y-81665881D01*
X106549917Y-81840212D01*
X106424515Y-81993015D01*
X106271712Y-82118417D01*
X106097381Y-82211599D01*
X105908220Y-82268980D01*
X105809936Y-82278660D01*
X105760795Y-82283500D01*
X105567205Y-82283500D01*
X105518064Y-82278660D01*
X105419780Y-82268980D01*
X105230619Y-82211599D01*
X105056288Y-82118417D01*
X104903485Y-81993015D01*
X104778083Y-81840212D01*
X104684901Y-81665881D01*
X104627520Y-81476720D01*
X104608145Y-81280000D01*
X104627520Y-81083280D01*
X104684901Y-80894119D01*
X104778083Y-80719788D01*
X104903485Y-80566985D01*
X105056288Y-80441583D01*
X105230619Y-80348401D01*
X105419780Y-80291020D01*
X105522054Y-80280947D01*
X105567205Y-80276500D01*
X105760795Y-80276500D01*
X105805946Y-80280947D01*
X105805946Y-80280947D01*
G37*
G36*
X139309325Y-78606371D02*
G01*
X139422565Y-78626593D01*
X139613521Y-78701331D01*
X139737741Y-78780851D01*
X139786225Y-78811887D01*
X139934042Y-78954010D01*
X140051293Y-79122240D01*
X140133470Y-79310114D01*
X140177416Y-79510408D01*
X140181442Y-79715428D01*
X140176085Y-79745423D01*
X140145394Y-79917292D01*
X140070656Y-80108247D01*
X139960103Y-80280947D01*
X139960100Y-80280950D01*
X139817977Y-80428767D01*
X139817974Y-80428769D01*
X139817973Y-80428770D01*
X139649745Y-80546019D01*
X139508952Y-80607603D01*
X139508947Y-80607605D01*
X138533472Y-80924556D01*
X137528597Y-81251060D01*
X137396695Y-81280000D01*
X137378487Y-81283995D01*
X137173468Y-81288021D01*
X137094478Y-81273915D01*
X136971604Y-81251973D01*
X136780649Y-81177235D01*
X136607945Y-81066679D01*
X136460127Y-80924556D01*
X136387124Y-80819810D01*
X136342877Y-80756326D01*
X136260700Y-80568453D01*
X136216754Y-80368158D01*
X136212728Y-80163139D01*
X136238350Y-80019661D01*
X136248776Y-79961275D01*
X136323514Y-79770320D01*
X136434070Y-79597616D01*
X136576193Y-79449798D01*
X136696881Y-79365683D01*
X136744423Y-79332548D01*
X136744425Y-79332547D01*
X136885218Y-79270963D01*
X136885220Y-79270962D01*
X136885223Y-79270961D01*
X137860697Y-78954010D01*
X138865571Y-78627506D01*
X139015682Y-78594571D01*
X139220702Y-78590545D01*
X139309325Y-78606371D01*
X139309325Y-78606371D01*
G37*
G36*
X122500669Y-76947686D02*
G01*
X122677058Y-76965059D01*
X123016548Y-77068042D01*
X123016550Y-77068043D01*
X123329422Y-77235277D01*
X123603661Y-77460339D01*
X123828723Y-77734578D01*
X123917989Y-77901583D01*
X123995958Y-78047452D01*
X124098941Y-78386942D01*
X124133714Y-78740000D01*
X124098941Y-79093058D01*
X123995958Y-79432548D01*
X123995957Y-79432550D01*
X123828723Y-79745422D01*
X123603661Y-80019661D01*
X123329422Y-80244723D01*
X123098494Y-80368157D01*
X123016548Y-80411958D01*
X122677058Y-80514941D01*
X122500669Y-80532314D01*
X122412476Y-80541000D01*
X122235524Y-80541000D01*
X122147331Y-80532314D01*
X121970942Y-80514941D01*
X121631452Y-80411958D01*
X121549506Y-80368157D01*
X121318578Y-80244723D01*
X121044339Y-80019661D01*
X120819277Y-79745422D01*
X120652043Y-79432550D01*
X120652042Y-79432548D01*
X120549059Y-79093058D01*
X120514286Y-78740000D01*
X120549059Y-78386942D01*
X120652042Y-78047452D01*
X120730011Y-77901583D01*
X120819277Y-77734578D01*
X121044339Y-77460339D01*
X121318578Y-77235277D01*
X121631450Y-77068043D01*
X121631452Y-77068042D01*
X121970942Y-76965059D01*
X122147331Y-76947686D01*
X122235524Y-76939000D01*
X122412476Y-76939000D01*
X122500669Y-76947686D01*
X122500669Y-76947686D01*
G37*
G36*
X105809936Y-77741340D02*
G01*
X105908220Y-77751020D01*
X106097381Y-77808401D01*
X106271712Y-77901583D01*
X106424515Y-78026985D01*
X106549917Y-78179788D01*
X106643099Y-78354119D01*
X106700480Y-78543280D01*
X106719855Y-78740000D01*
X106700480Y-78936720D01*
X106643099Y-79125881D01*
X106549917Y-79300212D01*
X106424515Y-79453015D01*
X106271712Y-79578417D01*
X106097381Y-79671599D01*
X105908220Y-79728980D01*
X105809936Y-79738660D01*
X105760795Y-79743500D01*
X105567205Y-79743500D01*
X105518064Y-79738660D01*
X105419780Y-79728980D01*
X105230619Y-79671599D01*
X105056288Y-79578417D01*
X104903485Y-79453015D01*
X104778083Y-79300212D01*
X104684901Y-79125881D01*
X104627520Y-78936720D01*
X104608145Y-78740000D01*
X104627520Y-78543280D01*
X104684901Y-78354119D01*
X104778083Y-78179788D01*
X104903485Y-78026985D01*
X105056288Y-77901583D01*
X105230619Y-77808401D01*
X105419780Y-77751020D01*
X105518064Y-77741340D01*
X105567205Y-77736500D01*
X105760795Y-77736500D01*
X105809936Y-77741340D01*
X105809936Y-77741340D01*
G37*
G36*
X106715000Y-77203500D02*
G01*
X104613000Y-77203500D01*
X104613000Y-75196500D01*
X106715000Y-75196500D01*
X106715000Y-77203500D01*
X106715000Y-77203500D01*
G37*
G36*
X138669757Y-74821563D02*
G01*
X138905282Y-75546437D01*
X135042091Y-76801663D01*
X134398718Y-74821564D01*
X134398718Y-74821563D01*
X138261909Y-73566337D01*
X138669757Y-74821563D01*
X138669757Y-74821563D01*
G37*
G36*
X122086823Y-69773313D02*
G01*
X122247242Y-69821976D01*
X122288874Y-69844229D01*
X122395078Y-69900996D01*
X122524659Y-70007341D01*
X122631004Y-70136922D01*
X122631005Y-70136924D01*
X122710024Y-70284758D01*
X122758687Y-70445177D01*
X122775117Y-70612000D01*
X122758687Y-70778823D01*
X122710024Y-70939242D01*
X122705477Y-70947748D01*
X122631004Y-71087078D01*
X122524659Y-71216659D01*
X122395078Y-71323004D01*
X122395076Y-71323005D01*
X122247242Y-71402024D01*
X122086823Y-71450687D01*
X121961804Y-71463000D01*
X121878196Y-71463000D01*
X121753177Y-71450687D01*
X121592758Y-71402024D01*
X121444924Y-71323005D01*
X121444922Y-71323004D01*
X121315341Y-71216659D01*
X121208996Y-71087078D01*
X121134523Y-70947748D01*
X121129976Y-70939242D01*
X121081313Y-70778823D01*
X121064883Y-70612000D01*
X121081313Y-70445177D01*
X121129976Y-70284758D01*
X121208995Y-70136924D01*
X121208996Y-70136922D01*
X121315341Y-70007341D01*
X121444922Y-69900996D01*
X121551126Y-69844229D01*
X121592758Y-69821976D01*
X121753177Y-69773313D01*
X121878196Y-69761000D01*
X121961804Y-69761000D01*
X122086823Y-69773313D01*
X122086823Y-69773313D01*
G37*
G36*
X99692071Y-67072063D02*
G01*
X99888300Y-67131589D01*
X100069146Y-67228253D01*
X100100157Y-67253703D01*
X100227660Y-67358340D01*
X100357748Y-67516855D01*
X100368505Y-67536980D01*
X100454411Y-67697699D01*
X100513937Y-67893928D01*
X100529000Y-68046868D01*
X100529000Y-70129132D01*
X100513937Y-70282072D01*
X100464459Y-70445177D01*
X100454410Y-70478303D01*
X100357748Y-70659145D01*
X100227660Y-70817660D01*
X100069145Y-70947748D01*
X99888303Y-71044410D01*
X99888301Y-71044411D01*
X99692072Y-71103937D01*
X99488000Y-71124036D01*
X99283929Y-71103937D01*
X99087700Y-71044411D01*
X99087698Y-71044410D01*
X98906856Y-70947748D01*
X98748341Y-70817660D01*
X98618253Y-70659145D01*
X98521591Y-70478303D01*
X98511542Y-70445177D01*
X98462064Y-70282072D01*
X98447001Y-70129132D01*
X98447000Y-68046869D01*
X98462063Y-67893929D01*
X98521589Y-67697700D01*
X98618253Y-67516854D01*
X98652140Y-67475563D01*
X98748340Y-67358340D01*
X98906855Y-67228252D01*
X99087697Y-67131590D01*
X99087699Y-67131589D01*
X99283928Y-67072063D01*
X99488000Y-67051964D01*
X99692071Y-67072063D01*
X99692071Y-67072063D01*
G37*
G36*
X95529000Y-71119000D02*
G01*
X93447000Y-71119000D01*
X93447000Y-67057000D01*
X95529000Y-67057000D01*
X95529000Y-71119000D01*
X95529000Y-71119000D01*
G37*
G36*
X90590823Y-68757313D02*
G01*
X90751242Y-68805976D01*
X90818361Y-68841852D01*
X90899078Y-68884996D01*
X91028659Y-68991341D01*
X91135004Y-69120922D01*
X91135005Y-69120924D01*
X91214024Y-69268758D01*
X91262687Y-69429177D01*
X91279117Y-69596000D01*
X91262687Y-69762823D01*
X91214024Y-69923242D01*
X91173477Y-69999100D01*
X91135004Y-70071078D01*
X91028659Y-70200659D01*
X90899078Y-70307004D01*
X90899076Y-70307005D01*
X90751242Y-70386024D01*
X90590823Y-70434687D01*
X90465804Y-70447000D01*
X90382196Y-70447000D01*
X90257177Y-70434687D01*
X90096758Y-70386024D01*
X89948924Y-70307005D01*
X89948922Y-70307004D01*
X89819341Y-70200659D01*
X89712996Y-70071078D01*
X89674523Y-69999100D01*
X89633976Y-69923242D01*
X89585313Y-69762823D01*
X89568883Y-69596000D01*
X89585313Y-69429177D01*
X89633976Y-69268758D01*
X89712995Y-69120924D01*
X89712996Y-69120922D01*
X89819341Y-68991341D01*
X89948922Y-68884996D01*
X90029639Y-68841852D01*
X90096758Y-68805976D01*
X90257177Y-68757313D01*
X90382196Y-68745000D01*
X90465804Y-68745000D01*
X90590823Y-68757313D01*
X90590823Y-68757313D01*
G37*
G36*
X88132228Y-68777703D02*
G01*
X88287100Y-68841853D01*
X88426481Y-68934985D01*
X88545015Y-69053519D01*
X88638147Y-69192900D01*
X88702297Y-69347772D01*
X88735000Y-69512184D01*
X88735000Y-69679816D01*
X88702297Y-69844228D01*
X88638147Y-69999100D01*
X88545015Y-70138481D01*
X88426481Y-70257015D01*
X88287100Y-70350147D01*
X88132228Y-70414297D01*
X87967816Y-70447000D01*
X87800184Y-70447000D01*
X87635772Y-70414297D01*
X87480900Y-70350147D01*
X87341519Y-70257015D01*
X87222985Y-70138481D01*
X87129853Y-69999100D01*
X87065703Y-69844228D01*
X87033000Y-69679816D01*
X87033000Y-69512184D01*
X87065703Y-69347772D01*
X87129853Y-69192900D01*
X87222985Y-69053519D01*
X87341519Y-68934985D01*
X87480900Y-68841853D01*
X87635772Y-68777703D01*
X87800184Y-68745000D01*
X87967816Y-68745000D01*
X88132228Y-68777703D01*
X88132228Y-68777703D01*
G37*
G36*
X128051000Y-70091500D02*
G01*
X125949000Y-70091500D01*
X125949000Y-68084500D01*
X128051000Y-68084500D01*
X128051000Y-70091500D01*
X128051000Y-70091500D01*
G37*
G36*
X122168228Y-67253703D02*
G01*
X122323100Y-67317853D01*
X122462481Y-67410985D01*
X122581015Y-67529519D01*
X122674147Y-67668900D01*
X122738297Y-67823772D01*
X122771000Y-67988184D01*
X122771000Y-68155816D01*
X122738297Y-68320228D01*
X122674147Y-68475100D01*
X122581015Y-68614481D01*
X122462481Y-68733015D01*
X122323100Y-68826147D01*
X122168228Y-68890297D01*
X122003816Y-68923000D01*
X121836184Y-68923000D01*
X121671772Y-68890297D01*
X121516900Y-68826147D01*
X121377519Y-68733015D01*
X121258985Y-68614481D01*
X121165853Y-68475100D01*
X121101703Y-68320228D01*
X121069000Y-68155816D01*
X121069000Y-67988184D01*
X121101703Y-67823772D01*
X121165853Y-67668900D01*
X121258985Y-67529519D01*
X121377519Y-67410985D01*
X121516900Y-67317853D01*
X121671772Y-67253703D01*
X121836184Y-67221000D01*
X122003816Y-67221000D01*
X122168228Y-67253703D01*
X122168228Y-67253703D01*
G37*
G36*
X127145936Y-65549340D02*
G01*
X127244220Y-65559020D01*
X127433381Y-65616401D01*
X127607712Y-65709583D01*
X127760515Y-65834985D01*
X127885917Y-65987788D01*
X127979099Y-66162119D01*
X128036480Y-66351280D01*
X128055855Y-66548000D01*
X128036480Y-66744720D01*
X127979099Y-66933881D01*
X127885917Y-67108212D01*
X127760515Y-67261015D01*
X127607712Y-67386417D01*
X127433381Y-67479599D01*
X127244220Y-67536980D01*
X127145936Y-67546660D01*
X127096795Y-67551500D01*
X126903205Y-67551500D01*
X126854064Y-67546660D01*
X126755780Y-67536980D01*
X126566619Y-67479599D01*
X126392288Y-67386417D01*
X126239485Y-67261015D01*
X126114083Y-67108212D01*
X126020901Y-66933881D01*
X125963520Y-66744720D01*
X125944145Y-66548000D01*
X125963520Y-66351280D01*
X126020901Y-66162119D01*
X126114083Y-65987788D01*
X126239485Y-65834985D01*
X126392288Y-65709583D01*
X126566619Y-65616401D01*
X126755780Y-65559020D01*
X126854064Y-65549340D01*
X126903205Y-65544500D01*
X127096795Y-65544500D01*
X127145936Y-65549340D01*
X127145936Y-65549340D01*
G37*
G36*
X88132228Y-65729703D02*
G01*
X88287100Y-65793853D01*
X88426481Y-65886985D01*
X88545015Y-66005519D01*
X88638147Y-66144900D01*
X88702297Y-66299772D01*
X88735000Y-66464184D01*
X88735000Y-66631816D01*
X88702297Y-66796228D01*
X88638147Y-66951100D01*
X88545015Y-67090481D01*
X88426481Y-67209015D01*
X88287100Y-67302147D01*
X88132228Y-67366297D01*
X87967816Y-67399000D01*
X87800184Y-67399000D01*
X87635772Y-67366297D01*
X87480900Y-67302147D01*
X87341519Y-67209015D01*
X87222985Y-67090481D01*
X87129853Y-66951100D01*
X87065703Y-66796228D01*
X87033000Y-66631816D01*
X87033000Y-66464184D01*
X87065703Y-66299772D01*
X87129853Y-66144900D01*
X87222985Y-66005519D01*
X87341519Y-65886985D01*
X87480900Y-65793853D01*
X87635772Y-65729703D01*
X87800184Y-65697000D01*
X87967816Y-65697000D01*
X88132228Y-65729703D01*
X88132228Y-65729703D01*
G37*
G36*
X90590823Y-65709313D02*
G01*
X90751242Y-65757976D01*
X90818361Y-65793852D01*
X90899078Y-65836996D01*
X91028659Y-65943341D01*
X91135004Y-66072922D01*
X91135005Y-66072924D01*
X91214024Y-66220758D01*
X91262687Y-66381177D01*
X91279117Y-66548000D01*
X91262687Y-66714823D01*
X91214024Y-66875242D01*
X91173477Y-66951100D01*
X91135004Y-67023078D01*
X91028659Y-67152659D01*
X90899078Y-67259004D01*
X90899076Y-67259005D01*
X90751242Y-67338024D01*
X90590823Y-67386687D01*
X90465804Y-67399000D01*
X90382196Y-67399000D01*
X90257177Y-67386687D01*
X90096758Y-67338024D01*
X89948924Y-67259005D01*
X89948922Y-67259004D01*
X89819341Y-67152659D01*
X89712996Y-67023078D01*
X89674523Y-66951100D01*
X89633976Y-66875242D01*
X89585313Y-66714823D01*
X89568883Y-66548000D01*
X89585313Y-66381177D01*
X89633976Y-66220758D01*
X89712995Y-66072924D01*
X89712996Y-66072922D01*
X89819341Y-65943341D01*
X89948922Y-65836996D01*
X90029639Y-65793852D01*
X90096758Y-65757976D01*
X90257177Y-65709313D01*
X90382196Y-65697000D01*
X90465804Y-65697000D01*
X90590823Y-65709313D01*
X90590823Y-65709313D01*
G37*
G36*
X122168228Y-64205703D02*
G01*
X122323100Y-64269853D01*
X122462481Y-64362985D01*
X122581015Y-64481519D01*
X122674147Y-64620900D01*
X122738297Y-64775772D01*
X122771000Y-64940184D01*
X122771000Y-65107816D01*
X122738297Y-65272228D01*
X122674147Y-65427100D01*
X122581015Y-65566481D01*
X122462481Y-65685015D01*
X122323100Y-65778147D01*
X122168228Y-65842297D01*
X122003816Y-65875000D01*
X121836184Y-65875000D01*
X121671772Y-65842297D01*
X121516900Y-65778147D01*
X121377519Y-65685015D01*
X121258985Y-65566481D01*
X121165853Y-65427100D01*
X121101703Y-65272228D01*
X121069000Y-65107816D01*
X121069000Y-64940184D01*
X121101703Y-64775772D01*
X121165853Y-64620900D01*
X121258985Y-64481519D01*
X121377519Y-64362985D01*
X121516900Y-64269853D01*
X121671772Y-64205703D01*
X121836184Y-64173000D01*
X122003816Y-64173000D01*
X122168228Y-64205703D01*
X122168228Y-64205703D01*
G37*
G36*
X127145936Y-63009340D02*
G01*
X127244220Y-63019020D01*
X127433381Y-63076401D01*
X127607712Y-63169583D01*
X127760515Y-63294985D01*
X127885917Y-63447788D01*
X127979099Y-63622119D01*
X128036480Y-63811280D01*
X128055855Y-64008000D01*
X128036480Y-64204720D01*
X127979099Y-64393881D01*
X127885917Y-64568212D01*
X127760515Y-64721015D01*
X127607712Y-64846417D01*
X127433381Y-64939599D01*
X127244220Y-64996980D01*
X127145936Y-65006660D01*
X127096795Y-65011500D01*
X126903205Y-65011500D01*
X126854064Y-65006660D01*
X126755780Y-64996980D01*
X126566619Y-64939599D01*
X126392288Y-64846417D01*
X126239485Y-64721015D01*
X126114083Y-64568212D01*
X126020901Y-64393881D01*
X125963520Y-64204720D01*
X125944145Y-64008000D01*
X125963520Y-63811280D01*
X126020901Y-63622119D01*
X126114083Y-63447788D01*
X126239485Y-63294985D01*
X126392288Y-63169583D01*
X126566619Y-63076401D01*
X126755780Y-63019020D01*
X126854064Y-63009340D01*
X126903205Y-63004500D01*
X127096795Y-63004500D01*
X127145936Y-63009340D01*
X127145936Y-63009340D01*
G37*
G36*
X122086823Y-61645313D02*
G01*
X122247242Y-61693976D01*
X122379906Y-61764886D01*
X122395078Y-61772996D01*
X122524659Y-61879341D01*
X122631004Y-62008922D01*
X122631005Y-62008924D01*
X122710024Y-62156758D01*
X122758687Y-62317177D01*
X122775117Y-62484000D01*
X122758687Y-62650823D01*
X122710024Y-62811242D01*
X122639114Y-62943906D01*
X122631004Y-62959078D01*
X122524659Y-63088659D01*
X122395078Y-63195004D01*
X122395076Y-63195005D01*
X122247242Y-63274024D01*
X122086823Y-63322687D01*
X121961804Y-63335000D01*
X121878196Y-63335000D01*
X121753177Y-63322687D01*
X121592758Y-63274024D01*
X121444924Y-63195005D01*
X121444922Y-63195004D01*
X121315341Y-63088659D01*
X121208996Y-62959078D01*
X121200886Y-62943906D01*
X121129976Y-62811242D01*
X121081313Y-62650823D01*
X121064883Y-62484000D01*
X121081313Y-62317177D01*
X121129976Y-62156758D01*
X121208995Y-62008924D01*
X121208996Y-62008922D01*
X121315341Y-61879341D01*
X121444922Y-61772996D01*
X121460094Y-61764886D01*
X121592758Y-61693976D01*
X121753177Y-61645313D01*
X121878196Y-61633000D01*
X121961804Y-61633000D01*
X122086823Y-61645313D01*
X122086823Y-61645313D01*
G37*
M02*
