G04 #@! TF.GenerationSoftware,KiCad,Pcbnew,5.1.4-e60b266~84~ubuntu18.04.1*
G04 #@! TF.CreationDate,2020-03-13T15:35:42+01:00*
G04 #@! TF.ProjectId,tree_lights,74726565-5f6c-4696-9768-74732e6b6963,rev?*
G04 #@! TF.SameCoordinates,Original*
G04 #@! TF.FileFunction,Copper,L1,Top*
G04 #@! TF.FilePolarity,Positive*
%FSLAX46Y46*%
G04 Gerber Fmt 4.6, Leading zero omitted, Abs format (unit mm)*
G04 Created by KiCad (PCBNEW 5.1.4-e60b266~84~ubuntu18.04.1) date 2020-03-13 15:35:42*
%MOMM*%
%LPD*%
G04 APERTURE LIST*
%ADD10O,1.600000X1.600000*%
%ADD11C,1.600000*%
%ADD12C,1.980000*%
%ADD13C,1.980000*%
%ADD14C,0.100000*%
%ADD15O,1.980000X3.960000*%
%ADD16R,1.980000X3.960000*%
%ADD17R,2.000000X1.905000*%
%ADD18O,2.000000X1.905000*%
%ADD19C,1.600000*%
%ADD20C,1.900000*%
%ADD21O,1.050000X1.500000*%
%ADD22R,1.050000X1.500000*%
%ADD23C,1.524000*%
%ADD24O,2.524000X1.524000*%
%ADD25C,1.700000*%
%ADD26C,1.700000*%
%ADD27C,1.905000*%
%ADD28C,1.905000*%
%ADD29C,1.000000*%
%ADD30C,0.800000*%
%ADD31C,1.000000*%
%ADD32C,2.500000*%
%ADD33C,2.000000*%
G04 APERTURE END LIST*
D10*
X111760000Y-134112000D03*
D11*
X111760000Y-141732000D03*
D12*
X146788442Y-112078738D03*
D13*
X147756808Y-112284571D02*
X145820076Y-111872905D01*
D12*
X147828000Y-107188000D03*
D14*
G36*
X146097100Y-105807969D02*
G01*
X149970565Y-106631299D01*
X149558900Y-108568031D01*
X145685435Y-107744701D01*
X146097100Y-105807969D01*
X146097100Y-105807969D01*
G37*
D12*
X136652000Y-75184000D03*
D14*
G36*
X134462981Y-74854308D02*
G01*
X138229165Y-73630600D01*
X138841019Y-75513692D01*
X135074835Y-76737400D01*
X134462981Y-74854308D01*
X134462981Y-74854308D01*
G37*
D12*
X138197085Y-79939283D03*
D13*
X139138631Y-79633356D02*
X137255539Y-80245210D01*
D15*
X99488000Y-69088000D03*
D16*
X94488000Y-69088000D03*
D12*
X82296000Y-119380000D03*
D14*
G36*
X84295140Y-118429244D02*
G01*
X81857121Y-121549766D01*
X80296860Y-120330756D01*
X82734879Y-117210234D01*
X84295140Y-118429244D01*
X84295140Y-118429244D01*
G37*
D12*
X78355946Y-116301693D03*
D13*
X77746441Y-117081824D02*
X78965451Y-115521562D01*
D17*
X127000000Y-69088000D03*
D18*
X127000000Y-66548000D03*
X127000000Y-64008000D03*
D11*
X121920000Y-68072000D03*
D10*
X121920000Y-70612000D03*
D11*
X87884000Y-69596000D03*
D10*
X90424000Y-69596000D03*
D11*
X73660000Y-99568000D03*
X71244316Y-98783097D03*
D19*
X71244316Y-98783097D02*
X71244316Y-98783097D01*
D10*
X121920000Y-62484000D03*
D11*
X121920000Y-65024000D03*
D10*
X90424000Y-66548000D03*
D11*
X87884000Y-66548000D03*
X79123684Y-101368903D03*
D19*
X79123684Y-101368903D02*
X79123684Y-101368903D01*
D11*
X76708000Y-100584000D03*
D20*
X133941561Y-98822260D03*
D14*
G36*
X133209837Y-97695504D02*
G01*
X135068317Y-98090536D01*
X134673285Y-99949016D01*
X132814805Y-99553984D01*
X133209837Y-97695504D01*
X133209837Y-97695504D01*
G37*
D20*
X124453529Y-96805517D03*
D14*
G36*
X123721805Y-95678761D02*
G01*
X125580285Y-96073793D01*
X125185253Y-97932273D01*
X123326773Y-97537241D01*
X123721805Y-95678761D01*
X123721805Y-95678761D01*
G37*
D20*
X130614974Y-114472622D03*
D14*
G36*
X129883250Y-113345866D02*
G01*
X131741730Y-113740898D01*
X131346698Y-115599378D01*
X129488218Y-115204346D01*
X129883250Y-113345866D01*
X129883250Y-113345866D01*
G37*
D20*
X121126942Y-112455878D03*
D14*
G36*
X120395218Y-111329122D02*
G01*
X122253698Y-111724154D01*
X121858666Y-113582634D01*
X120000186Y-113187602D01*
X120395218Y-111329122D01*
X120395218Y-111329122D01*
G37*
D21*
X146431000Y-119888000D03*
X145161000Y-119888000D03*
D22*
X147701000Y-119888000D03*
D14*
G36*
X107598345Y-123191835D02*
G01*
X107635329Y-123197321D01*
X107671598Y-123206406D01*
X107706802Y-123219002D01*
X107740602Y-123234988D01*
X107772672Y-123254210D01*
X107802704Y-123276483D01*
X107830408Y-123301592D01*
X107855517Y-123329296D01*
X107877790Y-123359328D01*
X107897012Y-123391398D01*
X107912998Y-123425198D01*
X107925594Y-123460402D01*
X107934679Y-123496671D01*
X107940165Y-123533655D01*
X107942000Y-123571000D01*
X107942000Y-124333000D01*
X107940165Y-124370345D01*
X107934679Y-124407329D01*
X107925594Y-124443598D01*
X107912998Y-124478802D01*
X107897012Y-124512602D01*
X107877790Y-124544672D01*
X107855517Y-124574704D01*
X107830408Y-124602408D01*
X107802704Y-124627517D01*
X107772672Y-124649790D01*
X107740602Y-124669012D01*
X107706802Y-124684998D01*
X107671598Y-124697594D01*
X107635329Y-124706679D01*
X107598345Y-124712165D01*
X107561000Y-124714000D01*
X105799000Y-124714000D01*
X105761655Y-124712165D01*
X105724671Y-124706679D01*
X105688402Y-124697594D01*
X105653198Y-124684998D01*
X105619398Y-124669012D01*
X105587328Y-124649790D01*
X105557296Y-124627517D01*
X105529592Y-124602408D01*
X105504483Y-124574704D01*
X105482210Y-124544672D01*
X105462988Y-124512602D01*
X105447002Y-124478802D01*
X105434406Y-124443598D01*
X105425321Y-124407329D01*
X105419835Y-124370345D01*
X105418000Y-124333000D01*
X105418000Y-123571000D01*
X105419835Y-123533655D01*
X105425321Y-123496671D01*
X105434406Y-123460402D01*
X105447002Y-123425198D01*
X105462988Y-123391398D01*
X105482210Y-123359328D01*
X105504483Y-123329296D01*
X105529592Y-123301592D01*
X105557296Y-123276483D01*
X105587328Y-123254210D01*
X105619398Y-123234988D01*
X105653198Y-123219002D01*
X105688402Y-123206406D01*
X105724671Y-123197321D01*
X105761655Y-123191835D01*
X105799000Y-123190000D01*
X107561000Y-123190000D01*
X107598345Y-123191835D01*
X107598345Y-123191835D01*
G37*
D23*
X106680000Y-123952000D03*
D24*
X106680000Y-126492000D03*
X106680000Y-129032000D03*
X106680000Y-131572000D03*
X106680000Y-141732000D03*
X106680000Y-136652000D03*
X106680000Y-139192000D03*
X106680000Y-134112000D03*
X116840000Y-134112000D03*
X116840000Y-129032000D03*
X116840000Y-126492000D03*
X116840000Y-141732000D03*
X116840000Y-131572000D03*
X116840000Y-123952000D03*
X116840000Y-139192000D03*
X116840000Y-136652000D03*
D25*
X152527000Y-102108000D03*
D14*
G36*
X151872299Y-101099850D02*
G01*
X153535150Y-101453299D01*
X153181701Y-103116150D01*
X151518850Y-102762701D01*
X151872299Y-101099850D01*
X151872299Y-101099850D01*
G37*
D25*
X150042505Y-101579904D03*
D26*
X150042505Y-101579904D02*
X150042505Y-101579904D01*
D25*
X147558010Y-101051809D03*
D26*
X147558010Y-101051809D02*
X147558010Y-101051809D01*
D17*
X105664000Y-76200000D03*
D18*
X105664000Y-78740000D03*
X105664000Y-81280000D03*
D27*
X71120000Y-104140000D03*
D14*
G36*
X69905102Y-104796718D02*
G01*
X70523136Y-102894605D01*
X72334898Y-103483282D01*
X71716864Y-105385395D01*
X69905102Y-104796718D01*
X69905102Y-104796718D01*
G37*
D27*
X73535684Y-104924903D03*
D28*
X73550362Y-104879728D02*
X73521006Y-104970078D01*
D27*
X75951367Y-105709806D03*
D28*
X75966045Y-105664631D02*
X75936689Y-105754981D01*
D29*
X103251000Y-91567000D03*
X103251000Y-126619000D03*
D30*
X95457503Y-87930497D03*
D29*
X95457503Y-87930497D03*
X95457503Y-122347497D03*
D31*
X91223999Y-65748001D02*
X90424000Y-66548000D01*
X96355001Y-65748001D02*
X91223999Y-65748001D01*
X103664000Y-81280000D02*
X105664000Y-81280000D01*
X101946270Y-81280000D02*
X103664000Y-81280000D01*
X100213990Y-79547720D02*
X101946270Y-81280000D01*
X100213990Y-77051720D02*
X100213990Y-79547720D01*
X97537991Y-74375721D02*
X100213990Y-77051720D01*
X97537990Y-66930990D02*
X97537991Y-74375721D01*
X96355001Y-65748001D02*
X97537990Y-66930990D01*
X147701000Y-112991296D02*
X147701000Y-119888000D01*
X146788442Y-112078738D02*
X147701000Y-112991296D01*
D32*
X152527000Y-102108000D02*
X152527000Y-105156000D01*
X150495000Y-107188000D02*
X147828000Y-107188000D01*
X152527000Y-105156000D02*
X150495000Y-107188000D01*
X129533529Y-88602839D02*
X138197085Y-79939283D01*
X94488000Y-74882390D02*
X96266000Y-76660390D01*
X94488000Y-69088000D02*
X94488000Y-74882390D01*
X96266000Y-76660390D02*
X96266000Y-80772000D01*
X104096839Y-88602839D02*
X129533529Y-88602839D01*
X96266000Y-80772000D02*
X104096839Y-88602839D01*
X144860377Y-105831970D02*
X146471970Y-105831970D01*
X134962243Y-95933836D02*
X144860377Y-105831970D01*
X146471970Y-105831970D02*
X147828000Y-107188000D01*
X125325210Y-95933836D02*
X134962243Y-95933836D01*
X124453529Y-96805517D02*
X125325210Y-95933836D01*
X129533529Y-91725517D02*
X124453529Y-96805517D01*
X129533529Y-88602839D02*
X129533529Y-91725517D01*
X82296000Y-119380000D02*
X82296000Y-103378000D01*
X82614971Y-103059029D02*
X82614971Y-101069948D01*
X82296000Y-103378000D02*
X82614971Y-103059029D01*
X82614971Y-101069948D02*
X85768180Y-91365365D01*
X85768180Y-91365365D02*
X95169833Y-80622566D01*
X103641498Y-78740000D02*
X105664000Y-78740000D01*
X99488000Y-73568000D02*
X103213999Y-77293999D01*
X103213999Y-78312501D02*
X103641498Y-78740000D01*
X103213999Y-77293999D02*
X103213999Y-78312501D01*
X99488000Y-69088000D02*
X99488000Y-73568000D01*
X78355946Y-114645959D02*
X73534759Y-109824772D01*
X78355946Y-116301693D02*
X78355946Y-114645959D01*
X73534759Y-109824772D02*
X73502772Y-109824772D01*
X72898000Y-109220000D02*
X72898000Y-107061000D01*
X73502772Y-109824772D02*
X72898000Y-109220000D01*
D33*
X72898000Y-106658709D02*
X72898000Y-107061000D01*
X73535684Y-106021025D02*
X72898000Y-106658709D01*
X73535684Y-104924903D02*
X73535684Y-106021025D01*
D31*
X122936000Y-69088000D02*
X121920000Y-68072000D01*
X127000000Y-69088000D02*
X122936000Y-69088000D01*
X121920000Y-68072000D02*
X121920000Y-65024000D01*
X87884000Y-66548000D02*
X87884000Y-69596000D01*
X105616500Y-76200000D02*
X105664000Y-76200000D01*
X98328027Y-64547992D02*
X102717430Y-68937395D01*
X89884008Y-64547992D02*
X98328027Y-64547992D01*
X102717430Y-73300930D02*
X105616500Y-76200000D01*
X102717430Y-68937395D02*
X102717430Y-73300930D01*
X87884000Y-66548000D02*
X89884008Y-64547992D01*
X71120000Y-102108000D02*
X73660000Y-99568000D01*
X71120000Y-104140000D02*
X71120000Y-102108000D01*
X75692000Y-99568000D02*
X76708000Y-100584000D01*
X73660000Y-99568000D02*
X75692000Y-99568000D01*
X103251000Y-91567000D02*
X103251000Y-126619000D01*
X95457503Y-87930497D02*
X95457503Y-122347497D01*
D32*
X116840000Y-141732000D02*
X111760000Y-141732000D01*
X121126942Y-115735340D02*
X121126942Y-112455878D01*
X120590141Y-139070113D02*
X120590141Y-116272141D01*
X116840000Y-141732000D02*
X117928254Y-141732000D01*
X120590141Y-116272141D02*
X121126942Y-115735340D01*
X117928254Y-141732000D02*
X120590141Y-139070113D01*
D31*
X140047388Y-116299388D02*
X120617388Y-116299388D01*
X143636000Y-119888000D02*
X140047388Y-116299388D01*
X120617388Y-116299388D02*
X120590141Y-116272141D01*
X145161000Y-119888000D02*
X143636000Y-119888000D01*
X114300000Y-131572000D02*
X111760000Y-134112000D01*
X116840000Y-131572000D02*
X114300000Y-131572000D01*
D32*
X136652000Y-74043053D02*
X136652000Y-75184000D01*
X136652000Y-72700000D02*
X136652000Y-74043053D01*
X130500000Y-66548000D02*
X136652000Y-72700000D01*
X127000000Y-66548000D02*
X130500000Y-66548000D01*
M02*
