M48
; DRILL file {KiCad 5.1.4-e60b266~84~ubuntu18.04.1} date vr 13 mrt 2020 15:35:32 CET
; FORMAT={2:4/ absolute / inch / suppress leading zeros}
; #@! TF.CreationDate,2020-03-13T15:35:32+01:00
; #@! TF.GenerationSoftware,Kicad,Pcbnew,5.1.4-e60b266~84~ubuntu18.04.1
FMAT,2
INCH,TZ
T1C0.0157
T2C0.0197
T3C0.0295
T4C0.0300
T5C0.0315
T6C0.0394
T7C0.0433
T8C0.0520
T9C0.0551
T10C0.1378
%
G90
G05
T1
X37582Y-34618
T2
X37582Y-34618
X37582Y-48168
X40650Y-36050
X40650Y-49850
T3
X57150Y-47200
X57650Y-47200
X58150Y-47200
T4
X42000Y-48800
X42000Y-49800
X42000Y-50800
X42000Y-51800
X42000Y-52800
X42000Y-53800
X42000Y-54800
X42000Y-55800
X46000Y-48800
X46000Y-49800
X46000Y-50800
X46000Y-51800
X46000Y-52800
X46000Y-53800
X46000Y-54800
X46000Y-55800
T5
X34600Y-26200
X35600Y-26200
X44000Y-52800
X44000Y-55800
X30200Y-39600
X31151Y-39909
X48000Y-26800
X48000Y-27800
X34600Y-27400
X35600Y-27400
X28049Y-38891
X29000Y-39200
X48000Y-24600
X48000Y-25600
T6
X58094Y-39784
X59072Y-39992
X60050Y-40200
T7
X41600Y-30000
X41600Y-31000
X41600Y-32000
X50000Y-25200
X50000Y-26200
X50000Y-27200
X28000Y-41000
X28951Y-41309
X29902Y-41618
T8
X30849Y-45788
X32400Y-47000
X57791Y-44125
X58200Y-42200
X37200Y-27200
X39169Y-27200
X53800Y-29600
X54408Y-31472
T9
X47688Y-44274
X48997Y-38112
X51423Y-45068
X52733Y-38906
T10
X48159Y-31000
T0
M30
